<?xml version="1.0" encoding="utf-8"?>
<!-- (c) ammap.com | SVG map of AL Counties -->
<svg xmlns="http://www.w3.org/2000/svg" xmlns:amcharts="http://amcharts.com/ammap" xmlns:xlink="http://www.w3.org/1999/xlink" version="1.1">
	<defs>
		<style type="text/css">
			.land
			{
				fill: #CCCCCC;
				fill-opacity: 1;
				stroke:white;
				stroke-opacity: 1;
				stroke-width:0.5;
			}
		</style>

		<amcharts:ammap projection="mercator" leftLongitude="-88.473444" topLatitude="35.008147" rightLongitude="-84.890628" bottomLatitude="30.220944"></amcharts:ammap>

		<!-- All areas are listed in the line below. You can use this list in your script. -->
		<!--{id:"C01001"},{id:"C01003"},{id:"C01005"},{id:"C01007"},{id:"C01009"},{id:"C01011"},{id:"C01013"},{id:"C01015"},{id:"C01017"},{id:"C01019"},{id:"C01021"},{id:"C01023"},{id:"C01025"},{id:"C01027"},{id:"C01029"},{id:"C01031"},{id:"C01033"},{id:"C01035"},{id:"C01037"},{id:"C01039"},{id:"C01041"},{id:"C01043"},{id:"C01045"},{id:"C01047"},{id:"C01049"},{id:"C01051"},{id:"C01053"},{id:"C01055"},{id:"C01057"},{id:"C01059"},{id:"C01061"},{id:"C01063"},{id:"C01065"},{id:"C01067"},{id:"C01069"},{id:"C01071"},{id:"C01073"},{id:"C01075"},{id:"C01077"},{id:"C01079"},{id:"C01081"},{id:"C01083"},{id:"C01085"},{id:"C01087"},{id:"C01089"},{id:"C01091"},{id:"C01093"},{id:"C01095"},{id:"C01097"},{id:"C01099"},{id:"C01101"},{id:"C01103"},{id:"C01105"},{id:"C01107"},{id:"C01109"},{id:"C01111"},{id:"C01113"},{id:"C01115"},{id:"C01117"},{id:"C01119"},{id:"C01121"},{id:"C01123"},{id:"C01125"},{id:"C01127"},{id:"C01129"},{id:"C01131"},{id:"C01133"}-->

	</defs>
	<g>
		<path id="C01001" title="Autauga" class="land" d="M336.47,607.58L358.32,608.62L380.64,608.21L380.46,596.96L445.59,596.53L446.01,672.5L438.75,675.07L436.39,673.55L434.91,680.61L428.36,684.83L427.49,689.2L419.76,690.64L417.59,684.33L409.09,681.4L406.17,684.89L401.96,681.59L402.26,675.4L400.88,673.38L393.61,675.74L393.14,681.11L387.1,686.91L381.08,685.03L379.42,682.16L379.67,674.32L377.66,673.89L372.73,677.81L366.59,676.41L366.14,683.04L367.71,690.14L362.28,698.32L358.42,697.98L358.68,690.12L359.16,683.87L353.07,675.94L353.53,670.08L352.5,666.59L349.49,665.18L347.88,663.74L346.56,658.27L344.22,654.49L344.02,651.6L342.43,647.46L339.98,642.13L338.96,638.1L340.46,633.12L339.43,627.17L338.22,621.54L337.87,616.89L336.39,612.39L335.9,608.94z"/>
		<path id="C01003" title="Baldwin" class="land" d="M189.1,1029.87L189.05,1030.3L189.58,1032.34L190.3,1033.51L190.46,1034.22L190.14,1034.86L190.15,1035.17L190.38,1036.02L190.84,1036.91L191.21,1038.15L190.59,1041.41L189.55,1044.01L189.24,1044.59L188.72,1045.02L188.29,1045.73L187.18,1048.18L187.09,1048.83L186.67,1050.15L186.31,1050.68L185.8,1052.18L185.64,1053.27L185.41,1053.96L184.39,1054.59L184.07,1054.95L184,1055.91L184.35,1056.85L184.38,1057.46L184.1,1057.99L183.6,1058.16L182.5,1059.31L182.39,1059.92L181.32,1062.88L182.76,1064.32L183.2,1065.08L183.38,1065.77L183.14,1066.39L182.96,1067.37L183.23,1067.74L183.65,1067.94L185.13,1069.28L185.55,1070.11L185.43,1070.7L186.5,1071.22L187.62,1071.55L188.1,1072.22L188.52,1073.09L188.77,1074.23L190.11,1075.14L191.5,1075.63L192.79,1076.29L193.88,1077.35L194.92,1079.26L195.76,1079.62L196.61,1080.33L197.51,1081.33L197.64,1081.79L198.64,1082.62L199.05,1082.67L199.24,1082.84L200.76,1084.74L200.69,1085.88L200.52,1086.4L201.36,1087.54L202.48,1088.78L202.6,1089.07L202.84,1090.73L202.85,1091.98L203.45,1093.55L205.39,1094.85L207.97,1096.04L209.39,1097.85L210,1099.03L211.04,1099.4L211.2,1099.34L213.31,1099.81L214.56,1100.31L214.87,1100.7L214.92,1101.22L216.03,1102.79L216.9,1103.12L217.48,1104.02L217.78,1104.23L219.81,1105.05L221.01,1104.49L221.45,1104.71L222.71,1105.79L222.99,1106.27L223.52,1106.82L224.34,1107.27L225.56,1107.28L226.75,1108.6L227.91,1109.45L229.38,1109.93L230.63,1110.65L230.71,1110.94L230.59,1111.5L230.86,1112.79L231.98,1115.16L232.09,1115.14L232.72,1115.86L232.96,1116.84L232.74,1117.42L233.01,1118.46L233.52,1121.73L233.48,1122.7L233.33,1123.15L233.07,1123.61L232.9,1125.02L232.9,1125.23L233.2,1125.48L233.21,1125.63L232.71,1127.27L232.29,1128.05L231.88,1128.36L231.14,1128.61L230.71,1129.47L230.24,1133.53L229.38,1136.15L228.99,1136.09L228.61,1136.34L228.16,1136.94L228.13,1137.06L228.46,1137.45L228.53,1137.88L228.1,1139L227.61,1139.29L227.28,1139.34L227.2,1139.11L227.08,1139.1L226.5,1139.44L226.1,1140.91L225.33,1141.89L224.57,1142.05L224.47,1142.17L222.06,1147.68L222.09,1149.37L222.41,1150.71L222.36,1150.95L222.07,1151.06L221.9,1151.29L221.8,1151.47L221.81,1151.83L222.46,1152.57L222.78,1152.75L223.55,1152.78L223.85,1153.11L225.39,1155.5L225.52,1156.67L225,1158.22L224.44,1159.32L224.63,1159.64L225.3,1160.02L225.52,1160.29L225.73,1161.79L226.71,1163.04L228.96,1165.11L230.43,1165.33L231.12,1166.21L232.16,1166.68L232.81,1166.78L233.87,1166.53L236.2,1166.91L238.45,1167.71L238.91,1168.27L239.28,1169.31L239.36,1170.26L239.01,1171.07L238.37,1171.8L236.01,1173.7L235.08,1174.29L233.07,1175.02L232.4,1175.64L231.75,1176.57L231.38,1176.87L230.21,1177.21L229.28,1177.17L227.98,1176.87L227.23,1176.89L226.47,1177.12L225.73,1177.79L225.26,1178.61L224.72,1180.03L224.07,1180.43L223.33,1181.53L223.22,1182.25L223.29,1182.73L223.77,1183.88L223.77,1184.2L223.09,1185.32L221.52,1186.79L221.02,1187.59L220.91,1188.14L220.89,1189.31L221.11,1192.82L220.82,1193.35L219.16,1195.3L218.51,1195.87L218.1,1196.05L215.78,1196.52L212.26,1196.65L210.51,1197.13L209.95,1197.52L209.49,1198.36L209.22,1199.51L209.25,1201.23L209.49,1202.13L209.9,1202.53L211.61,1203.1L214.03,1203.15L214.42,1202.85L215.72,1202.38L217.28,1202.3L217.9,1202.46L218.51,1202.41L219.25,1202.28L220.11,1201.81L221.3,1201.58L220.8,1204.3L210.51,1207.37L209.32,1207.56L206.53,1208.36L206.54,1209.23L200.87,1210.42L197.94,1210.72L192.9,1212.01L176.57,1216.88L159.56,1219.13L145.49,1221.95L137.29,1222.49L118.34,1221.7L110.52,1221.91L102.36,1222.85L99.2,1223.69L96.21,1224L96.02,1223.61L97.17,1221.69L109.53,1220.39L113.39,1215.17L116.19,1213.95L120.04,1215.99L121.01,1217.35L123.89,1218.92L125.46,1219.49L128.45,1219.65L132.62,1219.23L141.78,1215.74L145.16,1216.05L148.26,1215.75L152.83,1213.73L155.29,1210.01L155.24,1206.54L151.51,1201.43L146.32,1198.32L143.61,1196.2L139.15,1190.93L137.56,1187.06L135.85,1185.04L133.98,1184.78L131.55,1183.54L122.61,1177.07L122.06,1175.86L120.93,1167.89L119.65,1161.78L118.75,1160.41L117.08,1159.17L116.77,1157.6L121.58,1147.99L122.83,1145.06L123.61,1141.73L123.08,1137.96L122.28,1136.18L121.51,1135.39L120.75,1132.98L121.27,1125.5L119.8,1120.44L117.26,1116.28L116.04,1115.09L111.88,1114.73L106.42,1110.67L100.54,1108.2L102.14,1104.87L99.13,1098.68L99.28,1094.94L96.66,1091.08L97.55,1085.79L104.39,1080.86L105.15,1076.53L112.83,1074.07L114.43,1070.93L112.2,1067.01L106.47,1063.89L105.18,1060.55L106.41,1057.61L112.18,1051.44L113.19,1047.64L118.81,1045.22L114.56,1038.83L109.95,1037.56L111.74,1031.8L109.97,1027.17L113.06,1023.68L111.58,1021.85L115.08,1017.13L113.45,1012.18L110.31,1012.14L107.5,1006.74L113.91,998.66L115.31,992.23L109.65,991.97L108.22,988.34L114.52,988.68L113.91,980.74L116.71,981.48L127.01,978.45L130.91,975.29L135.1,970.19L136.68,968.21L135.17,965.46L135.75,964.15L139.27,961.1L144.19,960.69L147.35,957.4L145.35,953.93L146.03,951.5L150.81,954.89L153.15,954.45L163.36,952.95L172.34,963.35L181.9,968.15L185.44,967.77L185.54,1029.89z"/>
		<path id="C01005" title="Barbour" class="land" d="M724.06,836.49L723.78,837.03L718.52,833.99L715.46,837.62L706.67,842.23L705.92,850.16L704.5,852.2L661.25,851.12L661.16,873.17L624.61,873.65L589.39,873.53L590.87,873.13L596.34,862.8L595.96,853.3L598.5,850.97L598.93,843.44L607.9,831.72L604.56,813.31L608.99,807.15L610.91,799.21L620.43,786.72L623.07,778.24L640.41,776.86L640.35,773.22L649.44,773.19L651.08,771.11L658.56,772.99L658.78,741.39L662.5,739.53L695.47,739.21L701.83,750.98L709.66,757.61L709.83,760.39L739.12,760.78L738.94,761.61L739.03,762.05L738.99,763.04L738.51,764.94L738.68,765.68L739.27,766.48L739.37,766.93L739.42,767.47L739.24,768.1L739.02,768.71L739.07,769.59L739.29,769.88L739.6,770.3L739.72,770.65L739.75,770.92L739.72,771.31L739.63,771.54L739.39,772.37L739.59,773.36L739.32,774.07L737.51,775.74L737.27,776.15L736.52,778.47L736.5,778.85L736.46,780.15L735.89,781.44L736.11,782.28L736.78,783.19L736.97,783.78L736.97,784.11L736.56,785.07L736.04,785.5L735.24,785.88L733.23,786.31L732.69,786.74L732.47,787.15L732.45,787.51L733.41,790.65L734.16,791.64L734.16,791.97L732.91,792.68L732.54,793.04L731.37,794.84L729.99,795.5L729.71,795.75L729.55,796.05L729.32,797.42L729.08,797.75L727.63,798.51L726.76,799.15L726.85,799.65L727.48,800.11L727.87,800.85L727.15,802.32L727.31,802.95L727,803.48L726.57,803.84L725.92,803.96L725.03,803.86L722.48,803.91L722.22,804.14L722.18,804.32L722.31,804.8L722.76,805.51L723.26,806.6L723.46,807.31L723.46,807.84L723.37,808.15L722.31,809.74L721.85,811.67L721.51,812.13L720.92,812.61L720.79,812.94L720.9,813.49L721.38,814.51L721.44,815.88L721.31,816.31L720.67,817.09L720.56,817.55L721.12,818.84L721.83,819.78L722.33,820.89L722.83,823.05L722.79,824.19L722.48,825.45L722.5,827.78L722.63,828.72L722.48,829.43L721.57,830.44L720.54,832.06L720.75,832.44L720.86,832.64L722.96,834.52L723.91,835.38L724.15,835.83z"/>
		<path id="C01007" title="Bibb" class="land" d="M227.55,553.74L227.78,546.53L227.39,520.68L249.75,519.96L251.26,497.42L257.67,487.37L275.54,487.99L275.57,471.04L285.76,461.79L292.29,460.93L292.37,464.63L296.13,464.63L302.07,458.1L304.43,458.08L312.84,458.2L313.11,478.95L324.19,480L325.23,480.92L325.29,496.28L329.27,496.23L329.1,501.33L332.93,501.31L332.93,505.1L344.35,508.74L345.28,508.73L345.44,563.54L336.72,563.18L314.5,563.34L270.27,563.82L268.19,564.57L249.61,564.75L249.55,553.58z"/>
		<path id="C01009" title="Blount" class="land" d="M453.28,299.26L442.3,309.97L438.63,308.52L431.06,311.32L424.09,312.45L422.09,314.76L410.03,314.74L409.97,324.23L394.83,324.08L395.37,322.24L370.73,304.73L343.75,304.04L332.38,311.28L328.67,311.29L326.57,300.16L327.21,299.01L329.39,298.47L332.1,297.92L335.42,295.79L335.81,291.88L334.94,290.29L335.54,286.58L338.21,285.98L341.36,285.15L343.86,283.45L343.77,281.91L346.24,280.38L347.44,280.98L349.82,279.14L351.98,277.29L355.32,277.18L357.16,276.51L359.45,275.43L361.66,275.19L364.52,274.01L366.04,271.54L367.71,270.27L370.17,267.05L372.09,264.15L374.37,262.02L378.18,257.54L380.93,255.73L383.27,253.3L382.07,252.08L382.39,248.91L384.51,248.4L385.37,246.53L383.68,243.66L384.48,240.8L386.17,240.33L388.74,241.28L393.16,238.8L396,235.55L398.03,233.06L400.84,231.89L401.69,232.73L404.46,231.38L405.1,229.21L407.35,226.01L409.95,222.63L412.7,218.96L416.54,215.64L416.43,209.25L420.17,204.9L424.06,197.25L429.01,196.24L436.96,195.92L446.47,210.07L469.29,237.63L465.15,244.59L463.05,251.3L462.98,266.98L462.41,267.73L462.72,268.06L454.88,279.01L464.51,278.91L459.35,287.51L461.54,290.66z"/>
		<path id="C01011" title="Bullock" class="land" d="M662.5,739.53L658.78,741.39L658.56,772.99L651.08,771.11L649.44,773.19L640.35,773.22L640.41,776.86L623.07,778.24L620.43,786.72L610.91,799.21L608.99,807.15L580.14,807.13L580.35,785.1L559.96,785.1L558.16,779.56L557.94,764.76L554.03,762.88L546.56,762.93L546.56,761.07L545.7,762.94L535.62,763.83L535.12,713.11L537.85,713.08L537.85,707.56L552.4,707.04L556.85,706.88L556.89,699.17L561.36,702.67L561.75,714.17L564.66,717.08L566.04,717.83L657.46,717.15L658.78,739.56z"/>
		<path id="C01013" title="Butler" class="land" d="M338.79,819.74L338.34,786.51L349.45,786.39L438,785.76L438.34,815.73L440.13,816.64L438.38,822.49L438.48,852.52L437.9,864.03L426.9,864.13L426.96,896.95L385.65,897.37L383.2,897.3L353.41,896.94L347.57,891.49L345.78,883.65L342.85,880.06L341.58,873.96L338.81,869.83L339,839.39z"/>
		<path id="C01015" title="Calhoun" class="land" d="M503.46,346.55L503.86,338.78L508.15,338.35L509.72,334.98L517.29,330.02L521.41,325.64L525.43,324.68L524.41,320.77L521.02,315.83L523.43,307.46L520.46,305.09L520.57,304.6L520.82,304.31L524.33,304.47L524.39,301.59L530.34,301.9L530.3,298.12L535.99,298.43L537.87,290.96L541.61,291.17L541.61,285.54L549.12,283.88L549.16,287.67L556.66,287.67L556.64,278.17L560.51,276.28L568.17,276.35L568.21,274.47L590.97,280.17L591.4,271.56L636.72,274.8L636.58,278.58L636.06,292.14L621.06,291.98L621.05,295.84L613.45,295.56L613.43,303.2L624.66,303.35L624.49,314.71L620.72,314.64L620.71,318.42L616.94,318.37L616.86,322.11L613.23,322.16L613.11,354.49L611.28,354.39L609.39,359.98L601.84,359.82L602,363.67L594.43,363.5L594.53,367.15L590.68,367L590.29,378.35L579.05,378.32L579.38,370.73L536.04,370.5L535.62,366.77L530.25,366.7L529.23,354.8L525.06,350.73L523.98,347.72z"/>
		<path id="C01017" title="Chambers" class="land" d="M700.97,493.79L702.94,505.48L703.25,507.29L710.41,549.83L711.28,554.76L711.41,554.76L711.24,555.16L711.24,556.59L711.35,557.12L712.44,558.67L712.92,559.02L714.44,559.38L714.96,559.4L715.42,559.48L715.89,559.65L716.28,560.03L716.46,560.41L716.53,560.75L716.6,561.17L716.71,561.55L716.74,561.93L716.78,562.23L716.74,562.65L716.5,563.03L715.62,563.91L714.82,565.52L714.76,569.18L714.91,569.85L716.17,571.74L718.38,574.34L721.11,576.69L722.1,577.39L722.41,577.79L722.64,578.23L722.68,578.79L722.54,579.31L722.44,579.62L722.27,579.9L721.7,580.66L721.3,581.9L721.2,583.05L721.36,584.65L721.8,585.72L722.27,586.16L722.03,586.52L689.63,586.87L689.58,590.56L663.73,590.61L661.81,586.98L658.11,586.9L658.11,590.66L628.36,591L626.49,589.12L626.48,591.04L622.94,591.12L622.93,493.98z"/>
		<path id="C01019" title="Cherokee" class="land" d="M568.77,211.37L568.73,199.76L576.38,201.12L576.24,196.03L583.79,195.98L605.18,174.01L607.58,169.18L613.53,167.95L617.1,162.6L621.31,153.79L625.86,148.88L626.44,137.44L630.03,135.77L630.25,132.81L633.48,133.11L635.86,129.46L640.13,126.83L640.47,128.37L641.27,132.82L642.56,139.79L642.59,139.94L649.48,177.96L651.29,188.87L652.02,193.29L652.16,194.25L652.74,197.61L652.81,198.17L658.34,230.86L658.61,233.64L659.99,242.37L660.34,244.59L663.26,262.77L663.44,263.35L664.97,272.69L659.17,274.52L644.11,274.56L643.99,278.33L636.58,278.58L636.72,274.8L591.4,271.56L591.8,266.18L578.83,237.34L579.13,229.97L569.23,234.5z"/>
		<path id="C01021" title="Chilton" class="land" d="M314.81,590.87L314.5,563.34L336.72,563.18L345.44,563.54L345.28,508.73L344.35,508.74L344.25,503.09L356.54,503.95L403,503.57L401.61,507.72L412.2,514.51L413.11,516.53L418.82,515.28L423.04,516.27L421.98,520.42L424.5,525.3L422.88,528.94L423.34,539.67L425.93,544.05L428.85,545.76L431.07,553.78L435.83,555.32L438.29,558.99L435.3,564.25L436.09,569.27L453.84,584.71L445.54,585.48L445.59,596.53L380.46,596.96L380.64,608.21L358.32,608.62L336.47,607.58L314.83,607.82z"/>
		<path id="C01023" title="Choctaw" class="land" d="M0,803.71L0.94,794.48L0.99,793.74L3.93,766.7L3.95,766.49L7.47,733.07L7.48,732.88L9.07,718.93L9.72,713.21L11.2,698.3L117.35,697.82L117.16,700.35L112.99,700.14L108.83,700.11L100.46,704.93L99.62,714.79L100.73,721.05L99.51,735.27L93.74,741.32L91.94,748.38L85.47,759.71L77.85,767.29L78.13,775.73L84.04,776.75L86.46,779.28L87.05,787.28L84.85,788.48L81.45,785.66L75.84,790.06L80.23,792.01L83.3,796.59L87.71,792.79L90.41,796.2L85.69,796.62L83.18,799.42L74.36,800.9L71.65,811.19L68.1,813.94L67.33,817.16L63.34,823.81L66.61,830.29L68.06,836.07L71.51,839.52L75.96,837.43L79.66,837.42L83.26,852.98L1.9,853.32L1.76,847.16L0.99,829.84L0.46,814.59L0.44,814.48L0.13,808.45z"/>
		<path id="C01025" title="Clarke" class="land" d="M174.21,778.98L174.28,787.33L174.42,808.3L184.34,809.66L184.52,820.62L210.3,820.08L210.3,823.94L206.53,823.85L207.01,853.36L196.04,853.54L196.35,889.82L189.03,896.42L184.23,899.63L196.92,908.98L194.55,919.73L188.19,926.17L183.96,925.87L180.3,922.33L174.69,922.74L170.37,926.67L165.94,928.34L161.66,935.2L162.32,942.79L157.74,945.51L155.65,943.56L155.45,938.08L153.28,937.84L153.13,941.49L148.9,947.57L150.24,952.34L153.15,954.45L150.81,954.89L146.03,951.5L145.35,953.93L147.35,957.4L144.19,960.69L139.27,961.1L135.75,964.15L135.17,965.46L136.68,968.21L135.1,970.19L130.91,975.29L127.01,978.45L116.71,981.48L113.91,980.74L115.08,969.12L109.47,964.98L111.57,958.91L113.81,955.68L115.65,950.44L121.15,946.15L125.37,939.61L125.94,934.3L124.42,933.35L122.24,931.05L119.63,932.99L116.63,932.19L119.38,929.72L119.91,923.96L119.93,911.27L122.66,905.43L118.7,902.59L114.79,896.6L108.76,895.64L106.3,893.53L95.59,888.07L93.69,885.1L98.69,884.76L96.37,882.07L91.23,882.26L85.29,877.79L86.29,873.95L84.19,870.43L83.02,863.24L85.33,860.49L83.26,852.98L79.66,837.42L75.96,837.43L71.51,839.52L68.06,836.07L66.61,830.29L63.34,823.81L67.33,817.16L68.1,813.94L71.65,811.19L74.36,800.9L83.18,799.42L85.69,796.62L90.41,796.2L87.71,792.79L83.3,796.59L80.23,792.01L75.84,790.06L81.45,785.66L84.85,788.48L87.05,787.28L86.46,779.28L114.42,779.36z"/>
		<path id="C01027" title="Clay" class="land" d="M612.05,393.9L610.66,438.17L612.56,438.25L612.5,442.88L610.54,442.83L609.85,494.16L540.41,494.51L540.44,498.3L532.96,498.37L532.93,494.67L497.23,494.74L497.56,471.26L508.86,471.56L509.38,445.36L539.2,445.91L540.02,423.31L547.65,423.34L547.73,419.66L551.43,419.62L551.64,404.56L555.42,404.53L555.51,393.18L566.98,393.16L559.21,400.73L581.93,400.75L585.68,393.2z"/>
		<path id="C01029" title="Cleburne" class="land" d="M566.98,393.16L578.88,382.03L579.05,378.32L590.29,378.35L590.68,367L594.53,367.15L594.43,363.5L602,363.67L601.84,359.82L609.39,359.98L611.28,354.39L613.11,354.49L613.23,322.16L616.86,322.11L616.94,318.37L620.71,318.42L620.72,314.64L624.49,314.71L624.66,303.35L613.43,303.2L613.45,295.56L621.05,295.84L621.06,291.98L636.06,292.14L636.58,278.58L643.99,278.33L644.11,274.56L659.17,274.52L664.97,272.69L667.64,288.88L669.6,300.72L672.97,322L673.26,323.55L673.93,328.17L678.08,353.27L681.46,373.68L683.1,383.57L683.3,385.03L683.32,385.14L685.39,397.25L676.02,392.48L674.56,393.13L674.98,394.79L612.05,393.9L585.68,393.2L581.93,400.75L559.21,400.73z"/>
		<path id="C01031" title="Coffee" class="land" d="M580.55,873.55L580.06,979.88L509.69,980.71L507.82,983.47L507.8,980.78L493.09,980.92L492.47,922.17L492.99,918.47L492.81,895.79L501.08,895.72L503.81,893.84L503.39,873.61z"/>
		<path id="C01033" title="Colbert" class="land" d="M72.08,111.78L72.24,110.19L72.35,109.82L73.32,101.07L76.75,74.46L77.18,68.69L79.09,51.57L81.18,30.43L93.52,26.64L108.15,32.96L113.28,37.71L115.94,42.19L119.6,53.45L132.35,64.32L137.86,70.02L144.11,72.42L154.2,71.5L161.52,68.01L166.15,62.08L174.82,59.52L180.25,56.74L185.89,55.72L186.65,57.68L190.43,49.71L205.23,46.12L226.4,54.61L226.3,57.24L225.29,60.1L226.17,61.68L227.82,62.53L227.53,66.07L226.4,67.01L226.43,68.3L226.94,69.58L226.87,70.48L225.84,70.91L225.13,71.6L225.05,72.54L224.85,74.56L224.95,75.9L225.96,77.15L225.93,78.83L224.01,80.65L221.94,81.47L220.74,82.65L220.61,84.22L221,85.28L221.5,86.54L222.41,86.74L222.34,87.75L221.78,88.74L222.13,90.31L222.14,91.45L222.29,92.65L222.26,93.57L220.85,94.03L219.65,94.24L218.55,95.01L217.45,94.29L215.02,93.71L214.07,94.62L214.32,95.88L215.13,96.33L215.09,97.23L213.79,97.4L213.75,98.31L213.25,99.29L211.78,100.18L211.1,100.83L210.29,101.6L209.57,103.25L209.31,104.85L208.55,106.03L207.97,107.27L207.37,108.15L208.22,109.12L208.79,110.39L208.59,111.81L207.73,112.52L206.8,112.59L206.34,113.79L206.38,115.59L205.17,115.35L204.09,115.6z"/>
		<path id="C01035" title="Conecuh" class="land" d="M226.19,963.76L227.63,959.7L233.6,953.57L240.83,949.31L243.7,941.28L246.8,939.86L249.74,934.16L254.47,928.26L259.03,925.97L260.46,923.48L269.38,914.87L273.54,914.13L275.76,910.81L282.62,898.41L282.37,894.56L284.27,886.65L287.26,881.33L288.93,874.44L289.44,867.37L298.89,864.88L301.71,861.32L306.55,858.53L305.46,851.58L307.73,848.09L315.98,849.41L339,839.39L338.81,869.83L341.58,873.96L342.85,880.06L345.78,883.65L347.57,891.49L353.41,896.94L383.2,897.3L383.27,919.34L388.98,919.36L391.74,927.87L388.85,931.35L390.57,936.39L382.94,942.37L383.48,980.92L378.98,981.23L378.99,983.12L375.16,980.3L371.28,980.68L369.05,983.29L369.91,979.85L367.83,976.28L369.74,973.81L368.36,968.67L369.7,963.53z"/>
		<path id="C01037" title="Coosa" class="land" d="M462.1,581.16L462.1,584.66L453.84,584.71L436.09,569.27L435.3,564.25L438.29,558.99L435.83,555.32L431.07,553.78L428.85,545.76L425.93,544.05L423.34,539.67L422.88,528.94L424.5,525.3L421.98,520.42L423.04,516.27L422.46,506.92L425.49,504.15L424.18,499.49L428.74,495.11L486,494.81L497.23,494.74L532.93,494.67L532.96,498.37L533.3,565.71L531.94,566.1L533.33,566.4L532.01,567.76L533.36,569.7L533.39,584.35L465.84,584.68L465.91,581.06L462.35,580.98z"/>
		<path id="C01039" title="Covington" class="land" d="M494.44,1030.72L483.39,1030.64L479.47,1030.77L472.38,1030.79L469.06,1030.73L456.01,1030.62L455.07,1030.62L453.93,1030.62L450.88,1030.69L450.88,1030.69L450.17,1030.69L447.36,1030.72L436.59,1030.79L435.81,1030.74L426.81,1030.9L424.02,1030.81L422.48,1030.93L413.07,1030.43L412.18,1030.46L391.18,1030.6L388.21,1030.6L386.06,1030.59L383.49,1029.12L383.48,980.92L382.94,942.37L390.57,936.39L388.85,931.35L391.74,927.87L388.98,919.36L383.27,919.34L383.2,897.3L385.65,897.37L426.96,896.95L448.44,896.5L449.26,915.79L456.65,906.55L461.39,906.65L470.29,896.15L474.35,896.15L475.02,914.55L478.66,914.52L478.3,918.2L492.99,918.47L492.47,922.17L493.09,980.92L493.77,1028.46z"/>
		<path id="C01041" title="Crenshaw" class="land" d="M493.55,785.3L496.98,794.22L497.5,803.89L495.51,809.69L495.37,819.29L491.81,825.5L491.82,829.91L502.86,829.79L503.12,862.17L496,871.75L496.08,873.94L503.39,873.61L503.81,893.84L501.08,895.72L492.81,895.79L492.99,918.47L478.3,918.2L478.66,914.52L475.02,914.55L474.35,896.15L470.29,896.15L461.39,906.65L456.65,906.55L449.26,915.79L448.44,896.5L426.96,896.95L426.9,864.13L437.9,864.03L438.48,852.52L438.38,822.49L440.13,816.64L438.34,815.73L438,785.76L447.34,785.98L447.07,763.91L469.27,763.67L469.57,785.65z"/>
		<path id="C01043" title="Cullman" class="land" d="M326.57,300.16L317.16,298.1L317.12,292.2L298.79,291.9L296.84,289.75L300.9,287.27L298.57,282.01L296.03,280.19L294.34,273.89L289.65,272.44L285.98,265.13L294.43,265.35L294.88,185.51L294.83,181.73L298.75,182.12L409.07,184.1L431.66,184.61L435.57,188.15L436.96,195.92L429.01,196.24L424.06,197.25L420.17,204.9L416.43,209.25L416.54,215.64L412.7,218.96L409.95,222.63L407.35,226.01L405.1,229.21L404.46,231.38L401.69,232.73L400.84,231.89L398.03,233.06L396,235.55L393.16,238.8L388.74,241.28L386.17,240.33L384.48,240.8L383.68,243.66L385.37,246.53L384.51,248.4L382.39,248.91L382.07,252.08L383.27,253.3L380.93,255.73L378.18,257.54L374.37,262.02L372.09,264.15L370.17,267.05L367.71,270.27L366.04,271.54L364.52,274.01L361.66,275.19L359.45,275.43L357.16,276.51L355.32,277.18L351.98,277.29L349.82,279.14L347.44,280.98L346.24,280.38L343.77,281.91L343.86,283.45L341.36,285.15L338.21,285.98L335.54,286.58L334.94,290.29L335.81,291.88L335.42,295.79L332.1,297.92L329.39,298.47L327.21,299.01z"/>
		<path id="C01045" title="Dale" class="land" d="M580.55,873.55L589.03,873.56L589.39,873.53L624.61,873.65L661.16,873.17L660.82,918.3L660.95,950.01L661.03,957.26L646.24,957.03L646.13,967.4L633.11,965.4L620.82,960.74L613.82,959.94L607.16,962.01L606.06,966.45L602.19,969.88L601.63,975.57L597.48,980.17L580.06,979.88z"/>
		<path id="C01047" title="Dallas" class="land" d="M216.32,698.58L227.43,698.45L227.12,653.87L268.08,653.51L270.85,652.85L293.45,652.67L294.68,652.09L299.19,640.74L300.95,640.06L301.19,631.27L306.32,627.96L309.93,624.07L308.29,618.68L309.23,613.01L311.71,607.63L311.46,599.48L314.81,590.87L314.83,607.82L336.47,607.58L335.9,608.94L336.39,612.39L337.87,616.89L338.22,621.54L339.43,627.17L340.46,633.12L338.96,638.1L339.98,642.13L342.43,647.46L344.02,651.6L344.22,654.49L346.56,658.27L347.88,663.74L349.49,665.18L352.5,666.59L353.53,670.08L353.07,675.94L359.16,683.87L358.68,690.12L351,693.14L350.98,698L356.27,699L350.3,703.75L348.08,708.08L359.68,719.67L338.48,719.6L338.77,764.61L280.09,764.64L277.48,754.93L270.36,753.02L265.55,745.76L262.16,745.35L264.09,742.29L261.8,739.44L257.9,740.12L255.38,734.13L249.88,730.73L248.23,726.11L239.62,726.67L237.64,720.39L234.6,720.07L233.37,716.47L227.21,714.74L222.49,708.42L216.51,709.45z"/>
		<path id="C01049" title="DeKalb" class="land" d="M637.19,109.96L639.39,122L640.08,126.55L640.12,126.82L640.13,126.83L635.86,129.46L633.48,133.11L630.25,132.81L630.03,135.77L626.44,137.44L625.86,148.88L621.31,153.79L617.1,162.6L613.53,167.95L607.58,169.18L605.18,174.01L583.79,195.98L576.24,196.03L576.38,201.12L568.73,199.76L568.77,211.37L512,211.17L511.14,161.09L509.23,158.24L511.14,158.24L511.07,151.99L522.46,139.41L529.31,139.54L538.35,136.66L543.34,132.98L548.23,126.51L581.34,100.56L601.33,69.23L605.59,69.06L608.44,66.42L614.05,54.88L615.6,46.26L621.02,41.12L625.1,38.78L629.8,67.7L631.74,78.64L631.74,78.69L634.16,92.14L634.16,92.16L635.66,100.43L635.71,100.75z"/>
		<path id="C01051" title="Elmore" class="land" d="M453.84,584.71L462.1,584.66L462.1,581.16L462.35,580.98L465.91,581.06L465.84,584.68L533.39,584.35L540.96,584.37L540.83,580.71L544.55,580.73L544.71,584.39L560.93,584.47L560.49,588.81L558,591.34L558.6,594.07L554.96,598.6L554.04,604.09L559.22,611.82L557.75,623.19L559.72,637.36L558.5,645.21L559.57,651.3L566.82,655.71L562.48,656.19L561.06,662.34L557.78,662.9L549.7,661.38L543.82,664.55L540.68,661.4L538.13,664.71L536.64,661.65L536.96,666.61L529.96,669.94L524.91,673.47L516.28,669.51L509.78,670.69L507.81,666.35L502.27,668.75L501.58,666.28L493.35,665.82L494.26,664.11L494.78,661.96L491.28,661.7L489.61,658.84L489.22,656.53L487.63,656.78L485.89,655.05L485.48,652.72L483.47,651.65L478.88,649.25L477.43,651.26L476.85,653.57L473.95,654.25L469.89,654.34L468.18,655.41L468.15,658.46L467.11,661.3L465.56,665.16L467.07,666.53L468.09,669.05L463.99,669.14L459.57,666.56L449.46,668.11L447.28,672.15L446.01,672.5L445.59,596.53L445.54,585.48z"/>
		<path id="C01053" title="Escambia" class="land" d="M386.06,1030.59L382.18,1030.56L378.05,1030.01L377.63,1030.01L377.4,1030.05L373.75,1030.16L365,1029.99L364.95,1029.99L355.31,1029.88L355,1029.89L346.12,1029.82L342.84,1029.84L334.26,1029.81L318.98,1029.57L317.71,1029.4L312.79,1029.42L310.78,1029.39L310,1029.33L307.03,1029.45L304.79,1029.43L303.8,1029.44L292.94,1029.37L291.62,1029.53L288.2,1029.35L283.48,1029.47L283.37,1029.47L270.04,1029.94L267.24,1030.13L263.5,1029.66L263.37,1029.68L263.06,1029.68L262.85,1029.67L262.48,1029.69L262.3,1029.68L261.21,1029.66L256.16,1029.64L255.71,1029.64L253.42,1029.62L252.89,1029.68L251.13,1029.62L246.41,1029.66L241.72,1029.67L239.92,1029.68L239.09,1029.66L226.56,1029.71L225.15,1029.68L221.36,1029.66L220.08,1029.65L219.44,1029.63L218.8,1029.68L218.77,1029.68L217.68,1029.69L217.67,1029.69L215.11,1029.68L214.89,1029.68L214.78,1029.68L206.28,1029.84L200,1029.75L195.08,1029.76L189.1,1029.87L189.1,1029.87L185.54,1029.89L185.44,967.77L197.68,972.09L212.84,963.84L226.19,963.76L369.7,963.53L368.36,968.67L369.74,973.81L367.83,976.28L369.91,979.85L369.05,983.29L371.28,980.68L375.16,980.3L378.99,983.12L378.98,981.23L383.48,980.92L383.49,1029.12z"/>
		<path id="C01055" title="Etowah" class="land" d="M469.29,237.63L490.36,218.49L498.79,214.63L512.1,214.96L512,211.17L568.77,211.37L569.23,234.5L579.13,229.97L578.83,237.34L591.8,266.18L591.4,271.56L590.97,280.17L568.21,274.47L568.17,276.35L560.51,276.28L556.64,278.17L556.66,287.67L549.16,287.67L549.12,283.88L541.61,285.54L541.61,291.17L537.87,290.96L535.99,298.43L530.3,298.12L530.34,301.9L524.39,301.59L524.33,304.47L520.82,304.31L523.03,303.53L521.45,298.96L514.03,299.35L511.39,294.2L511.15,288.5L504.07,289.48L502.67,283.99L499.17,282.43L498.58,272.41L493.27,270.2L491.86,266.25L485.15,267.84L480.5,272.28L474.79,266.21L472.19,267.6L464.51,278.91L454.88,279.01L462.72,268.06L462.41,267.73L462.98,266.98L463.05,251.3L465.15,244.59z"/>
		<path id="C01057" title="Fayette" class="land" d="M113.92,386.62L112.78,284.16L131.94,284.26L158.68,285.51L181.1,285.37L181.08,296.59L203.67,297.72L204.37,343.2L226.97,343.96L227,366.46L182.01,364.46L182.04,372L174.46,372.22L174.45,387.24L159.32,387.78L136.81,386.42L132.95,386.3z"/>
		<path id="C01059" title="Franklin" class="land" d="M64.8,179.84L66.47,164.22L66.53,163.66L68.55,142.75L72.08,111.78L204.09,115.6L204.07,184.13L181.36,183.5z"/>
		<path id="C01061" title="Geneva" class="land" d="M527.36,1030.91L523.59,1030.92L522.78,1030.95L509.65,1031.01L499.71,1030.82L498.39,1030.81L497.05,1030.79L495.96,1030.73L494.44,1030.72L493.77,1028.46L493.09,980.92L507.8,980.78L507.82,983.47L509.69,980.71L580.06,979.88L597.48,980.17L624.54,980.25L646.17,978.99L645.62,1029.96L643.52,1030L643.46,1030L589.1,1030.41L589.03,1030.53L557.97,1030.87L535.23,1031.02z"/>
		<path id="C01063" title="Greene" class="land" d="M137.5,482.08L137.38,486.39L138.64,517.12L164.87,517L164.13,517.97L163.85,519.8L161.67,525.01L158.31,527.01L158.41,534.04L154.83,538.98L152.09,542.67L148.64,548.51L144.39,549.42L142.79,550.71L142.02,552.09L139.72,559.14L142.34,567.21L138.19,576.26L133.84,579.95L133.33,583.6L136.6,583.19L141.11,589.84L141.6,596.71L147.83,605.6L150.97,610.99L150.33,613.53L147.23,614.44L146.25,621.53L151.87,621.65L157.72,624.32L154.92,628.97L145.77,635.71L142.9,643.26L140.79,638.36L135.85,637.61L134.06,641.33L130.75,639.57L128.31,629.38L131.81,625.09L130.4,618.54L127.25,619.1L112.92,617.56L101.29,623.41L89.04,623.4L86.15,620.02L87.25,613.3L90.4,607.11L87.14,601.86L83.46,602.62L81.44,597.5L81.48,589.36L79.18,582.78L78.78,571.36L63.84,563.06L59.64,543.63L66.16,529.11L65.19,522.61L65.21,519.32L71.44,515.04L70.04,511.97L77.44,510.81L83.74,512.24L86.16,508L92.96,513.17L96.52,505.22L109.2,501.46L115.75,492.1L116.85,492.4z"/>
		<path id="C01065" title="Hale" class="land" d="M227.55,553.74L227.51,564.93L216.52,564.98L216.14,609.71L205.05,609.75L205.21,654.11L161.03,654.39L161.07,643.26L142.9,643.26L145.77,635.71L154.92,628.97L157.72,624.32L151.87,621.65L146.25,621.53L147.23,614.44L150.33,613.53L150.97,610.99L147.83,605.6L141.6,596.71L141.11,589.84L136.6,583.19L133.33,583.6L133.84,579.95L138.19,576.26L142.34,567.21L139.72,559.14L142.02,552.09L142.79,550.71L144.39,549.42L148.64,548.51L152.09,542.67L154.83,538.98L158.41,534.04L158.31,527.01L161.67,525.01L163.85,519.8L227.39,520.68L227.78,546.53z"/>
		<path id="C01067" title="Henry" class="land" d="M661.16,873.17L661.25,851.12L704.5,852.2L705.92,850.16L706.67,842.23L715.46,837.62L718.52,833.99L723.78,837.03L723.28,837.96L723.84,839.53L724.43,840.77L725.51,844.54L725.47,844.97L724.8,847.05L724.04,848.03L723.87,848.57L723.8,850.54L724.08,854.08L724.78,855.02L726.59,856.13L726.87,856.56L727.57,858.51L731.24,862.93L732.24,863.46L732.75,863.67L733.16,863.92L733.5,864.26L733.72,864.67L733.74,864.86L733.62,865.21L733.37,865.59L732.81,866.94L732.77,867.43L732.81,867.79L732.96,868.23L733.32,868.49L733.92,868.77L735.27,870.62L736.61,871.71L737.12,871.94L738.36,872.6L738.65,872.98L738.8,873.38L738.79,873.82L738.62,874.42L738.17,875.24L738.14,876.01L738.32,876.26L738.84,876.39L739.13,876.78L739.03,877.85L738.67,879.77L738.59,882.21L739.25,883.47L739.28,883.88L738.75,884.9L738.7,885.46L739.79,887.47L740.01,888.74L740.24,889.32L741.35,891.05L742.03,891.75L742.18,892.07L742.3,893L742.19,893.82L741.94,894.46L741.03,896.11L740.79,896.78L740.93,897.35L741.6,898.07L741.5,898.75L741.39,899.02L741.36,899.1L740.76,899.89L739.78,901.7L738.49,904.36L737.8,906.37L737.03,907.36L735.74,911.33L736.25,915.09L736.81,916.65L736.97,917.74L737.06,918.61L736.99,920.87L736.75,921.37L736.41,921.69L736,921.79L735.47,921.9L735.06,922.3L734.83,923.16L734.63,924.55L733.97,925.62L733.94,925.94L734.5,927.86L734.44,928.86L734.22,929.5L733.84,930.11L733.41,932.48L732.44,935.01L731.3,937.51L731.23,937.94L731.2,939.3L731.38,939.87L731.55,940.07L732.33,940.07L732.65,940.39L732.66,941.14L732.4,943.62L732.24,944.21L731.9,944.7L731.99,945.14L733.03,946.65L733.11,949.19L732.96,949.7L732.33,950.95L732.28,951.6L660.95,950.01L660.82,918.3z"/>
		<path id="C01069" title="Houston" class="land" d="M698.54,1029.01L645.62,1029.96L646.17,978.99L624.54,980.25L597.48,980.17L601.63,975.57L602.19,969.88L606.06,966.45L607.16,962.01L613.82,959.94L620.82,960.74L633.11,965.4L646.13,967.4L646.24,957.03L661.03,957.26L660.95,950.01L732.28,951.6L732.27,952.76L731.82,955.03L731.08,956.38L729.8,957.77L727.38,958.38L726.84,958.81L726.45,959.49L726.46,959.75L726.89,960.24L727.03,960.71L727.01,961.84L726.74,962.76L726.93,963.96L727.07,964.35L727.63,965.21L728.27,966.86L728.68,968.42L729.07,969.43L729.44,970.2L729.85,970.77L730.3,972.5L729.88,974.05L729.88,976.12L729.65,976.5L728.39,977.8L728.1,978.28L727.85,980.06L727.98,982.37L728.2,982.66L728.65,982.57L729.16,982.8L729.93,983.95L729.95,984.55L729.51,987.33L729.56,987.64L731.31,988.95L733.16,989.11L734.41,989.55L734.66,989.79L736.05,991.87L737.39,993.42L737.73,994.17L738.02,995.5L739.41,998.87L739.8,999.21L740.38,999.35L742.47,1001.2L743.21,1001.66L743.53,1002.05L744.13,1003.96L744.8,1005.07L745.6,1008.08L745.11,1009.92L745.08,1010.26L745.05,1010.5L747.31,1014.35L748.5,1015.31L748.77,1015.78L749.33,1017.78L749.38,1018.47L749.2,1021.1L750.14,1023.03L750.25,1024.41L751.22,1025.47L751.36,1025.75L751.32,1026.95L750.94,1027.96L750.72,1029.06L746.02,1029.06L745.28,1029.06L744.72,1029.07L744.5,1029.07L739.97,1029.08L739.38,1029.08L738.79,1029.08L719.69,1029.05L718.34,1029.01L718.31,1029.02L717.83,1029.02z"/>
		<path id="C01071" title="Jackson" class="land" d="M467.62,4.45L564.37,5.17L571.99,5.22L572.92,5.23L620.34,6.14L621.59,14.79L621.72,16.58L622.5,21.99L622.5,22.03L625.1,38.78L621.02,41.12L615.6,46.26L614.05,54.88L608.44,66.42L605.59,69.06L601.33,69.23L581.34,100.56L548.23,126.51L543.34,132.98L538.35,136.66L529.31,139.54L522.46,139.41L517.04,142.42L513.34,132.04L513.78,127.47L510.84,125.42L507.61,124.44L502.98,127.67L504.69,124.44L502.62,120.14L502.83,107.24L498.71,107.19L497.55,107.17L497.28,107.17L497.02,107.16L496.3,107.15L496.21,107.15L495.37,107.14L495.36,107.14L491.73,107.09L487.77,107.04L487.58,107.04L487.58,107.04L487.1,107.03L486.44,107.03L484.38,107L484.1,107L483.67,106.99L481.82,106.96L481.8,106.96L480.87,106.97L480.34,106.96L479.99,106.96L479.18,106.96L477.38,106.98L476.73,106.98L475.29,106.99L474.78,106.99L474.49,106.99L473.38,107L469.94,107.02L468.84,107.03L467.53,107.04L466.59,107.05L466.58,107.05L466.34,107.05L466.11,107.05L466.1,107.05L464.22,107.06L464.23,107.11L464.25,107.15L463.34,106.23L463.45,104.83L464.47,104.48L457.29,98.46L457.48,71.65L460.92,69.21L461.87,64.31L460.64,50.14L464.31,46.4L459.9,39.48L458.96,35.29L463.69,28.01L467.61,24.5L464.38,18.64L467.58,19.23L470.92,16.62L477.97,22.4L479.36,18.46L478.88,16.46L472.85,13.22L468.69,8.7z"/>
		<path id="C01073" title="Jefferson" class="land" d="M304.43,458.08L304.43,450.61L299.72,446.81L291.23,446.77L291.15,442.86L283.61,442.71L283.57,439L279.79,438.97L279.77,437.19L279.71,433.34L276.51,433.31L275.91,429.43L268.47,427.44L268.46,419.89L264.72,419.78L263.76,414.04L257.16,412.01L257.14,408.17L250.65,407.88L250.71,404.26L246.07,404.13L244.74,400.45L247.21,394.91L252.5,395.32L254.61,398.16L257,396.51L256.91,392.25L262.12,392.66L260.92,389.5L259.05,387.14L260.53,384.94L264.47,389.17L268.34,382.67L273.22,382.83L278.46,378.4L274.4,372.47L276.06,367.18L279.81,367.19L279.84,363.44L287.41,363.54L287.4,359.71L298.59,359.8L298.6,352.3L306.16,352.43L306.27,344.9L310.04,344.93L309.86,333.64L313.6,329.86L313.61,322.31L317.37,322.35L317.36,318.56L324.94,318.76L324.87,314.94L328.66,315.05L328.67,311.29L332.38,311.28L343.75,304.04L370.73,304.73L395.37,322.24L394.83,324.08L409.97,324.23L417.55,324.27L417.57,331.92L421.37,335.65L421.3,352.51L419.43,352.49L419.41,358.12L415.69,361.84L415.55,377.11L423.17,380.98L423.08,386.6L417.46,386.54L413.68,388.31L404.19,401.34L389.07,401.48L389.06,405.29L385.26,405.23L383.46,410.81L379.7,410.7L379.61,414.43L372.21,414.17L370.31,421.64L366.59,421.49L366.53,427.18L360.95,427.02L355.37,428.75L355.29,436.16L344.06,435.99L342.15,439.65L334.63,445.3L332.71,450.94L325.23,452.79L322.35,458.31L313.55,458.21L312.84,458.2z"/>
		<path id="C01075" title="Lamar" class="land" d="M42.96,384.05L43.95,374.55L44.06,374.01L44.16,372.97L44.35,370.87L44.57,369.07L44.6,368.5L46.91,345.79L46.96,345.58L47.28,342.23L47.32,341.46L47.79,336.08L48.51,329.5L49.55,320L49.79,316.37L50.43,312.43L51.42,303.02L53.36,286.33L53.36,286.3L53.38,285.99L56.77,255.79L57.53,248.22L105.18,249.84L105.07,257.42L112.75,257.61L112.78,284.16L113.92,386.62z"/>
		<path id="C01077" title="Lauderdale" class="land" d="M187.54,1.15L225.94,1.38L227.47,1.41L228.37,1.41L234.01,1.49L236.23,1.55L240.94,1.63L243.11,1.67L253.94,1.87L260.25,2.01L268.78,2.25L270.19,2.29L271.78,2.33L273.06,2.37L272.16,50.42L258.51,60.14L258.45,61.55L262.27,65.46L254.21,67.51L244.2,55.54L238.57,53.31L226.4,54.61L205.23,46.12L190.43,49.71L186.65,57.68L185.89,55.72L180.25,56.74L174.82,59.52L166.15,62.08L161.52,68.01L154.2,71.5L144.11,72.42L137.86,70.02L132.35,64.32L119.6,53.45L115.94,42.19L113.28,37.71L108.15,32.96L93.52,26.64L81.18,30.43L80.73,29.93L75.31,27.79L72.79,26.39L72.13,25.85L70.7,24.61L68.91,22.5L67.4,19.59L65.13,13.88L64.27,11.96L63.43,10.66L61.82,8.7L59.35,4.43L59.08,3.26L58.92,2.7L58.67,0.69L58.46,0L102.35,0.55L105.62,0.56L128.75,0.67L128.8,0.66L129.91,0.65L134.04,0.65L134.06,0.64L134.39,0.62L151.33,0.81L152.62,0.85L154.51,0.87L165.19,1.04L166.74,1.07L167.13,1.06L167.93,1.1L173.43,1.18L175,1.18L183.46,1.13z"/>
		<path id="C01079" title="Lawrence" class="land" d="M295.74,110.23L294.83,181.73L294.88,185.51L263.29,185.56L262.08,185.46L261.37,185.5L204.07,184.13L204.09,115.6L205.17,115.35L206.38,115.59L206.34,113.79L206.8,112.59L207.73,112.52L208.59,111.81L208.79,110.39L208.22,109.12L207.37,108.15L207.97,107.27L208.55,106.03L209.31,104.85L209.57,103.25L210.29,101.6L211.1,100.83L211.78,100.18L213.25,99.29L213.75,98.31L213.79,97.4L215.09,97.23L215.13,96.33L214.32,95.88L214.07,94.62L215.02,93.71L217.45,94.29L218.55,95.01L219.65,94.24L220.85,94.03L222.26,93.57L222.29,92.65L222.14,91.45L222.13,90.31L221.78,88.74L222.34,87.75L222.41,86.74L221.5,86.54L221,85.28L220.61,84.22L220.74,82.65L221.94,81.47L224.01,80.65L225.93,78.83L225.96,77.15L224.95,75.9L224.85,74.56L225.05,72.54L225.13,71.6L225.84,70.91L226.87,70.48L226.94,69.58L226.43,68.3L226.4,67.01L227.53,66.07L227.82,62.53L226.17,61.68L225.29,60.1L226.3,57.24L226.4,54.61L238.57,53.31L244.2,55.54L254.21,67.51L262.27,65.46L268.96,64.05L281.54,69.59L288.61,74.51L295.92,84.48z"/>
		<path id="C01081" title="Lee" class="land" d="M722.27,586.16L722.64,586.52L723.72,587.23L724.39,587.75L724.93,588.35L725.24,588.79L725.34,589.19L725.37,589.67L725.37,590.34L725.4,590.9L725.34,591.66L725.1,592.55L724.69,594.4L725.92,600.46L726.42,602.1L726.87,602.66L728.73,603.63L731,606.16L732.1,609.22L731.83,609.77L730.78,610.58L730.47,611.21L730.05,612.37L729.98,613.07L730.34,614.22L731.33,614.67L732,614.93L732.35,615.19L732.6,615.51L732.62,615.95L732.38,616.71L732.06,617.18L732.04,617.66L732.13,618.1L732.35,618.76L732.77,619.25L733.15,619.44L733.45,619.83L733.76,621.39L733.8,621.92L733.87,623.07L734.71,625.35L736.63,629.21L738.92,631.33L743.51,635.75L746.37,638.57L746.47,639.3L746.86,640.65L747.82,642.27L748.25,642.86L749.42,643.17L749.7,643.43L750.9,645.76L751.06,646.92L738.06,647.18L738.41,656.44L679.03,657.53L679.83,672.27L657.35,672.53L656.37,650.27L645.39,650.31L608.25,632.18L608.21,628.5L600.77,628.58L600.73,625.03L600.53,599.08L604.19,595.22L619.24,594.86L622.94,591.12L626.48,591.04L626.49,589.12L628.36,591L658.11,590.66L658.11,586.9L661.81,586.98L663.73,590.61L689.58,590.56L689.63,586.87L722.03,586.52z"/>
		<path id="C01083" title="Limestone" class="land" d="M354.05,4.28L357.44,4.28L365.44,4.23L365.45,4.23L364.06,119.86L353.57,118.34L338.72,112.28L331,107.5L311.01,93.38L307.87,93.94L295.92,84.48L288.61,74.51L281.54,69.59L268.96,64.05L262.27,65.46L258.45,61.55L258.51,60.14L272.16,50.42L273.06,2.37L316.23,3.38L318.65,3.39L324.18,3.55L324.57,3.53L325.09,3.54L325.76,3.58L348.46,4.22L351.14,4.23L351.86,4.25L354.04,4.28z"/>
		<path id="C01085" title="Lowndes" class="land" d="M427.49,689.2L432.33,692.54L429.33,695.83L429.09,703.71L431.03,707.83L435.67,707.12L443.61,712.3L446.52,715.57L447.07,763.91L447.34,785.98L438,785.76L349.45,786.39L349.67,764.51L338.77,764.61L338.48,719.6L359.68,719.67L348.08,708.08L350.3,703.75L356.27,699L350.98,698L351,693.14L358.68,690.12L358.42,697.98L362.28,698.32L367.71,690.14L366.14,683.04L366.59,676.41L372.73,677.81L377.66,673.89L379.67,674.32L379.42,682.16L381.08,685.03L387.1,686.91L393.14,681.11L393.61,675.74L400.88,673.38L402.26,675.4L401.96,681.59L406.17,684.89L409.09,681.4L417.59,684.33L419.76,690.64z"/>
		<path id="C01087" title="Macon" class="land" d="M657.35,672.53L657.46,717.15L566.04,717.83L564.66,717.08L561.75,714.17L561.36,702.67L556.89,699.17L556.85,706.88L552.4,707.04L552.14,705.43L547.79,703.71L544.86,700.04L543.73,694.4L541.51,691.95L536.59,690.79L529.96,669.94L536.96,666.61L536.64,661.65L538.13,664.71L540.68,661.4L543.82,664.55L549.7,661.38L557.78,662.9L561.06,662.34L562.48,656.19L566.82,655.71L559.57,651.3L578.82,651L578.51,628.82L597.09,628.63L597.07,625.08L600.73,625.03L600.77,628.58L608.21,628.5L608.25,632.18L645.39,650.31L656.37,650.27z"/>
		<path id="C01089" title="Madison" class="land" d="M365.45,4.23L388.38,4.19L388.57,4.19L389.08,4.21L389.84,4.21L392.27,4.27L396.25,4.28L405.16,4.41L407.55,4.42L411.39,4.47L414.71,4.48L420.63,4.56L433.76,4.56L441.09,4.45L449.03,4.3L466,4.44L467.62,4.45L468.69,8.7L472.85,13.22L478.88,16.46L479.36,18.46L477.97,22.4L470.92,16.62L467.58,19.23L464.38,18.64L467.61,24.5L463.69,28.01L458.96,35.29L459.9,39.48L464.31,46.4L460.64,50.14L461.87,64.31L460.92,69.21L457.48,71.65L457.29,98.46L464.47,104.48L463.45,104.83L463.34,106.23L464.25,107.15L469.38,108.88L469.39,112.33L463.26,113.99L463.81,116.08L468.62,117.26L467.63,122.87L464.75,125.52L463.52,129.82L461.79,130.5L458.12,127L454.97,129.54L450.41,127.89L450.82,133.08L445.73,134.66L443.25,138.47L436.75,137.37L433.52,139.5L427.17,137.92L419.56,132.41L415.94,121.13L415.21,117.02L409.74,111.87L402.1,112.95L395.13,120.35L391.08,119.52L388.61,112.8L383.47,109.93L378.84,111.52L372.04,118.59L364.06,119.86z"/>
		<path id="C01091" title="Marengo" class="land" d="M174.21,778.98L114.42,779.36L86.46,779.28L84.04,776.75L78.13,775.73L77.85,767.29L85.47,759.71L91.94,748.38L93.74,741.32L99.51,735.27L100.73,721.05L99.62,714.79L100.46,704.93L108.83,700.11L112.99,700.14L117.16,700.35L117.35,697.82L114.91,696.78L108.64,689.22L103.68,688.48L98.14,682.56L92.33,680.88L93.63,669.94L94.79,667.24L103.53,660.95L107.75,660.36L112.27,656.42L114.24,651.76L121.03,644.88L123.71,643.61L134.22,645.64L136.64,643L134.06,641.33L135.85,637.61L140.79,638.36L142.9,643.26L161.07,643.26L161.03,654.39L205.21,654.11L205.25,698.66L216.32,698.58L216.51,709.45L207.46,709.17L205.44,712.01L205.72,743.06L183.68,743.17L183.95,775.39L174.18,776.24z"/>
		<path id="C01093" title="Marion" class="land" d="M57.53,248.22L58.28,240.88L59.05,233.24L60.8,217.79L61.11,213.94L61.77,210.13L61.98,205.92L64.1,186.93L64.32,184.76L64.8,179.84L181.36,183.5L181.06,262.8L181.1,285.37L158.68,285.51L131.94,284.26L112.78,284.16L112.75,257.61L105.07,257.42L105.18,249.84z"/>
		<path id="C01095" title="Marshall" class="land" d="M512,211.17L512.1,214.96L498.79,214.63L490.36,218.49L469.29,237.63L446.47,210.07L436.96,195.92L435.57,188.15L431.66,184.61L409.07,184.1L409.21,166.79L415.27,122.01L415.41,121.62L415.94,121.13L419.56,132.41L427.17,137.92L433.52,139.5L436.75,137.37L443.25,138.47L445.73,134.66L450.82,133.08L450.41,127.89L454.97,129.54L458.12,127L461.79,130.5L463.52,129.82L464.75,125.52L467.63,122.87L468.62,117.26L463.81,116.08L463.26,113.99L469.39,112.33L469.38,108.88L464.25,107.15L464.23,107.11L464.22,107.06L466.1,107.05L466.11,107.05L466.34,107.05L466.58,107.05L466.59,107.05L467.53,107.04L468.84,107.03L469.94,107.02L473.38,107L474.49,106.99L474.78,106.99L475.29,106.99L476.73,106.98L477.38,106.98L479.18,106.96L479.99,106.96L480.34,106.96L480.87,106.97L481.8,106.96L481.82,106.96L483.67,106.99L484.1,107L484.38,107L486.44,107.03L487.1,107.03L487.58,107.04L487.58,107.04L487.77,107.04L491.73,107.09L495.36,107.14L495.37,107.14L496.21,107.15L496.3,107.15L497.02,107.16L497.28,107.17L497.55,107.17L498.71,107.19L502.83,107.24L502.62,120.14L504.69,124.44L502.98,127.67L507.61,124.44L510.84,125.42L513.78,127.47L513.34,132.04L517.04,142.42L522.46,139.41L511.07,151.99L511.14,158.24L509.23,158.24L511.14,161.09z"/>
		<path id="C01097" title="Mobile" class="land" d="M75.39,1208.43l8.19,5.92l2.59,2.68l-0.22,0.74l-0.63,0.27l-6.63,0.73l-2.32,-1.01l-3.66,-0.75l-6.38,-0.02l-9.08,1.11l-15.58,3.62l-5.23,0.56l-1.85,-0.5l0.71,-0.8l2.23,0.35l4.09,-0.49l4.85,-1.45l7.3,-1.49l11.09,-1.71l3.25,0.01l3.71,-0.66l2.27,-1.77l1.28,-2.84L75.39,1208.43zM100.54,1108.2l-0.88,0.44l-2.08,2.33l-1,3.1l-1.7,1.94l-2.11,0.29l-3.82,1.92l0.52,6.45l1.21,1.65l-2.36,6.05l-2.16,2.35l-2.29,3.91l0.84,4.23l-0.25,4.4l-1.72,1.29l-2.19,3.45l-0.63,2.21l0.17,1.97l1.32,5.49l-0.82,2.46l-1.25,2.12l0.51,6.35l-0.69,12.49l-1.76,5.16l-1.99,3.73l-0.74,0.78l-1.76,4.43l-4.24,-1.61l-3.5,0.63l-4.23,1.91l-0.89,-1.06l-0.58,-4.38l0.43,-1.19l1.69,-0.37l0,-0.77l-2.5,-3.55l-0.96,0.07l-12.16,-5.06l-4.75,-0.12l-1.73,3.03l-4.53,0.46l-1.06,-0.27l-0.67,-2.58l-2.74,-2.02l-1.96,-0.26l-4.9,0.37l-2.3,0.6l-4.4,4.04l-1.57,-35.3l-0.27,-5.56l-0.08,-2.56l-0.02,-0.42l-0.75,-19.42l0,-2.23l-0.13,-1.33l-0.32,-7.95l-0.38,-9.41l-0.05,-1.66l-0.14,-4.37l-0.01,-0.34l-0.04,-0.96l-1.34,-32.81l-0.2,-2.17l-1.31,-30.89l-0.02,-0.47l-0.02,-0.24l-1.34,-28.43l22.08,-0.01l0.03,-7.41l66.43,-0.11l7.32,-7.3l3.45,2.67l1.42,3.63l5.66,0.26l-1.4,6.42l-6.41,8.08l2.81,5.4l3.14,0.04l1.63,4.95l-3.5,4.72l1.48,1.83l-3.09,3.49l1.77,4.62l-1.79,5.76l4.62,1.27l4.24,6.39l-5.61,2.42l-1.01,3.8l-5.77,6.17l-1.23,2.94l1.29,3.34l5.73,3.12l2.23,3.91l-1.6,3.14l-7.68,2.46l-0.76,4.33l-6.83,4.93l-0.89,5.29l2.62,3.86l-0.15,3.74l3.01,6.18L100.54,1108.2z"/>
		<path id="C01099" title="Monroe" class="land" d="M338.79,819.74L339,839.39L315.98,849.41L307.73,848.09L305.46,851.58L306.55,858.53L301.71,861.32L298.89,864.88L289.44,867.37L288.93,874.44L287.26,881.33L284.27,886.65L282.37,894.56L282.62,898.41L275.76,910.81L273.54,914.13L269.38,914.87L260.46,923.48L259.03,925.97L254.47,928.26L249.74,934.16L246.8,939.86L243.7,941.28L240.83,949.31L233.6,953.57L227.63,959.7L226.19,963.76L212.84,963.84L197.68,972.09L185.44,967.77L181.9,968.15L172.34,963.35L163.36,952.95L153.15,954.45L150.24,952.34L148.9,947.57L153.13,941.49L153.28,937.84L155.45,938.08L155.65,943.56L157.74,945.51L162.32,942.79L161.66,935.2L165.94,928.34L170.37,926.67L174.69,922.74L180.3,922.33L183.96,925.87L188.19,926.17L194.55,919.73L196.92,908.98L184.23,899.63L189.03,896.42L196.35,889.82L196.04,853.54L207.01,853.36L206.53,823.85L210.3,823.94L210.3,820.08L265.75,819.44L272.34,820.28z"/>
		<path id="C01101" title="Montgomery" class="land" d="M446.52,715.57L443.61,712.3L435.67,707.12L431.03,707.83L429.09,703.71L429.33,695.83L432.33,692.54L427.49,689.2L428.36,684.83L434.91,680.61L436.39,673.55L438.75,675.07L446.01,672.5L447.28,672.15L449.46,668.11L459.57,666.56L463.99,669.14L468.09,669.05L467.07,666.53L465.56,665.16L467.11,661.3L468.15,658.46L468.18,655.41L469.89,654.34L473.95,654.25L476.85,653.57L477.43,651.26L478.88,649.25L483.47,651.65L485.48,652.72L485.89,655.05L487.63,656.78L489.22,656.53L489.61,658.84L491.28,661.7L494.78,661.96L494.26,664.11L493.35,665.82L501.58,666.28L502.27,668.75L507.81,666.35L509.78,670.69L516.28,669.51L524.91,673.47L529.96,669.94L536.59,690.79L541.51,691.95L543.73,694.4L544.86,700.04L547.79,703.71L552.14,705.43L552.4,707.04L537.85,707.56L537.85,713.08L535.12,713.11L535.62,763.83L535.9,785.02L493.55,785.3L469.57,785.65L469.27,763.67L447.07,763.91z"/>
		<path id="C01103" title="Morgan" class="land" d="M295.74,110.23L295.92,84.48L307.87,93.94L311.01,93.38L331,107.5L338.72,112.28L353.57,118.34L364.06,119.86L372.04,118.59L378.84,111.52L383.47,109.93L388.61,112.8L391.08,119.52L395.13,120.35L402.1,112.95L409.74,111.87L415.21,117.02L415.94,121.13L415.41,121.62L415.27,122.01L409.21,166.79L409.07,184.1L298.75,182.12L294.83,181.73z"/>
		<path id="C01105" title="Perry" class="land" d="M227.55,553.74L249.55,553.58L249.61,564.75L268.19,564.57L270.27,563.82L314.5,563.34L314.81,590.87L311.46,599.48L311.71,607.63L309.23,613.01L308.29,618.68L309.93,624.07L306.32,627.96L301.19,631.27L300.95,640.06L299.19,640.74L294.68,652.09L293.45,652.67L270.85,652.85L268.08,653.51L227.12,653.87L227.43,698.45L216.32,698.58L205.25,698.66L205.21,654.11L205.05,609.75L216.14,609.71L216.52,564.98L227.51,564.93z"/>
		<path id="C01107" title="Pickens" class="land" d="M39.4,418.88L42.35,389.63L42.48,388.59L42.96,384.05L113.92,386.62L132.95,386.3L136.81,386.42L137.7,473.67L137.5,482.08L116.85,492.4L115.75,492.1L109.2,501.46L96.52,505.22L92.96,513.17L86.16,508L83.74,512.24L77.44,510.81L70.04,511.97L71.44,515.04L65.21,519.32L65.19,522.61L28.72,523.81L30.78,502.77L33.76,474.24L34.17,469.3L34.76,464.77L36.51,447.42z"/>
		<path id="C01109" title="Pike" class="land" d="M589.39,873.53L589.03,873.56L580.55,873.55L503.39,873.61L496.08,873.94L496,871.75L503.12,862.17L502.86,829.79L491.82,829.91L491.81,825.5L495.37,819.29L495.51,809.69L497.5,803.89L496.98,794.22L493.55,785.3L535.9,785.02L535.62,763.83L545.7,762.94L546.56,761.07L546.56,762.93L554.03,762.88L557.94,764.76L558.16,779.56L559.96,785.1L580.35,785.1L580.14,807.13L608.99,807.15L604.56,813.31L607.9,831.72L598.93,843.44L598.5,850.97L595.96,853.3L596.34,862.8L590.87,873.13z"/>
		<path id="C01111" title="Randolph" class="land" d="M622.93,493.98L609.85,494.16L610.54,442.83L612.5,442.88L612.56,438.25L610.66,438.17L612.05,393.9L674.98,394.79L674.56,393.13L676.02,392.48L685.39,397.25L687.67,411.4L700.08,488.27L700.97,493.79z"/>
		<path id="C01113" title="Russell" class="land" d="M751.27,648.42L751.49,650.28L751.59,651.02L751.94,651.48L752.35,653.09L752.27,655.84L751.62,657.22L751.66,659.29L752.24,661.46L752.63,662.09L754.73,663.39L757.33,664.11L758.37,666.02L759.23,668.85L759.14,669.29L757.33,670.89L755.68,671.91L755.32,674.31L755.58,675.01L756.1,675.83L756.26,676.91L755.77,677.79L755.48,678.71L755.54,679.56L755.71,680.37L755.83,681.08L755.84,681.1L755.54,681.83L754.92,682.33L754.79,683.1L754.86,683.92L754.81,684.42L754.09,685.47L750.24,689L749.48,691.17L749.7,693.29L750.83,694.91L753.5,695.59L764.5,700.33L765.55,700.96L767.92,704.25L770.46,706.38L771.99,707.2L774.17,709.21L774.63,709.83L774.83,710.32L774.78,710.8L774.53,711.16L773.25,711.52L772.53,711.82L772.32,712.43L771.98,713.03L771.3,713.49L770.68,713.67L770.16,713.89L770,714.44L770.11,714.94L769.33,716.67L768.4,717.33L767.97,717.89L767.88,718.12L767.77,718.4L767.9,719.67L767.36,720.48L766.76,720.92L766.35,721.12L764.36,721.4L762.27,721.43L761.24,721.6L760.52,721.72L760.11,722.01L759.75,722.32L759.4,722.79L759.16,723.17L758.89,723.48L758.65,723.72L758.51,723.92L758.42,724.21L758.36,724.48L758.39,724.83L758.51,725.28L758.8,725.82L758.82,726.24L758.8,726.82L758.41,727.5L756.92,728.12L752.12,729.82L749.39,730.57L748.8,730.93L748.41,731.28L748.07,731.85L745.48,734.59L744.67,735.7L743.88,737.07L741.37,740.27L740.88,740.71L738.53,742.24L738.01,742.73L737.81,743.13L737.92,743.85L738.43,745L739.33,747.92L739.6,749.44L740.52,752.57L741.05,753.82L741.05,754.59L740.91,755.22L740.17,755.83L739.72,756.32L739.16,757.88L739.23,758.34L739.54,758.96L739.52,759.52L739.12,760.78L709.83,760.39L709.66,757.61L701.83,750.98L695.47,739.21L662.5,739.53L658.78,739.56L657.46,717.15L657.35,672.53L679.83,672.27L679.03,657.53L738.41,656.44L738.06,647.18L751.06,646.92L751.19,647.87z"/>
		<path id="C01115" title="St. Clair" class="land" d="M453.28,299.26L461.54,290.66L459.35,287.51L464.51,278.91L472.19,267.6L474.79,266.21L480.5,272.28L485.15,267.84L491.86,266.25L493.27,270.2L498.58,272.41L499.17,282.43L502.67,283.99L504.07,289.48L511.15,288.5L511.39,294.2L514.03,299.35L521.45,298.96L523.03,303.53L520.82,304.31L520.57,304.6L520.46,305.09L523.43,307.46L521.02,315.83L524.41,320.77L525.43,324.68L521.41,325.64L517.29,330.02L509.72,334.98L508.15,338.35L503.86,338.78L503.46,346.55L501.39,348.48L497.98,346.49L496.74,342.01L493.04,341.7L490.6,343.85L491.51,347.14L497.64,351.53L499.28,357.53L498.28,362.03L491.52,364.37L494.57,369.17L488.33,368.58L487.14,370.13L489.82,377.38L493.74,381.54L485.93,387.53L484.04,394.25L480.16,395.72L477.49,393.78L478.04,389.71L474.25,389.99L472.8,396.12L471.19,397.12L468.47,404.57L464.8,407.49L459.71,416.14L456.03,417.14L453.04,420.96L453.13,392.21L430.7,392.18L430.79,380.94L423.17,380.98L415.55,377.11L415.69,361.84L419.41,358.12L419.43,352.49L421.3,352.51L421.37,335.65L417.57,331.92L417.55,324.27L409.97,324.23L410.03,314.74L422.09,314.76L424.09,312.45L431.06,311.32L438.63,308.52L442.3,309.97z"/>
		<path id="C01117" title="Shelby" class="land" d="M312.84,458.2L313.55,458.21L322.35,458.31L325.23,452.79L332.71,450.94L334.63,445.3L342.15,439.65L344.06,435.99L355.29,436.16L355.37,428.75L360.95,427.02L366.53,427.18L366.59,421.49L370.31,421.64L372.21,414.17L379.61,414.43L379.7,410.7L383.46,410.81L385.26,405.23L389.06,405.29L389.07,401.48L404.19,401.34L413.68,388.31L417.46,386.54L423.08,386.6L423.17,380.98L430.79,380.94L430.7,392.18L453.13,392.21L453.04,420.96L458.62,425.72L461.16,430.34L455.32,433.67L455.48,439.13L457.45,445.84L449.86,450.74L446.2,451.38L441.17,448.89L443.15,454.57L440.74,459.35L435.87,459.49L434.04,463.85L435.24,469.4L432.85,471.07L429.79,469.67L426.12,475.52L435.46,489.41L428.74,495.11L424.18,499.49L425.49,504.15L422.46,506.92L423.04,516.27L418.82,515.28L413.11,516.53L412.2,514.51L401.61,507.72L403,503.57L356.54,503.95L344.25,503.09L344.35,508.74L332.93,505.1L332.93,501.31L329.1,501.33L329.27,496.23L325.29,496.28L325.23,480.92L324.19,480L313.11,478.95z"/>
		<path id="C01119" title="Sumter" class="land" d="M18.25,629.58L19.51,617.17L19.52,617.1L21.61,595.4L22.68,586.23L25.72,553.58L27.12,539.75L28.72,523.81L65.19,522.61L66.16,529.11L59.64,543.63L63.84,563.06L78.78,571.36L79.18,582.78L81.48,589.36L81.44,597.5L83.46,602.62L87.14,601.86L90.4,607.11L87.25,613.3L86.15,620.02L89.04,623.4L101.29,623.41L112.92,617.56L127.25,619.1L130.4,618.54L131.81,625.09L128.31,629.38L130.75,639.57L134.06,641.33L136.64,643L134.22,645.64L123.71,643.61L121.03,644.88L114.24,651.76L112.27,656.42L107.75,660.36L103.53,660.95L94.79,667.24L93.63,669.94L92.33,680.88L98.14,682.56L103.68,688.48L108.64,689.22L114.91,696.78L117.35,697.82L11.2,698.3L12.85,681.68L13.13,680.13L15.02,662.34L15.02,662.31L15.85,653.25z"/>
		<path id="C01121" title="Talladega" class="land" d="M486,494.81L428.74,495.11L435.46,489.41L426.12,475.52L429.79,469.67L432.85,471.07L435.24,469.4L434.04,463.85L435.87,459.49L440.74,459.35L443.15,454.57L441.17,448.89L446.2,451.38L449.86,450.74L457.45,445.84L455.48,439.13L455.32,433.67L461.16,430.34L458.62,425.72L453.04,420.96L456.03,417.14L459.71,416.14L464.8,407.49L468.47,404.57L471.19,397.12L472.8,396.12L474.25,389.99L478.04,389.71L477.49,393.78L480.16,395.72L484.04,394.25L485.93,387.53L493.74,381.54L489.82,377.38L487.14,370.13L488.33,368.58L494.57,369.17L491.52,364.37L498.28,362.03L499.28,357.53L497.64,351.53L491.51,347.14L490.6,343.85L493.04,341.7L496.74,342.01L497.98,346.49L501.39,348.48L503.46,346.55L523.98,347.72L525.06,350.73L529.23,354.8L530.25,366.7L535.62,366.77L536.04,370.5L579.38,370.73L579.05,378.32L578.88,382.03L566.98,393.16L555.51,393.18L555.42,404.53L551.64,404.56L551.43,419.62L547.73,419.66L547.65,423.34L540.02,423.31L539.2,445.91L509.38,445.36L508.86,471.56L497.56,471.26L497.23,494.74z"/>
		<path id="C01123" title="Tallapoosa" class="land" d="M622.93,493.98L622.94,591.12L619.24,594.86L604.19,595.22L600.53,599.08L600.73,625.03L597.07,625.08L597.09,628.63L578.51,628.82L578.82,651L559.57,651.3L558.5,645.21L559.72,637.36L557.75,623.19L559.22,611.82L554.04,604.09L554.96,598.6L558.6,594.07L558,591.34L560.49,588.81L560.93,584.47L544.71,584.39L544.55,580.73L540.83,580.71L540.96,584.37L533.39,584.35L533.36,569.7L532.01,567.76L533.33,566.4L531.94,566.1L533.3,565.71L532.96,498.37L540.44,498.3L540.41,494.51L609.85,494.16z"/>
		<path id="C01125" title="Tuscaloosa" class="land" d="M279.77,437.19L279.79,438.97L283.57,439L283.61,442.71L291.15,442.86L291.23,446.77L299.72,446.81L304.43,450.61L304.43,458.08L302.07,458.1L296.13,464.63L292.37,464.63L292.29,460.93L285.76,461.79L275.57,471.04L275.54,487.99L257.67,487.37L251.26,497.42L249.75,519.96L227.39,520.68L163.85,519.8L164.13,517.97L164.87,517L138.64,517.12L137.38,486.39L137.5,482.08L137.7,473.67L136.81,386.42L159.32,387.78L174.45,387.24L174.46,372.22L182.04,372L182.01,364.46L227,366.46L238.38,366.57L238.4,370.35L249.75,370.26L249.82,389.18L260.92,389.5L262.12,392.66L256.91,392.25L257,396.51L254.61,398.16L252.5,395.32L247.21,394.91L244.74,400.45L246.07,404.13L250.71,404.26L250.65,407.88L257.14,408.17L257.16,412.01L263.76,414.04L264.72,419.78L268.46,419.89L268.47,427.44L275.91,429.43L276.51,433.31L279.71,433.34z"/>
		<path id="C01127" title="Walker" class="land" d="M181.1,285.37L181.06,262.8L210.5,264.25L271.77,264.95L275.48,267.27L277.64,262.59L282.12,262.05L285.98,265.13L289.65,272.44L294.34,273.89L296.03,280.19L298.57,282.01L300.9,287.27L296.84,289.75L298.79,291.9L317.12,292.2L317.16,298.1L326.57,300.16L328.67,311.29L328.66,315.05L324.87,314.94L324.94,318.76L317.36,318.56L317.37,322.35L313.61,322.31L313.6,329.86L309.86,333.64L310.04,344.93L306.27,344.9L306.16,352.43L298.6,352.3L298.59,359.8L287.4,359.71L287.41,363.54L279.84,363.44L279.81,367.19L276.06,367.18L274.4,372.47L278.46,378.4L273.22,382.83L268.34,382.67L264.47,389.17L260.53,384.94L259.05,387.14L260.92,389.5L249.82,389.18L249.75,370.26L238.4,370.35L238.38,366.57L227,366.46L226.97,343.96L204.37,343.2L203.67,297.72L181.08,296.59z"/>
		<path id="C01129" title="Washington" class="land" d="M5.12,919.54L4.8,913.58L4.68,908.01L4.37,903.31L2.97,872.62L2.92,872.02L1.9,853.34L1.9,853.32L83.26,852.98L85.33,860.49L83.02,863.24L84.19,870.43L86.29,873.95L85.29,877.79L91.23,882.26L96.37,882.07L98.69,884.76L93.69,885.1L95.59,888.07L106.3,893.53L108.76,895.64L114.79,896.6L118.7,902.59L122.66,905.43L119.93,911.27L119.91,923.96L119.38,929.72L116.63,932.19L119.63,932.99L122.24,931.05L124.42,933.35L125.94,934.3L125.37,939.61L121.15,946.15L115.65,950.44L113.81,955.68L111.57,958.91L109.47,964.98L115.08,969.12L113.91,980.74L114.52,988.68L108.22,988.34L104.77,985.67L97.46,992.98L31.03,993.09L30.99,1000.5L8.92,1000.51L7.6,971.39L7.57,971.09L7.41,967.15L7.45,965.71L6.07,939.71L6.06,939.68L5.31,923.31L5.31,923.21z"/>
		<path id="C01131" title="Wilcox" class="land" d="M210.3,820.08L184.52,820.62L184.34,809.66L174.42,808.3L174.28,787.33L174.21,778.98L174.18,776.24L183.95,775.39L183.68,743.17L205.72,743.06L205.44,712.01L207.46,709.17L216.51,709.45L222.49,708.42L227.21,714.74L233.37,716.47L234.6,720.07L237.64,720.39L239.62,726.67L248.23,726.11L249.88,730.73L255.38,734.13L257.9,740.12L261.8,739.44L264.09,742.29L262.16,745.35L265.55,745.76L270.36,753.02L277.48,754.93L280.09,764.64L338.77,764.61L349.67,764.51L349.45,786.39L338.34,786.51L338.79,819.74L272.34,820.28L265.75,819.44z"/>
		<path id="C01133" title="Winston" class="land" d="M181.36,183.5L204.07,184.13L261.37,185.5L262.08,185.46L263.29,185.56L294.88,185.51L294.43,265.35L285.98,265.13L282.12,262.05L277.64,262.59L275.48,267.27L271.77,264.95L210.5,264.25L181.06,262.8z"/>
	</g>
</svg>