<?xml version="1.0" encoding="utf-8"?>
<!-- (c) ammap.com | SVG map of AR Counties -->
<svg xmlns="http://www.w3.org/2000/svg" xmlns:amcharts="http://amcharts.com/ammap" xmlns:xlink="http://www.w3.org/1999/xlink" version="1.1">
	<defs>
		<style type="text/css">
			.land
			{
				fill: #CCCCCC;
				fill-opacity: 1;
				stroke:white;
				stroke-opacity: 1;
				stroke-width:0.5;
			}
		</style>

		<amcharts:ammap projection="mercator" leftLongitude="-94.618311" topLatitude="36.499600" rightLongitude="-89.644642" bottomLatitude="33.003790"></amcharts:ammap>

		<!-- All areas are listed in the line below. You can use this list in your script. -->
		<!--{id:"C05001"},{id:"C05003"},{id:"C05005"},{id:"C05007"},{id:"C05009"},{id:"C05011"},{id:"C05013"},{id:"C05015"},{id:"C05017"},{id:"C05019"},{id:"C05021"},{id:"C05023"},{id:"C05025"},{id:"C05027"},{id:"C05029"},{id:"C05031"},{id:"C05033"},{id:"C05035"},{id:"C05037"},{id:"C05039"},{id:"C05041"},{id:"C05043"},{id:"C05045"},{id:"C05047"},{id:"C05049"},{id:"C05051"},{id:"C05053"},{id:"C05055"},{id:"C05057"},{id:"C05059"},{id:"C05061"},{id:"C05063"},{id:"C05065"},{id:"C05067"},{id:"C05069"},{id:"C05071"},{id:"C05073"},{id:"C05075"},{id:"C05077"},{id:"C05079"},{id:"C05081"},{id:"C05083"},{id:"C05085"},{id:"C05087"},{id:"C05089"},{id:"C05091"},{id:"C05093"},{id:"C05095"},{id:"C05097"},{id:"C05099"},{id:"C05101"},{id:"C05103"},{id:"C05105"},{id:"C05107"},{id:"C05109"},{id:"C05111"},{id:"C05113"},{id:"C05115"},{id:"C05117"},{id:"C05119"},{id:"C05121"},{id:"C05123"},{id:"C05125"},{id:"C05129"},{id:"C05127"},{id:"C05131"},{id:"C05133"},{id:"C05135"},{id:"C05137"},{id:"C05139"},{id:"C05141"},{id:"C05143"},{id:"C05145"},{id:"C05147"},{id:"C05149"}-->

	</defs>
	<g>
		<path id="C05001" title="Arkansas" class="land" d="M505.21,470.02L507.46,468.6L505.13,463.91L505.04,460.5L500.06,459.54L497.65,461L497.38,456.84L494.03,457.85L493.24,454.03L494.23,452.55L492.16,450.12L492.04,444.17L490.68,442.6L462.82,440.56L463.87,392.79L468.2,392.94L478.08,393.4L481.34,393.21L481.51,376.37L516.01,377.25L520.2,377.35L524.58,377.5L529.35,379.5L529.04,381.57L534.54,385L536.08,389.82L538.47,392.36L541.12,392.49L542.04,394.14L542.03,397.07L541.68,398.43L543.48,399.97L546.84,399.61L549.75,401.97L550.87,405.34L552.21,408.19L555.54,411.45L557.61,414.53L560.42,417.93L563.95,418.98L566.51,420.81L567.22,420.86L565.87,425.89L566.64,430.31L564.54,428.69L564.5,434.46L566.21,436.53L563.56,437.51L565.77,439.67L566.53,443.85L564.96,446.8L562.58,446.64L561.16,451.5L562.84,454.85L561.77,455.67L563.66,457.85L557.4,462.56L556.67,464.71L553.5,464.06L552.59,468.55L549.24,467.38L545.24,471.58L546.19,473.11L544.83,475.75L545.16,478.76L547.04,482.17L548.89,482.39L551.19,486.59L550.9,489.35L552.7,490.25L555.05,493.92L552.07,497.3L549.34,493.35L542.67,493.94L542.05,490.63L538.05,490.37L536.12,493.58L534.38,493.52L532.98,490.67L530.8,490.53L527.51,492.75L520.15,493.74L519.3,492.21L524.35,489.28L525.35,487.39L523.93,484.59L520.39,484.92L516.71,488.76L512.95,488L509.02,482.59L506.56,478.73L506.76,472.26z"/>
		<path id="C05003" title="Ashley" class="land" d="M502.86,674.33L498.28,674.28L496.53,674.17L487.08,674.16L485.03,674.15L483.87,674.23L483.84,674.22L479.19,674.21L477.82,674.18L476.38,674.2L459.04,674.02L455.93,674.13L436.81,673.99L424.89,674.03L424.57,674.05L405.92,673.91L403.46,669.41L399.65,669.41L398.71,662.18L396.32,662.17L394.05,656.87L398.89,650.47L399.29,645.68L395.02,644.62L396.1,642.57L395.24,638.28L396.46,635.95L398.62,636.32L398.51,633.2L400.63,634.1L402.85,632.7L403.45,629.86L405.59,630.35L405.12,628.11L409.89,626.82L410.22,622.78L412.45,623.36L416.74,621.35L415.44,619.14L417.71,617.74L420.54,618.27L421.14,614.75L418.9,610.87L422.17,607.93L421.78,605.52L423.27,603.64L418.49,600.02L503.34,601.77z"/>
		<path id="C05005" title="Baxter" class="land" d="M332.66,0.2L334.61,0.17L346.19,0.21L349.97,0.33L355.62,0.35L357.18,0.47L361.14,0.36L366.21,0.37L367.65,0.34L382.46,0.23L382.82,0.24L383.25,0.24L385.17,0.25L392.99,0.19L391.57,46.93L391.92,46.94L391.46,64.12L382.86,63.88L382.65,72.05L385.8,72.18L385.45,86.61L368.36,86.26L368,103.32L350.94,102.96L351.39,85.93L351.76,71.81L348.95,71.78L349.02,68.92L352.04,67.39L346.56,66.01L342.05,62.4L340.43,59.11L343.76,56.04L341.04,53.5L342.19,48.98L337.46,47.54L334.02,45.45L330.44,45.35L332.81,42.81L333.57,39.61L329.08,36.67L325.33,37.48L327.35,32.68L331.87,33.52L332.42,29.54L324.86,31.02L322.17,28.56L328.92,23.69L332.01,22.28z"/>
		<path id="C05007" title="Benton" class="land" d="M10.47,78.18L9.04,68.39L8.78,66.5L8.77,66.47L8.32,63.22L8.17,62.17L7.43,56.84L7.34,56.28L6.93,53.09L6.85,52.55L6.82,52.36L6.68,51.11L6.37,49.24L6.38,49.14L5.05,39.33L3.91,30.32L2.9,22.08L2.54,19.22L2.44,18.59L1.99,15.31L1,7.51L0.65,4.61L0.42,2.88L0,0.04L9.34,0.02L15.68,0.08L40.88,0L80.66,0.2L80.78,0.2L82.44,0.18L82.71,0.18L86.13,0.17L104.15,0.17L104.91,0.17L110.86,0.17L113.36,0.17L119.63,0.16L119.62,8.57L119.63,15.33L119.52,20.96L118.73,21.4L118.17,20.81L117.4,21.58L117.06,22.51L116.13,23.63L116.37,24.86L117.58,24.71L117.32,25.35L118.21,25.25L119.44,24.74L119.56,27.01L119.47,30.69L120.09,31.62L120.76,32.34L121.62,32.4L121.66,33.16L121.64,34.07L121.3,35.07L121.76,34.51L121.96,33.85L122.63,33.73L123.19,34.13L123.96,34.59L124.75,34.75L125.02,35.84L125.71,36.86L126.93,37.38L127.42,36.84L127.77,38.03L119.26,37.86L119.17,52.14L116.28,52.1L107.33,51.87L105.14,54.58L102.83,53.38L102.45,58.28L98.7,56.84L96.96,54.61L98.43,53.09L94.54,54.31L95.61,57.36L45.29,56.09L44.83,70.33L36.31,70.26L36.12,78.74z"/>
		<path id="C05009" title="Boone" class="land" d="M255.48,0.29L274.49,0.34L274.55,0.35L280.91,0.32L280.81,6.9L277.79,4.72L275.99,1.72L275.07,75.85L266.48,75.65L265.91,75.57L246.54,75.29L243.93,74.74L235.32,75.18L209.88,74.45L209.76,73.71L210.52,14.16L210.58,14.15L210.51,0.25L237.6,0.34L243.49,0.28L243.71,0.27L246.6,0.27L246.76,0.27z"/>
		<path id="C05011" title="Bradley" class="land" d="M395.02,644.62L393.81,643.79L391.17,643.68L390.29,643.75L389.67,640.94L388.37,637.93L384.81,636.66L382.01,633.41L381.07,629.28L376,626.8L370.5,623.91L367.47,624.47L364.06,622.9L361.69,622.13L360.8,619.96L361.11,618.85L356.58,615.83L356.08,609.93L356.97,604.1L359.59,603.51L360.32,599.36L362.53,596.94L365.94,586.56L365.62,583.26L367.31,580.22L365.48,575.98L366.89,570.89L365.28,566.93L365.8,564.53L364.57,558.43L365.85,555.47L364.98,550.74L365.94,545.98L364.23,541.13L371.49,541.56L420.77,541.78L420.73,575.04L415.67,575.09L417.06,580.66L415.5,583.18L416.97,585.79L414.51,589.52L418.21,592.75L416.56,596.55L418.49,600.02L423.27,603.64L421.78,605.52L422.17,607.93L418.9,610.87L421.14,614.75L420.54,618.27L417.71,617.74L415.44,619.14L416.74,621.35L412.45,623.36L410.22,622.78L409.89,626.82L405.12,628.11L405.59,630.35L403.45,629.86L402.85,632.7L400.63,634.1L398.51,633.2L398.62,636.32L396.46,635.95L395.24,638.28L396.1,642.57z"/>
		<path id="C05013" title="Calhoun" class="land" d="M363.69,524.49L364.84,527.78L362.48,534.44L364.23,541.13L365.94,545.98L364.98,550.74L365.85,555.47L364.57,558.43L365.8,564.53L365.28,566.93L366.89,570.89L365.48,575.98L367.31,580.22L365.62,583.26L365.94,586.56L362.53,596.94L360.32,599.36L359.59,603.51L356.97,604.1L356.08,609.93L356.58,615.83L361.11,618.85L359.47,620.08L350.81,623.58L346.56,623.65L343.47,621.52L343.03,618.59L342.68,616.7L341.71,615.4L339.69,615.18L338.79,615.56L334.66,614.89L333.68,613.29L332.41,610.21L328.42,606.78L326.6,605.9L326.54,603.8L324.67,604.89L323.67,600.06L318.2,597.94L314.8,600.39L315.56,596.8L312.61,595.32L312.89,593.23L304.63,593.75L305.01,589.51L301.52,588.25L302.84,584.18L299.67,581.65L297.02,583.68L295.01,582.13L296.62,580.53L293.75,578.77L296.04,574.79L293.22,573.52L293.67,570.8L297.49,572.38L301.15,568.56L302.66,570.71L303.85,563.37L303.26,560.57L299.76,557.04L301.68,551.79L305.72,551.93L313.74,549.52L315.77,543.94L321.48,540.49L323.75,535.66L324.07,523.13z"/>
		<path id="C05015" title="Carroll" class="land" d="M141.72,0.11L141.8,0.11L143.18,0.08L144.6,0.08L146.16,0.09L164.61,0.14L164.61,0.14L175.73,0.14L176.86,0.14L189.66,0.2L194.59,0.18L194.8,0.21L207.45,0.24L207.45,0.24L210.51,0.25L210.58,14.15L210.52,14.16L209.76,73.71L209.88,74.45L181.3,73.7L169.89,73.46L169.96,67.82L164.42,67.69L164.52,61.78L160.25,61.62L158.93,58.75L159.22,47.41L155.48,45.57L156.99,43.46L151.97,43.84L152.92,38.71L127.77,38.03L127.42,36.84L126.93,37.38L125.71,36.86L125.02,35.84L124.75,34.75L123.96,34.59L123.19,34.13L122.63,33.73L121.96,33.85L121.76,34.51L121.3,35.07L121.64,34.07L121.66,33.16L121.62,32.4L120.76,32.34L120.09,31.62L119.47,30.69L119.56,27.01L119.44,24.74L118.21,25.25L117.32,25.35L117.58,24.71L116.37,24.86L116.13,23.63L117.06,22.51L117.4,21.58L118.17,20.81L118.73,21.4L119.52,20.96L119.63,15.33L119.62,8.57L119.63,0.16z"/>
		<path id="C05017" title="Chicot" class="land" d="M539.41,569.01L539.33,569.16L539.15,569.75L539.19,570.64L539.58,571.73L540.14,572.85L541.26,574.53L541.83,575.09L546.34,578.67L546.78,579.28L547.05,580.23L547.03,580.94L546.62,581.36L546.02,582.01L545.02,582.87L544.39,583.89L543.43,585.71L543.25,586.32L542.97,586.65L541.86,587.37L541.11,587.7L540.61,587.76L539.29,588.83L539.14,589.43L539.01,591.31L538.87,591.64L538.61,591.97L538.73,592.28L541.56,593.09L542.69,593.26L543.25,593.25L545.18,592.77L546.4,592.35L547.23,591.93L547.95,591.39L549.21,589.68L548.82,587.84L548.21,586.05L547.99,584.69L547.97,583.31L548.23,582.43L548.75,581.31L549.52,581L550.06,581.17L550.68,581.66L551.13,582.02L554.42,584.23L556.26,585.84L557.12,588.24L557.39,589.46L557.31,590.35L556.89,591.4L555.7,592.79L555.39,593.36L555.39,593.62L555.18,593.97L554.02,594.56L553.11,594.42L552.66,594.52L550.16,595.47L548.11,596.45L547.62,596.42L546.81,595.96L545.61,596.31L544.43,596.2L543.92,596.48L543.49,596.98L542.94,598.02L542.86,598.48L542.89,598.99L543.04,599.3L543.57,599.9L545.74,601.65L548,602.94L548.79,603.28L549.7,603.53L551.65,603.68L553.74,603.38L556.49,602.05L558.06,600.98L559.11,599.85L560.37,598.11L561.02,596.36L561,594.8L560.66,593.65L560.65,593.27L560.78,592.54L561.17,591.57L561.6,590.88L562.41,589.88L563.15,589.39L563.79,589.11L564.31,589.08L565.41,589.21L565.88,589.46L566.65,590.13L567,591.07L566.92,594.23L566.26,595.65L564.19,598.54L561.71,600.48L560.02,602.11L559.18,603.26L557,606.55L556.26,607.25L553.85,608.89L553.6,609.15L553.53,609.36L553.73,611.73L553.58,612.4L553.35,612.86L553.3,613.27L553.65,615.94L553.63,618.74L553.88,619.29L556.19,622.4L556.19,623.45L555.78,624.63L557.35,625.85L557.51,626.11L557.97,627.57L558.57,628.91L559.28,629.69L560.24,630.38L560.4,630.38L560.74,629.72L561.09,628.04L561.61,627.22L561.79,626.75L562.46,623.65L562.85,622.72L563.24,622.21L563.67,621.82L564.62,621.33L565.5,621.08L566.83,621.14L567.84,621.42L568.51,621.92L568.99,622.63L569.23,623.46L569.18,624.37L568.98,625.21L568.59,626.24L568.15,627.91L567.56,628.87L566,630.53L565.73,631.36L565.24,631.37L564.86,631.91L564.92,632.44L564.38,632.53L563.81,632.4L563.56,632.59L563.56,633.08L563.5,633.21L562.98,633.51L562.49,633.51L561.58,633.67L561.86,635.68L562.33,637.89L562.74,641.23L562.66,644.84L562.55,645.97L562.23,647.99L561.87,649.04L561.34,649.59L559.57,650.56L558.01,650.89L555.21,651.03L553.35,650.9L552.23,650.73L552,650.52L551.81,649.9L550.65,648.74L550.44,648.63L549.2,648.47L546.93,648.65L546.13,649.01L545.42,649.59L545.08,649.97L544.05,651.79L544,652.52L544.1,654.72L544.15,654.99L544.3,655.23L544.97,655.68L547.38,656.85L548.35,658.12L548.54,658.56L548.87,658.84L549.76,659.16L550.59,659.27L552.32,660.02L556.33,663.33L556.88,664.26L557.02,664.88L557.01,665.14L556.52,666.65L556.17,668.21L555.62,669.11L554.29,670.02L553.5,670.3L552.33,670.48L551.31,670.99L550.32,671.73L549.7,673.31L549.73,674.67L533.97,674.49L530.89,674.5L526.49,674.46L524.82,674.44L524.42,674.44L524.2,674.43L523.66,674.43L523.15,674.41L516.3,674.36L508.42,674.31L506.78,674.3L503.98,674.35L502.86,674.33L503.34,601.77L503.97,568.57L520.51,568.58L521.05,574.29L523.12,574.3L524.46,577.15L537.04,577.42L537.23,569z"/>
		<path id="C05019" title="Clark" class="land" d="M275.78,455.52L275.43,466.02L275.27,471.53L275.09,476.13L274.97,480.07L274.77,485.34L269.5,488.2L267.59,488.07L265.09,489.63L265.45,491.86L267.27,493.19L268.48,496.56L269.97,498.65L271.25,498.9L272.32,501.3L273.05,502.91L273.26,504.24L272.38,504.8L272.84,508.46L273.1,511.04L274.9,512.65L276.62,514.52L275.88,516.91L274.94,518L274.06,520.91L274.62,521.66L273.78,521.84L272.84,521.43L271.71,520.6L270.59,520.1L269.3,520.09L268.34,520.44L267.55,521.3L267.24,522.97L266.34,523.52L264.77,524.39L262.67,525.38L261.27,525.91L260.44,526.54L258.98,527.09L258.06,527.76L255.76,528.2L253.66,528.5L252.39,528.79L250.79,528.22L248.96,527.71L247.75,526.52L246,526.13L244.75,526.88L244.01,527.96L241.93,527.91L241.06,527.94L238.29,525.6L235.86,521.56L233.45,521.55L231.71,522.19L229.56,522.93L228.03,521.87L227,520.54L225.17,519.73L223.59,519.08L222.04,518.13L220.72,518.14L219.49,518.34L216.33,517.59L214.87,516.39L213.77,516.06L210.85,513.91L209.09,509.5L210.17,506.27L207.98,503.58L206.09,501.46L204.73,501.23L203.59,499.96L203.36,498.3L201.05,496.44L199.42,495.26L198.2,493.56L197.3,487.97L193.16,484.25L191.29,477.96L188.52,475.84L188.38,471.85L186.82,463.48L184.44,457.96L186.98,457.23L185.09,455.05L186.22,450.81L184.35,448.92L186.01,446.09L179.41,445.32L177.69,444.36L177.8,436.76L181.16,436.84L181.44,420.05L192.67,420.3L201,420.46L200.84,431.67L226.09,432.24L225.91,437.85L243.33,438.3L244.23,440.24L252.18,440.11L251.53,442.96L253.54,446.6L250.8,450.85L251.59,455.68L253.61,454.73z"/>
		<path id="C05021" title="Clay" class="land" d="M700.28,0.34L700.29,0.34L700.83,0.36L704.55,0.35L711.15,0.33L710.85,0.55L710.93,0.84L710.75,1.17L710.38,1.06L710.11,1.16L710.07,1.41L710.18,1.58L710.59,1.82L710.54,2.34L710.04,2.37L710.07,2.72L710.41,3.01L710.04,3.6L710.06,3.85L710.14,3.95L711.82,4.62L712.29,4.55L712.56,4.65L712.78,5.42L712.79,5.73L712.13,5.93L711.09,5.65L710.64,6.61L710.63,7.11L712.41,7.26L712.53,7.17L712.64,7.08L712.75,7.13L712.9,7.22L712.97,7.46L712.89,7.66L712.92,7.83L713.13,8.23L713.57,8.71L713.77,11.17L714.1,12.16L714.08,12.42L713.53,13.35L713.29,13.47L712.71,13.49L712.54,14.02L712.48,14.55L712.55,14.82L713.22,15.41L713.5,15.46L713.84,15.12L713.97,15.06L714.06,15.14L713.95,16.3L713.74,16.61L713.36,16.77L713.38,16.89L713.94,16.93L714.57,16.67L714.94,17.34L716.1,17.48L716.99,18.01L717.17,18.44L718,18.83L718.93,18.7L720.41,18.85L722.63,19.48L722.91,19.81L723.22,20.45L723.62,20.95L723.83,21.01L724.46,21.87L725.16,23.16L725.26,24.96L724.88,27.65L724.19,28.28L723.43,29.45L723.06,29.58L723.06,29.78L723.55,30.51L723.64,30.88L723.48,31.1L723.15,31.19L722.98,32.14L723.35,32.4L723.4,32.62L723.18,33.26L722.88,33.82L722.47,34.28L722.38,34.97L722.7,35.66L722.84,35.7L723.13,35.52L723.25,35.54L724.41,36.73L725.25,38.72L724.28,40.36L723.05,41.61L723.34,42.96L722.1,44.76L721.67,44.92L720.91,44.98L719.48,45.42L718.68,45.85L717.87,45.82L717.45,45.9L717.14,46.09L716.61,48.47L715.61,50.3L715.38,50.45L714.78,50.49L714.64,50.71L714.72,51.06L715.17,51.84L715.58,52L715.58,52.34L715.31,53.21L714.36,53.79L713.97,53.8L713.45,53.63L712.79,53.57L711.32,55.22L711.15,55.92L710.57,56.29L710.37,56.27L710.05,55.95L709.77,55.88L708.72,56.37L707.84,56.96L706.82,57.36L706.32,57.98L705.85,58.06L705.47,57.93L705.17,58.69L705.11,58.72L684.32,58.87L684.5,47.36L660.7,47.18L621.42,45.62L606.98,45.84L606.99,45.01L608.11,41.7L609.28,41.09L610.36,41.01L611.15,42.31L612.86,42.31L614.52,42.65L615.69,42.5L615.75,40.68L615.88,33.76L616.03,27.07L616.17,19.75L614.74,17.14L613.34,16.93L614.1,15.45L613.13,14.79L612.44,13.54L611.86,10.98L612.32,5.46L611.25,1.42L610.52,0.21L610.83,0.21L613.5,0.22L622.17,0.25L625.07,0.21L631.4,0.22L632.16,0.23L637.88,0.21L639.02,0.23L640.79,0.23L642.22,0.22L643.68,0.23L643.69,0.23L655.78,0.24L656.6,0.24L656.67,0.24L681.31,0.27L698.98,0.36z"/>
		<path id="C05023" title="Cleburne" class="land" d="M378.62,154.54L442.85,155.95L450.4,154.62L449.74,189.27L449.43,204.56L445.69,205.67L444.09,204.76L442.91,207.4L440.79,208.29L440.5,223.49L399.17,222.63L376.67,222.43L377.35,188.53L377.95,188.53z"/>
		<path id="C05025" title="Cleveland" class="land" d="M363.69,524.49L362.58,522.64L362.9,516.73L360.67,513.42L356.22,510.31L353.86,506.99L353.09,501.88L350,497.11L346.11,493.17L341.18,490.57L341.81,474.44L363.29,473.95L379.76,473.44L424.28,473.09L424.4,489.72L420.67,489.7L420.75,525.12L420.77,541.78L371.49,541.56L364.23,541.13L362.48,534.44L364.84,527.78z"/>
		<path id="C05027" title="Columbia" class="land" d="M259.46,672.18L246.41,672.09L246.01,672.07L244.7,672.06L241.58,672.09L241.51,672.1L233.08,672.08L226.23,672.06L223.32,671.97L219.67,672.05L208.59,672.02L208.55,672.01L203.46,671.98L197.6,672L183.29,671.93L179.71,671.96L179.55,671.96L180.94,626.24L187.26,626.54L188.75,623.1L188.19,620.65L190.26,618.37L189.36,615.64L197.68,593.45L199.44,591.23L222.42,592L222.46,589.22L239.13,589.63L238.71,603.42L261.09,603.99z"/>
		<path id="C05029" title="Conway" class="land" d="M274.21,259.92L277.78,259.79L280.18,259.36L280.76,259.51L281.46,203.13L340.6,204.61L340.31,220.13L340.24,221.02L340.25,221.52L339.8,238.56L335,243.17L336.64,246.42L332.26,249.49L334.27,250.92L332.73,256.24L337.31,259.21L336.37,266.01L333.88,270.77L330.42,268.59L328.59,271.05L318.37,277.88L314.25,278.2L317.36,274.99L317.58,271.85L313.53,272.72L309.36,277.8L302.84,279.1L251.21,278.09L253.49,275.88L251.18,271.89L260.69,270.32L261.04,267.51L264.68,265.82L269.72,260.37z"/>
		<path id="C05031" title="Craighead" class="land" d="M571,120.74L596.44,121.56L596.54,113.04L598.25,113.1L598.91,107.84L598.23,106.93L599.74,104.48L673.75,105.15L673.59,104.79L673.96,100.49L675.26,99.08L676.72,99.05L680.87,99.04L681.38,99.01L688.88,98.94L689.42,98.93L689.77,156.93L673.04,156.67L655.79,155.5L570.29,155.27z"/>
		<path id="C05033" title="Crawford" class="land" d="M29.64,215.83L26.79,196.55L24.62,179.81L24.5,178.91L24.44,178.59L24.31,177.59L23.14,168.91L20.76,151.81L20.66,151.21L19.91,145.36L78.52,147.07L78.62,144.29L104.32,145.01L112.61,145.25L115.57,145.31L115.5,148.12L112.56,148.05L112.5,150.91L104.12,150.65L104.01,156.25L101.16,156.13L100.92,164.57L86.67,164.25L86.27,181.21L94.74,181.46L94.67,184.87L92.71,185.78L91.85,189.82L93.78,194.46L90.6,197.16L91.92,199.4L90.07,201.27L94.11,203.55L86.48,206.54L84.61,207.11L75.72,205.6L73.17,207.53L73.12,209.98L75.67,212.42L76.89,215.52L76.26,218.37L71.75,219.63L68.19,217.71L65.78,223.12L62.71,224.38L57.07,224.39L52.88,223.29L51.28,224.99L47.26,223.65L46.38,220.94L43.64,219.06L43.33,211.82L37.05,206.43L34.15,205.65L31.15,210.79z"/>
		<path id="C05035" title="Crittenden" class="land" d="M723.5,218.46L722.09,221.45L721.44,222.52L721.03,222.98L720.55,223.06L720.02,223.7L719.46,224.79L718.35,226.43L718.11,226.54L717.87,226.5L718.9,228.52L718.43,230.03L718.06,233.85L716.77,234.16L716.03,233.94L715.74,233.94L714.35,234.72L713.22,235.04L711.58,234.18L711.01,234.31L710.13,234.69L709.76,235.02L709.35,235.57L709.13,236.14L708.54,238.31L708.56,238.88L708.91,239.75L710.14,242.08L711.22,243.36L713.08,244.08L714.4,243.91L715.75,243.56L716.89,243.4L717.9,243.47L718.7,243.69L719.59,244.26L719.84,244.53L720.96,246.04L721.69,247.3L722.23,248.05L722.9,248.83L723.19,249.49L723.51,250.26L723.63,250.92L723.61,252L723.57,252.05L723.2,252.52L722.51,252.65L722.04,252.21L721.33,251.83L720.58,253.59L720.08,255.23L719.92,255.24L718.07,254.4L716.93,254.52L716.72,256.06L716.74,256.58L717.25,257.78L717.75,258.37L718.05,258.41L718.23,259.16L718.63,259.92L719,260.44L719.55,261.12L720.06,261.8L720.64,262.53L721.05,262.71L724.38,263.22L724.77,263.57L724.85,263.72L725.15,265.75L725.02,266.31L724.83,266.64L724.1,267.5L722.15,269.42L721.63,269.79L721.01,270.08L719.42,270.39L718.02,269.96L713.3,267.03L712.7,266.82L712.39,266.84L710.59,267.61L709.95,268.03L709.11,268.73L707.79,270.12L707.27,271.28L706.55,275.29L704.36,281.02L704.13,282.12L704.04,283.17L704.09,284.53L704.21,285.75L703.57,286.63L702.09,287.85L701.3,287.99L701,287.94L699.64,287.19L698.71,286.92L694.59,286.31L693.65,285.94L693.49,285.73L693.43,285.32L693.19,285.19L688.94,284.9L688.36,285.23L688.09,285.65L687.55,287.41L686.56,289.46L686.09,291.1L686.02,292.16L686.18,293.82L686.96,295.9L687.27,296.46L688.23,297.56L688.76,297.91L689.69,298.3L690.49,299.24L691.13,299.74L694.08,301.15L694.99,301.7L695.61,302.43L695.97,303.06L696.24,303.76L696.5,305.06L696.46,308.26L696.17,309.59L695.89,310.45L695.61,310.91L690.95,314.25L687.35,316.18L686.07,317.14L685.51,317.8L686.96,319.95L687.07,320.12L687.26,320.74L687.24,321.15L687.03,321.89L686.48,322.73L685.86,323.11L684.6,322.99L683.99,322.69L682.52,321.5L681.23,319.99L679.98,321L679.35,321.37L674.95,322.78L671.47,324.83L670.46,325.28L670.38,311.53L670.48,292.5L671.33,292.51L671.67,264.28L655.33,265.05L655.46,258.35L654.78,258.36L655.42,207.26L655.79,207.25L689.75,207.87L713.11,208.28L708.52,211.13L708.27,211.81L708.25,213.42L706.89,218.26L707.04,218.86L707.98,219.72L708.96,220.29L712.36,220.31L713.86,219.92L712.59,217.79L712.21,216.33L712.16,215.48L712.33,214.65L712.59,214.08L712.88,213.71L713.48,213.14L713.92,212.85L714.66,212.7L716.82,213.1L717.52,213.4L717.83,213.71L718.43,214.73L718.74,215.09L720.05,216.3L720.53,216.67L721.46,217.16L722.71,218.24L723.02,218.39z"/>
		<path id="C05037" title="Cross" class="land" d="M655.33,265.05L655.08,265.21L633.91,264.52L633.94,264.88L569.38,264.28L569.84,224.27L569.93,206.68L570.39,207.02L587.13,207.24L604.24,206.48L621.39,206.47L621.39,205.71L638.17,205.89L638.15,207.27L655.42,207.26L654.78,258.36L655.46,258.35z"/>
		<path id="C05039" title="Dallas" class="land" d="M363.29,473.95L341.81,474.44L341.18,490.57L346.11,493.17L350,497.11L353.09,501.88L353.86,506.99L356.22,510.31L360.67,513.42L362.9,516.73L362.58,522.64L363.69,524.49L324.07,523.13L274.62,521.66L274.06,520.91L274.94,518L275.88,516.91L276.62,514.52L274.9,512.65L273.1,511.04L272.84,508.46L272.38,504.8L273.26,504.24L273.05,502.91L272.32,501.3L271.25,498.9L269.97,498.65L268.48,496.56L267.27,493.19L265.45,491.86L265.09,489.63L267.59,488.07L269.5,488.2L274.77,485.34L274.97,480.07L275.09,476.13L275.27,471.53L275.43,466.02L275.78,455.52L287.29,456.33L308.89,456.72L338.3,457.75L338.68,459.95L342.26,459.05L345.56,461.81L349.01,461.51L352.34,463.27L353.07,464.5L352.32,464.81L357.21,468.81L357.55,471.18z"/>
		<path id="C05041" title="Desha" class="land" d="M539.79,568.38L539.41,569.01L537.23,569L537.04,577.42L524.46,577.15L523.12,574.3L521.05,574.29L520.51,568.58L503.97,568.57L504.46,527.29L487.37,526.72L487.96,510.02L488.8,489.79L502.01,489.98L502.09,484.44L508.94,485.64L509.02,482.59L512.95,488L516.71,488.76L520.39,484.92L523.93,484.59L525.35,487.39L524.35,489.28L519.3,492.21L520.15,493.74L527.51,492.75L530.8,490.53L532.98,490.67L534.38,493.52L536.12,493.58L538.05,490.37L542.05,490.63L542.67,493.94L549.34,493.35L552.07,497.3L555.05,493.92L552.7,490.25L550.9,489.35L551.19,486.59L548.89,482.39L547.04,482.17L545.16,478.76L544.83,475.75L546.19,473.11L545.24,471.58L549.24,467.38L552.59,468.55L553.5,464.06L556.67,464.71L557.4,462.56L583.35,462.59L584.38,464.06L584.73,464.43L588.72,467.38L589.18,467.55L589.87,467.61L591.93,467.24L593.14,466.64L594,466.64L594.87,466.87L595.46,467.26L595.83,467.58L596.58,468.78L596.81,469.53L596.8,469.95L596.58,470.75L596.16,471.57L594.95,473.13L594.28,474.15L594.04,474.76L593.92,475.33L593.85,476.49L594.11,477.73L594.18,478.64L594.11,479.14L593.87,479.66L593.31,480.22L592.19,480.8L589.77,481.17L588.6,480.92L588.32,480.93L586.55,481.67L585.31,481.9L584.09,481.95L582.8,481.48L580.84,481.22L579.86,481.27L578.93,481.44L578.1,481.71L579.37,485.33L579.77,486.01L580.81,486.91L582.3,489.19L582.36,489.91L581.96,491.53L581.72,491.96L581.33,492.37L580.82,492.64L579.87,492.91L578.83,492.97L578.15,492.85L577,492.41L576.16,491.77L575.71,490.92L575.39,489.75L574.01,486.41L573.17,484.75L570.8,486.25L569.88,487.4L569.37,487.88L568.48,488.21L566.26,488.21L564.84,488.32L564.18,488.49L563.56,488.78L562.93,489.2L562.18,490.07L561.99,490.58L561.89,491.14L561.88,491.85L562.05,492.75L562.36,493.33L562.79,493.73L563.68,494.14L568.74,495.41L570.45,496.11L572.98,497.37L574.11,498.3L574.54,498.86L574.58,499.31L574.46,499.58L573.4,500.82L571.98,502.94L570.34,504.75L567.37,507.7L566.43,508.76L564.89,510.82L564.59,511.65L564.55,512.59L564.84,514.1L565.43,515.84L565.83,516.47L567.15,518.03L567.77,518.94L568.27,519.98L568.72,520.62L569.42,521.1L572.17,522.42L572.98,522.7L574.94,523.06L576.16,523.64L577.5,524.96L577.88,525.84L578.02,526.5L577.86,527.26L577.58,527.98L577.16,528.59L576.16,529.43L574.15,530.29L572.47,530.61L571.92,530.49L567.6,527.61L566.54,527.82L562.56,528.05L562.01,528.17L559.09,529.16L558.42,528.4L557.41,527.55L556.52,526.97L555.76,526.71L555.13,526.71L554.86,526.83L554.31,527.38L553.91,527.92L553.56,528.55L553.07,529.78L553.12,530.42L553.31,530.78L553.68,531.02L553.76,531.23L553.64,531.95L553.16,532.78L553.16,533.21L553.36,533.63L552.85,535.66L552.83,536.43L552.96,537.1L553.13,537.51L555.1,539.9L556.19,540.94L557.43,541.6L559.04,541.73L560.08,541.66L561.87,541.21L564.17,539.87L565.3,539.48L566.03,539.59L566.64,539.79L567.33,540.24L568.73,541.41L569.61,542.63L569.97,543.27L570.26,543.97L570.43,544.69L570.87,544.76L571.34,544.95L571.35,546.12L571.17,546.78L570.68,547.76L570.31,548.08L568.79,548.66L568.13,548.7L566.75,549.02L565.49,549.72L563.68,550.56L562.78,550.75L562.13,550.73L561.2,550.55L560.1,550.13L555.41,547.47L554.93,547.04L553.22,544.6L550.56,541.27L550.31,541.31L549.77,541.64L548.19,542.02L545.9,542.26L544.22,542.32L543.47,542.46L542.41,542.95L541.05,543.97L540.3,544.95L539.89,545.84L539.71,546.9L539.83,548.08L540.1,548.59L540.67,549.32L541.29,549.95L542.53,550.52L546.65,551.46L547.78,551.93L548.92,552.57L550.03,553.42L552.21,555.38L554.01,556.78L554.78,557.95L555.33,559.58L555.41,560.51L555.22,561.76L555.09,562.23L554.83,562.71L554.14,563.39L551.95,564.95L551.11,565.2L550.58,565.21L548.15,564.9L547.8,564.97L547.34,565.18L546.09,566.18L544.6,566.98L543.83,567.22L540.91,567.72L540.49,567.87z"/>
		<path id="C05043" title="Drew" class="land" d="M487.37,526.72L504.46,527.29L503.97,568.57L503.34,601.77L418.49,600.02L416.56,596.55L418.21,592.75L414.51,589.52L416.97,585.79L415.5,583.18L417.06,580.66L415.67,575.09L420.73,575.04L420.77,541.78L420.75,525.12L470.48,525.03z"/>
		<path id="C05045" title="Faulkner" class="land" d="M397.6,290.62L380.69,290.18L380.31,307L350.15,306.2L350.38,309.73L345.22,311.76L346.48,318.09L345.7,320.65L347.47,323.49L344.18,321.48L342.94,319.21L344.94,313.87L344.78,311.12L340.64,303L330.23,302.02L323.21,297.55L322.39,290.71L328.01,285.69L330.84,277.65L328.59,271.05L330.42,268.59L333.88,270.77L336.37,266.01L337.31,259.21L332.73,256.24L334.27,250.92L332.26,249.49L336.64,246.42L335,243.17L339.8,238.56L340.25,221.52L376.67,222.43L399.17,222.63L397.86,280.11z"/>
		<path id="C05047" title="Franklin" class="land" d="M144.58,220.19L138.41,222.28L136.99,219.83L131.13,214.82L129.17,209.54L128.65,232.27L111.61,231.12L111.12,248.52L93.9,248.19L93.86,251.55L88.08,254.26L88.18,251.39L85.22,251.34L86.48,206.54L94.11,203.55L90.07,201.27L91.92,199.4L90.6,197.16L93.78,194.46L91.85,189.82L92.71,185.78L94.67,184.87L94.74,181.46L86.27,181.21L86.67,164.25L100.92,164.57L101.16,156.13L104.01,156.25L104.12,150.65L112.5,150.91L112.56,148.05L115.5,148.12L115.57,145.31L112.61,145.25L112.65,142.41L146.83,143.51z"/>
		<path id="C05049" title="Fulton" class="land" d="M469.1,0.03L473.84,0.05L475.62,0.08L480.42,0.05L481.23,0.09L488.72,0.09L490.28,0.1L490.68,0.09L491.81,0.11L496.53,0.16L504.51,0.4L503.81,32.34L486.06,31.96L486.03,49.17L466.06,48.51L391.92,46.94L391.57,46.93L392.99,0.19L394.99,0.18L397.75,0.15L397.76,0.15L401.26,0.16L404.99,0.17L407.82,0.18L408.04,0.18L412.33,0.19L413.84,0.21L418.71,0.22L419.18,0.23L438.26,0.16L438.52,0.16L447.82,0.12L448.45,0.13L448.85,0.13L451.21,0.1L454.17,0.1L460.45,0.08L466.67,0.04L466.93,0.04z"/>
		<path id="C05051" title="Garland" class="land" d="M192.81,409.29L193.61,353.8L194.94,353.79L194.87,342.57L194.85,336.98L211.83,336.82L214.68,337.05L245.69,337.07L262.56,337L262.48,353.85L260.94,353.87L260.87,363.04L277.5,363.45L277.26,371.92L288.24,372.06L288.09,377.48L290.87,377.53L290.6,388.77L271.19,388.29L271.45,399.39L265.97,399.26L265.94,410.75z"/>
		<path id="C05053" title="Grant" class="land" d="M377.77,390.71L383.79,390.85L383.02,441.24L379.89,441.16L379.76,473.44L363.29,473.95L357.55,471.18L357.21,468.81L352.32,464.81L353.07,464.5L352.34,463.27L349.01,461.51L345.56,461.81L342.26,459.05L338.68,459.95L338.3,457.75L308.89,456.72L309.24,439.52L309.68,439.52L310.43,405.95L317.43,406.16L317.68,403.73L321.16,401.17L323.05,397.99L352.47,398.71L352.65,390.27z"/>
		<path id="C05055" title="Greene" class="land" d="M705.11,58.72L704.7,58.9L704.5,58.85L704.34,58.93L704.04,59.77L703.6,59.6L703.32,59.76L703.31,60.32L703.49,60.52L702.88,61.55L701.79,62.25L701.43,62.28L701.08,62.01L700.33,61.98L698.91,64.16L698.6,65.02L698.76,65.45L697.95,67.01L698.58,68.04L698.59,69.33L697.92,70.87L697.08,71.29L696.53,71.46L696.27,72.17L695.81,72.76L695.11,73.25L694.73,73.3L694.23,73.2L693.93,73.24L693.03,74.58L692.06,75.07L691.05,75.2L688.76,75.8L688.54,76.08L687.91,77.3L688,77.67L687.98,77.99L687.67,78.97L686.66,79.65L685.69,79.7L684.61,80.59L684.37,81.14L684.46,82.3L684.68,82.68L684.73,83.2L684.72,83.42L684.36,84.25L682.36,85L682.01,86.13L681.75,88.87L681.39,89L680.03,90.01L679.84,90.36L679.97,91.36L679.54,92.04L679.41,92.66L679.49,92.96L679.42,93.26L678.52,94.65L677.4,95.56L675.26,99.08L673.96,100.49L673.59,104.79L673.75,105.15L599.74,104.48L600.38,103.72L600.54,103.06L600.95,102.43L601.16,101.45L600.3,100.59L599.13,100.13L598.62,99.66L599.3,98.76L599.22,97.99L600.17,96.71L601.15,95.35L601.92,94L601.82,92.6L601.69,90.68L602.67,89.24L603.54,88.03L604.09,86.76L604.1,84.95L604.43,84.15L604.59,82.91L605.52,82.28L606.37,81.89L607.57,81.26L608.33,80.77L609.25,80.08L609.64,79.15L610.3,78.1L611.2,77.99L611.9,77.41L612.69,76.23L612.55,74.32L613.04,73.15L613.78,71.93L615.18,70.57L614.37,68.99L611.6,68.93L606.47,68.89L606.98,45.84L621.42,45.62L660.7,47.18L684.5,47.36L684.32,58.87z"/>
		<path id="C05057" title="Hempstead" class="land" d="M142.54,584.11L137.61,577.56L135.92,577.92L137.33,580.06L134.61,580.96L133.64,575.74L131.19,572.87L130.17,568.38L126.82,568.17L125.99,566.09L128.28,562.03L127.24,559L126.14,559.78L123.21,558.17L120.61,556.61L115.89,554.9L113.86,552.98L109.52,550.72L105.3,549.46L104.2,545.05L104.78,541.36L103.92,538.82L104.19,535L105.5,534.1L105.21,532.91L125.25,533.52L126.58,483.65L138.32,484.07L143.9,486.32L146.21,486.3L148.99,488.5L154.45,488.61L157.74,490.61L159.61,493.13L173.18,494.12L173.57,496.25L184.44,492.4L184.93,493.61L184.26,518.79L182.62,518.74L180.73,585.23z"/>
		<path id="C05059" title="Hot Spring" class="land" d="M290.6,388.77L299.35,388.83L299.25,394.48L307.79,394.63L307.65,405.86L310.43,405.95L309.68,439.52L309.24,439.52L308.89,456.72L287.29,456.33L275.78,455.52L253.61,454.73L251.59,455.68L250.8,450.85L253.54,446.6L251.53,442.96L252.18,440.11L244.23,440.24L243.33,438.3L225.91,437.85L226.09,432.24L200.84,431.67L201,420.46L192.67,420.3L192.81,409.29L265.94,410.75L265.97,399.26L271.45,399.39L271.19,388.29z"/>
		<path id="C05061" title="Howard" class="land" d="M59.59,448.5L59.57,433.75L57.62,433.78L57.85,417.24L108.7,418.27L108.46,434.96L110.46,434.99L110.22,449.65L126.96,450.17L126.58,483.65L125.25,533.52L105.21,532.91L104.97,532.9L103.31,529.7L104.03,524.27L102.95,522.29L95.4,513.95L95.24,509.7L89.98,507.04L87.25,499.31L87.74,493.91L89.2,492.22L87.25,483.72L84.47,478.8L85.16,473.57L86.68,473.02L83.21,470.33L85.43,465.9L83.52,463.81L85.61,461.3L81.94,459.15L83.97,455.47L82.88,451.48L84.06,449.53L81.67,448.74z"/>
		<path id="C05063" title="Independence" class="land" d="M440.9,124.2L456.21,109.42L463.02,109.64L467.36,109.97L502.41,110.61L502.18,119.29L519.29,119.65L544.56,119.77L544.03,120.37L542.57,122.7L541.56,126.15L539.46,129.71L537.7,134.85L534.49,138.64L530.66,141.99L526.05,145.9L523.98,150.63L521.53,153.58L519.89,158.1L521.41,162.88L522.15,165.06L523.76,167.28L521.6,169.12L517.37,176.82L517.37,183.71L513.77,190.79L507.13,190.66L491.11,190.3L483.51,189.98L449.74,189.27L450.4,154.62L442.85,155.95L443.03,147.37L438.41,143.08L437.47,135.31L440.87,128.33z"/>
		<path id="C05065" title="Izard" class="land" d="M385.8,72.18L382.65,72.05L382.86,63.88L391.46,64.12L391.92,46.94L466.06,48.51L465.94,57.18L468.82,57.3L468.71,65.9L467.89,65.92L467.64,93.75L466.11,94.49L467.52,98.13L463.21,98.05L463.02,109.64L456.21,109.42L440.9,124.2L438.23,121.3L433.43,121.18L427.01,115.41L424.41,111.62L421.94,109.94L419.85,110.04L416.14,114.03L412.55,113.33L412.15,110.14L409.37,109.31L406.44,111.78L402.11,112.7L399.62,111.68L399.32,108.01L403.31,104.9L403.45,101.3L401.04,96.31L403.72,93.71L406.8,93.45L407.81,91.46L405.03,87.82L398.92,85.57L394.77,76.22L392.39,75.6L388.82,78.2L386.79,77.58z"/>
		<path id="C05067" title="Jackson" class="land" d="M569.84,224.27L536.12,223.63L535.9,206.46L520.41,206.63L520.88,207.77L483.06,207.15L483.51,189.98L491.11,190.3L507.13,190.66L513.77,190.79L517.37,183.71L517.37,176.82L521.6,169.12L523.76,167.28L522.15,165.06L521.41,162.88L519.89,158.1L521.53,153.58L523.98,150.63L526.05,145.9L530.66,141.99L534.49,138.64L537.7,134.85L539.46,129.71L541.56,126.15L542.57,122.7L544.03,120.37L544.56,119.77L549.26,119.82L571,120.74L570.29,155.27L569.93,206.68z"/>
		<path id="C05069" title="Jefferson" class="land" d="M412.15,391.51L463.87,392.79L462.82,440.56L490.68,442.6L492.04,444.17L492.16,450.12L494.23,452.55L493.24,454.03L494.03,457.85L497.38,456.84L497.65,461L500.06,459.54L505.04,460.5L505.13,463.91L507.46,468.6L505.21,470.02L501.38,469.15L495.49,471.12L491.52,466.63L488.28,465.08L485.41,465.95L483.32,468.27L480.25,468.51L479.07,465.62L480.21,462.8L483.44,461.42L482.32,459.82L478.37,460.84L473.85,458.94L465.44,452.54L460.36,452.03L460.46,472.9L457.56,472.92L457.54,467.37L424.31,467.49L424.28,473.09L379.76,473.44L379.89,441.16L383.02,441.24L383.79,390.85z"/>
		<path id="C05071" title="Johnson" class="land" d="M210.05,229.49L204.65,226.77L199.76,228.85L190.69,229.36L190.43,227.55L194.68,225.37L191.67,222.13L190.04,217.48L190.03,214.03L188.31,209.96L183.93,210.67L178.89,215.97L173.73,213.74L168.22,215.45L162.97,218.55L155.64,218.06L150.98,214.3L148.63,219.06L144.58,220.19L146.83,143.51L174.98,144.51L174.92,150.19L225.81,151.06L231.48,151.29L230.94,176.88L222.44,176.63L222.05,202.03L210.54,201.77z"/>
		<path id="C05073" title="Lafayette" class="land" d="M179.55,671.96L179.49,671.96L174.7,671.93L174.69,671.93L174.07,671.93L173.02,671.93L142.48,671.77L129.48,671.79L124.05,661.42L121.63,653.57L124.17,647.33L127.86,645.34L133.97,646.54L138.19,645.42L139.64,643.87L138.53,640.98L139.47,636.57L143.01,634.16L144.4,629.71L143.22,625.37L143.67,620.87L148.29,618.49L150.1,614.9L148.48,610.87L145.59,607.81L145.78,605.65L146.79,604.77L146.76,602.03L144.03,599.52L142.14,597.27L143.84,594.65L142.86,592.34L142.18,593.26L140.61,590.11L141.2,586.99L142.54,584.11L180.73,585.23L180.59,590.71L199.44,591.23L197.68,593.45L189.36,615.64L190.26,618.37L188.19,620.65L188.75,623.1L187.26,626.54L180.94,626.24z"/>
		<path id="C05075" title="Lawrence" class="land" d="M606.47,68.89L611.6,68.93L614.37,68.99L615.18,70.57L613.78,71.93L613.04,73.15L612.55,74.32L612.69,76.23L611.9,77.41L611.2,77.99L610.3,78.1L609.64,79.15L609.25,80.08L608.33,80.77L607.57,81.26L606.37,81.89L605.52,82.28L604.59,82.91L604.43,84.15L604.1,84.95L604.09,86.76L603.54,88.03L602.67,89.24L601.69,90.68L601.82,92.6L601.92,94L601.15,95.35L600.17,96.71L599.22,97.99L599.3,98.76L598.62,99.66L599.13,100.13L600.3,100.59L601.16,101.45L600.95,102.43L600.54,103.06L600.38,103.72L599.74,104.48L598.23,106.93L598.91,107.84L598.25,113.1L596.54,113.04L596.44,121.56L571,120.74L549.26,119.82L544.56,119.77L519.29,119.65L520.64,67.28L520.13,67.24L520.47,52.9L523.27,52.94L523.38,50.16L534.88,50.44L534.95,47.61L537.84,47.65L537.66,53.93L539.14,50.96L539.98,54.05L543.68,55.33L546.97,57.8L550.21,57.82L553.26,62.9L553.63,65.58L557.13,68.08L563.01,68.63L562.45,72.21L564.68,73.64L564.48,75.7L566.05,74.89L565.87,70.09L567.9,68.24L568.98,68.54z"/>
		<path id="C05077" title="Lee" class="land" d="M670.46,325.28L670.04,325.46L669.37,325.5L668.17,325.14L667.93,324.96L667.16,323.65L666.83,322.19L666.68,321.02L666.68,320.27L667.1,319.08L667.12,318.67L666.94,317.89L665.91,315.67L665.63,315.31L665.17,314.97L664.6,314.65L663.15,314.04L662.21,313.89L661.2,314.07L659.68,314.98L659.01,315.56L658.36,316.74L658.27,317.14L658.19,318.27L658.38,319.8L658.68,320.48L659.89,322.09L661.58,324.9L662.67,327.13L662.7,327.71L662.33,328.86L661.32,329.6L660.5,330.68L660.22,331.17L659.97,331.96L659.86,332.96L660.03,333.8L660.52,335.34L662.36,338.54L663.29,340.65L663.59,341.72L663.57,342.36L663.38,343.25L662.98,344.08L662.51,344.59L660.6,345.73L659.04,346.16L657.58,346.37L655.54,346.27L653.46,345.22L652.89,344.62L652.46,343.5L652.32,342.54L652.32,341.59L652.54,340.64L653.18,339.69L654.93,338.49L655.6,337.45L655.65,337.21L655.57,336.51L655.22,335.48L653.78,332.33L653.47,331.31L652.16,331.21L650.82,331.53L649.99,331.92L649.4,332.46L648.79,333.35L648.23,334.62L648.14,335.14L648.19,335.66L648.45,336.77L649.02,338.52L649.01,340.79L648.83,341.44L648.51,342.08L648.23,342.38L647.8,342.69L647.34,342.86L646.84,342.93L646.27,343.08L645.69,343.48L645.39,343.9L645.1,344.49L644.95,345.66L644.97,346.16L645.06,346.45L645.35,346.88L648.47,350.54L649.6,351.18L651.16,351.56L652.29,351.6L654.24,351.33L656.36,350.83L657.88,350.66L658.99,350.65L659.76,350.78L660.4,351.12L661.05,351.78L661.58,352.66L661.77,353.34L661.73,354.01L661.22,355.9L660.62,356.83L659.04,358.67L657.74,359.64L656.34,360.94L655.32,362.36L654.52,363.15L653.08,364.26L651.91,364.72L650.68,364.92L649.89,364.87L648.85,364.52L648.23,364.12L647.57,363.19L647.19,362.34L647.03,361.31L647.21,359.61L647.43,358.71L647.82,357.99L649.53,356.55L649.75,356.1L649.62,354.32L649.43,353.84L649,353.11L648.15,352.26L647.87,351.81L647.48,351.5L646.95,351.34L645.71,351.74L645.09,352.22L644.17,353.56L643.27,354.06L642.75,354.75L641.73,356.54L641.71,356.99L641.9,357.61L642.06,360.26L642.27,361.15L642.58,361.81L642.59,361.99L642.52,362.24L589.54,361.74L589.26,361.78L567.91,361.41L568.3,344.35L559.85,344.22L560.26,318.68L560.38,310.05L568.78,310.02L583.85,310.97L670.38,311.53z"/>
		<path id="C05079" title="Lincoln" class="land" d="M509.02,482.59L508.94,485.64L502.09,484.44L502.01,489.98L488.8,489.79L487.96,510.02L487.37,526.72L470.48,525.03L420.75,525.12L420.67,489.7L424.4,489.72L424.28,473.09L424.31,467.49L457.54,467.37L457.56,472.92L460.46,472.9L460.36,452.03L465.44,452.54L473.85,458.94L478.37,460.84L482.32,459.82L483.44,461.42L480.21,462.8L479.07,465.62L480.25,468.51L483.32,468.27L485.41,465.95L488.28,465.08L491.52,466.63L495.49,471.12L501.38,469.15L505.21,470.02L506.76,472.26L506.56,478.73z"/>
		<path id="C05081" title="Little River" class="land" d="M21.03,554.45L21.08,551.51L21.08,549.59L21.24,544.92L21.23,544.22L21.35,540.46L21.35,539.43L21.51,532.98L21.51,532.94L21.52,532.39L21.54,531.89L21.67,525.65L21.72,524.37L21.75,523.05L21.75,523L21.87,517.8L21.97,513.76L22.13,508.06L22.15,508L22.38,497.25L22.39,496.65L23.35,496.72L26.43,498.41L30.14,498.59L32.57,498.2L32.36,497.44L34.8,496.72L35.87,499.67L36.73,503.01L39.81,508.08L41.1,508.69L44.39,510.45L47.24,512.38L48.28,513.08L49.92,515L49.81,516.33L50.27,518.62L51.96,518.85L55.13,519.34L58.47,520.67L61.9,522.25L65.15,522.02L68.67,522.83L68.94,524.21L70.45,525.44L73.98,525.82L77.85,526.2L82.39,525.8L89.85,526.91L91.81,530.26L97.92,532.62L104.97,532.9L105.21,532.91L105.5,534.1L104.19,535L103.92,538.82L104.78,541.36L104.2,545.05L105.3,549.46L109.52,550.72L113.86,552.98L115.89,554.9L120.61,556.61L123.21,558.17L126.14,559.78L125.65,561.06L121.16,559.52L118.17,563.36L116.01,563.04L114.72,567.02L109.55,564.93L107.82,566.99L108.79,570.05L106.86,571.64L102.39,565.44L102.97,570.32L100.6,574.28L98.58,573.02L98.62,568.44L91.49,570.74L91.08,570.92L90.41,570.97L90.15,570.68L89.47,571.03L88.55,571.22L87.98,571L87.4,570.52L86.92,570.44L86.65,570.06L86.66,569.6L86.99,569.33L87.58,569.09L87.79,569.09L88.67,569.43L88.88,569.41L89.42,569.08L89.54,568.91L89.47,567.89L89.39,567.78L88.65,567.6L87.76,567.58L87.61,567.34L87.53,566.99L87.49,566.69L87.34,566.58L87.2,566.5L87.04,566.45L86.99,566.49L86.94,566.58L86.94,566.7L86.9,566.87L86.83,566.94L85.25,566.32L84.24,566.36L82.89,566.66L82.47,566.88L81.98,567.3L80.44,567.94L79.31,567.94L79.24,568.22L79.18,569.17L78.84,570.58L78.68,570.77L78.2,571.05L77.92,570.99L77.48,570.61L77.22,569.66L77.02,567.52L76.89,567.17L76.74,567.1L76.61,567.18L75.57,568.22L75.28,568.32L74.76,568.19L74.29,567.67L74.24,567.47L74.32,567.03L74.6,566.68L75.21,566.3L75.63,565.9L75.82,565.54L75.77,565.2L75.41,565.07L75.15,565.09L74.72,565.43L74.1,566.24L73.44,566.27L72.72,565.6L72.61,565.3L72.75,563.95L72.57,563.77L70.33,563.36L69.6,563.07L69.12,562.67L68.01,564.04L67.44,564.92L67.11,565.14L66.6,565.26L65.99,565.31L65.63,565.2L64.81,564.87L64.49,564.8L64.26,564.86L63.82,565.33L63.78,565.61L63.99,566.15L64.75,566.65L65.02,566.7L65.38,566.54L65.88,566.42L66.38,566.25L67.14,566.46L67.45,566.67L67.75,567.29L68.17,568.8L67.94,569.71L67.63,570L67.13,570.2L66.9,570.18L66.64,570.02L66.36,569.68L65.98,568.03L65.66,567.9L65.27,567.96L64.39,568.67L63.5,570.01L62.91,570.4L62.35,570.62L61.49,570.78L60.52,570.66L58.56,569.89L58.34,569.62L58.23,569.19L58.22,568.92L58.42,568.27L59.49,566.69L60.37,566.09L60.51,565.89L60.69,565.29L60.77,564.33L60.67,564.06L60.16,563.65L59.74,563.62L59.24,563.73L58.17,564.3L57.35,564.99L56.56,565.97L56.1,566.69L55.27,568.36L55.25,568.66L55.09,568.98L54.7,569.53L54.52,569.66L53.96,569.84L52.61,569.81L52.31,569.72L52.08,569.48L51.96,568.61L52.16,567.77L53.47,566.8L53.72,566.43L53.68,566L53.39,565.28L53.25,565.11L52.7,565.01L52.36,565.06L51.7,565.39L50.89,566.19L50.47,566.79L50.06,567.7L49.49,569.31L49.64,569.71L49.61,570.1L49.1,570.85L47.53,571.39L46.86,571.2L45.76,570.66L45.56,570.54L45.34,570.15L45.23,569.75L45.16,568.79L45.07,568.59L44.51,567.92L44.17,567.77L43.62,567.78L43.38,567.88L42.28,568.86L42.25,569.15L43.1,570.75L43.08,570.97L42.84,571.48L41.72,572.47L41.24,572.46L40.86,572.2L40.55,572.13L39.23,572.12L38.94,572.22L37.63,572.31L36.92,572.14L36.38,571.79L35.89,570.96L35.03,570.34L34.84,570.13L34.8,569.83L34.83,569.29L35.12,568.83L35.56,568.5L35.92,568.26L36.61,568.22L37.49,567.93L37.88,567.57L38.12,567.12L38.25,566.49L38.2,566.03L37.95,565.35L37.43,564.84L36.95,565.11L35.13,567.06L34.17,567.67L33.29,567.71L32.77,567.62L32.61,567.49L30.57,564.24L30.31,563.69L29.92,563.35L28.41,562.77L28.09,563.28L27.96,563.33L26.88,563.39L26.48,563.3L26.11,563.14L25.43,561.99L23.86,561.77L23.37,561.36L23.24,561.15L23.21,560.86L23.64,560.27L24.78,559.65L25.98,558.77L26.27,558.43L26.37,558.08L26.31,557.35L25.91,557.3L25.1,557.01L24.97,556.82L24.71,555.78L25.34,555.48L26.99,555.09L27.14,554.76L27.24,554.01L26.96,553.52L25.97,553.11L25.28,553.07L24.92,553.36L24.48,554.49L24.18,554.76L22.54,554.25L21.76,554.27z"/>
		<path id="C05083" title="Logan" class="land" d="M145.41,289.17L86.57,287.84L86.66,282.53L75.83,282.21L76.02,273.68L76.22,265.22L93.43,265.7L93.86,251.55L93.9,248.19L111.12,248.52L111.61,231.12L128.65,232.27L129.17,209.54L131.13,214.82L136.99,219.83L138.41,222.28L144.58,220.19L148.63,219.06L150.98,214.3L155.64,218.06L162.97,218.55L168.22,215.45L173.73,213.74L178.89,215.97L183.93,210.67L188.31,209.96L190.03,214.03L190.04,217.48L191.67,222.13L194.68,225.37L190.43,227.55L190.69,229.36L199.76,228.85L204.65,226.77L210.05,229.49L210.81,229.9L212.63,231.27L213.35,231.44L213.08,251.79L207.41,251.83L184.88,251.17L180.61,253.88L180.59,258.02L176.26,259.23L176.22,262.04L173.38,261.99L173.29,264.81L152.08,264.27L152.04,267.06L145.12,266.85L144.74,283.93z"/>
		<path id="C05085" title="Lonoke" class="land" d="M463.87,392.79L412.15,391.51L412.22,366.09L398.88,365.79L401.19,358.84L400.88,357L402.05,348.87L404.47,344.73L405.65,290.7L397.6,290.62L397.86,280.11L402.76,280.45L405.04,278.45L408.95,280L414.89,278.22L416.68,280.93L424.08,284.09L428.84,284.11L436.84,288.42L448.38,287.1L448.23,308.17L465.7,308.54L464.58,356.32L465.8,356.54L473.79,363.15L474.49,365.19L470.27,374.09L471.62,376.12L474.8,376.66L475.4,379.32L475.11,380.55L469.49,385.83L467.72,389.64L468.2,392.94z"/>
		<path id="C05087" title="Madison" class="land" d="M116.28,52.1L119.17,52.14L119.26,37.86L127.77,38.03L152.92,38.71L151.97,43.84L156.99,43.46L155.48,45.57L159.22,47.41L158.93,58.75L160.25,61.62L164.52,61.78L164.42,67.69L169.96,67.82L169.89,73.46L181.3,73.7L181.19,82.26L186.7,82.4L186.29,87.74L185.89,104.6L183.13,104.59L183.07,107.42L180.24,107.38L180.13,113.07L177.25,112.89L177.08,121.52L174.27,121.42L174.98,144.51L146.83,143.51L112.65,142.41L112.61,145.25L104.32,145.01L104.68,130.87L106.08,130.88L107.3,80.37z"/>
		<path id="C05089" title="Marion" class="land" d="M327.06,0.27L332.66,0.2L332.01,22.28L328.92,23.69L322.17,28.56L324.86,31.02L332.42,29.54L331.87,33.52L327.35,32.68L325.33,37.48L329.08,36.67L333.57,39.61L332.81,42.81L330.44,45.35L334.02,45.45L337.46,47.54L342.19,48.98L341.04,53.5L343.76,56.04L340.43,59.11L342.05,62.4L346.56,66.01L352.04,67.39L349.02,68.92L348.95,71.78L351.76,71.81L351.39,85.93L283.5,84.48L283.65,75.92L275.07,75.85L275.99,1.72L277.79,4.72L280.81,6.9L280.91,0.32L283.33,0.31L283.37,0.3L293.92,0.36L293.92,0.36z"/>
		<path id="C05091" title="Miller" class="land" d="M91.55,660.42L91.58,657.92L91.56,650.13L91.55,649.32L91.53,648.31L91.6,645.13L91.58,637.65L91.58,637.1L91.58,634.72L91.6,629.68L91.56,628.11L91.55,626.07L91.56,624.11L91.56,624.11L91.55,612.87L91.55,609.67L91.55,608.77L91.54,607.51L91.58,605.15L91.55,603.91L91.58,595.84L91.56,593.79L91.56,592.87L91.53,586.32L91.52,582.38L91.56,582L91.5,572.63L91.49,570.9L91.49,570.74L98.62,568.44L98.58,573.02L100.6,574.28L102.97,570.32L102.39,565.44L106.86,571.64L108.79,570.05L107.82,566.99L109.55,564.93L114.72,567.02L116.01,563.04L118.17,563.36L121.16,559.52L125.65,561.06L126.14,559.78L127.24,559L128.28,562.03L125.99,566.09L126.82,568.17L130.17,568.38L131.19,572.87L133.64,575.74L134.61,580.96L137.33,580.06L135.92,577.92L137.61,577.56L142.54,584.11L141.2,586.99L140.61,590.11L142.18,593.26L142.86,592.34L143.84,594.65L142.14,597.27L144.03,599.52L146.76,602.03L146.79,604.77L145.78,605.65L145.59,607.81L148.48,610.87L150.1,614.9L148.29,618.49L143.67,620.87L143.22,625.37L144.4,629.71L143.01,634.16L139.47,636.57L138.53,640.98L139.64,643.87L138.19,645.42L133.97,646.54L127.86,645.34L124.17,647.33L121.63,653.57L124.05,661.42L129.48,671.79L127.94,671.79L94.51,671.82L93.95,671.83L92.7,671.83L91.81,671.82L91.57,671.82z"/>
		<path id="C05093" title="Mississippi" class="land" d="M749.9,188.48L749.96,188.51L750.47,188.75L750.66,188.96L750.75,189.26L750.14,191.45L749.93,191.91L749.46,192.52L748.91,192.97L748.29,193.21L747.67,193.1L746.01,192.3L744.19,192.14L743.72,192L743.2,191.66L742.39,190.93L742.17,190.62L742.17,190.05L742.48,189.44L742.5,189.19L742.33,188.25L742.05,187.79L739.21,185.42L737.13,184.22L736.56,184.07L735.6,184L734.12,184.21L733.64,184.4L732.68,185.01L731.63,184.94L730.88,185.15L730.19,185.5L729.45,186.11L729.11,186.56L728.75,188.62L728.31,189.75L728.08,190.15L727.62,191.58L727.43,192.94L727.71,195.07L728.14,196.59L728.51,197.41L729.87,199.67L732.19,201.71L732.41,202.18L732.44,202.77L731.92,204.21L731.58,204.82L731.2,206.08L731.15,206.65L731.2,207.58L731.08,208.01L730.77,208.52L730.46,209.23L730.41,210L728.98,210.92L728.65,211.25L728.4,211.64L728.22,212.38L728.02,212.86L726.42,214.64L728.25,215.9L728.82,216.04L728.29,216.75L726.77,217.39L726.75,217.4L724.4,213.76L725.56,212.42L724.2,210.85L723.64,208.77L723.64,207.67L724.08,205.58L724.73,203.52L724.75,202.76L724.64,202.49L723.95,201.61L722.68,200.42L721.9,200.04L719.72,200.08L719.23,200.42L718.28,200.41L717.22,201.28L716.58,201.99L716.23,202.58L715.83,203.73L714.82,207.22L713.11,208.28L689.75,207.87L689.77,156.93L689.42,98.93L689.44,98.93L710.15,98.75L715.16,98.69L715.32,98.7L718.9,98.6L739.81,98.43L740.96,98.46L741.64,98.4L741.83,98.42L741.91,98.42L741.91,98.42L751.17,98.36L751.92,98.34L755.25,98.32L755.33,98.31L755.41,98.31L756.3,98.3L772.03,98.13L772.07,98.13L777.22,98.12L777.23,98.13L777.94,98.11L778.24,98.84L778.69,99.49L780.16,100.98L780.22,101.17L780.04,103.2L780.08,103.93L780.22,104.45L780.9,105.47L781.59,106.1L783.24,107.23L785.3,108.48L786.94,109.88L787.81,110.81L790.2,112.76L790.81,113.62L791.12,114.33L791.7,116.25L792,116.97L791.61,118.81L791.07,119.6L790.31,120.38L789.94,120.61L788.68,121.09L788.06,121.09L786.88,120.61L786.11,119.78L785.1,118.42L780.84,116.59L776.65,116.5L774.25,118.2L772.75,119.52L772.27,120.43L771.79,121.79L771.61,122.47L771.5,123.36L771.54,124.19L771.67,124.65L772.16,125.34L772.97,125.98L775.34,127.02L778.51,128.06L781.74,129.77L782.52,130.39L782.76,130.7L782.99,131.32L783.05,131.86L782.94,132.64L782.6,133.41L782.25,133.81L780.04,135.12L779.48,135.54L777.79,136.17L776.36,136.24L774,135.34L772.79,135.19L772.79,135.52L770.19,136.39L767.88,138.79L767.4,139.63L767.76,140.77L767.73,141.27L767.41,142.18L765.81,144.34L765.24,144.97L764.99,145.21L763.91,145.84L763.32,146.03L762.05,146.19L759.91,146.03L758.1,147.14L757.12,147.62L755.69,148.85L754.99,148.84L753.99,148.13L753.25,147.14L750.48,145.38L749.77,145.31L749.27,145.72L748.9,146.19L743.36,149.4L742.77,149.85L742.4,150.4L742.02,151.51L741.99,152.26L742.3,154.64L742.35,157.8L742.48,158.75L742.88,159.57L743.38,160.34L744.56,161.77L745.41,163.61L746.42,164.71L747.74,165.64L748.91,166.13L750.38,166.45L751.54,166.5L752.88,166.2L753.44,165.96L753.76,165.68L754.09,165.22L754.78,163.78L755,163.53L755.81,163.07L756.97,162.7L757.53,162.76L757.9,162.96L758.77,164.13L759.14,165.22L759.19,166.63L759.04,167.79L758.71,168.96L758.27,169.71L757.12,170.42L755.1,171.23L752.26,173.4L751.84,173.53L751.4,173.49L750.4,173.28L749.66,173.01L749.42,173.1L748.24,174.04L746.19,174.89L744.13,176.11L743.22,176.92L742.74,177.55L742.33,178.28L742.14,178.91L742.14,179.25L742.33,180.05L742.73,181.1L743.89,183.53L744.24,184.17L744.77,184.9L746.73,185.87L747.52,186.06L748.59,186.11L749.11,186.23L749.65,186.66L749.78,187.34L749.63,187.91L749.65,188.37z"/>
		<path id="C05095" title="Monroe" class="land" d="M552.32,292.51L551.9,310.04L557.61,310.05L557.42,318.67L560.26,318.68L559.85,344.22L568.3,344.35L567.91,361.41L567.46,395.06L576.11,395.35L575.75,420.91L567.22,420.86L566.51,420.81L563.95,418.98L560.42,417.93L557.61,414.53L555.54,411.45L552.21,408.19L550.87,405.34L549.75,401.97L546.84,399.61L543.48,399.97L541.68,398.43L542.03,397.07L542.04,394.14L541.12,392.49L538.47,392.36L536.08,389.82L534.54,385L529.04,381.57L529.35,379.5L524.58,377.5L520.2,377.35L516.01,377.25L516.13,371.59L510.47,371.41L510.54,368.53L504.87,368.44L505,357.2L516.5,357.5L517.16,326.96L516.8,323.46L518.5,323.34L518.12,318.74L520.28,317.22L516.43,312.92L517.5,312.28L517.48,309.87L529.23,309.92L529.5,295.87L538.25,295.91L538.36,292.16z"/>
		<path id="C05097" title="Montgomery" class="land" d="M109.48,357.57L117.81,357.64L119.08,348.49L127.55,348.76L127.54,347.38L133.19,347.39L133.21,344.62L138.91,344.79L138.98,341.98L144.55,342.21L194.87,342.57L194.94,353.79L193.61,353.8L192.81,409.29L192.67,420.3L181.44,420.05L125.24,418.76L108.7,418.27z"/>
		<path id="C05099" title="Nevada" class="land" d="M199.44,591.23L180.59,590.71L180.73,585.23L182.62,518.74L184.26,518.79L184.93,493.61L194.01,494.69L198.2,493.56L199.42,495.26L201.05,496.44L203.36,498.3L203.59,499.96L204.73,501.23L206.09,501.46L207.98,503.58L210.17,506.27L209.09,509.5L210.85,513.91L213.77,516.06L214.87,516.39L216.33,517.59L219.49,518.34L220.72,518.14L222.04,518.13L223.59,519.08L225.17,519.73L227,520.54L228.03,521.87L229.56,522.93L231.71,522.19L233.45,521.55L235.86,521.56L238.29,525.6L241.06,527.94L239.13,589.63L222.46,589.22L222.42,592z"/>
		<path id="C05101" title="Newton" class="land" d="M231.48,151.29L225.81,151.06L174.92,150.19L174.98,144.51L174.27,121.42L177.08,121.52L177.25,112.89L180.13,113.07L180.24,107.38L183.07,107.42L183.13,104.59L185.89,104.6L186.29,87.74L186.7,82.4L181.19,82.26L181.3,73.7L209.88,74.45L235.32,75.18L243.93,74.74L246.54,75.29L265.91,75.57L266.48,75.65L266.34,84.13L267.46,84.17L266.17,134.83L265.69,134.83L265.42,152.1z"/>
		<path id="C05103" title="Ouachita" class="land" d="M241.06,527.94L241.93,527.91L244.01,527.96L244.75,526.88L246,526.13L247.75,526.52L248.96,527.71L250.79,528.22L252.39,528.79L253.66,528.5L255.76,528.2L258.06,527.76L258.98,527.09L260.44,526.54L261.27,525.91L262.67,525.38L264.77,524.39L266.34,523.52L267.24,522.97L267.55,521.3L268.34,520.44L269.3,520.09L270.59,520.1L271.71,520.6L272.84,521.43L273.78,521.84L274.62,521.66L324.07,523.13L323.75,535.66L321.48,540.49L315.77,543.94L313.74,549.52L305.72,551.93L301.68,551.79L299.76,557.04L303.26,560.57L303.85,563.37L302.66,570.71L301.15,568.56L297.49,572.38L293.67,570.8L293.22,573.52L296.04,574.79L293.75,578.77L296.62,580.53L295.01,582.13L297.02,583.68L299.67,581.65L302.84,584.18L301.52,588.25L305.01,589.51L304.63,593.75L312.89,593.23L312.61,595.32L315.56,596.8L314.8,600.39L318.2,597.94L323.67,600.06L324.67,604.89L326.54,603.8L326.6,605.9L322.27,604.67L319.2,607.31L314.08,605.68L311.78,608.1L308.13,606.06L302.99,605.18L301.53,602.8L295.85,602.03L293.12,604.44L290.45,604.91L261.09,603.99L238.71,603.42L239.13,589.63z"/>
		<path id="C05105" title="Perry" class="land" d="M330.23,302.02L330.19,305.32L313.76,304.75L313.42,310.39L296.9,310.15L296.61,321.27L299.11,321.32L298.98,326.22L296.41,323.42L292.6,324L289.13,322.02L286.69,322.46L284.79,320.96L266.45,320.31L245.9,320.43L245.69,337.07L214.68,337.05L211.83,336.82L211.75,319.87L208.95,319.85L208.98,317.05L211.77,317.1L211.77,314.51L214.56,314.42L214.59,311.57L217.46,311.6L217.5,308.79L220.23,308.83L220.21,306.03L223.03,306.01L223.05,303.06L225.72,303.13L225.8,300.29L228.72,300.34L228.76,297.56L232.16,297.63L232.14,294.81L235.01,294.87L235.08,292.08L237.9,292.16L237.95,289.37L240.79,289.53L240.85,286.43L243.76,286.4L243.76,283.63L246.59,283.68L246.63,280.86L249.47,280.91L251.21,278.09L302.84,279.1L309.36,277.8L313.53,272.72L317.58,271.85L317.36,274.99L314.25,278.2L318.37,277.88L328.59,271.05L330.84,277.65L328.01,285.69L322.39,290.71L323.21,297.55z"/>
		<path id="C05107" title="Phillips" class="land" d="M644.76,384.68L643.31,386.33L642.9,387L642.51,388.68L642.03,389.44L641.64,391.17L641.49,392.39L641.74,395.12L642.2,396.91L642.48,397.38L643.56,398.24L644.03,398.72L645.09,400.93L645.33,402.08L645.22,403.01L644.92,403.92L644.48,404.78L643.81,405.77L642.96,406.66L637.66,410.47L636.94,410.84L634.85,411.15L634.32,411.31L633.29,411.79L630.56,413.35L631.07,414.09L629.25,417.17L629.24,418.56L630.26,421.02L630.75,422.65L630.73,423.62L630.11,424.93L628.84,425.39L627.45,425.39L626.19,424.86L625.55,424.32L625.05,423.56L624.96,422.19L625.3,420.48L626.88,417.73L627.06,415.88L626.84,415.22L626.63,414.68L625.47,414.72L623.93,415.25L622.03,415.64L619.99,415.67L619.32,415.56L617.33,414.98L615.98,414.85L615.01,414.98L614.07,415.46L613.48,415.96L613.28,416.32L613.06,417.62L613.17,418.89L613.27,419.2L613.58,419.67L616.16,421.93L616.84,423.11L617.16,424L617.49,425.3L617.45,426.63L617.1,427.46L615.57,429.95L615.16,430.41L613.58,431.63L612.45,431.74L608.42,431.26L607.57,431.25L605.99,431.83L604.7,432.14L604.13,432.45L603.53,432.94L603.16,433.41L602.87,434.13L602.14,437.46L601.67,440.14L601.64,441.3L601.74,442.04L601.66,442.64L601.32,443.83L600.89,444.96L600.42,445.81L599.63,445.26L599,444.84L597.35,444.74L595.43,444.1L592.97,442.39L592.38,441.84L592.09,441.39L591.42,439.21L591.16,438.72L590.98,438.54L590.13,438.26L588.42,438.15L587.49,438.53L586.77,439.36L586.31,440.03L586.19,440.53L586.22,441.88L586.5,443.42L586.9,444.23L589.55,447.66L590.23,448.24L593.4,449.99L594.04,450.52L594.86,450.06L595.69,449.82L596.27,450.28L596.94,450.33L597.75,450.16L598.62,449.69L599.18,449.58L600.53,449.74L601.95,450.17L603.51,449.98L605.39,450.32L606.06,450.75L606.44,451.2L606.65,451.69L606.89,453.3L606.79,454.45L606.3,455.52L605.5,456.67L604.43,457.79L603.94,458.18L603.21,458.6L602.28,458.97L600.52,459.16L599.52,459.04L597.75,458.46L597.22,458.15L595.79,457.01L594.8,456.36L593,454.55L591.54,453.9L590.51,453.68L586.04,456.89L583.46,458.85L582.66,460.41L582.79,461.42L583.19,462.37L583.35,462.59L557.4,462.56L563.66,457.85L561.77,455.67L562.84,454.85L561.16,451.5L562.58,446.64L564.96,446.8L566.53,443.85L565.77,439.67L563.56,437.51L566.21,436.53L564.5,434.46L564.54,428.69L566.64,430.31L565.87,425.89L567.22,420.86L575.75,420.91L576.11,395.35L567.46,395.06L567.91,361.41L589.26,361.78L589.54,361.74L642.52,362.24L641.75,365.09L641.92,367.18L642.8,369.4L643.9,371.13L644.64,372.63L645.48,373.56L646.63,374.66L647.97,376.36L648.5,377.29L649.29,379.68L649.32,380.21L649.23,380.74L648.86,381.69L648.53,382.2L647.01,383.5z"/>
		<path id="C05109" title="Pike" class="land" d="M126.58,483.65L126.96,450.17L110.22,449.65L110.46,434.99L108.46,434.96L108.7,418.27L125.24,418.76L181.44,420.05L181.16,436.84L177.8,436.76L177.69,444.36L179.41,445.32L186.01,446.09L184.35,448.92L186.22,450.81L185.09,455.05L186.98,457.23L184.44,457.96L186.82,463.48L188.38,471.85L188.52,475.84L191.29,477.96L193.16,484.25L197.3,487.97L198.2,493.56L194.01,494.69L184.93,493.61L184.44,492.4L173.57,496.25L173.18,494.12L159.61,493.13L157.74,490.61L154.45,488.61L148.99,488.5L146.21,486.3L143.9,486.32L138.32,484.07z"/>
		<path id="C05111" title="Poinsett" class="land" d="M655.42,207.26L638.15,207.27L638.17,205.89L621.39,205.71L621.39,206.47L604.24,206.48L587.13,207.24L570.39,207.02L569.93,206.68L570.29,155.27L655.79,155.5L673.04,156.67L689.77,156.93L689.75,207.87L655.79,207.25z"/>
		<path id="C05113" title="Polk" class="land" d="M23.51,449.01L24.22,417.89L24.29,416.46L24.48,408.17L24.54,405.91L24.56,404.92L24.97,388.03L25.14,380.75L25.14,380.25L25.55,363.48L25.54,361.94L26.01,345.36L47.95,345.83L47.82,351.44L95.51,352.39L95.51,354.16L109.54,354.78L109.48,357.57L108.7,418.27L57.85,417.24L57.62,433.78L59.57,433.75L59.59,448.5z"/>
		<path id="C05115" title="Pope" class="land" d="M274.21,259.92L269.81,258.87L265.79,260.22L262.85,259.64L257.64,260.35L253,262.45L253.22,267.24L250.39,270.05L247.29,270.1L244.18,268.31L243,264.95L245.22,258.33L238.91,259.61L235.87,255.93L235.36,252.35L232.81,247.38L228.45,242.13L225.66,240.29L218.77,239.51L217.55,235.23L213.35,231.44L212.63,231.27L210.81,229.9L210.05,229.49L210.54,201.77L222.05,202.03L222.44,176.63L230.94,176.88L231.48,151.29L265.42,152.1L287.96,152.54L287.38,186.37L281.65,186.33L281.46,203.13L280.76,259.51L280.18,259.36L277.78,259.79z"/>
		<path id="C05117" title="Prairie" class="land" d="M502.11,275.66L505.15,279.82L500.38,280.11L500.01,281.74L502.7,282.94L506.29,281.19L505.8,282.88L518.25,282.94L517.48,309.87L517.5,312.28L516.43,312.92L520.28,317.22L518.12,318.74L518.5,323.34L516.8,323.46L517.16,326.96L516.5,357.5L505,357.2L504.87,368.44L510.54,368.53L510.47,371.41L516.13,371.59L516.01,377.25L481.51,376.37L481.34,393.21L478.08,393.4L468.2,392.94L467.72,389.64L469.49,385.83L475.11,380.55L475.4,379.32L474.8,376.66L471.62,376.12L470.27,374.09L474.49,365.19L473.79,363.15L465.8,356.54L464.58,356.32L465.7,308.54L448.23,308.17L448.38,287.1L448.36,285.21L449.35,285.07L450.29,285.08L452.11,284.08L453.31,283.88L454.46,283.32L455.4,283.68L456.8,283.77L458.03,283.23L459.16,282.99L459.76,282.65L460.89,282.08L461.84,281.74L462.7,281.38L463.33,280.88L464.04,281.18L464.95,280.98L465.63,281.04L466.3,281.47L466.71,282.02L467.3,282.58L467.79,283.03L468.67,283.17L469.24,282.57L470.32,282.54L471.57,282.89L472.09,283.4L472.59,284.01L473.27,284.29L473.4,285.47L473.9,286.75L474.03,287.47L474.81,287.84L475.5,287.93L476.76,288.03L477.92,288.71L478.64,288.89L479.36,288.83L479.93,288.18L481.2,287.8L482.11,287.68L483.01,287.47L483.07,284.51L483.14,278.99L486.69,275.32L489.49,275.36L497.79,275.55z"/>
		<path id="C05119" title="Pulaski" class="land" d="M377.77,390.71L378.03,373.89L361.38,373.62L361.69,365.28L346.03,365.02L346.33,356.33L337.27,356.01L337.44,353.28L329.02,352.98L329.35,339.04L312.72,338.49L313.21,321.67L299.11,321.32L296.61,321.27L296.9,310.15L313.42,310.39L313.76,304.75L330.19,305.32L330.23,302.02L340.64,303L344.78,311.12L344.94,313.87L342.94,319.21L344.18,321.48L347.47,323.49L345.7,320.65L346.48,318.09L345.22,311.76L350.38,309.73L350.15,306.2L380.31,307L380.69,290.18L397.6,290.62L405.65,290.7L404.47,344.73L402.05,348.87L400.88,357L401.19,358.84L398.88,365.79L412.22,366.09L412.15,391.51L383.79,390.85z"/>
		<path id="C05121" title="Randolph" class="land" d="M556.03,0.37L560.85,0.34L560.91,0.34L573.32,0.3L574.82,0.26L582.06,0.23L582.45,0.23L595.42,0.24L595.79,0.23L595.84,0.25L596.28,0.3L600,0.21L610.52,0.21L611.25,1.42L612.32,5.46L611.86,10.98L612.44,13.54L613.13,14.79L614.1,15.45L613.34,16.93L614.74,17.14L616.17,19.75L616.03,27.07L615.88,33.76L615.75,40.68L615.69,42.5L614.52,42.65L612.86,42.31L611.15,42.31L610.36,41.01L609.28,41.09L608.11,41.7L606.99,45.01L606.98,45.84L606.47,68.89L568.98,68.54L567.9,68.24L565.87,70.09L566.05,74.89L564.48,75.7L564.68,73.64L562.45,72.21L563.01,68.63L557.13,68.08L553.63,65.58L553.26,62.9L550.21,57.82L546.97,57.8L543.68,55.33L539.98,54.05L539.14,50.96L537.66,53.93L537.84,47.65L534.95,47.61L535,33.25L532.22,33.25L532.34,24.65L529.55,24.55L529.74,21.77L526.79,21.65L527.01,15.62L520.58,15.52L520.61,12.61L518.52,5.39L512.69,3.91L511.34,0.49L511.66,0.48L511.69,0.49L539.97,0.39L541.36,0.4L541.56,0.41z"/>
		<path id="C05123" title="St. Francis" class="land" d="M655.33,265.05L671.67,264.28L671.33,292.51L670.48,292.5L670.38,311.53L583.85,310.97L568.78,310.02L560.38,310.05L560.26,318.68L557.42,318.67L557.61,310.05L551.9,310.04L552.32,292.51L568.95,292.79L569.38,264.28L633.94,264.88L633.91,264.52L655.08,265.21z"/>
		<path id="C05125" title="Saline" class="land" d="M377.77,390.71L352.65,390.27L352.47,398.71L323.05,397.99L321.16,401.17L317.68,403.73L317.43,406.16L310.43,405.95L307.65,405.86L307.79,394.63L299.25,394.48L299.35,388.83L290.6,388.77L290.87,377.53L288.09,377.48L288.24,372.06L277.26,371.92L277.5,363.45L260.87,363.04L260.94,353.87L262.48,353.85L262.56,337L245.69,337.07L245.9,320.43L266.45,320.31L284.79,320.96L286.69,322.46L289.13,322.02L292.6,324L296.41,323.42L298.98,326.22L299.11,321.32L313.21,321.67L312.72,338.49L329.35,339.04L329.02,352.98L337.44,353.28L337.27,356.01L346.33,356.33L346.03,365.02L361.69,365.28L361.38,373.62L378.03,373.89z"/>
		<path id="C05129" title="Searcy" class="land" d="M350.94,102.96L350.56,139.61L316.62,139.17L316.4,153.33L287.96,152.54L265.42,152.1L265.69,134.83L266.17,134.83L267.46,84.17L266.34,84.13L266.48,75.65L275.07,75.85L283.65,75.92L283.5,84.48L351.39,85.93z"/>
		<path id="C05127" title="Scott" class="land" d="M26.86,313.13L27.08,305.77L30,306.26L33.21,302.72L35.98,303.9L38.45,302.94L39.93,300.28L42.72,302.99L46.8,301.5L51.45,302.11L57.61,300.77L61.7,299.08L62.06,281.84L58.5,280.31L76.02,273.68L75.83,282.21L86.66,282.53L86.57,287.84L145.41,289.17L144.55,342.21L138.98,341.98L138.91,344.79L133.21,344.62L133.19,347.39L127.54,347.38L127.55,348.76L119.08,348.49L117.81,357.64L109.48,357.57L109.54,354.78L95.51,354.16L95.51,352.39L47.82,351.44L47.95,345.83L26.01,345.36L26.71,320.95L26.72,320.31L26.73,319.8L26.8,317.11L26.89,314.15L26.89,313.46z"/>
		<path id="C05131" title="Sebastian" class="land" d="M27.08,305.77L28.14,269.8L28.21,268.04L28.41,260.24L28.41,259.7L28.52,256.72L28.49,255.47L28.48,254.75L28.58,252.56L28.61,252.1L28.72,248.23L28.69,246.61L28.72,246.04L28.88,244.51L29,240.39L29.02,239.81L29.08,239.5L29.09,237.25L29.1,236.47L29.27,233.55L29.64,222.59L29.61,221.72L29.69,221.29L29.38,219.99L29.5,219.11L29.33,218.01L29.3,217.83L29.73,216.49L29.64,215.83L31.15,210.79L34.15,205.65L37.05,206.43L43.33,211.82L43.64,219.06L46.38,220.94L47.26,223.65L51.28,224.99L52.88,223.29L57.07,224.39L62.71,224.38L65.78,223.12L68.19,217.71L71.75,219.63L76.26,218.37L76.89,215.52L75.67,212.42L73.12,209.98L73.17,207.53L75.72,205.6L84.61,207.11L86.48,206.54L85.22,251.34L88.18,251.39L88.08,254.26L93.86,251.55L93.43,265.7L76.22,265.22L76.02,273.68L58.5,280.31L62.06,281.84L61.7,299.08L57.61,300.77L51.45,302.11L46.8,301.5L42.72,302.99L39.93,300.28L38.45,302.94L35.98,303.9L33.21,302.72L30,306.26z"/>
		<path id="C05133" title="Sevier" class="land" d="M22.78,481.17L23.51,449.01L59.59,448.5L81.67,448.74L84.06,449.53L82.88,451.48L83.97,455.47L81.94,459.15L85.61,461.3L83.52,463.81L85.43,465.9L83.21,470.33L86.68,473.02L85.16,473.57L84.47,478.8L87.25,483.72L89.2,492.22L87.74,493.91L87.25,499.31L89.98,507.04L95.24,509.7L95.4,513.95L102.95,522.29L104.03,524.27L103.31,529.7L104.97,532.9L97.92,532.62L91.81,530.26L89.85,526.91L82.39,525.8L77.85,526.2L73.98,525.82L70.45,525.44L68.94,524.21L68.67,522.83L65.15,522.02L61.9,522.25L58.47,520.67L55.13,519.34L51.96,518.85L50.27,518.62L49.81,516.33L49.92,515L48.28,513.08L47.24,512.38L44.39,510.45L41.1,508.69L39.81,508.08L36.73,503.01L35.87,499.67L34.8,496.72L32.36,497.44L32.57,498.2L30.14,498.59L26.43,498.41L23.35,496.72L22.39,496.65L22.44,494.18L22.45,493.5L22.78,481.6L22.78,481.18z"/>
		<path id="C05135" title="Sharp" class="land" d="M504.51,0.4L505.11,0.42L506.66,0.44L507.17,0.46L511.32,0.49L511.34,0.49L512.69,3.91L518.52,5.39L520.61,12.61L520.58,15.52L527.01,15.62L526.79,21.65L529.74,21.77L529.55,24.55L532.34,24.65L532.22,33.25L535,33.25L534.95,47.61L534.88,50.44L523.38,50.16L523.27,52.94L520.47,52.9L520.13,67.24L520.64,67.28L519.29,119.65L502.18,119.29L502.41,110.61L467.36,109.97L463.02,109.64L463.21,98.05L467.52,98.13L466.11,94.49L467.64,93.75L467.89,65.92L468.71,65.9L468.82,57.3L465.94,57.18L466.06,48.51L486.03,49.17L486.06,31.96L503.81,32.34z"/>
		<path id="C05137" title="Stone" class="land" d="M385.8,72.18L386.79,77.58L388.82,78.2L392.39,75.6L394.77,76.22L398.92,85.57L405.03,87.82L407.81,91.46L406.8,93.45L403.72,93.71L401.04,96.31L403.45,101.3L403.31,104.9L399.32,108.01L399.62,111.68L402.11,112.7L406.44,111.78L409.37,109.31L412.15,110.14L412.55,113.33L416.14,114.03L419.85,110.04L421.94,109.94L424.41,111.62L427.01,115.41L433.43,121.18L438.23,121.3L440.9,124.2L440.87,128.33L437.47,135.31L438.41,143.08L443.03,147.37L442.85,155.95L378.62,154.54L350.29,153.78L350.56,139.61L350.94,102.96L368,103.32L368.36,86.26L385.45,86.61z"/>
		<path id="C05139" title="Union" class="land" d="M301.5,672.74L301.46,672.74L300.16,672.74L290.07,672.65L284.61,672.49L282.5,672.42L282.46,672.41L280.89,672.4L278.77,672.42L266.18,672.27L262.26,672.2L259.46,672.18L261.09,603.99L290.45,604.91L293.12,604.44L295.85,602.03L301.53,602.8L302.99,605.18L308.13,606.06L311.78,608.1L314.08,605.68L319.2,607.31L322.27,604.67L326.6,605.9L328.42,606.78L332.41,610.21L333.68,613.29L334.66,614.89L338.79,615.56L339.69,615.18L341.71,615.4L342.68,616.7L343.03,618.59L343.47,621.52L346.56,623.65L350.81,623.58L359.47,620.08L361.11,618.85L360.8,619.96L361.69,622.13L364.06,622.9L367.47,624.47L370.5,623.91L376,626.8L381.07,629.28L382.01,633.41L384.81,636.66L388.37,637.93L389.67,640.94L390.29,643.75L391.17,643.68L393.81,643.79L395.02,644.62L399.29,645.68L398.89,650.47L394.05,656.87L396.32,662.17L398.71,662.18L399.65,669.41L403.46,669.41L405.92,673.91L381.44,673.73L370.31,673.54L363.43,673.5L359.13,673.44L357.95,673.42L342.11,673.18L337.07,673.15L336.69,673.15L303.65,672.75L302.91,672.73L301.69,672.74z"/>
		<path id="C05141" title="Van Buren" class="land" d="M340.25,221.52L340.24,221.02L340.31,220.13L340.6,204.61L281.46,203.13L281.65,186.33L287.38,186.37L287.96,152.54L316.4,153.33L316.62,139.17L350.56,139.61L350.29,153.78L378.62,154.54L377.95,188.53L377.35,188.53L376.67,222.43z"/>
		<path id="C05143" title="Washington" class="land" d="M104.32,145.01L78.62,144.29L78.52,147.07L19.91,145.36L19.84,144.83L19.65,143.57L18.93,138.66L18.84,137.98L18.7,136.86L18.66,136.63L18.59,136.12L18.3,134.01L18.07,132.22L17.88,130.8L17.56,128.4L15.98,117.45L15.17,111.11L15.17,111L15.17,110.99L15.13,110.74L14.9,109.19L14.86,108.86L14.29,104.96L14.27,104.88L13.67,100.61L13.42,98.86L13.23,97.71L13.09,96.7L11.18,83.08L11.16,82.88L10.47,78.18L36.12,78.74L36.31,70.26L44.83,70.33L45.29,56.09L95.61,57.36L94.54,54.31L98.43,53.09L96.96,54.61L98.7,56.84L102.45,58.28L102.83,53.38L105.14,54.58L107.33,51.87L116.28,52.1L107.3,80.37L106.08,130.88L104.68,130.87z"/>
		<path id="C05145" title="White" class="land" d="M520.88,207.77L520.18,210.25L517.27,212.29L512.88,219.18L509.92,221.42L507.67,225.06L507.55,231.44L510.34,235.2L512.94,243.16L515.38,243.88L514.52,248.41L514.67,252.59L510.72,254.53L508,258.13L505.4,263.19L505.72,266.29L506.27,270.17L505.3,273.32L502.78,274.45L502.11,275.66L497.79,275.55L489.49,275.36L486.69,275.32L483.14,278.99L483.07,284.51L483.01,287.47L482.11,287.68L481.2,287.8L479.93,288.18L479.36,288.83L478.64,288.89L477.92,288.71L476.76,288.03L475.5,287.93L474.81,287.84L474.03,287.47L473.9,286.75L473.4,285.47L473.27,284.29L472.59,284.01L472.09,283.4L471.57,282.89L470.32,282.54L469.24,282.57L468.67,283.17L467.79,283.03L467.3,282.58L466.71,282.02L466.3,281.47L465.63,281.04L464.95,280.98L464.04,281.18L463.33,280.88L462.7,281.38L461.84,281.74L460.89,282.08L459.76,282.65L459.16,282.99L458.03,283.23L456.8,283.77L455.4,283.68L454.46,283.32L453.31,283.88L452.11,284.08L450.29,285.08L449.35,285.07L448.36,285.21L448.38,287.1L436.84,288.42L428.84,284.11L424.08,284.09L416.68,280.93L414.89,278.22L408.95,280L405.04,278.45L402.76,280.45L397.86,280.11L399.17,222.63L440.5,223.49L440.79,208.29L442.91,207.4L444.09,204.76L445.69,205.67L449.43,204.56L449.74,189.27L483.51,189.98L483.06,207.15z"/>
		<path id="C05147" title="Woodruff" class="land" d="M520.88,207.77L520.41,206.63L535.9,206.46L536.12,223.63L569.84,224.27L569.38,264.28L568.95,292.79L552.32,292.51L538.36,292.16L538.25,295.91L529.5,295.87L529.23,309.92L517.48,309.87L518.25,282.94L505.8,282.88L506.29,281.19L502.7,282.94L500.01,281.74L500.38,280.11L505.15,279.82L502.11,275.66L502.78,274.45L505.3,273.32L506.27,270.17L505.72,266.29L505.4,263.19L508,258.13L510.72,254.53L514.67,252.59L514.52,248.41L515.38,243.88L512.94,243.16L510.34,235.2L507.55,231.44L507.67,225.06L509.92,221.42L512.88,219.18L517.27,212.29L520.18,210.25z"/>
		<path id="C05149" title="Yell" class="land" d="M145.41,289.17L144.74,283.93L145.12,266.85L152.04,267.06L152.08,264.27L173.29,264.81L173.38,261.99L176.22,262.04L176.26,259.23L180.59,258.02L180.61,253.88L184.88,251.17L207.41,251.83L213.08,251.79L213.35,231.44L217.55,235.23L218.77,239.51L225.66,240.29L228.45,242.13L232.81,247.38L235.36,252.35L235.87,255.93L238.91,259.61L245.22,258.33L243,264.95L244.18,268.31L247.29,270.1L250.39,270.05L253.22,267.24L253,262.45L257.64,260.35L262.85,259.64L265.79,260.22L269.81,258.87L274.21,259.92L269.72,260.37L264.68,265.82L261.04,267.51L260.69,270.32L251.18,271.89L253.49,275.88L251.21,278.09L249.47,280.91L246.63,280.86L246.59,283.68L243.76,283.63L243.76,286.4L240.85,286.43L240.79,289.53L237.95,289.37L237.9,292.16L235.08,292.08L235.01,294.87L232.14,294.81L232.16,297.63L228.76,297.56L228.72,300.34L225.8,300.29L225.72,303.13L223.05,303.06L223.03,306.01L220.21,306.03L220.23,308.83L217.5,308.79L217.46,311.6L214.59,311.57L214.56,314.42L211.77,314.51L211.77,317.1L208.98,317.05L208.95,319.85L211.75,319.87L211.83,336.82L194.85,336.98L194.87,342.57L144.55,342.21z"/>
	</g>
</svg>