<?xml version="1.0" encoding="utf-8"?>
<!-- (c) ammap.com | SVG map of CA Counties -->
<svg xmlns="http://www.w3.org/2000/svg" xmlns:amcharts="http://amcharts.com/ammap" xmlns:xlink="http://www.w3.org/1999/xlink" version="1.1">
	<defs>
		<style type="text/css">
			.land
			{
				fill: #CCCCCC;
				fill-opacity: 1;
				stroke:white;
				stroke-opacity: 1;
				stroke-width:0.5;
			}
		</style>

		<amcharts:ammap projection="mercator" leftLongitude="-124.410199" topLatitude="42.009821" rightLongitude="-114.133616" bottomLatitude="32.533548"></amcharts:ammap>

		<!-- All areas are listed in the line below. You can use this list in your script. -->
		<!--{id:"C06001"},{id:"C06003"},{id:"C06005"},{id:"C06007"},{id:"C06009"},{id:"C06011"},{id:"C06013"},{id:"C06015"},{id:"C06017"},{id:"C06019"},{id:"C06021"},{id:"C06023"},{id:"C06025"},{id:"C06027"},{id:"C06029"},{id:"C06031"},{id:"C06033"},{id:"C06035"},{id:"C06037"},{id:"C06039"},{id:"C06041"},{id:"C06043"},{id:"C06045"},{id:"C06047"},{id:"C06049"},{id:"C06051"},{id:"C06053"},{id:"C06055"},{id:"C06057"},{id:"C06059"},{id:"C06061"},{id:"C06063"},{id:"C06065"},{id:"C06067"},{id:"C06069"},{id:"C06071"},{id:"C06073"},{id:"C06075"},{id:"C06077"},{id:"C06079"},{id:"C06081"},{id:"C06083"},{id:"C06085"},{id:"C06087"},{id:"C06089"},{id:"C06091"},{id:"C06093"},{id:"C06095"},{id:"C06097"},{id:"C06099"},{id:"C06101"},{id:"C06103"},{id:"C06105"},{id:"C06107"},{id:"C06109"},{id:"C06111"},{id:"C06113"},{id:"C06115"}-->

	</defs>
	<g>
		<path id="C06001" title="Alameda" class="land" d="M182.24,454.45L179.45,452.75L177.28,450.84L176.78,450.09L177.15,449.88L177.1,447.82L175.81,444.75L175.41,444.52L175.13,444.08L174.6,442.69L174.4,442.05L174.52,440.85L174.45,440.21L173.94,436.98L173.16,434.35L172.56,433.55L171.93,433.17L170.51,431.93L170.01,431.45L169.25,431.36L168.65,430.7L166.7,429.11L166,427.77L165.85,427.39L165.91,426.87L166.29,426.62L166.85,426.36L167.03,426.02L166.17,425.29L165.37,424.96L164.5,424.7L163.67,424.49L163.07,424.4L162.27,423.99L161.15,423.56L160.36,423.16L160.23,423.1L160.22,422.88L160.16,421.91L159.87,421.57L159.86,421.56L160.01,420.58L160.79,419.27L161.24,418.92L162.13,418.86L162.3,418.61L162.5,416.89L161.8,414.34L161.84,412.51L161.58,412.1L161.56,412.08L161.77,412.02L162.13,411.98L164.83,411.24L171.49,418.05L171.39,419.51L173.6,419.78L174.9,421.08L182.22,421.71L185.4,424.44L185.65,427.45L187.42,428.37L188.75,429.43L192.66,428.28L194.86,427.61L214.73,421.6L219.71,419.69L219.88,419.86L219.9,446.48L220.74,447.46L224.37,448.42L224.78,450.38L226.64,451.64L226.43,452.37L226.38,452.34L196.85,452.11L191.47,455.02L189.81,453.76L187.65,454.42L185.99,453.78z"/>
		<path id="C06003" title="Alpine" class="land" d="M334.31,333.28L342.59,326.08L343.9,325.52L347.11,318.24L348.22,318.06L349.35,316.8L348.49,315.9L349.17,315.14L348.55,312.05L347.26,310.57L371.67,332.11L371.72,332.15L371.84,332.26L372.3,333L370.82,336.41L369.59,336.91L369.24,342.94L370.73,344.04L371.69,347.48L374.09,351.57L374.06,353.03L375.12,353.23L375.16,355.04L374.12,356.12L374.08,358.35L373.03,359.59L373.22,362.5L371.3,363.11L370.63,362.48L369.02,363.6L370.15,366.29L367.98,367.52L368.54,367.92L367.7,370.16L363.01,366.41L363.5,365.07L363.11,362.04L362.65,361.46L358.89,361.36L357.57,362.35L355.17,362.87L354.17,364.23L352.41,364.73L348.77,367.29L338.35,359.72L335.75,357.55L334.29,358.39L334.3,352.23z"/>
		<path id="C06005" title="Amador" class="land" d="M260.69,352.39L261.69,352.07L262.75,351.39L264.28,351.7L265.95,351.02L267.66,350.98L269.16,351.21L270.71,350.3L272,350.24L272.62,349.52L273.86,348.63L275.17,347.77L276.37,347.52L278.96,347.85L282.66,348.44L285.9,349.99L290.27,352.34L293.66,352.87L296.42,352.35L299.75,352.1L303.14,351.08L307.03,350.34L309.66,349.34L312.82,348.57L320.05,345.3L325.26,340.32L329.61,337.72L330.81,335.4L333.53,333.36L334.31,333.28L334.3,352.23L330.24,353.61L326.01,353.64L324.03,353.1L319.14,355.38L317.25,355.42L314.37,356.61L311.98,356.47L310.54,357.02L307.27,355.82L304.32,358.48L301.37,358.33L299.53,360.78L295.78,361.78L295.62,362.82L293.02,363.2L292.34,365.05L292.83,365.94L291.46,367.37L291.23,368.85L288.48,369.71L286.52,371.04L282.98,372.03L281.74,373.92L276.86,374.4L270.99,380.49L263.16,380.08L260.72,372.77z"/>
		<path id="C06007" title="Butte" class="land" d="M229.13,189.25L231.63,189.27L231.6,192.9L233.79,193.59L233.77,195.86L234.53,195.86L233.34,199.29L231.95,199.27L231.95,201.43L230.48,202.91L230.45,205.74L231.19,205.76L231.18,208.65L230.45,208.64L230.39,211.56L231.13,212.99L229.66,213.02L229.67,214.47L231.13,214.46L231.06,217.36L233.5,218.96L234.97,218.96L235.02,220.43L235.75,220.47L235.77,221.94L237.2,221.94L237.19,223.4L238.26,223.42L238.38,224.83L240.84,226.35L240.77,227.74L242.13,227.62L242.15,229.08L243.49,229.1L243.67,230.49L245.1,230.48L245.12,231.93L246.55,231.93L246.72,234.46L248.12,234.5L248.14,235.95L249.61,235.93L249.62,237.38L250.85,238.8L252.29,238.8L252.27,241.65L255.29,242.38L256.9,244.73L256.68,245.93L254.52,245.93L254.56,247.73L251.92,248.22L251.25,248.92L250.53,252.47L248.54,251.76L244.27,251.77L244.29,253.12L241.45,253.14L241.47,252.4L239.29,252.47L239.27,254.64L238.54,256.82L237.11,257.53L236.21,259.14L237.03,261.85L234.79,264.02L234.07,267.88L231.4,270.34L228.35,271.25L226.2,270.98L225.3,272.56L221.83,272.51L219.34,273.79L215.65,272.4L214.73,274.72L214.51,274.62L214.06,273.99L214.24,273.73L192.8,273.9L193.87,270.21L194.21,265.96L194.91,262.68L195.51,258.96L195.35,254.03L191.79,250.79L186.45,248.02L185.99,244.42L187.58,239.61L189.58,233.03L188.03,230.71L183.79,225.48L182.15,224.74L180.8,223.44L181.31,221.64L180.38,220.45L182.58,216.52L182.27,216.13L200.83,216.07L202.91,215.65L204.95,213.82L205.29,210.65L206.9,207.8L208.6,206.07L213.01,206.24L213.83,204.81L213.77,201.9L214.55,200.53L216.9,198.7L216.88,195.12L217.61,194.41L223.45,194.41L224.97,193.65L225.74,192.21L227.9,192.24z"/>
		<path id="C06009" title="Calaveras" class="land" d="M289.58,418.48L282.5,410.6L281.87,409.54L275.62,402.59L272.36,399.26L268.48,394.53L267.52,393.47L263.16,380.08L270.99,380.49L276.86,374.4L281.74,373.92L282.98,372.03L286.52,371.04L288.48,369.71L291.23,368.85L291.46,367.37L292.83,365.94L292.34,365.05L293.02,363.2L295.62,362.82L295.78,361.78L299.53,360.78L301.37,358.33L304.32,358.48L307.27,355.82L310.54,357.02L311.98,356.47L314.37,356.61L317.25,355.42L319.14,355.38L324.03,353.1L326.01,353.64L330.24,353.61L334.3,352.23L334.29,358.39L335.75,357.55L338.35,359.72L337.58,360.58L334.65,361.49L333.11,362.67L329.42,363.38L326.31,365.55L324.07,369.89L322.27,371.36L321.61,372.94L319.06,375.62L315.43,381.86L313.72,384.14L313.61,385.34L310.9,388.24L310.04,390.76L308.32,392.04L308.24,393.51L306.66,396.1L304.9,398.04L304.14,401.06L301.96,400.98L301,402.94L300.1,401.67L298.66,402.93L300.31,406.31L298.63,407.49L298.48,409.13L296.5,410.6L295.89,412.31L294.6,412.27L292.94,414.46L291.04,415.64z"/>
		<path id="C06011" title="Colusa" class="land" d="M192.8,273.9L191.49,276.57L189.72,280.06L190.86,282.95L190.35,286.68L190.99,289.9L192.8,292.72L195.06,296.99L198.72,300.08L200.37,303.48L199.54,305.68L198.44,308.15L198.44,310.62L198.41,311.44L159.68,311.49L159.51,311.46L157.22,309.92L154.5,308L153.65,304.82L151.27,301.07L149.15,298.97L147.99,297.72L147.93,296.61L148.26,295.73L148.1,295.03L147.77,293.86L147.39,292.45L148.68,290.21L148.94,289.12L148.27,286.68L141.45,283.53L138.91,282.63L137.33,281.93L133.58,281.32L128.81,276.83L126.17,272.41L127.55,266.86L128.76,266.02L175.25,265.8L175.23,262.92L185.05,263.01L184.98,265.96L194.21,265.96L193.87,270.21z"/>
		<path id="C06013" title="Contra Costa" class="land" d="M218.1,392.87L218.41,395.14L217.92,396.83L218.09,398.05L218.79,398.64L219.3,399.52L219.24,400.38L218.74,400.55L218.17,401.61L218.31,402.35L218.11,404.4L218.5,404.7L218.88,406.21L219.36,407.32L219.49,408.15L219.65,409.78L218.94,411.66L218.5,413.26L218.45,415.39L218.92,415.81L219.5,415.98L220.45,415.99L221.34,416.71L221.45,417.18L221.27,417.68L220.34,418.5L220.16,419.63L219.88,419.86L219.71,419.69L214.73,421.6L194.86,427.61L192.66,428.28L188.75,429.43L187.42,428.37L185.65,427.45L185.4,424.44L182.22,421.71L174.9,421.08L173.6,419.78L171.39,419.51L171.49,418.05L164.83,411.24L162.13,411.98L161.77,412.02L161.56,412.08L160.78,411.24L159.94,410.95L158.2,410.95L157.8,411.4L157.4,411.43L156.54,411.3L155.98,411.02L155.73,410.83L155.63,409.62L155.28,409.17L154.8,409.04L153.84,408.18L153.56,407.57L152.58,405.67L152.6,405.44L153.71,405.67L153.99,405.92L154.25,406.21L154.91,406.36L157.4,404.2L157.83,403.05L157.75,402.62L157.45,402.22L157.3,401.3L157.37,400.85L157.7,400.69L158.02,401.11L159.52,401.71L160.15,401.55L160.98,400.82L161.41,400.76L162.54,401.01L163.88,399.86L165.47,397.73L165.47,397.06L165.17,396.22L166.83,395.84L171.56,396.81L172.81,398.5L176.17,398.59L181.02,396.02L181.85,396.21L187.03,395.52L191.45,397.55L194.24,397.53L195.79,396.76L196.12,396.24L196.33,395.64L197.93,397.01L198.67,399.04L200.03,400.05L202.88,400.23L205.94,399.48L208.87,397.67L210.28,396.11L210.25,394.08L210.93,392.96L211.79,392.75L213.63,393.68L214.33,392.59L216.18,392.34z"/>
		<path id="C06015" title="Del Norte" class="land" d="M15.26,1.14L21.84,1.29L23.79,1.3L23.85,1.31L24.8,1.3L24.89,1.31L31.48,1.38L44.35,1.38L45.33,1.45L45.91,1.49L47.81,1.39L52.52,1.29L58.01,1.49L60.51,1L66.06,0.96L68.16,0.88L68.73,0.89L67.76,1.89L66.41,7.72L62.52,11.7L58.92,13.01L55.88,17.91L55.97,24.75L55.84,37.67L54.77,42.82L55.57,46.11L57.68,48.3L58.92,50.37L60.33,55.69L58.73,62.94L57.67,64.53L49.28,64.66L49.26,56.12L40.38,55.95L26.52,56.06L26.48,55.5L25.72,52.27L25.29,51.3L25.25,47.55L24.45,46.95L23.78,45.35L23.75,44.39L24.06,43.7L23.79,41.93L22.75,40.47L22.63,39.22L22.3,38.04L21.12,36.3L20.83,34.83L20.91,34.08L20.51,30.96L20.21,30.06L19.68,28.95L18.87,27.78L17.9,27.2L17.28,27.86L16.85,28.2L16.54,28.13L15.86,27.07L13.09,24.63L12.9,24.5L12.4,24.56L11.84,23.37L12.68,22.41L13.79,19.69L14.65,16.83L15.5,12.53L15.89,7.08L15.77,2.69z"/>
		<path id="C06017" title="El Dorado" class="land" d="M347.26,310.57L348.55,312.05L349.17,315.14L348.49,315.9L349.35,316.8L348.22,318.06L347.11,318.24L343.9,325.52L342.59,326.08L334.31,333.28L333.53,333.36L330.81,335.4L329.61,337.72L325.26,340.32L320.05,345.3L312.82,348.57L309.66,349.34L307.03,350.34L303.14,351.08L299.75,352.1L296.42,352.35L293.66,352.87L290.27,352.34L285.9,349.99L282.66,348.44L278.96,347.85L276.37,347.52L275.17,347.77L273.86,348.63L272.62,349.52L272,350.24L270.71,350.3L269.16,351.21L267.66,350.98L265.95,351.02L264.28,351.7L262.75,351.39L261.69,352.07L260.69,352.39L257.38,342.64L256.22,338.69L253.66,332.06L252.54,333.02L251.94,332.38L252.44,332.37L253.75,327.87L253.62,327.08L254.87,325.14L255.04,322.2L256.26,322.14L256.08,320.44L258.31,319.07L258.7,316.98L258.03,315.68L259.4,314.76L258.73,313.84L259.69,312.31L262.73,312.1L263.43,311.17L266.04,310.01L267.54,310.35L267.41,307.71L270.52,308.59L271.25,307.98L273.68,308.7L274.33,306.37L275.59,306.76L275.93,305.24L277.28,303.97L278.37,304.38L280.96,303.02L282.36,302.96L283.65,303.59L285.63,305.84L286.86,304.98L287.19,307.19L290.37,309.48L292.65,309.6L294.07,310.29L295.77,312.44L297.01,312.36L297.85,311.23L300.4,310.78L301.91,309.58L302.42,308.05L303.58,307.39L305.57,302.25L306.34,301.18L314.6,301.77L321.36,301.65L327.17,300.18L328.81,297.34L339.7,297.32L339.81,304.03z"/>
		<path id="C06019" title="Fresno" class="land" d="M307.35,514.17L308.4,514.65L310.07,515.81L311.26,518.28L312.29,519.25L313.54,518.88L315.37,520.16L316.55,520.54L317.25,520.98L318.22,520.77L320.37,520.62L321.17,520.8L322.05,520.45L322.49,519.73L323.68,519.11L324.5,519.86L325.86,519.16L326.78,517.7L328.83,517.57L329.64,517.07L333.76,515.59L337.75,516.63L338.86,515.31L345.09,513.9L352.1,512.15L353.5,513.38L354.24,513.18L354.56,512.02L356.21,510.67L356.1,508.87L357.4,506.64L358.48,506.48L358.96,505.04L360.4,503.76L359.75,503.27L359.89,501.68L363.72,497.67L366.2,497.54L366.14,495.08L367.69,494.66L369.09,496.26L369.92,494.43L370.34,491.99L373.57,492.66L373.88,490.35L375.52,488.82L373.12,487.56L373.85,485.01L374.74,485.01L376.61,486.39L377.11,484.67L377.91,484.34L379.21,485.51L378.96,486.8L379.65,488.16L380.67,488.19L380.96,487.08L381.43,484.85L383.45,484.69L383.59,483.28L385.52,483.34L387.17,484.44L389.07,482.67L389.17,481.45L390.67,480.46L391.49,479.02L391.41,475.74L392.05,475.24L391.37,472.48L391.76,470.64L391.13,468.89L392.64,467.44L391.91,466.41L392.9,466.1L392.9,464.85L394.87,462.7L415.24,442.31L418.74,445.11L420.62,444.24L422.39,445.88L423.36,445.74L426.09,449.61L427.7,450.46L428.49,452.95L432.7,451.74L434.31,454.19L434.48,464.3L441.47,471.82L442.73,481.48L448.07,485.68L455.87,490.35L462.93,501.74L464.9,514.7L465.43,522.08L466.25,523.31L453.23,523.31L451.26,523.85L418.32,523.61L418.14,531.7L393.49,531.36L393.45,539.67L381.01,539.54L372.79,547.78L365.6,554.46L365.19,553.29L362.62,553.66L362.08,554.4L359.38,554.69L358.88,556.07L347.2,556.09L343.03,556.17L343.04,576.98L343.03,577.07L315.6,603.09L313.96,601.59L314,600.26L312.41,599.22L312.15,597.71L308.45,596.6L306.51,597.24L305.22,595.39L303.09,594.22L302.99,593.33L298.23,590.82L294.23,587.47L294.4,585.77L293.59,584.65L292.47,585.26L289.88,584.04L289.34,581.78L288.43,581.19L288.09,578.7L289.43,578.37L290.7,575.53L291.57,574.99L287.72,571.08L287.58,568.9L287.26,566.31L288.77,564.41L293.9,563.07L293.86,547.84L293.35,547.84L269.07,523.73L289.33,503.35L294.37,503.37L294.37,501.14L294.77,499.67L293.75,498.95L298.13,494.54L298.35,495.65L298.01,495.94L298.37,496.49L298.68,496.93L300.52,497.94L300.96,498.81L301.28,499.17L301.35,500.24L302.52,501.73L303.45,504.76L304.52,506.42L304.33,508.13L304.67,510.5L305.01,512.26L306.01,513.04L306.96,514.1z"/>
		<path id="C06021" title="Glenn" class="land" d="M194.21,265.96L184.98,265.96L185.05,263.01L175.23,262.92L175.25,265.8L128.76,266.02L128.56,260.86L129.26,259.32L129.33,256.48L128.96,253.57L129.03,246.39L117.49,246.44L116.92,233.6L115.37,233.62L115.39,229.68L113.4,229.69L113.46,224.69L115.45,224.66L115.45,224.56L182.15,224.74L183.79,225.48L188.03,230.71L189.58,233.03L187.58,239.61L185.99,244.42L186.45,248.02L191.79,250.79L195.35,254.03L195.51,258.96L194.91,262.68z"/>
		<path id="C06023" title="Humboldt" class="land" d="M57.67,64.53L70.02,64.48L71.05,65.05L74.57,77.89L73.63,79.51L77.18,85.18L76.51,86.65L75.3,86.98L75.56,91.5L75.01,93.22L74.25,94.47L72.85,94.09L72.88,95.74L74.3,97.24L76.02,97.6L76.28,99.94L77.26,100.4L77.35,102.2L76.27,102.53L75,106.19L73.71,107.16L74.12,109.23L72.6,109.8L71.54,112.16L69.2,111.61L67.82,110.14L65.47,108.57L63.05,110.9L60.57,110.69L61.37,111.49L61.74,114.2L62.61,115.38L61.64,115.85L63.9,116.93L64.47,119.42L65.25,119.73L64.82,121.77L65.78,122.94L65.05,124.2L66.27,126.29L66.12,129.04L66.71,129.98L66.68,204.3L29.73,204.36L28.8,203.16L27.22,202.05L26.56,202.01L26.26,202.35L25.98,202.22L25.41,201.51L25.35,197.86L24.86,196.62L23.05,194.08L20.78,192.82L18.41,192.03L17.09,191.39L15.01,188.34L13.76,187.27L11.65,186L8.72,183.53L6.84,181.74L6.31,180.66L5.13,179.99L4.38,179.34L3.56,178.28L3.54,176.75L4.76,172.88L4.35,171.19L4.08,170.83L3.61,169.32L3.41,166.82L2.77,165L2.35,164.4L1.39,163.57L0.54,162.05L0,160.44L0.08,159.92L1,158.02L1.9,155.22L2.03,154.21L1.74,153.69L2.06,152.27L2.35,151.88L3.55,149.27L6.18,142.43L7.28,140.09L7.48,139.91L9.29,136.03L12.42,130.4L13.98,126.94L16.01,123.31L17.95,119.41L19.37,116.11L21.01,111.07L22.46,104.61L22.93,100.65L21.9,98.58L21.32,98.17L20.92,97.98L20.56,98.02L20.22,98.13L20.09,98.28L19.91,98.31L19.73,98.06L19.7,97.42L19.66,94.64L19.2,93.43L19.31,91.1L18.82,90.29L18.93,89.39L19.35,88.95L20.03,89.17L20.49,88.78L22.12,84.18L23.32,80.11L23.37,78.98L24.46,74.18L25.48,68.1L26,65.27L26.71,58.64L26.52,56.06L40.38,55.95L49.26,56.12L49.28,64.66z"/>
		<path id="C06025" title="Imperial" class="land" d="M640.25,882.43L640.25,866.83L641.95,866.82L641.64,834.61L689.18,834.51L691.21,834.39L738.32,834.22L738.32,833.89L754.02,833.91L753.83,834.4L753.4,834.9L752.78,835.45L752.3,835.74L752.04,835.8L751.61,835.79L750.42,835.31L749.33,835.34L748.74,835.6L748.68,835.7L748.65,835.88L748.58,835.99L748.27,836.22L747.57,836.32L746.86,836.27L746.57,836.39L746.46,836.53L746.44,836.62L746.46,836.78L746.64,837.1L747.36,838.07L747.76,838.45L747.84,838.59L747.87,838.77L747.84,839.14L748.48,840.56L748.55,840.98L748.56,841.36L748.33,842.78L748,843.63L747.79,844.03L747.57,844.28L746.58,845.06L746.1,845.65L746,845.8L746,845.95L746.61,847.27L746.74,847.37L747.03,847.54L747.54,847.7L748.18,847.83L748.83,848.03L749.61,848.38L749.91,848.6L750.18,848.91L750.53,849.8L750.56,849.98L750.37,850.25L749.32,850.95L749.21,851.09L749.22,851.2L749.74,852.15L750.09,852.57L750.37,853.01L750.44,853.23L750.43,853.58L750.25,854.36L750.04,855.03L750.09,855.39L750.32,856.43L750.31,856.68L750.27,857.04L750.02,857.66L749.93,858.13L750.05,858.75L750,859.06L749.77,859.45L749.6,860.1L749.4,860.65L749.18,861.04L748.65,861.65L748.12,863.25L747.93,864.02L747.8,864.75L747.8,865.33L747.91,865.6L748.04,865.7L748.32,865.76L748.82,865.77L748.98,865.81L749.25,865.97L749.29,866.08L749.23,866.42L749.25,866.7L749.41,867.17L750.39,868.43L750.33,869.32L750.44,869.83L750.66,870.19L751.1,870.56L751.31,870.67L751.5,870.68L751.66,870.57L751.87,870.27L752.34,869.39L752.57,869.19L752.91,869.37L753.07,869.52L753.48,870.09L753.93,870.82L754.13,870.97L754.67,871.18L756.04,871.34L756.9,871.26L757.12,871.2L757.29,871.08L757.55,870.69L757.79,870.43L758.03,870.32L758.3,870.31L759.72,870.56L760.86,870.61L762,870.83L762.27,870.92L762.55,871.14L762.67,871.24L762.95,871.52L763.35,872.11L763.6,872.64L763.84,873.31L764.03,874.44L764.15,875.49L764.27,876.02L764.37,876.25L764.58,876.42L764.7,876.41L765.26,876.22L765.33,876.07L765.66,875.94L766.06,876.04L766.21,876.2L766.31,876.7L766.34,877.26L766.31,877.66L766.2,877.99L766.07,878.3L765.82,878.68L765.48,879.1L765.31,879.42L765.29,879.58L765.44,880.22L765.62,880.65L765.85,880.92L766.56,881.61L766.62,881.74L766.68,882.08L766.66,882.63L766.46,884.69L766.46,884.71L766.48,885.11L766.21,887.82L765.68,888.41L764.28,889.81L764.11,889.9L764.07,889.92L763.03,890.44L762.64,890.89L762.3,891.42L762.25,891.61L762.12,891.79L761.6,892.27L761.45,892.53L761.38,892.74L761.38,893.53L761.32,894.04L761.37,894.29L761.63,894.92L761.75,895.85L760.81,895.87L760.8,896.52L758.85,896.54L758.85,897.2L757.52,897.2L757.52,897.87L755.14,897.91L754.98,897.95L754.9,898.38L754.91,898.47L754.7,898.48L753.59,898.25L751.62,897.98L751.58,897.97L750.91,897.94L750.17,897.76L750.05,897.72L749.62,897.64L749.27,897.62L748.5,896.97L748.35,896.9L748.26,896.91L747.97,897.27L747.29,898.29L747.19,898.53L747.04,899.08L746.89,899.35L725.22,901.09L689.43,904.06L644.61,908.04L640.02,908.47L640.06,898.64L640.25,898.64z"/>
		<path id="C06027" title="Inyo" class="land" d="M506.94,454L516.22,462.7L518.66,464.78L526.31,471.97L529.43,474.76L532.51,477.62L532.58,477.61L542.15,486.62L550.62,494.5L552.25,495.92L558.33,501.59L560.95,504.03L565.98,508.78L571.06,513.44L606.43,546.72L609.6,549.75L610.57,550.62L618.89,558.64L619.23,558.87L628.87,567.98L640.71,579.26L640.99,579.5L654.92,592.84L656.45,594.3L659.54,597.17L660.08,597.69L667.41,604.79L672.15,609.27L673.72,610.73L675.33,612.33L675.26,612.38L668.57,612.38L668.56,613.85L598.02,613.67L522.33,613.5L499.87,613.42L499.97,614.49L493.98,614.24L493.43,614.27L493.38,612.54L494.19,599.52L490.65,590.05L489.24,578.96L484.9,568.48L483.06,558.64L477.53,551.65L474.74,543.27L470.8,535.85L467.74,527.39L466.25,523.31L465.43,522.08L464.9,514.7L462.93,501.74L455.87,490.35L448.07,485.68L442.73,481.48L441.47,471.82L434.48,464.3L434.31,454.19z"/>
		<path id="C06029" title="Kern" class="land" d="M483.25,705.32L428.2,705.61L428.18,706.98L426.42,706.97L426.08,705.6L425.1,705.59L426.11,708.14L418.76,708.14L418.76,706.13L398.19,705.94L398.19,701.88L395.51,701.91L395.62,699.82L387.49,699.82L387.51,697.83L382.87,697.8L380.53,697.81L380.53,681.35L379.14,681.32L379.15,679.95L373.73,680.34L374.29,671.68L365.55,672.16L365.58,663.92L354.57,663.82L354.58,655.62L349.12,655.58L349.13,647.31L340.09,647.27L340.09,644.52L338.68,644.49L338.76,643.11L337.32,643.11L337.33,641.7L335.95,641.7L335.94,640.38L334.58,640.37L334.6,639.09L333.21,639.07L333.26,630.77L324.94,630.79L324.94,620.19L324.92,614.26L375.49,614.23L400.47,614.14L454.95,614.22L458.22,613.94L488.83,614.04L493.43,614.27L493.98,614.24L499.97,614.49L499.87,613.42L522.33,613.5L522.24,621.76L520.87,621.76L520.84,624.51L523.63,624.51L523.61,627.26L522.27,627.27L522.2,635.53L522.55,635.53L522.55,646.19L522.28,646.19L522.31,679.41L522.41,705.19L519.69,705.16L483.96,705.31L483.8,705.33z"/>
		<path id="C06031" title="Kings" class="land" d="M347.2,556.09L358.88,556.07L359.38,554.69L362.08,554.4L362.62,553.66L365.19,553.29L365.6,554.46L372.79,547.78L376.33,547.78L376.21,556.12L380.36,556.16L380.38,568.73L376.16,568.65L376.18,581.2L375.62,581.2L375.52,600.48L375.49,614.23L324.92,614.26L323.39,614.26L322.88,611.39L321.04,610.97L319.9,608.98L321.14,605.89L318.63,603.22L315.6,603.09L343.03,577.07L343.04,576.98L343.03,556.17z"/>
		<path id="C06033" title="Lake" class="land" d="M137.37,336.75L137.52,336.07L135.89,332.95L132.4,332.48L130.97,330.4L130.23,328.29L128.06,324.92L128.02,323.3L124.73,320.72L124.38,319.88L123.4,320.1L122.4,318.77L120.98,317.21L116.77,315.75L116.83,314.3L115.48,313.71L112.59,313.83L112.58,311.35L110.97,310.63L110.37,309.25L110.39,305.67L109.68,304.25L106.49,304.32L104.32,301.9L104.33,299.06L103.63,297.62L101.48,296.87L102.65,286.8L105.12,286.83L105.56,284.95L107.69,282.12L107.67,280.62L109.05,280.64L109.08,278.58L108.3,276.45L107.14,276.47L107.13,272.13L105.74,270.7L105.73,267.95L104.25,266.48L104.31,263.61L102.86,263.6L103.01,259.12L103.79,259.14L103.78,254.07L106.7,252.56L113.53,252.79L113.53,251.36L117.1,251.53L117.49,246.44L129.03,246.39L128.96,253.57L129.33,256.48L129.26,259.32L128.56,260.86L128.76,266.02L127.55,266.86L126.17,272.41L128.81,276.83L133.58,281.32L137.33,281.93L138.91,282.63L141.45,283.53L148.27,286.68L148.94,289.12L148.68,290.21L147.39,292.45L147.77,293.86L148.1,295.03L148.26,295.73L147.93,296.61L147.99,297.72L149.15,298.97L151.27,301.07L153.65,304.82L154.5,308L157.22,309.92L159.51,311.46L154.59,311.36L153.2,313.77L155.28,317.38L154.6,318.23L156.29,320.38L156.94,322.04L156.49,323.51L155.05,323.32L153.95,325.11L154.67,326.38L153.68,326.86L149.97,333.04z"/>
		<path id="C06035" title="Lassen" class="land" d="M339.79,232.25L339.79,232.25L338.67,233.62L328.54,233.73L328.59,230.86L330.04,230.88L330.67,227.94L331.36,227.92L331.58,225.08L331.56,216.38L332.23,216.38L332.21,213.47L331.49,213.47L331.5,210.55L328.71,208.27L327.27,207.63L325.82,203.15L324.37,203.14L324.36,200.21L323.63,200.2L323.73,195.86L320.86,195.88L320.86,193.67L318.68,192.97L313.57,192.93L313.57,192.2L310.64,191.5L310.67,190.39L308.44,189.71L307.75,187.49L305.52,186.74L304.87,183.84L302.67,183.83L301.99,180.92L300.53,180.93L300.51,179.49L297.6,178.76L297.59,178.02L295.43,178L295.43,175.82L291.88,175.79L290.36,175.04L289.62,173.59L283.9,173.51L283.88,172.75L280.97,172.74L280.24,174.21L278.47,174.26L278.53,176.6L275.62,177.3L275.6,178.77L274.13,180.21L272.69,180.23L272.69,184.48L271.24,185.21L268.31,185.23L268.35,183.77L266.88,183.76L266.96,182.32L262.52,182.31L262.51,180.9L259.61,180.92L259.61,178.74L258.07,178.74L258.07,159.59L237.54,159.71L237.6,156.57L237.91,154.44L238.15,113.08L237.19,113.13L237.3,110.17L237.23,84.78L246.54,84.72L246.6,84.73L288.46,84.78L339.9,84.77L339.94,116.41L339.95,116.99L339.95,117.14L340,128.91L340.08,131.84L340.2,154.2L340.18,172.16L340.18,172.22L340.18,178.03L340.18,178.13L340.11,191.81L340.1,195.3L340.1,196.74L340.1,197.29L340.07,208.85L339.91,219.37L339.84,226.43L339.85,226.51z"/>
		<path id="C06037" title="Los Angeles" class="land" d="M453.62,883.22l-0.87,-0.99l-1.18,-3.55l-0.75,-1.17l-0.97,-1.03l-1.03,-3.58l-0.7,-0.65l-0.81,0.06l0.08,-1.49l0.89,-0.45l1.46,0.18l0.47,0.44l0.35,0.39l-0.01,0.57l0.41,1.13l1.47,2.32l0.84,0.92l2.5,3.39l0.89,0.94l0.48,0.29l1.42,0.99l1.07,1.29l5.92,5.13l1.27,1.58l-0.23,0.42l-0.31,-0.24l-1.5,-0.42l-0.57,-0.07l-0.55,0.12l-0.52,0.33l-1.88,1.8l-0.29,-0.44l0.08,-0.13l-1.28,-1.25l-2.4,-1.93l-0.91,-0.26l-0.65,-0.64l-0.82,-1.55l-0.09,-0.26l0.07,-0.45l-1.34,-1.54L453.62,883.22zM455.49,832.43l0.04,0.16l1.09,0.15l0.61,-0.2l2.45,1.79l1.71,0.15l3.2,1.6l0.9,0.06l0.16,0.2l0.25,1.72l3.13,3.64l0.65,0.54l0.45,0.66l0.54,1.43l-0.15,0.91l-0.9,0.84l-0.65,0.19l-1.39,-0.57l-1.32,-0.93l-1.11,-0.43l-2.17,-0.08l-2.86,0.21l-1.25,-0.29l-0.7,-0.39l-1.27,-1.66l-0.53,-1.15l0.47,-1.22l0.32,-1.51l-0.5,-2.37l-0.29,-0.71l-1.17,-0.41l-0.92,0.17l-0.03,-0.24l-0.54,-0.52l-1.09,-0.36l-1.64,0.11l-0.37,-0.09l-0.58,-0.46l-0.38,-0.82l-1.39,-1.74l-0.56,-0.24l-0.22,-0.62l0.05,-0.14l0.35,0.01l0.99,0.38l3.19,-0.03l1.07,0.56L455.49,832.43zM445.22,756.67l-0.26,-2.06l-1.08,-2.66l-11.24,-27.55l-6.53,-16.25l-1.01,-2.56l0.98,0.02l0.34,1.36l1.75,0.02l0.02,-1.38l55.05,-0.28l0.55,0l0.16,-0.02l35.73,-0.15l0.02,24.68l0.52,0.01l0.12,10.92l0.64,9.44l0.32,4.63l-2.41,11.49l0,0.1l-2.57,7.85l-0.65,1.83l-0.5,1.72l-0.76,2.09l-2.46,-0.08l-2.68,4.06l1.48,2.7l-14.89,0.03l0,1.67l0,0.82l0,0.74l-0.01,0.05l0.01,0.08v0.33l-2.68,3.04l-1.33,0.01l-2.33,2.5l-0.33,2.02l-2.29,3.5l0.08,2.57l-1.91,1.38l-1.23,-0.89l-1.87,-0.66l-1.43,-0.3l-0.41,0.05l-0.53,1.28l0.31,1.21l0.18,1.73l-2.01,0.04l-3.95,1.21l-1.43,-0.31l-1.53,-0.11l-1.55,-0.42l-2.89,-1.8l-0.45,-0.42l-1.89,-0.42l-0.89,0.51l-1.13,-0.56l-1.33,-3.02l0.38,-0.67l1.42,-1.68l0.82,-0.38l0,0l0.22,-1.02l-0.05,-2.36l-1.59,-3.97l-2.29,-5.21l-1.4,-2.66l-1.71,-2.48l-0.11,-0.17l-1.43,-1.65l-1.29,-1.11l-1.82,-1.02l-2.01,-0.29l-2.65,0.24l-0.47,0.24l-4.52,-0.23l-0.55,0.13l-0.3,0.39l-2.07,0.36l-2.02,-0.31l-0.97,0.06l-2.97,0.98l-0.28,0.19l-1.39,1.69l-1.27,-1.18l-1.45,-1.26l-1.1,-0.62l-3.2,-0.46l-2.46,-0.62l-0.77,0.23l-0.53,-0.18l0.3,-2.73l11.72,-8.66l9.31,0l0.03,-6.7l2.71,0L445.22,756.67z"/>
		<path id="C06039" title="Madera" class="land" d="M329.64,517.07L328.83,517.57L326.78,517.7L325.86,519.16L324.5,519.86L323.68,519.11L322.49,519.73L322.05,520.45L321.17,520.8L320.37,520.62L318.22,520.77L317.25,520.98L316.55,520.54L315.37,520.16L313.54,518.88L312.29,519.25L311.26,518.28L310.07,515.81L308.4,514.65L307.35,514.17L306.96,514.1L306.01,513.04L305.01,512.26L304.67,510.5L304.33,508.13L304.52,506.42L303.45,504.76L302.52,501.73L301.35,500.24L301.28,499.17L300.96,498.81L300.52,497.94L298.68,496.93L298.37,496.49L298.01,495.94L298.35,495.65L298.13,494.54L303.14,489.55L308.53,488.16L309,487.5L310.22,486.84L312.27,487.22L316.47,485.25L317.58,484.13L322.37,483.1L325.43,483.41L329.65,482.72L331.92,482.68L335.88,481.2L358.25,458.63L366.77,458.56L366.77,454.35L369.52,454.33L369.55,451.13L371.94,451.12L371.98,444.77L393.15,423.67L394.74,426.87L396.23,427.43L400.31,429.83L401.67,427.68L407.4,427.96L409.79,430.88L411.94,432.73L412.76,436.56L414.46,437.97L414.32,440.59L415.24,442.31L394.87,462.7L392.9,464.85L392.9,466.1L391.91,466.41L392.64,467.44L391.13,468.89L391.76,470.64L391.37,472.48L392.05,475.24L391.41,475.74L391.49,479.02L390.67,480.46L389.17,481.45L389.07,482.67L387.17,484.44L385.52,483.34L383.59,483.28L383.45,484.69L381.43,484.85L380.96,487.08L380.67,488.19L379.65,488.16L378.96,486.8L379.21,485.51L377.91,484.34L377.11,484.67L376.61,486.39L374.74,485.01L373.85,485.01L373.12,487.56L375.52,488.82L373.88,490.35L373.57,492.66L370.34,491.99L369.92,494.43L369.09,496.26L367.69,494.66L366.14,495.08L366.2,497.54L363.72,497.67L359.89,501.68L359.75,503.27L360.4,503.76L358.96,505.04L358.48,506.48L357.4,506.64L356.1,508.87L356.21,510.67L354.56,512.02L354.24,513.18L353.5,513.38L352.1,512.15L345.09,513.9L338.86,515.31L337.75,516.63L333.76,515.59z"/>
		<path id="C06041" title="Marin" class="land" d="M147.9,391.38L147.86,391.54L147.96,392.62L148.21,393.29L148.44,395.08L147.79,396.58L147.23,398.94L147.36,400.18L147.61,400.6L148.62,401.33L150.06,401.75L150.81,402.45L151.17,403.21L151.17,403.56L150.54,404.14L150.08,403.88L149.35,403.85L148.06,405.32L147.94,405.51L147.94,406.05L148.14,407.07L148.69,407.39L148.79,407.77L148.29,408.15L147.23,407.99L146.95,408.25L146.95,409.01L147.68,409.68L148.24,409.68L148.87,410L149.35,410.79L149.32,411.56L150.38,412.39L151.17,412.45L151.87,413.37L151.95,413.66L151.04,414.61L150.11,414.84L149.17,414.29L148.67,414.39L148.47,414.84L148.49,415.31L149,418.34L149,418.37L148.8,419.06L148.74,419.04L148.46,418.93L147.77,419.12L146.77,419.38L145.43,419.13L145.37,419.12L144.32,418.58L143.41,418.01L142.45,416.49L140.69,415.77L139.38,414.23L137.39,413.16L136.4,412.07L135.13,411.37L133.43,411.17L133.15,411.18L132.27,411.69L131.57,412.41L129.67,411.36L129.24,409.84L128.93,409.3L127.56,408.35L126.68,408.11L125.36,406.81L124.7,405.05L124.27,404.35L122.42,402.39L119.71,400.45L117.74,399.61L113.3,398.96L111.98,399.28L110.78,400.1L110.05,401.19L110.01,401.66L110.18,401.99L110.44,402.49L110.62,402.81L106.79,402.57L107.06,402.12L107.39,401.91L107.76,401.74L109.23,398L111.66,391.06L112.34,388.56L112.58,387.05L112.53,386.08L112.22,384.94L111.32,383.82L111.24,382.71L111.11,382.33L109.27,379.32L109.12,378.89L109.17,378.69L109.64,378.9L111.07,378.38L111.18,377.61L110.42,375.93L109.7,375.42L109.07,374.44L108.87,373.82L108.43,373.21L109.03,372.23L111.26,371.13L114.38,371.55L115.51,370.71L116.22,371.13L128.7,381.88L130,381.87L131.67,382.95L134.31,383.57L135.73,384.41L139.21,384.44L140.05,383.66L141.75,383.82L142.73,386.46L143.72,386.59L146.18,389.18L146.58,390.56z"/>
		<path id="C06043" title="Mariposa" class="land" d="M310.01,437.7L310.03,437.68L310.01,437.66L310.55,436.65L310.61,435.4L312.24,433.74L313.29,434.36L315.54,433.26L314.51,431.57L314.75,428.71L315.96,427.91L319.74,427.25L321.79,425.04L324.27,425.06L325.79,423.11L325.94,422.53L327.3,422.63L328.7,422.97L331.17,422.13L332.67,420.56L334.87,419.3L337.28,420.59L346.39,425.17L353.2,424.98L363.67,421.57L377.92,414.29L390.14,420.54L393.15,423.67L371.98,444.77L371.94,451.12L369.55,451.13L369.52,454.33L366.77,454.35L366.77,458.56L358.25,458.63L335.88,481.2L333.27,477.77L328.8,475.8L326.2,473.65L325.8,470.76L324.2,468.65L323.2,466.33L318.04,457.92L318.69,456.06L316.83,451.69L315.88,450.88L315.33,448.63z"/>
		<path id="C06045" title="Mendocino" class="land" d="M122.4,318.77L102.41,318.55L102.39,319.93L98.12,319.83L98.15,322.81L87.94,322.89L80.25,323.06L80.27,325.97L70.18,325.85L68.88,326.85L68.49,327.79L67.53,326.82L66.89,326L64.56,323.89L63.96,323.43L63.45,323.43L62.39,322.32L62.28,321.84L61.99,321.47L59.42,319.39L59.11,319.38L58.75,319.23L58.38,318.34L58.19,317.25L57.79,316.57L55.61,314.49L53.88,312.55L52.74,312.14L52.56,310.95L52.67,310.27L51.7,308.52L52.16,308.43L52.46,308.27L53.05,307.55L53.84,306.23L54.93,303.55L55.41,301.88L55.46,300.91L55.16,298.32L53.66,293.27L53.04,291.59L51.92,290.18L51.77,289.8L51.44,287.68L49.99,285.03L49.62,284.83L48.91,283L48.73,280.51L47.92,277.83L47.06,277.13L46.69,276.39L46.85,275.92L46.75,275.11L46.11,273.02L46.31,271.87L45.65,270.44L45.28,269.94L45.03,268.25L44.96,267.47L45.27,266.35L45.3,263.68L45.85,259.74L47.32,255.19L48.21,253.48L48.64,252.28L49.57,249.16L49.51,248.46L47.96,244.01L48.26,243.51L48.35,242.32L48.04,238.49L47.55,236.08L46.35,233.42L45.08,232.68L44.71,232.19L44.55,231.43L44.28,230.62L44.05,229.26L44.12,226.88L43.92,224.94L43,221.3L42.84,221.1L40.71,219.96L38.69,218.2L38.11,216.98L38.06,216.4L36.96,213.53L35.04,212.27L34.45,210.74L33.11,208.25L31.89,207.19L29.73,204.36L66.68,204.3L66.68,206.79L113.74,206.68L114.29,209.99L115.6,210.86L114.63,212.98L112.5,213.73L112.2,219.04L111.72,219.99L112.78,221.22L113.46,224.69L113.4,229.69L115.39,229.68L115.37,233.62L116.92,233.6L117.49,246.44L117.1,251.53L113.53,251.36L113.53,252.79L106.7,252.56L103.78,254.07L103.79,259.14L103.01,259.12L102.86,263.6L104.31,263.61L104.25,266.48L105.73,267.95L105.74,270.7L107.13,272.13L107.14,276.47L108.3,276.45L109.08,278.58L109.05,280.64L107.67,280.62L107.69,282.12L105.56,284.95L105.12,286.83L102.65,286.8L101.48,296.87L103.63,297.62L104.33,299.06L104.32,301.9L106.49,304.32L109.68,304.25L110.39,305.67L110.37,309.25L110.97,310.63L112.58,311.35L112.59,313.83L115.48,313.71L116.83,314.3L116.77,315.75L120.98,317.21z"/>
		<path id="C06047" title="Merced" class="land" d="M335.88,481.2L331.92,482.68L329.65,482.72L325.43,483.41L322.37,483.1L317.58,484.13L316.47,485.25L312.27,487.22L310.22,486.84L309,487.5L308.53,488.16L303.14,489.55L298.13,494.54L293.75,498.95L294.77,499.67L294.37,501.14L294.37,503.37L289.33,503.35L269.07,523.73L267.92,522.63L251.9,514.5L251.03,511.73L248.6,508.77L248.26,507.16L245.72,507.43L244.72,505.84L246.2,502.55L243.86,500.45L244.84,498.88L243.85,496.36L245.5,495L245.59,493.29L246.76,492.93L246.65,492.26L243.89,490.22L245.05,489.5L246.06,486.99L245.33,485.86L265.57,465.52L264.66,465.17L264.34,463.48L264.88,462.44L263.3,461.44L264.01,460.34L268.1,458.18L310.01,437.7L315.33,448.63L315.88,450.88L316.83,451.69L318.69,456.06L318.04,457.92L323.2,466.33L324.2,468.65L325.8,470.76L326.2,473.65L328.8,475.8L333.27,477.77z"/>
		<path id="C06049" title="Modoc" class="land" d="M228.31,1.28L228.92,1.29L229.28,1.29L233.82,1.29L235.04,1.33L236.56,1.37L236.93,1.34L237.03,1.33L238.92,1.23L243.45,1.23L243.72,1.29L253.09,1.4L255.49,1.54L260.1,1.67L272.1,1.63L277.28,1.58L286.4,1.64L286.53,1.64L290,1.7L301.27,1.63L314.76,1.69L317.81,1.7L325.89,1.54L339.81,1.49L339.95,1.55L339.94,13.9L340.02,26.78L339.98,39.63L340.02,40.26L339.93,52.46L339.9,84.77L288.46,84.78L246.6,84.73L246.54,84.72L237.23,84.78L228.39,84.82L228.2,24.05L227.59,21.77L227.57,6.15L228.31,6.08z"/>
		<path id="C06051" title="Mono" class="land" d="M391.65,349.79L395.44,353.21L397.62,355.09L398.86,356.24L404.87,361.56L407.26,363.67L409.48,365.66L410.62,366.8L414.65,370.33L416.89,372.43L420.85,375.83L422.94,377.69L427.83,382.1L434.55,388.24L436.5,389.89L438.99,392.11L446.13,398.72L449.96,402.08L455.43,407.04L461.07,412.17L474.7,424.58L490.02,438.51L490.98,439.45L490.97,439.45L495.91,443.9L501.4,449.08L503.61,450.88L506.94,454L434.31,454.19L432.7,451.74L428.49,452.95L427.7,450.46L426.09,449.61L423.36,445.74L422.39,445.88L420.62,444.24L418.74,445.11L415.24,442.31L414.32,440.59L414.46,437.97L412.76,436.56L411.94,432.73L409.79,430.88L407.4,427.96L401.67,427.68L400.31,429.83L396.23,427.43L397.3,426.1L401.24,418.63L399.91,411.81L392.71,403.91L387.53,392.78L380.68,390.16L376.14,388.07L370.24,383.68L369.64,378.38L367.32,372.54L367.7,370.16L368.54,367.92L367.98,367.52L370.15,366.29L369.02,363.6L370.63,362.48L371.3,363.11L373.22,362.5L373.03,359.59L374.08,358.35L374.12,356.12L375.16,355.04L375.12,353.23L374.06,353.03L374.09,351.57L371.69,347.48L370.73,344.04L369.24,342.94L369.59,336.91L370.82,336.41L372.3,333L371.84,332.26L378.88,338.49L378.89,338.5L382.23,341.42L382.23,341.42L387.98,346.65L388.44,346.99L391.27,349.44z"/>
		<path id="C06053" title="Monterey" class="land" d="M323.39,614.26L320.58,614.25L320.54,614.29L249.27,613.8L236.11,613.7L235.31,612.85L232.9,611.02L231.45,609.02L230.96,608.01L229.9,607.55L228.93,606.91L227.18,605.14L227.26,604.07L227.09,603.36L226.39,601.89L225.33,597.11L224.03,594.27L223.38,593.67L221.81,592.93L220.13,592.42L218.9,592.25L218.52,591.91L217.3,589.52L217.39,589.19L217.11,588.12L216.03,587.46L215.12,585.97L214.86,584.83L214.28,583.43L210.38,578.55L207.53,575.76L202.7,572.69L201.37,572.05L200.61,572.17L200.09,572.04L199.11,571.32L198.39,570.47L198.11,569.55L197.14,567.89L195.38,566.82L194.32,565.52L193.84,564.09L193.98,561.93L193.02,560.23L193.23,559.7L193.3,557.98L193.19,556.87L193,556.43L192.33,555.84L192.09,554.84L192.3,553.79L191.47,551.11L190.57,549.34L190.23,548.09L190.41,547.01L190.45,546.1L190.07,545.59L189.99,544.63L191.22,544.5L191.44,544.31L190.93,540.99L190.16,540.37L189.61,540.26L189.47,540.6L189.02,540.56L187.84,539.71L187.38,539.03L188.01,538.81L190.23,535.43L190.47,533.92L190.63,533.65L191.15,533.63L191.6,533.86L194.19,536.28L194.28,536.99L194.46,537.02L195.64,536.73L196.47,536.1L197.89,534.29L198.68,532.87L199.21,531.69L200.03,529.24L200.6,526.24L200.71,522.78L202.05,517.63L201.8,516.56L200.42,513.35L200.33,513.16L202.15,509.87L203.16,510.02L205.36,507.53L207.66,507.57L208.33,507.35L210.35,508.11L212.13,507.11L213.17,509L214.55,513.06L221.57,519.58L227.44,524.36L226.54,525.99L227.28,528.87L230.14,530.05L235.25,532.3L237.78,538.02L239.07,542.52L240.7,546.24L246.88,550.25L260.6,568.66L262.26,568.84L264.53,566.72L267.72,566.42L270.94,566.25L274.26,567.35L275.98,569.75L278.18,571.63L281.66,575.02L283.73,575.04L285.38,572.6L284.56,569.68L283.37,567.64L282.75,566.29L284.11,566.25L286.51,567.95L287.58,568.9L287.72,571.08L291.57,574.99L290.7,575.53L289.43,578.37L288.09,578.7L288.43,581.19L289.34,581.78L289.88,584.04L292.47,585.26L293.59,584.65L294.4,585.77L294.23,587.47L298.23,590.82L302.99,593.33L303.09,594.22L305.22,595.39L306.51,597.24L308.45,596.6L312.15,597.71L312.41,599.22L314,600.26L313.96,601.59L315.6,603.09L318.63,603.22L321.14,605.89L319.9,608.98L321.04,610.97L322.88,611.39z"/>
		<path id="C06055" title="Napa" class="land" d="M177.77,351.89L177.65,354.1L175.99,360.17L178.88,364.56L180.28,368.25L176.73,371.25L173.82,371.25L170.2,373.84L169.85,376.82L170.61,380.72L169.58,383.55L168.59,386.97L165.6,386.95L158.75,386.91L155.24,386.9L154.37,386.9L157.12,386.69L158.04,381.59L157.46,377.97L156.52,377.61L155.88,375.41L154.54,374.61L155.31,372.33L152.79,367.98L150.46,366.21L151.21,365.03L149.82,363.94L149.07,362.11L147.38,360.6L148.73,358.79L148.5,357.84L146.44,357.29L144.91,356.18L143.74,353.63L144.45,353.06L143.81,351.24L137.03,346.39L135.9,343.52L137.3,341.12L136.85,339.76L137.62,338.49L137.37,336.75L149.97,333.04L153.68,326.86L154.67,326.38L153.95,325.11L155.05,323.32L156.49,323.51L156.94,322.04L156.29,320.38L154.6,318.23L155.28,317.38L156.04,318.54L158.75,320.19L160.59,319.19L163.53,319.78L165.72,324.71L166.45,328.12L167.6,329.6L168.64,333.95L173.02,339.21L172.75,341.49L174.03,340.9L175.85,344.99z"/>
		<path id="C06057" title="Nevada" class="land" d="M339.65,259.88L339.55,266.85L339.52,271.26L339.48,272.66L290.11,272.78L286.58,273.89L283.78,275.47L281.57,277.84L277.9,280.91L276.94,281.24L273.76,283.58L272.92,286.11L269.82,287.16L269.65,287.76L266.86,289.81L264.4,293.07L263.63,292.99L263.66,295.63L263.06,297.22L262.17,298.84L260.57,300.19L259.87,302.41L257.51,303.47L255.85,302.58L254.7,302.79L252.22,300.25L251.05,301.34L248.44,302.71L247.5,302.26L245.77,302.82L241.26,300.57L241.26,281.18L242.83,278.61L242.29,276.99L244.3,275.88L245.78,276.02L247.38,274.05L246.9,272.65L248.67,270.72L250.7,271.03L250.88,269.46L252.98,266.32L255.03,266.22L256.33,264.89L261.11,265.2L263.05,263.16L264.98,262.48L269.44,262.35L273.28,261.33L275.38,260.34L276.24,260.88L278.87,260.26L280.09,259.32L281.64,259.12L282.57,257.77L284.88,256.12L284.61,255.53L287,253.7L287.99,252.39L289.45,251.74L291.92,252.28L295.56,252.2L297.03,253.09L297.56,254.97L298.71,256.06L298.69,257.97L300.93,259.78z"/>
		<path id="C06059" title="Orange" class="land" d="M521.36,833.25L518.36,831.3L518,831.46L517.79,831.79L517.83,832.02L515.99,831.42L515.13,829.32L512.44,826.29L510.63,823.97L509.36,823.53L508.37,822.99L506.36,821.03L503.54,819.3L501.77,818.63L499.67,818.08L498.62,816.75L497.35,815.88L494,813.58L491.76,811.55L489.04,808.36L487.19,806.62L486.25,806.23L485.05,805.36L486.96,803.98L486.88,801.41L489.17,797.91L489.5,795.89L491.83,793.38L493.17,793.38L495.85,790.33L495.85,790.01L495.84,789.93L495.85,789.87L495.86,789.14L495.85,788.32L495.86,786.65L510.75,786.62L518.69,793L519.19,793.6L526.36,802.96L529.78,804.05L529.96,808.42L534.54,809.02L535.68,810.14L539.29,813.15L531.8,824.67L532.29,826.97L531.83,827.33L531.85,830.4L529.62,831.88L526.54,832.03L525.19,838.22L524.27,836.41L522.43,834.18L521.36,833.25z"/>
		<path id="C06061" title="Placer" class="land" d="M339.48,272.66L339.48,272.67L339.47,272.91L339.47,272.96L339.49,275.16L339.44,281.36L339.44,281.7L339.54,287.61L339.63,292.85L339.7,297.32L328.81,297.34L327.17,300.18L321.36,301.65L314.6,301.77L306.34,301.18L305.57,302.25L303.58,307.39L302.42,308.05L301.91,309.58L300.4,310.78L297.85,311.23L297.01,312.36L295.77,312.44L294.07,310.29L292.65,309.6L290.37,309.48L287.19,307.19L286.86,304.98L285.63,305.84L283.65,303.59L282.36,302.96L280.96,303.02L278.37,304.38L277.28,303.97L275.93,305.24L275.59,306.76L274.33,306.37L273.68,308.7L271.25,307.98L270.52,308.59L267.41,307.71L267.54,310.35L266.04,310.01L263.43,311.17L262.73,312.1L259.69,312.31L258.73,313.84L259.4,314.76L258.03,315.68L258.7,316.98L258.31,319.07L256.08,320.44L256.26,322.14L255.04,322.2L254.87,325.14L253.62,327.08L253.75,327.87L252.44,332.37L251.94,332.38L248.27,332.15L244.09,331.76L225.47,330.15L225.47,328.5L226.6,328.45L226.63,311.29L230.87,311.27L230.83,304.34L235.18,301L239.34,298.8L241.26,300.57L245.77,302.82L247.5,302.26L248.44,302.71L251.05,301.34L252.22,300.25L254.7,302.79L255.85,302.58L257.51,303.47L259.87,302.41L260.57,300.19L262.17,298.84L263.06,297.22L263.66,295.63L263.63,292.99L264.4,293.07L266.86,289.81L269.65,287.76L269.82,287.16L272.92,286.11L273.76,283.58L276.94,281.24L277.9,280.91L281.57,277.84L283.78,275.47L286.58,273.89L290.11,272.78z"/>
		<path id="C06063" title="Plumas" class="land" d="M256.9,244.73L255.29,242.38L252.27,241.65L252.29,238.8L250.85,238.8L249.62,237.38L249.61,235.93L248.14,235.95L248.12,234.5L246.72,234.46L246.55,231.93L245.12,231.93L245.1,230.48L243.67,230.49L243.49,229.1L242.15,229.08L242.13,227.62L240.77,227.74L240.84,226.35L238.38,224.83L238.26,223.42L237.19,223.4L237.2,221.94L235.77,221.94L235.75,220.47L235.02,220.43L234.97,218.96L233.5,218.96L231.06,217.36L231.13,214.46L229.67,214.47L229.66,213.02L231.13,212.99L230.39,211.56L230.45,208.64L231.18,208.65L231.19,205.76L230.45,205.74L230.48,202.91L231.95,201.43L231.95,199.27L233.34,199.29L234.53,195.86L233.77,195.86L233.79,193.59L231.6,192.9L231.63,189.27L229.13,189.25L228.83,186.56L231.92,184.43L234.63,182.49L235.7,177.38L235.77,173.89L233,170.42L228.68,169.52L225.51,165.3L225.3,161.3L224.45,159.68L237.54,159.71L258.07,159.59L258.07,178.74L259.61,178.74L259.61,180.92L262.51,180.9L262.52,182.31L266.96,182.32L266.88,183.76L268.35,183.77L268.31,185.23L271.24,185.21L272.69,184.48L272.69,180.23L274.13,180.21L275.6,178.77L275.62,177.3L278.53,176.6L278.47,174.26L280.24,174.21L280.97,172.74L283.88,172.75L283.9,173.51L289.62,173.59L290.36,175.04L291.88,175.79L295.43,175.82L295.43,178L297.59,178.02L297.6,178.76L300.51,179.49L300.53,180.93L301.99,180.92L302.67,183.83L304.87,183.84L305.52,186.74L307.75,187.49L308.44,189.71L310.67,190.39L310.64,191.5L313.57,192.2L313.57,192.93L318.68,192.97L320.86,193.67L320.86,195.88L323.73,195.86L323.63,200.2L324.36,200.21L324.37,203.14L325.82,203.15L327.27,207.63L328.71,208.27L331.5,210.55L331.49,213.47L332.21,213.47L332.23,216.38L331.56,216.38L331.58,225.08L331.36,227.92L330.67,227.94L330.04,230.88L328.59,230.86L328.54,233.73L305.48,233.64L304.02,233.85L289.47,233.87L289.01,235.87L287.48,236.83L284.71,233.88L283.24,233.63L282.11,232.53L278.8,233.51L277.58,232.5L277.01,229.8L275.35,229.94L272.75,226.82L270.88,228.52L268.75,229.41L267.87,230.62L267.88,234.33L266.71,237.23L264.43,239.61L262.08,240.53z"/>
		<path id="C06065" title="Riverside" class="land" d="M600.59,834.48L568.75,834.52L568.75,834.22L564.98,834.2L560.21,833.99L552.53,834.05L552.5,832.49L542.53,828.67L543.05,827.33L531.83,827.33L532.29,826.97L531.8,824.67L539.29,813.15L535.68,810.14L534.54,809.02L529.96,808.42L529.78,804.05L526.36,802.96L519.19,793.6L519,791.94L520.65,791.94L520.61,788.59L524.03,788.59L524.08,784.29L524.87,783.94L528.08,782.73L528.09,778.56L542.2,778.52L542.19,779.86L545.21,779.87L549.2,779.9L553.75,779.93L553.75,781.26L576.57,781.21L576.55,778.5L612.92,778.62L622.33,778.64L625.03,778.48L649.45,778.41L700.91,778.5L700.92,774.45L710.45,774.31L734.93,774.28L737.1,774.54L739.04,774.29L768.8,774.28L768.63,775L768.5,776.3L768.49,776.68L768.55,777.01L768.79,777.71L768.84,778.16L768.74,779.06L768.58,779.57L768.41,779.87L768.15,780.16L767.66,780.5L767.31,780.64L766.99,780.66L766.81,780.73L766.69,780.88L766.66,781.05L766.69,781.24L766.87,781.73L766.88,781.97L766.81,782.15L766.72,782.24L766.43,782.26L766.29,782.32L766.05,782.77L765.68,783.1L765.25,783.39L765.18,783.49L765.13,783.72L765,783.92L764.2,784.73L763.83,785.2L763.08,785.61L762.96,785.63L762.6,785.54L762.13,785.77L761.61,786.49L761.09,787.71L761.13,788.27L761.23,788.5L761.63,788.72L761.87,788.85L762.4,789.29L762.93,789.88L763.16,790.34L763.21,790.56L763.21,790.74L763.15,790.85L762.98,790.99L762.76,791.1L762.56,791.26L762.45,791.38L762.38,791.54L762.36,791.67L762.39,791.85L762.45,792L762.55,792.21L762.86,792.49L763.49,793.04L763.56,793.22L763.59,793.87L763.52,794.07L763.39,794.21L762.69,794.73L762.53,794.78L761.93,794.75L761.76,794.85L761.63,795.07L761.56,795.37L761.54,795.71L761.85,796.58L762.02,796.88L762.24,797.58L762.28,797.8L762.22,798.11L762.07,798.39L761.73,798.65L761.66,798.76L762.27,800.2L762.53,801.22L763.28,803.11L763.45,803.8L763.49,804.17L763.48,804.67L763.36,805.1L763.19,805.54L762.87,806.22L763.03,806.41L763.3,806.56L763.5,806.79L763.62,807.11L763.76,807.33L764.09,807.61L764.21,808.04L764.27,808.64L764.15,809.52L764.09,809.66L763.44,810.02L762.87,810.18L762.35,810.44L761.98,810.68L761.68,810.97L761.48,811.29L761.39,811.67L761.43,812.04L761.53,812.32L761.64,812.5L761.75,812.67L761.82,812.79L761.88,812.92L761.89,813.09L761.88,813.24L761.83,813.33L761.75,813.47L761.64,813.7L761.49,813.97L761.51,814.2L761.58,814.52L761.67,814.77L761.75,815.13L761.75,815.54L761.63,815.81L761.52,816.06L761.54,816.49L761.67,816.85L761.83,817.06L761.92,817.28L761.91,817.54L761.76,817.78L761.57,817.98L760.69,819.38L760.72,820.38L761.05,821.43L761.07,821.46L761.75,822.51L761.94,822.86L761.93,822.99L760.58,823.89L759.28,824.87L759.24,824.97L759.13,825.56L759.15,826.11L759.12,826.26L758.46,826.95L758.14,827.1L757.62,827.2L757.02,827.57L756.76,827.85L756.32,828.66L756.14,829.24L755.98,829.51L755.51,830.11L755.15,830.48L754.35,831.79L754.31,831.98L754.4,832.62L754.02,833.91L738.32,833.89L738.32,834.22L691.21,834.39L689.18,834.51L641.64,834.61z"/>
		<path id="C06067" title="Sacramento" class="land" d="M260.72,372.77L259.2,373.63L257.81,372.84L255.45,374.59L250.5,376.15L249.47,377.17L247.72,377.27L245.66,378.23L243.87,378.21L242.12,377.46L239.98,378.83L236.29,379.8L232.77,379.34L232.17,379.9L230.01,378.33L229.68,377.2L226.08,376.95L225.48,378.51L224.91,379.86L223.69,380.36L223.94,381.34L222.02,383.17L222.37,385.02L221.47,387.29L217.79,390.35L219.29,392.4L218.1,392.87L216.18,392.34L214.33,392.59L213.63,393.68L211.79,392.75L210.93,392.96L210.25,394.08L210.28,396.11L208.87,397.67L205.94,399.48L202.88,400.23L200.03,400.05L198.67,399.04L197.93,397.01L196.33,395.64L197.81,394.6L201.42,396.14L205.53,393.57L207.78,393.83L209.76,387.89L211.71,384.34L215.37,382.99L216.35,379.61L216.16,373.25L217.08,371.51L217.83,369.67L221.4,368.13L222.6,366.91L223,362.29L221.77,360.13L224.04,359.01L223.95,356.48L223.58,355.87L221.28,355.68L219.71,353.4L220.27,351.85L222.33,351.34L221.9,350.46L223.4,348.66L222.65,346.7L223.79,344.73L223.6,343.7L222.14,342.93L220.42,343.44L218.41,338.61L217.02,339.05L214.58,336.2L214.21,333.8L216.12,331.75L216.34,330.03L222.59,329.98L225.47,330.15L244.09,331.76L248.27,332.15L251.94,332.38L252.54,333.02L253.66,332.06L256.22,338.69L257.38,342.64L260.69,352.39z"/>
		<path id="C06069" title="San Benito" class="land" d="M224.15,501.52L225.12,500.44L227.08,500.91L227.97,499.89L230.57,502.6L246.2,502.55L244.72,505.84L245.72,507.43L248.26,507.16L248.6,508.77L251.03,511.73L251.9,514.5L267.92,522.63L269.07,523.73L293.35,547.84L293.86,547.84L293.9,563.07L288.77,564.41L287.26,566.31L287.58,568.9L286.51,567.95L284.11,566.25L282.75,566.29L283.37,567.64L284.56,569.68L285.38,572.6L283.73,575.04L281.66,575.02L278.18,571.63L275.98,569.75L274.26,567.35L270.94,566.25L267.72,566.42L264.53,566.72L262.26,568.84L260.6,568.66L246.88,550.25L240.7,546.24L239.07,542.52L237.78,538.02L235.25,532.3L230.14,530.05L227.28,528.87L226.54,525.99L227.44,524.36L221.57,519.58L214.55,513.06L213.17,509L214.29,507.3L218,508.51L219.62,508.7L219.76,507.42L223.2,504.09z"/>
		<path id="C06071" title="San Bernardino" class="land" d="M701.87,637.97L704.37,640.38L707.92,643.84L712.9,648.7L712.94,648.72L713.97,649.71L714.04,649.75L715.58,651.28L717.35,652.93L717.73,653.35L721.91,657.39L729.74,665.1L731.03,666.32L731.03,666.32L740.31,675.4L740.37,675.46L753.57,688.36L753.81,689.05L753.86,689.32L753.88,689.85L753.81,690.35L753.45,691.45L753.4,691.82L753.42,692.4L753.67,693.11L753.82,693.72L753.82,693.89L753.82,694.3L753.63,695.05L753.55,695.61L753.55,695.93L753.76,696.81L753.73,697.24L753.38,698.37L753.28,698.94L753.28,699.25L753.4,700.25L753.46,700.45L753.75,701.06L754.27,701.68L754.58,701.95L755.79,702.63L756.06,702.84L756.7,703.42L757.13,703.93L757.57,704.83L757.93,705.84L758.07,706.73L758.35,707.8L759.3,709.71L759.76,710.36L760.21,710.83L760.71,711.27L761.54,711.86L761.85,712.22L762.08,712.52L762.2,712.76L762.54,713.17L763.03,713.47L763.56,713.69L764.14,714L764.44,714.21L764.52,714.29L764.84,714.82L765.21,715.11L765.57,715.25L765.85,715.3L766.01,715.39L766.1,715.54L766.24,715.9L766.28,716.44L766.5,717.43L766.74,717.93L767.17,718.66L767.25,718.87L767.3,719.12L767.34,719.29L767.47,719.54L767.52,719.7L767.54,719.87L767.54,719.97L767.47,720.38L767.52,720.6L767.54,720.87L767.71,721.14L768.12,721.59L768.33,721.97L768.42,722.37L768.33,722.99L768.34,723.12L768.54,723.93L769.32,724.57L769.66,724.96L769.66,725.71L769.58,725.85L769.41,726L769.21,726.22L769.24,726.32L769.24,726.7L769.8,727.73L771.13,728.76L772.33,731.25L773.01,732.48L773.21,733.71L773.22,734.57L772.96,735.32L772.89,735.64L772.84,736.28L772.95,737.31L772.94,737.48L772.8,738L772.52,738.78L772.5,738.93L772.55,739.17L773.16,739.87L773.4,740.11L773.56,740.19L774.35,740.11L774.92,739.93L775.95,739.77L776.18,739.77L776.51,739.9L776.7,740.08L776.87,740.34L777.22,741.09L777.77,741.22L778.29,741.51L779.16,742.06L779.64,742.56L779.84,742.92L779.87,743.52L779.99,743.78L780.11,743.94L780.25,744.06L780.77,744.26L781.74,744.32L781.99,744.43L782.88,745.47L783.2,745.66L783.46,745.89L784.3,746.72L784.66,747.44L784.93,747.72L785.88,748.04L786.99,748.14L787.63,748.63L788.06,748.79L788.4,749L788.73,749.27L789.04,749.67L789.35,750.18L790.24,752.19L791.5,753.3L791.7,753.55L791.71,753.76L791.61,754.23L791.7,754.91L791.88,755.63L791.8,755.98L791.83,756.23L791.97,756.73L792,756.97L791.99,757.23L791.86,757.44L791.64,757.6L791.2,757.6L791.02,757.6L790.54,757.72L790.27,757.71L790.05,757.72L789.89,757.83L789.79,758.01L789.73,758.18L789.68,758.33L789.53,758.52L789.02,758.75L788.92,758.91L788.8,759.17L788.76,759.28L788.64,759.42L787.65,760.27L786.31,761.69L786.04,762.06L785.75,762.3L785.14,762.65L785,762.79L784.95,762.96L785.02,763.69L784.86,764.16L784.66,764.34L783.81,764.68L783.54,765.02L782.77,765.56L781.68,765.89L781.14,765.71L780.22,765.86L779.79,766.21L778.3,768.25L777.64,768.82L777.34,768.99L776.45,769.25L775.53,769.21L775.15,769.33L774.89,769.58L774.58,770.21L774.11,770.68L773.9,770.78L773.13,770.92L772.26,771.46L771.43,771.32L771.07,771.33L770.63,771.47L770.3,771.69L769.95,772.08L769.51,772.67L769.37,773.07L768.96,773.47L768.9,773.57L768.8,774.28L739.04,774.29L737.1,774.54L734.93,774.28L710.45,774.31L700.92,774.45L700.91,778.5L649.45,778.41L625.03,778.48L622.33,778.64L612.92,778.62L576.55,778.5L576.57,781.21L553.75,781.26L553.75,779.93L549.2,779.9L545.21,779.87L542.19,779.86L542.2,778.52L528.09,778.56L528.08,782.73L524.87,783.94L524.08,784.29L524.03,788.59L520.61,788.59L520.65,791.94L519,791.94L519.19,793.6L518.69,793L510.75,786.62L509.27,783.92L511.95,779.86L514.41,779.94L515.16,777.85L515.67,776.13L516.32,774.29L518.89,766.45L518.89,766.34L521.3,754.85L520.99,750.22L520.34,740.78L520.23,729.86L519.71,729.85L519.69,705.16L522.41,705.19L522.31,679.41L522.28,646.19L522.55,646.19L522.55,635.53L522.2,635.53L522.27,627.27L523.61,627.26L523.63,624.51L520.84,624.51L520.87,621.76L522.24,621.76L522.33,613.5L598.02,613.67L668.56,613.85L668.57,612.38L675.26,612.38L675.33,612.33L675.36,612.36L675.4,612.39L676.92,613.83L677.04,614L686.68,623.32L693.46,629.78L693.98,630.38L694.1,630.48L694.91,631.26L695.1,631.46L695.31,631.65z"/>
		<path id="C06073" title="San Diego" class="land" d="M550.89,879.19L549.48,872.54L548.51,870.5L547.25,866.84L546.82,865.11L545.81,862.51L543.42,858.63L543.18,858.24L540.95,855.1L540.14,854.1L536.78,849.06L534.91,846.5L532.15,843.05L528.91,840.16L527.06,838.92L525.19,838.22L526.54,832.03L529.62,831.88L531.85,830.4L531.83,827.33L543.05,827.33L542.53,828.67L552.5,832.49L552.53,834.05L560.21,833.99L564.98,834.2L568.75,834.22L568.75,834.52L600.59,834.48L641.64,834.61L641.95,866.82L640.25,866.83L640.25,882.43L640.25,898.64L640.06,898.64L640.02,908.47L639.31,908.54L638.5,908.65L631.94,909.23L606.53,911.65L599.87,912.33L582.13,914.04L576.67,914.65L575.29,914.72L569.09,915.41L566.29,915.64L561.96,916.11L561.5,916.16L560.84,912.39L560.88,910.44L560.59,908.46L560.38,907.71L558.8,904.65L558.11,903.62L557.22,902.73L556.25,902.18L555.96,902.08L554.7,902.18L553.87,902.6L552.92,903.67L552.16,903.85L551.46,901.05L551.27,898.68L551.44,896.92L551.66,896.23L551.47,893.13L551,891.65L549.47,889.91L549.38,888.33L549.45,888.01L550.01,887.24L550.7,887.47L551.03,887.13L551.38,886.51L551.73,885.15L551.51,882.79L551.05,879.95z"/>
		<path id="C06075" title="San Francisco" class="land" d="M153.25,414.73L153.25,414.73l0.23,0.8v0.88l-0.02,0l-1.21,0.03l-0.69,-0.29l-0.23,-0.54l0.6,-0.71l0.59,-0.38L153.25,414.73zM156.55,418.95l0.05,-0.4l0.61,-0.14l0.52,0.8l0.34,0.94l-0.3,0.65l-0.75,-0.36l-0.02,-0.51L156.55,418.95zM155.56,430.43l-0.19,0.01l-5.98,-0.01l-2.4,0.02l-0.31,-1.51l-0.22,-2.44l-0.2,-2.16l-0.19,-0.94l0.71,-0.73l0.96,0.04l0.55,-0.26l0.59,-1.96l0.6,0.21l0.5,0.39l2.92,-0.61l1.43,-0.04l0.72,0.56l0.99,1.45l0.73,5.41l0.44,0.26l0.18,-0.25l0.17,0.03l0.67,0.5l-0.38,1.41l-0.67,-0.25L155.56,430.43z"/>
		<path id="C06077" title="San Joaquin" class="land" d="M242.91,435.75L241.71,437.22L237.11,441.8L226.43,452.37L226.64,451.64L224.78,450.38L224.37,448.42L220.74,447.46L219.9,446.48L219.88,419.86L220.16,419.63L220.34,418.5L221.27,417.68L221.45,417.18L221.34,416.71L220.45,415.99L219.5,415.98L218.92,415.81L218.45,415.39L218.5,413.26L218.94,411.66L219.65,409.78L219.49,408.15L219.36,407.32L218.88,406.21L218.5,404.7L218.11,404.4L218.31,402.35L218.17,401.61L218.74,400.55L219.24,400.38L219.3,399.52L218.79,398.64L218.09,398.05L217.92,396.83L218.41,395.14L218.1,392.87L219.29,392.4L217.79,390.35L221.47,387.29L222.37,385.02L222.02,383.17L223.94,381.34L223.69,380.36L224.91,379.86L225.48,378.51L226.08,376.95L229.68,377.2L230.01,378.33L232.17,379.9L232.77,379.34L236.29,379.8L239.98,378.83L242.12,377.46L243.87,378.21L245.66,378.23L247.72,377.27L249.47,377.17L250.5,376.15L255.45,374.59L257.81,372.84L259.2,373.63L260.72,372.77L263.16,380.08L267.52,393.47L268.48,394.53L268.49,404.41L268.64,418.96L268.75,424.5L265.53,427.01L262.96,425.84L260.27,427.08L257.91,426.88L255.02,427.48L253.35,428.95L251.25,429.4L249.42,431L248.89,431.8L248.02,432.17L246.91,432.14L244.7,434.75z"/>
		<path id="C06079" title="San Luis Obispo" class="land" d="M312.5,694.05L306.12,689.7L301.64,689.2L300.27,689.56L297.11,691L295.55,690.59L291.01,692.34L289.87,690.95L290.56,688.28L291.05,685.46L291.33,682.79L291.36,681.21L291.25,679L290.88,676.95L290.22,675.47L289.7,674.7L288.82,674.18L288.4,674.3L287.85,674.2L286.94,673.49L286.02,672.5L285.61,672.31L284.84,672.05L283.29,671.82L282.17,671.88L281.71,672.17L281.55,672.69L281.61,673.51L281.27,673.58L279.84,672.72L279.3,671.89L277.82,671.21L274.63,669.38L273.9,669.19L272.59,667.38L270.76,665.3L270.76,664.73L271.34,662.49L272.09,660.95L273.04,657.85L273.39,656L273.43,654.69L273.13,651.65L272.89,650.68L271.69,648.15L270.76,647.02L269.9,646.37L266.93,646.59L266.6,646.47L266.21,645.93L265.16,645.32L264.65,645.43L262.55,645.28L260.83,643.02L258.72,640.86L258.19,640.66L254.98,636.97L253.09,632.8L252.51,632.1L251.74,631.57L249.96,628.8L248.25,628.07L247.76,628.3L243.46,626.79L241.82,625.84L240.84,625.14L240.47,623.7L239.96,623L239.33,622.53L238.56,621.44L238.47,617.73L237.76,616.14L237.18,614.84L236.11,613.7L249.27,613.8L320.54,614.29L320.58,614.25L323.39,614.26L324.92,614.26L324.94,620.19L324.94,630.79L333.26,630.77L333.21,639.07L334.6,639.09L334.58,640.37L335.94,640.38L335.95,641.7L337.33,641.7L337.32,643.11L338.76,643.11L338.68,644.49L340.09,644.52L340.09,647.27L349.13,647.31L349.12,655.58L354.58,655.62L354.57,663.82L365.58,663.92L365.55,672.16L374.29,671.68L373.73,680.34L379.15,679.95L379.14,681.32L380.53,681.35L380.53,697.81L373.86,696.77L368.36,693.07L362.11,690.97L355.31,689.07L351.34,685.97L347.74,684.98L345.58,683.29L341.99,683.07L336.78,680.29L333.5,678.23L332.24,678.19L330.75,679.03L329.88,679.77L329.22,679.73L328.69,680.18L328.59,680.7L327.24,681.46L326.05,682.94L325.59,685.08L323.69,686.32L321.56,686.43L319.75,686.49L317.25,687.21L315.37,689.89L316.54,692.23L317.18,695.73L315.03,696.39L313.4,694.67z"/>
		<path id="C06081" title="San Mateo" class="land" d="M155.56,430.43L155.42,430.51L155.85,433.27L156.88,434.9L156.78,435.85L156.6,436.04L155.87,436.23L155.97,437.28L157.56,438.39L158.34,439.41L158.09,439.85L157.18,439.53L156.95,439.6L156.55,440.39L157.96,441.66L161.24,441.81L161.42,442.16L161.39,442.51L162.15,443.3L165.48,443.56L166.31,444.19L166.89,444.98L167.01,445.08L167.51,445.49L168.38,446.2L169.21,446.89L170.58,447.01L170.7,448.44L172.75,450.21L173.73,450.5L174.2,450.35L174.93,449.85L175.63,450.26L175.89,450.61L176.78,450.09L177.28,450.84L179.45,452.75L177.1,453.86L176.26,454.74L175.95,455.11L175.57,455.08L174.86,454.76L174.15,454.76L173.73,454.97L173.17,455.1L172.79,455.49L172.26,456.04L171.9,456.38L171.4,457.03L171.05,457.73L171.15,458.45L170.79,459.19L170.95,460.3L171.08,461.13L170.85,461.95L170.37,462.83L170.15,463.68L170.53,464.9L171.1,465.93L171.54,466.57L171.53,467.46L171.29,467.86L171.39,468.55L172.08,468.73L172.76,469.18L173.12,469.81L172.98,470.29L173.23,470.55L173.83,470.86L173.99,471.28L173.95,478.09L167.03,478.12L167.02,480.54L161.24,480.83L163.15,488.5L162.13,487.63L161.53,487.46L160.83,487.72L160.26,487.73L159.75,487.53L159.61,487.2L159.75,486.24L159.69,485.75L159.21,484.96L158,483.86L157.84,483.08L157.43,482.2L156.5,481.39L155.62,481.22L155.12,480.81L154.51,479.98L154.34,477.7L154.21,477.14L153.68,476.41L153.42,475.58L153.48,474.9L154,473.23L154.8,466.36L154.83,464.22L154.18,462.71L153.1,461L151.53,456.81L151.35,454.33L150.88,452.49L149.66,450.79L149.32,450.56L149.01,450.73L148.55,450.98L148.28,451.13L148.21,451.15L148.18,451.17L147.67,451.35L147.62,451.32L147.24,451.06L145.9,448.55L145.68,447L145.91,446.26L146.05,446.15L146.13,445.56L145.8,443.24L145.86,441.84L147.08,440.97L147.44,439.75L147.65,436.66L147.44,432.55L147,430.45L149.4,430.43L155.38,430.44z"/>
		<path id="C06083" title="Santa Barbara" class="land" d="M320.73,781.72l0.08,-0.24l0.67,-0.53l0.67,-0.24l0.67,-0.02l0.99,0.44l0.98,0.13l2.19,-0.36l1.21,-0.92l0.31,-0.62l0.56,-0.11l0.35,-0.01l1.6,0.58l1.92,0.01l1.28,-0.43l0.83,-0.62l0.06,-0.26l0.33,-0.31l0.2,-0.04l0.91,0.18l-0.06,1.02l-0.29,0.33l-0.2,0.73l0.11,0.32l0.18,0.92l0.41,0.51l1.21,0.83l1.12,0.52l0.56,0.03l1.5,-0.41l0.42,0.08l-0.08,1.25l0.24,1.2l0.44,0.58l0.07,0.56l-0.26,0.17l-2.1,0.09l-1.29,0.48l-2.25,1.55l-0.11,0.18l-0.02,0.17l-0.08,0.11l-2.17,0.52l-1.6,0.1l-0.53,0.33l-0.28,0.48l-0.98,0.32l-3.63,-2.16l-0.78,-0.82l-0.83,-1.82l-0.19,-0.24l-0.48,-0.18l-0.11,-0.43l-0.72,-1.43l-1.16,-1.54L320.73,781.72zM356.09,776.36l1.47,0.21l0.36,-0.03l0.18,-0.17l0.63,0.04l1.24,0.69l1,0.13l1.07,0.43l0.61,0.52l1.4,1.65l3.76,0.61l1.42,-0.3l0.55,-0.44l0.61,-0.95l-0.35,-0.34l-0.03,-0.2l1.23,-1.14l1.53,-0.04l0.52,-0.31l2.86,1.14l0.69,0.64l-0.09,0.19l-0.82,0.68l-0.5,0.09l-0.28,0.27l-0.45,1.04l0.09,0.4l-0.57,0.71l-0.46,0.21l-1.17,-0.04l-1.12,0.58l-0.51,0.1l-1.71,0.13l-0.16,-0.16l-2.05,0.11l-1.17,0.17l-2.1,1.26l-1.3,0.28l-0.42,0.35l-0.18,0.37l-0.5,0.17l-1.68,-0.4l-0.58,0.01l-0.59,0.42l-2.91,-0.34l-3.61,-0.69l-2.36,-0.93l-0.29,-0.5l-0.46,-1.39l-0.14,-0.74l0.18,-0.26l0.43,-1.1l0.04,-0.79l-1.27,-1.24l-1.8,-1.19l-0.55,-1.02l0.32,-0.73l0.49,-0.02l1.67,0.43l2.61,0.14l2.42,1.07l0.55,0.63l0.84,0.08L356.09,776.36zM304.23,777.71l1.72,0.53l1.66,-1.41l0.27,-0.27l0.31,0.19l0.59,0.22l0.57,0.02l0.41,-0.17l1.29,-0.99l0.42,-0.47l0.02,-0.32l-0.12,-0.34l0.15,-0.14l0.46,0.32l0.56,1.28l-0.41,0.32l0.13,0.52l0.9,0.34l1.22,-0.23l0.94,0.66l0.45,0.5l0.85,1.2l-0.19,0.22l-0.96,0.22l-2.36,-0.12l-0.59,0.2l-0.2,0.27l-1.33,-0.35l-2.64,-1.24l-0.45,0l-0.29,0.3l-0.65,0.33l-2.06,-0.25l-0.42,-0.32l-0.44,-0.64L304.23,777.71zM312.5,694.05l0.9,0.61l1.63,1.72l2.15,-0.66l-0.64,-3.5l-1.17,-2.34l1.88,-2.68l2.5,-0.72l1.81,-0.06l2.13,-0.1l1.9,-1.25l0.45,-2.14l1.19,-1.48l1.36,-0.76l0.1,-0.52l0.53,-0.45l0.65,0.04l0.87,-0.74l1.49,-0.84l1.26,0.03l3.29,2.07l5.21,2.77l3.58,0.23l2.17,1.69l3.59,0.99l3.98,3.09l6.8,1.91l6.24,2.09l5.5,3.7l6.67,1.04l2.34,-0.01l0.01,40.66l0.14,2.2l-1.07,2.2l0.01,2.1l-1.86,1.71l-2.5,-0.85l-2.03,-0.86l-1.73,-1.67l-4.42,-0.71l-1.7,0.49l-0.76,-0.16l-1.79,0.12l-1.26,0.33l0.27,0.39l-0.55,0.48l-1.33,0.72l-1.56,-0.05l-1.24,-0.65l-3.11,-1.22l-0.69,-0.15l-3.16,0.17l-1.39,0.73l-1.56,-0.08l-3.95,-2.34l-2.41,-0.13l-1.2,-0.87l-2.78,-1.47l-2.37,-0.28l-0.91,0.17l-2.92,0.13l-0.66,-0.15l-1.63,-0.75l-1.75,-0.32l-3.26,0.28l-3.24,-0.02l-0.96,0.23l-1.52,0.06l-1.94,-0.08l-0.93,-0.21l-0.32,0.08l-0.2,0.25l-3.05,0.77l-7.75,0.68l-0.73,0.41l-1.54,-0.07l-0.4,-2.54l-0.29,-0.55l-0.78,-0.84l-1.61,-3.06l-1.03,-0.78l-4.36,-2.39l-2.09,0.03l-0.28,0.29l-0.81,-0.04l-1.17,-1.14l-0.61,-1.38l0.42,-2.18l1.17,-2.8l1.78,-5.37l0.12,-1.17l-0.09,-0.47l-1.02,-1.96l-0.88,-0.69l-0.85,-1.66l1.11,-3.49l0.51,-2.15l0.49,-2.47l-0.03,-1.44l-0.47,-0.8l-1.77,-1.28l-0.23,-1.28l-0.39,-0.65l-1.2,0l-0.61,-0.27l1.69,-6.58l1.14,1.39l4.54,-1.75l1.56,0.41l3.16,-1.44l1.36,-0.36l4.48,0.51L312.5,694.05z"/>
		<path id="C06085" title="Santa Clara" class="land" d="M218,508.51L218.01,506.58L214.65,504.54L213.03,505.32L212.4,503.57L211.46,502.25L209.37,501.87L209.21,500.25L207.47,499.25L205.88,499.77L207.41,498.1L206.06,497.35L204.57,494.1L200.44,492.15L199.29,490.4L186.42,484.94L184.5,482.88L181.48,478.35L178.81,477.33L173.99,471.28L173.83,470.86L173.23,470.55L172.98,470.29L173.12,469.81L172.76,469.18L172.08,468.73L171.39,468.55L171.29,467.86L171.53,467.46L171.54,466.57L171.1,465.93L170.53,464.9L170.15,463.68L170.37,462.83L170.85,461.95L171.08,461.13L170.95,460.3L170.79,459.19L171.15,458.45L171.05,457.73L171.4,457.03L171.9,456.38L172.26,456.04L172.79,455.49L173.17,455.1L173.73,454.97L174.15,454.76L174.86,454.76L175.57,455.08L175.95,455.11L176.26,454.74L177.1,453.86L179.45,452.75L182.24,454.45L185.99,453.78L187.65,454.42L189.81,453.76L191.47,455.02L196.85,452.11L226.38,452.34L225.29,452.97L227.13,455.3L226.38,458.02L228.26,461.08L230.12,460.89L231.01,461.3L230.15,464.26L231.27,466.98L231.53,468.87L227.42,471.64L227.68,474.81L228.76,476.58L230.23,477.42L232.02,484.36L233.24,484.25L233.17,482.9L235.48,481.13L237.49,482.86L239.86,482.81L241.14,481.16L242.59,483.48L244.49,483.66L245.33,485.86L246.06,486.99L245.05,489.5L243.89,490.22L246.65,492.26L246.76,492.93L245.59,493.29L245.5,495L243.85,496.36L244.84,498.88L243.86,500.45L246.2,502.55L230.57,502.6L227.97,499.89L227.08,500.91L225.12,500.44L224.15,501.52L223.2,504.09L219.76,507.42L219.62,508.7z"/>
		<path id="C06087" title="Santa Cruz" class="land" d="M184.5,482.88L186.42,484.94L199.29,490.4L200.44,492.15L204.57,494.1L206.06,497.35L207.41,498.1L205.88,499.77L207.47,499.25L209.21,500.25L209.37,501.87L211.46,502.25L212.4,503.57L213.03,505.32L214.65,504.54L218.01,506.58L218,508.51L214.29,507.3L213.17,509L212.13,507.11L210.35,508.11L208.33,507.35L207.66,507.57L205.36,507.53L203.16,510.02L202.15,509.87L200.33,513.16L199.01,510.41L196.35,505.4L194.97,503.61L193.85,502.49L192.94,501.81L191.12,500.92L190.39,500.93L189.45,501.57L187.83,503.23L187.59,503.24L186.97,502.79L184.78,502.23L183.93,502.46L183.63,503.52L181.87,503.77L180.61,503.79L179.61,503.55L177.56,503.05L174.89,501.23L173.78,500.66L171.32,498.49L169.84,497.48L166.29,493.11L165.65,491.85L163.77,489.04L163.15,488.5L161.24,480.83L167.02,480.54L167.03,478.12L173.95,478.09L173.99,471.28L178.81,477.33L181.48,478.35z"/>
		<path id="C06089" title="Shasta" class="land" d="M224.45,159.68L216.95,161.11L212.66,160.5L210.68,159.22L208,159.25L205.83,160.67L202.74,160.33L200.43,159.91L197.44,160.09L194.52,161.17L191.94,161.87L188.96,162.34L186.01,161.86L181.04,162.63L176.09,163.97L171.76,165.82L163.71,166.61L151.21,166.76L142.03,167.61L133.06,170.71L129.34,169.13L127.46,168.18L125.18,168.71L122.26,169.36L119.7,169.87L117.85,169.96L116.65,171.6L115.8,172.69L115.38,173.21L114.53,173.58L113.55,173.11L112.14,173.36L110.32,172.97L108.86,173.52L105.6,175.05L103.61,175.67L103.67,172.36L107.17,166.7L113.42,160.92L117.55,157.04L122.67,153.07L128.6,147.89L131.39,143.76L129.54,139.24L128.47,136.62L130.09,133.96L131.65,128.51L134.82,124.74L136.48,118.41L139.14,113.89L139.37,107.26L144.97,101.73L148.68,94.19L149.86,86.43L147.31,84.9L161.24,84.68L174.35,84.71L176.01,84.87L228.39,84.82L237.23,84.78L237.3,110.17L237.19,113.13L238.15,113.08L237.91,154.44L237.6,156.57L237.54,159.71z"/>
		<path id="C06091" title="Sierra" class="land" d="M339.75,250.55L339.65,259.88L339.65,259.88L300.93,259.78L298.69,257.97L298.71,256.06L297.56,254.97L297.03,253.09L295.56,252.2L291.92,252.28L289.45,251.74L287.99,252.39L287,253.7L284.61,255.53L284.88,256.12L282.57,257.77L281.64,259.12L280.09,259.32L278.87,260.26L276.24,260.88L275.38,260.34L273.28,261.33L269.44,262.35L264.98,262.48L263.05,263.16L261.11,265.2L260.15,252.98L259.05,252.72L258.32,250.73L260.93,248.54L262.08,240.53L264.43,239.61L266.71,237.23L267.88,234.33L267.87,230.62L268.75,229.41L270.88,228.52L272.75,226.82L275.35,229.94L277.01,229.8L277.58,232.5L278.8,233.51L282.11,232.53L283.24,233.63L284.71,233.88L287.48,236.83L289.01,235.87L289.47,233.87L304.02,233.85L305.48,233.64L328.54,233.73L338.67,233.62L339.79,232.25z"/>
		<path id="C06093" title="Siskiyou" class="land" d="M222.71,1.19L228.31,1.28L228.31,6.08L227.57,6.15L227.59,21.77L228.2,24.05L228.39,84.82L176.01,84.87L174.35,84.71L161.24,84.68L147.31,84.9L146.53,78.41L140.19,70.27L130.85,75.5L119.79,82.92L111.72,89.03L112.26,95.95L108.36,102.24L101.22,97.47L82.53,87.68L77.18,85.18L73.63,79.51L74.57,77.89L71.05,65.05L70.02,64.48L57.67,64.53L58.73,62.94L60.33,55.69L58.92,50.37L57.68,48.3L55.57,46.11L54.77,42.82L55.84,37.67L55.97,24.75L55.88,17.91L58.92,13.01L62.52,11.7L66.41,7.72L67.76,1.89L68.73,0.89L69.96,0.93L70.2,0.93L70.2,0.93L75.14,0.81L79.22,1.06L81.86,1.08L90.86,0.59L90.86,0.59L93.82,0.42L96.71,0.15L97.4,0.03L102.18,0.42L103.59,0.47L105.16,0.67L113.15,0.67L116.82,0.71L118.2,0.65L124.06,0.56L130.78,0.55L136.8,0.48L147.1,0.11L155.05,0.08L156.58,0L163.41,0.18L163.41,0.18L165.6,0.22L173.29,0.19L173.36,0.19L173.65,0.22L173.75,0.22L177.87,0.39L185.7,0.57L197.54,0.67L208.22,0.9L208.46,0.9L209.69,0.92L210.75,0.95L218.04,1.12z"/>
		<path id="C06095" title="Solano" class="land" d="M181.85,396.21L181.02,396.02L176.17,398.59L172.81,398.5L171.56,396.81L166.83,395.84L165.17,396.22L164.69,394.82L163.93,394L162.47,391.82L161.48,390.83L157.5,388.28L155.18,387.45L154.63,387.39L154.36,386.9L154.37,386.9L155.24,386.9L158.75,386.91L165.6,386.95L168.59,386.97L169.58,383.55L170.61,380.72L169.85,376.82L170.2,373.84L173.82,371.25L176.73,371.25L180.28,368.25L178.88,364.56L175.99,360.17L177.65,354.1L177.77,351.89L181.34,351.51L184.7,354.31L187.42,352.39L188.53,350.96L190.27,349.94L192.75,350.3L194.33,349.49L196.51,349.42L200.12,350.65L203.86,350.66L205.88,349.5L208.24,349.73L209.26,350.55L209.34,371.45L217.08,371.51L216.16,373.25L216.35,379.61L215.37,382.99L211.71,384.34L209.76,387.89L207.78,393.83L205.53,393.57L201.42,396.14L197.81,394.6L196.33,395.64L196.12,396.24L195.79,396.76L194.24,397.53L191.45,397.55L187.03,395.52z"/>
		<path id="C06097" title="Sonoma" class="land" d="M156.52,377.61L157.46,377.97L158.04,381.59L157.12,386.69L154.37,386.9L154.36,386.9L154.63,387.39L154.62,387.39L154.14,388.79L151.85,390.68L151.01,390.74L150.66,390.48L148.39,390.87L147.96,391.15L147.9,391.38L146.58,390.56L146.18,389.18L143.72,386.59L142.73,386.46L141.75,383.82L140.05,383.66L139.21,384.44L135.73,384.41L134.31,383.57L131.67,382.95L130,381.87L128.7,381.88L116.22,371.13L115.51,370.71L114.38,371.55L111.26,371.13L109.03,372.23L108.43,373.21L108.33,373.08L106.77,371.76L105.66,371.46L104.71,371.75L104.53,372.23L104.64,372.57L104.53,372.85L104.16,372.95L103.74,372.58L102.89,370.58L103.38,369.35L103.39,366.93L102.05,363.93L100.66,361.48L99.22,359.35L98.72,358.06L97.45,357.18L95.82,355.66L93.06,353.76L89.4,352.12L86.52,349.25L85.75,348.94L83.07,346.77L82.19,344.37L81.7,343.7L79.99,342.68L79.41,341.23L77.96,338.76L77.59,338.53L77.38,337.81L75.3,334.82L74.6,333.58L73.09,331.88L70.88,330.39L68.97,329.43L68.17,328.26L67.53,326.82L68.49,327.79L68.88,326.85L70.18,325.85L80.27,325.97L80.25,323.06L87.94,322.89L98.15,322.81L98.12,319.83L102.39,319.93L102.41,318.55L122.4,318.77L123.4,320.1L124.38,319.88L124.73,320.72L128.02,323.3L128.06,324.92L130.23,328.29L130.97,330.4L132.4,332.48L135.89,332.95L137.52,336.07L137.37,336.75L137.62,338.49L136.85,339.76L137.3,341.12L135.9,343.52L137.03,346.39L143.81,351.24L144.45,353.06L143.74,353.63L144.91,356.18L146.44,357.29L148.5,357.84L148.73,358.79L147.38,360.6L149.07,362.11L149.82,363.94L151.21,365.03L150.46,366.21L152.79,367.98L155.31,372.33L154.54,374.61L155.88,375.41z"/>
		<path id="C06099" title="Stanislaus" class="land" d="M237.11,441.8L241.71,437.22L242.91,435.75L244.7,434.75L246.91,432.14L248.02,432.17L248.89,431.8L249.42,431L251.25,429.4L253.35,428.95L255.02,427.48L257.91,426.88L260.27,427.08L262.96,425.84L265.53,427.01L268.75,424.5L268.64,418.96L268.49,404.41L268.48,394.53L272.36,399.26L275.62,402.59L281.87,409.54L282.5,410.6L289.58,418.48L310.01,437.66L310.03,437.68L310.01,437.7L268.1,458.18L264.01,460.34L263.3,461.44L264.88,462.44L264.34,463.48L264.66,465.17L265.57,465.52L245.33,485.86L244.49,483.66L242.59,483.48L241.14,481.16L239.86,482.81L237.49,482.86L235.48,481.13L233.17,482.9L233.24,484.25L232.02,484.36L230.23,477.42L228.76,476.58L227.68,474.81L227.42,471.64L231.53,468.87L231.27,466.98L230.15,464.26L231.01,461.3L230.12,460.89L228.26,461.08L226.38,458.02L227.13,455.3L225.29,452.97L226.38,452.34L226.43,452.37z"/>
		<path id="C06101" title="Sutter" class="land" d="M216.34,330.03L216.55,329.38L216.87,326.76L215.35,325.47L214.08,326.22L213.39,326.37L212.51,327.23L211.98,327.62L211.63,328.12L211.32,328.72L210.83,328.24L209.84,327.29L209.79,325.62L209.02,323.7L207.78,323.52L206.97,321.9L206.52,319.96L206.76,318.94L205.8,317.59L204.27,317.27L201.88,317.5L200.68,316.68L200.56,314.9L200.88,314.15L200.58,312.84L199.66,312.13L198.41,311.44L198.44,310.62L198.44,308.15L199.54,305.68L200.37,303.48L198.72,300.08L195.06,296.99L192.8,292.72L190.99,289.9L190.35,286.68L190.86,282.95L189.72,280.06L191.49,276.57L192.8,273.9L214.24,273.73L214.06,273.99L214.51,274.62L214.73,274.72L214.15,275.09L214.88,277.98L213.8,278.08L214.39,281.33L215.46,281.35L214.92,283.6L215.14,285.91L216.74,291.35L216.35,294.08L217.54,293.93L217.65,295.12L215.78,298.27L216.13,300.76L216.98,301.64L216.62,302.83L218.17,303.32L217.38,304.94L218.26,309.24L218.77,310.02L220.14,308.55L220.95,306.71L223.24,306L227.39,304.2L230.83,304.34L230.87,311.27L226.63,311.29L226.6,328.45L225.47,328.5L225.47,330.15L222.59,329.98z"/>
		<path id="C06103" title="Tehama" class="land" d="M113.74,206.68L112.38,204.66L112.01,202.49L112.52,201.27L112.29,198.5L110.71,196.71L111.65,194.46L110.68,191.45L111.07,190.54L109.45,189.89L109.89,187.23L110.96,185.79L110.19,182.94L110.38,180.26L107.22,178.1L104.7,177.58L103.61,175.67L105.6,175.05L108.86,173.52L110.32,172.97L112.14,173.36L113.55,173.11L114.53,173.58L115.38,173.21L115.8,172.69L116.65,171.6L117.85,169.96L119.7,169.87L122.26,169.36L125.18,168.71L127.46,168.18L129.34,169.13L133.06,170.71L142.03,167.61L151.21,166.76L163.71,166.61L171.76,165.82L176.09,163.97L181.04,162.63L186.01,161.86L188.96,162.34L191.94,161.87L194.52,161.17L197.44,160.09L200.43,159.91L202.74,160.33L205.83,160.67L208,159.25L210.68,159.22L212.66,160.5L216.95,161.11L224.45,159.68L225.3,161.3L225.51,165.3L228.68,169.52L233,170.42L235.77,173.89L235.7,177.38L234.63,182.49L231.92,184.43L228.83,186.56L229.13,189.25L227.9,192.24L225.74,192.21L224.97,193.65L223.45,194.41L217.61,194.41L216.88,195.12L216.9,198.7L214.55,200.53L213.77,201.9L213.83,204.81L213.01,206.24L208.6,206.07L206.9,207.8L205.29,210.65L204.95,213.82L202.91,215.65L200.83,216.07L182.27,216.13L182.58,216.52L180.38,220.45L181.31,221.64L180.8,223.44L182.15,224.74L115.45,224.56L115.45,224.66L113.46,224.69L112.78,221.22L111.72,219.99L112.2,219.04L112.5,213.73L114.63,212.98L115.6,210.86L114.29,209.99z"/>
		<path id="C06105" title="Trinity" class="land" d="M113.74,206.68L66.68,206.79L66.68,204.3L66.71,129.98L66.12,129.04L66.27,126.29L65.05,124.2L65.78,122.94L64.82,121.77L65.25,119.73L64.47,119.42L63.9,116.93L61.64,115.85L62.61,115.38L61.74,114.2L61.37,111.49L60.57,110.69L63.05,110.9L65.47,108.57L67.82,110.14L69.2,111.61L71.54,112.16L72.6,109.8L74.12,109.23L73.71,107.16L75,106.19L76.27,102.53L77.35,102.2L77.26,100.4L76.28,99.94L76.02,97.6L74.3,97.24L72.88,95.74L72.85,94.09L74.25,94.47L75.01,93.22L75.56,91.5L75.3,86.98L76.51,86.65L77.18,85.18L82.53,87.68L101.22,97.47L108.36,102.24L112.26,95.95L111.72,89.03L119.79,82.92L130.85,75.5L140.19,70.27L146.53,78.41L147.31,84.9L149.86,86.43L148.68,94.19L144.97,101.73L139.37,107.26L139.14,113.89L136.48,118.41L134.82,124.74L131.65,128.51L130.09,133.96L128.47,136.62L129.54,139.24L131.39,143.76L128.6,147.89L122.67,153.07L117.55,157.04L113.42,160.92L107.17,166.7L103.67,172.36L103.61,175.67L104.7,177.58L107.22,178.1L110.38,180.26L110.19,182.94L110.96,185.79L109.89,187.23L109.45,189.89L111.07,190.54L110.68,191.45L111.65,194.46L110.71,196.71L112.29,198.5L112.52,201.27L112.01,202.49L112.38,204.66z"/>
		<path id="C06107" title="Tulare" class="land" d="M400.47,614.14L375.49,614.23L375.52,600.48L375.62,581.2L376.18,581.2L376.16,568.65L380.38,568.73L380.36,556.16L376.21,556.12L376.33,547.78L372.79,547.78L381.01,539.54L393.45,539.67L393.49,531.36L418.14,531.7L418.32,523.61L451.26,523.85L453.23,523.31L466.25,523.31L467.74,527.39L470.8,535.85L474.74,543.27L477.53,551.65L483.06,558.64L484.9,568.48L489.24,578.96L490.65,590.05L494.19,599.52L493.38,612.54L493.43,614.27L488.83,614.04L458.22,613.94L454.95,614.22z"/>
		<path id="C06109" title="Tuolumne" class="land" d="M310.01,437.66L289.58,418.48L291.04,415.64L292.94,414.46L294.6,412.27L295.89,412.31L296.5,410.6L298.48,409.13L298.63,407.49L300.31,406.31L298.66,402.93L300.1,401.67L301,402.94L301.96,400.98L304.14,401.06L304.9,398.04L306.66,396.1L308.24,393.51L308.32,392.04L310.04,390.76L310.9,388.24L313.61,385.34L313.72,384.14L315.43,381.86L319.06,375.62L321.61,372.94L322.27,371.36L324.07,369.89L326.31,365.55L329.42,363.38L333.11,362.67L334.65,361.49L337.58,360.58L338.35,359.72L348.77,367.29L352.41,364.73L354.17,364.23L355.17,362.87L357.57,362.35L358.89,361.36L362.65,361.46L363.11,362.04L363.5,365.07L363.01,366.41L367.7,370.16L367.32,372.54L369.64,378.38L370.24,383.68L376.14,388.07L380.68,390.16L387.53,392.78L392.71,403.91L399.91,411.81L401.24,418.63L397.3,426.1L396.23,427.43L394.74,426.87L393.15,423.67L390.14,420.54L377.92,414.29L363.67,421.57L353.2,424.98L346.39,425.17L337.28,420.59L334.87,419.3L332.67,420.56L331.17,422.13L328.7,422.97L327.3,422.63L325.94,422.53L325.79,423.11L324.27,425.06L321.79,425.04L319.74,427.25L315.96,427.91L314.75,428.71L314.51,431.57L315.54,433.26L313.29,434.36L312.24,433.74L310.61,435.4L310.55,436.65z"/>
		<path id="C06111" title="Ventura" class="land" d="M375.05,847.98l0.84,-0.4l0.37,-0.02l1.78,1.11l1.72,0.81l1.32,0.43l0.56,0.42l2.23,2.43l-1.13,0.82l-1.58,0.34l-0.87,-0.01l-1.9,-0.46l-0.85,-0.23l-0.45,-0.34l-2.19,-0.61l-1.47,-1.29l-0.05,-0.24l-0.03,-0.24l-0.36,-0.47l-0.64,-1.92l1.3,0.69l0.52,-0.21l0.59,-0.63H375.05zM443.88,751.94l1.08,2.66l0.26,2.06l0.08,2.71l-2.71,0l-0.03,6.7l-9.31,0l-11.72,8.66l-0.3,2.73l-0.76,-0.26l-1.78,-1.08l-1.48,-0.57l-0.59,-0.03l-2.53,-1.56l-2.5,-0.68l-1.43,-0.73l-0.75,-0.09l-0.89,0.44l-1.57,-0.51l-2.26,-1.81l-2.24,-1.79l-1.12,-0.51l-0.63,-0.04l-0.4,-0.11l-0.87,-1.45l-0.72,-1.3l-1.53,-3.48l-0.68,-1.98l-0.33,-1.7l-0.65,-1.3l-0.95,-0.74l-0.86,0.2l-0.84,-0.27l-1.88,-1.38l-0.9,-1.28l-1.63,-1.4l-0.42,-0.15l-0.96,0.35l-0.17,-0.08l-2.88,-3.23l-0.25,-0.21l-0.37,-0.05l-1.94,-1.69l-0.9,-0.15l-0.43,-0.15l1.86,-1.71l-0.01,-2.1l1.07,-2.2l-0.14,-2.2l-0.01,-40.66l4.64,0.03l-0.02,1.99h8.13l-0.11,2.09l2.67,-0.03v4.06l20.57,0.19v2.01l7.35,0l6.53,16.25L443.88,751.94z"/>
		<path id="C06113" title="Yolo" class="land" d="M223.95,356.48L224.04,359.01L221.77,360.13L223,362.29L222.6,366.91L221.4,368.13L217.83,369.67L217.08,371.51L209.34,371.45L209.26,350.55L208.24,349.73L205.88,349.5L203.86,350.66L200.12,350.65L196.51,349.42L194.33,349.49L192.75,350.3L190.27,349.94L188.53,350.96L187.42,352.39L184.7,354.31L181.34,351.51L177.77,351.89L175.85,344.99L174.03,340.9L172.75,341.49L173.02,339.21L168.64,333.95L167.6,329.6L166.45,328.12L165.72,324.71L163.53,319.78L160.59,319.19L158.75,320.19L156.04,318.54L155.28,317.38L153.2,313.77L154.59,311.36L159.51,311.46L159.68,311.49L198.41,311.44L199.66,312.13L200.58,312.84L200.88,314.15L200.56,314.9L200.68,316.68L201.88,317.5L204.27,317.27L205.8,317.59L206.76,318.94L206.52,319.96L206.97,321.9L207.78,323.52L209.02,323.7L209.79,325.62L209.84,327.29L210.83,328.24L211.32,328.72L211.63,328.12L211.98,327.62L212.51,327.23L213.39,326.37L214.08,326.22L215.35,325.47L216.87,326.76L216.55,329.38L216.34,330.03L216.12,331.75L214.21,333.8L214.58,336.2L217.02,339.05L218.41,338.61L220.42,343.44L222.14,342.93L223.6,343.7L223.79,344.73L222.65,346.7L223.4,348.66L221.9,350.46L222.33,351.34L220.27,351.85L219.71,353.4L221.28,355.68L223.58,355.87z"/>
		<path id="C06115" title="Yuba" class="land" d="M214.73,274.72L215.65,272.4L219.34,273.79L221.83,272.51L225.3,272.56L226.2,270.98L228.35,271.25L231.4,270.34L234.07,267.88L234.79,264.02L237.03,261.85L236.21,259.14L237.11,257.53L238.54,256.82L239.27,254.64L239.29,252.47L241.47,252.4L241.45,253.14L244.29,253.12L244.27,251.77L248.54,251.76L250.53,252.47L251.25,248.92L251.92,248.22L254.56,247.73L254.52,245.93L256.68,245.93L256.9,244.73L262.08,240.53L260.93,248.54L258.32,250.73L259.05,252.72L260.15,252.98L261.11,265.2L256.33,264.89L255.03,266.22L252.98,266.32L250.88,269.46L250.7,271.03L248.67,270.72L246.9,272.65L247.38,274.05L245.78,276.02L244.3,275.88L242.29,276.99L242.83,278.61L241.26,281.18L241.26,300.57L239.34,298.8L235.18,301L230.83,304.34L227.39,304.2L223.24,306L220.95,306.71L220.14,308.55L218.77,310.02L218.26,309.24L217.38,304.94L218.17,303.32L216.62,302.83L216.98,301.64L216.13,300.76L215.78,298.27L217.65,295.12L217.54,293.93L216.35,294.08L216.74,291.35L215.14,285.91L214.92,283.6L215.46,281.35L214.39,281.33L213.8,278.08L214.88,277.98L214.15,275.09z"/>
	</g>
</svg>