<?xml version="1.0" encoding="utf-8"?>
<!-- (c) ammap.com | SVG map of CO Counties -->
<svg xmlns="http://www.w3.org/2000/svg" xmlns:amcharts="http://amcharts.com/ammap" xmlns:xlink="http://www.w3.org/1999/xlink" version="1.1">
	<defs>
		<style type="text/css">
			.land
			{
				fill: #CCCCCC;
				fill-opacity: 1;
				stroke:white;
				stroke-opacity: 1;
				stroke-width:0.5;
			}
		</style>

		<amcharts:ammap projection="mercator" leftLongitude="-109.060557" topLatitude="41.003598" rightLongitude="-102.041348" bottomLatitude="36.992182"></amcharts:ammap>

		<!-- All areas are listed in the line below. You can use this list in your script. -->
		<!--{id:"C08001"},{id:"C08003"},{id:"C08005"},{id:"C08007"},{id:"C08009"},{id:"C08011"},{id:"C08013"},{id:"C08014"},{id:"C08015"},{id:"C08017"},{id:"C08019"},{id:"C08021"},{id:"C08023"},{id:"C08025"},{id:"C08027"},{id:"C08029"},{id:"C08031"},{id:"C08033"},{id:"C08035"},{id:"C08037"},{id:"C08039"},{id:"C08041"},{id:"C08043"},{id:"C08045"},{id:"C08047"},{id:"C08049"},{id:"C08051"},{id:"C08053"},{id:"C08055"},{id:"C08057"},{id:"C08059"},{id:"C08061"},{id:"C08063"},{id:"C08065"},{id:"C08067"},{id:"C08069"},{id:"C08071"},{id:"C08073"},{id:"C08075"},{id:"C08077"},{id:"C08079"},{id:"C08081"},{id:"C08083"},{id:"C08085"},{id:"C08087"},{id:"C08089"},{id:"C08091"},{id:"C08093"},{id:"C08095"},{id:"C08097"},{id:"C08099"},{id:"C08101"},{id:"C08103"},{id:"C08105"},{id:"C08107"},{id:"C08109"},{id:"C08111"},{id:"C08113"},{id:"C08115"},{id:"C08117"},{id:"C08119"},{id:"C08121"},{id:"C08123"},{id:"C08125"}-->

	</defs>
	<g>
		<path id="C08001" title="Adams" class="land" d="M824.51,254.44L793.56,254.29L667.4,254.36L666.59,254.26L666.13,254.36L643.08,254.39L643.76,251.47L648.89,251.45L647.43,248.7L651.77,247.8L663.92,248.54L666.19,248.6L666.22,242.76L661.87,242.76L661.89,237.86L676.71,237.88L676.72,239.65L680.81,237.07L683.85,237.13L683.86,227.71L686.02,227.7L686.85,222.57L681.68,222.61L681.67,221.23L674.56,221.15L672.6,219.63L670.66,222.77L666.66,222.74L666.57,233.44L657.52,234.06L657.51,242.79L645.94,242.77L645.94,239.85L643.09,239.85L643.06,242.78L640.16,242.77L640.15,245.62L636.55,245.68L634.47,243.49L630.11,244.25L617.11,244.23L617.11,238.45L617.12,232.61L617.17,232.05L617.17,219.71L622.96,218.21L622.9,213.84L625.76,213.82L622.78,212.18L622.87,206.22L625.73,206.19L627.14,208.84L628.25,202.39L631.26,202.39L637.06,202.39L637.3,202.39L756.17,202.28L824.64,202.18z"/>
		<path id="C08003" title="Alamosa" class="land" d="M465.39,646.13L554.89,645.53L555.35,650.86L551.8,654.01L551.8,662.14L550.31,664.52L548.11,675.14L550.54,679.15L550.1,679.34L548.72,681.29L548.88,681.87L510.83,721.87L465.31,721.84L465.25,713.37z"/>
		<path id="C08005" title="Arapahoe" class="land" d="M666.13,254.36L666.59,254.26L667.4,254.36L793.56,254.29L824.51,254.44L824.43,289.03L823.31,289.02L677.58,289.11L625.27,289.07L624.99,289.04L617.81,289.07L616.97,289.07L617.08,278.05L619.95,276.78L621.41,276.63L619.96,275.63L620.38,270.95L622.88,270.27L622.89,266.65L625.33,268.8L629.4,268.84L632.1,271.77L635.83,271.76L638.67,274.62L638.66,277.5L638.88,277.47L638.91,277.47L639.35,277.48L639.39,277.48L639.64,277.49L639.73,277.49L639.87,277.51L640.09,277.54L640.34,277.55L640.44,277.56L640.45,277.56L640.47,277.56L640.57,277.56L640.81,277.52L640.81,277.52L640.83,277.52L640.92,277.52L641.16,277.52L641.54,277.51L641.56,277.51L641.84,277.51L641.99,277.52L642.28,277.5L642.31,277.5L642.4,277.51L642.44,277.51L642.51,277.51L642.6,277.52L642.98,277.52L642.98,276.92L642.99,276.53L642.99,276.44L642.99,276.08L643,275.66L643,275.1L643,275.05L643,274.73L643,274.7L643,274.66L643,274.63L643,274.6L643,274.56L643.01,274.5L643.03,274.49L643.06,274.47L643.23,274.37L643.34,274.29L643.36,274.29L643.65,274.11L643.74,274.06L643.74,274.03L643.74,274.01L643.74,273.99L643.74,273.96L643.74,273.96L643.74,273.92L643.73,273.86L643.74,273.84L643.75,273.57L643.75,273.18L643.76,273.16L643.76,273.15L643.75,273.05L643.75,272.81L643.76,272.76L643.78,272.21L643.77,271.75L643.78,271.75L644.1,271.75L644.18,271.75L644.18,271.75L644.22,271.79L644.36,271.91L644.36,271.96L644.37,272.07L644.37,272.34L644.38,272.64L644.38,272.64L644.39,272.95L644.39,272.96L644.39,273.06L644.38,273.5L644.48,273.43L647.3,271.72L647.36,271.68L647.37,271.67L647.48,271.53L647.68,271.39L647.72,271.36L647.96,271.23L648.3,271.11L648.51,271.07L648.57,271.06L648.7,271.04L648.77,271.03L648.78,271.03L648.86,271.01L648.81,271.01L648.79,271.01L648.78,271.01L648.76,271.01L648.76,270.98L648.76,270.92L648.76,270.81L648.73,270.8L648.71,270.8L648.67,270.79L648.67,270.54L643.09,267.42L641.98,263.08L645.96,263.08L643.08,254.39z"/>
		<path id="C08007" title="Archuleta" class="land" d="M397.95,791.73L394.21,791.74L376.26,791.9L376.26,791.89L374.49,791.86L374.47,791.86L369.45,791.84L367.25,791.87L355.71,791.99L337.35,792L336.19,790.52L252.47,790.54L252.47,790.54L243.1,790.54L243.04,709.16L297.48,709.11L297.47,715L361.84,714.26L361.84,712.72L366.83,712.84L366.83,746.59L379.3,753.06L380.57,763.6L395.98,787.65z"/>
		<path id="C08009" title="Baca" class="land" d="M1080.83,791.87L1078.94,791.87L1058.96,791.78L1055.25,791.75L1047.17,791.62L1032.62,791.6L1032.61,791.59L979.82,791.48L973.05,790.99L970.31,790.54L967.43,790.69L963.09,790.54L961.88,790.4L957.66,790.62L936.47,790.82L935.51,790.82L935.33,790.83L932.99,790.53L920.07,790.51L920.62,717.08L921.83,717.06L921.63,666.47L929.38,666.37L929.64,666.29L930,666.42L972.2,666.42L1080.93,666.3L1080.93,673.35L1080.88,683.01L1080.88,686.25L1080.87,687.4L1080.9,693.04L1080.9,700.11L1080.91,706.8L1080.92,706.83L1080.92,711.62L1080.93,715.62L1080.94,718.36L1080.85,722.64L1080.87,722.68L1080.9,731L1080.92,733.28L1080.87,740.89L1080.87,763.3L1080.85,766.52L1080.85,766.52L1080.9,769.03L1080.87,770.07L1080.88,783.81L1080.91,783.94L1080.88,784.37L1080.88,784.63L1080.88,785.79z"/>
		<path id="C08011" title="Bent" class="land" d="M871.06,666.44L871.17,637.58L871.16,631.68L871.75,631.68L871.73,545.48L973.01,545.18L973.29,631.48L973.08,631.54L972.14,631.6L972.2,666.42L930,666.42L929.64,666.29L929.38,666.37L921.63,666.47z"/>
		<path id="C08013" title="Boulder" class="land" d="M616.83,149.93L616.78,173.4L616.78,173.45L616.78,202.4L617.18,202.4L617.18,205.18L617.18,206.56L617.18,206.7L617.18,206.74L617.18,206.94L616.89,207.08L616.43,207.29L616.4,207.3L616.29,207.36L616,207.51L615.92,207.55L615.53,207.77L615.05,208.08L614.93,208.2L614.59,208.42L614.46,208.52L614.24,208.75L614.06,209L613.8,209.31L613.65,209.54L613.2,210.03L613.01,210.13L612.99,210.14L612.9,210.19L612.69,210.26L612.67,210.27L612.37,210.37L612.13,210.44L612.1,210.45L612.09,210.45L612.08,210.45L612.08,210.45L612.07,210.45L612.07,210.45L612.07,210.45L612.05,210.45L611.94,210.47L611.92,210.51L611.91,210.55L611.87,210.55L611.85,210.55L611.8,210.55L611.8,210.69L611.8,210.72L611.8,210.82L611.66,210.83L611.66,210.85L611.66,210.85L611.67,210.85L611.67,210.86L611.67,210.88L611.67,210.89L611.69,210.89L611.71,210.89L611.71,210.89L611.78,210.89L611.78,210.89L611.79,210.89L611.8,210.89L611.86,210.9L611.92,210.89L611.94,210.89L612.09,210.88L612.1,210.88L612.11,210.87L612.11,210.86L612.11,210.86L612.11,210.86L612.12,210.86L612.12,210.86L612.12,210.86L612.12,210.86L612.12,210.86L612.13,210.85L612.14,210.85L612.15,210.85L612.16,210.85L612.16,210.84L612.24,210.82L612.38,210.8L612.49,210.81L612.49,210.88L612.56,210.88L612.57,210.88L612.57,210.88L612.6,210.88L612.61,210.88L612.61,210.88L612.61,210.88L612.84,210.89L612.9,210.9L612.94,210.9L612.99,210.89L613.03,210.89L613.1,210.9L613.12,210.9L613.4,210.9L613.48,210.9L613.52,210.9L613.63,210.9L613.71,210.9L613.82,210.9L614.18,210.91L614.23,210.91L614.24,210.91L614.25,210.91L614.26,210.91L614.26,210.96L614.26,212.35L614.24,212.35L614.19,212.35L614.14,212.35L613.63,212.34L613.59,212.34L613.59,212.96L613.59,213.05L613.59,213.08L613.59,213.19L613.59,213.54L613.59,213.68L613.59,213.72L613.59,213.77L613.59,213.83L612.11,213.83L611.4,213.84L611.4,213.84L611.37,213.84L611.37,213.84L611.35,213.84L611.31,213.84L611.31,214.15L611.33,214.15L611.32,214.47L611.33,214.47L611.33,214.47L611.33,214.47L611.33,214.49L611.33,214.49L611.32,214.7L611.32,214.9L611.32,215.19L611.31,215.19L611.3,215.19L611.3,215.19L610.87,215.19L609.49,215.19L609.48,215.19L608.75,215.19L608.7,215.18L608.68,215.18L608.68,215.18L608.57,215.17L608.57,215.17L608.57,215.17L608.56,215.17L608.56,215.17L608.52,215.17L608.52,215.24L608.52,215.24L608.52,215.24L608.52,215.24L608.52,215.25L608.52,215.25L608.52,215.31L608.52,215.33L608.49,215.36L608.47,215.37L608.37,215.45L608.37,215.46L608.02,215.75L608.02,215.75L608.01,215.76L607.99,215.78L607.94,215.82L607.93,215.84L607.91,215.86L607.89,215.9L607.87,215.92L607.86,215.94L607.85,215.97L607.83,216.01L607.83,216.04L607.83,216.04L607.82,216.05L607.82,216.08L607.81,216.1L607.81,216.15L607.81,216.18L607.81,216.21L607.81,216.23L607.82,216.27L607.82,216.29L607.82,216.29L607.82,216.29L607.83,216.32L607.84,216.36L607.86,216.42L608,216.74L608,216.74L608.02,216.79L608.03,216.81L608.04,216.82L608.04,216.83L608.07,216.87L608.1,216.91L608.13,216.95L608.14,216.97L608.19,217.01L608.23,217.05L608.28,217.09L608.48,217.26L608.49,217.26L608.52,217.29L608.52,217.32L608.52,217.34L608.5,217.55L608.5,217.59L608.46,217.58L608.44,217.57L608.43,217.56L608.4,217.55L608.38,217.54L608.38,217.54L608.37,217.54L608.37,217.53L608.36,217.53L608.36,217.53L608.36,217.53L608.36,217.53L608.34,217.51L608.3,217.48L608.27,217.46L608.26,217.45L608.25,217.45L608.25,217.44L608.25,217.44L608.25,217.44L608.24,217.43L608.23,217.43L608.22,217.42L608.22,217.42L608.22,217.42L608.22,217.42L608.17,217.38L608.16,217.37L608.16,217.37L608.14,217.36L608.12,217.34L608.12,217.34L608.12,217.33L608.11,217.33L608.09,217.31L608.09,217.31L608.09,217.31L608.08,217.3L608.03,217.24L608.02,217.24L608.02,217.24L608.01,217.23L608.01,217.22L608.01,217.22L607.96,217.17L607.95,217.16L607.94,217.15L607.93,217.13L607.93,217.13L607.93,217.13L607.92,217.13L607.92,217.12L607.91,217.12L607.91,217.12L607.9,217.1L607.88,217.08L607.88,217.07L607.87,217.06L607.86,217.05L607.85,217.02L607.84,217L607.83,216.98L607.83,216.98L607.83,216.97L607.83,216.97L607.82,216.94L607.82,216.93L607.82,216.93L607.82,216.93L607.82,216.93L607.81,216.87L607.8,216.84L607.8,216.84L607.8,216.83L607.79,216.79L607.79,216.79L607.78,216.77L607.78,216.76L607.78,216.76L607.78,216.75L607.78,216.75L607.78,216.74L607.78,216.74L607.76,216.7L607.75,216.67L607.74,216.65L607.75,216.63L607.75,216.58L607.69,216.43L607.36,216.07L607.32,216.04L607.32,216.03L607.29,216L607.01,215.7L606.99,215.71L606.99,215.7L606.99,215.7L607,215.68L607,215.65L607.01,215.63L607.02,215.6L607.03,215.57L607.03,215.57L607.06,215.5L607.07,215.48L607.07,215.47L607.07,215.46L607.07,215.45L607.07,215.44L607.07,215.42L607.07,215.41L607.06,215.41L607.06,215.38L607.05,215.37L607.05,215.36L607.05,215.36L607.05,215.36L607.05,215.36L607.04,215.34L607.04,215.33L607.04,215.33L607.04,215.33L607.03,215.32L607.03,215.31L607.03,215.3L607.03,215.3L607.03,215.3L607.03,215.29L607.03,215.29L607.03,215.29L607.02,215.28L607.02,215.27L607.02,215.23L607.02,215.22L607.02,215.19L607.03,215.1L607.03,215L607.03,214.96L607.03,214.77L607.03,214.66L607.03,214.63L607.03,214.61L607.03,214.61L607.03,214.6L607.03,214.22L607.03,214.06L607.03,214.06L607.03,214.06L607.03,214.06L607.03,214.05L607.03,214.05L607.03,214.04L607.03,213.88L607.03,213.86L607.03,213.85L607.03,213.84L607.02,213.83L607.02,213.83L607.02,213.83L607.05,213.82L607.08,213.82L608.33,213.82L608.36,213.82L608.47,213.83L608.47,213.83L608.47,213.83L608.48,213.83L608.49,213.83L608.52,213.83L608.52,213.81L608.51,213.64L608.51,213.63L608.48,213.46L608.48,213.46L608.48,213.46L608.48,213.45L608.47,213.45L608.47,213.43L608.47,213.37L608.47,213.35L608.47,213.25L608.47,213.22L608.47,213.22L608.47,213.22L608.47,213.21L608.47,213.21L608.47,213.02L608.47,212.97L608.47,212.97L608.47,212.95L608.47,212.93L608.48,212.9L608.48,212.89L608.48,212.7L608.48,212.68L608.48,212.67L608.48,212.67L608.48,212.66L608.48,212.65L608.48,212.64L608.48,212.62L608.48,212.62L608.48,212.62L608.48,212.62L608.48,212.61L608.48,212.56L608.48,212.43L608.48,212.41L608.48,212.4L608.48,212.4L608.48,212.39L608.48,212.39L608.48,212.39L608.48,212.38L608.48,212.38L608.48,212.38L608.48,212.38L608.48,212.38L608.48,212.38L608.48,212.38L608.48,212.37L608.48,212.37L608.48,212.37L608.48,212.37L608.48,212.37L608.46,212.37L608.46,212.37L607.54,212.36L607.54,212.36L607.29,212.35L607.08,212.35L607.05,212.35L607.04,212.35L607.03,212.35L607.03,212.35L607.03,212.35L607.03,212.35L607.02,212.35L607.02,212.35L607.01,212.35L606.99,212.35L606.78,212.35L606.78,212.35L606.75,212.35L606.75,212.35L606.71,212.35L606.67,212.21L606.67,212.21L606.67,212.21L606.67,212.21L606.67,212.2L606.66,212.19L606.7,212.16L606.72,212.14L606.74,212.12L606.86,212.03L606.89,212.02L606.89,212.02L606.89,212.02L606.9,212.01L606.9,212.01L606.91,212L606.93,211.99L607.16,211.86L607.19,211.84L607.44,211.73L607.85,211.55L608.21,211.39L608.47,211.27L608.47,211.16L608.47,211.11L608.46,211.09L608.42,211.11L608.42,211.11L608.23,211.19L608.1,211.25L607.85,211.35L607.66,211.43L607.55,211.48L607.16,211.69L607.15,211.69L607.03,211.75L607.03,211.75L606.93,211.81L606.74,211.92L606.67,211.97L606.67,211.97L606.64,211.98L606.61,212L606.5,211.63L606.48,211.55L605.7,211.56L605.66,211.56L605.66,211.63L605.66,211.65L605.66,211.98L605.66,212L605.66,212.32L605.66,212.56L605.66,212.69L605.67,212.97L605.67,213.09L605.67,213.21L605.67,213.31L605.67,213.37L605.67,213.39L605.67,213.44L605.67,213.44L605.67,213.44L605.67,213.44L605.67,213.44L605.67,213.45L605.67,213.45L605.67,213.54L605.67,213.54L605.67,213.8L605.67,213.81L605.67,213.81L605.67,213.85L605.67,213.86L605.69,214.28L605.69,214.3L605.69,214.31L605.69,214.32L605.69,214.47L605.69,214.5L605.65,214.5L605.62,214.5L604.23,214.49L604.13,214.49L604.12,214.53L604.12,214.56L604.12,214.58L604.12,214.61L604.12,215.04L604.12,216.5L604.12,216.68L604,216.68L603.99,216.68L603.96,216.68L603.92,216.68L603.79,216.68L603.48,216.68L603.47,216.68L603.4,216.68L603.39,216.68L603.38,216.68L603.36,216.68L603.25,216.68L603.15,216.68L602.7,216.68L602.67,216.68L602.65,216.68L602.65,216.68L602.65,216.7L602.65,216.77L602.65,216.77L602.65,216.77L602.65,216.82L602.65,216.98L602.65,217L602.65,217.14L602.65,217.14L602.65,217.42L602.64,217.91L602.62,219.67L602.62,219.69L564.04,219.89L564.01,215.49L560.77,216.7L557.48,214.79L555.14,216.01L521.23,215.98L519,214.56L519.22,207.63L519.21,201.11L522.52,199.18L526.64,193.01L527.16,187.54L527.46,182.33L528.26,176.11L524.49,172.17L522.16,168.9L521.87,165.96L521.88,160.99L522.55,156.35L525.08,151.56L524.7,150.2L539.13,149.98L565.1,150.71L567.52,150.03L580.74,149.73L595.05,150.07z"/>
		<path id="C08014" title="Broomfield" class="land" d="M631.26,202.39L628.25,202.39L627.14,208.84L625.73,206.19L622.87,206.22L622.78,212.18L625.76,213.82L622.9,213.84L622.96,218.21L617.17,219.71L614.27,222.5L609.88,222.12L608.53,219.59L602.65,219.69L605.48,224.48L599.81,224.23L599.8,220.37L602.62,219.69L602.62,219.67L602.64,217.91L602.65,217.42L602.65,217.14L602.65,217.14L602.65,217L602.65,216.98L602.65,216.82L602.65,216.77L602.65,216.77L602.65,216.77L602.65,216.7L602.65,216.68L602.65,216.68L602.67,216.68L602.7,216.68L603.15,216.68L603.25,216.68L603.36,216.68L603.38,216.68L603.39,216.68L603.4,216.68L603.47,216.68L603.48,216.68L603.79,216.68L603.92,216.68L603.96,216.68L603.99,216.68L604,216.68L604.12,216.68L604.12,216.5L604.12,215.04L604.12,214.61L604.12,214.58L604.12,214.56L604.12,214.53L604.13,214.49L604.23,214.49L605.62,214.5L605.65,214.5L605.69,214.5L605.69,214.47L605.69,214.32L605.69,214.31L605.69,214.3L605.69,214.28L605.67,213.86L605.67,213.85L605.67,213.81L605.67,213.81L605.67,213.8L605.67,213.54L605.67,213.54L605.67,213.45L605.67,213.45L605.67,213.44L605.67,213.44L605.67,213.44L605.67,213.44L605.67,213.44L605.67,213.39L605.67,213.37L605.67,213.31L605.67,213.21L605.67,213.09L605.67,212.97L605.66,212.69L605.66,212.56L605.66,212.32L605.66,212L605.66,211.98L605.66,211.65L605.66,211.63L605.66,211.56L605.7,211.56L606.48,211.55L606.5,211.63L606.61,212L606.64,211.98L606.67,211.97L606.67,211.97L606.74,211.92L606.93,211.81L607.03,211.75L607.03,211.75L607.15,211.69L607.16,211.69L607.55,211.48L607.66,211.43L607.85,211.35L608.1,211.25L608.23,211.19L608.42,211.11L608.42,211.11L608.46,211.09L608.47,211.11L608.47,211.16L608.47,211.27L608.21,211.39L607.85,211.55L607.44,211.73L607.19,211.84L607.16,211.86L606.93,211.99L606.91,212L606.9,212.01L606.9,212.01L606.89,212.02L606.89,212.02L606.89,212.02L606.86,212.03L606.74,212.12L606.72,212.14L606.7,212.16L606.66,212.19L606.67,212.2L606.67,212.21L606.67,212.21L606.67,212.21L606.67,212.21L606.71,212.35L606.75,212.35L606.75,212.35L606.78,212.35L606.78,212.35L606.99,212.35L607.01,212.35L607.02,212.35L607.02,212.35L607.03,212.35L607.03,212.35L607.03,212.35L607.03,212.35L607.04,212.35L607.05,212.35L607.08,212.35L607.29,212.35L607.54,212.36L607.54,212.36L608.46,212.37L608.46,212.37L608.48,212.37L608.48,212.37L608.48,212.37L608.48,212.37L608.48,212.37L608.48,212.38L608.48,212.38L608.48,212.38L608.48,212.38L608.48,212.38L608.48,212.38L608.48,212.38L608.48,212.39L608.48,212.39L608.48,212.39L608.48,212.4L608.48,212.4L608.48,212.41L608.48,212.43L608.48,212.56L608.48,212.61L608.48,212.62L608.48,212.62L608.48,212.62L608.48,212.62L608.48,212.64L608.48,212.65L608.48,212.66L608.48,212.67L608.48,212.67L608.48,212.68L608.48,212.7L608.48,212.89L608.48,212.9L608.47,212.93L608.47,212.95L608.47,212.97L608.47,212.97L608.47,213.02L608.47,213.21L608.47,213.21L608.47,213.22L608.47,213.22L608.47,213.22L608.47,213.25L608.47,213.35L608.47,213.37L608.47,213.43L608.47,213.45L608.48,213.45L608.48,213.46L608.48,213.46L608.48,213.46L608.51,213.63L608.51,213.64L608.52,213.81L608.52,213.83L608.49,213.83L608.48,213.83L608.47,213.83L608.47,213.83L608.47,213.83L608.36,213.82L608.33,213.82L607.08,213.82L607.05,213.82L607.02,213.83L607.02,213.83L607.02,213.83L607.03,213.84L607.03,213.85L607.03,213.86L607.03,213.88L607.03,214.04L607.03,214.05L607.03,214.05L607.03,214.06L607.03,214.06L607.03,214.06L607.03,214.06L607.03,214.22L607.03,214.6L607.03,214.61L607.03,214.61L607.03,214.63L607.03,214.66L607.03,214.77L607.03,214.96L607.03,215L607.03,215.1L607.02,215.19L607.02,215.22L607.02,215.23L607.02,215.27L607.02,215.28L607.03,215.29L607.03,215.29L607.03,215.29L607.03,215.3L607.03,215.3L607.03,215.3L607.03,215.31L607.03,215.32L607.04,215.33L607.04,215.33L607.04,215.33L607.04,215.34L607.05,215.36L607.05,215.36L607.05,215.36L607.05,215.36L607.05,215.37L607.06,215.38L607.06,215.41L607.07,215.41L607.07,215.42L607.07,215.44L607.07,215.45L607.07,215.46L607.07,215.47L607.07,215.48L607.06,215.5L607.03,215.57L607.03,215.57L607.02,215.6L607.01,215.63L607,215.65L607,215.68L606.99,215.7L606.99,215.7L606.99,215.71L607.01,215.7L607.29,216L607.32,216.03L607.32,216.04L607.36,216.07L607.69,216.43L607.75,216.58L607.75,216.63L607.74,216.65L607.75,216.67L607.76,216.7L607.78,216.74L607.78,216.74L607.78,216.75L607.78,216.75L607.78,216.76L607.78,216.76L607.78,216.77L607.79,216.79L607.79,216.79L607.8,216.83L607.8,216.84L607.8,216.84L607.81,216.87L607.82,216.93L607.82,216.93L607.82,216.93L607.82,216.93L607.82,216.94L607.83,216.97L607.83,216.97L607.83,216.98L607.83,216.98L607.84,217L607.85,217.02L607.86,217.05L607.87,217.06L607.88,217.07L607.88,217.08L607.9,217.1L607.91,217.12L607.91,217.12L607.92,217.12L607.92,217.13L607.93,217.13L607.93,217.13L607.93,217.13L607.94,217.15L607.95,217.16L607.96,217.17L608.01,217.22L608.01,217.22L608.01,217.23L608.02,217.24L608.02,217.24L608.03,217.24L608.08,217.3L608.09,217.31L608.09,217.31L608.09,217.31L608.11,217.33L608.12,217.33L608.12,217.34L608.12,217.34L608.14,217.36L608.16,217.37L608.16,217.37L608.17,217.38L608.22,217.42L608.22,217.42L608.22,217.42L608.22,217.42L608.23,217.43L608.24,217.43L608.25,217.44L608.25,217.44L608.25,217.44L608.25,217.45L608.26,217.45L608.27,217.46L608.3,217.48L608.34,217.51L608.36,217.53L608.36,217.53L608.36,217.53L608.36,217.53L608.37,217.53L608.37,217.54L608.38,217.54L608.38,217.54L608.4,217.55L608.43,217.56L608.44,217.57L608.46,217.58L608.5,217.59L608.5,217.55L608.52,217.34L608.52,217.32L608.52,217.29L608.49,217.26L608.48,217.26L608.28,217.09L608.23,217.05L608.19,217.01L608.14,216.97L608.13,216.95L608.1,216.91L608.07,216.87L608.04,216.83L608.04,216.82L608.03,216.81L608.02,216.79L608,216.74L608,216.74L607.86,216.42L607.84,216.36L607.83,216.32L607.82,216.29L607.82,216.29L607.82,216.29L607.82,216.27L607.81,216.23L607.81,216.21L607.81,216.18L607.81,216.15L607.81,216.1L607.82,216.08L607.82,216.05L607.83,216.04L607.83,216.04L607.83,216.01L607.85,215.97L607.86,215.94L607.87,215.92L607.89,215.9L607.91,215.86L607.93,215.84L607.94,215.82L607.99,215.78L608.01,215.76L608.02,215.75L608.02,215.75L608.37,215.46L608.37,215.45L608.47,215.37L608.49,215.36L608.52,215.33L608.52,215.31L608.52,215.25L608.52,215.25L608.52,215.24L608.52,215.24L608.52,215.24L608.52,215.24L608.52,215.17L608.56,215.17L608.56,215.17L608.57,215.17L608.57,215.17L608.57,215.17L608.68,215.18L608.68,215.18L608.7,215.18L608.75,215.19L609.48,215.19L609.49,215.19L610.87,215.19L611.3,215.19L611.3,215.19L611.31,215.19L611.32,215.19L611.32,214.9L611.32,214.7L611.33,214.49L611.33,214.49L611.33,214.47L611.33,214.47L611.33,214.47L611.32,214.47L611.33,214.15L611.31,214.15L611.31,213.84L611.35,213.84L611.37,213.84L611.37,213.84L611.4,213.84L611.4,213.84L612.11,213.83L613.59,213.83L613.59,213.77L613.59,213.72L613.59,213.68L613.59,213.54L613.59,213.19L613.59,213.08L613.59,213.05L613.59,212.96L613.59,212.34L613.63,212.34L614.14,212.35L614.19,212.35L614.24,212.35L614.26,212.35L614.26,210.96L614.26,210.91L614.25,210.91L614.24,210.91L614.23,210.91L614.18,210.91L613.82,210.9L613.71,210.9L613.63,210.9L613.52,210.9L613.48,210.9L613.4,210.9L613.12,210.9L613.1,210.9L613.03,210.89L612.99,210.89L612.94,210.9L612.9,210.9L612.84,210.89L612.61,210.88L612.61,210.88L612.61,210.88L612.6,210.88L612.57,210.88L612.57,210.88L612.56,210.88L612.49,210.88L612.49,210.81L612.38,210.8L612.24,210.82L612.16,210.84L612.16,210.85L612.15,210.85L612.14,210.85L612.13,210.85L612.12,210.86L612.12,210.86L612.12,210.86L612.12,210.86L612.12,210.86L612.11,210.86L612.11,210.86L612.11,210.86L612.11,210.87L612.1,210.88L612.09,210.88L611.94,210.89L611.92,210.89L611.86,210.9L611.8,210.89L611.79,210.89L611.78,210.89L611.78,210.89L611.71,210.89L611.71,210.89L611.69,210.89L611.67,210.89L611.67,210.88L611.67,210.86L611.67,210.85L611.66,210.85L611.66,210.85L611.66,210.83L611.8,210.82L611.8,210.72L611.8,210.69L611.8,210.55L611.85,210.55L611.87,210.55L611.91,210.55L611.92,210.51L611.94,210.47L612.05,210.45L612.07,210.45L612.07,210.45L612.07,210.45L612.08,210.45L612.08,210.45L612.09,210.45L612.1,210.45L612.13,210.44L612.37,210.37L612.67,210.27L612.69,210.26L612.9,210.19L612.99,210.14L613.01,210.13L613.2,210.03L613.65,209.54L613.8,209.31L614.06,209L614.24,208.75L614.46,208.52L614.59,208.42L614.93,208.2L615.05,208.08L615.53,207.77L615.92,207.55L616,207.51L616.29,207.36L616.4,207.3L616.43,207.29L616.89,207.08L617.18,206.94L617.18,206.74L617.18,206.7L617.18,206.56L617.18,205.18L617.18,202.4L626.91,200.92L625.45,197.26L631.29,193.6z"/>
		<path id="C08015" title="Chaffee" class="land" d="M379.02,401.65L380.18,396.33L379.33,392.4L382.29,389.82L441.89,390.18L442.76,391.75L443.22,398.94L455.04,407.29L465.32,412.93L475.36,419.04L478.72,424.21L481.53,428.8L484.41,437.4L482.9,443.48L481.19,446.24L479.6,456.08L475.96,461.6L479.73,462.26L482.67,464.29L482.78,466.95L485.49,469.98L484.29,474.08L488.68,475.79L490.07,479.56L487.86,485.22L488.95,487.57L486.13,490.18L485.65,498.36L480.85,498.91L469.65,510.06L464.72,507.76L462.28,508.02L459.61,514.52L433.27,514.72L429.65,510.26L423.46,501.28L416.74,490.74L407.89,470.74L407.26,448.81L407.58,441.92L406.97,438.1L409.36,435.51L412.3,434.6L416.22,429.82L419.44,425.9L413.98,419.71L402.31,418.14L384.12,402.48z"/>
		<path id="C08017" title="Cheyenne" class="land" d="M1080.37,460.81L1080.38,462.59L1080.39,462.95L1080.38,465.21L1080.39,465.26L1080.39,466.31L1080.36,476.98L1080.36,477L1077.68,477.01L1077.48,476.9L1076.74,477L923.76,477.03L906.69,477.53L906.77,462.29L908.05,462.28L908.22,393.83L975.82,393.32L977.1,393.62L1080.16,391.97L1080.35,438.03L1080.35,440.78L1080.34,443.93L1080.35,446.56L1080.36,449.42L1080.35,449.65z"/>
		<path id="C08019" title="Clear Creek" class="land" d="M563.87,289.08L534.76,288.65L526.32,288.97L497.54,289.31L496.16,287.83L500.86,285.63L505.78,280.11L503.17,275.09L499.54,275.64L498.84,273.82L494.61,273.53L492.13,268.93L489.04,270.95L485.05,269.91L482.66,267.78L482.91,262.6L485.43,257.16L489.21,255.02L489.71,250.57L487.88,245.62L488.65,243.05L493.64,243.21L494.24,244.89L498.57,245.32L502.26,241.76L507.67,243.45L511.9,241.49L515.45,234.81L518.07,234.67L518.99,232.06L527.81,233.79L528.66,236.04L532.6,238.87L536.29,238L536.29,241.33L541.23,245.04L541.37,247.71L548.79,250.87L560.32,251.42L560.37,253.25L564.02,253.01z"/>
		<path id="C08021" title="Conejos" class="land" d="M514.66,791.34L471.9,791.43L471.69,791.43L470.28,791.44L440.28,791.67L433.16,791.65L433.01,791.64L426.14,791.72L418.46,791.65L397.95,791.73L395.98,787.65L380.57,763.6L379.3,753.06L366.83,746.59L366.83,712.84L396.15,713.23L396.15,713.66L465.25,713.37L465.31,721.84L510.83,721.87L509.31,724.41L511.62,729.19L511.64,731.62L514.41,734.72L513.82,737.72L510.39,742.63L511.21,744.21L510.46,748.6L512.92,755.84L511.65,758.74L512.67,760.51L509.99,764.6L509.94,768.99L511.22,770.7L506.7,778.8L506.62,782.52L510.34,787.71L513.12,787.67z"/>
		<path id="C08023" title="Costilla" class="land" d="M591.34,791.47L586.61,791.39L560.73,791.34L557.17,791.32L556.43,791.31L553.67,791.32L546.95,791.33L546.39,791.36L543.08,791.34L528.68,791.38L522.94,791.34L514.97,791.34L514.66,791.34L513.12,787.67L510.34,787.71L506.62,782.52L506.7,778.8L511.22,770.7L509.94,768.99L509.99,764.6L512.67,760.51L511.65,758.74L512.92,755.84L510.46,748.6L511.21,744.21L510.39,742.63L513.82,737.72L514.41,734.72L511.64,731.62L511.62,729.19L509.31,724.41L510.83,721.87L548.88,681.87L548.72,681.29L550.1,679.34L550.54,679.15L559.82,671.83L571.8,667.19L581.2,665.34L588.4,670.42L595.14,674.45L596.99,684.04L598.58,693L599.31,702.68L604.19,711.01L599.32,720.85L600.12,732.87L601.57,734.15L601.43,791.44z"/>
		<path id="C08025" title="Crowley" class="land" d="M856.05,545.56L854.78,545.53L854.88,563.62L837.95,563.83L837.97,575.16L809.66,575.32L808.29,574.28L804.64,575.16L803,573.2L799.55,572.15L794.62,572.81L792.75,571.11L793.03,572.58L789.49,573L783.27,571.5L780.14,568.67L775.91,569.78L770.35,568.7L770.33,546.38L770.89,546.17L771.02,495.2L838.92,495.17L838.92,496.08L855.61,496.37L855.25,530.47L856.06,530.46z"/>
		<path id="C08027" title="Custer" class="land" d="M617.63,613.68L615.58,613.39L615.14,608.09L612.32,605.92L608.6,608.25L605.91,606.74L603.83,600.23L601.83,598.77L602.53,596.19L599.34,593.55L595.34,595.77L594.96,598.71L592.14,602.97L587.02,606.55L583.14,615.19L581.5,616.78L576.69,609.14L567.24,613.56L561.61,618.53L552.44,617.47L547.96,612.23L546.6,609.08L543.18,605.96L539.02,606.6L535.38,603.62L535.75,602.06L532.24,595.54L533.35,594.58L528.72,584.13L524.31,579.26L521.16,568.76L521.66,566.23L503.97,550.05L502.58,545.56L617.73,546.94L617.88,572.35L617.51,575.07z"/>
		<path id="C08029" title="Delta" class="land" d="M240.19,466.52L201.92,466.57L201.61,466.61L104.96,466.61L104.93,434.94L141.55,419.7L142.07,415.84L144.68,415.61L148.6,410.16L148.71,405.2L155.01,398.48L165.26,390.81L166.03,389.43L176.12,388.65L177.64,389.26L185.12,385.49L193.76,388.46L199.4,392.7L203.64,388.19L206.16,388.37L207.55,385.3L211.1,384.04L212.44,381.45L219.06,373.19L229.91,365.4L233.61,365.3L233.6,362.83L240.2,358.18z"/>
		<path id="C08031" title="Denver" class="land" d="M617.08,278.05l-0.9,1.41l-5.16,-0.79l4.29,-0.38l-2.58,-1.46l-4.34,0.12l0.01,-1.63l5.09,-0.71l3.4,-2.6l-2.51,0.44l-1.59,-4.09l4.33,0.46l0,-24.59l13,0.02l4.36,-0.76l2.08,2.2l3.6,-0.06l0.01,-2.86l2.9,0.01l0.02,-2.93l2.85,0l0.01,2.92l11.57,0.03l0.01,-8.74l9.04,-0.61l0.09,-10.7l4,0.02l1.95,-3.14l1.96,1.52l7.1,0.08l0.02,1.38l5.17,-0.03l-0.83,5.12l-2.16,0.01l-0.01,9.42l-3.04,-0.05l-4.09,2.58l-0.01,-1.77l-14.81,-0.03l-0.02,4.9l4.34,0l-0.03,5.84l-2.27,-0.06l-12.15,-0.74l-4.33,0.9l1.45,2.75l-5.13,0.02l-0.68,2.92l2.88,8.69l-3.98,0l1.11,4.34l5.58,3.12v0.25l0.04,0.01l0.02,0l0.03,0.01v0.11v0.06v0.03l0.02,0l0.01,0h0.01l0.05,0l-0.08,0.01l-0.01,0l-0.06,0.01l-0.13,0.02l-0.07,0.01l-0.21,0.04l-0.34,0.12l-0.24,0.14l-0.04,0.02l-0.2,0.14l-0.11,0.14l-0.01,0.01l-0.06,0.03l-2.83,1.72l-0.1,0.06l0.01,-0.44l0,-0.1l0,-0.01l-0.01,-0.3v0l-0.01,-0.3l-0.01,-0.27l0,-0.11l0,-0.05l-0.14,-0.12l-0.04,-0.04l0,0h-0.08l-0.31,0l-0.01,0l0.01,0.46l-0.02,0.55l0,0.05v0.24l0,0.09v0.02l-0.01,0.02v0.39l-0.01,0.27l0,0.03l0,0.06l0,0.04v0.01l0,0.03v0.02v0.02l0,0.03l-0.09,0.05l-0.29,0.17l-0.01,0.01l-0.12,0.07l-0.17,0.1l-0.03,0.02l-0.03,0.02l0,0.06l0,0.03l0,0.03v0.04l0,0.03l0,0.04l-0.01,0.32l0,0.04l0,0.56l-0.01,0.42l0,0.36l0,0.08l-0.01,0.39l0,0.6l-0.38,0l-0.09,-0.01l-0.07,0l-0.04,0l-0.1,0l-0.02,0l-0.3,0.02l-0.14,0l-0.29,-0.01l-0.02,0l-0.38,0.01l-0.24,0.01l-0.1,0h-0.01h0l-0.24,0.04h-0.1h-0.02l-0.01,0l-0.11,-0.01l-0.24,-0.01l-0.23,-0.03l-0.14,-0.02l-0.08,0l-0.25,-0.01l-0.04,0l-0.43,-0.01l-0.04,0l-0.22,0.03l0.01,-2.88l-2.84,-2.86l-3.73,0.01l-2.71,-2.93l-4.07,-0.04l-2.43,-2.15l-0.02,3.62l-2.5,0.68l-0.42,4.68l1.45,0.99l-1.46,0.16L617.08,278.05zM612.75,275.4l0.12,0l-0.02,-0.18l-0.16,0.09L612.75,275.4z"/>
		<path id="C08033" title="Dolores" class="land" d="M2.59,697.17L2.64,694.22L2.82,688.29L2.83,688.28L2.84,674.07L2.79,671.46L2.8,670.27L2.77,662.08L2.85,653.33L2.85,652.95L2.87,647.71L2.8,645.81L2.89,636.09L2.85,629.15L2.85,627.94L2.83,621.97L2.86,620.35L36.92,620.41L37.51,617.55L123.8,617.77L126.66,621.27L128.33,627.67L131.09,632.04L136.35,629.78L141.67,629.83L145.96,625.38L149.35,628.34L153.05,626.2L154.28,628.15L158.53,625.33L164.95,625.11L167.39,629.59L170.87,629.17L172.89,631.71L175.4,631.51L179.84,635.59L180.81,638.93L184.72,640.86L184.55,644.64L182.44,647.97L182.2,652.34L178.48,651.82L172.96,655.01L170.58,654.19L168.08,656.19L169.44,666.62L167.89,667.21L146.66,667.37L138.47,668.05L56.53,668.77L22.05,668.7z"/>
		<path id="C08035" title="Douglas" class="land" d="M574.61,375.63L575.07,375.1L576.66,371.99L577.52,369.16L579.63,367.13L581.4,362.79L584.87,359.86L584.9,357.34L585.85,354.74L587.69,353.4L589.22,351.43L591.32,349.87L591.68,347.7L592.64,345.14L593.66,343.11L594.74,341.53L595.9,338.89L596.83,336.18L597.62,334.11L598.79,330.81L599.34,328.11L598.83,325.65L599.77,323.84L599.31,321.91L599.97,320.01L601.65,319.15L603.71,317.61L605.7,315.68L606.25,312.29L604.81,308.89L606.14,306.31L608.27,305.48L611.62,303.8L613.27,298.94L615.9,290.9L617.81,289.07L624.99,289.04L625.27,289.07L677.58,289.11L677.23,375.66L620.15,375.61z"/>
		<path id="C08037" title="Eagle" class="land" d="M439.47,326.12L436.56,326.12L434.42,328.89L427.57,332.05L424.71,329.79L416.17,330.98L409.6,325.86L405.62,329.65L299.82,328.81L299.79,218.64L312.06,218.68L359.6,218.34L374.81,218.73L374.81,217.51L404.39,217.48L405.37,226.03L404.47,226.99L405.76,233.36L407.85,236.72L411.94,249L415.2,251.98L418.39,250.62L421.19,255.77L425.36,258.3L426.5,261.59L430.86,262.83L431.53,266.42L434.54,266.33L435.14,269.97L437.86,271.45L442.99,271.93L444.13,275.21L443.95,280.52L439.11,282.44L438.19,287.26L439.62,290.64L438.7,296.22L436.74,296.01L434.84,292.55L431.9,295.89L433.35,299.68L431.39,303.36L433.22,303.94L432.55,309.16L436.93,315.51L436.1,319.17L440.14,322.65z"/>
		<path id="C08039" title="Elbert" class="land" d="M677.58,289.11L823.31,289.02L823.17,375.92L822.32,380.3L822.49,427.51L770.77,427.11L771.36,375.89L677.23,375.66z"/>
		<path id="C08041" title="El Paso" class="land" d="M634.32,495.75L634.18,470.18L634.71,441.28L614.2,440.79L615.04,426.98L620.86,427.1L621.16,395.36L620.15,375.61L677.23,375.66L771.36,375.89L770.77,427.11L771.32,461.45L771.14,462.74L770.98,495.06L771.02,495.2L635.64,495.61z"/>
		<path id="C08043" title="Fremont" class="land" d="M469.65,510.06L480.85,498.91L485.65,498.36L486.13,490.18L488.95,487.57L487.86,485.22L490.07,479.56L488.68,475.79L484.29,474.08L485.49,469.98L482.78,466.95L482.67,464.29L479.73,462.26L475.96,461.6L486.95,461.56L488.41,461.29L489.54,461.49L574.62,460.89L588.69,460.95L588.29,470.63L614.3,470.44L619.82,469.89L634.18,470.18L634.32,495.75L634.5,546.88L617.73,546.94L502.58,545.56L495.47,540.11L494.83,540.56L490.34,535.61L488.44,530.75L483.65,525.6L479.83,523.35L479.37,521.03L473.78,515.26L471.8,515.2L469.34,511.32z"/>
		<path id="C08045" title="Garfield" class="land" d="M1.46,328.69L1.37,302.68L1.42,270.28L25.34,270.27L25.34,272.3L77.87,272.33L77.86,263.67L172.75,263.5L172.76,237.45L196.06,237.44L210.38,236.43L250.8,236.78L250.82,218.92L268.21,219.47L268.48,184.27L311.54,184.11L311.54,201.84L312.36,201.87L312.06,218.68L299.79,218.64L299.82,328.81L250.93,328.79L165.57,328.79L28.68,328.77L28.43,328.72z"/>
		<path id="C08047" title="Gilpin" class="land" d="M564.04,219.89L564.03,234.23L564.02,253.01L560.37,253.25L560.32,251.42L548.79,250.87L541.37,247.71L541.23,245.04L536.29,241.33L536.29,238L532.6,238.87L528.66,236.04L527.81,233.79L518.99,232.06L517.55,224.16L521.23,215.98L555.14,216.01L557.48,214.79L560.77,216.7L564.01,215.49z"/>
		<path id="C08049" title="Grand" class="land" d="M370.87,113L376.73,124.15L385.77,127.31L391,124.49L398.45,126.15L403.88,132.09L411.9,131.89L420.42,134.36L425.48,132.97L432.29,132.5L440.68,136.79L451.61,134.59L471.73,129.5L480.53,127.44L487.58,108.1L493.65,104.73L500.98,107.09L501.23,112.47L499.49,117.25L503.5,122.39L503.53,124.88L507.08,130.22L511.91,132.87L513.03,135.15L517.25,137.35L519.02,140.51L520.87,148.66L524.7,150.2L525.08,151.56L522.55,156.35L521.88,160.99L521.87,165.96L522.16,168.9L524.49,172.17L528.26,176.11L527.46,182.33L527.16,187.54L526.64,193.01L522.52,199.18L519.21,201.11L519.22,207.63L519,214.56L521.23,215.98L517.55,224.16L518.99,232.06L518.07,234.67L515.45,234.81L511.9,241.49L507.67,243.45L502.26,241.76L498.57,245.32L494.24,244.89L493.64,243.21L488.65,243.05L487.88,245.62L489.71,250.57L489.21,255.02L485.43,257.16L482.91,262.6L471.87,265.56L469.3,265.12L462.61,258.02L461.32,250.28L458.8,244.96L458.35,241.12L451.05,233.62L448.28,234.54L444.95,233.4L440.42,229.65L435.62,222.3L432.49,219.52L425.91,218.68L425.93,219.67L410.4,219.66L410.43,217.55L404.39,217.48L374.81,217.51L374.81,202.08L373.2,202.03L373.93,133.88L370.76,133.88z"/>
		<path id="C08051" title="Gunnison" class="land" d="M229.72,568.55L230.71,566.3L226.61,548.58L223.11,546.38L219.49,538.36L240.29,538.35L240.19,466.52L240.2,358.18L242.7,354.75L247.83,355.65L251.03,353.7L251.14,350.38L256.54,350.57L260.1,354.02L258.88,355.57L259.27,361.92L262.83,367L268.21,368.59L271.76,370.89L273.79,377.8L307.08,377.78L314.28,383.6L317.76,387.56L318.87,390.99L317.05,392.91L319.14,395.17L322.85,395.62L322.73,397.79L325.82,398.4L331.71,402.81L336.08,402.38L338.6,399.39L340.88,403.82L343.9,405.65L347.81,405.53L355.59,396.16L355.9,392.86L361.91,391.86L364.27,390.26L365.76,392.29L370.35,392.48L373,397.46L377.11,402.15L379.02,401.65L384.12,402.48L402.31,418.14L413.98,419.71L419.44,425.9L416.22,429.82L412.3,434.6L409.36,435.51L406.97,438.1L407.58,441.92L407.26,448.81L407.89,470.74L416.74,490.74L423.46,501.28L429.65,510.26L433.27,514.72L317.2,514.16L317.12,568.58z"/>
		<path id="C08053" title="Hinsdale" class="land" d="M229.68,604.04L226.71,603.01L226.22,598.75L228.91,596L232.71,597.53L234.44,595.5L234.15,591.96L238.62,585.38L235.17,581.65L231.96,581.75L230.22,577.98L229.72,568.55L317.12,568.58L317.2,605.79L315.91,607.64L310.59,607.2L306.8,604.79L303.33,607.05L296.01,609.13L297.48,709.11L243.04,709.16L243.04,667.23L243.04,642.26L245.06,642.67L246.56,637.19L245.09,634.22L241.78,631.4L237.7,630.92L237.49,625.25L234.74,621.76L237.19,616.43L234.76,612.77L235.27,608.15L230.53,605.81z"/>
		<path id="C08055" title="Huerfano" class="land" d="M617.63,613.68L620.45,615.88L619.95,617.74L623.2,620.33L679.77,616.58L725.25,632.71L721.49,636.38L708.98,646.22L709.26,647.59L694.86,673.05L694.82,679.77L683.78,688.41L682.66,692.11L679.33,695.12L673.71,694.99L672.11,697.04L671.4,703.84L672.27,705.83L669.77,706.3L663.88,710.97L663.98,712.18L650.22,713.79L643.14,716.27L639,714.71L633.52,715.19L629.74,718.12L626.12,718.2L621.69,721.85L621.7,724.79L619.7,724.79L611.12,729.87L607.54,733.54L601.57,734.15L600.12,732.87L599.32,720.85L604.19,711.01L599.31,702.68L598.58,693L596.99,684.04L595.14,674.45L588.4,670.42L581.2,665.34L571.8,667.19L559.82,671.83L550.54,679.15L548.11,675.14L550.31,664.52L551.8,662.14L551.8,654.01L555.35,650.86L554.89,645.53L555.25,636.94L558.29,635.18L559.26,626.06L555.93,620.94L551.62,620.6L552.44,617.47L561.61,618.53L567.24,613.56L576.69,609.14L581.5,616.78L583.14,615.19L587.02,606.55L592.14,602.97L594.96,598.71L595.34,595.77L599.34,593.55L602.53,596.19L601.83,598.77L603.83,600.23L605.91,606.74L608.6,608.25L612.32,605.92L615.14,608.09L615.58,613.39z"/>
		<path id="C08057" title="Jackson" class="land" d="M339.2,0.16L401.41,0.28L403.61,0.3L403.94,0.33L404.93,0.34L410.96,0.46L411.8,0.47L421.84,0.88L437.8,1.16L441.96,1.19L442.41,13.35L445.4,17.28L450.27,20.7L451.76,27.19L454.61,28.47L455.71,32.46L462.42,37.82L469.66,53.24L472.75,56.04L473.04,59.6L475.59,62.6L475.64,65.22L479.26,73.33L480.23,79.93L482.05,80.52L483.43,87.31L485.03,88.55L485.92,94.84L485.49,98.83L491.46,97.77L494.05,100.63L493.65,104.73L487.58,108.1L480.53,127.44L471.73,129.5L451.61,134.59L440.68,136.79L432.29,132.5L425.48,132.97L420.42,134.36L411.9,131.89L403.88,132.09L398.45,126.15L391,124.49L385.77,127.31L376.73,124.15L370.87,113L369.9,108.69L368.56,97.89L363.9,87.23L363.92,76.02L367.02,64.21L368.86,51.66L372.85,43.69L369.73,35.99L369.29,29.95L363.47,24.53L355.99,22.37L350.17,20.37L346.49,18.33L341.53,15.97L337.81,9.9L339.51,2.05z"/>
		<path id="C08059" title="Jefferson" class="land" d="M612.75,275.4l-0.06,-0.09l0.16,-0.09l0.02,0.18L612.75,275.4zM611.01,278.67l5.16,0.79l0.9,-1.41l-0.11,11.02h0.83l-1.91,1.83l-2.63,8.04l-1.65,4.86l-3.35,1.68l-2.13,0.83l-1.32,2.58l1.44,3.4l-0.55,3.39l-1.99,1.93l-2.06,1.54l-1.69,0.86l-0.66,1.89l0.46,1.94l-0.94,1.81l0.5,2.46l-0.54,2.7l-1.17,3.3l-0.79,2.07l-0.93,2.71l-1.16,2.64l-1.08,1.58l-1.02,2.04l-0.96,2.56l-0.35,2.17l-2.1,1.56l-1.53,1.97l-1.84,1.34l-0.96,2.6l-0.03,2.51l-3.47,2.94l-1.78,4.34l-2.1,2.02l-0.87,2.83l-1.59,3.11l-0.46,0.53l-0.19,0l-10.38,0.02l-0.09,-46.34l-0.08,-40.24l0.15,-36.07l0,-18.78l0.01,-14.34l38.58,-0.2l-2.82,0.68l0.02,3.86l5.67,0.25l-2.83,-4.79l5.89,-0.1l1.34,2.54l4.39,0.37l2.9,-2.79l0,12.34l-0.04,0.56l-0.01,5.84l0,5.78l0,24.59l-4.33,-0.46l1.59,4.09l2.51,-0.44l-3.4,2.6l-5.09,0.71l-0.01,1.63l4.34,-0.12l2.58,1.46L611.01,278.67z"/>
		<path id="C08061" title="Kiowa" class="land" d="M1080.37,483.58L1080.38,488.07L1080.37,491L1080.39,494.93L1080.37,498.5L1080.37,498.53L1080.36,508.67L1080.42,515.32L1080.49,516.08L1080.42,522.22L1080.47,536.32L1080.47,544.82L1080.47,544.83L976.12,545.16L975.86,545.13L973.01,545.18L871.73,545.48L856.05,545.56L856.06,530.46L855.25,530.47L855.61,496.37L855.6,494.95L906.7,494.63L906.69,477.53L923.76,477.03L1076.74,477L1077.48,476.9L1077.68,477.01L1080.36,477z"/>
		<path id="C08063" title="Kit Carson" class="land" d="M1079.67,288.65L1079.71,294.47L1079.69,294.92L1079.69,300.98L1079.73,317.45L1079.73,318.46L1079.76,321.36L1079.8,327.3L1079.88,341.29L1080.06,374.18L1080.07,374.95L1080.08,375.63L1080.16,391.97L977.1,393.62L975.82,393.32L908.22,393.83L908.21,375.97L909.42,375.97L909.55,289.16L963.68,288.72L999.42,288.43L1002.32,288.16L1079.67,287.48z"/>
		<path id="C08065" title="Lake" class="land" d="M439.47,326.12L450.3,326.11L450.43,326.14L447.75,329.47L449.75,334.07L447.65,337.87L445.2,337.51L443.01,339.88L442.54,345.91L443.51,349.62L442.79,353.27L445.38,355.64L442.85,359.88L443.69,363.01L444.53,374.17L438.94,380.73L444.73,382.12L441.89,390.18L382.29,389.82L381.03,382.68L384.45,380.31L384.86,370.49L388.89,369.01L391.07,370.16L392.97,368.32L395.28,362.05L395.88,356.23L394.66,353.4L397.22,349.86L396.87,347.33L393.68,344.94L393.93,342.2L396.59,339.42L398.48,340.25L404.76,338.6L405.62,329.65L409.6,325.86L416.17,330.98L424.71,329.79L427.57,332.05L434.42,328.89L436.56,326.12z"/>
		<path id="C08067" title="La Plata" class="land" d="M243.1,790.54L163.19,790.55L124.88,790.74L124.69,790.63L118.92,790.63L118.87,790.64L113.93,790.64L113.89,790.64L104.89,790.65L106.03,784.96L108.53,785.64L108.69,783.18L111.73,780.13L113.84,771.89L115.45,770.44L115.47,765.86L118.6,760.91L117.48,757.64L118.56,747.55L121.58,746.47L125.2,742.48L128.53,735.47L129.45,735.25L132.92,722.13L146.98,717L147.11,712.4L151.27,706.03L155.12,706.29L157.37,703.51L159.74,676.62L167.89,667.21L201.7,667.07L202.84,667.22L243.04,667.23L243.04,709.16z"/>
		<path id="C08069" title="Larimer" class="land" d="M582.63,1.07L582.67,1.07L585.8,1.07L586.07,1.06L634.03,1.09L633.7,132.37L616.58,132.33L616.82,135.17L616.83,149.93L595.05,150.07L580.74,149.73L567.52,150.03L565.1,150.71L539.13,149.98L524.7,150.2L520.87,148.66L519.02,140.51L517.25,137.35L513.03,135.15L511.91,132.87L507.08,130.22L503.53,124.88L503.5,122.39L499.49,117.25L501.23,112.47L500.98,107.09L493.65,104.73L494.05,100.63L491.46,97.77L485.49,98.83L485.92,94.84L485.03,88.55L483.43,87.31L482.05,80.52L480.23,79.93L479.26,73.33L475.64,65.22L475.59,62.6L473.04,59.6L472.75,56.04L469.66,53.24L462.42,37.82L455.71,32.46L454.61,28.47L451.76,27.19L450.27,20.7L445.4,17.28L442.41,13.35L441.96,1.19L461.88,1.31L512.82,1.33L513.69,1.33z"/>
		<path id="C08071" title="Las Animas" class="land" d="M920.07,790.51L909.32,790.5L820.4,790.93L820.23,790.92L778.11,791.27L740.74,791.57L727.14,791.79L699.35,791.74L683.13,791.63L682.98,791.77L679.98,791.82L666.58,791.8L666.57,791.8L625.23,791.84L620.81,791.94L606.71,791.42L601.43,791.44L601.57,734.15L607.54,733.54L611.12,729.87L619.7,724.79L621.7,724.79L621.69,721.85L626.12,718.2L629.74,718.12L633.52,715.19L639,714.71L643.14,716.27L650.22,713.79L663.98,712.18L663.88,710.97L669.77,706.3L672.27,705.83L671.4,703.84L672.11,697.04L673.71,694.99L679.33,695.12L682.66,692.11L683.78,688.41L694.82,679.77L694.86,673.05L709.26,647.59L708.98,646.22L721.49,636.38L725.25,632.71L769.91,648.78L770.19,649.01L770.36,666.35L871.06,666.44L921.63,666.47L921.83,717.06L920.62,717.08z"/>
		<path id="C08073" title="Lincoln" class="land" d="M824.43,289.03L909.55,289.16L909.42,375.97L908.21,375.97L908.22,393.83L908.05,462.28L906.77,462.29L906.69,477.53L906.7,494.63L855.6,494.95L855.61,496.37L838.92,496.08L838.92,495.17L771.02,495.2L770.98,495.06L771.14,462.74L771.32,461.45L770.77,427.11L822.49,427.51L822.32,380.3L823.17,375.92L823.31,289.02z"/>
		<path id="C08075" title="Logan" class="land" d="M844.85,0.35L856.72,0.37L858.37,0.31L868.34,0.29L868.35,0.3L872.19,0.18L874.42,0.25L877.07,0.32L877.43,0.33L921.35,0.23L921.54,0.24L924.16,0.22L924.4,0.22L926.64,0.22L927.37,0.24L933.02,0.19L933.31,0.21L935.99,0.26L936.18,0.27L938.92,0.26L939.1,0.28L939.38,0.28L939.55,0.27L941.83,0.23L942.09,0.28L944.79,0.24L945.03,0.26L947.72,0.24L947.99,0.25L950.67,0.26L950.92,0.27L953.68,0.26L954,0.3L956.54,0.23L956.98,0.24L959.46,0.22L959.93,0.26L968.2,0.21L969.25,0.24L971.12,0.22L973.43,0.25L986.7,0.23L987.03,51.54L987.1,60.46L984.97,60.5L984.95,114.36L967.22,114.37L861.66,114.79L861.38,97.26L843.73,97.24L843.97,61.14L844.91,61.16L844.94,0.7z"/>
		<path id="C08077" title="Mesa" class="land" d="M0.04,499.59L0,480.11L0.11,456.43L0.44,441.56L0.93,425.9L0.97,420.11L0.99,419.93L1.08,412.6L1.07,412.52L1.2,401.25L1.35,376.34L1.46,328.69L28.43,328.72L28.68,328.77L165.57,328.79L250.93,328.79L250.99,332.35L245.53,337.53L247.74,341.02L253.75,343.52L255.92,342.88L258.9,348.04L256.54,350.57L251.14,350.38L251.03,353.7L247.83,355.65L242.7,354.75L240.2,358.18L233.6,362.83L233.61,365.3L229.91,365.4L219.06,373.19L212.44,381.45L211.1,384.04L207.55,385.3L206.16,388.37L203.64,388.19L199.4,392.7L193.76,388.46L185.12,385.49L177.64,389.26L176.12,388.65L166.03,389.43L165.26,390.81L155.01,398.48L148.71,405.2L148.6,410.16L144.68,415.61L142.07,415.84L141.55,419.7L104.93,434.94L104.96,466.61L104.97,499.16L104.9,499.59z"/>
		<path id="C08079" title="Mineral" class="land" d="M297.48,709.11L296.01,609.13L303.33,607.05L306.8,604.79L310.59,607.2L315.91,607.64L317.2,605.79L322.23,602.09L325.56,606.19L329.57,603.57L333.53,603.64L340.82,612.96L347.94,614.02L352.25,619.49L354.9,620.45L357.85,619.04L361.24,622.15L364.5,621.83L364.45,629.27L364.17,662.43L361.71,662.43L361.84,712.72L361.84,714.26L297.47,715z"/>
		<path id="C08081" title="Moffat" class="land" d="M175.85,0.29L220.94,0.27L260.71,0.08L268.35,0.1L268.91,81.71L260.08,81.71L260.11,93.4L251.25,93.44L250.75,135.23L249.13,135.25L249.63,157.65L249.63,158.24L240.97,158.33L218.09,157.48L216.58,157.63L201.52,157.56L199.55,157.8L145.86,157.99L1.43,157.79L1.43,113.18L1.53,102.95L1.47,101.96L1.59,93.9L1.57,93.81L1.88,77.88L1.85,70.93L1.83,69.11L1.72,58.6L1.82,36.01L1.57,0.57L27.12,0.68L66.09,0.67L82.18,0.78L86.18,0.68L124.69,0.68L135.38,0.61L156.12,0.28z"/>
		<path id="C08083" title="Montezuma" class="land" d="M2.22,718.36L2.59,697.17L22.05,668.7L56.53,668.77L138.47,668.05L146.66,667.37L167.89,667.21L159.74,676.62L157.37,703.51L155.12,706.29L151.27,706.03L147.11,712.4L146.98,717L132.92,722.13L129.45,735.25L128.53,735.47L125.2,742.48L121.58,746.47L118.56,747.55L117.48,757.64L118.6,760.91L115.47,765.86L115.45,770.44L113.84,771.89L111.73,780.13L108.69,783.18L108.53,785.64L106.03,784.96L104.89,790.65L67.85,790.69L67.75,790.68L16.3,790.76L15.61,790.75L2.31,790.72L2.32,776.57L2.34,776.2L2.35,773.94L2.32,772.05L2.32,769.51L2.32,769.03L2.33,769.01L2.2,756.47L2.2,751.74L2.27,750L2.26,742.59L2.19,742.46z"/>
		<path id="C08085" title="Montrose" class="land" d="M2.84,567.42L2.85,565.15L0.86,549.49L0.03,543.52L0.04,499.59L104.9,499.59L104.97,499.16L104.96,466.61L201.61,466.61L201.92,466.57L240.19,466.52L240.29,538.35L219.49,538.36L219.39,532.44L142.9,532.56L144.3,536.06L147.14,536.05L147.25,541.82L149.99,541.79L149.95,547.48L161.51,547.47L161.51,548.85L165.74,548.81L165.72,551.63L172.9,554.55L172.81,563.34L171.34,563.38L171.46,567.53L168.56,567.56L23.64,567.05L23.64,567.37z"/>
		<path id="C08087" title="Morgan" class="land" d="M843.73,97.24L861.38,97.26L861.66,114.79L861.77,132.2L860.79,132.23L860.64,202.15L824.64,202.18L756.17,202.28L756.14,132.13L756.6,132.13L756.54,97.04z"/>
		<path id="C08089" title="Otero" class="land" d="M871.17,637.58L871.06,666.44L770.36,666.35L770.19,649.01L769.91,648.78L769.79,631.7L770.07,631.64L770.35,568.7L775.91,569.78L780.14,568.67L783.27,571.5L789.49,573L793.03,572.58L792.75,571.11L794.62,572.81L799.55,572.15L803,573.2L804.64,575.16L808.29,574.28L809.66,575.32L837.97,575.16L837.95,563.83L854.88,563.62L854.78,545.53L856.05,545.56L871.73,545.48L871.75,631.68L871.16,631.68z"/>
		<path id="C08091" title="Ouray" class="land" d="M203.59,615.63L204.44,610.86L201.96,606.36L197.37,604.84L194.79,599.47L186.53,598.68L186.52,595.56L180.27,594.98L178.66,592.13L180.5,588.32L179.65,586L180,574.65L170.75,574.62L170.72,568.99L168.56,567.56L171.46,567.53L171.34,563.38L172.81,563.34L172.9,554.55L165.72,551.63L165.74,548.81L161.51,548.85L161.51,547.47L149.95,547.48L149.99,541.79L147.25,541.82L147.14,536.05L144.3,536.06L142.9,532.56L219.39,532.44L219.49,538.36L223.11,546.38L226.61,548.58L230.71,566.3L229.72,568.55L230.22,577.98L231.96,581.75L235.17,581.65L238.62,585.38L234.15,591.96L234.44,595.5L232.71,597.53L228.91,596L226.22,598.75L226.71,603.01L229.68,604.04L218.49,604.05L219.05,612.63L210.16,618.16z"/>
		<path id="C08093" title="Park" class="land" d="M563.95,329.32L564.04,375.66L574.42,375.63L574.77,425.9L574.63,427.08L574.66,427.34L574.62,460.89L489.54,461.49L488.41,461.29L486.95,461.56L475.96,461.6L479.6,456.08L481.19,446.24L482.9,443.48L484.41,437.4L481.53,428.8L478.72,424.21L475.36,419.04L465.32,412.93L455.04,407.29L443.22,398.94L442.76,391.75L441.89,390.18L444.73,382.12L438.94,380.73L444.53,374.17L443.69,363.01L442.85,359.88L445.38,355.64L442.79,353.27L443.51,349.62L442.54,345.91L443.01,339.88L445.2,337.51L447.65,337.87L449.75,334.07L447.75,329.47L450.43,326.14L456.4,326.47L462.66,330.33L467.92,329.68L468.47,325.77L472.4,321.71L478.74,319.18L476.42,314.53L479.9,313.96L480.75,310.46L484.91,310.81L487.94,305.36L489.93,305.44L493.81,301.29L491.63,298.26L493.08,295.87L495.12,297.49L498.42,296.14L499.63,292.49L497.54,289.31L526.32,288.97L534.76,288.65L563.87,289.08z"/>
		<path id="C08095" title="Phillips" class="land" d="M1079.44,51.51L1079.42,62.04L1079.37,94.32L1079.4,97.9L1079.41,114.05L984.95,114.36L984.97,60.5L987.1,60.46L987.03,51.54z"/>
		<path id="C08097" title="Pitkin" class="land" d="M250.93,328.79L299.82,328.81L405.62,329.65L404.76,338.6L398.48,340.25L396.59,339.42L393.93,342.2L393.68,344.94L396.87,347.33L397.22,349.86L394.66,353.4L395.88,356.23L395.28,362.05L392.97,368.32L391.07,370.16L388.89,369.01L384.86,370.49L384.45,380.31L381.03,382.68L382.29,389.82L379.33,392.4L380.18,396.33L379.02,401.65L377.11,402.15L373,397.46L370.35,392.48L365.76,392.29L364.27,390.26L361.91,391.86L355.9,392.86L355.59,396.16L347.81,405.53L343.9,405.65L340.88,403.82L338.6,399.39L336.08,402.38L331.71,402.81L325.82,398.4L322.73,397.79L322.85,395.62L319.14,395.17L317.05,392.91L318.87,390.99L317.76,387.56L314.28,383.6L307.08,377.78L273.79,377.8L271.76,370.89L268.21,368.59L262.83,367L259.27,361.92L258.88,355.57L260.1,354.02L256.54,350.57L258.9,348.04L255.92,342.88L253.75,343.52L247.74,341.02L245.53,337.53L250.99,332.35z"/>
		<path id="C08099" title="Prowers" class="land" d="M1080.48,546.07L1080.5,548.49L1080.52,569.62L1080.47,572.89L1080.52,575.23L1080.46,588.37L1080.58,611.22L1080.58,611.61L1080.68,622.92L1080.71,631.42L1080.72,635.42L1080.77,638.29L1080.84,643.84L1080.87,648.03L1080.89,650.88L1080.93,659.3L1080.92,662.16L1080.93,664.32L1080.93,666.3L972.2,666.42L972.14,631.6L973.08,631.54L973.29,631.48L973.01,545.18L975.86,545.13L976.12,545.16L1080.47,544.83z"/>
		<path id="C08101" title="Pueblo" class="land" d="M770.35,568.7L770.07,631.64L769.79,631.7L769.91,648.78L725.25,632.71L679.77,616.58L623.2,620.33L619.95,617.74L620.45,615.88L617.63,613.68L617.51,575.07L617.88,572.35L617.73,546.94L634.5,546.88L634.32,495.75L635.64,495.61L771.02,495.2L770.89,546.17L770.33,546.38z"/>
		<path id="C08103" title="Rio Blanco" class="land" d="M1.48,227.47L1.44,190.65L1.45,190.52L1.43,166.22L1.43,166.19L1.43,157.79L145.86,157.99L199.55,157.8L201.52,157.56L216.58,157.63L218.09,157.48L240.97,158.33L249.63,158.24L249.63,157.65L302.5,157.3L302.5,157.11L311.45,157.25L311.54,184.11L268.48,184.27L268.21,219.47L250.82,218.92L250.8,236.78L210.38,236.43L196.06,237.44L172.76,237.45L172.75,263.5L77.86,263.67L77.87,272.33L25.34,272.3L25.34,270.27L1.42,270.28z"/>
		<path id="C08105" title="Rio Grande" class="land" d="M366.83,712.84L361.84,712.72L361.71,662.43L364.17,662.43L364.45,629.27L380.88,629.43L380.97,645.81L381,646.24L465.39,646.13L465.25,713.37L396.15,713.66L396.15,713.23z"/>
		<path id="C08107" title="Routt" class="land" d="M280.15,0.13L317.2,0L339.2,0.16L339.51,2.05L337.81,9.9L341.53,15.97L346.49,18.33L350.17,20.37L355.99,22.37L363.47,24.53L369.29,29.95L369.73,35.99L372.85,43.69L368.86,51.66L367.02,64.21L363.92,76.02L363.9,87.23L368.56,97.89L369.9,108.69L370.87,113L370.76,133.88L373.93,133.88L373.2,202.03L374.81,202.08L374.81,217.51L374.81,218.73L359.6,218.34L312.06,218.68L312.36,201.87L311.54,201.84L311.54,184.11L311.45,157.25L302.5,157.11L302.5,157.3L249.63,157.65L249.13,135.25L250.75,135.23L251.25,93.44L260.11,93.4L260.08,81.71L268.91,81.71L268.35,0.1z"/>
		<path id="C08109" title="Saguache" class="land" d="M552.44,617.47L551.62,620.6L555.93,620.94L559.26,626.06L558.29,635.18L555.25,636.94L554.89,645.53L465.39,646.13L381,646.24L380.97,645.81L380.88,629.43L364.45,629.27L364.5,621.83L361.24,622.15L357.85,619.04L354.9,620.45L352.25,619.49L347.94,614.02L340.82,612.96L333.53,603.64L329.57,603.57L325.56,606.19L322.23,602.09L317.2,605.79L317.12,568.58L317.2,514.16L433.27,514.72L459.61,514.52L462.28,508.02L464.72,507.76L469.65,510.06L469.34,511.32L471.8,515.2L473.78,515.26L479.37,521.03L479.83,523.35L483.65,525.6L488.44,530.75L490.34,535.61L494.83,540.56L495.47,540.11L502.58,545.56L503.97,550.05L521.66,566.23L521.16,568.76L524.31,579.26L528.72,584.13L533.35,594.58L532.24,595.54L535.75,602.06L535.38,603.62L539.02,606.6L543.18,605.96L546.6,609.08L547.96,612.23z"/>
		<path id="C08111" title="San Juan" class="land" d="M184.72,640.86L187.8,641.13L190.67,636.97L189.7,633.81L194.64,631.7L197.31,626.44L196.79,622.95L203.59,615.63L210.16,618.16L219.05,612.63L218.49,604.05L229.68,604.04L230.53,605.81L235.27,608.15L234.76,612.77L237.19,616.43L234.74,621.76L237.49,625.25L237.7,630.92L241.78,631.4L245.09,634.22L246.56,637.19L245.06,642.67L243.04,642.26L243.04,667.23L202.84,667.22L201.7,667.07L167.89,667.21L169.44,666.62L168.08,656.19L170.58,654.19L172.96,655.01L178.48,651.82L182.2,652.34L182.44,647.97L184.55,644.64z"/>
		<path id="C08113" title="San Miguel" class="land" d="M2.96,615.28L2.64,602.25L2.69,597.81L2.69,597.37L2.84,567.42L23.64,567.37L23.64,567.05L168.56,567.56L170.72,568.99L170.75,574.62L180,574.65L179.65,586L180.5,588.32L178.66,592.13L180.27,594.98L186.52,595.56L186.53,598.68L194.79,599.47L197.37,604.84L201.96,606.36L204.44,610.86L203.59,615.63L196.79,622.95L197.31,626.44L194.64,631.7L189.7,633.81L190.67,636.97L187.8,641.13L184.72,640.86L180.81,638.93L179.84,635.59L175.4,631.51L172.89,631.71L170.87,629.17L167.39,629.59L164.95,625.11L158.53,625.33L154.28,628.15L153.05,626.2L149.35,628.34L145.96,625.38L141.67,629.83L136.35,629.78L131.09,632.04L128.33,627.67L126.66,621.27L123.8,617.77L37.51,617.55L36.92,620.41L2.86,620.35z"/>
		<path id="C08115" title="Sedgwick" class="land" d="M986.7,0.23L991.69,0.17L998.21,0.23L998.67,0.24L998.71,0.25L1000.16,0.25L1001.59,0.25L1012.19,0.2L1014.87,0.22L1015.07,0.21L1028.88,0.23L1031.27,0.26L1042.24,0.25L1042.27,0.25L1042.28,0.25L1042.47,0.25L1045.43,0.24L1046.09,0.22L1051.62,0.23L1054.66,0.2L1055.09,0.2L1057.89,0.23L1068.09,0.22L1076.46,0.21L1079.37,0.22L1079.39,0.22L1079.44,51.51L1079.44,51.51L987.03,51.54z"/>
		<path id="C08117" title="Summit" class="land" d="M497.54,289.31L499.63,292.49L498.42,296.14L495.12,297.49L493.08,295.87L491.63,298.26L493.81,301.29L489.93,305.44L487.94,305.36L484.91,310.81L480.75,310.46L479.9,313.96L476.42,314.53L478.74,319.18L472.4,321.71L468.47,325.77L467.92,329.68L462.66,330.33L456.4,326.47L450.43,326.14L450.3,326.11L439.47,326.12L440.14,322.65L436.1,319.17L436.93,315.51L432.55,309.16L433.22,303.94L431.39,303.36L433.35,299.68L431.9,295.89L434.84,292.55L436.74,296.01L438.7,296.22L439.62,290.64L438.19,287.26L439.11,282.44L443.95,280.52L444.13,275.21L442.99,271.93L437.86,271.45L435.14,269.97L434.54,266.33L431.53,266.42L430.86,262.83L426.5,261.59L425.36,258.3L421.19,255.77L418.39,250.62L415.2,251.98L411.94,249L407.85,236.72L405.76,233.36L404.47,226.99L405.37,226.03L404.39,217.48L410.43,217.55L410.4,219.66L425.93,219.67L425.91,218.68L432.49,219.52L435.62,222.3L440.42,229.65L444.95,233.4L448.28,234.54L451.05,233.62L458.35,241.12L458.8,244.96L461.32,250.28L462.61,258.02L469.3,265.12L471.87,265.56L482.91,262.6L482.66,267.78L485.05,269.91L489.04,270.95L492.13,268.93L494.61,273.53L498.84,273.82L499.54,275.64L503.17,275.09L505.78,280.11L500.86,285.63L496.16,287.83z"/>
		<path id="C08119" title="Teller" class="land" d="M574.62,460.89L574.66,427.34L574.63,427.08L574.77,425.9L574.42,375.63L574.61,375.63L620.15,375.61L621.16,395.36L620.86,427.1L615.04,426.98L614.2,440.79L634.71,441.28L634.18,470.18L619.82,469.89L614.3,470.44L588.29,470.63L588.69,460.95z"/>
		<path id="C08121" title="Washington" class="land" d="M963.68,288.72L909.55,289.16L824.43,289.03L824.51,254.44L824.64,202.18L860.64,202.15L860.79,132.23L861.77,132.2L861.66,114.79L967.22,114.37L967.18,131.95L965.12,131.93L965.16,201.96L963.55,201.94z"/>
		<path id="C08123" title="Weld" class="land" d="M771.12,0.41L773.28,0.39L775.72,0.32L776.51,0.37L783.53,0.37L783.73,0.39L786.48,0.38L793.75,0.42L795.31,0.34L798.11,0.36L801.12,0.36L817.75,0.28L844.85,0.35L844.94,0.7L844.91,61.16L843.97,61.14L843.73,97.24L756.54,97.04L756.6,132.13L756.14,132.13L756.17,202.28L637.3,202.39L637.06,202.39L631.26,202.39L631.29,193.6L625.45,197.26L626.91,200.92L617.18,202.4L616.78,202.4L616.78,173.45L616.78,173.4L616.83,149.93L616.82,135.17L616.58,132.33L633.7,132.37L634.03,1.09L647.6,1.1L651.57,0.85L675.21,0.51L702.75,0.33L702.77,0.33L707.29,0.4L746.26,0.36L746.33,0.38L746.75,0.38L760.29,0.37L763.21,0.39L766.07,0.38L769.01,0.39z"/>
		<path id="C08125" title="Yuma" class="land" d="M1079.36,130.16L1079.4,132.34L1079.43,134.52L1079.34,155.24L1079.34,156.48L1079.34,169.84L1079.33,172.71L1079.37,201.84L1079.39,232.5L1079.43,233.76L1079.43,235.79L1079.44,238.65L1079.54,267.26L1079.62,271.6L1079.57,273.15L1079.64,283.85L1079.67,287.48L1002.32,288.16L999.42,288.43L963.68,288.72L963.55,201.94L965.16,201.96L965.12,131.93L967.18,131.95L967.22,114.37L984.95,114.36L1079.41,114.05L1079.35,122.84L1079.39,123.51z"/>
	</g>
</svg>