<?xml version="1.0" encoding="utf-8"?>
<!-- (c) ammap.com | SVG map of CT Counties -->
<svg xmlns="http://www.w3.org/2000/svg" xmlns:amcharts="http://amcharts.com/ammap" xmlns:xlink="http://www.w3.org/1999/xlink" version="1.1">
	<defs>
		<style type="text/css">
			.land
			{
				fill: #CCCCCC;
				fill-opacity: 1;
				stroke:white;
				stroke-opacity: 1;
				stroke-width:0.5;
			}
		</style>

		<amcharts:ammap projection="mercator" leftLongitude="-73.727915" topLatitude="42.050629" rightLongitude="-71.783902" bottomLatitude="40.985064"></amcharts:ammap>

		<!-- All areas are listed in the line below. You can use this list in your script. -->
		<!--{id:"C09001"},{id:"C09003"},{id:"C09005"},{id:"C09007"},{id:"C09009"},{id:"C09011"},{id:"C09013"},{id:"C09015"}-->

	</defs>
	<g>
		<path id="C09001" title="Fairfield" class="land" d="M103,502.43L104.25,480.74L106.21,460.02L106.32,458.55L106.6,454.69L107.1,447.08L107.15,445.8L107.21,444.18L107.22,443.83L107.27,442.76L108.05,428.84L108.11,428.47L108.11,428.09L108.17,427.23L108.23,426.56L108.28,426.02L110.46,390.72L115.5,321.84L116.07,305.89L117.06,286.86L130.8,291.24L135.81,301.24L128.48,308.16L152.3,375.85L159.23,400.46L159.96,417.4L190.4,399.94L196.94,418.96L224.03,433.58L233.14,434.1L241.95,450.03L253.69,446.85L258.81,459.16L269.57,455.58L274.8,465.78L290.56,469.94L303.32,480.51L304.21,491.34L324.16,509.15L341.92,535.47L355.79,545.06L368.69,558.59L357.05,580.26L357.79,595.03L345.17,611.61L345.56,630.32L338.8,642.6L346.26,656.47L344.94,663.16L345.17,665.15L346.06,667.58L344.55,669.74L333.82,672.69L314.76,663.99L311.58,662.54L311.23,659.28L307.28,657.98L293.37,664.34L279.05,675.79L275.27,674.76L268.06,687.77L260.02,694.34L246.39,686.66L241.02,688.29L232.36,695.23L221.86,699.88L198.6,704.3L187.5,716.35L183.04,717.38L175.48,727.01L163.53,739.24L154.98,738.94L145,743.19L139.9,754.51L130.98,745.53L117.81,752.49L117.89,759.31L114.59,766.83L111.13,768.97L109.84,764.9L110.39,759.84L108.94,757.71L107.51,757.52L98.49,763.12L92.63,768.68L89.45,773.03L88.11,779.89L80.34,780.4L79.77,773.29L73.79,769.27L69.18,769.96L47.1,779.46L42.79,784.58L39.35,792L38.05,789.98L38.55,785.86L38.22,781.44L40.34,775.39L40.84,772.44L40.45,771.63L36.37,765.95L32.01,758.87L26.71,750.23L22.68,743.67L18.72,737.32L6.09,716.43L2.91,712L0,706.75L49.22,676.61L53.42,674.08L63.35,668.17L90.97,651.72L119.09,634.51L121.95,632.75L136.91,623.91L116.98,591.38L98.78,562.72L99.92,553.7L99.56,547.52L99.89,539.84L102.27,510.13L102.99,502.53z"/>
		<path id="C09003" title="Hartford" class="land" d="M532.43,36.31L536.91,35.66L537.25,32.14L538.85,30.61L538.87,28.32L539.99,26.97L540.82,25.17L539.92,24.28L539.39,23.09L539.48,21.78L540.37,21.54L541.71,22.27L542.09,22.21L544.01,18.88L545.29,15.28L544.29,13.86L542.05,12.96L543,10.79L566.3,10.48L576.47,10.34L605.97,13.63L625.63,14.83L626.19,19.18L635.52,19.4L639.94,19.4L645.02,15.32L670.22,12.21L680.8,12.27L690,77.21L678.49,78.78L675.69,144.96L687.72,142.19L681.73,180.23L699.33,177.76L706.1,228.09L714.91,283.02L725.36,290.17L736.65,313.67L735.86,335.22L732.18,343.56L704.52,348.54L682.9,301.56L661.22,304.77L613.01,311.78L614.51,306.63L566.43,315.93L566.08,333.35L544.62,342.14L545.05,352.27L540.6,352.85L532.3,354.03L529.6,354.48L515.53,361.13L511.29,366.13L503.72,363.27L502.5,360.22L496.75,359.37L492.82,371.92L493.02,374.85L487.79,376.34L481.69,374.92L478.5,370.19L476.69,366.64L474.32,364.88L467.97,363.94L453.31,366.14L446.52,367.15L439.59,352.83L443.08,334.33L443.29,326.56L442.68,321.02L441.7,311.77L432.12,304.89L424.12,306.22L415.95,307.08L407.4,252.75L397.13,188.82L435.07,182.66L442.16,157.74L432.49,147.22L439.75,116.34L453.89,115.14L459.14,96.52L469.69,58.03L390.09,62.91L401.71,8.79L406.85,8.94L482.72,9.65L482.79,9.65L491.99,10.26L510.77,10.56L508.98,39.71z"/>
		<path id="C09005" title="Litchfield" class="land" d="M117.06,286.86L117.88,271.33L120.59,231.54L121.13,218.26L124.46,169.71L124.49,169.33L126.15,143.61L128.2,118.35L129.19,96.01L131.18,68.96L133.05,37.84L134.34,0.71L164.79,0L242.11,2.7L242.85,2.73L277.51,4.23L278.21,4.28L335.49,6.46L376.84,8.04L401.71,8.79L390.09,62.91L469.69,58.03L459.14,96.52L453.89,115.14L439.75,116.34L432.49,147.22L442.16,157.74L435.07,182.66L397.13,188.82L407.4,252.75L415.95,307.08L404.33,315.28L394.6,316.38L396.17,326.07L386.39,325.25L373.37,331.96L374.51,344.5L360.25,347.26L355,358.51L325.5,367.96L314.59,368.49L319.54,400.37L292.51,404.59L270.97,401.28L228.16,407.11L224.02,416.1L233.14,434.1L224.03,433.58L196.94,418.96L190.4,399.94L159.96,417.4L159.23,400.46L152.3,375.85L128.48,308.16L135.81,301.24L130.8,291.24z"/>
		<path id="C09007" title="Middlesex" class="land" d="M569.54,463.33L548.42,467.9L555.27,421.8L549.2,412.64L545.05,352.27L544.62,342.14L566.08,333.35L566.43,315.93L614.51,306.63L613.01,311.78L661.22,304.77L682.9,301.56L704.52,348.54L724.61,392.67L784.6,385.47L794.58,458.26L726.38,467.9L722.97,467.38L729.76,492.21L750.28,496.17L755.21,502.8L753.31,522.46L770.23,541.18L769.99,562.07L774.51,574.06L770.5,576.03L770.82,581.77L749.27,587.62L742.54,575.5L738.49,575.33L712.79,574.97L701.28,581.47L693.93,580.9L686.2,584.61L682.23,588.88L675.51,588.02L674.03,584.81L669.5,585.68L667.36,586.96L665.41,591.76L664.83,592.17L660.02,583.32L660.8,577.72L655.55,573.71L650.19,567.5L646.84,561.81L642.01,556.61L638.14,553.14L637.43,546.59L636.58,541.73L633.42,540.43L630.03,539.65L624.76,538.72L621.98,534.3L623.01,528.6L623.4,521.48L623.26,512.85L622.49,496.5L620.59,492.29L617.38,489.61L616.04,486.23L612.88,480.77L612.07,478.29L609.51,475.74L606.26,474.52L603.85,473.01L602.71,469.18L604.82,466.04L604.7,462.47L600.65,459.44L591.86,458.83L586.08,460.1L583.95,460.1z"/>
		<path id="C09009" title="New Haven" class="land" d="M290.56,469.94L274.8,465.78L269.57,455.58L258.81,459.16L253.69,446.85L241.95,450.03L233.14,434.1L224.02,416.1L228.16,407.11L270.97,401.28L292.51,404.59L319.54,400.37L314.59,368.49L325.5,367.96L355,358.51L360.25,347.26L374.51,344.5L373.37,331.96L386.39,325.25L396.17,326.07L394.6,316.38L404.33,315.28L415.95,307.08L424.12,306.22L432.12,304.89L441.7,311.77L442.68,321.02L443.29,326.56L443.08,334.33L439.59,352.83L446.52,367.15L453.31,366.14L467.97,363.94L474.32,364.88L476.69,366.64L478.5,370.19L481.69,374.92L487.79,376.34L493.02,374.85L492.82,371.92L496.75,359.37L502.5,360.22L503.72,363.27L511.29,366.13L515.53,361.13L529.6,354.48L532.3,354.03L540.6,352.85L545.05,352.27L549.2,412.64L555.27,421.8L548.42,467.9L569.54,463.33L583.95,460.1L586.08,460.1L591.86,458.83L600.65,459.44L604.7,462.47L604.82,466.04L602.71,469.18L603.85,473.01L606.26,474.52L609.51,475.74L612.07,478.29L612.88,480.77L616.04,486.23L617.38,489.61L620.59,492.29L622.49,496.5L623.26,512.85L623.4,521.48L623.01,528.6L621.98,534.3L624.76,538.72L630.03,539.65L633.42,540.43L636.58,541.73L637.43,546.59L638.14,553.14L642.01,556.61L646.84,561.81L650.19,567.5L655.55,573.71L660.8,577.72L660.02,583.32L664.83,592.17L659.77,595.82L659.54,595.99L646.46,583.22L646.23,582.99L646.19,582.96L639.38,580.29L638.35,580.57L637.92,580.68L637.51,580.79L636.81,580.98L635.75,581.27L635.11,581.44L631.16,582.51L625.67,581.26L624.35,580.96L620.44,580.07L620.28,580.11L620.02,580.18L612.54,582.22L607.16,583.69L606.86,583.77L606.15,583.85L601.74,584.38L599.99,584.59L599.94,584.56L599.5,584.35L595.31,582.31L594.96,582.14L592.54,582.89L590.02,583.66L589.65,583.77L588.55,584.87L582.61,590.73L582.35,594.42L582.28,595.39L580.09,598.11L579.65,598.66L579.54,598.8L577.86,599.69L577.13,600.08L576.73,600.09L573.19,600.24L570.71,600.34L570.17,600.36L569.36,600.4L569.19,600.4L569.06,600.41L568.28,600.44L568.15,600.2L566.56,597.09L567.94,595.6L567.24,593.27L561.66,589.59L555.87,592.86L543.78,583.83L542.09,583.83L526.07,585.4L507.86,594.69L507.51,593.35L503.31,591.35L491.64,591.4L490.28,592.25L488.13,598.03L484.06,599.84L472.83,601.83L465.01,601.02L462.01,599.42L460.04,598.36L459.53,597.62L460.76,594.28L460.89,594.21L465.4,591.77L465.41,591.72L465.9,589.03L464.49,586.03L460.71,578L458.01,572.25L457.88,571.97L453.06,572.64L452.94,572.73L451.25,574.1L450.92,580.38L450.89,580.97L450.82,582.36L444.65,588.11L443.76,588.93L442.55,590.06L430.63,594.19L429.15,594.71L428.19,595.04L427.8,595.17L415.67,607.19L414.92,607.93L414.28,608.57L407.74,616.56L404.56,622.04L402.38,625.81L399.07,629.3L398.78,629.61L398.24,630.18L395.34,630.32L395.33,630.22L395.31,630.07L395.3,629.97L395.28,629.73L395.17,628.62L394,628.03L392.75,627.85L381.12,626.21L378.3,625.81L375.9,627.09L373.44,628.4L363.24,636.92L362.21,637.78L355.63,645.07L355.2,645.56L355.11,645.65L348.31,653.2L347.66,653.91L347.66,653.92L346.26,656.47L338.8,642.6L345.56,630.32L345.17,611.61L357.79,595.03L357.05,580.26L368.69,558.59L355.79,545.06L341.92,535.47L324.16,509.15L304.21,491.34L303.32,480.51z"/>
		<path id="C09011" title="New London" class="land" d="M1082.96,338.9L1078.3,472.79L1066.74,470.64L1054.86,476.19L1053.23,477.87L1052.72,480.86L1053.47,488.63L1058.33,496.67L1059.35,506.77L1055.93,512.24L1056.93,519.35L1060.48,526.32L1055.21,534.1L1043.2,544.32L1043.73,542.73L1038.89,536.4L1028.8,532.35L1011.81,535.45L1008.8,533.75L1008.14,533.31L1000.87,531.2L995.64,531.32L989.44,537.19L981.5,541.15L976.76,537.11L975.22,537.2L971.89,544.08L953.04,546.85L918.07,544.78L912.51,548.83L909.51,554.14L902.8,560L890.29,559.77L875,551.72L868.11,546.29L866.04,542.66L862.41,541.55L858.55,542.14L852.74,547.7L851.85,549.55L851.29,560L846.32,565.72L839.42,560.03L833.69,559.02L826.63,559.71L824.55,560.35L825.32,563.49L824.87,566.74L819.19,571.97L787.75,575.78L782.25,575.28L778.74,571.98L774.51,574.06L769.99,562.07L770.23,541.18L753.31,522.46L755.21,502.8L750.28,496.17L729.76,492.21L722.97,467.38L726.38,467.9L794.58,458.26L784.6,385.47L724.61,392.67L704.52,348.54L732.18,343.56L735.86,335.22L738.03,337.34L745.57,342.28L751.45,342.58L752.59,340.26L754.6,337.93L757.95,336.95L761.82,336.25L765.09,337.84L771.34,337.21L783.7,324.09L792.62,297.74L814.91,283.5L816.47,279.47L815.14,274.78L813.48,267.97L816.04,268.71L818.71,266.35L821.07,262.91L825.15,261.59L827.03,259.01L827.04,256.28L828.35,253.83L831.44,251.49L877.26,293.65L879.58,287.68L898.05,290.45L992.13,311L1044.65,303.63L1083.92,306.84L1082.96,338.86z"/>
		<path id="C09013" title="Tolland" class="land" d="M889.45,15.25L889.47,15.25L908.2,16.25L909.84,68.64L844.05,69.23L843.64,161.19L873.34,161.39L877.21,223.44L860.81,220.73L854.58,241.06L824.13,241.04L831.44,251.49L828.35,253.83L827.04,256.28L827.03,259.01L825.15,261.59L821.07,262.91L818.71,266.35L816.04,268.71L813.48,267.97L815.14,274.78L816.47,279.47L814.91,283.5L792.62,297.74L783.7,324.09L771.34,337.21L765.09,337.84L761.82,336.25L757.95,336.95L754.6,337.93L752.59,340.26L751.45,342.58L745.57,342.28L738.03,337.34L735.86,335.22L736.65,313.67L725.36,290.17L714.91,283.02L706.1,228.09L699.33,177.76L681.73,180.23L687.72,142.19L675.69,144.96L678.49,78.78L690,77.21L680.8,12.27L710.14,12.43L788.09,14L825.87,14.21z"/>
		<path id="C09015" title="Windham" class="land" d="M1077.43,31.86L1078.17,86.27L1078.32,91.39L1080.27,156.77L1080.27,157.49L1081.04,180.99L1081.05,182.24L1082,209.66L1082.78,243.63L1082.78,243.75L1084.28,294.87L1083.92,306.84L1044.65,303.63L992.13,311L898.05,290.45L879.58,287.68L877.26,293.65L831.44,251.49L824.13,241.04L854.58,241.06L860.81,220.73L877.21,223.44L873.34,161.39L843.64,161.19L844.05,69.23L909.84,68.64L908.2,16.25L929.8,17.42L972.35,17.77L1026.29,19.65L1076.65,20.25z"/>
	</g>
</svg>