<?xml version="1.0" encoding="utf-8"?>
<!-- (c) ammap.com | SVG map of DE Counties -->
<svg xmlns="http://www.w3.org/2000/svg" xmlns:amcharts="http://amcharts.com/ammap" xmlns:xlink="http://www.w3.org/1999/xlink" version="1.1">
	<defs>
		<style type="text/css">
			.land
			{
				fill: #CCCCCC;
				fill-opacity: 1;
				stroke:white;
				stroke-opacity: 1;
				stroke-width:0.5;
			}
		</style>

		<amcharts:ammap projection="mercator" leftLongitude="-75.788702" topLatitude="39.839061" rightLongitude="-75.048858" bottomLatitude="38.450964"></amcharts:ammap>

		<!-- All areas are listed in the line below. You can use this list in your script. -->
		<!--{id:"C10001"},{id:"C10003"},{id:"C10005"}-->

	</defs>
	<g>
		<path id="C10001" title="Kent" class="land" d="M28.15,616.51L26.99,597.58L25.84,586.15L22.46,525.96L22.45,525.86L19.61,481.03L50.65,478.78L94.42,485.65L116.06,469.33L140.29,470.52L161.98,430.99L174.17,433.23L189.71,420.17L190.11,420.58L194.59,425.91L202.22,429.94L203.84,432.38L202.24,437.04L202.91,437.97L203.92,439.35L204.82,440.37L212.05,445.09L211.97,445.89L219.27,450.98L225.38,453.26L240.08,466.39L241.51,469.93L242.46,480.39L242.58,481.16L247.68,491.43L261.12,509.41L264.84,518.31L263.56,526.02L262.8,528.02L262.95,545.5L263.62,546.53L269.01,552.29L271.67,562.55L270.45,576.81L267.85,578.34L266.77,578.48L261.2,588.92L259.58,605.13L266.05,664.62L265.48,683.89L266.67,684.99L269.75,690.65L269.43,691.82L275.17,697.73L280.69,699.83L304.12,720.9L307.46,725.21L322.94,753.17L325.27,759.69L327.57,771.25L326.92,785.83L326.92,787.4L327.35,790.35L280.16,776.32L266.38,788.77L265.47,815.06L222.14,820.77L209.11,826.81L199.73,846.42L192.6,849.21L184.17,869.59L160.43,887.24L45.36,892.32L45.35,892.19L45.17,889.42L44.4,877.55L44.36,876.58L43.33,858.69L43.14,857.69L30.8,659.41L29.44,641.56L29.21,636.81L28.15,616.54z"/>
		<path id="C10003" title="New Castle" class="land" d="M153.63,227.38l-7.79,-4.34l-1.68,-2.98l-0.61,-6.35l9.47,7.14L153.63,227.38zM159.85,207.35l-4.16,0.54l-3.95,-7.57l-2.79,-8.74l0.66,-2.83l7.8,-2.7l0.24,0.67l-0.35,4.31l0.8,6.14l1.08,4.57l-0.43,2.63l0.53,2.22L159.85,207.35zM133.08,1.53l0.81,-0.15l0.4,-0.04l9.05,-0.91l0.04,0L149.82,0l21.37,0.71l14.35,1.69l13.46,2.67l12.09,3.74l12.29,4.72l6.59,3.12l17.65,9.88l8.92,6.61l6.66,4.96l-22.38,11.39l-2.04,2.3l-5.31,5.98l0.35,0.13l0.55,0.58l-3.43,3.83l-4.87,2.85l-2.68,4.09l0.21,2.58l-2.2,6.71l-0.01,0.03l-2.04,6.34l-3.38,7.24l-0.83,3.93l-0.04,2.08l-1.24,3.56l-0.13,3.69l0.37,1.98l-0.52,2.96l-0.89,1.07l-1.92,-0.65l-0.96,-0.86l-1.44,-0.27l-2.27,0.87l-1.91,3.31l-3.36,8.62l-5.36,2.76l-2.14,1.2l-1.29,2.18l-0.48,7.47l-13.73,-5.78l-22.32,31.9l-17.1,5.06l-17.04,25.79l-0.81,0.9l-0.15,0.6l-0.47,1.75l-0.59,2.1l0.45,1.17l0.64,1.41l-0.22,0.44l0.3,4.57l-0.17,0.49l0,0.03l-0.22,0.57l1.3,7.66l0.02,0.14l4.97,6.65l0.73,0.85l7.8,4.79l0.17,0.28l2.91,2.29l0.37,0.37l0.41,1.22l0.41,0.38l9.9,9.51l0.56,0.4l5.32,4.47l-1.11,2.06l-0.68,1.25l-2.56,15.89l-0.04,1.3l-0.65,10.55l6.62,5.99l-4.26,10.81l-6.52,-0.82l-7.75,11.38v0.87l-3.67,14.34v1.05l2.17,14.15l0.32,1.07l6.35,8.88l0.87,2.57l5.45,4.78l-0.58,3.18l10.95,7.57l11.93,12.26l1.74,6.3l8.51,15.76l1.31,3.29l5.96,19.22l0.43,0.44l-15.54,13.06l-12.19,-2.24l-21.69,39.53l-24.23,-1.18l-21.65,16.32l-43.77,-6.87l-31.04,2.25l-4.51,-71.09l-0.02,-0.28L6.28,270.43l-0.1,-1.58l-0.77,-12.2l-4.19,-71.28l-0.38,-6.11L0,160.82l0.03,-20.02L0,139.77l0.18,-16.1v-0.23l0.02,-19.14l10.16,-0.53l5.15,-13.69l3.92,-8.38l5,-9.25l5.96,-9.1l5.43,-7.03l6.48,-7.45l6.92,-7.01l10.82,-9.44l10.45,-7.52l15.91,-8.99l14.63,-6.42l4.68,-1.6l11.99,-3.42l14.76,-2.81L133.08,1.53z"/>
		<path id="C10005" title="Sussex" class="land" d="M505.48,1223.77L504.81,1223.77L497.1,1223.76L495.99,1223.76L493.53,1223.77L493.23,1223.77L482.61,1223.79L480.92,1223.79L479.98,1223.79L444.11,1223.84L414.22,1224L368,1223.67L362.77,1223.58L307.22,1223.17L307.22,1223.17L297.23,1223.13L286.75,1223.05L271.3,1223.04L270.46,1223L259.4,1222.79L249.83,1222.61L247.15,1222.55L212.53,1221.66L198.11,1221.27L196.18,1221.2L183.58,1220.82L182.6,1220.82L175.03,1220.56L157.55,1220.03L157.06,1220.02L147.32,1219.66L140.81,1219.28L136.89,1219.4L134.3,1219.3L130.87,1218.9L108.63,1217.98L86.39,1217.24L84.51,1217.12L65.33,1216.04L63.37,1187.88L63.15,1184.3L61.72,1161.99L60.76,1143.88L59.87,1129.26L59.81,1128.12L58.51,1106.79L58.15,1100.71L56.92,1080.87L56.86,1079.54L56.6,1075.14L56.36,1070.91L55.84,1062.9L55.83,1062.83L45.75,899.15L45.36,892.32L160.43,887.24L184.17,869.59L192.6,849.21L199.73,846.42L209.11,826.81L222.14,820.77L265.47,815.06L266.38,788.77L280.16,776.32L327.35,790.35L327.38,790.55L327.61,791.48L333.79,796.43L327.11,809.1L332.74,819.15L360.87,850.61L382.21,879.68L400.55,898L410.69,912.5L431.16,926.22L432.34,927.13L449.51,934.1L463.72,933.44L474.86,928.44L477.23,923.8L474.79,915.8L477.12,915.18L480.1,920.98L485.12,942.95L486.45,962.28L487.14,972.69L496.55,1040.35L496.75,1065.42L499.02,1086.01L499.47,1086.24L500.01,1086.76L500.31,1087.03L507.38,1193.1L507.93,1223.78L507.71,1223.78z"/>
	</g>
</svg>