<?xml version="1.0" encoding="utf-8"?>
<!-- (c) ammap.com | SVG map of HI Counties -->
<svg xmlns="http://www.w3.org/2000/svg" xmlns:amcharts="http://amcharts.com/ammap" xmlns:xlink="http://www.w3.org/1999/xlink" version="1.1">
	<defs>
		<style type="text/css">
			.land
			{
				fill: #CCCCCC;
				fill-opacity: 1;
				stroke:white;
				stroke-opacity: 1;
				stroke-width:0.5;
			}
		</style>

		<amcharts:ammap projection="mercator" leftLongitude="-160.249811" topLatitude="22.233311" rightLongitude="-154.89414" bottomLatitude="18.917272"></amcharts:ammap>

		<!-- All areas are listed in the line below. You can use this list in your script. -->
		<!--{id:"C15005"},{id:"C15009"},{id:"C15001"},{id:"C15003"},{id:"C15007"}-->

	</defs>
	<g>
		<path id="C15005" title="Kalawao" class="land" d="M727.58,252.15L731.05,252.94L732.81,252.15L733.6,251.23L734.82,246.81L734.35,246.26L734.44,245.75L736.7,244.24L737.81,244.6L739.21,245.77L741.73,250.68L741.92,252.84L742.96,254.44L749.24,256.28L753.6,261.24L753.29,265.07L749.28,265.59L743.87,258.23L740.09,258.04L739.29,258.42L736.78,254.61L729.93,253.83z"/>
		<path id="C15009" title="Maui" class="land" d="M727.58,252.15l2.35,1.68l6.85,0.79l2.5,3.81l0.8,-0.38l3.78,0.19l5.41,7.36l4.01,-0.51l0.31,-3.83l-4.36,-4.96l3.32,0.98l1.19,-0.41l0.46,-0.87l-0.09,-0.63l6.43,1.84l5.93,-0.82l4.42,-1.62l11.35,-1.29l6.58,0.92l0.88,1.01l0.38,2.43l3.88,-0.49l1.5,0.57l-0.33,2.23l-2.67,4.77l-5.15,5.7l-6.09,4.52l-3.33,1.93l-0.75,1.41l-9.27,2.98l-6.85,1.33l-2.55,2.04l-3.33,-0.61l-0.73,-0.94l-13.17,-2.87l-11.07,-3.72l-5.22,-1.37l-1.32,-0.5l-1.26,-1.62l-9.45,-1.91l-3.53,-0.13l-6.66,0.9l-4.16,1.43l-24.87,1.45l-9.89,-1.51l-3.44,-2.12l3.18,-6.41l-0.06,-0.83l1.28,-2.43l2.12,-2.79l1.77,-1.3l0.44,0.1l3.28,-2.9l1.17,-1.56l0.83,-2.3l0.17,-4.03l-1.5,-1.9l-1.02,-0.48l-0.38,-0.77l0.56,-1.15l0.81,-0.38l3.5,1.51l3.39,0.19l3.23,-0.4l2.24,0.61l2.18,2.79l1.55,0.49l6.4,1.17l2.02,-0.01l0.79,-0.43l3.69,0.26l3.32,0.99l3.48,-0.15l7.58,2.14l2.52,0.08l1.19,-0.48l1.75,-0.04L727.58,252.15zM833.37,410.72l-1.32,0.6l-2.24,-0.39l-5.9,2.43l-3.96,-3.02l-6.14,2.25l-2.52,1.59l-1.15,-0.89l-4.8,1.74l-3.18,-0.49l-4.66,-4.88l0.32,-1.25l1.26,-2.2l3.73,-3.67l6.42,-2.04l8.32,-5.14l0.87,-1.59l7.62,-3.06l2.19,0.4l3.04,2.43l2.38,3.49l0.05,1.54l-1.37,1.21l-1.6,6.19l0.68,0.78l2.89,1.11l0.12,1.69L833.37,410.72zM818.12,290.68l-0.01,-0.6l1.31,-1.7l3.15,0.36l2.66,3.04l3.98,0.96l2.92,2.69l0.79,-0.03l4.06,8.94l2.15,3.14l1.46,0.81l0.41,2.61l0.56,0.59l1.9,0.79l0.81,1.57l0.59,2.87l2.75,4.26l1.41,0.87l11.72,-4.09l8.24,-1.9l2.64,-1.93l0.8,-1.21l4.07,-2.09l1.57,-0.04l0.74,0.68l2.15,-1.85l1.85,-0.89l3.91,1.78l4.69,-1.19l2.52,2.48l2.7,-0.84l4.62,0.73l2.79,1.41l0.02,3.37l0.75,0.28l1.06,-0.39l0.92,0.42l0.36,2.28l9.72,7.21l0.6,0.56l0.83,2.14l7.67,1.02l0.74,3.32l3.07,4.84l3.51,-0.29l2.21,-0.81l6.86,5.1l5.96,0.55l6.69,3.04l0.13,1.47l3.37,3.08l0.75,2.17l-0.51,2.13l0.32,3.43l-0.41,5.15l-0.97,2.17l-2.32,3.73l-2.76,2.96l-1.33,-0.28l-2.4,1.05l-2.17,2.33l-0.77,1.87l-2.16,2.53l-1.43,0.54l-4.88,-0.56l-1.78,1.4l-7.11,3.54l-2,1.47l-2.87,0.94l-0.43,-0.1l-0.79,-1.2l-1.95,-0.14l-2.92,0.54l-0.82,0.78l-2.51,-1.34l-1.89,-0.49l-3.9,0.78l-3.39,1.33l-2.43,1.67l-6.7,3.42l-4.15,1.23l-0.82,1.06l-1.22,0.78l-2.08,0.62l-4.55,-0.5l-6.47,0.31l-1.78,1.19l-2.49,0.77l-1.55,0.08l-8.47,-1.83l-0.5,-0.87l0.4,-1.03l-0.46,-1.11l-1.2,-0.81l-1.03,0.77l-0.94,0.17l-1.46,-0.76l-1.32,-1.58l0.31,-1.41l-1.75,-6.78l1.07,-1.69l0.5,-1.61l-1.12,-11.64l-0.54,-4.96l-0.42,-1.39l-1.25,-1.29l-0.86,-4.13l0.04,-4.45l-0.45,-2.18l-2.14,-2.17l-3.58,-1.81l-2.74,-0.38l-0.98,0.11l-2.24,1.25l-2.07,3.21l-2.82,0.58l-21.15,-10.24l-10.54,-11.8l-2.32,-4.34l0.26,-0.49l-0.07,-3.73l-0.72,-1.46l-1.37,-0.94l-0.56,-1.02l1.3,-7.68l2.97,-6.6l3.46,-6.42l2.95,-0.46l1.45,-1.3l0.76,-1.32l-0.35,-0.57l0.31,-1.26l5.22,-0.05L818.12,290.68zM728.6,313.43l4.54,-0.57l4.1,1.41l7.66,0.23l4.29,0.65l4.79,1.71l13.52,12.4l2.66,3.07l3.52,5.91l0.25,1.35l-0.22,2.69l-1.79,3.48l-4.7,7.18L765.4,354l-1.14,0.03l-4.11,1.28l-4.62,2.35l-4.23,1.27l-8.98,0.13l-4.25,0.94l-3.79,-5.16l-2.08,-7.17l1.14,-6.89l-0.65,-2.66l-3.24,-5.5l-1.05,-1.17l-9.82,-5.44l-1.15,-1.77l-0.33,-1.44l-0.31,-3.29l0.76,-2.16l5.25,-3.27l2.29,-0.59L728.6,313.43z"/>
		<path id="C15001" title="Hawaii" class="land" d="M1005.64,476.8L1006.88,476.88L1012.69,480L1014.91,482.27L1015.18,484.74L1015.88,486.41L1033.59,495.47L1038.89,500.34L1040.2,500.58L1043.97,502.47L1045.52,505.19L1046.17,505.67L1047.77,506.16L1049.85,505.89L1052.84,504.24L1054.96,504L1062.89,506.75L1064.44,507.89L1067.64,508.14L1075.37,510.49L1080.82,512.63L1089.48,516.57L1090.17,517.34L1093.5,519.34L1106.4,526.15L1114.21,529.5L1117.1,530.09L1119.87,531.86L1126.48,537.65L1134.68,542.59L1136.9,545.22L1140.2,547.36L1147.11,553.66L1148.19,554.22L1151.15,557.48L1152.64,559.74L1153.29,562.4L1156.48,565.65L1158.47,566.75L1159.3,566.74L1161.25,569.7L1161.7,571.05L1161.4,573.7L1160.66,576.53L1159.43,579.33L1159.96,583.01L1160.15,588.48L1159.64,589.56L1159.67,597.66L1161.08,599.97L1162.81,600.4L1166.28,599.76L1170.46,597.17L1179.22,597.29L1181.28,599.84L1183.56,604.6L1184.92,608.83L1184.11,613.23L1184.32,620.48L1186.44,622.48L1188.78,623.81L1191.83,624.08L1192.39,624.61L1192.43,625.15L1191.69,627.13L1192.57,629.21L1195.53,630.95L1196.82,632.09L1197.67,633.55L1202.36,637.33L1208.78,640.61L1213.82,642.42L1217.24,644.99L1219.64,645.16L1222.41,646.95L1223.5,648.78L1223.54,649.56L1220.49,658.52L1216.98,662.71L1210.24,668.76L1205.9,671.53L1196.69,678.35L1193.22,682.1L1188.63,685.94L1184.97,689.81L1176.05,694.07L1166.79,697.55L1155.19,703.71L1150.6,707.15L1144.77,708.98L1141.89,708.82L1138.52,709.51L1136.53,710.66L1134.36,710.75L1125.8,708.29L1121.16,707.6L1113.93,709.48L1112.34,710.53L1110.19,713.17L1103.92,717.11L1102.14,720.97L1099.56,723.06L1095.51,724.6L1092.8,724.9L1086.8,728.05L1084.62,730.01L1083.39,732.13L1078.67,736.55L1075.94,737.73L1067.03,739.87L1064.9,741.15L1065.49,742.17L1065.49,743.09L1063.8,744.81L1062.34,745.08L1061.72,745.6L1058.14,750.95L1056.72,751.49L1055.21,753.07L1055.78,756.08L1055.81,759.74L1055.32,761.48L1053.27,764.8L1050.99,766.01L1049.8,767.23L1046.62,772.77L1046.51,777.06L1045.31,779.21L1042.59,779.49L1040.05,781.49L1040.11,781.96L1037.17,786.27L1032.57,790.26L1029.53,792L1027.33,791.71L1026,790.61L1025.45,788.52L1024.79,786.55L1017.38,779.72L1008.93,776.79L999.37,769.19L988.61,766.87L982.41,763.83L981.84,763.21L981.34,759.3L977.42,753.39L976.38,753.3L973.45,743.83L974.37,735.6L977.5,720.96L977.15,718.04L977.68,711.34L979.28,707.5L980.31,701.75L981.1,692.71L980.8,690.12L978.53,683.02L975.14,677.54L976.21,674.14L973.37,670.56L972.8,668.6L972.59,661.66L973.17,659.16L972.83,658.5L971.39,657.67L970.24,657.5L970.07,658.38L969.45,658.46L966.67,657.26L966.36,656.74L966.19,651.72L964.66,643.03L964.25,641.81L963.59,641.1L962.66,640.81L962.29,633.61L960.67,628.43L956.27,620.2L949.25,618.47L948.36,617.57L947.89,616.27L948.27,613.93L949.59,613.24L949.18,611.63L947.65,608.94L944.98,606.88L944.15,605.76L943.96,602.19L941.29,599.32L942.89,596.52L944,593.13L944.6,587.52L950.88,582.35L954.35,578.69L959.63,572.02L961.01,570.86L963.68,569.76L967.18,569.32L968.07,570.17L969.19,570.44L972.44,568.87L972.2,566.18L972.52,565.04L974.73,562.16L977.81,556.23L979.58,553.6L979.5,552.7L979.93,551.45L985.69,546.22L988.02,542.72L991.59,540.8L992.04,541.14L992.8,541.01L993.56,539.41L994.23,536.38L995.01,529.14L994.41,526.89L989.41,520.44L985.69,516.6L981.81,509.91L978.44,500.63L976.9,486.47L977.93,479.17L980.35,474.54L982.16,472.68L984.12,471.56L988.76,470.65L998.17,473.33L1004.51,476.64z"/>
		<path id="C15003" title="Honolulu" class="land" d="M553.27,191.46l-0.03,0.17l0.1,0.44l-0.28,0.36l-0.26,-0.14l-0.3,0.23l-0.03,-0.44l0.36,-0.19l-0.05,-0.3l-0.34,0.02l0.34,-0.19l0.15,0l0.08,-0.07L553.27,191.46zM495.95,223.24l-9.85,1.73l-3.37,0.22l-2.11,-0.96l-1.89,-3.6l-0.31,-1.32l2.37,-1.01l-0.51,-1.08l-1.18,-0.83l-1.36,1.04l-1.75,-6.95l-1.59,-3.5l-2.12,-2.74l-2.7,-2.66l-3.93,-1.93l-0.47,-1.28l0.06,-2.7l-0.37,-2.21l-2.18,-4.32l-2.93,-2.82l-3.16,-2.4l-3.05,-4.28l0.41,-8.71l-0.13,-2.21l-0.58,-1.69l-3.68,-4.16l-6.49,-4.43l0.41,-0.72l5.23,-0.94l14.33,-0.77l4.66,0.86l9.98,-1.07l4.25,-2.37l0.01,-1.55l-0.63,-0.64l0.3,-0.43l6.36,-4.96l2.95,-3.75l0.02,-2.08l0.63,-1.46l6,-6.23l4.29,-3.77l5.81,-1.94l1.19,-1.08l4.14,-0.05l4.83,5.57l1.84,4.95l2,3.32l1.24,0.97l0.4,3.63l-0.23,1.64l2.92,4.36l2.3,1.27l5.22,7.36l-0.28,3.63l1.37,0.63l1.27,-1.47l2.42,0.73l0.8,0.76l3.51,6.63l-0.1,4.29l-2.75,0.6l-0.69,2.31l1.6,7.98l1.01,1.75l3.62,0.99l1.93,1.24l0.54,2.38l1.8,2.45l4.36,3.47l1.5,-0.4l1.21,-0.97l0.51,-2.37l-0.61,-5.4l0.61,-0.97l1.72,-0.86h2.32l3.74,0.54l1.31,0.76l0.1,2.7l-1.01,1.51l-1.11,3.45l-0.1,2.27l0.59,2.48l1.89,0.58l0.44,-0.06l0.4,-0.18l0.47,-0.11l0.12,0.01l0.11,0.02l0.12,0.03l0.04,0.02l0.16,0.35l0.17,0.49l0.49,0.83l2.25,3.07l0.04,0.96l-0.88,2.5l0.45,2.5l0.4,1.22l2.63,4.08l0.74,0.84l7.17,4.75l2.27,-0.19l-0.19,1.25l-0.24,1.61l-9.2,6.74l0.04,1.78l-1.28,0.6l-2.16,0.46l-0.94,-0.41l-0.07,-0.65l0.63,-1.32l-0.18,-2.26l-0.47,-0.74l-1.57,-0.58l-8.07,2.14l-1.75,-0.22l-2.97,1.3l-3.35,3.14l-3.71,0.65l-2.59,-0.7l-0.67,-0.96l-0.27,-1.63l-1.48,-1.94l-3.1,-2.52l-9.96,-3.96l-1.02,-3.15l-1,-1.86l-1.32,-0.43l-3.17,2.53l0.23,1.16l1,0.67l0.57,1.25l-9.3,-0.18l0.34,-1.44l-0.26,-1.5l-3.62,-2.22l-1.21,0.13l-3.62,2.27l-7.89,2.08L495.95,223.24z"/>
		<path id="C15007" title="Kauai" class="land" d="M28.03,66.15l0.62,-0.91l2.14,-7.8l3.67,-1.51l5.47,-0.44l3.05,1.68l1.47,3.06l-0.17,0.81l-0.81,0.57l-0.95,0.29l-0.63,-0.39l-0.55,0.43l-2.83,5.16l-1.66,6.72l1.3,3.97l0.21,3.55l-4.46,2.74l-5.71,1.91l-5.25,0.96l-3.15,1.94l-2.96,4.29l-3.37,5.9l-3.47,8.04l1.08,0.62l-1.22,1.68l-2.74,-1.02l-3.76,-2.81L0,100.83l1.05,-8.14l3.13,-8.99l0.46,-0.69l3.4,-2.43l1.87,-2l0.63,-1.18l2.82,-2.69l5.1,-2.23l6.84,-3.8l2.19,-1.66L28.03,66.15zM183.95,3.18l5.48,-2.55l4.32,1.76l0.48,0.78l4.14,1.23l1.74,0.02l0.59,-0.7l0.77,0.02l3.11,2.21l5.48,5.24l1.52,7.55l2.48,1.4l0.44,1.26l0.14,3.42l-0.42,4l-4.57,7.93l-0.95,4.23l-0.7,1.14l-1.91,0.97l-1.06,1.95l-0.77,4.25l1.84,13.5l0.03,2.13l-0.36,0.74l-3.62,2.48l-1.3,2.72l-5.79,3.63l-5.83,6.43l-3.95,3.19l-4.66,3.1l-5.7,-2.72l-4.26,-1.44l-6.09,-0.51l-8.42,-0.09l-4.4,-1.26l-0.63,-0.94l-1.46,0.35l-5.84,0.16l-6.21,-4.53l-2.31,-3.81l-5.34,-5.8l-2.16,-0.73l-5.34,-0.81l-3.35,-1.78l-8.56,-2.39l-1.69,-1.42l-5.04,-7.67l-0.63,-3.08l0.99,-7.84l1.45,-2.14l7.18,-6.71l1.56,-3.69l1.75,-6.54l1.67,-2.27l5.86,-3.16l6.78,-1.33l13.73,-8.96l3.87,-2.8l1.72,-1.75l5.47,-0.6l1.23,0.23l1.25,0.47l1.67,2.29l1.47,-0.64l2.44,0.44l0.98,0.47l0.24,1.08l0.62,0.77l1.75,0.49l1.52,-1.23l0.05,-3.5L171.17,0l1.89,0.11l2.96,1.49l2.43,-0.55l3.23,0.6L183.95,3.18z"/>
	</g>
</svg>