<?xml version="1.0" encoding="utf-8"?>
<!-- (c) ammap.com | SVG map of IA Counties -->
<svg xmlns="http://www.w3.org/2000/svg" xmlns:amcharts="http://amcharts.com/ammap" xmlns:xlink="http://www.w3.org/1999/xlink" version="1.1">
	<defs>
		<style type="text/css">
			.land
			{
				fill: #CCCCCC;
				fill-opacity: 1;
				stroke:white;
				stroke-opacity: 1;
				stroke-width:0.5;
			}
		</style>

		<amcharts:ammap projection="mercator" leftLongitude="-96.640038" topLatitude="43.501379" rightLongitude="-90.139811" bottomLatitude="40.375305"></amcharts:ammap>

		<!-- All areas are listed in the line below. You can use this list in your script. -->
		<!--{id:"C19001"},{id:"C19003"},{id:"C19005"},{id:"C19007"},{id:"C19009"},{id:"C19011"},{id:"C19013"},{id:"C19015"},{id:"C19017"},{id:"C19019"},{id:"C19021"},{id:"C19023"},{id:"C19025"},{id:"C19027"},{id:"C19029"},{id:"C19031"},{id:"C19033"},{id:"C19035"},{id:"C19037"},{id:"C19039"},{id:"C19041"},{id:"C19043"},{id:"C19045"},{id:"C19047"},{id:"C19049"},{id:"C19051"},{id:"C19053"},{id:"C19055"},{id:"C19057"},{id:"C19059"},{id:"C19061"},{id:"C19063"},{id:"C19065"},{id:"C19067"},{id:"C19069"},{id:"C19071"},{id:"C19073"},{id:"C19075"},{id:"C19077"},{id:"C19079"},{id:"C19081"},{id:"C19083"},{id:"C19085"},{id:"C19087"},{id:"C19089"},{id:"C19091"},{id:"C19093"},{id:"C19095"},{id:"C19097"},{id:"C19099"},{id:"C19101"},{id:"C19103"},{id:"C19105"},{id:"C19107"},{id:"C19109"},{id:"C19111"},{id:"C19113"},{id:"C19115"},{id:"C19117"},{id:"C19119"},{id:"C19121"},{id:"C19123"},{id:"C19125"},{id:"C19127"},{id:"C19129"},{id:"C19131"},{id:"C19133"},{id:"C19135"},{id:"C19137"},{id:"C19139"},{id:"C19141"},{id:"C19143"},{id:"C19145"},{id:"C19147"},{id:"C19149"},{id:"C19151"},{id:"C19153"},{id:"C19155"},{id:"C19157"},{id:"C19159"},{id:"C19161"},{id:"C19163"},{id:"C19165"},{id:"C19167"},{id:"C19169"},{id:"C19171"},{id:"C19173"},{id:"C19175"},{id:"C19177"},{id:"C19179"},{id:"C19181"},{id:"C19183"},{id:"C19185"},{id:"C19187"},{id:"C19189"},{id:"C19191"},{id:"C19193"},{id:"C19195"},{id:"C19197"}-->

	</defs>
	<g>
		<path id="C19001" title="Adair" class="land" d="M451.61,508.44L451.6,595.02L408.48,594.91L365.17,594.78L365.16,508.32z"/>
		<path id="C19003" title="Adams" class="land" d="M365.17,594.78L408.48,594.91L408.45,659.09L322.26,658.8L322.42,594.68L364.35,594.83z"/>
		<path id="C19005" title="Allamakee" class="land" d="M1021.06,0.17L1020.95,1.03L1021.08,2.64L1021.52,4.24L1021.38,5.19L1020.55,7.73L1019.76,9.23L1018.84,9.98L1018.32,10.65L1018.14,11.23L1018.11,11.9L1018.32,12.99L1018.98,14.39L1023.05,19.69L1023.35,20.23L1023.8,21.04L1024.16,22.05L1024.33,22.88L1024.29,23.97L1024.51,25.37L1024.76,26.36L1024.83,27.36L1024.59,28.78L1024.26,29.79L1023.48,31.61L1023.25,32.62L1023.01,32.96L1021.88,33.88L1021.57,34.42L1021.61,34.97L1023.15,38.41L1023.65,39.1L1024.05,39.3L1026.65,39.68L1027.95,40.12L1029.84,41.4L1032.91,42.98L1036.19,44.29L1037.05,44.73L1037.74,45.17L1039.9,46.98L1041.86,48.44L1045.93,54.06L1047.02,56.4L1048.18,58.47L1048.55,59.34L1048.58,60.16L1048.35,61.15L1048.38,61.72L1048.56,62.01L1048.89,62.2L1050.42,62.29L1050.81,62.51L1051.01,62.87L1051.15,63.47L1051.15,63.83L1050.82,65.22L1050.28,66.61L1049.55,67.61L1048.53,68.67L1047.13,70.45L1045.59,72.09L1041.73,76.03L1040.64,76.98L1039.63,77.63L1039.05,78.43L1038.73,79.39L1038.63,80.84L1036.79,84.31L1036.46,84.57L1035.95,85.45L1035.44,87.11L1035.08,88.94L1034.53,89.97L1032.64,92.41L1031.84,93.01L1029.97,93.83L1029.05,94.53L1028.72,95.26L1028.55,96.02L1028.49,97.02L1028.59,98.63L1029.07,102.48L1028.68,108.52L948.07,108.16L948.32,41.12L947.02,41.09L947.03,0.17L950.75,0.17L958.29,0.17L960.14,0.18L961.53,0.16L969.59,0.13L974.48,0.15L975.17,0.14L978.08,0.16L978.86,0.2L987.24,0.08L991.07,0.18L992.08,0.06L992.51,0.1L1012.76,0.05L1015.6,0.18z"/>
		<path id="C19007" title="Appanoose" class="land" d="M753.61,735.51L753.36,735.52L744.42,735.77L743.83,735.75L739.17,735.83L733.96,735.92L731.11,735.99L717.8,736.07L717.81,736.09L716.48,736.1L712.28,736.13L711.22,736.17L708.18,736.13L706.18,736.21L703.59,736.25L696.42,736.28L693.38,736.36L669.32,737.1L667.1,737.2L667.02,662.14L667.06,661.71L667.01,661.52L667.04,659.35L753.39,659.24z"/>
		<path id="C19009" title="Audubon" class="land" d="M291.3,418.08L356.83,418.33L356.96,483.74L365.14,483.74L365.16,508.32L301.11,508.19L301.11,483.75L291.36,483.78z"/>
		<path id="C19011" title="Benton" class="land" d="M861.54,308.4L905.55,307.94L905.49,418.46L828.63,418.16L817.59,418.23L817.47,308.33z"/>
		<path id="C19013" title="Black Hawk" class="land" d="M773.27,308.46L773.17,264.62L769.35,264.62L769.35,242.67L769.31,241.77L769.32,220.63L858.36,220.69L858.4,264.98L861.65,264.97L861.54,308.4L817.47,308.33z"/>
		<path id="C19015" title="Boone" class="land" d="M466.09,330.54L509.99,330.49L553.9,330.68L553.97,418.08L531.84,418.07L521.42,418.07L520.6,417.99L466.19,418.11z"/>
		<path id="C19017" title="Bremer" class="land" d="M769.32,220.63L769.37,152.94L853.91,152.99L853.91,153.01L858.38,152.96L858.36,220.69z"/>
		<path id="C19019" title="Buchanan" class="land" d="M947.74,220.2L947.46,264.7L949.56,264.71L949.64,308.62L905.55,307.94L861.54,308.4L861.65,264.97L858.4,264.98L858.36,220.69z"/>
		<path id="C19021" title="Buena Vista" class="land" d="M235.68,152.22L325,152.27L324.89,241.53L235.72,241.17z"/>
		<path id="C19023" title="Butler" class="land" d="M680.69,152.83L769.37,152.94L769.32,220.63L769.31,241.77L769.35,242.67L680.34,242.42L680.64,165.85L680.58,165.48L680.64,164.46z"/>
		<path id="C19025" title="Calhoun" class="land" d="M335.45,330.59L335.77,263.51L324.89,263.45L324.89,241.53L413.67,241.9L413.67,263.66L422.22,263.68L422.24,330.73L378.69,330.67z"/>
		<path id="C19027" title="Carroll" class="land" d="M356.83,418.33L291.3,418.08L291.68,330.41L335.45,330.59L378.69,330.67L378.7,418.23z"/>
		<path id="C19029" title="Cass" class="land" d="M279.65,508.06L301.11,508.19L365.16,508.32L365.17,594.78L364.35,594.83L322.42,594.68L279.76,594.52L279.44,594.5z"/>
		<path id="C19031" title="Cedar" class="land" d="M993.05,484.7L993.12,418.91L993.17,396.9L1081.18,397.19L1081.2,441.24L1080.92,485.01z"/>
		<path id="C19033" title="Cerro Gordo" class="land" d="M591.71,63.44L680.88,63.42L680.88,74.43L680.69,152.83L591.52,152.58z"/>
		<path id="C19035" title="Cherokee" class="land" d="M169.13,241.28L146.84,241.45L146.95,152.43L235.68,152.22L235.72,241.17z"/>
		<path id="C19037" title="Chickasaw" class="land" d="M769.34,74.43L817.54,74.43L821.38,74.2L858.49,74.39L858.46,107.87L858.38,152.96L853.91,153.01L853.91,152.99L769.37,152.94z"/>
		<path id="C19039" title="Clarke" class="land" d="M580.62,659.39L537.71,659.12L494.32,659.7L494.43,595.11L516.16,595.15L536.8,593.8L580.42,593.99z"/>
		<path id="C19041" title="Clay" class="land" d="M235.68,152.22L235.7,63.5L325.03,63.55L325,152.27z"/>
		<path id="C19043" title="Clayton" class="land" d="M1028.68,108.52L1028.68,110.39L1028.39,111L1028.26,111.81L1028.56,112.64L1028.52,113.2L1029.16,119.19L1030.37,124.14L1032.4,131.31L1032.53,132.16L1032.54,132.25L1032.57,134.71L1032.77,135.34L1033.64,136.69L1034.19,137.8L1034.46,138.52L1034.67,139.84L1034.65,140.28L1033.98,142.83L1033.83,144.01L1033.85,144.45L1034.65,146.98L1034.88,147.95L1034.98,148.9L1034.96,149.47L1034.59,150.92L1034.53,151.6L1034.53,152.24L1034.65,152.71L1034.81,153.23L1035.06,153.56L1036.07,153.79L1039.95,155.83L1040.3,156.12L1040.94,157.03L1042.46,158.35L1043.12,159.09L1043.56,160.96L1043.45,163.87L1043.67,165.03L1044.11,166.2L1044.76,167.25L1044.84,167.6L1044.15,171.41L1044.34,172.47L1045.08,172.87L1046.47,172.69L1047.24,173.27L1047.12,175.16L1047.35,178.68L1047.84,181.51L1048.41,183.49L1048.66,184.7L1048.74,186.62L1048.96,188.12L1050.15,189.57L1050.71,190.11L1050.73,190.58L1050.49,191.1L1050.17,191.28L1049.72,191.32L1049.67,192.27L1049.88,192.9L1050.73,193.01L1051.12,193.33L1051.46,193.81L1051.74,194.49L1051.74,195.55L1051.94,196.14L1052.4,196.46L1052.65,196.48L1053.29,196.41L1053.75,196.05L1054.64,196.08L1055.39,196.37L1056.03,197.1L1056.22,197.59L1056.27,198.32L1056.47,199.07L1057.01,199.72L1058.81,200.91L1059.1,201L1060.25,200.77L1062.03,201.77L1062.9,202.41L1064.17,203.68L1065.71,206.18L1066.25,206.72L1066.91,207.12L1068.64,207.63L1071.02,209.28L1071.62,209.59L1073.06,210.03L1073.91,210.14L1075.26,209.96L1076.44,209.61L1076.91,209.63L1078.37,210.26L1080.84,211.97L1081.47,212.22L1081.38,219.76L1037.05,219.73L947.74,220.2L947.48,177.05L947.83,175.57L947.69,175.24L948.07,108.16z"/>
		<path id="C19045" title="Clinton" class="land" d="M1214.98,433.24L1211.12,434.64L1209.53,435.21L1208.52,435.77L1204.73,438.32L1203.55,439.12L1201.67,440.25L1200.79,441.05L1197.9,442.25L1193.36,446.61L1191.86,448.57L1191.01,450.57L1190.8,451.93L1184.23,451.3L1177.17,450.93L1172.97,449.71L1170.37,447.13L1166.09,443.03L1159.74,441.53L1152.45,441.36L1146.81,442.55L1140.86,443.89L1135.06,443.77L1126.85,444.47L1121.83,445.38L1118.77,448.75L1111.87,449.09L1108.62,446.27L1101.16,441.24L1086.67,441.2L1081.2,441.24L1081.18,397.19L1081.2,375.15L1221.33,375.27L1221.83,375.89L1221.96,376.19L1222.18,376.92L1222.3,377.9L1222.49,378.57L1223.3,379.87L1223.79,381.37L1224,382.8L1223.9,384.63L1222.88,386.62L1222.84,388.34L1222.39,389.11L1221.41,390.16L1219.84,393.39L1219.47,394.68L1219.32,396.53L1219.52,397.52L1220.12,398.55L1220.83,399.22L1221.63,400.52L1221.83,401.03L1221.78,401.56L1221.5,404.92L1221.45,407.18L1220.81,409.35L1219.29,412.94L1218.35,414.79L1217.84,417.38L1217.8,419.58L1217.41,420.54L1216.21,422.8L1216.12,423.16L1215.77,424.92L1215.73,425.71L1216.16,428.35L1216.36,431.02L1216.3,431.68L1216.11,432.26z"/>
		<path id="C19047" title="Crawford" class="land" d="M203.84,418.06L203.29,418.08L182.09,418.14L182.46,330.16L247.87,330.28L291.68,330.41L291.3,418.08z"/>
		<path id="C19049" title="Dallas" class="land" d="M444.31,418.17L466.19,418.11L520.6,417.99L521.42,418.07L531.84,418.07L532.08,484.18L536.53,484.19L536.54,506.38L516.54,508.59L461.36,508.5L460.41,508.43L451.61,508.44L451.65,484.05L444.37,483.96z"/>
		<path id="C19051" title="Davis" class="land" d="M807.68,733.93L802.24,734.11L788.29,734.42L786.81,734.4L783.03,734.5L782.9,734.51L782.48,734.51L764.46,735.19L753.61,735.51L753.39,659.24L840.02,659.03L839.88,733.12L836.8,733.24L835.76,733.26L832.76,733.29L829.21,733.37L817.48,733.63L811.37,733.79L811.32,733.82L807.68,733.93z"/>
		<path id="C19053" title="Decatur" class="land" d="M580.55,738.13L580.16,738.15L579.81,738.12L578.98,738.16L578.87,738.17L578.8,738.16L572.93,738.32L561.85,738.6L561.27,738.6L560.77,738.6L559.47,738.63L557.91,738.65L555.42,738.72L549.37,738.77L548.26,738.8L546.58,738.8L545.55,738.8L544.14,738.75L540.37,738.78L539.6,738.79L531.85,738.86L531.24,738.91L527.06,738.98L524.66,739.03L516.25,739.18L516.06,739.19L515.77,739.21L513.31,739.26L509.22,739.35L509.1,739.36L508.95,739.32L508.66,739.36L508.43,739.38L503.91,739.49L501.48,739.52L494.19,739.7L494.32,659.7L537.71,659.12L580.62,659.39z"/>
		<path id="C19055" title="Delaware" class="land" d="M1037.56,308.78L993.65,308.61L949.64,308.62L949.56,264.71L947.46,264.7L947.74,220.2L1037.05,219.73L1036.79,264.2L1037.41,264.2z"/>
		<path id="C19057" title="Des Moines" class="land" d="M1071.64,616.56L1071.66,616.65L1072.31,618.77L1072.5,621.13L1072.67,622.03L1072.92,624.56L1072.93,625.5L1072.35,629.33L1072.41,631.16L1072.24,632.51L1071.54,635.31L1070.49,637.41L1069.94,639.15L1069.95,639.93L1070.51,641.62L1070.96,643.55L1071.1,644.5L1071.05,645.54L1069.5,649.94L1069.04,652.77L1068.58,653.59L1067.9,654.22L1065.98,655.11L1064.8,655.95L1062.34,656.95L1061.39,657.69L1060.26,658.82L1059.56,659.8L1058,662.93L1056.88,664.13L1055.13,665.16L1054.7,665.52L1053.65,666.82L1053.14,667.73L1052.6,669.26L1051.43,671.77L1050.99,672.28L1049.41,673.35L1047.46,675.48L1045.1,677.66L1044.55,678.54L1043.82,680.88L1043.67,682.38L1043.79,683.15L1044.68,685.52L1044.88,687.05L1044.79,688.79L1043.95,691.91L1043.58,692.87L1042.76,694.4L1041.68,695.92L1041.26,697.26L1040.26,702.3L1040.37,703.11L1040.61,703.69L1041.14,706.48L1041.17,707.72L1040.98,709.26L1040.88,709.45L1033.69,706.99L1031.44,702.9L1028.82,703.31L1028.15,706.47L1022.85,705.17L1021.17,700.54L1016.03,696.54L1008.76,695.04L1006.81,690.56L993.54,686.08L987.95,681.63L984.98,680.62L991.99,680.63L992.25,615.69L1071.59,616.04z"/>
		<path id="C19059" title="Dickinson" class="land" d="M238.12,0.23L238.22,0.23L261.52,0.19L261.56,0.2L262.68,0L268.31,0.08L274.81,0.11L277.17,0.08L277.28,0.11L279.61,0.19L285.69,0.11L287.15,0.14L298.56,0.09L298.71,0.11L302.38,0.1L306.1,0.08L309.83,0.17L313.61,0.18L317.36,0.19L321.1,0.18L324.8,0.19L324.81,0.19L324.86,0.19L325.03,63.55L235.7,63.5L235.76,0.25z"/>
		<path id="C19061" title="Dubuque" class="land" d="M1161.09,286.96L1161.15,287.03L1125.14,286.85L1125.04,309.05L1081.26,308.91L1037.56,308.78L1037.41,264.2L1036.79,264.2L1037.05,219.73L1081.38,219.76L1081.47,212.22L1083.26,212.93L1087.08,213.89L1089.83,214.88L1091.45,215.33L1093.56,215.69L1100.28,217.19L1101.94,217.67L1103.72,217.91L1105.47,218.3L1107.18,218.89L1110.33,219.8L1112.69,220.34L1114.75,221.02L1116.82,222.22L1117.37,222.7L1118.05,223.57L1118.39,224.67L1118.54,225.69L1119.68,227.72L1120.05,228.77L1120.81,231.62L1120.86,232.79L1121.01,233.51L1121.29,234.06L1122.44,236.13L1122.87,236.71L1123.69,237.38L1125.8,239.57L1126.25,242.14L1127.19,244.18L1128.79,245.66L1129.11,246.6L1129.73,249.83L1130.47,252.13L1130.43,253.53L1129.68,254.77L1128.23,257.37L1126.85,259L1126.74,259.63L1126.78,261.06L1127.21,262.36L1128.58,264.03L1132.8,267.34L1136.19,269.22L1139.19,270.24L1140.75,271.02L1142.9,271.72L1143.42,272.05L1143.93,272.47L1144.83,273.95L1145.14,275.07L1145.26,276.98L1145.38,277.42L1145.86,278.21L1147.17,278.98L1152.92,281.55L1154.93,282.62L1156.19,283.45L1157.01,284.24L1158.04,285.59L1158.64,286.09L1159.11,286.25L1159.96,286.22L1160.5,286.43z"/>
		<path id="C19063" title="Emmet" class="land" d="M324.86,0.19L324.88,0.19L330.01,0.18L332.47,0.17L332.75,0.16L335.11,0.17L335.55,0.15L336.18,0.15L381.12,0.17L390.58,0.22L391.49,0.21L408.52,0.22L412.92,0.14L413.71,0.16L413.65,63.56L325.03,63.55z"/>
		<path id="C19065" title="Fayette" class="land" d="M858.38,152.96L858.46,107.87L887.5,107.94L887.98,108.01L948.07,108.16L947.69,175.24L947.83,175.57L947.48,177.05L947.74,220.2L858.36,220.69z"/>
		<path id="C19067" title="Floyd" class="land" d="M769.34,74.43L769.37,152.94L680.69,152.83L680.88,74.43z"/>
		<path id="C19069" title="Franklin" class="land" d="M591.36,242.2L591.52,152.58L680.69,152.83L680.64,164.46L680.58,165.48L680.64,165.85L680.34,242.42z"/>
		<path id="C19071" title="Fremont" class="land" d="M151.69,687.78L151.63,686.79L151.39,686.09L149.89,682.83L149.59,680.96L149.69,679.97L149.86,679.38L150.86,677.28L151.11,676.04L151.13,675L150.35,672.46L149.26,670.33L149,669.23L148.98,668.63L149.13,667.82L149.29,667.46L149.83,666.59L150.12,666.34L150.84,665.86L153.43,665.17L154.44,664.56L155.13,663.97L155.86,662.88L156.11,662.27L156.35,661.14L156.29,660.09L156.08,659.48L155.6,658.54L175.94,658.61L176.15,658.71L176.5,658.59L236.29,658.58L236.24,701.5L238.99,701.54L238.38,719.53L238.37,738.07L230.56,737.94L220.4,737.81L209.85,737.68L209.6,737.67L208.38,737.64L204.28,737.54L200.68,737.46L193.71,737.33L187.92,737.15L179.33,737.11L179.32,737.11L168.22,736.97L164.6,736.91L165.87,735.98L166.95,735.02L167.54,733.98L167.76,733.26L167.81,732.42L167.61,731.56L167.31,731.01L166.03,729.85L164.83,729.03L164.38,728.61L163.98,728L163.77,727.22L163.7,724.53L163.53,723.52L163.25,722.75L162.6,721.52L161.54,720.08L160.66,719.1L160.11,718.57L158.98,717.83L157.32,717.21L155.47,717.04L153.82,716.63L152.07,715.65L150.07,714.09L149.69,713.51L149.46,712.83L149.1,709.96L148.75,708.99L148.22,707.97L146.95,706.53L144.86,705.44L143.96,705.03L143.63,704.99L142.47,704.18L142.06,703.31L141.39,700.64L141.43,699.54L141.81,698.11L142.38,696.69L143.25,695.39L144.32,694.26L144.95,693.76L146.51,692.96L148.19,692.28L149.35,691.54L150.07,690.93L150.81,690.07L151.18,689.59L151.5,688.93L151.7,687.97z"/>
		<path id="C19073" title="Greene" class="land" d="M378.7,418.23L378.69,330.67L422.24,330.73L466.09,330.54L466.19,418.11L444.31,418.17z"/>
		<path id="C19075" title="Grundy" class="land" d="M685.11,330.7L684.88,264.36L680.32,264.32L680.34,242.42L769.35,242.67L769.35,264.62L773.17,264.62L773.27,308.46L729.09,308.54L729.21,330.48z"/>
		<path id="C19077" title="Guthrie" class="land" d="M356.83,418.33L378.7,418.23L444.31,418.17L444.37,483.96L451.65,484.05L451.61,508.44L365.16,508.32L365.14,483.74L356.96,483.74z"/>
		<path id="C19079" title="Hamilton" class="land" d="M598.22,330.69L553.9,330.68L509.99,330.49L509.97,264.01L502.45,263.99L502.46,242.08L591.36,242.2L591.43,264.27L598.3,264.31z"/>
		<path id="C19081" title="Hancock" class="land" d="M502.52,152.77L502.67,63.47L591.71,63.44L591.52,152.58L548.96,152.56L547.15,152.71z"/>
		<path id="C19083" title="Hardin" class="land" d="M598.22,330.69L598.3,264.31L591.43,264.27L591.36,242.2L680.34,242.42L680.32,264.32L684.88,264.36L685.11,330.7L641.78,330.8z"/>
		<path id="C19085" title="Harrison" class="land" d="M97.55,463.46L97.61,462.07L97.84,461.41L98.29,460.64L99.38,459.75L100.67,459.21L103.41,459.83L104.95,459.65L106.16,458.77L106.71,457.93L106.85,457.46L106.82,456.98L106.65,456.5L106.32,455.85L105.46,454.67L103.97,453.61L101.15,452.14L100.58,451.23L100.44,450.49L100.43,449.66L100.77,448.07L101.11,447.54L102.1,446.85L103.2,446.51L104.52,445.78L105.42,444.63L105.72,443.7L105.6,441.25L105.87,439.62L106.68,438.31L107.96,436.83L108.31,435.8L108.25,434.99L107.79,433.88L107.35,433.15L106.24,432.07L105.21,431.48L102.8,430.82L101.96,430.46L100.93,429.72L100.21,428.83L99.88,428.06L99.6,426.95L99.58,426.28L100.15,423.88L100.12,422.86L99.71,421.74L99.01,420.67L98.58,420.22L97.26,419.29L95.87,418.73L95,418.14L94.29,417.34L182.09,418.14L203.29,418.08L203.84,418.06L203.68,483.7L215.04,483.71L215,507.84L144.7,507.75L144.39,508.04L144.05,507.79L121.19,507.62L121.61,506.92L121.82,506.36L121.86,505.81L121.85,505.03L121.62,503.5L120.56,499.67L120.25,499.05L119.51,498.34L118.58,497.95L117.37,497.81L116.76,497.9L116.1,498.25L115.33,499.07L115.11,499.44L114.71,502.52L114.01,506.14L113.58,507.1L113.29,507.36L112.8,507.59L111.41,507.54L110.36,507.14L109.56,506.48L108.48,505.31L107.75,504.27L106.71,503.09L105.31,502.3L103.85,501.7L103.57,501.4L102.75,499.52L102.35,497.54L102.42,496.61L102.84,494.76L103.18,494.05L104.5,492.36L104.95,491.51L105.18,490.75L105.19,489.99L105.06,489.21L104.76,488.47L104.32,487.87L103.77,487.42L101.35,486.41L100.8,486.01L99.87,485.08L99.03,483.72L98.66,482.85L98.33,481.78L98.23,480.91L98.26,479.94L98.58,478.88L98.97,478.28L101.5,475.38L102.06,474.35L102.57,472.41L102.5,471.06L102.03,469.56L101.67,468.97L99.47,467.09L98.82,466.42L98.22,465.62L97.69,464.75L97.54,463.52z"/>
		<path id="C19087" title="Henry" class="land" d="M970.59,593.71L992.32,594L992.25,615.69L991.99,680.63L984.98,680.62L929.43,680.41L929.25,680.54L928.98,680.42L926.7,680.41L926.8,658.76L927.24,593.6z"/>
		<path id="C19089" title="Howard" class="land" d="M769.58,0.23L786.26,0.22L789.19,0.2L796.75,0.15L797.26,0.19L800.62,0.18L804.27,0.19L821.18,0.2L821.5,0.19L836.3,0.17L840.06,0.13L854.18,0.12L856.8,0.13L858.68,0.14L858.71,0.14L858.63,6.67L858.74,7.41L858.67,7.69L858.49,74.39L821.38,74.2L817.54,74.43L769.34,74.43z"/>
		<path id="C19091" title="Humboldt" class="land" d="M502.52,152.77L502.43,220.02L413.66,219.9L413.69,152.69z"/>
		<path id="C19093" title="Ida" class="land" d="M169.13,241.28L235.72,241.17L235.82,263.3L248.08,263.31L247.9,330.1L247.87,330.28L182.46,330.16L182.75,263.34L169.09,263.28z"/>
		<path id="C19095" title="Iowa" class="land" d="M905.49,418.46L905.17,484.19L906.31,484.18L905.9,506.49L883.9,506.67L876.8,506.69L876.54,506.66L876.14,506.7L817.72,506.91L817.59,418.23L828.63,418.16z"/>
		<path id="C19097" title="Jackson" class="land" d="M1161.15,287.03L1161.81,287.81L1162.85,290.07L1163.26,290.63L1165.12,292.65L1166.33,293.23L1166.79,293.69L1169.3,298.35L1170.27,299.43L1171.03,299.97L1171.47,300.47L1171.93,301.33L1172.05,301.94L1172,302.29L1171.82,302.64L1171.27,303.22L1171.08,303.62L1171.23,304.74L1171.2,306.34L1170.47,309.4L1169.98,310.06L1169.26,311.71L1169.23,313.22L1170.51,316.23L1170.87,317.87L1171.41,319.25L1171.98,319.96L1173.08,320.95L1174.93,323.1L1175.82,324.66L1176.04,325.69L1176.72,326.6L1179.73,329.3L1181.61,330.38L1183.15,331.67L1186.69,332.21L1188.56,332.79L1190.53,334.62L1190.66,334.68L1194.17,336.2L1197.24,338.41L1199.7,339.51L1202.27,340.19L1203.27,340.27L1206.14,341.8L1208.15,343.17L1209.68,344.01L1210.93,345.03L1211.31,345.93L1211.51,346.85L1211.7,348.47L1212.45,350.53L1213.21,351.23L1214.51,351.84L1215.07,351.93L1218.18,351.98L1218.83,352.67L1219.7,354.13L1219.89,354.87L1220.03,356.75L1219.96,358.63L1219.6,361.49L1218.67,364.48L1219.2,367.8L1219.25,370.75L1219.4,372.99L1219.6,373.42L1220.47,374.09L1221.33,375.27L1081.2,375.15L1081.26,308.91L1125.04,309.05L1125.14,286.85z"/>
		<path id="C19099" title="Jasper" class="land" d="M623.54,507.4L623.53,484L619.76,484.04L619.9,418.15L641.76,418.25L729.49,418.33L729.35,483.95L731.17,483.94L731.28,507.16L709.64,507.23L669.6,507.3L669.41,507.35L669.11,507.29z"/>
		<path id="C19101" title="Jefferson" class="land" d="M883.99,593.41L904.05,593.93L927.24,593.6L926.8,658.76L866.29,658.98L866.03,658.95L840.02,659.03L839.85,593.64z"/>
		<path id="C19103" title="Johnson" class="land" d="M992.66,528.59L975.08,528.33L970.91,528.43L967.77,522.71L967.97,519.44L964.88,517.08L967.5,515.01L966.51,508.78L962.61,507.21L964.17,506.6L905.9,506.49L906.31,484.18L905.17,484.19L905.49,418.46L931.22,418.45L932.12,418.4L993.12,418.91L993.05,484.7z"/>
		<path id="C19105" title="Jones" class="land" d="M1081.26,308.91L1081.2,375.15L1081.18,397.19L993.17,396.9L993.65,308.61L1037.56,308.78z"/>
		<path id="C19107" title="Keokuk" class="land" d="M883.99,593.41L839.85,593.64L796.49,593.82L796.15,506.97L817.72,506.91L876.14,506.7L876.54,506.66L876.8,506.69L883.9,506.67z"/>
		<path id="C19109" title="Kossuth" class="land" d="M479.61,0.23L502.61,0.41L502.67,63.47L502.52,152.77L413.69,152.69L413.65,63.56L413.71,0.16L413.71,0.16L423.55,0.19L426.02,0.21L450.41,0.22L476.41,0.24L476.75,0.23L479.34,0.23z"/>
		<path id="C19111" title="Lee" class="land" d="M983.07,787.94L982.53,787.29L981.9,786.9L978.96,785.98L977.61,787.78L976.85,788.62L974.7,788.59L974.49,788.45L974.32,787.92L974.55,787.28L974.47,786.22L973.18,786.81L971.62,787.08L971.23,787.01L970.82,786.56L969.6,784.2L969.63,783.77L970.05,782.59L970.17,781.98L970.19,781.64L970.07,781.53L969.82,781.53L969.1,781.99L968.26,782.12L966.91,781.73L966.63,781.52L966.5,781.23L966.19,780.92L965.26,780.49L964.44,780.45L963.69,780.21L963.26,779.94L962.92,779.29L962.8,778.48L962.9,777.7L963.87,776.06L964.32,774.88L964.3,774.5L964.14,774.29L963.19,774.34L962.41,774.15L961.72,773.53L961.57,773.15L961.58,772.54L961.89,772.06L962.98,771.1L963.37,770.66L963.52,770.25L963.55,769.71L963.41,768.71L963.17,768.34L962.97,768.14L962.51,768.05L959.65,768.26L957.98,768.11L955.88,767.56L955.14,767.24L953.82,766.41L952.77,765.09L952.55,764.63L952.38,764.18L952.21,763.09L951.54,761.09L950.8,759.84L950.08,759.17L947.5,757.93L946.65,757.35L945.88,756.76L945.4,756.18L945.05,755.46L944.86,754.4L944.89,753.74L945.53,751.45L945.67,749.54L945.49,748.3L945.29,747.87L944.94,747.5L944.33,747.21L941.9,746.7L938.83,745.8L935.7,745.37L933.68,744.85L932.36,743.78L931.97,743.16L931.82,742.58L931.83,741.93L932.92,738.99L932.99,738.47L932.8,737.98L932.34,737.35L930.92,736.18L927.97,734.48L927.08,733.62L926.7,680.41L928.98,680.42L929.25,680.54L929.43,680.41L984.98,680.62L987.95,681.63L993.54,686.08L1006.81,690.56L1008.76,695.04L1016.03,696.54L1021.17,700.54L1022.85,705.17L1028.15,706.47L1028.82,703.31L1031.44,702.9L1033.69,706.99L1040.88,709.45L1040.33,710.55L1039.53,714.49L1039.31,715.26L1039,715.78L1038.72,716.16L1036.06,718.2L1033,720L1027.14,723.84L1026.85,724.03L1024.79,724.33L1020.92,723.75L1015.38,723.76L1014.4,723.87L1013.42,724.19L1012.16,724.88L1010.05,725.28L1004.33,726.77L998.08,729.92L996.39,730.86L995.4,731.63L994.29,732.81L991.58,737.55L990.54,739.56L986.45,743.27L985.74,744.46L985.53,745.15L985.44,746.2L985.56,747.4L985.95,748.29L986.59,748.86L987.77,749.42L988.98,749.78L989.64,750.3L990.15,750.97L992.56,754.85L992.78,755.35L993.47,757.93L993.57,759.37L993.53,760.38L993.34,761.84L992.74,764.19L990.85,768.69L990.51,769.75L990.22,771.25L990.16,772.11L990.32,773.87L990.94,776.1L991.68,778.18L991.92,779.76L991.9,782.29L991.83,782.81L991.3,784.59L990.79,785.13L990.13,785.64L988.92,786.3L987.3,786.75L984.28,786.96L983.78,787.18z"/>
		<path id="C19113" title="Linn" class="land" d="M993.17,396.9L993.12,418.91L932.12,418.4L931.22,418.45L905.49,418.46L905.55,307.94L949.64,308.62L993.65,308.61z"/>
		<path id="C19115" title="Louisa" class="land" d="M1048.27,556.03L1047.96,557.99L1047.46,558.93L1045.7,560.79L1044.73,562.65L1043.01,567.58L1042.39,568.84L1041.29,570.34L1040.55,571.86L1040.66,574.01L1040.9,574.61L1041.43,575.22L1043.07,576.72L1044.54,578.69L1046.72,580.74L1048.31,582.55L1049.65,584.46L1051.69,587.88L1054.24,592.78L1056.4,593.42L1056.93,593.46L1059.69,592.83L1060.63,592.76L1062.45,593.67L1063.01,594.15L1064,595.37L1065.58,598.63L1067.55,601.75L1068.48,604.38L1070.11,606.49L1072.11,610.09L1072.18,610.56L1071.81,613.13L1071.59,616.04L1071.59,616.04L992.25,615.69L992.32,594L970.59,593.71L970.91,528.43L975.08,528.33L992.66,528.59L992.51,550.38L1048.51,550.99L1048.51,551.05z"/>
		<path id="C19117" title="Lucas" class="land" d="M623.68,594.14L666.74,594.09L667.04,659.35L580.62,659.39L580.42,593.99z"/>
		<path id="C19119" title="Lyon" class="land" d="M15.96,62.27L15.58,62.51L14.99,62.46L14.23,62.21L13.39,61.59L11.84,60.13L10.7,60.29L10.26,59.99L10.05,58.58L10.58,57.92L10.69,58.01L10.7,58.51L11.07,58.46L11.7,57.43L11.46,54.26L11.41,53.56L11.34,53.22L11.17,53.03L11.04,52.71L11.18,52.43L12.46,52.18L12.82,52.43L12.99,52.81L13.29,53.11L14.2,53.3L14.35,53.3L15.9,53.3L16.31,53.8L18.58,53.11L20.58,51.95L21.41,49.39L21.49,48.75L20.88,47.69L20.07,44.59L19.73,42.56L20.3,41.98L21.73,39.79L21.7,39.54L21.5,39.5L21.29,38.59L21.18,35.9L21.16,34.39L21.32,34.34L22.13,33.4L22.29,32.71L22.3,32.37L22.25,29.87L21.78,27.51L21.52,27.11L20.82,26.74L20.64,26.79L20.64,27.09L20.44,27.29L19.32,27.43L16.33,25.09L15.46,24.4L14.5,22.86L13.41,21.71L12.45,21.19L12.98,20.02L13.2,19.05L13.08,18.77L12.15,17.95L10.87,17.84L9.76,17.97L8.81,17.59L8.56,17.33L6.99,13.33L6.94,13L7.47,11.41L9.75,9.39L10.38,8.17L10.28,7.77L10.04,5.94L11.06,5.13L10.29,2.93L10.06,2.61L9.27,1.79L9.04,1.77L8.47,2.04L7.78,1.58L7.63,1.34L7.68,0.2L7.68,0.19L9.13,0.18L35.15,0.2L54.36,0.22L57.93,0.2L81.14,0.21L83.04,0.23L83.09,0.22L110.46,0.26L146.62,0.32L146.65,0.32L146.47,62.9L143.95,62.86L143.51,62.89L142.95,62.85L142.67,62.82L142.48,62.86L141.86,62.89L141.69,62.84L113.09,62.56L111.24,62.64L17.78,62.27L17.74,62.28L15.96,62.23z"/>
		<path id="C19121" title="Madison" class="land" d="M451.6,595.02L451.61,508.44L460.41,508.43L461.36,508.5L516.54,508.59L536.54,506.38L536.8,593.8L516.16,595.15L494.43,595.11z"/>
		<path id="C19123" title="Mahaska" class="land" d="M709.95,594.04L709.64,507.23L731.28,507.16L796.15,506.97L796.49,593.82L753.15,593.98z"/>
		<path id="C19125" title="Marion" class="land" d="M623.54,507.4L669.11,507.29L669.41,507.35L669.6,507.3L709.64,507.23L709.95,594.04L666.74,594.09L623.68,594.14L623.58,511.64L623.56,511.53z"/>
		<path id="C19127" title="Marshall" class="land" d="M729.49,418.33L641.76,418.25L641.78,330.8L685.11,330.7L729.21,330.48L729.54,404.75L729.49,405.14L729.54,405.5z"/>
		<path id="C19129" title="Mills" class="land" d="M155.6,658.54L155.44,658.24L154.61,657.27L152.35,655.24L151.91,654.68L151.27,653.59L151.02,652.83L150.65,650.83L150.55,649.05L150.98,646.4L152.51,643.11L152.8,640.99L152.66,640.17L152.43,639.51L151.82,638.44L150.8,637.49L149.78,636.73L148.24,636.18L146.81,635.31L146.17,634.79L145.46,633.73L145.1,632.65L145.05,631.79L145.26,630.97L145.73,629.8L146.85,627.81L147,626.27L146.9,625.25L146.75,624.71L146.5,624.32L144.99,622.89L143.16,620.87L142.72,619.9L142.61,619.1L142.81,617.91L143.42,616.82L144.83,615.42L145.8,614.14L146.11,613.36L146.35,612.14L146.22,610.8L145.81,608.93L145.72,604.79L145.2,603.1L143.28,599.76L142.67,598.29L142.43,596.57L142.41,595.58L142.82,594.33L142.89,594.24L143.23,594.35L143.31,594.35L144.23,594.23L236.41,594.3L236.29,658.58L176.5,658.59L176.15,658.71L175.94,658.61z"/>
		<path id="C19131" title="Mitchell" class="land" d="M680.84,0.42L683.94,0.41L709.85,0.43L724.91,0.42L732.11,0.29L740.54,0.29L743.28,0.29L743.98,0.29L747.08,0.29L750.71,0.3L751.48,0.3L769.57,0.23L769.58,0.23L769.34,74.43L680.88,74.43L680.88,63.42z"/>
		<path id="C19133" title="Monona" class="land" d="M94.29,417.34L93.72,416.7L93.26,415.94L92.96,415.15L92.83,414.51L92.72,412.68L92.44,411.84L91.81,410.85L90.68,409.56L90.01,408.39L89.96,407.45L90.19,406.82L90.51,406.32L91.41,405.72L93.68,404.97L94.17,404.61L94.72,403.6L94.83,402.92L94.74,402L93.45,399.42L93.24,398.38L93.42,397.63L93.61,397.27L94.97,395.68L95.36,394.8L96.14,392.42L96.19,391.26L96.08,390.77L95.51,390.03L93.87,389.16L90.99,388.64L90.21,388.64L88.82,388.93L87.67,389.46L87.1,389.6L85.77,389.51L85.39,389.32L84.57,388.49L84.4,388.16L84.28,387.55L84.78,386.32L85.67,384.77L85.85,384.19L85.9,383.63L85.7,382.96L85.05,382.03L83.83,381.44L81.66,381.28L79.94,381.93L79.48,382.65L78.7,384.28L78.3,384.77L78.01,384.95L77.2,385.04L75.93,384.53L75.14,383.79L74.89,383.39L74.82,382.89L74.91,381.87L75.49,380.51L77.56,378.91L78.36,377.9L78.71,377.01L78.68,376.16L78.32,375.2L77.97,374.73L76.75,373.74L75.57,373.25L73.98,373.11L72.53,373.66L72.24,374.01L71.29,373.78L70.77,373.56L69.88,372.94L69.35,372.26L69.08,371.69L69.08,371.68L68.58,370.5L68.03,368.37L67.86,365.87L67.91,364.92L68.35,363.06L68.84,361.91L69.29,361.21L70.07,359.32L70.26,357.53L70.13,355.76L69.83,354.92L69.19,353.7L68.68,353.1L67.89,352.42L66.67,351.88L63.78,351.26L62.86,350.81L62.07,350.13L61.37,349.17L60.78,347.44L60.29,346.56L59.1,345.33L56.82,343.89L55.99,343.05L54.98,341.46L54.62,340.13L54.5,338.76L55.08,336.41L54.92,334.38L54.71,333.75L54.27,332.93L52.85,331.07L52.7,330.38L53.02,329.48L53.3,329.22L182.46,330.16L182.09,418.14z"/>
		<path id="C19135" title="Monroe" class="land" d="M753.39,659.24L667.04,659.35L666.74,594.09L709.95,594.04L753.15,593.98z"/>
		<path id="C19137" title="Montgomery" class="land" d="M322.42,594.68L322.26,658.8L236.29,658.58L236.41,594.3L279.44,594.5L279.76,594.52z"/>
		<path id="C19139" title="Muscatine" class="land" d="M992.66,528.59L993.05,484.7L1080.92,485.01L1082.6,485.02L1082.92,485.07L1102.77,485.16L1102.31,521.16L1098.35,520.76L1095.06,520.76L1092.68,520.47L1090.95,520.59L1089.63,520.9L1088.88,521.19L1087.05,522.33L1084.7,524.12L1082.63,525.53L1080.8,526.6L1077.25,527.99L1076.31,528.67L1075.24,529.04L1071.51,528.35L1070.87,528.12L1068.34,526.87L1066.73,525.89L1065.86,525.81L1064.9,525.92L1060.96,527.85L1059.8,528.13L1056.83,528.49L1055.07,529.38L1054.55,529.76L1053.77,530.42L1053.42,530.87L1053.05,531.67L1052.58,534.38L1052.45,537.5L1052.34,538.07L1049.81,542.12L1049.53,543.08L1048.58,549.48L1048.51,550.99L992.51,550.38z"/>
		<path id="C19141" title="O'Brien" class="land" d="M235.68,152.22L146.95,152.43L146.47,62.9L191.09,62.68L235.7,63.5z"/>
		<path id="C19143" title="Osceola" class="land" d="M146.65,0.32L151.65,0.32L154.12,0.32L169.13,0.34L169.28,0.34L211.84,0.34L217.11,0.25L217.12,0.24L219.32,0.22L223.16,0.16L223.16,0.14L223.21,0.14L227,0.22L227.02,0.23L235.75,0.25L235.75,0.25L235.76,0.25L235.7,63.5L191.09,62.68L146.47,62.9z"/>
		<path id="C19145" title="Page" class="land" d="M324.81,739.41L317.24,739.26L315.1,739.22L310.36,739.26L295.81,738.96L293.77,738.93L290.41,738.89L288.6,738.91L288.01,738.89L287.95,738.88L287.65,738.88L286.03,738.83L279.69,738.72L277.89,738.68L270.7,738.56L268.97,738.53L268.94,738.53L268.73,738.52L268.61,738.52L267.84,738.5L267.59,738.49L267.07,738.48L245.59,738.22L241.41,738.17L238.38,738.07L238.37,738.07L238.38,719.53L238.99,701.54L236.24,701.5L236.29,658.58L322.26,658.8L322.25,701.75L325.15,701.77z"/>
		<path id="C19147" title="Palo Alto" class="land" d="M325,152.27L325.03,63.55L413.65,63.56L413.69,152.69z"/>
		<path id="C19149" title="Plymouth" class="land" d="M146.95,152.43L146.84,241.45L26.6,241.39L26.42,239.69L26.55,238.84L26.84,238.69L27.57,238.87L28.32,238.86L28.78,238.5L28.96,238.16L28.98,237.79L28.83,237.52L27.93,237.27L27.17,236.65L27.05,236.29L27.14,235.82L27.31,235.49L27.29,235.05L26.91,234.56L26.33,234.34L26.11,234.16L26.04,233.81L26.26,233.27L26.27,232.92L25.43,230.14L24.53,228.17L23.82,227.62L23.1,227.51L22.63,227.75L22.11,228.22L21.47,229.04L21.05,229.13L20.68,228.76L20.36,227.56L20.49,227.05L21,226.71L21.79,226.67L22.32,226.51L22.82,226.23L23.18,225.72L23.31,225.04L23.42,224.37L23.23,223.66L21.27,220.92L19.96,220.31L19.18,219.57L19.06,219.15L19.23,218.12L19.18,217.28L18.33,215.93L18.08,215.76L17.49,215.73L15.72,216.64L15.15,216.65L15.02,216.49L15.03,215.4L15.21,215.19L15.68,215.11L15.72,214.99L14.91,213.77L13.75,212.05L13.49,211.97L13.28,212.16L13.08,212.53L12.99,213.13L12.7,213.37L11.92,213.23L11.51,213.03L11.59,212.86L12.13,212.18L12.31,211.78L12.36,211.52L12.13,210.33L10.19,209.21L9.06,208.95L8.15,208.84L8.32,208.15L8.11,207.15L7.65,206.6L7.33,206.49L7.1,206.56L6.57,207.15L6.32,207.27L5.56,207.29L5.21,207.01L5.19,206.78L5.24,206.65L5.25,206.53L5.18,206.38L5.11,206.31L5.02,206.26L4.95,206.24L4.86,206.24L4.74,206.25L4.6,206.26L3.8,205.86L1.9,204.6L1.71,204.4L1.87,203.65L2.35,203.37L2.87,202.26L2.82,199.4L2.52,199.28L1.46,199.5L0.2,196.99L0,196.44L0.72,195.43L1.39,194.25L1.74,193.04L2.56,192.44L3.61,192.23L3.81,191.91L3.66,191.31L3.48,191.07L3.23,190.98L2.93,191.14L2.06,191.21L1.41,190.19L1.23,188.45L1.42,187.8L1.77,187.8L2.5,187.12L3.36,185.66L3.81,184.44L4.54,184.19L6.62,184.69L6.76,184.52L6.99,183.48L8.37,182.15L8.89,180.07L9.22,178.24L9.19,178.06L8.95,177.82L8.29,177.69L8.23,176.51L8.42,176.3L9.16,176.42L10.17,175.74L10.4,175.5L11.63,173.28L11.66,173.01L10.79,171.74L10.94,170.76L11.29,170.61L12.87,170.85L13.95,172.57L14.43,172.41L14.47,171.07L14.9,170.28L15.28,170.25L15.73,170.97L16.14,171.14L16.5,171.13L16.65,170.99L16.98,170.34L16.9,169.94L16.48,169.64L16.1,169.19L16.01,168.55L16.18,168.2L16.73,168.16L17.74,167.57L17.96,167.23L18.5,165.6L18.45,165.29L18.27,165.07L18.13,165.14L18.06,165.45L17.78,165.73L17.54,165.7L16.81,164.19L16.8,164.04L16.96,162.37L17.4,161.49L17.57,161.3L18.04,161.26L19.18,160.27L19.07,158.32L18.7,157.61L18.75,157.4L19.83,157.15L21.08,157.17L21.35,156.85L21.31,156.36L20.87,155.28L19.53,154.53L18.89,154.77L18.24,153.8L18.22,153.59L18.31,153.47L19.05,153.58L19.42,153.31L19.27,152.51z"/>
		<path id="C19151" title="Pocahontas" class="land" d="M413.66,219.9L413.67,241.9L324.89,241.53L325,152.27L413.69,152.69z"/>
		<path id="C19153" title="Polk" class="land" d="M619.9,418.15L619.76,484.04L623.53,484L623.54,507.4L623.56,511.53L623.58,511.64L621.25,513.87L619.03,510.14L615.6,512.78L613.48,510.45L610.71,512.71L610.45,508.9L605.98,510.89L606.76,506.47L602.32,507.46L582.18,506.53L536.54,506.38L536.53,484.19L532.08,484.18L531.84,418.07L553.97,418.08z"/>
		<path id="C19155" title="Pottawattamie" class="land" d="M134.93,586.57L134.41,585.41L134.12,583.79L134.61,581.54L136.46,578.6L136.93,577.6L137.25,576.41L137.25,575.86L137.15,574.86L135.29,569.74L135.18,568.22L135.46,567.27L135.76,566.95L136.67,566.52L133.9,564.03L133.73,563.1L133.73,561.31L134.12,559.78L135.48,559.11L138.19,559.16L138.49,559.48L138.49,561.01L136.95,564.5L138.83,566.03L142.62,564.03L143.65,563.1L144.41,562.01L144.67,560.43L144.07,557.61L143.41,556.26L142.48,555.21L141.43,554.61L139.43,554.09L136.7,554.34L135.14,554.11L134.46,553.84L131.9,552.17L130.47,550.87L129.3,549.42L128.62,548.02L128.6,547.09L128.96,546.44L129.47,546.02L131.58,545.02L132.62,544.24L133.46,543.22L133.88,541.87L133.78,540.67L132.67,538.29L132.35,536.65L132.24,536.12L132.35,535.3L133.5,532.85L133.7,531.56L133.67,530.6L133.22,528.86L133.05,527.03L133.24,526.41L133.52,525.91L134.8,524.45L135.19,523.87L135.42,523.31L135.56,522.4L135.48,521.49L135.06,520.44L134.46,519.53L133.1,518.43L132.37,518.08L131.4,517.81L130.55,517.83L128.56,518.67L127.56,518.68L126.97,518.5L125.47,517.55L123.68,516.93L122.16,516.78L119.58,516.29L118.8,515.86L118.25,515.32L117.38,513.98L116.79,512.71L116.74,512.36L116.85,512.04L117.46,511.2L119.09,509.96L120.86,508.16L121.19,507.62L144.05,507.79L144.39,508.04L144.7,507.75L215,507.84L279.65,508.06L279.44,594.5L236.41,594.3L144.23,594.23L143.31,594.35L143.23,594.35L142.89,594.24L143.77,593.02L144.59,592.28L145.02,592.11L145.45,592.13L145.88,592.36L148.19,592.96L149.43,592.64L150.24,591.54L150.36,590.57L149.83,589.17L148.68,588.13L147.44,587.55L145.93,587.25L137.48,588.23L136.55,588.05L135.86,587.65L134.93,586.58z"/>
		<path id="C19157" title="Poweshiek" class="land" d="M817.59,418.23L817.72,506.91L796.15,506.97L731.28,507.16L731.17,483.94L729.35,483.95L729.49,418.33z"/>
		<path id="C19159" title="Ringgold" class="land" d="M494.19,739.7L490.68,739.78L482,739.95L481.95,739.95L480.31,739.97L479.95,739.95L453.37,740.19L442.99,740.29L441.59,740.33L438.59,740.29L435.95,740.3L433.72,740.3L433.7,740.3L429.63,740.33L416.18,740.4L410.46,740.43L408.47,740.46L408.37,740.46L408.45,659.09L494.32,659.7z"/>
		<path id="C19161" title="Sac" class="land" d="M324.89,241.53L324.89,263.45L335.77,263.51L335.45,330.59L291.68,330.41L247.87,330.28L247.9,330.1L248.08,263.31L235.82,263.3L235.72,241.17z"/>
		<path id="C19163" title="Scott" class="land" d="M1081.2,441.24L1086.67,441.2L1101.16,441.24L1108.62,446.27L1111.87,449.09L1118.77,448.75L1121.83,445.38L1126.85,444.47L1135.06,443.77L1140.86,443.89L1146.81,442.55L1152.45,441.36L1159.74,441.53L1166.09,443.03L1170.37,447.13L1172.97,449.71L1177.17,450.93L1184.23,451.3L1190.8,451.93L1190.55,453.48L1190.6,454.58L1191.37,456.8L1191.45,457.29L1191.48,458.58L1191.35,459.67L1191.12,460.48L1190.62,461.28L1190.13,461.77L1188.19,463.22L1187.76,463.67L1187.38,464.32L1186.96,468.09L1185.7,472.51L1185.72,474.04L1186.44,484.64L1186.06,486.64L1185.74,487.35L1181.8,489.4L1178.57,490.15L1175.44,491.26L1172.63,492.99L1172.07,493.59L1170.86,495.77L1169.92,496.45L1168.89,496.95L1167.81,498.3L1166.53,500.31L1163.48,503.47L1161.05,504.42L1158.11,504.79L1156.1,504.84L1153.74,504.47L1150,503.12L1148.51,502.81L1145.63,503.29L1143.56,504.97L1142.82,505.27L1140.77,505.57L1139.07,506.15L1138.28,506.6L1136.98,507.85L1136.59,510.11L1136.27,510.81L1133.89,513.11L1131.26,514.69L1129.81,516.04L1127.92,518.12L1126.87,518.84L1124.91,519.22L1122.99,519.17L1120.26,520.22L1118.34,520.69L1114.12,521.32L1111.48,521.85L1109.11,521.97L1105.06,521.69L1103.94,521.57L1102.31,521.16L1102.77,485.16L1082.92,485.07L1082.6,485.02L1080.92,485.01z"/>
		<path id="C19165" title="Shelby" class="land" d="M215,507.84L215.04,483.71L203.68,483.7L203.84,418.06L291.3,418.08L291.36,483.78L301.11,483.75L301.11,508.19L279.65,508.06z"/>
		<path id="C19167" title="Sioux" class="land" d="M34.94,107.72L34.95,107.51L34.87,106.83L34.72,106.5L33.34,106.12L33.3,105.65L33.74,104.75L35.37,103.32L36.08,102.3L37.73,99.87L38.25,98.09L37.68,97.8L37.46,97.5L37.3,97.1L37.1,96.03L36.96,94.75L35.66,92.59L34.68,92.09L34.06,92.3L33.85,92.26L32.88,91.23L32.61,90.52L32.45,88.12L32.47,86.97L32.92,82.35L32.87,82.11L32.5,81.71L32.18,81.71L31.51,81.42L31.24,80.35L31.25,78.04L31.81,76.41L31.84,75.87L31.55,75.27L31.03,73.26L30.91,72.31L30.7,72.06L29.08,71.5L26.98,71.64L26.17,72.38L23.96,72.95L22.68,73.17L22.36,73.03L22.15,72.33L21.25,71.53L19.58,70.61L18.76,71.11L17.85,71.05L17.23,70.8L15.96,70.83L15.7,71L15.51,71.35L15.2,71.51L14.93,71.49L13.41,69.6L12.9,67.69L14.02,66.33L15.16,66.1L16.33,65.55L16.51,64.56L16.4,62.85L16.29,62.5L15.96,62.27L15.96,62.27L15.96,62.23L17.74,62.28L17.78,62.27L111.24,62.64L113.09,62.56L141.69,62.84L141.86,62.89L142.48,62.86L142.67,62.82L142.95,62.85L143.51,62.89L143.95,62.86L146.47,62.9L146.95,152.43L19.27,152.51L19.18,152.02L18.73,149.98L18.47,149.46L18.46,148.98L18.57,148.48L21.5,145.66L21.88,145.59L22.32,145.83L22.44,146.36L22.66,146.56L22.87,146.6L23.13,146.43L23.26,146.11L23.22,145.68L22.52,144.98L22.54,144.57L23.5,143.57L24.28,143.38L24.52,143.19L24.79,142.32L25.39,140.75L26.25,139.54L25.72,137.28L25.36,136.6L25.15,136.47L24.29,136.5L23.31,136.08L22.5,134.86L22.4,134.16L23.16,133.88L24,132.73L24.01,131.99L23.88,131.32L24.43,130.37L24.93,130.02L25.79,129.88L26.72,129.6L26.93,129.43L27.37,128.66L27.68,127.82L27.88,126.63L27.36,125.39L26.46,124.19L25.7,124.04L24.24,122.79L24.09,122.5L23.84,121.83L23.88,121.44L24.27,120.94L24.59,119.71L24.59,119.55L24.12,118.88L23.7,118.91L23.34,119.02L23.05,118.79L22.84,118.33L24.38,116.31L24.63,116.29L25.32,116.62L25.98,116.64L28.12,116.09L28.41,115.91L28.54,115.26L28.81,114.88L30.66,113.11L31.36,112.81L31.97,113.19L32.3,113.24L33.26,112.96L33.68,112.69L34.18,111.78L34.74,109.86z"/>
		<path id="C19169" title="Story" class="land" d="M553.9,330.68L598.22,330.69L641.78,330.8L641.76,418.25L619.9,418.15L553.97,418.08z"/>
		<path id="C19171" title="Tama" class="land" d="M773.27,308.46L817.47,308.33L817.59,418.23L729.49,418.33L729.54,405.5L729.49,405.14L729.54,404.75L729.21,330.48L729.09,308.54z"/>
		<path id="C19173" title="Taylor" class="land" d="M408.37,740.46L404.96,740.49L396.57,740.48L395.97,740.47L395.73,740.47L395.07,740.46L395.01,740.46L385.24,740.42L378.08,740.37L378.08,740.37L368.56,740.22L362.47,740.12L362.14,740.12L351.35,739.93L344.34,739.79L342.69,739.74L341.98,739.69L328.22,739.49L327.34,739.46L324.81,739.41L325.15,701.77L322.25,701.75L322.26,658.8L408.45,659.09z"/>
		<path id="C19175" title="Union" class="land" d="M494.32,659.7L408.45,659.09L408.48,594.91L451.6,595.02L494.43,595.11z"/>
		<path id="C19177" title="Van Buren" class="land" d="M927.08,733.62L926.46,732.88L924.75,729.88L914.06,730.41L912.28,730.51L911.38,730.55L908.77,730.65L906.73,730.73L905.29,730.83L898.52,731.26L885.17,731.73L884.45,731.81L883.59,731.9L879.2,731.99L873.99,732.16L868.16,732.33L860.95,732.6L860.65,732.57L858.23,732.71L858.07,732.7L856.25,732.74L855.59,732.8L839.88,733.12L840.02,659.03L866.03,658.95L866.29,658.98L926.8,658.76L926.7,680.41z"/>
		<path id="C19179" title="Wapello" class="land" d="M753.15,593.98L796.49,593.82L839.85,593.64L840.02,659.03L753.39,659.24z"/>
		<path id="C19181" title="Warren" class="land" d="M623.58,511.64L623.68,594.14L580.42,593.99L536.8,593.8L536.54,506.38L582.18,506.53L602.32,507.46L606.76,506.47L605.98,510.89L610.45,508.9L610.71,512.71L613.48,510.45L615.6,512.78L619.03,510.14L621.25,513.87z"/>
		<path id="C19183" title="Washington" class="land" d="M970.91,528.43L970.59,593.71L927.24,593.6L904.05,593.93L883.99,593.41L883.9,506.67L905.9,506.49L964.17,506.6L962.61,507.21L966.51,508.78L967.5,515.01L964.88,517.08L967.97,519.44L967.77,522.71z"/>
		<path id="C19185" title="Wayne" class="land" d="M667.1,737.2L666.87,737.21L659.85,737.49L636.34,738L625.61,738.03L620.37,738.06L614.92,738.11L602.23,738.21L597.8,738.15L597.5,738.17L586.72,738.07L586.06,738.08L585.96,738.1L582.17,738.09L581.1,738.12L580.55,738.13L580.62,659.39L667.04,659.35L667.01,661.52L667.06,661.71L667.02,662.14z"/>
		<path id="C19187" title="Webster" class="land" d="M502.46,242.08L502.45,263.99L509.97,264.01L509.99,330.49L466.09,330.54L422.24,330.73L422.22,263.68L413.67,263.66L413.67,241.9L413.66,219.9L502.43,220.02z"/>
		<path id="C19189" title="Winnebago" class="land" d="M502.61,0.41L502.61,0.41L535.56,0.43L535.84,0.43L550.54,0.42L551.95,0.42L552.67,0.42L553.72,0.42L563.29,0.42L569.2,0.43L576.81,0.43L580.22,0.43L585.2,0.45L585.9,0.45L591.75,0.45L591.76,0.45L591.71,63.44L502.67,63.47z"/>
		<path id="C19191" title="Winneshiek" class="land" d="M858.71,0.14L883.18,0.18L884.69,0.17L906.72,0.13L910.06,0.14L910.48,0.12L915.3,0.1L915.61,0.13L918.67,0.14L923,0.17L923.35,0.16L923.96,0.15L924.52,0.13L924.54,0.13L930.09,0.16L935.72,0.18L938.07,0.17L939.39,0.19L940.61,0.17L941.58,0.16L942.36,0.19L942.57,0.2L942.62,0.19L944.24,0.12L945.15,0.13L945.79,0.13L945.89,0.14L946.19,0.17L947.02,0.17L947.03,0.17L947.02,41.09L948.32,41.12L948.07,108.16L887.98,108.01L887.5,107.94L858.46,107.87L858.49,74.39L858.67,7.69L858.74,7.41L858.63,6.67z"/>
		<path id="C19193" title="Woodbury" class="land" d="M53.35,313.67L52.52,312.81L51.58,311.29L51.08,309.77L51.07,306.78L50.94,305.59L50.8,304.94L50.45,304.11L49.79,303.05L48.12,301.14L45.84,299.87L44.58,299.04L43.63,298.21L42.52,296.69L41.79,294.65L41.72,293.83L41.77,292.81L41.92,292.11L42.51,290.97L43.55,288.39L43.42,287.02L42.32,283.98L42.22,282.24L42.58,280.31L42.92,279.55L47.47,274.06L48.1,272.84L48.77,270.52L48.89,269.23L48.66,266.63L47.89,263.73L47.78,263.38L45.87,260.93L43.37,260.04L40.64,259.69L36.97,259.56L34.53,258.8L33.36,259.23L31.13,258.95L30.73,258.52L30.66,257.45L31.07,256.86L31.33,255.99L30.55,254.45L30.19,254.05L29.4,254.25L28.18,253.72L27.63,252.49L28.04,251.71L30.09,250.73L30.26,250.17L30.11,249.35L30.51,247.83L30.65,245.06L30.65,242.61L27.31,242.44L26.68,242.08L26.6,241.39L146.84,241.45L169.13,241.28L169.09,263.28L182.75,263.34L182.46,330.16L53.3,329.22L53.32,329.2L55.49,328.62L56.61,328.47L57.13,328.26L57.94,327.58L59.51,325.48L59.67,325.08L59.67,324.53L58.32,322.86L58.52,322.44L58.75,320.38L58.53,319.18L58.07,317.99L57.19,316.63L56.17,315.54L53.35,313.67z"/>
		<path id="C19195" title="Worth" class="land" d="M591.76,0.45L593.47,0.46L594.65,0.44L596.38,0.46L597.18,0.45L604.73,0.44L610.28,0.44L634.24,0.48L642.32,0.42L676.16,0.42L680.82,0.42L680.84,0.42L680.88,63.42L591.71,63.44z"/>
		<path id="C19197" title="Wright" class="land" d="M591.36,242.2L502.46,242.08L502.43,220.02L502.52,152.77L547.15,152.71L548.96,152.56L591.52,152.58z"/>
	</g>
</svg>