<?xml version="1.0" encoding="utf-8"?>
<!-- (c) ammap.com | SVG map of IN Counties -->
<svg xmlns="http://www.w3.org/2000/svg" xmlns:amcharts="http://amcharts.com/ammap" xmlns:xlink="http://www.w3.org/1999/xlink" version="1.1">
	<defs>
		<style type="text/css">
			.land
			{
				fill: #CCCCCC;
				fill-opacity: 1;
				stroke:white;
				stroke-opacity: 1;
				stroke-width:0.5;
			}
		</style>

		<amcharts:ammap projection="mercator" leftLongitude="-88.058697" topLatitude="41.760592" rightLongitude="-84.784339" bottomLatitude="37.771637"></amcharts:ammap>

		<!-- All areas are listed in the line below. You can use this list in your script. -->
		<!--{id:"C18001"},{id:"C18003"},{id:"C18005"},{id:"C18007"},{id:"C18009"},{id:"C18011"},{id:"C18013"},{id:"C18015"},{id:"C18017"},{id:"C18019"},{id:"C18021"},{id:"C18023"},{id:"C18025"},{id:"C18027"},{id:"C18029"},{id:"C18031"},{id:"C18033"},{id:"C18035"},{id:"C18037"},{id:"C18039"},{id:"C18041"},{id:"C18043"},{id:"C18045"},{id:"C18047"},{id:"C18049"},{id:"C18051"},{id:"C18053"},{id:"C18055"},{id:"C18057"},{id:"C18059"},{id:"C18061"},{id:"C18063"},{id:"C18065"},{id:"C18067"},{id:"C18069"},{id:"C18071"},{id:"C18073"},{id:"C18075"},{id:"C18077"},{id:"C18079"},{id:"C18081"},{id:"C18083"},{id:"C18085"},{id:"C18087"},{id:"C18089"},{id:"C18091"},{id:"C18093"},{id:"C18095"},{id:"C18097"},{id:"C18099"},{id:"C18101"},{id:"C18103"},{id:"C18105"},{id:"C18107"},{id:"C18109"},{id:"C18111"},{id:"C18113"},{id:"C18115"},{id:"C18117"},{id:"C18119"},{id:"C18121"},{id:"C18123"},{id:"C18125"},{id:"C18129"},{id:"C18127"},{id:"C18131"},{id:"C18133"},{id:"C18135"},{id:"C18137"},{id:"C18139"},{id:"C18141"},{id:"C18143"},{id:"C18145"},{id:"C18147"},{id:"C18149"},{id:"C18151"},{id:"C18153"},{id:"C18155"},{id:"C18157"},{id:"C18159"},{id:"C18161"},{id:"C18163"},{id:"C18165"},{id:"C18167"},{id:"C18169"},{id:"C18171"},{id:"C18173"},{id:"C18175"},{id:"C18177"},{id:"C18179"},{id:"C18181"},{id:"C18183"}-->

	</defs>
	<g>
		<path id="C18001" title="Adams" class="land" d="M770.57,263.2L770.57,263.26L770.75,301.23L770.66,312.15L770.73,319.38L770.76,323.78L770.76,323.78L770.75,326.75L770.77,331.77L770.76,335.21L770.75,335.86L770.74,340.38L770.74,344.88L770.76,349.68L770.73,372.24L770.73,372.24L707.71,373.47L706.44,264.68z"/>
		<path id="C18003" title="Allen" class="land" d="M770.41,154.1L770.41,154.16L770.41,154.2L770.44,159.97L770.44,159.98L770.44,184.63L770.41,184.84L770.45,187.52L770.37,195.08L770.5,201.06L770.47,208.74L770.46,211.11L770.48,242.34L770.48,242.4L770.57,263.2L706.44,264.68L684.38,265.07L644.39,264.91L644.48,237.38L643.79,182.99L650.6,182.94L650.65,160.75L651.07,156.33L678.46,156.31z"/>
		<path id="C18005" title="Bartholomew" class="land" d="M561.28,797.21L561.37,814.89L534.61,815.49L534.85,833.83L529.16,833.47L519.79,839.78L520.28,842.14L468.33,843.73L468.23,839.37L468.23,808.3L466.97,749.96L467.93,749.89L498.59,748.99L520.97,748.4L521.77,748.35L561.9,748.18L561.25,796.89z"/>
		<path id="C18007" title="Benton" class="land" d="M125.92,401.72L125.95,397.36L125.95,397.26L125.96,383.75L125.97,383.66L126.01,321.06L187.27,321.16L227.25,321.17L227.62,321.19L227.97,375.13L228.37,402.16L125.92,401.81z"/>
		<path id="C18009" title="Blackford" class="land" d="M676.31,373.78L674.97,432.07L671.87,432.12L618.75,432.08L618.12,373.88z"/>
		<path id="C18011" title="Boone" class="land" d="M429.87,493.39L430.21,567.32L430.49,571.84L430.1,571.83L426.87,572.05L410,572.46L322.71,572.85L322.54,494.04L392.83,494.49L402.41,494.23L402.89,494.07z"/>
		<path id="C18013" title="Brown" class="land" d="M468.23,808.3L468.23,839.37L411.93,839.81L399.64,839.95L399.87,827.42L399.08,778.38L397.3,778.33L396.96,751.32L427.66,750.73L466.97,749.96z"/>
		<path id="C18015" title="Carroll" class="land" d="M304.67,375.38L303.98,343.72L307.75,343.64L311.54,338.88L306.94,339.18L310.02,336.14L307.02,333.18L309.71,321.33L322.23,321L349.54,321.41L362.93,321.51L362.93,334.89L398.82,334.88L398.61,375.61L398.29,415.76L322.81,415.67L322.65,375.45z"/>
		<path id="C18017" title="Cass" class="land" d="M448.17,375.21L443.67,375.27L398.61,375.61L398.82,334.88L362.93,334.89L362.93,321.51L349.54,321.41L349.59,266.83L376.34,267.16L378.13,267.24L447.23,267.17L447.35,267.71L447.26,319L448,319.19z"/>
		<path id="C18019" title="Clark" class="land" d="M622.55,979.74L624.54,983.59L625.5,986.6L625.63,989.06L625.55,991.79L625.15,993.47L623.78,996.24L623.14,997.1L621.46,998.51L621.4,998.55L619.37,999.67L615.4,1001.42L614.45,1001.96L613.46,1002.66L612.15,1003.86L611.65,1004.53L610.86,1006.26L610.44,1007.4L610.02,1009.26L609.63,1010.06L607.61,1013.37L605.85,1015.32L601.57,1017.39L599.15,1018.31L596.93,1018.98L592.96,1019.64L587.77,1019.82L584.81,1020.66L581,1023.19L580.1,1024.03L577.05,1028.9L577.1,1029.33L576.79,1030.71L574.82,1035.16L574.11,1037.16L572.9,1041.77L572.9,1041.78L572.79,1042.83L572.91,1046.04L572.73,1047.45L570.97,1053.02L569.21,1057.77L567.73,1060.08L565.65,1062.75L564.15,1065.52L562.13,1067.27L549.07,1075.11L547.62,1075.77L546.18,1075.56L543.79,1074.15L542.48,1072.62L542.67,1072.02L542.63,1071.78L540.87,1070.06L539.08,1069.37L536.57,1069.34L536.56,1069.34L536.03,1061.66L538.55,1059.82L535.24,1056.15L543.84,1050.82L532.75,1034.52L495.07,1034.81L495.04,1032.59L488.5,1032.56L488.5,1030.34L488.81,1009.21L497.6,1009.08L497.38,1005.17L514.5,1004.71L514.52,1000.29L518.88,1000.21L518.87,991.57L523.31,991.55L523.23,987.29L529.56,987.25L529.49,983.04L536.08,978.53L536.09,974.16L589.01,973.76L606.37,973.58L610.6,979.78z"/>
		<path id="C18021" title="Clay" class="land" d="M193.64,775.9L193.98,696.11L203.17,696.35L203.43,669.66L247.45,670.38L247.1,710.49L264.74,710.56L264.17,723.99L264.15,750.62L237.84,750.44L237.62,803.58L234.36,803.62L193.56,802.46z"/>
		<path id="C18023" title="Clinton" class="land" d="M322.54,494.04L322.58,483.02L322.81,415.67L398.29,415.76L414.03,415.81L414.02,429.23L420.76,429.24L420.78,433.76L429.72,433.78L429.78,482.56L429.87,493.39L402.89,494.07L402.41,494.23L392.83,494.49z"/>
		<path id="C18025" title="Crawford" class="land" d="M409.12,1101.58L408.46,1101.04L404.92,1097.32L401.93,1096.29L398.75,1097.92L397.73,1100.17L397.9,1104.51L399.24,1106.67L403.53,1108.05L410.08,1109.62L411.19,1111.69L410.67,1114.21L409.5,1116.05L407.9,1117.14L403.8,1117.37L398.39,1116.72L397.34,1117.13L395.58,1118.52L393.45,1123.57L392.16,1124.28L391.35,1124.16L388.11,1120.6L385.04,1118.07L380.77,1117.74L379.04,1118.55L378.11,1119.56L378.25,1093.88L351.92,1093.67L352.28,1076.02L326.4,1077L325.94,1037.43L414.12,1037.64L414.17,1028.97L426.86,1029.03L426.39,1030.13L427.34,1035.29L427.72,1037.17L426.71,1039.18L425.92,1043.37L427.38,1046.48L427.47,1048.97L425.73,1049.38L422.24,1049.33L422.44,1052.14L422.34,1053.74L422.34,1056.43L420.77,1059.14L420.17,1062.33L422.62,1064.84L425,1064.74L425.75,1066.81L427.39,1068.02L424.91,1070.25L422.63,1071.41L422.08,1074.77L420.88,1088.84L417.98,1093.05L413.89,1097.53z"/>
		<path id="C18027" title="Daviess" class="land" d="M233.41,1001.33L230.69,1000.32L228.28,997.93L226.93,995.61L223.84,994.51L222.34,996.91L220.95,998.15L220.05,997.3L217.94,998.38L216.79,1000.77L214.63,1000.95L213.57,1000.05L212.48,996.43L209.43,993.2L204.63,990.9L200.42,991.46L199.64,992.93L196.66,993.52L194.8,992.21L193.24,992.22L193.78,990.97L192.93,984.2L192.12,976.56L190.53,972.27L192.27,968.48L193.18,965.8L192.4,960.33L193.64,959.18L192.76,957.88L191.64,958.53L189.79,956.41L190.92,954.9L190.34,953.81L187.93,952.89L187.34,950.11L187.23,944.66L188.71,937.54L191.36,936.07L192.9,933.02L192.51,929.44L191.49,925.67L193.46,917.11L192.69,912.4L194.58,910.61L196.7,912.44L198.5,911.66L198.8,909.15L200.43,910.61L204.18,910.18L205.66,908.44L208.08,905.45L207.75,902.43L209.72,901.47L213.89,902.14L216.86,900.96L217.03,899.64L216.94,898.06L217.27,895.77L218.28,896.37L219.06,894.83L219.93,892.98L220.35,889.88L223.48,886.43L226.77,885.19L227.16,883.73L243.14,884.17L273.2,883.66L273.21,909.91L268.78,909.99L268.48,1004.14L262.93,1008.63L260.9,1004.72L251.97,1001.83L239.87,1002.48L235.21,1004.99z"/>
		<path id="C18029" title="Dearborn" class="land" d="M740.81,761.62L766.66,761.86L766.66,761.86L766.62,772.08L766.62,775.05L766.56,778.35L766.58,779.33L766.57,780.38L766.49,785.59L766.58,806.76L766.57,807.1L766.53,809.36L766.49,822.61L765.05,823L763.88,823.69L761.91,825.7L759.53,827.83L756.9,830.91L750.23,834.48L749.04,835.67L748.22,837.21L748.26,838.72L748.95,839.58L750.18,842.24L751.65,844.3L752.79,845.28L751.14,846.93L748.38,850.33L742.24,850.42L738.52,852.48L736.98,853.95L735.01,855.04L732.6,855.87L728.44,855.66L726.82,856.05L723.93,856.99L723.68,859.42L720.92,860.59L715.98,861.94L711.83,867.37L708.02,869.2L702.77,871.99L699.8,872.92L695.51,872.94L695.58,870.69L693.71,870.05L692.56,870.38L708.4,761.23z"/>
		<path id="C18031" title="Decatur" class="land" d="M561.37,814.89L561.28,797.21L561.25,796.89L561.9,748.18L574.66,748.13L574.97,716.85L653.49,716.69L653.73,773.09L620.27,794.75L619.77,795.21L589.88,814.32z"/>
		<path id="C18033" title="DeKalb" class="land" d="M770.33,105.48L770.31,110.01L770.3,111.04L770.28,111.06L770.33,123.74L770.41,154.1L678.46,156.31L677.99,73.89L770.14,72.72L770.14,72.74L770.18,82.1L770.21,85.92L770.33,102.5L770.33,105.46z"/>
		<path id="C18035" title="Delaware" class="land" d="M587.54,525.34L586.98,431.96L593.2,432.23L618.75,432.08L671.87,432.12L671.84,433.35L672.14,454.49L673.18,525.42z"/>
		<path id="C18037" title="Dubois" class="land" d="M268.48,1004.14L279.5,1007.07L289.01,997.78L325.72,997.81L325.94,1037.43L326.4,1077L326.52,1081.5L299.73,1081.19L299.89,1094.39L246.4,1094.85L233.23,1094.78L233.24,1086.15L233.41,1001.33L235.21,1004.99L239.87,1002.48L251.97,1001.83L260.9,1004.72L262.93,1008.63z"/>
		<path id="C18039" title="Elkhart" class="land" d="M472.42,0.02L477.52,0.03L486.36,0.16L489.29,0.2L493.15,0.23L493.17,0.23L513.54,0.37L516.82,0.4L517.52,0.39L536.61,0.49L536.62,0.49L540.48,0.46L546.29,0.47L546.41,0.47L552.43,0.48L567.77,0.47L568.95,74.86L569.06,77.27L569.24,102.08L473.21,102.41L473.16,88.77L472.88,48.05L472.91,47.88z"/>
		<path id="C18041" title="Fayette" class="land" d="M652.54,614.37L671.59,614.1L680.5,614.12L680.11,636.47L715.74,636.7L715.38,694.41L653.36,694.63z"/>
		<path id="C18043" title="Floyd" class="land" d="M536.56,1069.34L535.97,1069.55L535.5,1069.91L533.96,1070.42L530.74,1071.03L528.94,1071.75L527.62,1072.89L526.32,1075.5L525.56,1078.71L525.58,1080.57L525.18,1083.99L523.81,1086.84L522.39,1088.97L518.34,1092.34L515.57,1094.92L512.14,1099.38L511.45,1100.64L511.01,1101.82L497.27,1100.1L497.83,1077.77L493.44,1077.72L493.46,1073.34L489.04,1073.3L488.35,1065.36L483.89,1065.37L483.84,1056.68L479.52,1056.7L479.46,1030.47L488.5,1030.34L488.5,1032.56L495.04,1032.59L495.07,1034.81L532.75,1034.52L543.84,1050.82L535.24,1056.15L538.55,1059.82L536.03,1061.66z"/>
		<path id="C18045" title="Fountain" class="land" d="M228.63,482.88L228.77,496.32L229.23,563.38L229,563.55L202.22,563.47L151.08,563.73L146.35,561.04L149.38,554.59L147.57,541L151.73,531.03L154.28,509.82L153.84,505.05L146.69,498.04L151.15,489.84L165.9,484.1L170.24,480.3L180.91,469.55L183.8,463.48L192.57,453.7L210.27,445.79L219.41,444.01L228.73,435.96z"/>
		<path id="C18047" title="Franklin" class="land" d="M767.58,699.04L767.58,699.07L767.53,709.33L767.53,709.33L767.13,735.46L766.68,760.55L766.66,761.86L740.81,761.62L708.4,761.23L708.51,760.36L672.35,760.85L653.73,773.09L653.49,716.69L653.24,696.22L653.36,694.63L715.38,694.41L767.63,695.71z"/>
		<path id="C18049" title="Fulton" class="land" d="M468.88,184.95L469.26,212.49L482.87,212.1L482.81,225.94L500.12,225.62L500.15,238.98L499.91,239.28L447.36,240.24L447.23,267.17L378.13,267.24L376.34,267.16L376.68,185.39z"/>
		<path id="C18051" title="Gibson" class="land" d="M139.94,1106.3L87.61,1105.4L87.65,1095.63L61.26,1095.34L61.38,1087.35L19.11,1086.85L19.64,1086.1L20.4,1085.42L21.19,1084.71L23.26,1084.79L25.48,1081.79L26.65,1078.83L25.38,1075.29L25.18,1073.79L28.35,1069.14L30.69,1068.19L32.38,1069L33.55,1070.48L34.3,1072.91L35.57,1073.71L37.8,1073.04L40.39,1070.33L41.52,1067.92L42.15,1066.04L43.32,1065.5L44.91,1066.17L46.93,1068.46L48.63,1069.14L50.54,1068.73L52.13,1067.79L53.19,1066.17L53.62,1063.74L53.44,1058.44L55.81,1051.82L59.75,1046.94L65.92,1044.62L74.14,1033.15L74.35,1031.49L75.66,1031.02L85.3,1028.91L90.46,1027.01L93,1024.12L91.9,1021.54L93.71,1020.25L94.92,1018.53L96.46,1019.03L97.21,1020.08L101.09,1022.91L104.97,1021.55L110.4,1017.84L112.9,1009.86L113.9,1007.74L115.96,1008.56L117.49,1008.66L119.98,1008.72L121.35,1004.45L125.26,1001.91L124.7,1003.68L124.35,1004.87L126.91,1004.9L130.34,1005.74L134.03,1005.48L137.07,1002.84L138.66,999.58L137.66,998.93L140.07,997.09L140.98,995.66L141.07,1016.08L145.33,1016.15L145.32,1024.99L154.13,1024.93L154.07,1043.22L162.6,1042.83L166.07,1039.49L175.69,1041.43L175.53,1082.1L175.5,1095.4L140.06,1095.54z"/>
		<path id="C18053" title="Grant" class="land" d="M586.98,431.96L584.78,431.89L519.82,432.32L519.87,423.49L519.51,374.32L519.23,347.55L521.04,347.66L572.77,347.11L617.69,346.96L618.12,373.88L618.75,432.08L593.2,432.23z"/>
		<path id="C18055" title="Greene" class="land" d="M325.74,856.93L325.6,883.51L273.2,883.66L243.14,884.17L227.16,883.73L219.8,882.72L193.49,882.55L193.56,802.46L234.36,803.62L237.62,803.58L325.57,804.29z"/>
		<path id="C18057" title="Hamilton" class="land" d="M502,571.51L446.46,571.58L430.49,571.84L430.21,567.32L429.87,493.39L429.78,482.56L519.92,481.61L519.78,566.44L519.8,570.95z"/>
		<path id="C18059" title="Hancock" class="land" d="M498.66,633.13L498.12,589.18L501.89,589.13L501.89,583.79L502,571.51L519.8,570.95L519.78,566.44L587.54,565.78L587.4,588.21L582.69,588.17L582.64,614.7L573.98,614.8L574.04,641.69L498.66,642.1z"/>
		<path id="C18061" title="Harrison" class="land" d="M508.83,1107.57L508.66,1113.89L509.68,1122.58L509.82,1125.82L509.44,1130.04L507.79,1133.87L507.3,1135.58L507.2,1135.94L506.88,1137.32L506.55,1139.61L506.27,1143.54L505.84,1146.22L505.6,1147.25L504.88,1148.81L503.74,1150.35L502.7,1151.52L501.55,1152.56L499.53,1153.7L498.72,1154.15L497.1,1154.45L492.91,1154.77L488.04,1155.81L487.48,1155.9L485.07,1156.27L482.34,1156.99L480.25,1158.03L479.55,1158.79L478.94,1160.37L478.88,1161.45L479.33,1164.69L479.1,1166.41L478.71,1167.28L478.19,1167.99L477.21,1168.38L476.53,1168.31L475.76,1167.98L474.47,1166.72L472.62,1164.41L471.88,1163.12L470.27,1159.66L469.5,1157.82L469.72,1157.19L469.39,1156.74L468.29,1155.58L466.51,1154.3L464.56,1153.16L461.63,1151.82L459.25,1151.26L457.04,1151.04L453.84,1151.2L447.63,1152.88L446.48,1152.86L444.87,1152.45L442.04,1150.91L438.37,1149.29L435.07,1147.48L433.85,1145.87L432.07,1144.07L428.06,1142.12L425.39,1140.06L424.06,1138.74L423.96,1138.58L422.48,1135.65L421.26,1129.1L421.28,1126.35L423.03,1116.88L422.9,1114.55L419.12,1108.5L415.24,1105.56L412.17,1104.05L409.12,1101.58L413.89,1097.53L417.98,1093.05L420.88,1088.84L422.08,1074.77L422.63,1071.41L424.91,1070.25L427.39,1068.02L425.75,1066.81L425,1064.74L422.62,1064.84L420.17,1062.33L420.77,1059.14L422.34,1056.43L422.34,1053.74L422.44,1052.14L422.24,1049.33L425.73,1049.38L427.47,1048.97L427.38,1046.48L425.92,1043.37L426.71,1039.18L427.72,1037.17L427.34,1035.29L426.39,1030.13L426.86,1029.03L479.46,1030.47L479.52,1056.7L483.84,1056.68L483.89,1065.37L488.35,1065.36L489.04,1073.3L493.46,1073.34L493.44,1077.72L497.83,1077.77L497.27,1100.1L511.01,1101.82z"/>
		<path id="C18063" title="Hendricks" class="land" d="M410,572.46L409.98,573.43L410.05,579.12L409.63,594.61L409.8,605.81L409.84,608.31L409.93,635.25L409.91,645.99L409.93,646.46L409.99,661.99L376.95,662.65L377.03,671.61L331.81,671.41L335.03,666.32L335.36,662.64L324.53,662.53L324.66,590.65L322.7,590.65L322.71,572.85z"/>
		<path id="C18065" title="Henry" class="land" d="M587.54,565.78L587.54,525.34L673.18,525.42L673.39,547.75L676.24,547.71L676.36,587.9L671.68,587.97L671.59,614.1L652.54,614.37L582.64,614.7L582.69,588.17L587.4,588.21z"/>
		<path id="C18067" title="Howard" class="land" d="M457.07,375.07L519.51,374.32L519.87,423.49L429.76,424.72L429.72,433.78L420.78,433.76L420.76,429.24L414.02,429.23L414.03,415.81L398.29,415.76L398.61,375.61L443.67,375.27L448.17,375.21z"/>
		<path id="C18069" title="Huntington" class="land" d="M617.69,346.96L572.77,347.11L571.53,238.3L644.48,237.38L644.39,264.91L644.71,346.71L642.51,346.59z"/>
		<path id="C18071" title="Jackson" class="land" d="M513.66,935.03L512.05,933.91L511.2,932.19L509.21,929.92L507.92,929.69L506.43,930.49L502.26,928.56L501.12,927.22L497.07,926.81L490.76,926.21L485.87,927.2L479.17,926.78L471.12,922L463.41,922.75L457.65,926.06L446.89,923.46L442.61,921.55L439.19,921.85L438.35,922.78L436.37,923.39L435.07,922.28L431.78,923.97L427.77,925.27L424.05,925.44L422.07,926.15L420.87,857.35L412.09,857.39L411.93,839.81L468.23,839.37L468.33,843.73L520.28,842.14L519.79,839.78L529.16,833.47L534.85,833.83L535.67,912.93L534.08,915.88L532.92,918.24L533.24,920.27L532.32,921.96L531.02,922.04L529.28,923.63L527.97,925.45L526.94,929.69L525.25,931.21L524.23,933.74L522.91,934.77L520.35,935.96L517.05,936.96L515.95,937.26L515.04,936.37z"/>
		<path id="C18073" title="Jasper" class="land" d="M267.09,164.91L267.19,167.13L267.07,185.12L266.93,266.37L253.51,266.44L253.75,289.6L226.93,289.7L227.25,321.17L187.27,321.16L186.86,266.65L185.11,266.66L185.24,170.62L196.96,165.31L198.74,163.27L205.01,155.97L219.45,149.4L221.63,149.36L236.4,154.65L258.08,170.28z"/>
		<path id="C18075" title="Jay" class="land" d="M770.67,385.94L770.66,394.08L770.36,405.37L770.33,406.25L770.2,422.05L770.29,440.22L770.29,440.25L770.33,453.44L770.33,453.44L672.14,454.49L671.84,433.35L671.87,432.12L674.97,432.07L676.31,373.78L707.71,373.47L770.73,372.24z"/>
		<path id="C18077" title="Jefferson" class="land" d="M645.09,934.53L643.22,935.19L640.66,935.87L637.81,936.22L635.81,936.19L629.13,934.56L626.66,934.23L625.31,934.47L624.03,934.91L621.18,936.53L620.31,937.45L619.24,939.43L617.68,941.39L616.91,942.61L616,946.74L615.76,948.71L615.88,949.94L616.11,950.84L618.64,954.47L620.08,957.72L620.31,960.86L619.91,965.85L619.93,972.48L620.11,973.98L620.38,975.09L620.69,976.13L622.55,979.74L610.6,979.78L606.37,973.58L589.01,973.76L588.79,951.86L579.97,951.85L579.85,943.06L571.08,943.01L570.97,936.41L562.18,934.33L562.06,910.54L562.01,907.98L572.81,907.89L575.08,909.89L579.4,907.87L579.3,898.94L588.12,898.94L588.11,890.19L596.72,890.15L596.54,881.24L618.62,881L675.84,880.76L676.21,948.18L675.52,947.94L673.45,946.81L671.58,945.14L670.42,943.78L667.43,938.64L666.54,937.51L665.58,935.82L662.66,934.03L660.58,933.38L658.73,932.99L655.47,932.62L651.48,932.85L645.62,934.34z"/>
		<path id="C18079" title="Jennings" class="land" d="M561.37,814.89L589.88,814.32L619.77,795.21L618.62,881L596.54,881.24L596.72,890.15L588.11,890.19L588.12,898.94L579.3,898.94L579.4,907.87L575.08,909.89L572.81,907.89L562.01,907.98L562.06,910.54L555.25,906.6L535.67,912.93L534.85,833.83L534.61,815.49z"/>
		<path id="C18081" title="Johnson" class="land" d="M498.47,669.04L498.88,703.88L498.78,721.94L498.46,721.98L498.3,737.97L498.59,748.99L467.93,749.89L466.97,749.96L427.66,750.73L427.75,723.61L428.08,661.54L429.73,661.51L476.65,660.45L498.57,660.11z"/>
		<path id="C18083" title="Knox" class="land" d="M125.65,882.61L126.76,884.21L193.48,884.46L193.49,882.55L219.8,882.72L227.16,883.73L226.77,885.19L223.48,886.43L220.35,889.88L219.93,892.98L219.06,894.83L218.28,896.37L217.27,895.77L216.94,898.06L217.03,899.64L216.86,900.96L213.89,902.14L209.72,901.47L207.75,902.43L208.08,905.45L205.66,908.44L204.18,910.18L200.43,910.61L198.8,909.15L198.5,911.66L196.7,912.44L194.58,910.61L192.69,912.4L193.46,917.11L191.49,925.67L192.51,929.44L192.9,933.02L191.36,936.07L188.71,937.54L187.23,944.66L187.34,950.11L187.93,952.89L190.34,953.81L190.92,954.9L189.79,956.41L191.64,958.53L192.76,957.88L193.64,959.18L192.4,960.33L193.18,965.8L192.27,968.48L190.53,972.27L192.12,976.56L192.93,984.2L193.78,990.97L193.24,992.22L189.97,997.75L182.16,1002.27L179.24,1002.66L165.65,992.45L162.94,994.3L164.99,998.81L163.53,1001.86L160.13,999.63L159.69,994.38L155.09,993.28L153.19,997.76L150.45,993.82L148.26,996.56L140.98,995.66L140.07,997.09L137.66,998.93L138.66,999.58L137.07,1002.84L134.03,1005.48L130.34,1005.74L126.91,1004.9L124.35,1004.87L124.7,1003.68L125.26,1001.91L121.35,1004.45L119.98,1008.72L117.49,1008.66L115.96,1008.56L113.9,1007.74L112.9,1009.86L110.4,1017.84L104.97,1021.55L101.09,1022.91L97.21,1020.08L96.46,1019.03L94.92,1018.53L93.71,1020.25L91.9,1021.54L93,1024.12L90.46,1027.01L85.3,1028.91L75.66,1031.02L74.35,1031.49L75.14,1025.15L77.59,1022.94L77.72,1021.86L76.4,1019.91L74.64,1018.09L74.55,1015.46L75.5,1013.26L77.57,1012.17L81.53,1011.81L86.47,1009.36L89.97,1006.23L93.45,1004.87L95.01,1003.6L95.7,1002.17L95.79,1000.52L95.32,999.37L94.15,993.38L96.52,988.81L96.33,985.21L99.59,979.08L101.57,978.64L102.26,978.31L102.87,977.43L102.81,976.53L102.05,973.97L103.23,969.92L103.76,963.7L110.02,955.28L121.41,952.19L124.8,950.25L127.55,946.28L128.24,940.5L133.02,932.52L132.44,927.97L133.01,921.69L125.72,909.72L127.06,907.17L126.06,900.44L124.06,899.32L120.24,897.18L119.56,896.04L120.98,892.32L121.76,886.42z"/>
		<path id="C18085" title="Kosciusko" class="land" d="M569.24,102.08L569.62,146.72L569.43,183.18L561.42,183.22L561.98,224.42L504.45,225.72L500.12,225.62L482.81,225.94L482.87,212.1L469.26,212.49L468.88,184.95L474.44,184.86L473.21,102.41z"/>
		<path id="C18087" title="LaGrange" class="land" d="M567.77,0.47L569.9,0.47L570.62,0.46L574.17,0.45L575.99,0.47L576.56,0.49L579.94,0.44L580.12,0.48L601.26,0.34L601.8,0.39L621.56,0.29L622.72,0.28L634.19,0.23L641.04,0.22L645.67,0.19L648.63,0.19L650.99,0.16L653.3,0.18L654.77,0.2L654.79,0.2L659.14,0.26L659.32,0.22L659.49,0.19L668.81,0.24L677.35,0.27L677.99,73.89L568.95,74.86z"/>
		<path id="C18089" title="Lake" class="land" d="M126.5,16.51L127.33,16.01L128.58,17.81L129.58,20.24L130.93,21.82L139.12,27.72L140.92,26.87L143.31,27.66L144.95,28.83L145.92,28.02L146.74,28.4L147.06,28.93L147.61,29.6L148.06,30.16L148.19,31.61L146.64,33.56L148.8,36.18L150.31,37.19L157.15,38.96L164.04,41.39L173.77,43.44L182.46,43.69L184.63,44.48L188.64,44.29L197.84,43.08L198.74,163.27L196.96,165.31L185.24,170.62L173.71,180.77L152.45,188.27L145.85,184.78L125.9,187.07L125.86,145.69L125.86,145.65L125.94,127.56L126.19,119.69L126.13,96.81L126.12,91.62L126.12,91.57L126.29,72.85L126.27,63.55L126.36,62.26L126.36,43.6L126.34,40.47L126.36,39.68L126.31,21.79L126.29,18.31z"/>
		<path id="C18091" title="LaPorte" class="land" d="M266.46,15.66L272.05,10.64L280.02,7.16L292,0.11L292.28,0.11L296.83,0.11L297.5,0.11L297.71,0.11L297.73,0.11L310.16,0.2L310.54,0.19L335.47,0.3L335.74,0.29L363.15,0.36L362.57,34.79L371.83,35.14L371.96,37.42L372.1,59.99L369.32,62.97L369.33,72.32L368.03,76.06L362.98,76.02L363.04,103.33L335.15,103.41L321.55,112.84L319.72,119.65L315.92,126.13L312.02,138.35L306.99,142.73L301.81,149.63L294.54,153.37L281.27,156.18L269.35,162.33L267.09,164.91L267.26,93.79z"/>
		<path id="C18093" title="Lawrence" class="land" d="M325.74,856.93L351.48,857.01L412.09,857.39L420.87,857.35L422.07,926.15L418.5,934.46L413.84,935.42L414.16,949.03L378.35,949.18L378.34,948.86L325.55,949.49L325.6,883.51z"/>
		<path id="C18095" title="Madison" class="land" d="M519.82,432.32L584.78,431.89L586.98,431.96L587.54,525.34L587.54,565.78L519.78,566.44L519.92,481.61L520.09,479.64z"/>
		<path id="C18097" title="Marion" class="land" d="M502,571.51L501.89,583.79L501.89,589.13L498.12,589.18L498.66,633.13L498.66,642.1L498.57,660.11L476.65,660.45L429.73,661.51L428.08,661.54L409.99,661.99L409.93,646.46L409.91,645.99L409.93,635.25L409.84,608.31L409.8,605.81L409.63,594.61L410.05,579.12L409.98,573.43L410,572.46L426.87,572.05L430.1,571.83L430.49,571.84L446.46,571.58z"/>
		<path id="C18099" title="Marshall" class="land" d="M376.68,185.39L376.79,103.31L376.67,89.62L414.62,89L414.87,89.43L419.49,88.91L473.16,88.77L473.21,102.41L474.44,184.86L468.88,184.95z"/>
		<path id="C18101" title="Martin" class="land" d="M325.55,949.49L325.72,997.81L289.01,997.78L279.5,1007.07L268.48,1004.14L268.78,909.99L273.21,909.91L273.2,883.66L325.6,883.51z"/>
		<path id="C18103" title="Miami" class="land" d="M519.51,374.32L457.07,375.07L448.17,375.21L448,319.19L447.26,319L447.35,267.71L447.23,267.17L447.36,240.24L499.91,239.28L501.12,307.17L501.01,309.97L501.54,347.77L519.23,347.55z"/>
		<path id="C18105" title="Monroe" class="land" d="M412.09,857.39L351.48,857.01L325.74,856.93L325.57,804.29L324.95,752.45L331.87,754.09L333.27,746.46L337.92,749.12L337.92,751.01L351.3,751.34L396.96,751.32L397.3,778.33L399.08,778.38L399.87,827.42L399.64,839.95L411.93,839.81z"/>
		<path id="C18107" title="Montgomery" class="land" d="M229,563.55L229.23,563.38L228.77,496.32L228.63,482.88L322.58,483.02L322.54,494.04L322.71,572.85L322.7,590.65L248.3,590.08L228.87,589.91z"/>
		<path id="C18109" title="Morgan" class="land" d="M427.75,723.61L427.66,750.73L396.96,751.32L351.3,751.34L337.92,751.01L337.92,749.12L337.59,711.51L324.93,711.56L324.49,695.72L333.19,683.93L331.81,671.41L377.03,671.61L376.95,662.65L409.99,661.99L428.08,661.54z"/>
		<path id="C18111" title="Newton" class="land" d="M125.97,235.79L125.97,235.79L125.96,235.72L125.92,231.26L125.87,201.03L125.87,195.35L125.87,192.35L125.87,190.87L125.87,189.15L125.88,188.95L125.9,187.77L125.9,187.07L145.85,184.78L152.45,188.27L173.71,180.77L185.24,170.62L185.11,266.66L186.86,266.65L187.27,321.16L126.01,321.06L126.01,321.04L126.09,284.48L126.01,276.57L126.05,276.29L125.94,272.05L126.04,271.62L126.02,266.53z"/>
		<path id="C18113" title="Noble" class="land" d="M569.24,102.08L569.06,77.27L568.95,74.86L677.99,73.89L678.46,156.31L651.07,156.33L596.78,155.7L596.99,146.58L569.62,146.72z"/>
		<path id="C18115" title="Ohio" class="land" d="M754.55,884.63L713.52,884.35L713.47,884.03L690.71,883.97L691.77,875.98L692.56,870.38L693.71,870.05L695.58,870.69L695.51,872.94L699.8,872.92L702.77,871.99L708.02,869.2L711.83,867.37L715.98,861.94L720.92,860.59L723.68,859.42L723.93,856.99L726.82,856.05L728.44,855.66L732.6,855.87L735.01,855.04L736.98,853.95L738.52,852.48L742.24,850.42L748.38,850.33L751.14,846.93L752.79,845.28L754.65,846.87L757.78,851.13L759.34,853.64L759.56,854.35L760.12,855.44L761.83,857.27L762.48,858.25L763.34,860.23L764.01,862.24L764.2,863.91L763.54,866.31L762.94,867.37L755.94,874.37L754.51,876.08L752.86,878.77L752.5,880.05L752.61,880.88L753.03,882.21z"/>
		<path id="C18117" title="Orange" class="land" d="M414.17,1028.97L414.12,1037.64L325.94,1037.43L325.72,997.81L325.55,949.49L378.34,948.86L378.35,949.18L414.16,949.03z"/>
		<path id="C18119" title="Owen" class="land" d="M264.74,710.56L324.93,711.56L337.59,711.51L337.92,749.12L333.27,746.46L331.87,754.09L324.95,752.45L325.57,804.29L237.62,803.58L237.84,750.44L264.15,750.62L264.17,723.99z"/>
		<path id="C18121" title="Parke" class="land" d="M151.08,563.73L202.22,563.47L229,563.55L228.87,589.91L248.3,590.08L247.45,670.38L203.43,669.66L160.02,669.41L156.9,655.63L160.21,642.98L159.55,635.53L161.27,627.09L160.46,620.75L161.87,612.86L159.75,609.08L159.28,600.32L163.82,597.4L166.78,591.5L161.33,587.99L163.23,582.78L160.61,578.63L154.69,576.51L147.78,569.6z"/>
		<path id="C18123" title="Perry" class="land" d="M378.11,1119.56L377.58,1120.12L376.91,1121.57L376.88,1123.87L377.44,1125.55L378.64,1126.98L384.5,1129.86L385.43,1132.3L384.79,1135.73L383.5,1137.75L380.2,1140.72L375.54,1142L373.53,1142.19L371.07,1142.17L368.87,1142.14L366.1,1142.53L364.79,1143.08L364.29,1143.49L363.72,1144.36L362.98,1147.49L363.11,1150.26L363.05,1151.97L362.81,1153.69L362.77,1156.31L362.99,1161.26L362.93,1165.33L363.24,1167.14L364.03,1169.46L364.49,1170.24L365.91,1171.69L366.66,1173.03L367.22,1174.83L367.32,1176.54L367.03,1177.11L366.28,1177.92L364.33,1179.1L362.19,1180.16L360.8,1180.64L359.25,1180.68L357.4,1180.39L353.2,1179.1L349.87,1178.81L348.4,1179.06L347.92,1179.4L346.13,1181.45L345.58,1182.45L345.25,1183.71L345.19,1185.36L345.65,1190.34L345.61,1191.57L345.36,1193.26L345.81,1194.24L345.85,1194.63L345.66,1195.46L344.12,1198.18L343.05,1199.04L341.61,1199.8L339.12,1201.47L337.1,1202.49L336.16,1202.83L333.85,1203.21L332.79,1203.15L332.13,1202.89L332.13,1202.89L331.42,1202.4L330.63,1200.74L330.42,1198.58L330.72,1196.84L331.4,1194.87L333.68,1189.89L334.62,1187.27L334.79,1186.26L334.77,1185.02L334.44,1183.77L334.07,1183.15L333.36,1182.55L330.8,1181.82L327.93,1181.27L326.06,1181.24L324.86,1181.81L323.44,1183.17L319.7,1186.21L317.73,1187.49L317.18,1187.78L316.28,1187.92L314.1,1187.41L313.33,1186.74L309.48,1181.87L306.15,1176.01L302.61,1168.83L300.71,1163.95L300.1,1161.79L299.06,1159.13L295.29,1156.68L294.38,1156.23L298.28,1151.19L300.12,1154.75L304.42,1156.38L301.99,1141.34L305.6,1138.8L302.54,1132.21L305.64,1127.59L299.66,1120.91L296.16,1120.52L299.89,1094.39L299.73,1081.19L326.52,1081.5L326.4,1077L352.28,1076.02L351.92,1093.67L378.25,1093.88z"/>
		<path id="C18125" title="Pike" class="land" d="M233.24,1086.15L179.91,1086.42L175.53,1082.1L175.69,1041.43L166.07,1039.49L162.6,1042.83L154.07,1043.22L154.13,1024.93L145.32,1024.99L145.33,1016.15L141.07,1016.08L140.98,995.66L148.26,996.56L150.45,993.82L153.19,997.76L155.09,993.28L159.69,994.38L160.13,999.63L163.53,1001.86L164.99,998.81L162.94,994.3L165.65,992.45L179.24,1002.66L182.16,1002.27L189.97,997.75L193.24,992.22L194.8,992.21L196.66,993.52L199.64,992.93L200.42,991.46L204.63,990.9L209.43,993.2L212.48,996.43L213.57,1000.05L214.63,1000.95L216.79,1000.77L217.94,998.38L220.05,997.3L220.95,998.15L222.34,996.91L223.84,994.51L226.93,995.61L228.28,997.93L230.69,1000.32L233.41,1001.33z"/>
		<path id="C18129" title="Posey" class="land" d="M84.64,1186.54L82.33,1187.54L80.6,1187.94L79.26,1188.09L76.97,1187.41L75.35,1187.32L70.12,1188.44L68.05,1189.83L67.57,1190.34L65.06,1192.37L64.4,1192.72L63.34,1192.98L62.32,1193.11L59.29,1193.13L53.95,1192.74L53.17,1192.5L52.17,1191.76L51.43,1191L51.33,1190.68L51.32,1189.4L50.61,1188.1L50.39,1187.77L47.64,1185.53L47.28,1184.89L46.25,1182.18L45.67,1181.22L44.02,1179.45L42.88,1178.54L41.46,1177.88L39.3,1177.38L37.97,1177.5L36.38,1178.29L32.37,1183.37L31.1,1185.21L30.94,1185.45L29.91,1186.52L28.81,1187.94L28.44,1188.47L28.03,1189.41L27.85,1190.7L27.81,1191.94L28.05,1193.18L28.49,1194.49L28.94,1195.3L31.05,1198.05L33.99,1200.77L35.08,1202.62L35.68,1204.35L36.62,1210.27L36.43,1211.84L35.9,1213.3L34.89,1214.03L32.99,1214.94L31,1215.62L29.81,1216.27L29.25,1217L29.3,1218.01L29.03,1218.64L28.38,1219.18L26.98,1222.95L26.52,1223.48L26.01,1223.82L25.07,1224L23.31,1223.56L20.89,1220.98L20.52,1220.15L19.44,1219.15L17.55,1218.02L16.89,1217.9L15.94,1217.35L15.48,1216.84L14.53,1216.27L12.73,1215.53L10.26,1215L8.87,1215.15L7.21,1215.8L6.89,1214.5L4.59,1213.85L2.97,1213.34L2.12,1212.27L1.59,1211.47L1.59,1210.26L1.91,1208.92L2.23,1207.72L3.4,1206.38L3.61,1204.64L3.29,1203.44L2.34,1202.5L1.27,1201.29L0.42,1199.02L0,1196.07L0.42,1194.06L0.77,1193.02L0.96,1192.45L1.91,1190.85L3.61,1189.51L5.95,1187.5L6.37,1185.22L4.99,1181.74L3.4,1177.71L5.3,1172.95L10.79,1165.84L10.87,1162.69L7.73,1153.66L6.8,1148.34L7.86,1144.45L9.02,1141.89L11.57,1141.09L16.14,1138.94L17.41,1135.18L16.99,1133.03L15.08,1130.88L14.23,1128.87L13.91,1125.64L16.03,1122.69L19.94,1119.31L26.75,1117.93L32.38,1111.39L32.17,1107.9L30.69,1105.34L28.72,1104.27L23.43,1100.61L19.57,1096.58L17.58,1092.94L17.94,1089.47L18.69,1087.45L19.11,1086.85L61.38,1087.35L61.26,1095.34L87.65,1095.63L87.61,1105.4L87.48,1118.5L85.62,1118.46L84.69,1186.51z"/>
		<path id="C18127" title="Porter" class="land" d="M248.26,24.98L265.96,16.1L266.46,15.66L267.26,93.79L267.09,164.91L258.08,170.28L236.4,154.65L221.63,149.36L219.45,149.4L205.01,155.97L198.74,163.27L197.84,43.08L198.31,43.02L206.12,41.35L212.52,38.95L212.48,36.39L220.75,34.83L222.06,36.29L234.91,31.19L243.94,27.15z"/>
		<path id="C18131" title="Pulaski" class="land" d="M303.59,266.36L266.93,266.37L267.07,185.12L376.68,185.39L376.34,267.16L349.59,266.83z"/>
		<path id="C18133" title="Putnam" class="land" d="M248.3,590.08L322.7,590.65L324.66,590.65L324.53,662.53L335.36,662.64L335.03,666.32L331.81,671.41L333.19,683.93L324.49,695.72L324.93,711.56L264.74,710.56L247.1,710.49L247.45,670.38z"/>
		<path id="C18135" title="Randolph" class="land" d="M770.33,453.44L770.29,455.79L769.93,480.15L769.8,488.07L769.76,489.82L769.76,489.84L769.66,493.59L769.3,509.35L769.3,509.97L769.2,516.07L768.96,534.03L768.87,538.56L768.67,547.53L676.24,547.71L673.39,547.75L673.18,525.42L672.14,454.49z"/>
		<path id="C18137" title="Ripley" class="land" d="M653.73,773.09L672.35,760.85L708.51,760.36L708.4,761.23L692.56,870.38L691.77,875.98L675.91,876.3L675.84,880.76L618.62,881L619.77,795.21L620.27,794.75z"/>
		<path id="C18139" title="Rush" class="land" d="M574.14,654.65L574.21,641.99L574.04,641.69L573.98,614.8L582.64,614.7L652.54,614.37L653.36,694.63L653.24,696.22L653.49,716.69L574.97,716.85L574.96,716.64L574.15,663.97z"/>
		<path id="C18141" title="St. Joseph" class="land" d="M433.72,0.18L433.72,0.18L435.73,0.18L456.97,0L457.54,0.01L457.63,0L472.42,0.02L472.91,47.88L472.88,48.05L473.16,88.77L419.49,88.91L414.87,89.43L414.62,89L376.67,89.62L376.79,103.31L363.04,103.33L362.98,76.02L368.03,76.06L369.33,72.32L369.32,62.97L372.1,59.99L371.96,37.42L371.83,35.14L362.57,34.79L363.15,0.36L364.31,0.36L368.47,0.33L424.39,0.12z"/>
		<path id="C18143" title="Scott" class="land" d="M513.66,935.03L515.04,936.37L515.95,937.26L517.05,936.96L520.35,935.96L522.91,934.77L524.23,933.74L525.25,931.21L526.94,929.69L527.97,925.45L529.28,923.63L531.02,922.04L532.32,921.96L533.24,920.27L532.92,918.24L534.08,915.88L535.67,912.93L555.25,906.6L562.06,910.54L562.18,934.33L570.97,936.41L571.08,943.01L579.85,943.06L579.97,951.85L588.79,951.86L589.01,973.76L536.09,974.16L536.08,978.53L529.49,983.04L529.56,987.25L523.23,987.29L523.07,982.77L514.3,983.03z"/>
		<path id="C18145" title="Shelby" class="land" d="M561.9,748.18L521.77,748.35L520.97,748.4L498.59,748.99L498.3,737.97L498.46,721.98L498.78,721.94L498.88,703.88L498.47,669.04L498.57,660.11L498.66,642.1L574.04,641.69L574.21,641.99L574.14,654.65L574.15,663.97L574.96,716.64L574.97,716.85L574.66,748.13z"/>
		<path id="C18147" title="Spencer" class="land" d="M255.55,1176.69L255.52,1176.7L249.76,1179.03L248.1,1179.85L242.62,1183.75L240.54,1186.23L239.86,1187.58L239.59,1188.75L239.68,1189.43L240.09,1190.49L240.26,1191.71L240.35,1193.17L240.16,1194.44L238.88,1197.74L238.36,1199.55L237.42,1205.04L236.85,1207.38L235.06,1212.45L234.48,1213.76L233.8,1214.99L232.22,1216.7L229.09,1219.21L226.89,1220.15L224.23,1220.79L222.32,1220.69L220.35,1220.03L219.86,1219.57L219.02,1217.9L217.99,1213.41L216.94,1210.75L214.21,1205.91L212.93,1204.27L212.12,1203.59L211.52,1203.27L210.1,1202.95L207.92,1203.23L202.67,1202.51L200.26,1201.78L198.24,1200.91L190.12,1195.48L188.31,1193.83L186.94,1192.1L187.1,1178.32L193.52,1170.1L195.51,1171.33L197.12,1164.3L204.1,1159.58L207.39,1152.61L214.37,1148.78L214.21,1139.8L215.44,1138.2L220.95,1142.71L229.59,1140.97L227.41,1138.85L229.42,1131.06L232.75,1126.97L233.42,1120.42L246.41,1120.42L246.4,1094.85L299.89,1094.39L296.16,1120.52L299.66,1120.91L305.64,1127.59L302.54,1132.21L305.6,1138.8L301.99,1141.34L304.42,1156.38L300.12,1154.75L298.28,1151.19L294.38,1156.23L294.26,1156.17L293.13,1156.01L292.32,1156.15L289.55,1157.7L286.27,1158.82L284.63,1159.63L282.91,1161.07L282.03,1162.02L281.22,1163.23L279.92,1164.57L278.63,1165.54L277.77,1166.49L276.08,1169.01L273.64,1171.93L272.52,1172.87L269.63,1174.77L267.64,1175.28L266.31,1175.28L263.64,1175.7L258.87,1176.05L257.87,1175.91z"/>
		<path id="C18149" title="Starke" class="land" d="M267.07,185.12L267.19,167.13L267.09,164.91L269.35,162.33L281.27,156.18L294.54,153.37L301.81,149.63L306.99,142.73L312.02,138.35L315.92,126.13L319.72,119.65L321.55,112.84L335.15,103.41L363.04,103.33L376.79,103.31L376.68,185.39z"/>
		<path id="C18151" title="Steuben" class="land" d="M677.35,0.27L677.38,0.27L683.16,0.31L694.79,0.27L696.17,0.28L714.59,0.19L714.97,0.25L730.36,0.39L730.66,0.34L733.02,0.33L733.19,0.36L739.9,0.28L765.3,0.19L765.31,0.19L766.79,0.17L769.87,0.12L769.81,5.52L769.82,7.27L769.83,8.75L769.83,12.66L769.84,16.78L769.82,20.38L769.79,27.18L769.92,40.5L769.91,40.8L769.89,46.59L770.14,72.69L770.14,72.72L677.99,73.89z"/>
		<path id="C18153" title="Sullivan" class="land" d="M193.64,775.9L193.56,802.46L193.49,882.55L193.48,884.46L126.76,884.21L125.65,882.61L127.74,877.91L129.31,868.45L125.21,863.14L113.65,858.03L113.47,854.14L115.7,848.74L114.43,844.29L115.01,837.24L109.38,830.46L106.51,829.6L105.32,828.65L104.59,827.33L104.44,825.43L103.99,824.1L102.52,823.72L101.33,822.96L100.89,822.2L100.74,821.07L100.74,819.93L100.89,818.59L98.31,815.59L97.64,810.63L98.4,806.79L98.95,803.99L103.6,801.54L111.22,794.53L113.96,790.49L114.55,788.27L113.46,783.84L112.42,780.61L110.06,779.43L107.56,775.78L116.36,775.82L116.73,775.86L117.1,775.81z"/>
		<path id="C18155" title="Switzerland" class="land" d="M772.54,897.92L770.49,899.86L767.2,902.07L765.73,903.35L764.76,904.64L764.17,905.94L764.19,907.52L764.85,909.57L767.36,913.6L767.96,915.14L768.51,917.39L768.48,918.48L768.21,919.41L767.8,919.9L766.2,920.31L764.47,920.28L762.82,919.96L759.92,918.8L757.79,918.16L750.45,916.82L749.03,917.11L747.15,918.05L743.99,920.02L739.79,922L737.87,922.58L736.32,922.68L732.79,921.85L728.96,921.47L726.29,921.74L724.88,922.24L723.94,922.85L721.14,925.27L718.34,926.69L714.23,928.76L712.57,930.07L709.66,931.85L706.9,932.87L705.85,933.5L704.47,934.72L700.03,937.33L699.47,937.78L698.6,938.9L698.62,939.15L695.2,942.04L692.43,944.71L691.1,945.68L689.16,946.81L686.96,947.77L683.09,949.03L682,948.93L679.6,949.17L678.83,949.07L676.21,948.18L675.84,880.76L675.91,876.3L691.77,875.98L690.71,883.97L713.47,884.03L713.52,884.35L754.55,884.63L754.66,884.82L755.22,885.2L756.88,885.65L764.05,885.77L766.75,886.31L768.25,886.41L771.2,887.64L774.07,889.87L774.48,890.32L774.76,890.86L774.91,892.41L774.62,894.17L774.03,895.74L773.39,896.88L772.75,897.72z"/>
		<path id="C18157" title="Tippecanoe" class="land" d="M322.58,483.02L228.63,482.88L228.73,435.96L228.58,402.37L228.37,402.16L227.97,375.13L304.67,375.38L322.65,375.45L322.81,415.67z"/>
		<path id="C18159" title="Tipton" class="land" d="M519.82,432.32L520.09,479.64L519.92,481.61L429.78,482.56L429.72,433.78L429.76,424.72L519.87,423.49z"/>
		<path id="C18161" title="Union" class="land" d="M767.7,681.72L767.72,681.86L767.72,682.16L767.67,687.73L767.63,695.71L767.63,695.71L715.38,694.41L715.74,636.7L715.78,632.25L731.14,633.01L767.92,633.06L767.92,633.08L767.82,647.22L767.8,650.67L767.87,654.76L767.78,663.01L767.67,681.52z"/>
		<path id="C18163" title="Vanderburgh" class="land" d="M87.61,1184.98L84.69,1186.51L85.62,1118.46L87.48,1118.5L87.61,1105.4L139.94,1106.3L138.8,1119.39L138.59,1145.38L144.06,1145.31L143.75,1173.45L140.35,1175.66L135.42,1179.68L134.46,1180.74L131.92,1182.99L130.42,1183.71L129.47,1183.8L127.39,1181.95L124.73,1180.85L121.33,1178.95L120.06,1178.13L118.15,1176.42L116.6,1174.39L116,1173.4L115.14,1171.54L114.61,1169.33L114.82,1167L114.51,1165.48L113.75,1164.34L112.99,1163.77L111.86,1163.18L110.93,1163L110.2,1163.06L109.3,1163.36L108.19,1164.04L107.62,1165.12L107.29,1166.26L107.29,1167.36L107.69,1168.11L107.05,1170.89L105.96,1172.4L103.91,1174.21L102.46,1175.73L101.67,1177.74L101.8,1179.31L102.31,1180.9L103.01,1182.51L103.73,1183.65L106.52,1186.08L108.06,1187L109.21,1187.99L110.52,1189.55L111.26,1195.04L111.19,1197.37L110.53,1198.67L106.96,1204.03L105.58,1205.48L104.88,1206.03L102.6,1206.9L100.05,1207.51L97.67,1207.85L95.46,1207.8L92.78,1207.38L91.39,1206.88L90.64,1206.1L89.78,1204.74L89.42,1203.45L89.14,1201.72L89.2,1198.89L90.68,1195.89L91.2,1195.16L92.22,1194.23L92.86,1193.44L93.35,1192.54L93.65,1191.26L93.64,1190.03L93.13,1187.66L92.79,1186.98L91.61,1185.87L90.6,1185.15L89.51,1184.74L88.64,1184.68z"/>
		<path id="C18165" title="Vermillion" class="land" d="M124.75,503.46L134.45,503.37L134.46,509.85L154.28,509.82L151.73,531.03L147.57,541L149.38,554.59L146.35,561.04L151.08,563.73L147.78,569.6L154.69,576.51L160.61,578.63L163.23,582.78L161.33,587.99L166.78,591.5L163.82,597.4L159.28,600.32L159.75,609.08L161.87,612.86L160.46,620.75L161.27,627.09L159.55,635.53L160.21,642.98L156.9,655.63L160.02,669.41L124.57,669.61L124.53,657.72L124.51,657.73L124.45,651.98L124.37,616.16L124.37,611.71L124.37,609.36L124.35,607.2L124.33,585.07L124.33,585.04L124.43,558L124.43,556.79L124.46,555.96L124.49,552.96L124.54,549.78L124.55,549.09L124.55,545.56L124.55,545.53L124.72,508.12L124.68,504.65L124.75,503.49z"/>
		<path id="C18167" title="Vigo" class="land" d="M193.64,775.9L117.1,775.81L116.73,775.86L116.36,775.82L107.56,775.78L107.21,775.27L106.14,768.84L109.1,764.53L109.01,763.59L108.43,759.5L111.11,753.12L113.65,751.14L119.32,751.09L121.77,747.31L124.7,748.84L124.77,721.76L124.77,721.43L124.74,717.85L124.71,712.73L124.71,711.77L124.7,709.41L124.7,709.4L124.71,704.95L124.69,703.79L124.63,694.18L124.63,688.4L124.62,682.85L124.57,669.61L160.02,669.41L203.43,669.66L203.17,696.35L193.98,696.11z"/>
		<path id="C18169" title="Wabash" class="land" d="M572.77,347.11L521.04,347.66L519.23,347.55L501.54,347.77L501.01,309.97L501.12,307.17L499.91,239.28L500.15,238.98L500.12,225.62L504.45,225.72L561.98,224.42L562.22,238.43L571.53,238.3z"/>
		<path id="C18171" title="Warren" class="land" d="M180.91,469.55L170.24,480.3L165.9,484.1L151.15,489.84L146.69,498.04L153.84,505.05L154.28,509.82L134.46,509.85L134.45,503.37L124.75,503.46L124.82,496.7L124.9,489.98L125.09,472L125.08,471.81L125.85,406.37L125.91,402.19L125.92,401.81L228.37,402.16L228.58,402.37L228.73,435.96L219.41,444.01L210.27,445.79L192.57,453.7L183.8,463.48z"/>
		<path id="C18173" title="Warrick" class="land" d="M186.66,1191.74L185.6,1190.82L178.98,1186.19L178.92,1186.15L174.79,1184.01L172.01,1183.26L171.44,1183.27L171.15,1183.46L168.9,1182.39L167.08,1180.91L166.58,1180.27L165.73,1179.59L164.94,1179.45L164.47,1179.05L162.41,1176.75L162.32,1176.59L162.48,1176.25L162.39,1176.15L160.54,1175.09L155.59,1173.4L155.24,1173.09L151.46,1172.35L149.11,1172.33L147.14,1172.52L144.55,1173.05L143.92,1173.34L143.75,1173.45L144.06,1145.31L138.59,1145.38L138.8,1119.39L139.94,1106.3L140.06,1095.54L175.5,1095.4L175.53,1082.1L179.91,1086.42L233.24,1086.15L233.23,1094.78L246.4,1094.85L246.41,1120.42L233.42,1120.42L232.75,1126.97L229.42,1131.06L227.41,1138.85L229.59,1140.97L220.95,1142.71L215.44,1138.2L214.21,1139.8L214.37,1148.78L207.39,1152.61L204.1,1159.58L197.12,1164.3L195.51,1171.33L193.52,1170.1L187.1,1178.32L186.94,1192.1z"/>
		<path id="C18175" title="Washington" class="land" d="M414.17,1028.97L414.16,949.03L413.84,935.42L418.5,934.46L422.07,926.15L424.05,925.44L427.77,925.27L431.78,923.97L435.07,922.28L436.37,923.39L438.35,922.78L439.19,921.85L442.61,921.55L446.89,923.46L457.65,926.06L463.41,922.75L471.12,922L479.17,926.78L485.87,927.2L490.76,926.21L497.07,926.81L501.12,927.22L502.26,928.56L506.43,930.49L507.92,929.69L509.21,929.92L511.2,932.19L512.05,933.91L513.66,935.03L514.3,983.03L523.07,982.77L523.23,987.29L523.31,991.55L518.87,991.57L518.88,1000.21L514.52,1000.29L514.5,1004.71L497.38,1005.17L497.6,1009.08L488.81,1009.21L488.5,1030.34L479.46,1030.47L426.86,1029.03z"/>
		<path id="C18177" title="Wayne" class="land" d="M768.67,547.53L768.61,550.53L768.38,571.45L768.34,573.16L768.32,574.65L768.32,574.65L768.26,582.44L768.24,582.67L768.17,588.16L768.08,594.21L768.05,594.97L768.03,597.31L768.02,597.34L768,602.34L767.98,603L767.91,606.2L767.92,607.06L767.9,610.63L767.91,614.59L767.9,614.99L767.92,633.06L731.14,633.01L715.78,632.25L715.74,636.7L680.11,636.47L680.5,614.12L671.59,614.1L671.68,587.97L676.36,587.9L676.24,547.71z"/>
		<path id="C18179" title="Wells" class="land" d="M618.12,373.88L617.69,346.96L642.51,346.59L644.71,346.71L644.39,264.91L684.38,265.07L706.44,264.68L707.71,373.47L676.31,373.78z"/>
		<path id="C18181" title="White" class="land" d="M266.93,266.37L303.59,266.36L349.59,266.83L349.54,321.41L322.23,321L309.71,321.33L307.02,333.18L310.02,336.14L306.94,339.18L311.54,338.88L307.75,343.64L303.98,343.72L304.67,375.38L227.97,375.13L227.62,321.19L227.25,321.17L226.93,289.7L253.75,289.6L253.51,266.44z"/>
		<path id="C18183" title="Whitley" class="land" d="M569.62,146.72L596.99,146.58L596.78,155.7L651.07,156.33L650.65,160.75L650.6,182.94L643.79,182.99L644.48,237.38L571.53,238.3L562.22,238.43L561.98,224.42L561.42,183.22L569.43,183.18z"/>
	</g>
</svg>