<?xml version="1.0" encoding="utf-8"?>
<!-- (c) ammap.com | SVG map of KS Counties -->
<svg xmlns="http://www.w3.org/2000/svg" xmlns:amcharts="http://amcharts.com/ammap" xmlns:xlink="http://www.w3.org/1999/xlink" version="1.1">
	<defs>
		<style type="text/css">
			.land
			{
				fill: #CCCCCC;
				fill-opacity: 1;
				stroke:white;
				stroke-opacity: 1;
				stroke-width:0.5;
			}
		</style>

		<amcharts:ammap projection="mercator" leftLongitude="-102.052030" topLatitude="40.003308" rightLongitude="-94.589647" bottomLatitude="36.992781"></amcharts:ammap>

		<!-- All areas are listed in the line below. You can use this list in your script. -->
		<!--{id:"C20001"},{id:"C20003"},{id:"C20005"},{id:"C20007"},{id:"C20009"},{id:"C20011"},{id:"C20013"},{id:"C20015"},{id:"C20017"},{id:"C20019"},{id:"C20021"},{id:"C20023"},{id:"C20025"},{id:"C20027"},{id:"C20029"},{id:"C20031"},{id:"C20033"},{id:"C20035"},{id:"C20037"},{id:"C20039"},{id:"C20041"},{id:"C20043"},{id:"C20045"},{id:"C20047"},{id:"C20049"},{id:"C20051"},{id:"C20053"},{id:"C20055"},{id:"C20057"},{id:"C20059"},{id:"C20061"},{id:"C20063"},{id:"C20065"},{id:"C20067"},{id:"C20069"},{id:"C20071"},{id:"C20075"},{id:"C20073"},{id:"C20077"},{id:"C20079"},{id:"C20081"},{id:"C20083"},{id:"C20085"},{id:"C20087"},{id:"C20089"},{id:"C20091"},{id:"C20093"},{id:"C20095"},{id:"C20097"},{id:"C20099"},{id:"C20101"},{id:"C20103"},{id:"C20105"},{id:"C20107"},{id:"C20109"},{id:"C20111"},{id:"C20113"},{id:"C20115"},{id:"C20117"},{id:"C20119"},{id:"C20121"},{id:"C20123"},{id:"C20125"},{id:"C20127"},{id:"C20129"},{id:"C20131"},{id:"C20133"},{id:"C20135"},{id:"C20137"},{id:"C20139"},{id:"C20141"},{id:"C20143"},{id:"C20145"},{id:"C20147"},{id:"C20149"},{id:"C20151"},{id:"C20153"},{id:"C20155"},{id:"C20157"},{id:"C20159"},{id:"C20161"},{id:"C20163"},{id:"C20165"},{id:"C20167"},{id:"C20169"},{id:"C20171"},{id:"C20173"},{id:"C20175"},{id:"C20177"},{id:"C20179"},{id:"C20181"},{id:"C20183"},{id:"C20185"},{id:"C20187"},{id:"C20189"},{id:"C20191"},{id:"C20193"},{id:"C20195"},{id:"C20197"},{id:"C20199"},{id:"C20201"},{id:"C20203"},{id:"C20205"},{id:"C20207"},{id:"C20209"}-->

	</defs>
	<g>
		<path id="C20001" title="Allen" class="land" d="M1142.29,476.52L1137.75,476.53L1136.23,476.22L1070.53,476.46L1070.64,458.37L1071.55,458.37L1071.61,413.23L1143.96,413.34L1143.66,458.47L1142.33,458.47z"/>
		<path id="C20003" title="Anderson" class="land" d="M1073.35,340.04L1081.79,340.07L1082.11,340.21L1082.36,340.05L1145.94,340.11L1146.06,367.45L1144.36,367.43L1143.96,413.34L1071.61,413.23L1071.97,367.31L1073.49,367.32z"/>
		<path id="C20005" title="Atchison" class="land" d="M1147.98,82.49L1148.04,82.78L1148.88,84.41L1149.12,85.4L1149.13,85.83L1149,86.78L1148.65,87.95L1147.75,89.45L1147.4,89.86L1146.97,90.16L1146.15,90.59L1145.36,90.78L1144.9,90.8L1144.16,90.67L1142.05,89.76L1141.03,89.85L1140.48,90.05L1139.8,90.45L1139.28,90.99L1139.11,91.29L1138.19,94.4L1138.11,95.5L1138.8,97.97L1139.25,98.95L1139.86,99.87L1141.53,101.8L1143.17,103.39L1144.03,104.06L1146.98,105.63L1147.49,106.09L1148.18,106.93L1148.44,107.46L1148.56,108.11L1148.8,111.07L1149,112.23L1149.24,112.76L1150.04,114.04L1150.58,114.62L1151.25,115.21L1152.06,115.76L1154.14,116.92L1157.43,117.9L1158.35,118.32L1159.66,119.51L1160.21,120.42L1160.57,122.44L1161.17,123.5L1161.84,124.05L1127.06,124.02L1063.18,124.06L1063.18,92.98L1064.17,92.98L1064.2,74.52L1101,74.5L1137.84,74.59L1137.83,77.14L1142.72,82.54z"/>
		<path id="C20007" title="Barber" class="land" d="M607.68,627.47L606.55,627.47L597.54,627.36L596.02,627.35L595.7,627.36L575.29,627.26L575.25,627.26L547.42,627.25L546.78,627.22L539.7,627.17L534.72,627.21L534.43,627.21L533.82,627.21L522.01,627.2L520.28,627.21L520.18,627.2L501.52,627.16L500.54,627.16L500.38,548.26L498.71,548.27L498.53,530.54L588.41,530.42L588.36,548.3L607.25,548.31z"/>
		<path id="C20009" title="Barton" class="land" d="M495.19,276.03L584.89,276L585.9,275.99L585.83,312.59L585.92,367L514.93,366.94L495.29,366.91L495.28,348.78z"/>
		<path id="C20011" title="Bourbon" class="land" d="M1220.05,413.48L1220.06,413.5L1220.02,422.72L1219.98,423.69L1219.96,427.16L1219.96,431.21L1219.96,431.53L1219.95,432.69L1219.93,433.43L1219.92,434.28L1219.92,434.79L1219.86,438.58L1219.82,440.55L1219.81,441.51L1219.77,444.6L1219.74,446.36L1219.75,447.57L1219.72,449.51L1219.65,453.2L1219.65,454.8L1219.58,458.54L1219.44,468.15L1219.43,477.09L1219.4,478.64L1219.43,485.25L1219.45,485.77L1219.45,485.98L1219.42,486.89L1219.44,488.77L1219.44,488.77L1142.3,488.48L1142.29,476.52L1142.33,458.47L1143.66,458.47L1143.96,413.34z"/>
		<path id="C20013" title="Brown" class="land" d="M1027.32,74.5L1027.42,25.5L1027.46,0.58L1027.47,0.58L1028.04,0.58L1095.18,0.67L1100.98,0.67L1101,74.5L1064.2,74.52z"/>
		<path id="C20015" title="Butler" class="land" d="M906.94,403.25L906.79,430.3L906.53,502.41L906.47,529.31L803.51,529.49L803.65,439.24L803.58,402.97L823.55,403.24L823.8,403.25L824.02,403.24L854.78,403.4z"/>
		<path id="C20017" title="Chase" class="land" d="M854.78,403.4L854.76,366.9L855.28,361.43L855.29,348.72L858.28,348.74L858.24,312.46L858.55,312.48L934.67,312.63L934.09,385.33L933.96,403.36L906.94,403.25z"/>
		<path id="C20019" title="Chautauqua" class="land" d="M998.56,627.24L992.57,627.29L969.54,627.26L969.21,627.23L968.56,627.25L968.14,627.25L967.7,627.25L967.44,627.23L962.39,627.22L959.89,627.25L957.01,627.25L947.37,627.2L946.92,627.2L928.02,627.21L924.56,627.24L910.63,627.33L906.49,627.32L906.6,565.02L998.54,565.74z"/>
		<path id="C20021" title="Cherokee" class="land" d="M1219.38,627.44L1218.21,627.33L1205.99,627.3L1205.65,627.3L1203.85,627.3L1199.85,627.33L1199.49,627.32L1193.27,627.31L1184.41,627.3L1182.83,627.29L1181.37,627.29L1180.82,627.29L1157.51,627.15L1155.48,627.15L1154.86,627.15L1151.76,627.15L1150.52,627.16L1148.62,627.14L1144.68,627.16L1144.4,557.38L1219.46,557.69L1219.45,558.01L1219.45,560.73L1219.38,577.8L1219.37,578.39L1219.38,580.08L1219.37,580.33L1219.36,584.5L1219.35,584.59L1219.34,588.4L1219.31,589.96L1219.32,591.27L1219.34,594.25L1219.38,599.96L1219.38,600.5L1219.36,603.89L1219.37,605.78L1219.39,607.27L1219.38,607.89L1219.38,607.92L1219.38,609.37L1219.38,609.47L1219.4,611.69L1219.42,615.43L1219.42,615.43L1219.4,618.76L1219.4,625.21z"/>
		<path id="C20023" title="Cheyenne" class="land" d="M105.1,0.17L104.63,92.45L43.17,92.42L42.98,92.34L42.76,92.43L0.32,92.49L0.32,91.24L0.29,87.37L0.22,75.97L0.27,74.33L0.19,69.7L0.08,39.23L0.07,36.18L0.06,34.02L0.03,32.67L0,0.02L22.15,0L24.21,0L34.57,0.08L36.02,0.05L40.03,0.08L40.5,0.09L69.66,0.12L69.87,0.1L83.57,0.12L104.09,0.16z"/>
		<path id="C20025" title="Clark" class="land" d="M411.83,627.14L409.05,627.15L398.01,627.12L394.19,627.14L392.71,627.01L373.59,626.88L373.5,626.88L371.66,626.86L357,626.72L337.35,626.72L336.35,626.71L336.14,626.71L335.62,626.7L321.88,626.63L321.54,547.73L318.95,547.68L318.97,529.64L360.25,530.76L360.3,530.78L373.55,531.17L409.37,531.1L409.43,548.91L411.49,548.91z"/>
		<path id="C20027" title="Clay" class="land" d="M768.21,92.73L835.41,92.86L835,166.08L835,184.57L834.7,184.58L828.92,184.51L828.75,184.44L828.54,184.51L767.78,184.65L768,147.95z"/>
		<path id="C20029" title="Cloud" class="land" d="M675.87,74.33L768.19,74.28L768.21,92.73L768,147.95L676.75,147.84L676.26,147.86L676.36,92.75L675.81,92.75z"/>
		<path id="C20031" title="Coffey" class="land" d="M999.45,385.68L999.51,367.23L1000.9,367.23L1000.85,330.9L1073.36,330.94L1073.35,340.04L1073.49,367.32L1071.97,367.31L1071.61,413.23L1067.15,413.28L1067.05,413.29L999.42,412.83z"/>
		<path id="C20033" title="Comanche" class="land" d="M425.76,627.16L421.15,627.13L418.51,627.14L418.51,627.13L418.14,627.13L417.9,627.13L417.17,627.13L411.83,627.14L411.49,548.91L498.71,548.27L500.38,548.26L500.54,627.16L495.78,627.14L492.44,627.21L480.11,627.17L479.36,627.17L459.89,627.14L455.07,627.14L439.02,627.02L433.83,627.14z"/>
		<path id="C20035" title="Cowley" class="land" d="M906.49,627.32L876.98,627.22L876.16,627.2L871.87,627.2L871.1,627.21L869.7,627.26L862.77,627.22L862.26,627.29L857.73,627.22L850.4,627.21L848.96,627.21L844.73,627.23L844.49,627.23L842.26,627.22L841.47,627.23L839.38,627.25L834.02,627.25L832.67,627.26L823.73,627.27L822.14,627.26L812.15,627.26L811.56,627.25L808.93,627.26L808.55,627.25L804.43,627.24L803.51,529.49L906.47,529.31L906.6,565.02z"/>
		<path id="C20037" title="Crawford" class="land" d="M1219.47,552.4L1219.46,557.69L1219.46,557.69L1144.4,557.38L1144.44,548.36L1142.27,548.35L1142.3,488.48L1219.44,488.77L1219.47,492.78L1219.47,492.8L1219.48,496.19L1219.51,501.69L1219.49,501.89L1219.51,509.65L1219.51,509.73L1219.55,510.65L1219.53,512.65L1219.53,513.44L1219.58,518.73L1219.59,520.03L1219.56,527.8L1219.53,530.7L1219.53,531.62L1219.52,532.59L1219.53,532.61L1219.53,533.76L1219.54,536.84L1219.52,539.78L1219.48,542.79L1219.47,545.78L1219.46,551.7L1219.46,551.72L1219.47,552.36z"/>
		<path id="C20039" title="Decatur" class="land" d="M215.36,0.2L216.27,0.19L216.83,0.22L218.27,0.23L224.45,0.2L228.26,0.21L230.68,0.27L237.98,0.27L239,0.25L243.51,0.27L246.03,0.27L252.73,0.28L256.65,0.3L258.31,0.3L258.5,0.3L259.66,0.31L263.22,0.29L264.53,0.3L272.57,0.29L298.56,0.33L298.92,0.31L301.22,0.33L304.25,0.36L304.8,0.34L304.8,0.34L305.34,0.34L305.69,0.35L307.39,0.33L307.39,0.33L306.97,92.76L218.42,92.52L215.03,92.51z"/>
		<path id="C20041" title="Dickinson" class="land" d="M840.1,294.31L768.94,294.35L767.66,294.31L767.63,230.43L766.13,227.35L767.66,227.35L767.71,221.27L767.78,184.65L828.54,184.51L828.75,184.44L828.92,184.51L834.7,184.58L834.66,219.79L840.77,216.84L840.69,239.65L846.67,239.7L846.7,251.83L840.6,251.85L840.58,276.18L839.5,284.69z"/>
		<path id="C20043" title="Doniphan" class="land" d="M1100.98,0.67L1106.16,0.67L1106.15,2.01L1106.25,2.68L1106.36,3L1107.11,4.01L1109.21,5.43L1111.67,6.62L1112.46,7.2L1113.78,9.07L1114.47,10.29L1115.68,11.62L1117.14,12.41L1117.9,12.63L1118.82,12.66L1120.61,12.52L1121.23,12.62L1121.67,12.78L1123.2,13.69L1123.72,14.7L1123.81,15.99L1123.6,17.21L1122.99,18.76L1122.89,19.41L1122.91,19.95L1122.99,20.23L1123.61,21.12L1124.04,21.41L1124.94,21.84L1125.64,22L1127.3,21.97L1128.47,21.56L1130.52,20.5L1131.14,20.44L1132.19,20.72L1132.78,21.1L1133.15,21.58L1133.35,22.42L1133.37,22.96L1133.21,24.25L1133.32,24.99L1133.67,25.89L1134.25,26.6L1134.63,26.92L1135.71,27.49L1139.36,28.55L1141.95,29.84L1142.79,30.1L1143.36,30.14L1148.12,29.57L1149.82,29.48L1150.54,29.32L1151.48,28.73L1152.15,28.05L1152.56,26.95L1152.61,26.5L1152.48,24.81L1152.59,24.18L1152.73,23.86L1153.66,22.55L1154.58,22L1155.35,21.86L1156.11,21.9L1157.82,22.46L1158.33,22.62L1158.87,22.7L1160.38,22.53L1162.75,21.75L1163.42,21.63L1164.68,21.87L1165.94,22.39L1167.48,23.4L1168.29,24.38L1168.56,24.95L1168.65,25.4L1168.67,26.19L1168.47,27.02L1167.98,27.82L1166.78,29.02L1166.46,29.57L1166.18,30.28L1166.16,31.23L1166.62,32.22L1166.96,32.68L1168.85,34.48L1170.36,35.58L1171.51,35.95L1172.62,36.07L1174.34,35.96L1174.86,36.03L1175.28,36.23L1176.25,37.12L1176.64,37.63L1176.9,38.22L1176.99,38.89L1177.08,40.44L1177.02,41.8L1176.27,43.84L1175.75,44.5L1174.73,45.05L1174.29,45.16L1168.94,45.45L1168.27,45.76L1167.77,46.19L1167.36,46.86L1167.27,47.75L1167.35,48.46L1167.52,48.87L1168.27,49.84L1168.84,50.39L1170.38,51.57L1171.12,51.91L1172.11,51.9L1173.28,51.51L1173.91,51.09L1173.95,51.06L1174.11,50.94L1174.14,50.92L1174.17,50.89L1174.18,50.88L1175.78,49.61L1176.18,49.38L1176.19,49.38L1177.87,49.01L1178.12,49.03L1178.53,49.29L1178.84,49.63L1179.18,50.22L1179.58,51.12L1179.79,53.11L1179.64,54L1179.22,55.39L1178.04,57.17L1177.13,58.04L1175.74,58.83L1174.49,59.23L1173.25,59.41L1172.71,59.38L1171.49,59.04L1170.13,58.4L1168.22,57.01L1166.7,55.69L1165.8,55.09L1165.15,54.84L1164.5,54.76L1164.07,54.81L1163.28,55.37L1162.42,56.22L1161.59,57.7L1161.46,58.3L1161.48,59.6L1161.91,62.95L1161.82,66.02L1161.67,66.85L1161.44,67.41L1160.62,68.48L1159.76,69.06L1159.33,69.22L1157.79,69.49L1156.51,69.51L1155.25,69.67L1154.22,69.98L1153.73,70.28L1152.7,71.21L1152.2,71.85L1150.59,74.52L1150.33,75.21L1149.43,76.33L1148.61,77.71L1147.98,79.3L1147.72,80.44L1147.69,81.15L1147.98,82.49L1142.72,82.54L1137.83,77.14L1137.84,74.59L1101,74.5z"/>
		<path id="C20045" title="Douglas" class="land" d="M1147.51,216.17L1147.51,252L1147.48,267.27L1095.66,267.23L1095.29,267.33L1094.92,267.22L1074.6,267.22L1074.55,267.03L1074.6,239.76L1074.68,200.5L1081.83,198.06L1087.93,198.28L1097.84,204.95L1100.84,205.75L1107.86,203.52L1109.92,205.65L1111.67,203.14L1126.04,203.14L1126.19,219.87L1128.92,219.46L1129.81,216.28L1133.82,218.85L1138.54,218.86L1140.19,221.62L1142.77,222.1L1144.52,219.9L1142.83,216.12z"/>
		<path id="C20047" title="Edwards" class="land" d="M498.37,476.41L408.8,476.02L408.69,457.27L407,457.26L407.11,439.18L407.17,403.04L443.12,402.99L443.13,421.01L496.96,421.11L496.88,457.32L498.41,457.32z"/>
		<path id="C20049" title="Elk" class="land" d="M998.54,565.74L906.6,565.02L906.47,529.31L906.53,502.41L999.1,503.08L999,547.78L998.5,547.77z"/>
		<path id="C20051" title="Ellis" class="land" d="M492.77,184.43L494.44,184.4L493.6,276.02L404.62,276.07L402.45,276.08L403.52,184.57z"/>
		<path id="C20053" title="Ellsworth" class="land" d="M585.09,239.55L676.34,239.49L676.36,275.98L676.91,275.98L676.96,294.2L677.05,312.4L639.85,312.52L639.28,312.59L638.94,312.53L585.83,312.59L585.9,275.99L584.89,276z"/>
		<path id="C20055" title="Finney" class="land" d="M299.39,420.95L227.61,420.64L227.45,456.6L229.65,456.63L229.57,475.73L157.81,475.72L157.78,456.54L155.5,456.56L155.58,366.22L223.73,366.3L296.47,366.69L299.3,366.7L299.53,389.26L299.65,389.63L299.53,390.33z"/>
		<path id="C20057" title="Ford" class="land" d="M301.09,529.56L301.35,457.02L299.25,457.01L299.31,438.97L401.1,439.22L401.35,439.24L407.11,439.18L407,457.26L408.69,457.27L408.8,476.02L409.37,531.1L373.55,531.17L360.3,530.78L360.25,530.76L318.97,529.64z"/>
		<path id="C20059" title="Franklin" class="land" d="M1147.48,267.27L1147.44,276.41L1145.95,276.41L1145.94,340.11L1082.36,340.05L1082.11,340.21L1081.79,340.07L1073.35,340.04L1073.36,330.94L1073.4,276.34L1074.52,276.34L1074.6,267.22L1094.92,267.22L1095.29,267.33L1095.66,267.23z"/>
		<path id="C20061" title="Geary" class="land" d="M845.65,166.23L853.29,166.3L853.32,183.11L856.39,183.12L853.11,191.1L853.09,193.82L868.72,193.9L871.93,195.66L873.25,193.83L876.88,193.22L876.89,197.03L910.49,197.11L910.49,203.23L910.43,239.78L846.67,239.7L840.69,239.65L840.77,216.84L834.66,219.79L834.7,184.58L835,184.57L835,166.08z"/>
		<path id="C20063" title="Gove" class="land" d="M218.24,184.35L242.48,184.39L242.74,184.45L309.62,184.63L309.92,184.66L312.29,184.6L311.33,275.9L296.01,275.73L223.7,275.34L202.26,275.38L203.38,184.35z"/>
		<path id="C20065" title="Graham" class="land" d="M397.59,92.64L401.8,92.67L401.32,184.54L312.29,184.6L309.92,184.66L309.62,184.63L310.04,92.68L318.04,92.7L318.2,92.74L318.65,92.77z"/>
		<path id="C20067" title="Grant" class="land" d="M157.81,475.72L157.82,547.55L104.19,547.33L104.11,547.51L86.27,547.42L86.07,475.72z"/>
		<path id="C20069" title="Gray" class="land" d="M229.5,529.63L229.57,475.73L229.65,456.63L227.45,456.6L227.61,420.64L299.39,420.95L299.31,438.97L299.25,457.01L301.35,457.02L301.09,529.56z"/>
		<path id="C20071" title="Greeley" class="land" d="M1.06,293.08L1.09,281.71L1.09,280.59L1.08,280.53L1.09,278.13L1.08,277.74L1.07,275.86L79.5,275.42L79.44,366.51L1.19,366.67L1.18,365.35L1.18,365.33L1.17,356.28L1.12,341.26L1.2,334.72L1.12,333.91L1.05,326.83L1.06,316.03L1.06,316L1.09,312.19L1.07,308.01L1.08,304.89L1.07,300.11L1.06,293.09z"/>
		<path id="C20075" title="Hamilton" class="land" d="M1.19,366.67L79.44,366.51L80.45,366.51L80.6,366.52L83.56,366.5L83.49,456.86L86.07,456.85L86.07,475.72L1.6,475.26L1.57,470.8L1.49,464.89L1.44,461.83L1.43,457.57L1.4,448.51L1.3,436.46L1.3,436.06L1.16,411.72L1.23,397.72L1.17,395.22L1.23,391.74L1.21,369.24z"/>
		<path id="C20073" title="Greenwood" class="land" d="M999.42,412.83L999.5,439.96L999.57,458.03L999.03,458.02L999.12,476.14L999.1,503.08L906.53,502.41L906.79,430.3L906.94,403.25L933.96,403.36L934.09,385.33L999.45,385.68z"/>
		<path id="C20077" title="Harper" class="land" d="M697.06,627.32L659.06,627.39L658.09,627.39L657.19,627.4L646.26,627.44L640.44,627.43L635.5,627.46L630.47,627.46L628.62,627.5L625.64,627.47L607.84,627.47L607.68,627.47L607.25,548.31L696.28,547.85L696.69,547.85z"/>
		<path id="C20079" title="Harvey" class="land" d="M767.68,385.12L797.72,384.9L798.13,384.83L803.55,384.92L803.58,402.97L803.65,439.24L771.3,439.35L770.94,439.39L713.53,439.3L713.52,439.53L713.54,385.09z"/>
		<path id="C20081" title="Haskell" class="land" d="M229.5,529.63L229.49,547.57L211.05,547.6L210.72,547.67L210.19,547.56L161.38,547.54L157.82,547.55L157.81,475.72L229.57,475.73z"/>
		<path id="C20083" title="Hodgeman" class="land" d="M299.3,366.7L404.76,366.71L407,366.76L407.17,403.04L407.11,439.18L401.35,439.24L401.1,439.22L299.31,438.97L299.39,420.95L299.53,390.33L299.65,389.63L299.53,389.26z"/>
		<path id="C20085" title="Jackson" class="land" d="M986.86,166.83L986.8,92.93L1027.29,92.97L1027.31,77.65L1027.36,77.24L1027.32,74.5L1064.2,74.52L1064.17,92.98L1063.18,92.98L1063.18,124.06L1060.07,124.05L1060.04,166.92z"/>
		<path id="C20087" title="Jefferson" class="land" d="M1109.92,205.65L1107.86,203.52L1100.84,205.75L1097.84,204.95L1087.93,198.28L1081.83,198.06L1074.68,200.5L1073.06,198.54L1066.72,198.05L1061.21,201.06L1058.84,198.81L1059.18,185.21L1060.07,185.24L1060.04,166.92L1060.07,124.05L1063.18,124.06L1127.06,124.02L1127.22,127.08L1127.19,185.3L1125.9,185.29L1126.04,203.14L1111.67,203.14z"/>
		<path id="C20089" title="Jewell" class="land" d="M581.88,0.18L584.16,0.18L619.68,0.14L619.68,0.14L620.63,0.14L623.62,0.18L632.89,0.12L635.21,0.15L636.37,0.15L641.33,0.15L648.28,0.2L652.16,0.18L653.36,0.17L656.42,0.19L656.84,0.21L662.26,0.2L662.96,0.22L669.19,0.22L675.81,0.24L675.87,74.33L675.81,92.75L585.55,92.63L584.68,92.63L582.02,92.63L581.75,92.61z"/>
		<path id="C20091" title="Johnson" class="land" d="M1221.03,244.5L1221.1,248.62L1221.03,252.08L1220.87,262.65L1220.81,266.46L1220.8,266.82L1220.79,267.37L1147.48,267.27L1147.51,252L1147.51,216.17L1152.17,216.86L1153.27,212.42L1165.22,215.73L1167.96,212.11L1171.7,214.22L1177.27,200.21L1182.35,199.54L1189,203.26L1221.12,203.15L1220.98,216.24L1221.01,224.6L1221.01,225.02L1221.06,225.57L1221.04,225.68L1221.03,236.82L1221.03,239.88L1221.03,240.12L1221.04,240.29L1221.03,241.56L1221.03,242.86z"/>
		<path id="C20093" title="Kearny" class="land" d="M83.56,366.5L104.4,366.49L104.46,366.56L104.56,366.42L151.95,366.23L155.58,366.22L155.5,456.56L157.78,456.54L157.81,475.72L86.07,475.72L86.07,456.85L83.49,456.86z"/>
		<path id="C20095" title="Kingman" class="land" d="M696.15,476.23L696.33,492.53L696.32,492.82L696.08,494.09L696.19,529.77L696.28,547.85L607.25,548.31L588.36,548.3L588.41,530.42L588.38,476.47z"/>
		<path id="C20097" title="Kiowa" class="land" d="M409.37,531.1L408.8,476.02L498.37,476.41L498.53,530.54L498.71,548.27L411.49,548.91L409.43,548.91z"/>
		<path id="C20099" title="Labette" class="land" d="M1089.88,627.21L1089.86,627.21L1072.82,627.21L1071.04,627.2L1071.2,587.28L1071.43,584.65L1071.76,575.43L1071.25,548.32L1142.27,548.35L1144.44,548.36L1144.4,557.38L1144.68,627.16L1144.68,627.16L1131.28,627.15L1131.25,627.15L1127.65,627.15L1124.7,627.14L1103.82,627.19L1102.92,627.18L1102.88,627.18L1102.4,627.18z"/>
		<path id="C20101" title="Lane" class="land" d="M296.47,366.69L223.73,366.3L224.25,364.85L223.7,275.34L296.01,275.73z"/>
		<path id="C20103" title="Leavenworth" class="land" d="M1193.18,169.57L1193.55,170.18L1173.11,169.7L1173.06,169.89L1172.91,185.35L1171.78,185.36L1171.7,214.22L1167.96,212.11L1165.22,215.73L1153.27,212.42L1152.17,216.86L1147.51,216.17L1142.83,216.12L1144.52,219.9L1142.77,222.1L1140.19,221.62L1138.54,218.86L1133.82,218.85L1129.81,216.28L1128.92,219.46L1126.19,219.87L1126.04,203.14L1125.9,185.29L1127.19,185.3L1127.22,127.08L1127.06,124.02L1161.84,124.05L1162.3,124.43L1164.15,125.16L1164.74,125.61L1165.29,126.27L1165.54,126.89L1165.48,128.15L1165.55,129.01L1165.66,129.39L1166.24,130.31L1166.63,130.63L1167.04,130.93L1167.62,131.14L1169.35,131.37L1169.98,131.22L1170.54,130.97L1171.57,130.44L1172.84,129.61L1173.96,129.45L1174.48,129.5L1174.95,129.69L1175.59,130.24L1176.26,131.49L1176.54,132.36L1176.57,133.22L1176.2,134.35L1175.56,135.08L1174.63,135.69L1173.66,135.88L1173.3,136.03L1172.73,136.46L1171.94,137.23L1171.59,137.76L1171.5,138.12L1171.39,139.01L1171.82,144.22L1172.26,146.69L1172.62,147.89L1173.13,149.17L1173.92,150.44L1175.26,152.07L1176,152.73L1176.69,153.2L1178.46,153.89L1180.18,154.74L1181.94,155.87L1183.33,157.15L1184.38,158.44L1185.03,159.79L1185.33,161.51L1185.26,162.24L1184.98,163.14L1183.82,165.28L1183.79,165.96L1184.04,166.56L1184.34,166.95L1185.64,168.23L1186.15,168.49L1187.63,168.92L1189.6,169.04L1191.62,168.7L1192.19,168.8L1192.57,169.02z"/>
		<path id="C20105" title="Lincoln" class="land" d="M585.09,239.55L585.28,184.5L584.25,184.49L584.23,166.14L676.15,166.25L676.11,183.83L676.05,184.61L676.37,184.63L676.35,221.16L676.34,239.49z"/>
		<path id="C20107" title="Linn" class="land" d="M1220.04,408.71L1220.05,413.48L1143.96,413.34L1144.36,367.43L1146.06,367.45L1145.94,340.11L1220.17,340.36L1220.16,344.34L1220.17,345.43L1220.22,351.39L1220.25,353.77L1220.25,354.65L1220.27,355.75L1220.27,358.32L1220.24,360.63L1220.24,360.94L1220.27,365L1220.28,371.79L1220.28,374.03L1220.27,375.64L1220.27,375.98L1220.25,378.83L1220.24,379.5L1220.2,381.61L1220.15,386.31L1220.09,387.83L1220.08,390.08L1220.04,407.19L1220.04,407.49L1220.04,408.7z"/>
		<path id="C20109" title="Logan" class="land" d="M93.07,275.31L94.08,184.06L108.27,183.98L203.38,184.35L202.26,275.38L193.55,275.4L192.98,275.48L151.46,275.22L139.41,275.14L137.95,275.02z"/>
		<path id="C20111" title="Lyon" class="land" d="M934.86,267.18L935.47,267.19L1001.57,267.16L1001.61,276.32L1000.96,276.31L1000.85,330.9L1000.9,367.23L999.51,367.23L999.45,385.68L934.09,385.33L934.67,312.63z"/>
		<path id="C20113" title="McPherson" class="land" d="M767.68,385.12L713.54,385.09L677.4,385.11L677.36,367.1L677.35,367.07L676.9,367.06L677.05,312.4L676.96,294.2L685.08,294.15L685.29,294.26L767.66,294.31L767.64,340.86L767.63,341.14L767.65,341.29z"/>
		<path id="C20115" title="Marion" class="land" d="M840.1,294.31L840.15,312.47L858.24,312.46L858.28,348.74L855.29,348.72L855.28,361.43L854.76,366.9L854.78,403.4L824.02,403.24L823.8,403.25L823.55,403.24L803.58,402.97L803.55,384.92L798.13,384.83L797.72,384.9L767.68,385.12L767.65,341.29L767.63,341.14L767.64,340.86L767.66,294.31L768.94,294.35z"/>
		<path id="C20117" title="Marshall" class="land" d="M860.53,0.38L890.6,0.43L892.58,0.49L893.48,0.48L897.42,0.47L899.06,0.44L901.19,0.47L904.29,0.49L906.23,0.45L915.61,0.47L916.01,0.45L916.63,0.47L916.65,0.47L942.74,0.54L943.31,0.54L953.46,0.53L953.4,37.5L953.42,81.41L953.38,81.7L953.42,81.94L953.5,92.9L911.06,92.92L910.85,92.95L897.27,92.88L860.4,92.86z"/>
		<path id="C20119" title="Meade" class="land" d="M317.58,626.6L305.79,626.63L305,626.64L304.78,626.62L303.48,626.63L246.08,626.93L245.9,626.9L239.56,626.98L239.55,626.97L233.25,627.05L232.67,627.07L232.59,547.58L229.49,547.57L229.5,529.63L301.09,529.56L318.97,529.64L318.95,547.68L321.54,547.73L321.88,626.63z"/>
		<path id="C20121" title="Miami" class="land" d="M1220.79,267.37L1220.45,288.87L1220.47,291.04L1220.4,291.98L1220.4,294.33L1220.4,300.42L1220.4,300.42L1220.35,301.17L1220.35,306.75L1220.34,307.15L1220.27,318.9L1220.26,320.42L1220.27,320.67L1220.24,321.83L1220.24,321.83L1220.16,337.3L1220.17,339.59L1220.17,340.36L1145.94,340.11L1145.95,276.41L1147.44,276.41L1147.48,267.27z"/>
		<path id="C20123" title="Mitchell" class="land" d="M584.68,92.63L585.55,92.63L675.81,92.75L676.36,92.75L676.26,147.86L675.85,154.05L676.15,166.25L584.23,166.14z"/>
		<path id="C20125" title="Montgomery" class="land" d="M1027.68,627.2L1024.2,627.23L1014.53,627.21L1013.38,627.2L1013.16,627.2L1012.85,627.2L1007.43,627.19L1004.49,627.21L1003.04,627.2L998.56,627.24L998.54,565.74L998.5,547.77L999,547.78L1070.52,548.32L1071.25,548.32L1071.76,575.43L1071.43,584.65L1071.2,587.28L1071.04,627.2L1069.07,627.19L1062.64,627.2L1056.32,627.19L1055.7,627.18L1054.32,627.19L1053.38,627.19L1047.77,627.19L1044.13,627.19L1042.46,627.22L1040.21,627.18L1039.47,627.2L1038.95,627.21L1035.04,627.21L1032.08,627.2L1030.64,627.22z"/>
		<path id="C20127" title="Morris" class="land" d="M910.43,239.78L910.45,248.91L928.66,248.98L928.77,267.18L934.86,267.18L934.67,312.63L858.55,312.48L858.24,312.46L840.15,312.47L840.1,294.31L839.5,284.69L840.58,276.18L840.6,251.85L846.7,251.83L846.67,239.7z"/>
		<path id="C20129" title="Morton" class="land" d="M3.86,628.46L3.86,628.46L1.56,628.47L1.61,621.99L1.61,620.75L1.61,620.47L1.64,620.02L1.61,619.88L1.6,605.25L1.63,604.14L1.58,601.46L1.58,601.46L1.6,598.04L1.6,574.17L1.65,566.06L1.63,563.63L1.6,554.77L1.58,554.73L1.68,550.17L1.67,547.25L79.88,547.42L79.99,547.38L81.22,547.4L81.44,627.99L74.04,628.05L73.84,628.06L24.49,628.34L8.41,628.44L8.41,628.43z"/>
		<path id="C20131" title="Nemaha" class="land" d="M953.47,0.53L955.98,0.52L956.58,0.52L967.38,0.57L967.4,0.58L968.56,0.57L972.04,0.58L972.07,0.57L977.97,0.56L979.35,0.55L984.22,0.52L988.75,0.52L990.95,0.54L990.95,0.54L999.57,0.56L1011.97,0.57L1027.46,0.58L1027.42,25.5L1027.32,74.5L1027.36,77.24L1027.31,77.65L1027.29,92.97L986.8,92.93L986.54,92.91L953.5,92.9L953.42,81.94L953.38,81.7L953.42,81.41L953.4,37.5L953.46,0.53z"/>
		<path id="C20133" title="Neosho" class="land" d="M1070.52,548.32L1070.53,476.46L1136.23,476.22L1137.75,476.53L1142.29,476.52L1142.3,488.48L1142.27,548.35L1071.25,548.32z"/>
		<path id="C20135" title="Ness" class="land" d="M404.76,366.71L299.3,366.7L296.47,366.69L296.01,275.73L311.33,275.9L402.45,276.08L404.62,276.07L404.67,348.56z"/>
		<path id="C20137" title="Norton" class="land" d="M397.54,0.28L397.91,0.28L398.02,0.28L397.59,92.64L318.65,92.77L318.2,92.74L318.04,92.7L310.04,92.68L306.97,92.76L307.39,0.33L338.05,0.35L338.75,0.34L345.06,0.29L345.68,0.34L347.97,0.35L351.87,0.35L367.17,0.38L373.36,0.32L373.94,0.29L375.24,0.34L376.45,0.39L378.12,0.29L380.53,0.28L382.55,0.29L397.52,0.28z"/>
		<path id="C20139" title="Osage" class="land" d="M1000.85,330.9L1000.96,276.31L1001.61,276.32L1001.57,267.16L1001.46,239.72L1074.6,239.76L1074.55,267.03L1074.6,267.22L1074.52,276.34L1073.4,276.34L1073.36,330.94z"/>
		<path id="C20141" title="Osborne" class="land" d="M493.31,92.52L550.95,92.6L551.1,92.63L551.8,92.6L581.75,92.61L582.02,92.63L584.68,92.63L584.23,166.14L584.25,184.49L576.5,184.39L576.32,184.46L576.01,184.38L494.44,184.4L492.77,184.43z"/>
		<path id="C20143" title="Ottawa" class="land" d="M767.78,184.65L767.71,221.27L676.35,221.16L676.37,184.63L676.05,184.61L676.11,183.83L676.15,166.25L675.85,154.05L676.26,147.86L676.75,147.84L768,147.95z"/>
		<path id="C20145" title="Pawnee" class="land" d="M404.76,366.71L404.67,348.56L495.28,348.78L495.29,366.91L514.93,366.94L514.84,421.07L496.96,421.11L443.13,421.01L443.12,402.99L407.17,403.04L407,366.76z"/>
		<path id="C20147" title="Phillips" class="land" d="M398.02,0.28L418.28,0.24L418.74,0.26L418.96,0.27L419.65,0.26L421.74,0.26L431.11,0.19L432.91,0.28L434.42,0.25L452.91,0.26L453.57,0.24L454.18,0.27L458.93,0.23L459.52,0.26L465.1,0.24L468.18,0.24L469.61,0.24L469.93,0.25L471.21,0.25L471.24,0.25L472.74,0.26L480.41,0.21L481.97,0.21L486.55,0.22L489.6,0.21L489.73,92.5L481.11,92.52L480.9,92.66L480.48,92.53L401.8,92.67L397.59,92.64z"/>
		<path id="C20149" title="Pottawatomie" class="land" d="M986.29,185.79L985.49,182.71L983.35,182.66L977.76,179.86L983.35,178.93L978.99,171.68L974.58,170.14L972.01,173.02L967.63,171.88L963.38,172.43L963.36,169.64L960.42,168.92L956.65,170.15L954.37,167.72L950.95,172.16L947.82,174.65L944.44,171.27L941.63,171.18L939.43,173.25L938.34,178.98L935.34,180L934.25,176.73L931.54,177.86L928.91,176.06L923.22,173.25L917.32,173.75L916.95,175.95L914.55,176.92L912.09,176.26L907.8,174.78L903.81,173.82L901.12,173.59L901.01,172.16L902.84,170.8L904.24,170.81L904.37,167.18L901.72,164.15L899.19,162.35L898.77,160.88L898.62,159.15L898.07,159.94L896.3,159.87L894.88,157.02L888.44,151.7L885.41,146.36L884.6,143.97L883.44,140.16L880.17,135.46L874.29,128.41L874.85,118.04L880.94,111.72L885.86,105.88L888.88,100.1L895.97,95.5L897.27,92.88L910.85,92.95L911.06,92.92L953.5,92.9L986.54,92.91L986.8,92.93L986.86,166.83L986.81,185.11z"/>
		<path id="C20151" title="Pratt" class="land" d="M588.41,530.42L498.53,530.54L498.37,476.41L498.41,457.32L587.16,457.5L588.37,457.5L588.38,476.47z"/>
		<path id="C20153" title="Rawlins" class="land" d="M105.1,0.17L105.28,0.17L111.12,0.14L116.28,0.12L119.13,0.1L119.37,0.1L124.3,0.13L125.52,0.13L131.73,0.13L137.25,0.13L140.99,0.14L143.19,0.15L144.85,0.13L151.05,0.16L162.63,0.18L167.98,0.19L182.79,0.22L212.08,0.18L213.17,0.22L215.36,0.2L215.03,92.51L193.66,92.5L192.96,92.54L108.7,92.45L104.63,92.45z"/>
		<path id="C20155" title="Reno" class="land" d="M677.4,385.11L713.54,385.09L713.52,439.53L713.5,457.36L713.89,457.36L714.05,475.98L696.15,476.23L588.38,476.47L588.37,457.5L587.16,457.5L587.07,385.31L629.19,385.15L629.21,388.22L641.31,388.05L641.29,385.06z"/>
		<path id="C20157" title="Republic" class="land" d="M693.91,0.25L694.25,0.26L701.18,0.21L702.23,0.25L702.49,0.25L702.73,0.25L744.14,0.27L744.78,0.27L744.96,0.28L752.67,0.24L755.72,0.26L758.88,0.24L760.13,0.24L760.45,0.25L768.1,0.23L768.19,74.28L675.87,74.33L675.81,0.24L675.81,0.24L684.93,0.23L688.01,0.23L691.14,0.27L693.89,0.25z"/>
		<path id="C20159" title="Rice" class="land" d="M585.83,312.59L638.94,312.53L639.28,312.59L639.85,312.52L677.05,312.4L676.9,367.06L677.35,367.07L677.36,367.1L677.4,385.11L641.29,385.06L641.31,388.05L629.21,388.22L629.19,385.15L587.07,385.31L587.13,367.01L585.92,367z"/>
		<path id="C20161" title="Riley" class="land" d="M845.65,166.23L835,166.08L835.41,92.86L860.4,92.86L897.27,92.88L895.97,95.5L888.88,100.1L885.86,105.88L880.94,111.72L874.85,118.04L874.29,128.41L880.17,135.46L883.44,140.16L884.6,143.97L885.41,146.36L888.44,151.7L894.88,157.02L896.3,159.87L898.07,159.94L898.62,159.15L898.77,160.88L899.19,162.35L901.72,164.15L904.37,167.18L904.24,170.81L902.84,170.8L901.01,172.16L901.12,173.59L903.81,173.82L907.8,174.78L912.09,176.26L914.55,176.92L916.95,175.95L917.32,173.75L923.22,173.25L928.91,176.06L928.59,203.32L910.49,203.23L910.49,197.11L876.89,197.03L876.88,193.22L873.25,193.83L871.93,195.66L868.72,193.9L853.09,193.82L853.11,191.1L856.39,183.12L853.32,183.11L853.29,166.3z"/>
		<path id="C20163" title="Rooks" class="land" d="M489.73,92.5L493.31,92.52L492.77,184.43L403.52,184.57L403.21,184.55L401.32,184.54L401.8,92.67L480.48,92.53L480.9,92.66L481.11,92.52z"/>
		<path id="C20165" title="Rush" class="land" d="M495.28,348.78L404.67,348.56L404.62,276.07L493.6,276.02L495.19,276.03z"/>
		<path id="C20167" title="Russell" class="land" d="M494.44,184.4L576.01,184.38L576.32,184.46L576.5,184.39L584.25,184.49L585.28,184.5L585.09,239.55L584.89,276L495.19,276.03L493.6,276.02z"/>
		<path id="C20169" title="Saline" class="land" d="M767.66,294.31L685.29,294.26L685.08,294.15L676.96,294.2L676.91,275.98L676.36,275.98L676.34,239.49L676.35,221.16L767.71,221.27L767.66,227.35L766.13,227.35L767.63,230.43z"/>
		<path id="C20171" title="Scott" class="land" d="M151.95,366.23L151.46,275.22L192.98,275.48L193.55,275.4L202.26,275.38L223.7,275.34L224.25,364.85L223.73,366.3L155.58,366.22z"/>
		<path id="C20173" title="Sedgwick" class="land" d="M803.65,439.24L803.51,529.49L696.19,529.77L696.08,494.09L696.32,492.82L696.33,492.53L696.15,476.23L714.05,475.98L713.89,457.36L713.5,457.36L713.52,439.53L713.53,439.3L770.94,439.39L771.3,439.35z"/>
		<path id="C20175" title="Seward" class="land" d="M232.67,627.07L225.74,627.12L216.07,627.25L212.4,627.19L210.99,627.22L204.33,627.24L202.99,627.24L196.2,627.34L190.29,627.34L188.23,627.31L188.17,627.35L181.47,627.43L181.45,627.43L173.1,627.46L170.45,627.43L163.73,627.47L161.58,627.48L161.38,547.54L210.19,547.56L210.72,547.67L211.05,547.6L229.49,547.57L232.59,547.58L232.67,627.07z"/>
		<path id="C20177" title="Shawnee" class="land" d="M1001.46,239.72L1001.43,191.66L991.14,187.86L989.91,187.1L986.29,185.79L986.81,185.11L986.86,166.83L1060.04,166.92L1060.07,185.24L1059.18,185.21L1058.84,198.81L1061.21,201.06L1066.72,198.05L1073.06,198.54L1074.68,200.5L1074.6,239.76z"/>
		<path id="C20179" title="Sheridan" class="land" d="M218.42,92.52L306.97,92.76L310.04,92.68L309.62,184.63L242.74,184.45L242.48,184.39L218.24,184.35z"/>
		<path id="C20181" title="Sherman" class="land" d="M94.08,184.06L0.75,184.4L0.74,183.58L0.54,148.55L0.46,133.64L0.42,127.33L0.39,124.24L0.39,123.15L0.34,105.62L0.34,99.16L0.36,98.68L0.32,92.49L42.76,92.43L42.98,92.34L43.17,92.42L104.63,92.45L108.7,92.45L108.35,145.88L108.31,146.12L108.35,146.5L108.27,183.98z"/>
		<path id="C20183" title="Smith" class="land" d="M489.6,0.21L497.26,0.19L497.53,0.18L501.88,0.21L505.14,0.2L505.23,0.19L506.99,0.18L507,0.19L511.29,0.2L527.75,0.17L530.02,0.18L537.14,0.17L537.51,0.18L545.48,0.2L545.49,0.2L548.1,0.21L550.94,0.17L551.21,0.14L551.4,0.13L554.26,0.17L554.77,0.16L557.38,0.19L557.6,0.2L559.53,0.14L563.95,0.16L567.3,0.15L570.27,0.15L572.67,0.19L575.53,0.19L578.83,0.18L581.88,0.18L581.75,92.61L551.8,92.6L551.1,92.63L550.95,92.6L493.31,92.52L489.73,92.5z"/>
		<path id="C20185" title="Stafford" class="land" d="M514.93,366.94L585.92,367L587.13,367.01L587.07,385.31L587.16,457.5L498.41,457.32L496.88,457.32L496.96,421.11L514.84,421.07z"/>
		<path id="C20187" title="Stanton" class="land" d="M81.22,547.4L79.99,547.38L79.88,547.42L1.67,547.25L1.65,543L1.65,537.89L1.64,537.86L1.63,530.74L1.63,523.21L1.6,517.19L1.61,515.97L1.62,512.51L1.66,502.23L1.67,494.72L1.67,492.61L1.65,490.31L1.67,487.26L1.62,478.29L1.6,475.26L86.07,475.72L86.27,547.42z"/>
		<path id="C20189" title="Stevens" class="land" d="M161.38,547.54L161.58,627.48L137.83,627.64L137.6,627.66L113.83,627.82L113.52,627.83L110.49,627.84L104.63,627.87L104.45,627.88L92.91,627.95L87.38,627.97L81.44,627.99L81.44,627.99L81.22,547.4L86.27,547.42L104.11,547.51L104.19,547.33L157.82,547.55z"/>
		<path id="C20191" title="Sumner" class="land" d="M804.43,627.24L767.57,627.29L765.52,627.29L752.83,627.32L752.82,627.32L751.1,627.32L742.17,627.31L739.12,627.32L739.02,627.31L736.06,627.32L729.17,627.32L724.15,627.24L721.96,627.26L714.31,627.29L702.57,627.31L700.15,627.27L700.14,627.29L697.06,627.32L697.06,627.32L696.69,547.85L696.28,547.85L696.19,529.77L803.51,529.49z"/>
		<path id="C20193" title="Thomas" class="land" d="M108.27,183.98L108.35,146.5L108.31,146.12L108.35,145.88L108.7,92.45L192.96,92.54L193.66,92.5L215.03,92.51L218.42,92.52L218.24,184.35L203.38,184.35z"/>
		<path id="C20195" title="Trego" class="land" d="M312.29,184.6L401.32,184.54L403.21,184.55L403.52,184.57L402.45,276.08L311.33,275.9z"/>
		<path id="C20197" title="Wabaunsee" class="land" d="M910.49,203.23L928.59,203.32L928.91,176.06L931.54,177.86L934.25,176.73L935.34,180L938.34,178.98L939.43,173.25L941.63,171.18L944.44,171.27L947.82,174.65L950.95,172.16L954.37,167.72L956.65,170.15L960.42,168.92L963.36,169.64L963.38,172.43L967.63,171.88L972.01,173.02L974.58,170.14L978.99,171.68L983.35,178.93L977.76,179.86L983.35,182.66L985.49,182.71L986.29,185.79L989.91,187.1L991.14,187.86L1001.43,191.66L1001.46,239.72L1001.57,267.16L935.47,267.19L934.86,267.18L928.77,267.18L928.66,248.98L910.45,248.91L910.43,239.78z"/>
		<path id="C20199" title="Wallace" class="land" d="M94.08,184.06L93.07,275.31L79.5,275.42L1.07,275.86L1.04,263.97L1.06,263.72L1.05,260.67L1.03,257.87L1.05,254.51L1.04,251.59L0.85,202.52L0.76,185.12L0.75,184.4z"/>
		<path id="C20201" title="Washington" class="land" d="M842.38,0.35L842.43,0.35L848.27,0.37L848.63,0.36L849.16,0.37L849.36,0.37L860.53,0.38L860.4,92.86L835.41,92.86L768.21,92.73L768.19,74.28L768.1,0.23L768.1,0.23L768.12,0.23L771.1,0.26L771.21,0.25L788.45,0.35L788.46,0.36L795.48,0.37L795.83,0.34L798.85,0.34L805.3,0.36L806.05,0.29L820.52,0.39L823.61,0.39L827.16,0.36z"/>
		<path id="C20203" title="Wichita" class="land" d="M79.5,275.42L93.07,275.31L137.95,275.02L139.41,275.14L151.46,275.22L151.95,366.23L104.56,366.42L104.46,366.56L104.4,366.49L83.56,366.5L80.6,366.52L80.45,366.51L79.44,366.51z"/>
		<path id="C20205" title="Wilson" class="land" d="M1070.52,548.32L999,547.78L999.1,503.08L999.12,476.14L1070.53,476.46z"/>
		<path id="C20207" title="Woodson" class="land" d="M999.5,439.96L999.42,412.83L1067.05,413.29L1067.15,413.28L1071.61,413.23L1071.55,458.37L1070.64,458.37L1070.53,476.46L999.12,476.14L999.03,458.02L999.57,458.03z"/>
		<path id="C20209" title="Wyandotte" class="land" d="M1193.55,170.18L1193.55,170.18L1194.41,172.42L1195.59,174.55L1197.36,175.96L1199.07,176.59L1199.95,176.8L1202.07,176.85L1203.63,176.55L1206.55,174.83L1208.04,173.79L1209.17,173.62L1211.01,174.11L1211.88,174.72L1212.46,177.05L1212.11,179.25L1214.03,179.98L1215.78,180.2L1218.42,179.46L1219.75,178.74L1220.9,178.64L1222.06,178.83L1223,179.23L1223.67,179.79L1224,182.87L1223.57,183.82L1222.28,185.38L1221.41,186.7L1221.2,187.29L1221.14,188.55L1221.16,193.57L1221.15,195.23L1221.16,198.6L1221.12,203.15L1189,203.26L1182.35,199.54L1177.27,200.21L1171.7,214.22L1171.78,185.36L1172.91,185.35L1173.06,169.89L1173.11,169.7z"/>
	</g>
</svg>