<?xml version="1.0" encoding="utf-8"?>
<!-- (c) ammap.com | SVG map of LA Counties -->
<svg xmlns="http://www.w3.org/2000/svg" xmlns:amcharts="http://amcharts.com/ammap" xmlns:xlink="http://www.w3.org/1999/xlink" version="1.1">
	<defs>
		<style type="text/css">
			.land
			{
				fill: #CCCCCC;
				fill-opacity: 1;
				stroke:white;
				stroke-opacity: 1;
				stroke-width:0.5;
			}
		</style>

		<amcharts:ammap projection="mercator" leftLongitude="-94.043336" topLatitude="33.019377" rightLongitude="-88.816674" bottomLatitude="28.924679"></amcharts:ammap>

		<!-- All areas are listed in the line below. You can use this list in your script. -->
		<!--{id:"C22001"},{id:"C22003"},{id:"C22005"},{id:"C22007"},{id:"C22009"},{id:"C22011"},{id:"C22013"},{id:"C22015"},{id:"C22017"},{id:"C22019"},{id:"C22021"},{id:"C22023"},{id:"C22025"},{id:"C22027"},{id:"C22029"},{id:"C22031"},{id:"C22033"},{id:"C22035"},{id:"C22037"},{id:"C22039"},{id:"C22041"},{id:"C22043"},{id:"C22045"},{id:"C22047"},{id:"C22049"},{id:"C22051"},{id:"C22053"},{id:"C22055"},{id:"C22057"},{id:"C22059"},{id:"C22061"},{id:"C22063"},{id:"C22065"},{id:"C22067"},{id:"C22069"},{id:"C22071"},{id:"C22073"},{id:"C22075"},{id:"C22077"},{id:"C22079"},{id:"C22081"},{id:"C22083"},{id:"C22085"},{id:"C22087"},{id:"C22089"},{id:"C22091"},{id:"C22093"},{id:"C22095"},{id:"C22097"},{id:"C22099"},{id:"C22101"},{id:"C22103"},{id:"C22105"},{id:"C22107"},{id:"C22109"},{id:"C22111"},{id:"C22113"},{id:"C22115"},{id:"C22117"},{id:"C22119"},{id:"C22121"},{id:"C22123"},{id:"C22125"},{id:"C22127"}-->

	</defs>
	<g>
		<path id="C22001" title="Acadia" class="land" d="M292.98,559.09L289.77,562.62L286.42,563.68L285.04,567.89L277.74,574.58L269.91,577.89L259.66,574.93L247.59,565.12L242.68,568.93L236.2,569.65L237.39,567.38L235.67,561.71L239.12,556.95L237.33,553.85L241.92,552.39L243.26,548.82L237.99,546.13L236.01,543.2L235.85,529.94L235.09,527.07L237.2,522.13L235.51,514.57L239.73,512.51L241.35,506.7L235.12,495L235.6,495.11L258.23,495.13L299.63,495.19L299.72,503.56L311.02,503.52L311.13,520.3L313.99,520.27L314.01,525.83L316.84,525.83L316.72,530.04L316.75,532.79L313.84,532.79L313.9,535.61L311.04,535.59L311.05,541.13L305.39,541.08L305.44,543.95L299.11,546.89L299.37,551.8L294.54,559.34z"/>
		<path id="C22003" title="Allen" class="land" d="M240.88,475.22L243.32,478.67L235.39,493.71L220.06,493.64L211.46,493.63L211.17,503.38L162.88,503.19L162.88,505.93L151.95,506.07L152.04,473.23L152.09,472.53L177.27,472.45L177.65,438.57L177.39,418.47L203.2,418.97L203.14,416.18L220.29,415.82L220.59,414.5L240.82,415.01z"/>
		<path id="C22005" title="Ascension" class="land" d="M489.37,575.37L489.29,566.63L492.08,566.58L492.01,557.89L494.79,556.54L497.15,546.49L503.82,526.27L503.53,525.69L505.85,522.53L511.4,520.81L517.19,522.07L525.07,521.13L526.64,521.38L527.94,521.28L529.02,521.66L530,521.82L530.65,522.55L531.58,523.41L533.1,524.36L533.71,525.57L535.52,526.75L536.09,529.22L537.12,531.41L538.08,533.23L540.2,533.87L541.53,533.57L542.8,533.96L542.62,535.21L541.81,536.65L542.53,538.11L543.56,538.61L544.59,539.45L544.91,540.47L545.55,540.98L546.33,541.45L547.12,541.34L547.87,541.17L548.87,541.26L549.55,542.12L550.05,542.75L551.09,544.28L551.69,545.45L552.1,546.66L553.15,547.69L553.71,549.25L553.98,551.02L555.67,551.92L556.66,552.39L556.98,553.02L557.83,553.66L558.9,553.32L560.25,550.85L561.29,548.99L562.51,546.12L563.13,545.17L564.68,543.66L568.21,544.9L568.19,545.18L566.67,555.45L521.1,565.69L521.25,566.49L517.76,570.92L513.08,574.61L509.64,574.89L506.07,572.18L497.68,573.86L494.6,571.7L492.18,575.36z"/>
		<path id="C22007" title="Assumption" class="land" d="M526.09,605.44L526.16,610.77L522.07,610.84L519.55,619.96L515.77,627.05L510.08,636.14L505.9,641.85L493.26,658.72L489.55,655.64L490.36,644.79L489.27,638.28L491.14,637.6L492.12,634.01L490.32,630.74L491.57,625.28L488.52,620.5L484.85,618.45L482,618.54L476.57,616.75L473.93,614.17L471.36,605.02L468.37,602.99L468.44,599.65L465.76,596.68L464.5,592.79L463.81,587.29L467.72,587.12L469.65,582.48L489.37,575.37L492.18,575.36L494.6,571.7L497.68,573.86L506.07,572.18L509.64,574.89L513.08,574.61L513.71,591.56L519.34,591.5L519.38,599.78L525.99,599.65z"/>
		<path id="C22009" title="Avoyelles" class="land" d="M386.43,386.36L382.05,391.28L378.04,394.41L376.71,397.66L372.74,400.23L373.71,409.5L373.02,421.26L371.19,424.28L304.97,424.18L300.81,424.26L300.72,415.76L293.64,407.3L293.64,401.68L305.71,402.19L304.36,396.62L301.38,369.48L302.93,367.51L301.47,365.6L301.56,334.76L303.48,330.62L310.36,331.29L310.97,334.63L313.51,336.81L324.45,332.09L325.97,329.94L326.86,332.12L334.21,328.48L339.06,331.8L339.61,335.94L338.48,337.29L337.94,338.93L338.43,340.79L339.66,341.54L340.71,342.31L341.17,343.25L339.78,343.6L340.46,345.28L340.75,347.42L341.3,348.44L341.6,349.69L346.4,349.14L349.35,350.5L351.18,350.94L350.84,347.94L350.65,346.1L364.15,343.29L368.03,343.33L371.37,346.31L371.9,349.01L377.47,351.92L380.66,351.88L384,355.42L386.76,356.28L389.04,354.47L391.9,355.83L394.18,358.51L392.52,363.57L389.95,363.6L387.53,367.92L387.29,371.16L389.77,374.88L387.69,376.86L388.68,379.76z"/>
		<path id="C22011" title="Beauregard" class="land" d="M50.47,510.17L53.45,506.62L56.73,504.85L57.54,502.8L57.53,502.18L56.2,499.5L54.39,492.53L55.49,490.14L54.79,487.8L52.55,486.44L51.71,485.61L50.47,483.76L52.31,482.75L52.87,480.41L52.55,478.58L52.53,477.12L55.1,474.34L58.36,473.21L58.92,473.52L59.29,473.74L59.78,473.55L60.3,472.88L60.53,472.17L60.37,471.55L59.94,470.58L59.65,467.27L59.99,464.27L62.11,460.94L64.67,458.6L67.47,458.05L68.85,456.72L70.32,453.79L70.37,452.06L71.14,450.16L71.97,449.37L72.24,448.39L72.21,447.23L70.89,445.43L70.65,444.75L72.54,441.73L75.03,440.51L75.52,437.86L75.6,436.13L76.46,434.21L77.43,433.17L78.95,432.99L79.96,432.36L80.22,432.07L81.49,428.75L81.56,426.78L80.8,425.85L80.73,420.28L81.4,418.61L86.69,418.2L94.09,422.1L103.18,417.39L103.64,417.51L151.53,417.63L151.52,418.48L177.39,418.47L177.65,438.57L177.27,472.45L152.09,472.53L152.04,473.23L151.95,506.07L151.96,510.02L109.63,510.1L109.71,493.28L92.76,493.2L92.81,510.13z"/>
		<path id="C22013" title="Bienville" class="land" d="M193.66,85.66L193.92,111.45L210.92,111.58L211.59,154.26L209.21,158.38L206.96,159.21L207.32,164.97L204.27,168.82L203.43,168.64L204.67,171.71L183.95,171.51L142.62,171.42L141.83,165.55L137.89,159.85L138.29,154.31L102.46,154.28L105.13,152.09L105.91,149.72L105.62,147.23L104.6,144.56L103.37,141.62L102.9,140.77L103.46,138.98L104.12,137.6L107.15,129.08L109.05,122.78L111.69,120.09L134.37,120.1L134.37,111.43L149.3,111.21L149.4,108.33L145.65,98.39L145.78,92.65L144.02,85.73z"/>
		<path id="C22015" title="Bossier" class="land" d="M95.29,154.03L95.15,151.8L89.29,147.29L85.07,142.93L81.72,137.67L77.9,134.47L71.89,129.29L66.27,123.88L60.85,118.68L57.24,105.74L49.82,98.35L50.49,92.12L48.23,82.03L42.98,64.06L42.8,45.18L41.07,33.29L38.82,19.82L36.68,5.1L38.09,0.02L39.69,0.02L53.3,0L85.25,0.16L86.34,0.16L87,0.17L87.78,3.35L85.43,8.71L87.24,10.75L89.01,16.54L91.62,19.36L93.69,18.23L95.61,20.23L93.62,25.36L99.15,30.26L98.03,33.29L95.91,33.86L98.16,39.08L94.79,45.79L96.33,48.93L95.54,50.96L99.7,51.01L99.41,102.83L100.29,102.86L100.29,120.03L111.69,120.09L109.05,122.78L107.15,129.08L104.12,137.6L103.46,138.98L102.9,140.77L103.37,141.62L104.6,144.56L105.62,147.23L105.91,149.72L105.13,152.09L102.46,154.28z"/>
		<path id="C22017" title="Caddo" class="land" d="M0.04,27.34L0.05,25.04L0.04,23.82L0.01,21.63L0.01,16.12L0.01,12.63L0.03,0.05L0.28,0.05L1.22,0.06L2.53,0.06L3.11,0.05L38.09,0.02L36.68,5.1L38.82,19.82L41.07,33.29L42.8,45.18L42.98,64.06L48.23,82.03L50.49,92.12L49.82,98.35L57.24,105.74L60.85,118.68L66.27,123.88L71.89,129.29L77.9,134.47L81.72,137.67L85.07,142.93L89.29,147.29L95.15,151.8L95.29,154.03L71.39,153.96L71.47,148.55L69.83,144.94L62.76,138.29L54.48,138.44L50.86,136.57L49.42,133.63L46.38,132.75L41.23,134.35L39.22,139.05L32.56,143.2L31.08,145.42L30.46,150.79L24.31,156.07L15.34,162.19L0.09,162.1L0.08,157.76L0.07,147.67L0.07,147.65L0.07,129.23L0.06,127.32L0.04,123.6L0.04,122.1L0.04,121.95L0.03,115.11L0.04,114.24L0.04,108.25L0.05,108.06L0.04,107.76L0.03,106.75L0.03,106.31L0.01,105.52L0.01,105.07L0.04,103.84L0.04,101.42L0.01,99.75L0,90.73L0.01,89.79L0.04,80.76L0.04,79.16L0.04,78.42L0.05,74.82L0.06,74.2L0.04,71.9L0,64.44L0,64.44L0.03,49.66L0.02,47.91L0.03,47.18L0.05,46.25L0.07,45.92L0.02,43.85L0.06,29.24L0.02,27.47L0.04,27.37z"/>
		<path id="C22019" title="Calcasieu" class="land" d="M53.38,577.54L53.71,577.18L56.52,576.94L57.04,576.56L57.27,575.99L57.08,575.14L56.81,574.79L54.44,574.1L51.91,571.77L51.49,570.84L51.76,570.3L53.21,569.3L56.77,565.74L56.96,561.02L57.46,560.78L58.01,561.44L58.36,561.43L59.14,560.25L57.55,558.03L56.54,554.01L55.43,552.72L54.27,550.27L53.68,547.12L53.97,545.45L54.95,544.16L56.33,540.81L56.25,540.53L55.96,539.43L55.65,535.23L55.97,534.52L56.07,533.43L55.73,532.06L55.32,531.47L54.79,530.92L54.06,530.78L53.14,530.75L50.72,529.09L47.12,524.07L46.46,524.01L46.21,523.42L47.78,519.03L47.86,516.24L47.42,513.09L47.57,512.45L48.6,511.32L49.62,511.18L50.47,510.17L92.81,510.13L92.76,493.2L109.71,493.28L109.63,510.1L151.96,510.02L151.96,514.45L168.64,514.57L168.69,537.38L174.34,537.36L174.42,557.26L191.57,557.39L192.28,559.86L189.32,562.28L189.15,565.74L192.59,571.35L174.44,571.56L174.41,579.96L159.22,580.19L152.41,579.99L152.4,577.26L53.73,577.34z"/>
		<path id="C22021" title="Caldwell" class="land" d="M334.68,146.21L341.04,149.31L340.85,151.16L340.73,152.82L341.48,155.91L341.91,156.85L342.2,158.97L340.98,160.12L339.17,161.24L342,161.82L343.61,162.49L343.62,163.56L344.41,165.96L346.8,167.31L349.59,166.48L351.08,167.73L354.91,167.7L356.68,167.96L357.63,169.15L357.42,170.21L357.95,170.81L357.75,172.86L359.71,175.48L361.55,176.68L361.58,180.32L360.75,183.27L358.52,183.61L356.58,184.94L354.69,185.19L353.28,187.44L353.78,188.8L356.66,191.98L356.77,195.82L357.39,199.24L358.12,203.59L358.79,206.04L356.29,206.03L356.35,214.62L339.51,214.67L293.63,214.71L293.42,214.68L288.33,214.65L288.39,171.87L288.46,146.13L312.97,146.28L314.98,149.82L322.73,149.84L322.69,146.29z"/>
		<path id="C22023" title="Cameron" class="land" d="M237.49,667.73L231.51,666.02L216.43,660.39L195.25,650.39L183.72,644.47L178.08,642L162.91,636.85L159.11,635.29L144.32,631.21L135.99,629.87L129.24,629.76L124.55,630.34L116.8,632.57L116.32,633.29L115.93,633.4L111.82,632.63L100.66,631.51L94.62,631.45L84.09,632.59L75.37,634.05L67.95,634.59L59.9,635.67L50.18,637.73L46.17,639.04L40.64,641.76L37.35,643.89L34.18,646.46L29.98,640.08L28.84,637.9L28.19,637.46L25.71,636.61L25.24,636.15L24.88,634.55L25.38,632.9L24.87,631.83L24.1,631.01L20.12,628.43L19.43,627.57L19.05,626.13L18.98,625.01L19.19,623.74L20.06,621.98L21.12,620.81L23.73,618.51L25.4,617.33L28.44,615.71L29.92,614.65L31.32,613.33L31.46,613.16L34.12,609.74L35.45,607.54L37.35,603.63L37.75,602.5L38.22,599.75L39.21,596.03L42.27,589.67L42.69,589.13L50.33,583.2L50.55,582.74L50.65,581.08L50.93,580.19L53.38,577.54L53.73,577.34L152.4,577.26L152.41,579.99L159.22,580.19L174.41,579.96L214.36,579.8L217.35,580.19L237.85,580.02z"/>
		<path id="C22025" title="Catahoula" class="land" d="M358.79,206.04L364.54,208.69L366.09,211.22L369.75,215.99L373.68,219.89L376.25,222.5L377.08,223.62L379.19,224.26L380.53,223.19L381.81,223.09L382.57,223.68L385.7,223.26L387.23,221.05L390.1,219.77L391.72,217.17L394.64,214.99L396,213.52L397.79,210.32L399.18,207.42L403.33,206.26L407.56,210.92L407.55,216.35L409.78,223.37L411.1,223.41L412.27,234.26L410.61,239.14L416.26,248.94L417.44,252.82L415.68,254.6L411.86,252.19L409.72,248.15L406.79,246.96L404.71,250.14L401.09,253.34L396.65,253.3L393.07,250.61L391.32,252.14L390.12,258.44L388.02,263.7L389.41,270.15L384.88,275.34L381.05,274.08L379.66,269.9L377.94,268.99L372.66,272.51L369.67,278.56L369.33,283.86L371.57,287.28L377.11,291.93L377.56,294.98L376.38,297.51L373.39,299.68L373.94,303.13L377.24,304.15L384.06,304.29L386.29,305.75L386.38,309.84L384.01,311.25L379.32,310.95L376.31,309.35L372.55,309.85L369.71,299.82L367.26,297.4L364.23,299.02L364.46,301.8L363.05,304.53L364.42,312.76L366.15,315.54L370.9,318.24L376.12,318.36L377.61,320.26L375.52,322.31L372.4,323.08L368.47,321.47L366.24,322.07L363.19,326.23L362.5,333.66L363.38,336.35L366.9,338.27L369.8,338.12L369.79,341.15L368.03,343.33L364.15,343.29L350.65,346.1L350.84,347.94L351.18,350.94L349.35,350.5L346.4,349.14L341.6,349.69L341.3,348.44L340.75,347.42L340.46,345.28L339.78,343.6L341.17,343.25L340.71,342.31L339.66,341.54L338.43,340.79L337.94,338.93L338.48,337.29L339.61,335.94L339.06,331.8L339.06,240.24L339.43,240.24L339.51,214.67L356.35,214.62L356.29,206.03z"/>
		<path id="C22027" title="Claiborne" class="land" d="M219.55,51.33L202.37,51.47L202.43,60.84L196.47,65.49L195.67,67.4L197.08,74.61L196.03,81.34L193.57,82.58L193.66,85.66L144.02,85.73L144.84,76.14L143.34,69.74L142.72,59.76L134.25,59.86L134.05,0.29L137.87,0.21L140.91,0.3L148.08,0.32L156.9,0.34L156.98,0.33L160.23,0.3L161.61,0.31L162.02,0.33L175.68,0.43L178.61,0.45L182.71,0.52L195.88,0.67L198.1,0.66L199.75,0.67L199.78,0.68L201.99,0.75L207.7,0.91L218.25,1.01L219.62,1.01L219.66,1.01L219.56,39.8L218.11,42.67L219.55,42.67z"/>
		<path id="C22029" title="Concordia" class="land" d="M443.67,252.54L443.56,252.69L440.86,256.81L440.73,257.19L440.38,259.44L440.36,261.33L440.71,266.29L441.1,269.9L441.03,270.85L440.66,273.38L440.21,274.53L437.63,275.94L436.86,276.25L435.45,276.28L434.26,276.03L429.75,274.53L428,273.56L427.08,272.86L426.62,272.35L425.8,271.28L425.38,270.51L424.93,269.88L424.64,269.73L424.11,269.66L423.84,269.8L422.5,270.89L421.67,271.74L421.14,272.58L420.94,273.18L420.73,274.87L420.85,275.88L420.96,276.2L421.55,277.16L423.26,279.33L424.7,280.41L425.62,280.94L426.18,281.19L427.15,281.33L429.33,281.21L430.8,280.92L434.33,279.48L435.26,279.19L436.6,279.07L437.53,279.22L438.21,279.4L439.73,280.49L439.48,283.08L439.28,283.95L439.06,284.46L437.9,285.86L435.98,287.34L434.11,288.97L433.06,289.69L432.05,290.24L427.1,292.05L426.83,291.99L426.4,291.62L425.45,291.29L423.7,291.61L422.6,291.54L421.85,291.61L421.39,291.71L421.09,291.94L420.15,293.3L419.97,293.66L419.9,294.09L419.91,294.55L420.29,295.38L420.93,295.66L421.24,295.99L421.2,297.3L420.86,298.27L420.7,301.16L420.89,305.62L421.2,307.83L421.49,308.76L422,309.82L422.65,311.28L423.71,313.4L425.38,314.92L427.01,316.53L427.56,317.82L428.38,318.18L428.36,319.05L428.39,320.86L428.54,321.87L428.31,322.96L427.24,324.19L423.03,324.19L422.38,323.94L421.06,323.16L420.08,322.21L419.23,321.11L418.33,319.28L417.15,314.66L417.14,313.91L417.56,312.88L417.53,312.69L416.95,311.41L416.79,311.23L416.22,310.97L415.65,311.04L414.93,311.43L414.59,311.84L412.86,312.83L412.04,313.6L411.01,315.35L410.68,316.64L410.67,317.57L411.4,319.16L411.85,320.37L412.23,321.73L413.3,320.65L413.64,320.39L414.44,320.03L414.98,320.17L416.02,320.79L415.96,321.04L415.4,321.99L415.22,324.45L415.25,325.04L415.57,326.32L415.56,327.63L416.12,328.31L417.71,329.36L418.19,330.35L418.45,330.63L420.64,332.27L422.05,333.54L422.28,333.87L422.39,334.29L422.34,337.61L422.24,338.42L421.71,339.87L421.12,341.03L420.63,341.6L417.43,343.13L414.74,343.97L413.03,344.25L411.31,344.31L409.1,344.06L405.95,343.42L403.5,343.05L400.78,343.07L400.19,343.22L398.95,344.13L398.5,344.65L398.06,345.39L397.89,346.15L397.91,346.47L398.39,347.92L399.67,349.52L402.87,351.14L406.79,354.53L407.89,355.81L408.72,357.42L408.82,357.91L408.9,358.34L408.94,359.87L408.88,360.35L408.48,361.41L407.55,363.27L407.1,364.03L406.36,365L403.45,368.43L403.02,369.04L402.87,369.4L402.78,370L402.65,371.87L402.73,372.3L403.47,373.58L403.97,374.15L404.6,374.72L405.47,375.27L407.94,377.23L412.45,381.34L413.03,381.99L413.51,383.14L413.74,384.45L413.66,385.34L413.52,385.98L412.99,387.38L411.77,389.16L410.66,390.27L408.65,391.58L405.98,392.75L402.87,393.88L400.9,395.03L396.65,400.65L397.34,396.01L399.71,390.57L396.33,386.25L390.96,387.34L386.43,386.36L388.68,379.76L387.69,376.86L389.77,374.88L387.29,371.16L387.53,367.92L389.95,363.6L392.52,363.57L394.18,358.51L391.9,355.83L389.04,354.47L386.76,356.28L384,355.42L380.66,351.88L377.47,351.92L371.9,349.01L371.37,346.31L368.03,343.33L369.79,341.15L369.8,338.12L366.9,338.27L363.38,336.35L362.5,333.66L363.19,326.23L366.24,322.07L368.47,321.47L372.4,323.08L375.52,322.31L377.61,320.26L376.12,318.36L370.9,318.24L366.15,315.54L364.42,312.76L363.05,304.53L364.46,301.8L364.23,299.02L367.26,297.4L369.71,299.82L372.55,309.85L376.31,309.35L379.32,310.95L384.01,311.25L386.38,309.84L386.29,305.75L384.06,304.29L377.24,304.15L373.94,303.13L373.39,299.68L376.38,297.51L377.56,294.98L377.11,291.93L371.57,287.28L369.33,283.86L369.67,278.56L372.66,272.51L377.94,268.99L379.66,269.9L381.05,274.08L384.88,275.34L389.41,270.15L388.02,263.7L390.12,258.44L391.32,252.14L393.07,250.61L396.65,253.3L401.09,253.34L404.71,250.14L406.79,246.96L409.72,248.15L411.86,252.19L415.68,254.6L417.44,252.82L416.26,248.94L434.92,249.09L444.05,249.74z"/>
		<path id="C22031" title="De Soto" class="land" d="M27.3,230.94L26.5,230.23L25.82,228.41L25.65,226.31L24.35,225.2L23.54,223.9L23.65,222.74L23.06,221.84L22.26,221.34L21.19,221.4L20.59,221.81L19.86,221.98L19.24,221.66L18.44,220.87L18.02,219.26L17.52,218.65L16.6,218.33L14.93,217.94L11.9,216.02L10.94,214.84L5.06,204.04L4.08,202.25L2.31,201.27L0.79,201.94L0.22,201.95L0.07,200.6L0.07,189.51L0.14,177L0.07,175.97L0.08,173.47L0.09,169.52L0.1,167.81L0.1,167.8L0.09,162.1L15.34,162.19L24.31,156.07L30.46,150.79L31.08,145.42L32.56,143.2L39.22,139.05L41.23,134.35L46.38,132.75L49.42,133.63L50.86,136.57L54.48,138.44L62.76,138.29L69.83,144.94L71.47,148.55L71.39,153.96L74.94,160.2L85.71,164.22L88.94,174.76L84.42,178.32L83.9,180.47L88.14,183.68L90.24,188.14L93.86,189.43L93.63,194.2L97.1,196.5L97.41,199.09L100.24,202.58L106.1,202.85L107.06,204.7L111.72,207.96L112.81,213.02L114.58,213.71L110.84,213.61L107.35,216.5L103.18,213.87L100.4,217.32L100.3,230.7z"/>
		<path id="C22033" title="East Baton Rouge" class="land" d="M483.32,526L483.31,525.89L483.35,525.59L483.36,525.46L483.35,525.34L481.35,522.29L474.62,520.79L469.94,522.02L467.74,521.27L466.79,518.76L468.05,515.36L471.16,511.76L473.74,506.94L474.39,503.17L474.17,490.01L472.15,486.95L463.25,490.37L460.13,490.2L459.65,488.42L466.03,484.48L466.65,482.14L465.72,479.7L462.52,477.42L456.07,477.32L454.5,473.23L456.73,470.3L458.24,466.05L457.43,462.58L458.92,457.11L462.01,456.53L464.64,451.83L532.18,449.13L531.52,453.69L528.53,454.14L521.91,462.61L520.85,464.54L518.56,465.91L517.55,467.24L517.74,468.41L517.9,469.38L516.91,470.46L515.29,471.29L514.36,471.26L513.53,472.23L512.66,472.94L511.6,473.43L510.48,474.05L509.9,475.08L509.49,476.49L510.02,477.73L511.6,479.66L511.4,483.71L510.39,486.87L511.84,489.3L511.5,490.95L511.56,493.69L511.17,496.54L508.82,497.95L508.49,498.95L508.88,499.93L510.03,500.35L509.46,500.86L509.98,502.22L510.79,503.96L512.75,507.59L512.31,509.67L513.16,512.56L516.36,512.97L517.65,515.71L518.49,517.45L522,518.25L524.1,520.6L525.07,521.13L517.19,522.07L511.4,520.81L505.85,522.53L503.53,525.69L501.62,526.97L490.57,526.07L487.79,527.38z"/>
		<path id="C22035" title="East Carroll" class="land" d="M479.36,3.04L479.34,3.41L478.87,5.4L478.15,6.6L476.68,8.07L475.87,8.55L474.13,10.8L473.76,11.05L473.4,11.52L473.37,12.28L473.51,12.75L473.8,13.27L472.46,14.84L471.92,15.74L471.57,16.48L471.37,17.62L471.38,18.24L471.57,19.24L471.77,19.73L472.33,20.58L473.74,21.93L474.24,22.27L476.76,23.32L477.8,23.61L478.66,23.73L480.37,23.63L481.75,23.23L482.86,22.52L484.69,20.12L485.01,19.04L485.15,18.29L485.15,17.67L484.45,14.49L484.06,13.19L484.17,12.44L484.26,12.28L484.81,11.94L485.16,11.57L485.25,11.31L485.21,11L484.86,10.46L484.11,9.87L483.94,9.51L484.45,7.87L484.63,7.7L486.18,6.88L488.41,6.15L489.27,6.03L490.88,6.53L491.32,6.94L491.88,7.57L492.56,8.54L493.64,11.2L493.88,13.37L493.61,13.71L493.38,13.84L493.18,14.14L493.38,14.77L493.63,15.07L495.02,16.14L495.27,16.49L496.23,18.38L496.38,19.13L496.22,20.35L496.42,22.35L496.4,22.88L496.29,23.4L495.67,25.2L495.26,25.85L492.58,28.86L489.43,31.82L487.68,32.37L486.25,32.52L485.72,32.48L484.05,33.68L483.11,34.52L482.87,34.89L482.08,37.19L481.67,38.08L480.84,38.65L480.65,38.95L480.09,40.89L480.13,43.35L479.64,46.14L480.6,47.08L480.88,47.23L480.77,48.08L479.54,50.85L479.4,51.66L479.48,52.95L479.8,53.8L480.6,54.5L481.29,54.72L481.99,54.83L485.09,54.57L486.51,54.63L488.09,55.19L491.94,55.95L494.17,56.65L496.9,57.65L497.53,58.02L497.95,58.68L497.91,59.27L497.52,60.59L496.37,62.49L494.35,64.3L493.51,64.81L490.57,65.96L489.63,66.52L487.32,68.17L485.75,69.89L485.21,71.17L484.09,72.79L483.92,72.96L483.36,73.06L482.98,73.3L482.08,74.09L481.69,74.59L481.59,74.73L481.41,75.82L481.4,76.6L481.44,77.6L481.82,79.62L482.67,81.94L483.02,82.64L483.51,83.31L484.49,84.4L485.72,85.42L486.18,85.67L487.06,85.75L487.26,85.68L488.24,84.69L489.42,84.55L492.4,83.33L493.78,82.62L496.8,81.7L498.73,81.34L498.88,80.09L499.82,78.67L500.12,77.81L500.3,76.36L500.63,75.58L502,74.08L502.73,73.59L503.84,74.13L504.65,74.79L505.89,76.6L506.44,77.87L506.53,78.32L506.53,79.87L506.26,80.83L505.32,82.38L504.74,83.07L504.32,83.36L503.2,84.36L501.86,86.04L501,86.78L499.79,87.43L498.81,87.95L495.47,90.03L495.4,90.08L488.96,90.11L488.96,91.38L484.75,94.97L430.78,95L435.22,90.4L432.83,86.31L437.5,82.34L439.55,77.43L440.79,72.56L440.22,68.5L442.07,64.67L444.53,63.41L446.6,56.99L449.74,51L449.82,48.84L450.12,41.9L449.23,36.99L450.27,31.88L453.02,29.73L455.12,27.53L455.1,20.88L456.38,15.79L461,12.73L462.04,7.87L463.28,4.46L462.87,2.84z"/>
		<path id="C22037" title="East Feliciana" class="land" d="M496.99,395.12L524.57,394.99L536.01,395.04L536.05,395.04L529.9,405.7L530.64,406.38L530.43,409.03L532.79,416.78L530.18,420.09L532.87,422.95L532.32,425.9L534.56,431.02L534.22,434.09L532.91,434.94L533.36,440.23L531.95,442.38L533.76,449.07L532.18,449.13L464.64,451.83L462.01,456.53L458.92,457.11L457.43,462.58L457.22,462.4L456.85,462.19L456.42,462.1L455.48,462.11L455.37,461.73L456.08,457.68L453.59,452.97L458.19,449.85L460.88,441.6L462.45,441.8L465.56,436.18L467.68,435.38L466.37,433.22L468.61,431.54L467.98,428.52L470.43,421.1L469.45,420.06L470.85,415.62L472.5,415.81L472.23,411.39L475.89,407.19L474.51,402.09L476.68,399.86L477.68,395.09L488.98,395.14L489.01,395.14L493.56,395.13L495.65,395.13z"/>
		<path id="C22039" title="Evangeline" class="land" d="M240.88,475.22L240.82,415.01L246.94,414.64L249.12,413.66L255.59,415.06L259.23,412.5L260.63,409.4L260.39,404.15L263.83,403.48L267.29,400.76L270.66,399.76L272.21,396.41L276.6,394.64L278.08,396.35L283.47,398.5L285.29,402.03L293.64,401.68L293.64,407.3L300.72,415.76L300.81,424.26L304.97,424.18L305.2,434.89L311.69,439.75L311.67,450.28L311.69,457.91L307.02,461.31L306.43,467.27L305.15,469.59L305.17,478.26L296.71,478.26L296.64,483.92L270.31,483.91L265.54,484.8L263.95,486L263.05,492.28L259.78,493.08L258.23,495.13L235.6,495.11L235.12,495L234.87,494.78L234.81,494.58L235.13,494.51L235.33,494.58L235.44,494.54L235.41,494.24L235.54,494.15L235.57,493.9L235.39,493.71L243.32,478.67z"/>
		<path id="C22041" title="Franklin" class="land" d="M424.93,160.66L425.03,167.59L422.96,172.69L422.91,177.09L422.69,179.95L424.38,181.74L424.62,185.46L423.32,189.06L423.95,198.17L420.87,205.71L415.9,217.71L411.1,223.41L409.78,223.37L407.55,216.35L407.56,210.92L403.33,206.26L399.18,207.42L397.79,210.32L396,213.52L394.64,214.99L391.72,217.17L390.1,219.77L387.23,221.05L385.7,223.26L382.57,223.68L381.81,223.09L380.53,223.19L379.19,224.26L377.08,223.62L376.25,222.5L373.68,219.89L369.75,215.99L366.09,211.22L364.54,208.69L358.79,206.04L358.12,203.59L357.39,199.24L356.77,195.82L356.66,191.98L353.78,188.8L353.28,187.44L354.69,185.19L356.58,184.94L358.52,183.61L360.75,183.27L361.58,180.32L361.55,176.68L359.71,175.48L357.75,172.86L357.95,170.81L359.28,168.03L367.6,165.93L370.44,158.63L374.23,156.39L378.48,151.9L380.18,134.84L386.53,135.11L390.14,132.9L390.59,128.05L393.67,127.35L393.69,125.31L397.35,124.8L401.24,121.03L427.6,120.94L427.75,125L431.94,129.59L427.63,131.48L426.17,128.7L423.63,132.34L427.37,133.29L428.45,138.27L423.49,138.6L423.17,142.65L419.27,141.58L419.78,150.92L416.55,149.75L414.19,151.58L419.54,154.59L422.14,152.65L419.43,157.23L415.96,159.34L417.8,160.58z"/>
		<path id="C22043" title="Grant" class="land" d="M178.21,257.28L237.12,257.15L237.24,240.08L280,240.18L282.27,244.85L283.2,248.36L280.9,253.03L279.13,256.75L280.61,259.56L281.25,263.23L279.76,267.06L280.32,271.85L280.08,273.79L281.56,278.36L287.7,284.08L292.27,289.61L294.68,291.91L294.61,296.44L296.79,299.09L299.5,300.11L304.83,301.04L307.74,302.25L293.82,305.46L289.86,305.99L235.12,319.24L230.68,319.7L228.84,316.59L227.26,318.14L224.97,317.47L224.67,315.98L227.52,314.53L224.71,311.92L227.04,308.44L222.75,307.54L222.63,303.69L224.93,303.54L224,299.53L223.46,299.05L220.62,294.53L213.57,288.74L214.28,286.51L209.23,282.65L206.09,278.78L200.3,278.26L195.22,275.06L189.08,273.6L190,266.91L186.35,265.66L185.85,263.42L179.7,262.78L180.2,258.04z"/>
		<path id="C22045" title="Iberia" class="land" d="M361.13,640.41l0.01,-0.03v-1.06l-0.46,-1.33l-0.23,-1.46l0.23,-1.6l0.6,-1.73l2.6,-4.44l0.75,-4.6l-2.55,-3.99l-3.19,-1.47l-2.96,0.97l-1.52,2.92l-0.53,0.05l-3.6,-0.31l-3.42,1.3l-1.53,1.13l-0.2,-4.9l-3.12,-26.84l-0.54,-2.68l0.51,-0.74l1.43,-0.44l2.92,-8.88l0.1,-0.24l2.14,-6.71l7.29,0.14l1.83,2.95l3.34,-2.01l9.5,4.51l6.65,-7.99l3.12,-0.97l-0.76,-3.4l5.87,-2.68l4.44,0.26l4.04,3.07l2.92,-0.93l5.16,7.29l3.04,0.75l1.99,6.66l15.43,-0.02l2.06,-1.55l1.37,-3.2l19.72,-0.15l16.62,-0.09l2.19,3.74l5.26,2.77l-1.92,4.63l-3.92,0.18l0.69,5.5l-36.11,2.96l-25.45,2.05l-14.4,18.97l-21.6,18.31L361.13,640.41zM333.55,667.24l0.42,-0.65l1.58,0.12l0.63,-0.18l0.98,-1.45l1.62,-1.03l0.55,-1.86l1.01,-0.95l0.06,0.02l5.83,0.95l4.19,-0.43l0.81,-0.37l0.91,-1.26l1.12,-2.73l3.97,-0.73l0.37,0.46l2.41,0.92l2.7,-0.35l0.52,-0.41l3.62,0.79l0.39,0.98l-0.32,0.87l0.44,0.74l2.77,1.91l2.98,1.24l3.14,0.83l1.08,1.14l0.62,1.35l0.02,1.09l4.73,0.39l4.54,1.67l0.58,-0.05l0.61,0.21l0.47,0.71l-0.41,1.29l-3.72,2.81l-2.18,0.83l-3.06,2.72l-1.08,3.04l-0.1,1.12l0.41,0.99l-0.07,0.92l-1.98,1.16l-1.12,0.15l-1.83,-0.9l-0.55,0l-1.86,0.91l-1.16,1.55l-2.82,-0.94l-1.69,-1l-0.66,-2.06l-1.62,-1.41l-2.74,-0.1l-1.34,-0.5l-3.23,-2.38l-1.52,-0.09l-5.28,-2.79l-3.72,-0.71l-2.73,-2.06l-6.84,-3.64l-1.44,-2.25L333.55,667.24z"/>
		<path id="C22047" title="Iberville" class="land" d="M445.57,576.07L444.04,569.17L442.22,567.74L429.75,567.7L428.58,566.25L430.17,562.19L429.02,558.8L428.39,551.55L425.44,547.77L427.84,543.4L422.34,541.28L413.26,540.96L409.05,538.05L409.1,534.95L403.55,527.91L402.47,524.04L402.81,519.41L399.07,517.27L402.22,514.85L402.95,511.69L402.38,507.93L400.47,505.03L400.38,502.39L394.64,496.31L392.85,495.98L390.24,491.87L409.83,491.95L409.78,494.73L419.35,491.94L426.21,491.93L430.36,497.08L431.5,496.2L441.25,508.91L441.24,511.48L446.6,513.91L450.88,519.74L453.79,521.39L455.11,525.5L483.35,525.34L483.36,525.46L483.35,525.59L483.31,525.89L483.32,526L487.79,527.38L490.57,526.07L501.62,526.97L503.53,525.69L503.82,526.27L497.15,546.49L494.79,556.54L492.01,557.89L492.08,566.58L489.29,566.63L489.37,575.37L469.65,582.48L464.38,579.72L462.19,575.98z"/>
		<path id="C22049" title="Jackson" class="land" d="M271.21,103.32L271.2,120.55L288.46,137.64L288.46,146.13L288.39,171.87L204.67,171.71L203.43,168.64L204.27,168.82L207.32,164.97L206.96,159.21L209.21,158.38L211.59,154.26L210.92,111.58L236.83,111.67L236.73,103.14z"/>
		<path id="C22051" title="Jefferson" class="land" d="M658.86,746.96l0.39,-1.98l-0.67,-1.43l0.93,-0.75l0.32,-1.19l3.28,-2.81l-0.08,-0.74l3.45,-0.44l3.85,-3.83l2.34,-1.66l5.95,-2.87l0.72,-0.64l1.03,-1.62l1.39,0.29l0.21,0.56l-0.14,0.45l-0.95,1.34l-10.92,7.16l-6.08,6.15l-3.46,2.6L658.86,746.96zM661.03,630.95l1.68,3.58l-0.27,2.76l4.43,5.86l1.85,3.99l2.27,2.42l2.28,9.73l2.44,0.37l1.25,2.65l-0.13,5.23l-1.31,5.96l1.62,2.91l0.27,16.25l-2.44,-2.9l-3.42,0.14l-1.01,2.03l-0.63,1.45l-1.18,2.38l-3.26,-5.62l-5.24,-0.84l-2.45,0.86l-7.05,-3l-1.42,-4.39l-4.69,-8.13l-2.96,-1.69l0.96,-2.21l4.62,-1.28l0.44,-20.5l-12.05,-2.77l4.3,-11.19l5.84,-12.75l-0.98,-1.93l-1.51,-0.03l-9.65,-6.58l-0.5,-3.55l-4.13,-4.62l-1.92,-12.07l0,-7.36l-0.04,-1.32l0.09,-6.85l0.23,-34.84l5.8,1.24l12.37,4.02l10.55,2.24l-2.32,29.74l0.14,1.3l-0.4,1.51l-0.64,8.84l-2.14,4.65l-0.01,0.02l-0.4,0.67l0.25,5.57l1.87,1.49l0.28,0.1l0.62,0.12l8.87,-2.14l1.6,-1.79l0.18,-1.68l1.27,0.36l0.62,0.67l0.82,0.92l0.4,0.41l3.53,3.83l1.4,1.59l0.3,0.57l-3.14,8.04l-6.92,4.64l-0.57,4.07l1.93,4.38L661.03,630.95z"/>
		<path id="C22053" title="Jefferson Davis" class="land" d="M220.06,493.64L235.39,493.71L235.57,493.9L235.54,494.15L235.41,494.24L235.44,494.54L235.33,494.58L235.13,494.51L234.81,494.58L234.87,494.78L235.12,495L241.35,506.7L239.73,512.51L235.51,514.57L237.2,522.13L235.09,527.07L235.85,529.94L236.01,543.2L237.99,546.13L243.26,548.82L241.92,552.39L237.33,553.85L239.12,556.95L235.67,561.71L237.39,567.38L236.2,569.65L235.87,571.24L235,572.54L232.86,573.23L230.97,572.83L227.92,574L225.09,575.98L223.52,577.07L220.46,578.02L218.23,579.81L217.35,580.19L214.36,579.8L174.41,579.96L174.44,571.56L192.59,571.35L189.15,565.74L189.32,562.28L192.28,559.86L191.57,557.39L174.42,557.26L174.34,537.36L168.69,537.38L168.64,514.57L151.96,514.45L151.96,510.02L151.95,506.07L162.88,505.93L162.88,503.19L211.17,503.38L211.46,493.63z"/>
		<path id="C22055" title="Lafayette" class="land" d="M346.34,580.26L329.39,573.18L325.68,562.76L319.02,565.12L306.64,559.97L302.58,561.11L293.81,560.22L292.98,559.09L294.54,559.34L299.37,551.8L299.11,546.89L305.44,543.95L305.39,541.08L311.05,541.13L311.04,535.59L313.9,535.61L313.84,532.79L316.75,532.79L316.72,530.04L324.69,524.05L326.53,518.18L331.07,514.79L335.91,518.31L337.79,516.1L342.29,516.64L348.09,518.33L347.76,523.31L346.09,524.85L347.91,528.21L348.9,534.28L344.43,537.3L347.26,541.88L349.94,541.99L347.43,546.73L344.31,546.92L343.82,552.48L353.62,551.33L356.15,557.71L351.4,564.37L348.58,573.31L346.44,580.02z"/>
		<path id="C22057" title="Lafourche" class="land" d="M605.43,740.59L605.43,732.31L609.74,724.29L610.88,720.31L609.25,716.15L610.4,711.53L609.61,708.35L606.44,704.84L603.9,703.73L599,698.43L595.51,691.53L589.25,687.04L581.87,676.84L578.94,676.1L577.9,671.53L573.33,668.92L570.46,664.11L564,662.25L560.22,656.22L556.12,651.56L549.12,648.68L545.87,645.53L542.33,635.6L539.57,635.22L539.07,630.18L535.72,630.19L533.31,633.25L533.54,635.79L526.67,635.89L526.99,641.46L505.9,641.85L510.08,636.14L515.77,627.05L519.55,619.96L522.07,610.84L526.16,610.77L526.09,605.44L542.82,605.03L542.74,602.33L544.13,602.25L549.11,604.18L552.22,604.44L554.17,607.12L558.64,605.53L560.23,607.88L564.29,608.52L583.35,608.08L584.83,608.65L587.71,613.21L590.52,613.14L593.68,616.52L594.43,623.24L602.02,630.09L606.12,630.48L611.6,633.25L613.53,637.6L613.4,643.25L614.97,645.53L615.96,645.95L635.63,646.19L647.68,648.96L647.24,669.46L642.62,670.73L641.66,672.94L644.61,674.63L649.31,682.76L650.73,687.15L657.78,690.15L660.23,689.29L665.47,690.13L668.73,695.74L668.26,696.7L668.39,699.45L668.09,703.12L668.73,704.09L668.71,704.38L668.65,705.05L668.51,706.58L668.51,706.59L668.5,706.62L668.04,707.38L667.74,707.89L667.58,708.75L668.17,711.61L668.34,712.44L667.93,716.55L668.89,719.51L671.34,720.34L672.03,721.84L670.93,723.85L670.39,724.23L668.29,724.65L666.43,724.18L664.13,724.4L663.47,725.27L663.7,726.05L663.56,726.99L661.87,727.97L659.19,728.6L658.46,728.18L657.37,728.08L656.77,728.49L657.64,732.13L661.42,734.67L661.42,737.84L661.87,738.2L663.04,738.05L663.12,738.79L659.84,741.61L659.52,742.79L658.59,743.54L659.26,744.97L658.86,746.96L656.29,749.27L644.6,757.83L636.39,761.66L634.99,761.16L632.77,761.52L616.44,766.98L615.53,766.83L615.34,765.72L619.41,763.55L622.97,763.13L624.83,762.86L626.49,762.19L629.27,760.84L630.63,760.42L631.46,760.01L632.02,758.66L631.98,757.3L633.01,756.85L634.61,756.88L634.59,753.36L633.08,751.94L632.22,751.55L628.82,751.39L626.9,750.76L627.27,749.21L624.16,745.3L623.18,744.58L623.17,742.14L623.51,740.58L624.79,739.89L626.52,741.27L627.68,741.05L628.45,738.97L625.89,734.97L623.61,733.92L621.71,732.64L621.74,729.14L620.97,727.55L618.19,725.23L612.47,725.77L612.3,726.42L612.49,727.51L611.57,728.66L609.01,729.83L609.68,733.09L607.08,739.65L605.57,740.53z"/>
		<path id="C22059" title="LaSalle" class="land" d="M280,240.18L280.65,239.98L280.1,237.9L284.42,235.01L288.33,214.65L293.42,214.68L293.63,214.71L339.51,214.67L339.43,240.24L339.06,240.24L339.06,331.8L334.21,328.48L326.86,332.12L325.97,329.94L326.1,329.22L327.54,327.61L327.79,326.39L326.76,324.99L325.48,323.95L324.64,323.15L323.93,322.26L322.54,322.22L321.2,322.04L320.77,320.61L320.32,319.75L319.23,319.65L318.79,319.09L317.48,317.67L315.8,316.52L315.23,314.2L313.7,311.37L313.51,310L313.94,309.26L314.54,308.38L313.65,307.14L313.07,306.72L313.15,305.16L312.28,303.69L311.6,303.96L310.94,303.41L309.81,303.43L308.3,303.35L307.74,302.25L304.83,301.04L299.5,300.11L296.79,299.09L294.61,296.44L294.68,291.91L292.27,289.61L287.7,284.08L281.56,278.36L280.08,273.79L280.32,271.85L279.76,267.06L281.25,263.23L280.61,259.56L279.13,256.75L280.9,253.03L283.2,248.36L282.27,244.85z"/>
		<path id="C22061" title="Lincoln" class="land" d="M193.66,85.66L193.57,82.58L196.03,81.34L197.08,74.61L195.67,67.4L196.47,65.49L202.43,60.84L202.37,51.47L219.55,51.33L234.36,51.36L238.21,52.71L241.92,52.3L245.23,53.49L249.52,59.49L253.93,59.05L254.05,68.83L271.26,68.96L271.26,86.13L271.21,103.32L236.73,103.14L236.83,111.67L210.92,111.58L193.92,111.45z"/>
		<path id="C22063" title="Livingston" class="land" d="M544.59,539.45L543.56,538.61L542.53,538.11L541.81,536.65L542.62,535.21L542.8,533.96L541.53,533.57L540.2,533.87L538.08,533.23L537.12,531.41L536.09,529.22L535.52,526.75L533.71,525.57L533.1,524.36L531.58,523.41L530.65,522.55L530,521.82L529.02,521.66L527.94,521.28L526.64,521.38L525.07,521.13L524.1,520.6L522,518.25L518.49,517.45L517.65,515.71L516.36,512.97L513.16,512.56L512.31,509.67L512.75,507.59L510.79,503.96L509.98,502.22L509.46,500.86L510.03,500.35L508.88,499.93L508.49,498.95L508.82,497.95L511.17,496.54L511.56,493.69L511.5,490.95L511.84,489.3L510.39,486.87L511.4,483.71L511.6,479.66L510.02,477.73L509.49,476.49L509.9,475.08L510.48,474.05L511.6,473.43L512.66,472.94L513.53,472.23L514.36,471.26L515.29,471.29L516.91,470.46L517.9,469.38L517.74,468.41L517.55,467.24L518.56,465.91L520.85,464.54L521.91,462.61L579.14,462.49L579.19,493.87L580.9,494.46L581.98,497.5L582.65,504.79L587.19,508.31L590.39,515.37L589.79,517.88L591.65,517.14L594.03,518.98L594.69,522.95L599.86,528.92L603.74,531.7L606.79,532.59L599.65,534.42L592.29,537.13L590.68,538.27L586.6,545.24L583.19,548.9L579.83,550.3L577.32,549.77L573.82,545.75L568.21,544.9L564.68,543.66L563.13,545.17L562.51,546.12L561.29,548.99L560.25,550.85L558.9,553.32L557.83,553.66L556.98,553.02L556.66,552.39L555.67,551.92L553.98,551.02L553.71,549.25L553.15,547.69L552.1,546.66L551.69,545.45L551.09,544.28L550.05,542.75L549.55,542.12L548.87,541.26L547.87,541.17L547.12,541.34L546.33,541.45L545.55,540.98L544.91,540.47z"/>
		<path id="C22065" title="Madison" class="land" d="M495.4,90.08l-1.77,1.25l0.84,1.91l2.28,2.02l1.75,1.09l6.65,2.81l0.97,0.54l1.83,1.48l0.78,1.22l0.28,0.66l0.06,0.51l-0.07,0.59l-0.4,0.68l-0.95,0.75l-0.47,0.26l-0.83,0.09l-2.15,-0.31l-1.17,-0.29l-1.63,-0.65l-0.7,-0.37l-1.28,-1l-0.85,-0.9l-1.6,-2.4l-1.66,-3.11l-0.72,-1.04l-3.15,-3.08l-0.69,0.86l-0.01,1.48l-0.13,0.83l-0.42,1.45l-0.95,2.1l-1.62,2.91l-0.1,1l0.22,2.34l0.65,1.38l0.55,0.81l2.25,2.61l2.25,1.63l1.93,1.04l2.88,1.32l3.88,0.96l0.55,-0.18l1.63,-1.16l1.95,-1.06l0.97,-0.87l0.85,-0.13l1.74,0.35l0.81,0.4l1.49,1.48l0.17,0.28l0.28,0.51l0.07,0.32l0.08,1.78l-0.04,0.74l-0.25,0.54l-0.56,0.72l-0.55,0.52l-1.04,0.74l-2.23,0.86l0.05,1.39l-0.15,0.88l-0.26,0.83l-0.73,1.26l-0.65,2.65V129l0.17,0.51l0.57,0.87l1.08,0.72l1.16,0.45l5.35,1.16l1.93,-0.02l1.35,0.19l2.29,0.57l1.47,0.51l0.77,-0.82l1.67,-2.11l0.95,-3.18l0.52,-0.52l1.78,-0.26l0.44,0.42l-1.09,2.92l-3.09,5.33l-0.09,1.37l-0.22,0.75l-0.44,0.8L521,141l-1.01,0.97l-1.96,1.63l-2.31,1.35l-0.59,0.06l-0.28,-0.17l-0.4,-0.43l-0.96,-1.38l-0.32,-0.59l-0.18,-0.11l-1.25,-0.12l-0.49,0.07l-0.27,0.13l-0.55,0.54l-0.21,0.45l-0.55,2.25l0.18,1.89l0.33,0.7l0.23,0.29l1.39,1.47l0.32,1.02l-0.1,0.16l-1.02,0.7l-0.69,0.88l-0.47,2.4l-0.02,1.01l-0.03,0.96l-0.43,0.68l-0.45,0.4l-0.43,0.23l-0.51,0.18l-0.51,-0.02l-0.36,-0.15l-0.28,-0.1l-0.21,-0.13l-0.38,-1.03l-0.22,-0.59l-0.58,-0.41l-1.98,-1.96l-0.85,-0.51l-1.28,-0.55l-0.78,-0.16l-1.25,0.24l-0.63,0.63l-0.25,0.69l-0.22,1.27l-0.33,0.63l-1.05,1.2l-1.62,-1.45l-0.67,-0.2l-1.43,0.12l-1.4,0.51l-1.38,1.18l-1.35,1.9l-0.75,0.31l-0.18,-0.03l-0.53,0.01l-1.13,-0.87l0.44,-5.62l-2.1,-1.87l-8.27,0.77l-5.32,2.43l-3.26,4.5l-4.82,-2.23l-1.18,-1.9l-1.71,2.02l-5.34,1.56l-1.22,2.05l-28.65,-0.17l-7.13,-0.08l-1.84,-1.24l3.47,-2.11l2.71,-4.58l-2.61,1.93l-5.35,-3l2.36,-1.83l3.23,1.17l-0.51,-9.34l3.9,1.08l0.32,-4.05l4.96,-0.33l-1.08,-4.98l-3.74,-0.94l2.54,-3.65l1.46,2.78l4.31,-1.89l-4.18,-4.6l-0.16,-4.06l-1.5,-1.69l-0.22,-1.92l0.08,-1.63l1.36,-0.97l0.95,0.13l-0.47,-1.01l-0.27,-1.31l0.17,-1.4l-0.72,-1.97l-0.37,-1.87l-0.41,-1.45l0.32,-1.91l0.1,-1.87l1.03,-2.17l1.23,-2.67l1,-1.85l0.89,-0.37l53.97,-0.02l4.21,-3.59l0.01,-1.27L495.4,90.08zM498.17,176.15l0.33,-3.9l0.17,-0.22l0.28,-0.96l-0.2,-1.41l-1,-1.25l-0.53,-1.47l0.21,-1.2l1.24,-0.21l1.4,0.76l1.65,1.31l1.15,1.04l1.4,0.33l1.74,0.76l0.35,2.12l-0.15,0.65l-0.23,0.57l-0.9,1.72l-0.97,1.17l-0.4,0.31l-1.17,0.49l-0.63,0.1l-1.37,0.04l-1.18,-0.29L498.17,176.15z"/>
		<path id="C22067" title="Morehouse" class="land" d="M425.52,2.63L430.32,2.68L431.49,2.69L434.42,2.64L433.1,5.52L430.89,10.7L424,23.27L414.65,31L410.49,39.29L408.24,44.23L407.64,53.18L401.93,60.03L402.87,67.47L400.8,69.5L400.25,72.18L394.45,80.15L386.53,82.52L384.4,87.44L381.85,91.19L380.24,90.99L376.23,90.22L374.44,89.52L372.13,88.7L371.16,90.83L367.67,93.62L367.31,97.61L365.2,98.89L362.43,97.59L360.78,95.5L359.95,94.26L357.58,95.25L357.29,97.69L355.76,100.96L354.9,101.27L356.37,99.11L355.12,95L352.9,89.75L352.85,86.1L351.13,82.27L353.08,78.31L353.21,76.24L354.6,72.98L354.79,70.56L352.08,69.72L349.02,69.58L346.06,66.08L345.33,63.71L343.93,61.39L342.3,61.74L338.31,62.42L334.02,62.91L332.87,63L331.2,62.32L330.81,60.55L331.1,59.41L329.55,58.53L330.42,56.12L331.39,46.68L329.96,37.78L326.28,27.84L327.01,22.63L327.65,20.02L326.98,13.6L326.85,9.92L328.92,3.88L328.9,2.23L348.42,2.38L348.74,2.36L361.22,2.32L381.22,2.46L384.48,2.35L402.62,2.54L404.12,2.52L405.56,2.55L410.42,2.56L410.45,2.57L411.67,2.48L413.81,2.5L423.7,2.51z"/>
		<path id="C22069" title="Natchitoches" class="land" d="M176.89,327.75L176.54,327.18L176.3,327.13L175.14,325.06L168.42,325.06L168.42,324.32L134.46,324.28L134.37,290.5L117.58,290.54L117.32,256.24L100.2,256.2L100.3,230.7L100.4,217.32L103.18,213.87L107.35,216.5L110.84,213.61L114.58,213.71L113.82,215.33L116.16,218.96L115.41,220.25L120.4,222.23L123.18,220.47L126.75,222.45L130.74,218.24L133.9,219.31L134.07,205.78L153.61,205.82L147.46,198.62L148.06,194.74L150.92,189.44L146.43,182.21L148.34,180.41L145.77,175.35L142.62,171.42L183.95,171.51L185.26,176.5L188.34,180.23L189.67,184.53L188.5,185.38L191.16,189.7L193.01,198.1L190.36,202.82L193.21,204.15L192.96,208.95L195.1,211.04L192.98,212.34L191.36,216.65L189.18,229.56L182.13,228.58L184.06,233.78L181.71,242.7L179.33,243.17L179.05,252.91L178.21,257.28L180.2,258.04L179.7,262.78L185.85,263.42L186.35,265.66L190,266.91L189.08,273.6L195.22,275.06L200.3,278.26L206.09,278.78L209.23,282.65L214.28,286.51L213.57,288.74L220.62,294.53L213.53,300.58L213.51,302.53L210.62,302.43L207.8,306.55L204.87,306.65L204.93,309.37L199.32,310.83L199.3,313.72L195.2,313.72L195.2,316.62L192.37,316.66L192.4,319.43L188.21,319.49L188.29,323.56L182.58,323.64L182.62,327.73z"/>
		<path id="C22071" title="Orleans" class="land" d="M652.85,591.96L653.49,583.13L653.89,581.62L653.75,580.32L656.07,550.58L662.21,553.66L666.89,554.28L674.03,558.68L688.21,551.35L693.85,549.16L696.8,550.9L703.77,552.9L704.77,557.19L706.18,558.24L707.94,558.34L715.85,553.4L721.29,556.45L726.08,553.74L731.05,556.81L736.47,558.14L736.11,558.46L733.46,560.78L732.86,561.64L731.88,563.08L730.79,564.66L730.52,564.85L728.93,566.01L728.85,566.07L728.76,566.13L728.76,566.14L728.14,566.17L727.93,566.18L727.85,566.19L727.8,566.22L727.66,566.32L727.6,566.36L727.26,566.59L727.26,566.59L727.24,566.7L727.21,566.83L727.21,566.86L727.01,567.78L726.99,567.92L726.98,567.93L726.95,568.09L726.9,568.34L726.88,568.45L726.75,569.07L726.64,569.58L726.61,569.7L726.59,569.8L726.59,569.8L726.58,569.99L726.58,569.99L726.57,570.09L726.56,570.17L726.56,570.21L726.55,570.24L726.51,570.79L726.45,571.49L726.43,571.72L726.34,572.77L724.03,573.77L723.88,573.83L723.87,573.83L723.81,573.84L723.77,573.84L723.69,573.85L721.65,574.08L721.47,574.1L721.46,574.11L721.28,574.2L721.15,574.26L721.04,574.32L720.98,574.35L720.92,574.38L720.89,574.4L720.83,574.42L720.81,574.44L719.96,574.87L719.55,575.08L719.24,575.24L719.05,575.33L718.95,575.49L718.7,575.91L718.68,575.94L718.66,575.97L718.64,576.01L718.46,576.3L718.46,576.31L718.42,576.88L718.39,577.49L718.38,577.56L718.37,577.82L718.37,577.82L718.37,577.82L720.91,581.95L720.91,581.95L720.91,581.95L720.9,582.08L720.9,582.12L720.9,582.22L720.89,582.31L719.52,583.03L719.51,583.03L719.33,583.04L718.07,583.11L717.9,582.95L717.12,582.24L717.03,582.15L716.81,581.95L715.99,581.19L715.91,581.12L715.88,581.09L715.88,581.09L714.1,579.93L713.09,579.27L709.87,578.64L709.52,578.67L704.68,578.98L703.87,579.04L702,580.96L701.89,581.08L701.6,581.38L701.47,581.51L701.33,581.65L701.19,581.8L701.1,581.9L700.31,582.71L700.31,582.71L700.14,582.93L700.01,583.1L697.88,585.83L696.07,587.89L696.66,589.58L693.37,589.97L691.11,586.88L687.94,587.5L683.8,591.08L681.42,590.93L677.92,588.35L675.33,589.34L671.62,597.67L678.68,601.74L683.8,601.77L686.8,603.46L689.91,610.14L688.46,612.48L684.46,607.86L675.76,605.51L675.44,608.49L672.3,607.32L672,606.75L670.59,605.16L667.06,601.33L666.66,600.92L665.85,600L665.23,599.33L663.96,598.97L663.78,600.65L662.18,602.43L653.32,604.57L652.7,604.46L652.42,604.36L650.55,602.87L650.3,597.3L650.71,596.63L650.71,596.62z"/>
		<path id="C22073" title="Ouachita" class="land" d="M271.26,86.13L290.31,86.17L290.85,85.13L295.04,86.5L299.08,84.9L303.12,84.65L303.54,80.69L317.4,70.79L317.25,67.92L320.28,68.27L325.39,65.49L329.55,58.53L331.1,59.41L330.81,60.55L331.2,62.32L332.87,63L334.02,62.91L338.31,62.42L342.3,61.74L343.93,61.39L345.33,63.71L346.06,66.08L349.02,69.58L352.08,69.72L354.79,70.56L354.6,72.98L353.21,76.24L353.08,78.31L351.13,82.27L352.85,86.1L352.9,89.75L355.12,95L356.37,99.11L354.9,101.27L350.68,105.63L349.7,112.5L341.38,121.87L338.9,129.48L338.85,134.24L337.11,142.17L334.68,146.21L322.69,146.29L322.73,149.84L314.98,149.82L312.97,146.28L288.46,146.13L288.46,137.64L271.2,120.55L271.21,103.32z"/>
		<path id="C22075" title="Plaquemines" class="land" d="M677.42,692.64L677.15,676.39L675.53,673.49L676.84,667.53L676.97,662.3L675.71,659.65L673.27,659.28L670.99,649.55L668.72,647.13L666.87,643.15L662.44,637.29L662.71,634.53L661.03,630.95L663.6,628.45L661.67,624.07L662.24,620L669.16,615.36L672.3,607.32L675.44,608.49L675.76,605.51L684.46,607.86L688.46,612.48L695.35,626.45L697,626.91L704.23,625.32L709.26,630.68L708.37,632.92L712.34,634.11L720.12,633.67L722.66,634.53L724.92,637.33L726.31,641.61L730.24,643L735.59,648.36L745.13,651.34L749.28,653.68L753.85,654.38L759.16,659.74L759.12,659.85L756.16,657.74L753.11,656.23L751.08,654.48L743.06,653.67L738.8,652.74L736.77,652.86L736.36,651.81L734.84,650.07L732.91,649.37L732,649.83L733.42,654.6L733.42,656.92L732.4,658.9L730.68,659.13L727.83,658.67L726.21,659.02L725.6,660.87L726.21,663.2L728.44,665.99L728.85,667.5L726.21,670.75L726.21,673.07L726.77,676.23L724.25,678.04L723.67,678.34L723.48,678.84L723.54,679.76L724.64,681.17L729.32,684.7L732.95,684.26L734.4,684.84L737.36,688.84L740.86,691.12L741.54,692.35L742.03,694.67L744.1,695.42L744.51,695.04L744.51,694.01L748.83,689.33L752.21,691.42L751.59,695.26L751.62,696.95L753.89,701.79L755.52,704.47L756.11,704.49L759.06,703.1L759.55,702.32L759.89,700.65L760.75,699.7L761.92,701.56L764.06,703.14L769.88,703.62L776.94,703.4L778.09,704.28L781.02,705.34L783.55,705.37L784.17,705.98L782.34,708.49L781.82,711.43L786.41,712.49L789.64,709.93L793.1,710.12L794.84,711.12L796.05,712.23L797.29,713.84L798.01,716.52L800.12,718.94L802.9,718.23L803.02,717.42L803.64,716.21L806.15,713.5L806.87,712.41L806.83,711.79L808.7,712.29L810.34,713.32L810.7,714.16L810.56,715.73L812.76,720.28L814,721.48L816.88,722.55L817.87,724.78L817.43,725.56L818.65,727.38L823.57,730.31L824.23,731.7L824.33,732.63L823.86,733.59L822.62,733.85L822.55,736.83L823.48,738.65L825.14,739.85L828.88,739.06L829.03,738.21L835.4,735.87L836.61,736.4L837.72,737.66L840.14,743.63L839.37,746.51L838.04,746.82L837.2,746.49L836.21,745.54L832.94,746.97L832.38,747.86L833.8,750.79L834.92,750.34L836.23,751.75L836.26,752.44L835.92,753.12L831.6,757.59L831.01,761.83L829.87,764.48L825.05,765.1L823.91,764.9L822.76,763.83L820,764.7L816.35,768.77L814.21,772.34L813.26,774.79L813.21,775.57L812.8,776.14L811.95,776.14L810.97,775.5L809.25,774.38L809.9,772.96L808.61,771.61L807.29,772.16L806.5,771.8L805.07,770.06L804.25,767.11L804.34,766.15L804.06,765.04L802.62,762.88L800.88,761.75L797.81,762.01L797.39,762.42L797.46,763.8L797.99,765.48L797.04,766.73L793.07,767.68L791.75,767.73L789.46,769L787.71,770.38L787.25,771.09L787.74,771.6L786.13,775.18L784.4,774.95L783.9,775.34L776.3,787.75L771.7,792L770.3,791.11L771.54,785.85L772.25,784.36L773.92,782.15L776.59,781.29L777.77,780.57L784.48,770.15L783.63,767.89L781.14,764.04L777.85,761.83L772.67,761.31L771.75,757.72L772.05,753.55L770.66,751.49L768.78,750.39L768.12,749.53L765.7,743.92L764.31,741.56L761.56,738.42L759.8,736.99L750.85,732.97L739.18,729.97L728.33,722.94L724.08,721.48L719.26,720.09L709.94,718.74L703.65,718.91L698.58,718.62L697.78,714.2L698.02,713.13L699.11,711.5L701.13,709.63L703.49,706.12L704.14,704.81L704.27,703.07L704.14,702.06L703.76,701.04L703.26,700.03L702.62,698.87L701.07,698.31L699.71,697.71L699.45,695.25L700.84,691.55L701.35,691.05L701.35,690.47L701.48,689.74L701.35,689.02L701.23,688.44L700.21,687.86L698.69,686.99L696.54,687.28L694.26,688.1L689.94,690.42L687.14,693.41L684.87,696.26L681.07,696.41L679.98,695.58L679.54,695.25L678.15,693.51z"/>
		<path id="C22077" title="Pointe Coupee" class="land" d="M396.65,400.65L399.58,408.65L396.92,415.2L396.83,422.54L397.63,423.71L403.16,425.75L410.63,424.63L413.13,426.52L414.32,424.17L413.12,417.47L411.04,415.53L405.47,414.55L404.63,410.85L410.88,410.72L415.5,411.12L420.15,416.17L421.12,421.71L417.14,435.26L414.18,437.78L409.65,438.82L407.96,443.18L411.85,446.04L414.89,446.92L422.07,445.09L425.9,444.88L431.99,445.88L440.87,441.75L443.61,441.51L446.71,445.28L448.2,448.66L450.27,458.59L451.9,460.82L455.46,462.48L453.72,465.79L446.2,474.43L446.22,478.1L440.79,478.12L437.9,484.61L437.92,489.16L426.75,489.29L426.21,491.93L419.35,491.94L409.78,494.73L409.83,491.95L390.24,491.87L381.04,491.81L385.16,489.04L380.85,479.01L381.84,471.41L381.28,469.73L383.57,465.86L382.66,460.8L385.15,458.68L384.74,452.2L380.74,444.95L381.02,441.26L378.94,436.38L372.52,431.43L373.99,427.97L371.19,424.28L373.02,421.26L373.71,409.5L372.74,400.23L376.71,397.66L378.04,394.41L382.05,391.28L388.07,393.61L389.89,391.32L395.22,392.87L397.34,396.01z"/>
		<path id="C22079" title="Rapides" class="land" d="M240.82,415.01L220.59,414.5L220.29,415.82L203.14,416.18L203.14,392.76L202.51,392.76L202.18,346.06L199.42,345.87L199.4,341.81L193.87,339.01L193.84,333.43L191.02,332.03L185.42,332.05L185.42,330.55L179.72,330.54L176.89,327.75L182.62,327.73L182.58,323.64L188.29,323.56L188.21,319.49L192.4,319.43L192.37,316.66L195.2,316.62L195.2,313.72L199.3,313.72L199.32,310.83L204.93,309.37L204.87,306.65L207.8,306.55L210.62,302.43L213.51,302.53L213.53,300.58L220.62,294.53L223.46,299.05L224,299.53L224.93,303.54L222.63,303.69L222.75,307.54L227.04,308.44L224.71,311.92L227.52,314.53L224.67,315.98L224.97,317.47L227.26,318.14L228.84,316.59L230.68,319.7L235.12,319.24L289.86,305.99L293.82,305.46L307.74,302.25L308.3,303.35L309.81,303.43L310.94,303.41L311.6,303.96L312.28,303.69L313.15,305.16L313.07,306.72L313.65,307.14L314.54,308.38L313.94,309.26L313.51,310L313.7,311.37L315.23,314.2L315.8,316.52L317.48,317.67L318.79,319.09L319.23,319.65L320.32,319.75L320.77,320.61L321.2,322.04L322.54,322.22L323.93,322.26L324.64,323.15L325.48,323.95L326.76,324.99L327.79,326.39L327.54,327.61L326.1,329.22L325.97,329.94L324.45,332.09L313.51,336.81L310.97,334.63L310.36,331.29L303.48,330.62L301.56,334.76L301.47,365.6L302.93,367.51L301.38,369.48L304.36,396.62L305.71,402.19L293.64,401.68L285.29,402.03L283.47,398.5L278.08,396.35L276.6,394.64L272.21,396.41L270.66,399.76L267.29,400.76L263.83,403.48L260.39,404.15L260.63,409.4L259.23,412.5L255.59,415.06L249.12,413.66L246.94,414.64z"/>
		<path id="C22081" title="Red River" class="land" d="M142.62,171.42L145.77,175.35L148.34,180.41L146.43,182.21L150.92,189.44L148.06,194.74L147.46,198.62L153.61,205.82L134.07,205.78L133.9,219.31L130.74,218.24L126.75,222.45L123.18,220.47L120.4,222.23L115.41,220.25L116.16,218.96L113.82,215.33L114.58,213.71L112.81,213.02L111.72,207.96L107.06,204.7L106.1,202.85L100.24,202.58L97.41,199.09L97.1,196.5L93.63,194.2L93.86,189.43L90.24,188.14L88.14,183.68L83.9,180.47L84.42,178.32L88.94,174.76L85.71,164.22L74.94,160.2L71.39,153.96L95.29,154.03L102.46,154.28L138.29,154.31L137.89,159.85L141.83,165.55z"/>
		<path id="C22083" title="Richland" class="land" d="M354.9,101.27L355.76,100.96L357.29,97.69L357.58,95.25L359.95,94.26L360.78,95.5L362.43,97.59L365.2,98.89L367.31,97.61L367.67,93.62L371.16,90.83L372.13,88.7L374.44,89.52L376.23,90.22L380.24,90.99L381.85,91.19L384.4,87.44L386.53,82.52L394.45,80.15L400.25,72.18L400.8,69.5L407.58,69.52L407.72,86.26L432.83,86.31L435.22,90.4L430.78,95L429.89,95.36L428.9,97.21L427.67,99.88L426.64,102.05L426.54,103.92L426.22,105.83L426.62,107.28L426.99,109.16L427.72,111.13L427.55,112.53L427.81,113.84L428.29,114.85L427.33,114.73L425.97,115.7L425.88,117.33L426.1,119.25L427.6,120.94L401.24,121.03L397.35,124.8L393.69,125.31L393.67,127.35L390.59,128.05L390.14,132.9L386.53,135.11L380.18,134.84L378.48,151.9L374.23,156.39L370.44,158.63L367.6,165.93L359.28,168.03L357.95,170.81L357.42,170.21L357.63,169.15L356.68,167.96L354.91,167.7L351.08,167.73L349.59,166.48L346.8,167.31L344.41,165.96L343.62,163.56L343.61,162.49L342,161.82L339.17,161.24L340.98,160.12L342.2,158.97L341.91,156.85L341.48,155.91L340.73,152.82L340.85,151.16L341.04,149.31L334.68,146.21L337.11,142.17L338.85,134.24L338.9,129.48L341.38,121.87L349.7,112.5L350.68,105.63z"/>
		<path id="C22085" title="Sabine" class="land" d="M34.69,281.18L34.69,281.18L33.95,278.68L34.17,277.17L35.87,275.27L36.52,275.73L37.39,275.66L37.71,274.11L37.51,269.17L36.24,266.61L36.1,265.47L36.84,264.09L37.61,264.45L39.77,261.81L40.1,260.35L40.06,259.45L39.94,258.89L39.3,258.19L38.79,257.95L38.08,257.57L37.87,256.7L37.9,255.31L37.34,253.4L36.42,252.32L35.41,250.09L35.49,248.38L35.96,247.45L36.75,244.68L36.61,244.38L35.94,243.86L35.31,243.38L34.74,242.78L34.37,241.72L34.37,240.66L33.85,239.79L32.82,239.13L31.62,238.45L28.7,236.24L28.06,235.29L28.05,231.6L27.3,230.94L100.3,230.7L100.2,256.2L117.32,256.24L117.58,290.54L134.37,290.5L134.46,324.28L108.74,324.35L100.07,341.32L84.59,341.38L84.52,345.97L81.08,348.38L83.11,355.66L81.74,358.99L81.72,358.99L80.34,359.59L78.91,360.54L77.3,362.51L75.75,362.87L74.03,361.1L73.78,360.82L73.43,359.58L72.62,355.15L73.11,353.23L73.11,352.16L72.96,351.51L72.6,350.91L72.2,350.45L71.17,349.61L71.12,347.55L71.45,346.19L71.51,344.68L70.44,342.42L66.75,342.72L64.34,340.35L62.35,337.19L61.26,336.6L59.83,336.46L59.36,335.8L59.2,334.89L60.96,330.89L62.43,326.51L62.87,326.09L63.06,325.6L63.22,325.15L63.19,324.78L63,324.4L62.35,323.91L62.22,322.86L62.48,322.22L62.42,321.4L62.14,319.88L61.9,318.68L61.49,317.84L57.86,315.56L56.9,315.57L56.36,315.27L56.39,313.72L57.57,311.87L57.02,310.05L55.6,309.03L48.93,304.04L48.86,302.76L48.86,302.05L49.2,301.66L49.57,301.46L50.19,301.15L50.98,300.94L52.01,299.49L52.38,298.58L52.85,297.16L52.72,295.7L51.6,295.38L50.62,295.03L50.45,294.63L50.32,294.04L50.25,293.57L49.95,293.05L49.37,292.89L48.86,292.86L48.53,292.97L48.2,293.03L47.17,293.3L43.7,293.02L42.56,292.63L40.83,291.33L37.42,287.29L37.05,286.63L36.69,284.7z"/>
		<path id="C22087" title="St. Bernard" class="land" d="M862.73,634.61l-4.11,6.59l-8.43,11.63l-0.68,-0.3l-0.31,-0.72l0.79,-2.34l3.56,-3.72l1.41,-0.96l3.61,-5.7l2.74,-5.51l0.94,-2.72v-3.64l1.12,-2.77l2.46,-2.15l0.58,-1.69l1.12,-5.59l-0.09,-0.72l-1.07,-0.92l2.01,-2.87l0.49,-8.01l-1.52,-4.62l-0.22,-3.34l0.54,-1.03v-1.23l-0.72,-1.85l-0.18,-2.26l-1.25,-3.39l-1.5,-2.78l-2.06,-3.06l-1.96,-1.8l1.83,0.76l2.48,2.83l2.39,4.14l1.25,2.67l1.59,5.43l1.19,6.93l-0.19,8.63l-1.4,8.03l-1.03,4.4l-1.89,5.42L862.73,634.61zM697.88,585.83l-0.5,0.65l0.87,5.13l1.35,4.21l0.95,1.88l1.58,1.26l1.83,0.97l2.26,0.3l4.83,-0.92l4.49,-1.61l3.43,-2.48l1.48,0.97l1.03,1.41l-3.9,1.93l-1.07,0.07l-0.59,1.47l0.63,3.83l5.22,5.52l3.19,2.02l3.41,0.23l1.83,0.88l3.76,-0.22l4.14,-1.55l2.5,-1.77l1.16,-2.99l-0.19,-3.87l1.54,-2.76v-2.65l1.35,-2.65l0.09,-4.65l-1.16,-2.1l1.64,-1l3.37,-1.11l8.28,-5.42l1.25,-1.33l-0.1,-1.88l-0.77,-1.55l0.96,-2.55l1.93,-1.33l3.83,3l2.39,0.48l2.59,1.67l1.76,0.48l7.68,-0.95l0.62,1.43l-0.62,2.03l-1.45,1.19l-2.08,0.12l-3.74,1.79l-1.14,0.95l-1.66,1.43l-0.1,3.22l0.1,2.38l4.57,2.5l1.97,-0.12l2.39,0.48l0.1,8.46l1.76,1.55l6.02,-0.83l2.74,-1.41l5.31,-9.59l1.71,-3.92l3.8,-1.63l1.14,0.98L798.6,592l5.31,0.54l-0.95,2.07l-1.23,6.97l-2.28,-0.87l-3.04,0.11l-2.85,0.87l-6.36,5.12l-0.66,2.07l1.8,1.09l3.7,0.22l2.84,-1.2l5.12,-0.54l0.85,0.54v1.85l-3.04,2.39l-2.56,0.87l-4.17,0.54l-3.79,1.2l-7.59,0.98l-3.42,1.31l0.09,1.63l1.71,0.98l4.55,0.98l0.48,4.13l1.8,1.52l2.28,0.33l4.17,-2.72l2.66,-0.87v1.52l-1.14,0.76l-0.1,4.89l2.56,1.74l-0.29,0.87l-5.69,-0.11l-1.8,-0.76l-1.52,-2.17l-2.09,-1.31l-2.75,-0.43l-2.18,1.2l-3.13,-2.61l-1.42,0.76l-0.76,2.72l-2.56,3.48l-2.28,2.07l0.67,8.38l-3.98,-1.08l-3.98,-2.92l-2.49,-1.4l-3.18,-1.09l-4.03,-2.31h-1.65l-3.34,1.58l-2.12,-2.13l-4.19,-0.18l-5.99,-1.03l-2.86,0.67l0.26,5.65l0.85,1.7l4.35,1.94l3.23,-0.79l1.01,0.55l-1.11,2.25l0.48,1.15l3.82,1.94l2.76,0.73h3.92l7.64,7.59l0.42,1.15l-0.22,0.64l-5.31,-5.36l-4.57,-0.7l-4.15,-2.34l-9.54,-2.98l-5.35,-5.36l-3.93,-1.39l-1.39,-4.28l-2.26,-2.8l-2.55,-0.86l-7.78,0.44l-3.97,-1.19l0.89,-2.24l-5.03,-5.36l-7.23,1.58l-1.65,-0.46l-6.88,-13.97l1.45,-2.34l-3.11,-6.68l-3,-1.69l-5.12,-0.03l-7.05,-4.07l3.7,-8.33l2.6,-1l3.5,2.58l2.38,0.16l4.14,-3.58l3.17,-0.62l2.25,3.09l3.29,-0.4l-0.59,-1.69L697.88,585.83z"/>
		<path id="C22089" title="St. Charles" class="land" d="M627.07,593.46L628.99,605.53L633.12,610.15L633.62,613.71L643.28,620.29L644.78,620.32L645.77,622.25L639.93,635L635.63,646.19L615.96,645.95L614.97,645.53L613.4,643.25L613.53,637.6L611.6,633.25L606.12,630.48L602.02,630.09L594.43,623.24L593.68,616.52L590.52,613.14L587.71,613.21L584.83,608.65L583.35,608.08L584.52,603.59L583.36,599.01L583.29,590.37L582.04,586.87L583.98,584.1L591.25,581.59L598.81,581.04L627.35,543.08L627.12,577.93L627.03,584.78L627.07,586.1z"/>
		<path id="C22091" title="St. Helena" class="land" d="M536.05,395.04L543.06,395.03L543.71,395.03L544.35,395.02L545.46,395.04L547.22,395L551.25,395.07L551.27,395.07L565.14,395.02L565.55,395.02L575.56,394.99L575.78,395L576.26,394.98L576.42,394.98L579.14,394.97L579.09,443.18L579.22,443.67L579.36,459.81L579.14,462.49L521.91,462.61L528.53,454.14L531.52,453.69L532.18,449.13L533.76,449.07L531.95,442.38L533.36,440.23L532.91,434.94L534.22,434.09L534.56,431.02L532.32,425.9L532.87,422.95L530.18,420.09L532.79,416.78L530.43,409.03L530.64,406.38L529.9,405.7z"/>
		<path id="C22093" title="St. James" class="land" d="M564.29,608.52L560.23,607.88L558.64,605.53L554.17,607.12L552.22,604.44L549.11,604.18L544.13,602.25L542.74,602.33L542.82,605.03L526.09,605.44L525.99,599.65L519.38,599.78L519.34,591.5L513.71,591.56L513.08,574.61L517.76,570.92L521.25,566.49L521.1,565.69L566.67,555.45L564.72,568.9L561.88,569.33L563.48,577.61L558.87,580.45L561.79,588.75L562.65,593.8L562.84,605.05z"/>
		<path id="C22095" title="St. John the Baptist" class="land" d="M566.67,555.45L568.19,545.18L568.21,544.9L573.82,545.75L577.32,549.77L579.83,550.3L583.19,548.9L586.6,545.24L590.68,538.27L592.29,537.13L599.65,534.42L606.79,532.59L611.62,532.96L615.27,530.43L624.09,531.04L627.35,543.08L598.81,581.04L591.25,581.59L583.98,584.1L582.04,586.87L583.29,590.37L583.36,599.01L584.52,603.59L583.35,608.08L564.29,608.52L562.84,605.05L562.65,593.8L561.79,588.75L558.87,580.45L563.48,577.61L561.88,569.33L564.72,568.9z"/>
		<path id="C22097" title="St. Landry" class="land" d="M258.23,495.13L259.78,493.08L263.05,492.28L263.95,486L265.54,484.8L270.31,483.91L296.64,483.92L296.71,478.26L305.17,478.26L305.15,469.59L306.43,467.27L307.02,461.31L311.69,457.91L311.67,450.28L311.69,439.75L305.2,434.89L304.97,424.18L371.19,424.28L373.99,427.97L372.52,431.43L378.94,436.38L381.02,441.26L380.74,444.95L384.74,452.2L385.15,458.68L382.66,460.8L383.57,465.86L381.28,469.73L381.84,471.41L380.85,479.01L385.16,489.04L381.04,491.81L383.79,500.41L386.63,500.55L391.35,510.27L393.91,511.62L371.62,511.71L362.19,507.29L350.87,511.62L346.13,508.61L344.1,509.12L342.29,516.64L337.79,516.1L335.91,518.31L331.07,514.79L326.53,518.18L324.69,524.05L316.72,530.04L316.84,525.83L314.01,525.83L313.99,520.27L311.13,520.3L311.02,503.52L299.72,503.56L299.63,495.19z"/>
		<path id="C22099" title="St. Martin" class="land" d="M490.36,644.79l-2.04,-0.67l-3.64,-4.04l-7.87,-0.87l-5.64,-4.31l-2.37,0.44l-11.53,-3.06l-8.86,-0.25l-5.79,-3.32l2.14,-9.69l-4.58,-7.48l-1.96,-5.87l-9.84,-8.37l0,-1.54l36.11,-2.96l1.26,3.89l2.68,2.96l-0.07,3.34l2.99,2.03l2.57,9.15l2.63,2.59l5.43,1.79l2.86,-0.09l3.67,2.06l3.05,4.77l-1.26,5.46l1.8,3.27l-0.98,3.6l-1.86,0.68L490.36,644.79zM427.84,543.4l-2.4,4.37l2.95,3.78l0.63,7.25l1.15,3.39l-1.58,4.06l1.16,1.45l12.48,0.04l1.82,1.43l1.53,6.9l-19.72,0.15l-1.37,3.2l-2.06,1.55L407,580.98l-1.99,-6.66l-3.04,-0.75l-5.16,-7.29l-2.92,0.93l-4.04,-3.07l-4.44,-0.26l-5.87,2.68l0.76,3.4l-3.12,0.97l-6.65,7.99l-9.5,-4.51l-3.34,2.01l-1.83,-2.95l-7.29,-0.14l2.82,-8.94l4.75,-6.66l-2.53,-6.38l-9.8,1.15l0.49,-5.57l3.12,-0.19l2.52,-4.74l-2.68,-0.11l-2.83,-4.58l4.47,-3.02l-0.99,-6.07l-1.82,-3.36l1.67,-1.54l0.33,-4.98l-5.8,-1.69l1.8,-7.52l2.03,-0.51l4.74,3.01l11.33,-4.33l9.42,4.42l22.29,-0.09l-2.57,-1.35l-4.72,-9.72l-2.84,-0.14l-2.75,-8.6l9.21,0.06l2.61,4.11l1.79,0.33l5.74,6.08l0.09,2.63l1.91,2.91l0.57,3.76l-0.73,3.16l-3.15,2.42l3.74,2.14l-0.34,4.63l1.08,3.87l5.55,7.04l-0.05,3.1l4.21,2.91l9.08,0.32L427.84,543.4z"/>
		<path id="C22101" title="St. Mary" class="land" d="M493.26,658.72L487.51,660.4L486.55,662.27L483.79,662.05L479.75,665.13L476.42,662.22L471.86,665.51L469.51,668.26L469.88,670.77L467.09,673.57L462.18,675.34L462.77,680.06L461.43,686.72L462.77,688.06L460.16,686.31L457.99,687.2L451.09,685.49L449.78,684.21L449.4,681.94L447.61,679.91L440.01,680.53L436.97,679.8L435.86,678.95L434.99,676.55L433.73,675.1L432.49,674.28L428.93,674.36L420.84,677.14L418.55,676.79L418.48,676.06L419.42,674.05L419.47,672.91L418.85,671.64L417.48,670.25L416.73,664.82L414.8,657.5L413.57,656.62L411.96,656.44L410.08,656.66L407.03,657.8L402.88,658.75L399.76,657.91L398.9,657.33L398.95,656.75L399.32,656.23L399.86,656.07L400.84,654.74L402.51,651.9L402.88,650.08L402.59,647.58L403.09,644.82L403.98,642.61L404.04,640.72L403.48,637.91L401.59,636.54L395.88,635.92L388.58,637.23L384.19,635.25L381.69,635.46L376.46,636.9L368.66,641.06L366.08,643L363.97,644.08L362.65,643.31L360.28,642.6L360.24,642.13L360.69,641.6L361.13,640.41L366.94,635.09L388.54,616.78L402.94,597.8L428.39,595.75L428.39,597.29L438.23,605.66L440.19,611.53L444.77,619L442.63,628.69L448.42,632.02L457.28,632.27L468.81,635.33L471.17,634.9L476.81,639.2L484.68,640.08L488.32,644.11L490.36,644.79L489.55,655.64z"/>
		<path id="C22103" title="St. Tammany" class="land" d="M725.33,499.21L726.39,500.65L726.48,501.8L726.15,503.01L726.37,503.89L726.63,504.06L726.87,505.05L727.2,507.91L726.93,508.42L726.76,508.4L726.57,508.11L726.27,508.18L726.34,509.48L727.1,510.61L728.16,512.67L728.6,513.98L729.92,516.13L730.24,517.62L730.76,518.96L731.51,519.15L732.5,519.73L732.68,519.96L732.75,520.57L734.24,521.37L735.33,522.27L735.22,523.49L735.31,525.78L735.85,526.85L735.92,527.08L735.01,528.03L734.58,528.23L733.64,528.42L733.55,528.52L733.34,529.09L733.05,532.18L734.01,532.69L735.05,533.72L735.2,534.32L735.33,536.11L735.18,537.1L735.08,537.17L734.92,537.47L734.99,538.09L735.8,539.08L736.31,539.43L737.59,539.92L737.93,540.45L737.94,541.05L737.64,542.24L737.44,543.73L737.46,544.1L737.64,544.56L738.19,545.27L738.51,545.54L739.01,545.73L740.08,545.92L740.84,546.75L742.14,548.95L742.39,549.93L742.66,550.52L743.49,551.66L744.54,552.52L745.26,552.79L746.57,552.38L747.84,551.73L748.47,551.08L748.77,550.62L749.12,550.33L750.04,549.89L750.51,549.81L751.39,550.01L751.87,550.5L752.29,551.18L752.86,552.7L751.75,553.4L750.7,554.43L747.78,554.61L746.48,555.02L745.57,555.92L744.93,556.61L742.44,558.47L741.11,558.62L740.61,558.13L737.36,557.37L736.47,558.14L731.05,556.81L726.08,553.74L721.29,556.45L715.85,553.4L707.94,558.34L706.18,558.24L704.77,557.19L703.77,552.9L696.8,550.9L693.85,549.16L688.21,551.35L674.03,558.68L666.89,554.28L662.21,553.66L656.07,550.58L645.52,548.34L633.15,544.32L632.85,475.94L633.12,472.79L631.81,467.24L633.09,463.49L631.7,452.7L630.72,451.9L630.82,450.6L631.04,450.56L631.69,450.66L674.54,459.54L699.82,459.41L700,459.49L699.74,459.85L699.36,459.88L699.15,459.8L698.82,459.56L698.54,459.64L698.25,460L698.32,460.33L700.13,460.85L700.96,461.09L701.42,461.04L702.8,462.6L703.32,463.64L703.95,465.57L703.09,467.73L703.39,468.31L703.49,468.61L703.23,469.34L703.08,470.54L703.42,470.75L704.15,470.46L704.4,470.47L704.64,470.64L704.54,470.94L704.1,471.95L703.68,472.74L703.66,473.02L703.88,473.53L704.23,473.73L704.94,473.77L705.78,474.56L705.67,474.85L705.34,475.07L705.82,477.51L705.6,478.13L705.63,478.29L705.93,478.38L706.34,478.26L706.97,478.03L707.88,477.97L708.58,478.38L708.68,478.56L708.62,478.8L708.22,479.23L707.51,479.5L706.92,479.12L706.71,479.11L706.49,479.27L706.31,479.72L706.32,480.04L706.5,480.23L707.87,480.49L708.35,481.46L708.3,481.99L707.96,482.08L707.76,482.11L707.73,482.24L707.74,482.41L707.99,482.54L708.45,482.71L708.87,482.82L709.63,482.89L710.25,482.79L710.37,482.84L711.07,483.9L711.69,485.55L711.84,486.02L711.96,487.16L712.27,488.49L713.53,488.34L713.82,488.86L713.86,490.23L713.94,490.34L714.8,490.9L715.89,490.87L716.49,491.63L716.56,491.89L717.86,492.39L719.27,492.81L719.52,492.93L720.09,493.57L720.35,494.61L720.98,495.65L721.54,495.7L721.93,495.55L722.03,495.64L722.7,496.69L723.32,498.09L724.31,498.44L725.27,499.14z"/>
		<path id="C22105" title="Tangipahoa" class="land" d="M579.14,394.97L582.4,394.97L592.54,394.98L592.69,394.97L594.12,394.98L594.34,394.97L594.65,394.96L599.92,394.97L600.04,394.97L600.77,394.97L602.52,394.96L603.31,394.96L610.24,394.94L612.1,394.86L615.79,394.85L615.87,413.2L618,413.19L618.67,416.01L620.84,416L620.71,419.34L623.46,423.76L625.28,429.74L624.76,432.31L627.07,434.53L627.38,437.45L629.88,440.26L629.25,442.63L631.39,446.08L631.04,450.56L630.82,450.6L630.72,451.9L631.7,452.7L633.09,463.49L631.81,467.24L633.12,472.79L632.85,475.94L633.15,544.32L627.35,543.08L624.09,531.04L615.27,530.43L611.62,532.96L606.79,532.59L603.74,531.7L599.86,528.92L594.69,522.95L594.03,518.98L591.65,517.14L589.79,517.88L590.39,515.37L587.19,508.31L582.65,504.79L581.98,497.5L580.9,494.46L579.19,493.87L579.14,462.49L579.36,459.81L579.22,443.67L579.09,443.18z"/>
		<path id="C22107" title="Tensas" class="land" d="M501.91,178.09L501.94,179.3L501.24,180.69L500.59,181.24L495.92,183.77L493.7,184.98L493.45,185.25L493.41,185.64L493.85,190.63L493.66,191L493.31,191.16L490.58,191L489.75,190.63L487.98,189.07L486.35,186.41L485.6,185.49L484.55,184.74L483.82,184.47L482.85,184.55L482.23,184.78L481.07,185.68L480.32,186.7L480.1,187.21L480.03,187.68L480.03,188.26L480.15,188.77L480.53,189.52L480.98,190.16L481.8,190.83L482.85,191.36L486.18,192.08L491.11,193.14L492.35,193.72L492.96,194.31L493.26,194.86L493.56,195.87L493.71,196.88L494.38,197.17L492.01,200.43L491.01,201.47L489.68,202.35L487.47,202.99L479.63,203.87L478.67,204.55L477.47,205.69L476.24,207.19L475.65,208.09L475.52,208.78L475.57,209.62L475.45,210.95L474.84,213.04L474.89,213.17L475.19,213.33L476.25,213.15L476.42,213.52L476.22,215.36L476.85,216.08L476.94,216.49L476.5,216.85L475.5,217.22L475.24,217.47L474.94,218.02L474.74,218.13L474.12,218.31L473.54,218.21L473.24,218.45L472.85,219.19L472.24,219.91L469.21,222.91L467.89,224.52L465.68,225.89L462.97,226.75L462.62,226.98L462.42,227.29L462.21,228.07L462.24,228.76L462.36,229.17L462.61,229.54L463.52,230.52L466.1,233.05L466.2,233.39L465.81,235.17L465.36,236.06L464.44,237.05L463.37,237.69L462.17,237.73L460.92,237.3L460.34,236.95L460.01,236.64L459.56,235.94L459.07,234.81L458.81,233.93L458.69,232.95L458.82,230.38L458.14,227.78L457.92,227.72L452.56,228.8L451.41,229.13L450.64,229.52L449.88,230.38L449.43,231.16L447.13,239.65L446.43,243.35L446.13,247.01L447.84,247.7L452.72,247.03L456.82,246.01L459.37,244.97L461.4,245.14L463.2,245.96L463.77,247.07L463.14,248.4L461.12,250.15L458.42,250.2L455.25,249.45L454.07,249.31L453.74,249.28L450.6,249.27L447.65,249.45L446.21,249.63L445.08,250.65L443.67,252.54L444.05,249.74L434.92,249.09L416.26,248.94L410.61,239.14L412.27,234.26L411.1,223.41L415.9,217.71L420.87,205.71L423.95,198.17L423.32,189.06L424.62,185.46L424.38,181.74L422.69,179.95L422.91,177.09L422.96,172.69L425.03,167.59L424.93,160.66L453.59,160.83L454.81,158.78L460.15,157.22L461.86,155.2L463.04,157.11L467.86,159.33L471.12,154.83L476.44,152.41L484.71,151.64L486.8,153.51L486.36,159.14L485.62,158.73L485.33,158.64L484.77,158.68L480.7,160.93L480.03,161.5L479.67,161.92L479.02,163.93L478.53,165.91L478.09,168.32L477.94,170.13L478.12,171.3L478.42,172.23L479.46,174.18L479.9,174.5L481.19,174.59L482.97,174.95L484.27,175.54L485.13,175.77L488.06,175.86L488.48,176L489.75,175.02L490.17,174.8L491.76,174.32L493.43,174.24L494.19,174.34L495.52,174.74L496.77,175.63L498.17,176.15L499.35,176.62L500.53,176.91L501.9,176.87L501.88,176.87z"/>
		<path id="C22109" title="Terrebonne" class="land" d="M505.9,641.85L526.99,641.46L526.67,635.89L533.54,635.79L533.31,633.25L535.72,630.19L539.07,630.18L539.57,635.22L542.33,635.6L545.87,645.53L549.12,648.68L556.12,651.56L560.22,656.22L564,662.25L570.46,664.11L573.33,668.92L577.9,671.53L578.94,676.1L581.87,676.84L589.25,687.04L595.51,691.53L599,698.43L603.9,703.73L606.44,704.84L609.61,708.35L610.4,711.53L609.25,716.15L610.88,720.31L609.74,724.29L605.43,732.31L605.43,740.59L601.51,742.11L601.01,742.05L599.67,740.64L594.92,741.24L594.79,740.76L595.54,740.14L595.79,739.37L592.7,737.98L591.18,736.68L591.84,735.89L595.61,734.62L596.04,731.7L596.52,730.39L598.55,727.75L598.3,727.27L594.87,726.07L591.12,723.27L588.58,722.58L587.46,724.14L585.97,725.32L581.67,724.94L579.43,723.68L576.58,725.41L575.38,730.64L575.59,731.14L576.35,731.71L577.59,731.5L579.44,731.79L582.91,734.03L583.13,734.56L582.95,735.24L580.92,736.07L580.77,738.36L580.19,739.04L577.79,738.56L570.6,739.23L569.65,737.88L569.1,737.76L568.04,738.12L566.97,740.51L566.07,744.43L566.15,744.99L566.86,745.31L567.51,746.58L565.83,753.41L560.72,755.28L558.49,754.71L556.86,754.76L554.01,755.68L551.81,754.49L546.32,756.3L544.77,758.81L540.44,761.23L540.01,762L539.73,765.72L540.56,767.4L543.35,768.42L546.15,768.43L548.67,767.7L552.8,765.17L555.49,765.6L556.12,765.91L556.66,766.37L558.31,766.49L559.74,766.24L560.85,765.73L562.74,765.05L564.95,764.67L566.31,764.24L566.8,764.08L567.13,763.98L567.4,764.13L567.67,764.56L567.43,765.17L565.67,765.92L551.86,769.78L547.73,770.4L540.74,770.26L538.44,770.86L533.79,770.37L533.23,769.65L532.88,768.56L533.48,767.51L532.92,765.04L529.89,759.81L529.06,759.7L527.42,757.91L526.13,755.6L523.99,752.89L519.39,748.75L516.71,747L515.68,744.77L513.48,743.5L510.12,745.32L507.01,745.65L503.04,744.64L501.73,743.24L497.26,743.32L491.36,742.19L487.91,738.35L485.51,736.84L473.76,735.81L470.53,734.91L460.58,730.78L456.6,727.32L451.23,721.09L451.59,719.75L455.49,719.77L457.2,719.14L458.41,718.7L458.64,718.37L460.42,715.9L460.93,715.18L461.01,714.62L461.32,712.32L461.94,710.32L462.03,710.03L462.05,709.97L462.61,709.21L462.79,709.11L465.12,707.8L465.17,707.77L465.45,707.61L465.52,707.57L466.11,707.43L467.29,707.16L467.81,707.42L469.98,709.31L472.49,709.31L474.13,707.57L473.69,703.83L470.63,700.46L471.04,699.46L471.32,698.78L471.71,697.85L471.19,696.6L470.8,695.64L470.69,695.52L470.5,695.29L470.18,694.91L466.77,694.03L465.15,693.37L464,692.9L463.78,690.8L463.73,690.31L463.71,690.07L463.7,690.02L463.44,689.47L462.77,688.06L461.43,686.72L462.77,680.06L462.18,675.34L467.09,673.57L469.88,670.77L469.51,668.26L471.86,665.51L476.42,662.22L479.75,665.13L483.79,662.05L486.55,662.27L487.51,660.4L493.26,658.72z"/>
		<path id="C22111" title="Union" class="land" d="M329.55,58.53L325.39,65.49L320.28,68.27L317.25,67.92L317.4,70.79L303.54,80.69L303.12,84.65L299.08,84.9L295.04,86.5L290.85,85.13L290.31,86.17L271.26,86.13L271.26,68.96L254.05,68.83L253.93,59.05L249.52,59.49L245.23,53.49L241.92,52.3L238.21,52.71L234.36,51.36L219.55,51.33L219.55,42.67L218.11,42.67L219.56,39.8L219.66,1.01L219.86,1.01L221.14,1L221.9,1.02L256.48,1.44L256.88,1.44L262.15,1.47L278.72,1.73L279.96,1.75L284.45,1.8L291.65,1.85L303.29,2.05L328.9,2.23L328.92,3.88L326.85,9.92L326.98,13.6L327.65,20.02L327.01,22.63L326.28,27.84L329.96,37.78L331.39,46.68L330.42,56.12z"/>
		<path id="C22113" title="Vermilion" class="land" d="M345.34,624.75L344.02,625.73L343.1,626.63L334.47,629.08L331.02,630.87L322.51,636.19L316.35,641.54L315.53,645.23L318.03,650.49L318.29,652.21L321.79,659.59L324.85,660.18L329.48,659.94L332.47,659.07L336.2,658.85L337.7,660.17L340.35,661.24L339.34,662.19L338.79,664.05L337.17,665.08L336.18,666.53L335.56,666.71L333.98,666.6L333.55,667.24L332.7,666.73L329.33,666.83L322.77,666.35L313.98,667.25L304.99,670.9L298.45,675.3L293.7,676.43L288.87,676.51L282.56,675.3L273.41,673.03L261.51,671.16L247.34,669.48L237.73,667.8L237.49,667.73L237.85,580.02L217.35,580.19L218.23,579.81L220.46,578.02L223.52,577.07L225.09,575.98L227.92,574L230.97,572.83L232.86,573.23L235,572.54L235.87,571.24L236.2,569.65L242.68,568.93L247.59,565.12L259.66,574.93L269.91,577.89L277.74,574.58L285.04,567.89L286.42,563.68L289.77,562.62L292.98,559.09L293.81,560.22L302.58,561.11L306.64,559.97L319.02,565.12L325.68,562.76L329.39,573.18L346.34,580.26L343.41,589.14L341.98,589.59L341.47,590.33L342.01,593.01L345.14,619.85z"/>
		<path id="C22115" title="Vernon" class="land" d="M80.73,420.16L79.59,419.21L79.26,418.4L79.2,416.51L79.79,415.21L81.08,413.97L81.22,412.08L81.84,410.65L82.29,410.19L82.68,410.09L82.99,410.23L83.42,410.38L85.34,409.51L86.14,408.45L86.12,406.64L85.07,404.45L82.19,401.28L80.41,400.47L79.17,399.18L78.51,397.32L78.87,395.56L79.17,394.62L79.5,394.04L80.06,393.76L81.23,394.16L83.91,393.28L87.67,390.34L87.76,389.2L87.67,388.62L86.62,387.6L85.29,384.92L85.15,384.23L85.62,383.78L86.27,383.2L86.66,382.3L86.16,381.23L85.32,380.47L83.81,379.83L82.72,378.86L81.99,377.29L81.88,376.1L82.21,374.57L83.6,372.95L83.89,371.34L83.78,369.98L83.05,368.62L83.02,367.21L83.02,366.11L83.16,365.3L83.79,364.61L84.36,364.21L85.21,359.91L84.95,359.21L84.65,358.98L82.34,358.79L81.74,358.99L83.11,355.66L81.08,348.38L84.52,345.97L84.59,341.38L100.07,341.32L108.74,324.35L134.46,324.28L168.42,324.32L168.42,325.06L175.14,325.06L176.3,327.13L176.54,327.18L176.89,327.75L179.72,330.54L185.42,330.55L185.42,332.05L191.02,332.03L193.84,333.43L193.87,339.01L199.4,341.81L199.42,345.87L202.18,346.06L202.51,392.76L203.14,392.76L203.14,416.18L203.2,418.97L177.39,418.47L151.52,418.48L151.53,417.63L103.64,417.51L103.18,417.39L94.09,422.1L86.69,418.2L81.4,418.61L80.73,420.28z"/>
		<path id="C22117" title="Washington" class="land" d="M615.79,394.85L615.79,394.85L615.99,394.85L630.39,394.79L646.2,394.73L646.27,394.72L651.75,394.74L652.25,394.72L665.19,394.69L668.71,394.69L669.94,394.67L672.75,394.66L677.73,394.59L678.17,394.65L685.78,394.64L686.45,394.64L690.71,394.55L691.52,394.58L697.49,394.52L700.98,394.52L701.04,394.52L702.86,394.52L704.22,394.52L714.85,394.56L714.94,394.88L715.05,394.98L715.43,395.01L715.75,394.88L716.09,394.48L716.66,394.25L718.21,393.99L718.69,394.16L718.93,394.45L718.93,394.48L718.94,394.73L718.63,394.97L717.7,394.98L717.92,395.77L718.29,396L718.86,396L719.01,396.21L718.64,398.38L718.54,398.84L718.26,399.16L717.64,399.2L717.48,399.34L717.43,399.55L717.61,399.86L718.89,400.5L719.11,400.78L719.11,401.23L718.95,401.39L718.74,401.45L718.39,401.47L717.97,401.32L717.68,401.38L716.44,402.66L716.36,402.95L715.09,404.31L714.24,405.85L714.2,406.14L714.32,406.61L715.28,407.34L715.48,407.7L715.48,407.91L715.28,408.49L715.59,409.74L716.1,409.92L716.22,410.28L716.16,410.59L715.84,411.2L715.28,411.75L714.61,411.78L714.06,411.35L713.73,411.33L713.19,411.6L712.93,411.95L712.88,412.27L713.02,412.76L713.36,412.98L713.66,413.05L714.18,414.04L714.12,414.46L713.84,414.77L713.51,414.97L712.78,414.85L711.92,414.37L711.63,414.42L711.44,414.57L711.37,414.86L711.63,416.14L711.96,417.68L711.05,417.83L710.78,417.91L710.53,418.33L710.43,419.05L710.63,419.39L712.25,420.74L712.33,420.9L712.3,421.23L711.67,423.01L711.53,423.2L711.17,423.28L710.5,422.79L710.02,422.63L709.73,422.75L709.62,422.89L709.56,423.19L709.66,423.5L710.14,424.19L710.26,424.64L710.19,424.78L709.85,424.82L709.04,425.05L708.61,426.23L708.49,427.36L708.56,427.58L708.72,427.68L709.16,427.65L709.63,428.28L710.1,429.68L709.89,430.09L709.31,430.48L708.34,429.63L707.52,429.38L707.38,429.42L707.19,429.54L706.95,429.88L707.02,430.63L706.89,431.55L706.29,432.94L706.19,433.08L705.6,433.46L705.27,433.59L705.1,433.77L705.05,433.95L705.15,434.07L705.53,434.54L705.78,434.74L705.92,434.84L706.15,435L706.18,435.18L706.11,435.38L705.83,435.67L705.19,435.87L704.95,435.79L704.86,435.52L704.71,435.1L704.64,434.76L704.23,434.32L704.04,434.32L703.77,434.48L703.45,435.01L703.38,435.26L703.44,435.76L702.9,437.49L701.71,439.81L702.32,441.59L702.67,443.73L702.62,444.69L703.05,444.95L703.71,445.01L704.17,445.13L704.28,445.26L704.21,445.54L704.05,445.66L703.37,445.79L702.6,445.8L701.33,445.72L701.06,445.86L700.82,446.17L700.81,447.42L700.91,447.61L701.45,447.69L702.29,448.03L701.95,449.71L701.64,449.89L700.92,449.73L699.33,451.44L699.2,451.66L699.31,452.05L699.7,452.37L700.01,452.33L700.41,452.06L700.62,452.08L700.99,452.94L701.05,454.56L700.83,454.67L699.47,457.73L699.1,458.63L699.33,458.84L699.66,458.88L699.91,458.69L700.07,458.26L700.2,458.08L700.49,457.92L700.65,458.15L700.5,458.81L700,459.49L699.82,459.41L674.54,459.54L631.69,450.66L631.04,450.56L631.39,446.08L629.25,442.63L629.88,440.26L627.38,437.45L627.07,434.53L624.76,432.31L625.28,429.74L623.46,423.76L620.71,419.34L620.84,416L618.67,416.01L618,413.19L615.87,413.2z"/>
		<path id="C22119" title="Webster" class="land" d="M92.01,0.2L92.07,0.2L92.24,0.2L95.99,0.17L110.97,0.24L117.09,0.22L122.42,0.25L122.46,0.26L134.05,0.29L134.25,59.86L142.72,59.76L143.34,69.74L144.84,76.14L144.02,85.73L145.78,92.65L145.65,98.39L149.4,108.33L149.3,111.21L134.37,111.43L134.37,120.1L111.69,120.09L100.29,120.03L100.29,102.86L99.41,102.83L99.7,51.01L95.54,50.96L96.33,48.93L94.79,45.79L98.16,39.08L95.91,33.86L98.03,33.29L99.15,30.26L93.62,25.36L95.61,20.23L93.69,18.23L91.62,19.36L89.01,16.54L87.24,10.75L85.43,8.71L87.78,3.35L87,0.17L87,0.17z"/>
		<path id="C22121" title="West Baton Rouge" class="land" d="M437.9,484.61L440.79,478.12L446.22,478.1L446.2,474.43L453.72,465.79L455.46,462.48L451.9,460.82L453.33,461.33L455.37,461.73L455.48,462.11L456.42,462.1L456.85,462.19L457.22,462.4L457.43,462.58L458.24,466.05L456.73,470.3L454.5,473.23L456.07,477.32L462.52,477.42L465.72,479.7L466.65,482.14L466.03,484.48L459.65,488.42L460.13,490.2L463.25,490.37L472.15,486.95L474.17,490.01L474.39,503.17L473.74,506.94L471.16,511.76L468.05,515.36L466.79,518.76L467.74,521.27L469.94,522.02L474.62,520.79L481.35,522.29L483.35,525.34L455.11,525.5L453.79,521.39L450.88,519.74L446.6,513.91L441.24,511.48L441.25,508.91L431.5,496.2L430.36,497.08L426.21,491.93L426.75,489.29L437.92,489.16z"/>
		<path id="C22123" title="West Carroll" class="land" d="M400.8,69.5L402.87,67.47L401.93,60.03L407.64,53.18L408.24,44.23L410.49,39.29L414.65,31L424,23.27L430.89,10.7L433.1,5.52L434.42,2.64L436.14,2.66L444.38,2.7L451.54,2.75L452.08,2.78L452.65,2.79L452.87,2.79L453.29,2.79L455.04,2.81L459.64,2.86L462.87,2.84L463.28,4.46L462.04,7.87L461,12.73L456.38,15.79L455.1,20.88L455.12,27.53L453.02,29.73L450.27,31.88L449.23,36.99L450.12,41.9L449.82,48.84L449.74,51L446.6,56.99L444.53,63.41L442.07,64.67L440.22,68.5L440.79,72.56L439.55,77.43L437.5,82.34L432.83,86.31L407.72,86.26L407.58,69.52z"/>
		<path id="C22125" title="West Feliciana" class="land" d="M397.34,396.01l-2.12,-3.14l-5.33,-1.55l-1.83,2.3l-6.02,-2.33l4.38,-4.92l4.53,0.98l5.37,-1.08l3.38,4.31L397.34,396.01zM448.2,448.66l-1.48,-3.38l-3.1,-3.76l-2.74,0.24l-8.89,4.13l-6.08,-1l-3.83,0.2l-7.18,1.83l-3.04,-0.88l-3.89,-2.86l1.69,-4.36l4.54,-1.04l2.96,-2.52l3.97,-13.54l-0.96,-5.54l-4.65,-5.05l-4.62,-0.39l-6.26,0.13l0.84,3.7l5.58,0.97l2.08,1.95l1.2,6.7l-1.19,2.35l-2.5,-1.89l-7.47,1.12l-5.53,-2.04l-0.8,-1.17l0.08,-7.34l2.66,-6.55l-2.93,-8l4.26,-5.62l1.97,0.05l14.39,-0.04l6.43,0.13l0.45,-0.06h11.94l0.35,0l29.51,-0.09l3.61,0.06h0.13l7.97,0.01h0.01l-1,4.78l-2.17,2.23l1.38,5.1l-3.66,4.2l0.27,4.42l-1.64,-0.19l-1.4,4.45l0.98,1.04l-2.45,7.42l0.62,3.02l-2.23,1.68l1.31,2.15l-2.12,0.81l-3.11,5.61l-1.56,-0.2l-2.69,8.26l-4.6,3.12l2.48,4.71l-0.71,4.05l-2.03,-0.4l-1.44,-0.51l-1.63,-2.23L448.2,448.66z"/>
		<path id="C22127" title="Winn" class="land" d="M288.33,214.65L284.42,235.01L280.1,237.9L280.65,239.98L280,240.18L237.24,240.08L237.12,257.15L178.21,257.28L179.05,252.91L179.33,243.17L181.71,242.7L184.06,233.78L182.13,228.58L189.18,229.56L191.36,216.65L192.98,212.34L195.1,211.04L192.96,208.95L193.21,204.15L190.36,202.82L193.01,198.1L191.16,189.7L188.5,185.38L189.67,184.53L188.34,180.23L185.26,176.5L183.95,171.51L204.67,171.71L288.39,171.87z"/>
	</g>
</svg>