<?xml version="1.0" encoding="utf-8"?>
<!-- (c) ammap.com | SVG map of MA Counties -->
<svg xmlns="http://www.w3.org/2000/svg" xmlns:amcharts="http://amcharts.com/ammap" xmlns:xlink="http://www.w3.org/1999/xlink" version="1.1">
	<defs>
		<style type="text/css">
			.land
			{
				fill: #CCCCCC;
				fill-opacity: 1;
				stroke:white;
				stroke-opacity: 1;
				stroke-width:0.5;
			}
		</style>

		<amcharts:ammap projection="mercator" leftLongitude="-73.508234" topLatitude="42.886655" rightLongitude="-69.928125" bottomLatitude="41.237853"></amcharts:ammap>

		<!-- All areas are listed in the line below. You can use this list in your script. -->
		<!--{id:"C25001"},{id:"C25003"},{id:"C25005"},{id:"C25007"},{id:"C25009"},{id:"C25011"},{id:"C25013"},{id:"C25015"},{id:"C25017"},{id:"C25019"},{id:"C25021"},{id:"C25023"},{id:"C25025"},{id:"C25027"}-->

	</defs>
	<g>
		<path id="C25001" title="Barnstable" class="land" d="M979.65,538.08L986.93,524.13L983.19,517.8L1006.2,506.9L1015.77,495.86L1017.35,498.63L1022.56,504.96L1030.55,512.75L1038.24,518.38L1058.44,526.22L1071.14,528.78L1099.99,530.82L1105.38,534.55L1106.37,536.74L1109.33,540.04L1110.85,540.11L1119.17,531.08L1125.59,526.86L1134.76,522.75L1137.22,523.25L1151.08,519.06L1157.77,519.62L1166.63,516.1L1177.48,513.23L1191.01,506.59L1196.58,500.46L1198.16,496.93L1197.94,483.08L1196.39,465.79L1199.41,461.07L1198.47,459.52L1195.32,458.91L1191.15,455.63L1190.73,449.74L1189.03,441.75L1184.09,441.34L1180.85,442.56L1177.02,449.76L1177,455.26L1177.12,460.72L1177.56,464.74L1176.9,465.61L1176.37,465.25L1175.23,462.88L1174.5,455.19L1174.17,437.4L1173,415.94L1170.83,403.77L1168.84,397.88L1166.79,394.24L1162.52,389.3L1157.4,385.6L1148.77,380.88L1146.33,380.67L1141.42,381.9L1138.45,383.42L1135.6,386.16L1132.98,391.19L1132.68,393.63L1133.46,396.65L1135.78,399.52L1135.63,400.17L1134.22,400.11L1132.22,399.01L1128.35,395.2L1124.7,388.27L1119.72,382.82L1117.8,381.55L1116.2,381.51L1115.57,380.06L1118.07,375.86L1122.33,373.24L1128.73,371.72L1134.75,371.52L1144.71,373.23L1159.82,378.27L1171.22,384.23L1179.46,390.78L1188.02,401.16L1195.4,414L1204.23,432.38L1210.21,449.74L1218.17,480.15L1221.37,496.52L1223.87,527.65L1224,550.27L1222.34,560.16L1217.39,571.38L1216.17,573.47L1213.74,574.1L1212.04,576.67L1210.46,579.54L1207.51,590.4L1205.36,600.35L1203.5,612.69L1200.13,617.72L1198.06,618.42L1195.54,618.05L1194.53,616.86L1193.8,614.48L1194.32,613.45L1195.83,613.61L1198.95,609.39L1201.4,602.61L1203.85,588.16L1208.69,573.36L1208.65,570.67L1207.77,567.58L1200.72,561.45L1197.07,559.44L1194.61,559.26L1189.44,561.19L1180.49,562.51L1168.96,563.44L1151.3,569.09L1145.24,569.08L1134.15,571.44L1115.41,579.09L1111.87,582.64L1112.14,584.07L1110.71,587.12L1108.72,587.81L1107.98,587.09L1107.26,583.97L1107.45,580.34L1105.61,577.06L1103.29,576.06L1100.11,576.03L1089.52,578.17L1086.67,576.31L1083.88,575.51L1079.24,576.26L1076.26,577.91L1074.71,579.89L1074.76,581.28L1073.01,584.83L1069.84,586.89L1062.51,589.16L1059.79,588.72L1049.97,589.64L1047.22,595.79L1041.76,604.9L1036.63,610.96L1033.45,612.9L1030.83,613.9L1020.88,615.3L1008.11,615.59L990.54,618.02L982.83,620.18L979.41,622.86L975.83,628.93L972.49,631.2L970.56,631.51L969.62,630.41L968.8,628.76L966.5,629.6L964.12,629.94L963.09,629.46L961.91,625.92L974.27,617.84L975.76,614.87L975.4,611.42L975.9,607.93L977.65,605.79L979.71,604.64L980.33,602.39L979.95,599.78L976.39,589.69L976.55,587.43L980.65,580.85L978.85,576.78L976.34,574.83L977.09,571.92L981.1,569.54L981.46,567.2L978.49,556.32L977.47,555.17L973.31,554.8L978.61,549.31L985.63,547.08L986.24,543.1L985.25,540.55z"/>
		<path id="C25003" title="Berkshire" class="land" d="M7.12,386.53L3.85,386.51L0,369.72L53.21,174.56L83.15,65.32L165.91,67.55L165.63,85.38L191.26,84.73L189.26,91.21L182.39,91.88L181.63,96.35L175.2,98.79L182.28,104.73L189.13,102.51L190.48,113.96L182.16,153.33L184.49,160.72L169.74,234.69L151.2,230.41L150.28,234.27L152.31,258.14L171.62,269.16L171.72,268.62L172.52,267.7L172.58,266.98L173.12,265.94L173.72,265.6L172.28,293.85L161.8,343.37L149.42,341.36L152.82,354.58L148.15,361.53L155.53,391.01L130.22,390.05L95.17,388.71L94.74,388.68L73.53,387.77L73.07,387.75L25.76,386.09z"/>
		<path id="C25005" title="Bristol" class="land" d="M916.58,591.12l1.25,1.59l0.96,4.96l-0.03,0.18l-0.25,1.65l-0.06,0.37l-2.8,-1.16l-2.58,-4.55l-0.18,-0.31l-0.1,-0.18l1.34,-2.8l0.85,-1.77l0.08,0.11l1.29,1.64L916.58,591.12zM748.91,511.74L748.91,511.74l-3.46,-2.01l-0.51,-0.96l0.03,-1.92l-0.99,-2.51l-0.58,-1.01l-0.65,-0.14l-1.2,-0.69l-0.48,-0.91l-0.03,-0.87l0.51,-1.92v-0.96l0.14,-0.82l-0.1,-0.32l-2.74,-6.45l0.79,-2.24l1.81,-1.83l0.68,-0.78l0.82,-0.82l-2.26,-3.75l-0.14,-0.5l2.8,-8l-2.33,-8.83l0.51,-5.4v-0.09l0.21,-2.2l-4.79,0.78l-0.68,0.09l-2.67,0.41l-0.75,0.09l-0.24,0.05l-1.91,0.32l-0.96,0.09l-0.96,0.18l-1.74,0.37v-13.5l0.03,-0.09l0.07,-19.19l-0.03,-0.87l0.01,-8.38l5.67,-0.08L759,402.7l0,-0.03v0l40.89,-21.42l10.28,-5.35l19.98,-10.5l8.71,50.75l1.78,10.04l17.03,15.37l8.89,31.44l-21.49,20.28l7.55,7.83l-4.03,9.36l35.73,-5.64l5.93,15.18l6.15,-1.02l14.09,52.73l0.71,7.37l-0.12,-0.08l0,0l-0.22,-0.15l-2.86,0.94l-0.86,1.2l-0.04,0.06l0.32,2.6l0.01,0.06l0.26,2.15l1.12,9.14l-0.7,1.96l-0.09,0.26l-0.02,0.06l-0.19,0.55l-0.04,0l-1.37,-0.17l-1.92,-5.91l-0.05,-0.15l-0.17,-0.51l-1.71,-5.28l-0.14,-0.42l0.19,-3.64l-0.43,-1.34l-1.04,-1.01l-2.18,-0.89l-2.94,-1.21l-0.54,-0.22l-0.02,0.01l-0.11,0.09l-5.1,3.86l-0.43,0.32l-2.54,1.93l2.97,4.06l1.55,7.68l-0.48,0.46l-3.23,-1.37l-1.97,-5.46l-1.19,-1.52l-2.43,-0.2l-0.87,0.81l-0.09,4.12l0.89,2.91l-1.35,4.49l-2.27,3.09l-1.23,-1.65l-1.82,-0.03l-0.64,0.93l0.51,2.45l3.24,3.83l2.15,11.41l-3.5,0.02l-12.8,4.41l-1.41,4.46l-6.81,3.96l-5.5,1.39l-5.53,4.46l-7.83,-3.15l-9.32,-1.51l-11.94,5.39l-0.63,-11.24l-3.05,-31.93l-0.1,-0.73l-2.01,-3.94l-0.38,-0.41l-0.68,-0.74l-0.11,-1.05l-0.21,-3.95l0.36,-3.56l1.63,-2.05l0.41,-5.83l0,-0.03l0.62,-7.97l-0.08,-0.62l-0.62,-0.18h-0.17l-3.65,-1.04l-2.78,-0.6l-7.56,-1.82v-0.18l0.04,-1.32l-1.81,-0.5l-3.38,-0.82l0,0.04l-1.1,-0.27l-0.43,-0.13l-9.97,-16.15l-0.31,-0.5l-12.2,-18.58L748.91,511.74z"/>
		<path id="C25007" title="Dukes" class="land" d="M961.91,625.92l1.17,3.55l1.03,0.48l2.38,-0.35l2.31,-0.83l0.82,1.64l0.94,1.11l-2,0.33l-10.19,7.25l-9.96,4.7l-7.82,7.46l0.24,1.79l-1.5,2.29l-10.05,6.64l-9.3,0.35l-6.29,1.67l-7.41,7.32l-3.22,1.54l-12.25,0.6l-8.7,2.4l-3.11,1.89l-3.81,1.1l-0.89,-1.17l0.4,-1.61l7.42,-7.24l1.53,0.25l1.61,2.46l2.51,0.37l1.92,-0.56l7.78,-2.97l9.57,-7.57l9.14,-3.43l9.01,-2.01l4.93,-6.25l4.27,-1.3l7.3,-6.73l3.03,-3.96L961.91,625.92zM995.6,650.36l7.33,1.66l2.56,-1.34l1.39,0.95l3.42,7.35l0.11,4.34l-0.9,5.68l0.85,3.15l1.89,3.69l3.17,2.99l3.32,1.88l3.76,0.6l3.62,1.6l1.58,3.74l0.36,3l0.8,0.48l2.8,0.32l2.14,-1.21l4.07,-5.83l-0.15,-4.37l0.77,-1.87l2.38,-2.85l4.58,-0.71l1.44,11l-1.04,7.29l0.34,12.15l-0.97,2.49l-15.41,0.78l-14.41,-1.14l-20.81,-0.14l-37.84,3.43l-8.01,2.49l-4.88,2.85l-5.69,5.1l-1.31,3.06l0.63,1.36l-0.86,2.38l-2.39,1.23l-9.03,-6l-5.93,-5.9l-6.62,-9.07l1.7,-2.8l7.35,-1.07l4.11,0.88l5.81,2.71l2.84,-0.61l2.08,-1.85l13.57,-20.19l1.66,-0.55l4.08,-4.5l0.32,-3l3.46,-7.03l4.96,-4.73l12.84,-8.97l15.65,-9.69l1.75,0.56L995.6,650.36z"/>
		<path id="C25009" title="Essex" class="land" d="M773.62,66.88L777.76,65.53L781.01,64.97L786.34,66.54L786.37,66.55L786.4,66.56L795.4,69.19L793.93,44.55L797.93,39.49L800.22,36.8L800.94,36.2L806.38,33.04L812.26,30.3L817.88,31.99L835.61,37.31L839.23,24.86L841.32,19.75L842.38,17.57L846.89,12.78L869.02,8.18L874.93,4.88L880.91,1.12L881.22,0.93L882.31,0.59L886.66,0L886.66,0.01L890.81,0.03L896.49,1.85L909.32,11.92L913.16,10.04L915.42,8.22L918.5,6.84L920.03,6.65L919.88,16.72L924.16,48.68L928.38,64.77L935.43,81.5L936.05,84.39L933.28,87.31L933.24,89.58L938.11,93.28L943.47,94.1L944.94,94.93L949.94,100.71L950.27,103.37L963.76,108.26L966.09,107.7L966.43,104.08L972.6,97.01L978.91,91.53L984.04,90.01L987.48,92.18L986.51,97.75L986.18,102.62L986.53,104.76L989.26,106.25L995.87,105.01L997.15,110.48L997.24,114.51L996.37,116.73L992.41,116.79L988.03,119.69L982.14,132.83L975.61,141.16L972.14,142L971.07,141.4L971.04,139.72L970.91,137.74L970.24,136.53L969.51,135.58L968.43,135.41L967.38,135.54L966.48,136.1L965.43,138.1L960.62,143.4L949.98,146.13L947.47,143.65L940.55,146.61L924.54,150.71L920.68,154.13L917.98,155.38L909.36,155.98L901.54,157.74L901.2,159.33L903.28,168.73L905.51,169.74L906.41,169.25L911.55,170.18L915.31,177.52L913.64,183.58L911.72,184.92L909.74,183.11L906.18,183.67L898.7,188.98L896.37,192.95L895.86,194.38L896.1,195.4L893.7,197.25L888.99,194.48L885.7,193.97L884.23,194.57L879.79,198.63L880.04,204.75L880.42,207.9L882.1,211.06L887.24,212.57L888.88,213.73L891.07,215.99L889.81,217.88L879.31,217L876.95,208.63L876.84,201.31L875.68,199.4L871.08,204.05L871.02,205.15L863.62,210.91L848.75,204.7L839.27,190.32L845.49,175.95L843.55,167.05L831.83,164.8L833.29,153.35L838.02,144.9L847.88,144.94L837.47,128.78L831.53,131.06L811.3,133.38L803.33,126.95L801.14,133.89L798.72,125.19L770,106.69L776.15,100.76L770.31,69.63z"/>
		<path id="C25011" title="Franklin" class="land" d="M165.91,67.55L197.58,68.47L239.01,69.66L358.88,74.17L417.88,76.6L418.9,76.63L422.68,98.53L437.19,103.93L438.78,114.9L437.75,125.63L428.56,127.56L424.34,132.57L426.3,144.11L421.13,143.65L423.6,163.75L431.9,172.92L416.01,188.66L418.75,206.34L410.93,216.07L407.61,227.87L409.58,231.11L408.09,251.39L395.47,269.65L392.4,267.87L395.68,255.45L392.83,250.47L390.29,224L387.43,215.75L350.24,221.91L348.15,209.75L329.58,212.86L316.96,214.97L274.83,222.8L275.99,200.93L256.58,204.14L256.38,197.23L251.26,194.52L217.79,186.5L216.43,175.84L218.08,167.56L215.81,160.16L182.16,153.33L190.48,113.96L189.13,102.51L182.28,104.73L175.2,98.79L181.63,96.35L182.39,91.88L189.26,91.21L191.26,84.73L165.63,85.38z"/>
		<path id="C25013" title="Hampden" class="land" d="M306.01,277.77L310.87,286.14L302.32,301.97L312.75,312.09L313.1,312.09L328.85,309.89L377.54,302.82L380.43,323.99L393.17,322.16L391.23,314.12L398.3,309.1L423.18,300.54L427.57,303.73L431.19,298.11L440.01,296.65L425.8,316.3L425.43,324.88L447.05,335.26L447.51,338.8L469.48,335.07L469.25,395.42L430.34,394.79L407.21,394.66L359.51,393.7L341.55,393.6L335.08,393.57L319.66,395.47L316.54,397.97L313.84,397.97L308.13,397.83L307.79,395.17L295.76,394.44L277.71,392.42L271.48,392.5L257.22,392.69L256.64,394.02L258.01,394.57L258.62,395.45L257.84,397.65L256.66,399.69L256.43,399.72L255.61,399.27L255.06,399.42L255.01,400.22L255.33,400.95L255.89,401.5L255.38,402.6L254.69,403.42L254.68,404.82L253.7,405.76L253.49,407.92L250.75,408.31L236.4,410.39L237.49,392.56L226,392.37L220.37,392L220.33,392L173.89,391.57L170.75,391.47L155.53,391.01L148.15,361.53L152.82,354.58L149.42,341.36L161.8,343.37L172.28,293.85L173.72,265.6L189.53,251.24L209.42,252.65L213,256.42L214.56,287.39L203.72,299.47L217.44,309.91L222.41,298.84L237.53,296.77L237.86,301.38L244.37,300.52L244.86,309.51L248.24,309.53L248.6,317.58L280.81,325.11L279.58,311.45L286.57,309.88L291.17,304.71L298.68,283.45z"/>
		<path id="C25015" title="Hampshire" class="land" d="M443.48,293.89L443.69,295.75L442.28,295.58L442.2,294.91L441.09,295.11L440.01,296.65L431.19,298.11L427.57,303.73L423.18,300.54L398.3,309.1L391.23,314.12L393.17,322.16L380.43,323.99L377.54,302.82L328.85,309.89L313.1,312.09L312.75,312.09L302.32,301.97L310.87,286.14L306.01,277.77L298.68,283.45L291.17,304.71L286.57,309.88L279.58,311.45L280.81,325.11L248.6,317.58L248.24,309.53L244.86,309.51L244.37,300.52L237.86,301.38L237.53,296.77L222.41,298.84L217.44,309.91L203.72,299.47L214.56,287.39L213,256.42L209.42,252.65L189.53,251.24L173.72,265.6L173.12,265.94L172.58,266.98L172.52,267.7L171.72,268.62L171.62,269.16L152.31,258.14L150.28,234.27L151.2,230.41L169.74,234.69L184.49,160.72L182.16,153.33L215.81,160.16L218.08,167.56L216.43,175.84L217.79,186.5L251.26,194.52L256.38,197.23L256.58,204.14L275.99,200.93L274.83,222.8L316.96,214.97L329.58,212.86L348.15,209.75L350.24,221.91L387.43,215.75L390.29,224L392.83,250.47L395.68,255.45L392.4,267.87L395.47,269.65L408.09,251.39L418.47,247.46L421.75,270.54L443.58,266.21L446.12,275.52L441.15,285.22z"/>
		<path id="C25017" title="Middlesex" class="land" d="M550.28,81.33L602.56,83.25L640.03,84.36L641.54,84.41L672.06,85.39L737.25,87.48L744.66,87.93L756.97,88.02L762.19,81.41L765.96,74.62L770.17,69.75L770.31,69.63L776.15,100.76L770,106.69L798.72,125.19L801.14,133.89L803.33,126.95L811.3,133.38L831.53,131.06L837.47,128.78L847.88,144.94L838.02,144.9L833.29,153.35L831.83,164.8L843.55,167.05L845.49,175.95L839.27,190.32L848.75,204.7L850.59,207.7L846.21,218.79L838.66,231.31L832.43,229.14L830,234.12L835.65,239.65L833.7,239.61L831.2,244.4L823.64,247.12L817.52,245.83L817.49,240.48L812.77,237.44L808.5,241.51L806.76,243.26L800.25,243.77L797.8,248.29L803.94,257.54L796.38,264.85L801.21,269.71L796.48,273.94L792.2,279.25L779.71,264.32L778.56,261.9L772.94,261.55L765.27,258.5L744.82,265.46L753.99,295.26L743.9,295.51L741.85,310.46L739.89,317.15L726.01,321.13L720.04,327.22L705.73,329.01L694.09,337.33L687.5,332.8L685.71,321.42L658.26,319.51L652.65,305.53L656.94,290.07L665.34,286.34L682.14,286.57L687.62,276.13L691.13,257.59L669.13,259.29L657.49,266.39L643.97,248.2L648.99,245L651.32,240.42L659.24,231.37L650.96,226.41L666.42,219.83L671.8,194.68L665.97,191.03L675.84,169.72L673.29,159.28L659.15,155.86L654.25,159.14L645.56,154.94L640.08,160.73L640.17,168.05L625.41,165.16L625.84,160.98L630.32,127.58L592.33,112.47L592.47,115.97L568.7,115.36L564.06,117.28L564.26,98.22L550.84,84.85z"/>
		<path id="C25019" title="Nantucket" class="land" d="M1167.97,729.42L1171.41,728.81L1178.08,724.44L1183.71,718.58L1188.76,710.56L1189.62,701.22L1188.9,697.8L1187.45,695.66L1186.32,693.74L1183.89,690.47L1182.53,688.52L1182.7,686.79L1188.01,689.46L1193.17,697.27L1213.05,738.04L1213.09,744.47L1211.64,748.99L1211.19,749.94L1208.02,752.24L1198.93,755.88L1194.27,756.51L1181.42,754.37L1171.01,753.6L1166.32,755.2L1158.9,754.52L1141.11,748.39L1118.38,736.23L1111.89,733.78L1108.26,730.91L1105.97,727.71L1105.27,723.65L1110.36,723.82L1114.24,725.85L1115.9,726.95L1117.36,730.49L1120.99,732.85L1128.12,732.85L1132.35,730.84L1156.92,731.19z"/>
		<path id="C25021" title="Norfolk" class="land" d="M932.53,293.64l-1.49,12.2l-14.31,11.31l-9.04,-17.91l3,-9.62l6.82,-2.5l4.42,1.38l7.87,4.15L932.53,293.64zM803.94,257.54l11.76,-9.96l5.42,0.88l-3.43,11.96l-3.55,2.46l-8.62,11.06l-4.31,-4.22l-4.83,-4.86L803.94,257.54zM727.13,416.17l0.02,-15.49l-26.23,0.47l-13.73,0.25l-0.91,-45.8l7.65,-6.6l0.14,-11.65l11.64,-8.32l14.31,-1.8l5.97,-6.08l13.88,-3.99l1.96,-6.68l2.05,-14.95l10.09,-0.25l-9.17,-29.8l20.46,-6.96l7.67,3.05l5.62,0.35l1.15,2.42l12.49,14.93l20.63,25.4l6.11,-14.15l13.01,-5.37l10.98,-3.08l0.41,-0.51l0.38,-1.75l0.48,-0.95l1.29,-2.23l-2.19,-7.6l12.41,-0.87l1.52,2.17l-1.78,6.62l0.43,2.48l3.01,5.29l2.4,1.74l7.43,-0.33l6.29,-2l1.17,1.58l3.3,2.25l4.35,0.45l4.18,-1.01l1.59,-2.87l-3.69,7.38l-5.25,1.36l6.01,12.99l-3.43,30.73l-19.29,10.14l-4.04,2.13l-3.05,2l-26.72,14.15l-19.98,10.5l-10.28,5.35L759,402.66v0l0,0.03l-26.2,13.39L727.13,416.17z"/>
		<path id="C25023" title="Plymouth" class="land" d="M863.96,347.11L883.25,336.97L886.67,306.24L880.66,293.25L885.91,291.89L889.6,284.51L893.03,278.31L893.2,274.93L892.74,273.35L886.42,270.31L885.77,268.83L889.17,267.81L897.65,267.37L898.17,271.14L901.71,278.05L904.81,282.52L908.47,286.06L915.32,286.45L917.51,287.13L910.69,289.63L907.69,299.25L916.73,317.16L931.04,305.84L932.53,293.64L935.87,294.84L937.99,297.2L941.5,304.28L943.99,307.44L949.69,312.44L952.52,313.81L953.74,324.43L955.24,331.82L957.99,334.41L965.16,348.25L972.47,359.59L980.59,368.63L981.17,371.87L978.14,374.28L977.85,377.9L979.55,385.99L979.17,388.25L976.93,388.08L970.61,392.27L969.82,399.48L971.24,403.64L970.07,405.72L967.38,406.76L964.65,403.44L961.57,403.17L955.96,405.81L956.7,409.5L960.48,415.2L972.96,427.35L976.66,428.21L977.79,426.85L983.64,431.98L986.29,435.28L988.69,436.69L991.53,436.46L994.98,433.22L999.94,432.2L1010.42,441.52L1012.66,447.42L1012.31,449.63L1012.81,451.82L1017.55,459.87L1019.77,473.97L1016.38,482.82L1014.13,486.53L1013.76,489.65L1014.49,493.62L1015.77,495.86L1006.2,506.9L983.19,517.8L986.93,524.13L979.65,538.08L979.06,537.82L976.86,539.31L974.97,539.45L970.24,536.48L957.33,532.35L953.73,530.17L951.13,531.54L950.24,535.79L952.85,540.56L954.17,549.23L953.44,553.32L950.08,551.89L944.96,547.86L941.21,549.07L939.11,557.06L938.81,561.2L940.24,564.16L940.43,567.34L937.75,573.12L936.43,573.32L934.95,571.55L934.22,569.67L933.91,568.94L922.83,566.35L921.4,566.7L920.57,568.01L920.35,571.11L924.35,573.31L925.87,577.6L925.58,578.62L922.43,580.73L913.88,580.89L911.18,579.09L910.47,571.71L896.39,518.99L890.24,520.01L884.3,504.82L848.57,510.47L852.61,501.1L845.06,493.27L866.55,472.99L857.66,441.55L840.64,426.18L838.85,416.14L830.14,365.39L856.87,351.24L859.92,349.25z"/>
		<path id="C25025" title="Suffolk" class="land" d="M842.93,282.04L831.95,285.12L818.95,290.49L812.84,304.65L792.2,279.25L796.48,273.94L801.21,269.71L805.52,273.94L814.14,262.87L817.69,260.42L821.12,248.45L815.7,247.58L803.94,257.54L797.8,248.29L800.25,243.77L806.76,243.26L808.5,241.51L812.77,237.44L817.49,240.48L817.52,245.83L823.64,247.12L831.2,244.4L833.7,239.61L835.65,239.65L830,234.12L832.43,229.14L838.66,231.31L846.21,218.79L850.59,207.7L848.75,204.7L863.62,210.91L871.02,205.15L870.95,206.31L863.38,214.28L861.77,217.65L860.78,222.08L861.26,224.16L862.67,224.41L863.23,227.09L864.28,229.27L866.89,229.98L867.75,230.87L867.22,231.32L866.96,232.25L866.89,233.77L867.06,235.82L870.96,243.5L873.53,248.55L873.62,251.19L870.01,249.86L866.99,246.62L866.14,245.72L864.42,245.47L863.62,245.68L858.16,247.13L855.21,249.77L854.09,253.37L853.53,255.2L852.2,259.46L853.06,264.35L855.71,268.13L843.31,269.01L845.49,276.61L844.2,278.83L843.72,279.78L843.34,281.53z"/>
		<path id="C25027" title="Worcester" class="land" d="M473.07,78.45L522.01,80.46L539.99,80.95L550.28,81.33L550.84,84.85L564.26,98.22L564.06,117.28L568.7,115.36L592.47,115.97L592.33,112.47L630.32,127.58L625.84,160.98L625.41,165.16L640.17,168.05L640.08,160.73L645.56,154.94L654.25,159.14L659.15,155.86L673.29,159.28L675.84,169.72L665.97,191.03L671.8,194.68L666.42,219.83L650.96,226.41L659.24,231.37L651.32,240.42L648.99,245L643.97,248.2L657.49,266.39L669.13,259.29L691.13,257.59L687.62,276.13L682.14,286.57L665.34,286.34L656.94,290.07L652.65,305.53L658.26,319.51L685.71,321.42L687.5,332.8L694.09,337.33L693.95,348.99L686.29,355.59L687.2,401.4L686.64,401.41L686.3,401.45L677.27,402.37L677.17,402.41L666.28,402.71L660.31,402.83L595.65,404.82L584.29,405.59L583.81,398.48L552.99,398.12L519.98,396.97L493.94,396.75L480.72,396.04L469.26,395.42L469.25,395.42L469.48,335.07L447.51,338.8L447.05,335.26L425.43,324.88L425.8,316.3L440.01,296.65L441.09,295.11L442.2,294.91L442.28,295.58L443.69,295.75L443.48,293.89L441.15,285.22L446.12,275.52L443.58,266.21L421.75,270.54L418.47,247.46L408.09,251.39L409.58,231.11L407.61,227.87L410.93,216.07L418.75,206.34L416.01,188.66L431.9,172.92L423.6,163.75L421.13,143.65L426.3,144.11L424.34,132.57L428.56,127.56L437.75,125.63L438.78,114.9L437.19,103.93L422.68,98.53L418.9,76.63z"/>
	</g>
</svg>