<?xml version="1.0" encoding="utf-8"?>
<!-- (c) ammap.com | SVG map of MD Counties -->
<svg xmlns="http://www.w3.org/2000/svg" xmlns:amcharts="http://amcharts.com/ammap" xmlns:xlink="http://www.w3.org/1999/xlink" version="1.1">
	<defs>
		<style type="text/css">
			.land
			{
				fill: #CCCCCC;
				fill-opacity: 1;
				stroke:white;
				stroke-opacity: 1;
				stroke-width:0.5;
			}
		</style>

		<amcharts:ammap projection="mercator" leftLongitude="-79.487820" topLatitude="39.722998" rightLongitude="-75.048763" bottomLatitude="37.911571"></amcharts:ammap>

		<!-- All areas are listed in the line below. You can use this list in your script. -->
		<!--{id:"C24001"},{id:"C24003"},{id:"C24005"},{id:"C24009"},{id:"C24011"},{id:"C24013"},{id:"C24015"},{id:"C24017"},{id:"C24019"},{id:"C24021"},{id:"C24023"},{id:"C24025"},{id:"C24027"},{id:"C24029"},{id:"C24031"},{id:"C24033"},{id:"C24035"},{id:"C24037"},{id:"C24039"},{id:"C24041"},{id:"C24043"},{id:"C24045"},{id:"C24047"},{id:"C24510"}-->

	</defs>
	<g>
		<path id="C24001" title="Allegany" class="land" d="M318.16,30.89L313.19,29.46L312.27,29.43L311.43,29.76L311.09,30.32L311.3,31.21L312.18,31.97L312.7,32.92L312.76,33.59L312.64,34.02L312.12,34.54L311.41,34.78L310.27,34.61L309.24,34.08L308.76,33.58L307.33,33.04L305.3,33.43L304.75,33.84L304.49,34.95L304.49,35.58L304.63,35.97L305.68,37.44L307.54,39.52L307.58,39.91L307.32,40.5L306.89,40.82L305.94,40.98L304.45,40.72L302.47,39.58L301.08,38.17L296.38,36.38L294.26,35.33L292.78,35.15L291.58,35.6L290.74,36.57L290.65,37.39L290.83,38.01L291.23,38.74L292.87,41.19L294.23,42.76L296.38,44.5L299.18,46.18L300.62,47.38L301.18,48.4L301.22,49.52L300.63,50.33L299.67,50.95L297.71,51.53L294.78,50.63L294.39,50.42L293.59,49.56L292.14,48.63L288.02,47.05L287.25,47.03L285.81,47.39L284.89,47.83L284.16,48.4L283.92,49.16L283.84,50.88L284.93,53.05L286.08,54.27L289.4,56.9L292.61,58.45L293.5,59.46L294.41,61.09L294.75,62.09L294.58,62.64L294.11,62.86L293.29,63.03L292.49,62.93L291.54,61.92L290.6,62.09L290.34,62.86L290.34,63.86L290.24,64.69L289.89,65.53L289.35,65.72L288.35,64.84L287.43,64.08L286.92,64.08L286.28,64.46L286.15,64.91L286.23,65.4L286.28,65.96L285.85,66.45L283.58,66.73L283.02,67.17L282.85,67.78L283.08,69.09L283.12,70.27L282.58,72.1L281,73.54L280.3,73.79L279.47,73.74L277.68,72.77L276.75,72.57L276.29,72.62L275.18,73.19L272.62,72.79L271.47,72.88L268.59,71.49L266.45,70.69L264.66,70.74L259.5,72.04L258.53,72.15L257.8,71.91L256.6,71.86L254.17,72.6L253.62,72.43L252.31,71.55L250.58,70.02L248.34,69.54L247.35,68.77L246.94,68.19L246.67,67.27L246.46,67L245.99,66.89L245.42,67.04L244.63,67.62L243.16,67.31L242.88,67.03L240.77,66.13L238.42,65.45L236.9,65.57L236.85,66.04L236.27,66.31L229.34,67.17L228.94,67.03L227.13,66.42L225.82,65.22L223.92,65.15L222.05,63.91L220.11,63.22L219.54,62.55L219.41,61.44L219.18,61.01L218.68,60.56L215.24,59.63L214.81,59.29L213.52,57.43L213.12,57.24L210.3,56.74L209.94,55.45L208.38,52.68L208.06,49.71L207.83,48.67L206.58,48.78L206.1,49.01L205.25,50.77L204.4,51.19L201.55,50.78L200.6,50.26L198.59,48.36L198.36,47.68L198.32,46.9L197.76,45.68L197.31,45.15L196.72,44.85L195.65,43.41L195.66,43.15L196,42.46L198.42,40.8L200.52,40.34L202.99,40.35L203.59,40.84L203.63,41.57L204.22,41.87L206.43,40.44L207.89,38.93L207.95,38.36L207.22,36.16L205.38,34.95L203.83,34.54L201.57,35.71L199.78,37.16L198.02,36.97L195.82,36.16L195.56,35.82L195.56,35.2L197.17,30.75L197.58,30.21L198.41,29.89L199.18,28.21L199.26,27.47L199.04,26.61L196.45,27.61L194.77,30.78L194.02,30.82L192.12,30.25L190.74,30.6L189.14,34.1L190.74,38.83L190.9,40.08L190.77,41.43L190.22,42.15L189.5,42.03L189.13,41.47L187.05,41.02L186.27,43.71L186.26,44.71L184.41,47.33L182.79,47.38L182.45,47.88L182.35,51.98L184.08,52.35L185.46,54.11L185.9,55.4L185,57.55L183.72,57.93L182.34,57.23L181.27,56.25L178.99,55.55L175.51,58.18L175.56,60.28L175.3,61.06L170.62,67.95L170.61,68.35L169.01,71.47L168.44,71.95L167.82,71.97L165.91,71.48L164.48,72.79L163.34,75.22L159.64,80.69L157.5,84.31L157.05,84.55L154.6,84.15L152.78,84.44L151.36,85.31L150.39,86.29L150.3,86.77L150.6,87.75L151.25,88.32L151.33,88.74L150.48,90.21L149.2,91.57L147.34,92.46L146.75,100.06L146.4,100.77L143.99,101.42L143.45,100.94L142.71,99.68L140.31,97.78L135.31,95.55L131.69,93.38L129.74,91.27L128.81,91.26L126.71,91.95L126.11,91.83L125.13,90.99L124.63,89.72L124.65,89.01L124.29,87.78L121.71,85.28L120.54,85.46L120.01,85.81L119.62,86.6L119.31,89.09L118.87,89.83L115.55,88.59L115.74,86.93L125.33,64.72L125.25,64.51L153.45,0.1L187.31,0.04L210.71,0L251.42,0.17L259.55,0.06L261.95,0.2L282.99,0.06L289.22,0.2L305.28,0.19L315.69,0.18L315.29,1.45L316.15,2.36L317.37,1.48L318.62,2.54L319.1,5.17L320.6,6.09L322.42,7.29L322.65,10.51L321.7,12.02L322.05,14L322.21,15.48L321.28,16.49L319.45,16.12L316.24,15.95L316.31,18L318.32,20.76L316.85,21.12L314.05,22.23L311.97,21.95L310.99,23.38L312.26,23.91L315.39,24.97L315.76,26.35L315.67,27.89L317.74,28.94z"/>
		<path id="C24003" title="Anne Arundel" class="land" d="M825.57,290.95L825.56,291.86L825.55,292.3L825.85,293.71L826.38,294.1L826.51,294.9L826.53,295L826.64,295.68L826.7,296.05L826.71,296.11L826.71,296.13L826.79,296.6L826.43,297.52L826.31,297.64L826.22,297.72L825.41,298.51L825.35,298.56L825.28,298.63L824.28,299.59L821.69,302.09L820.79,302.96L818.5,305.17L819.19,309.39L819.29,309.44L821.3,310.37L821.32,310.36L824.09,309.04L824.53,308.83L824.8,308.7L824.83,308.76L825.62,310.3L825.86,310.77L826.06,311.18L826.18,311.41L826.21,311.46L826.64,312.31L826.65,312.34L826.65,313.78L826.59,313.97L826.24,315.03L826.18,315.22L826.15,315.28L826.11,315.4L824.7,319.67L824.5,320.27L824.17,321.25L824.12,321.35L823.06,323.32L822.06,325.18L821.96,325.36L821.29,326.61L821.08,327L820.79,327.16L819.92,327.63L819.5,327.86L817.41,328.99L817.06,329.18L817.02,329.23L816.97,329.31L816.96,329.33L816.91,329.4L816.82,329.53L816.29,330.3L816.28,330.31L816.29,330.36L816.31,330.67L816.31,330.68L816.39,331.58L816.4,331.78L816.42,332L816.33,332.13L816.1,332.43L814.9,334.06L814.49,334.61L814.15,335.07L814.11,335.13L814.11,335.14L814.09,335.15L814.03,335.18L813.86,335.28L813.71,335.36L813.7,335.37L813.59,335.42L813.08,335.71L812.01,336.31L811.63,336.53L811.61,336.53L808.85,338.09L808.78,338.12L807.4,338.9L807.35,338.93L807.38,339.29L807.61,342.16L808,346.91L808.06,347.07L808.12,347.22L808.16,347.31L808.98,349.35L809.32,350.2L809.53,350.45L811.57,352.86L811.6,352.89L811.77,352.88L811.85,352.87L811.88,352.87L812.26,352.85L812.89,352.81L815.63,352.63L815.79,352.74L816.37,353.12L816.51,354.04L815.8,357.87L814.05,355.08L791.9,355.32L789.92,338.96L784.41,338.25L772.51,345.53L772.47,345.58L768.85,343.59L768.45,338.44L765.25,336.27L768.05,331.68L768.15,331.39L768.14,331.05L768.01,330.81L767.45,330.44L766.89,330L766.11,329.14L765.92,328.84L765.76,328.26L765.77,327.98L766.01,327.23L766.39,326.33L766.49,325.71L766.25,325.15L765.71,324.51L765.41,323.85L765.31,323.31L765.38,322.49L765.78,321.9L766.11,321.7L766.47,321.64L766.57,321.74L766.82,321.88L767.33,322.06L767.65,322.09L767.99,322.03L768.22,321.95L768.46,321.8L769.31,321.1L769.55,320.81L769.58,320.45L769.57,320.16L769.71,319.42L769.39,318.37L769.39,318.21L769.32,317.28L769.21,316.9L768.99,316.45L768.94,316.25L768.89,315.87L768.98,315.41L769,315.25L768.89,314.87L768.79,314.46L768.83,313.94L768.96,313.36L769.14,312.84L769.19,312.26L769.39,311.69L769.66,310.8L770.46,309.9L770.82,309.27L771.18,308.15L771.2,308.04L771.18,307.86L771.08,307.61L770.88,307.29L770.86,307.11L770.88,306.85L770.95,306.55L771.05,306.35L773.35,303.9L775.17,300.64L776.95,289.72L771.32,283.42L770.56,274.01L770.38,272.54L769,269.1L767.95,266.28L768.45,263.8L768.05,261.45L766.31,259.68L764.34,257.87L761.92,257.2L759.89,254.36L758.26,252.44L756.77,250.94L755.16,246.42L754.56,244.58L753.46,243.71L751.8,244.34L750.34,242.84L748.77,242.42L747.54,240.95L744.24,240.93L742.96,239.69L742.65,238.17L740.59,236.05L737.86,235.19L735.78,234.77L733.91,233.76L732.17,232.37L730.84,231.78L732.15,229.69L732.45,226.24L733.58,224.55L731.9,222.94L730,220.37L734.35,215.39L744.73,211.3L747.49,203.47L757.51,193.43L762.48,192.14L769.51,181.08L769.7,180.99L769.61,179.9L770.38,179.34L771.69,178.56L774.18,178.92L777.33,175.79L779.26,175.03L783.26,175.78L784.87,177L791.15,172.81L791.34,172.92L793.06,173.88L799.27,181.42L800.66,183.25L801.14,183.54L810.05,187.06L814.73,183.37L814.74,183.37L814.67,183.53L814.28,184.35L814.1,184.72L814.43,189.4L816.75,193.9L816.84,193.96L816.96,194.03L817.18,194.17L818.27,194.85L818.54,195.02L820.6,196.31L821.55,196.91L823.61,199.79L823.72,199.76L828.27,198.68L828.32,198.71L830.48,199.85L830.81,200.44L831.09,200.95L831.72,202.12L832.44,202.66L835.13,204.74L835.2,204.79L835.26,204.84L835.35,204.9L835.39,204.94L836.88,206.08L840.38,208.28L842.9,209.87L843.13,210.01L843.53,210.26L842.48,212.03L842.42,214.14L842.34,216.81L842.35,216.85L843.94,222.66L843.97,222.79L844.14,223.41L844.19,223.58L844.19,223.59L844.93,226.28L845.01,226.58L845.02,226.63L845.17,227.19L845.31,227.7L845.35,227.83L845.41,228.05L845.07,230.61L842.51,235.05L840.73,238.15L840.7,238.19L841.22,238.57L845.11,241.46L849.4,244.64L849.45,244.67L849.45,244.68L849.96,245.06L850.04,245.11L850.05,245.14L850.72,246.38L852.05,248.86L852.06,248.9L852.42,250.33L852.43,250.35L852.64,251.17L852.72,251.49L852.9,252.18L852.99,252.55L853.07,252.85L848.04,257.97L847.4,258.62L845.5,260.55L845.32,260.73L843.91,261.15L837.95,262.92L837.93,262.92L837.87,263.18L837.61,264.36L837.52,264.76L837.21,265.06L836.39,265.85L830.98,266.51L830.98,266.51L830.91,267.21L830.79,268.4L830.83,268.55L831.24,270.13L831.78,272.21L834.04,275L834.83,275.04L835.5,275.07L835.66,275.26L837.18,277.16L837.57,277.65L837.44,277.9L834.37,283.69L834.41,283.81L834.82,285.14L835.17,286.29L835.23,286.5L835.42,287.11L835.04,289.65L834.82,289.64L834.69,289.63L834.25,289.6L833.44,289.55L832.3,289.48L832.28,288.1L830.54,287.06L825.6,288.63L825.57,290.67L825.57,290.8z"/>
		<path id="C24005" title="Baltimore" class="land" d="M765.43,0.69L804.7,0.66L805.88,38.73L812.67,53.79L815.31,63.93L821,70.84L825.36,70.07L835.04,76.96L843.39,77.75L842.37,83.8L855.13,93.92L857.61,106.44L858.06,106.63L858.6,107.16L858.74,107.47L862.44,116.94L862.67,117.2L862.8,118.53L863.09,118.72L872.48,124.18L870.73,130.67L867.58,131.35L868,132.79L869.25,137.13L869.53,138.1L869.63,138.46L869.66,138.56L868.29,141.45L868.1,141.84L869.69,143.64L871.41,145.6L868.57,148.55L868.03,149.11L867.59,149.57L864.34,146.82L863.9,146.45L863.71,146.29L861.26,146.4L860.94,146.72L856.77,150.9L856.75,151.04L856.12,155.49L856.03,156.12L855.88,157.18L855.6,159.15L855.53,159.2L852.78,161.5L852.73,161.59L851.41,164.17L851.38,164.22L851.13,164.72L850.87,165.23L850.79,165.39L850.91,165.49L855.04,168.62L856.57,168.52L856.3,169.3L855.74,170.93L855.66,171.09L854.37,173.52L854.31,173.57L853.19,174.72L852.99,174.94L851.9,175.63L851.68,175.77L846.58,179.04L846.56,179.05L846.39,179.45L846.14,180.05L844.46,184.05L844.43,184.07L840.02,187.47L839.72,187.7L838.3,186.79L834.46,184.32L834.15,184.12L833.93,183.98L831.82,184.11L829.35,184.26L828.78,184.5L827.85,184.9L827.62,184.99L826.93,185.29L826.75,185.23L826.68,185.2L826.41,185.1L824.42,184.41L824.31,184.37L823.84,183.31L823.63,182.84L823.59,182.75L818.4,177.94L818.18,177.74L818.09,177.83L815.98,179.87L815.73,179.54L815.7,171.77L815.74,170.6L815.69,160.43L815.65,159.89L815.65,146.92L815.68,138.09L815.65,134.16L815.67,133.72L815.64,133.61L815.74,132.59L815.65,132.23L815.65,130.52L815.65,125.02L810.25,125.01L809.85,125L808.82,125.01L808.69,125.04L808.15,125L807.49,125.01L806.82,124.96L805.32,125L804.56,124.99L793.59,124.96L765.59,125.06L765.62,128.32L765.58,128.86L765.63,131.29L765.66,158.45L771.83,161.89L779.78,166.39L791.04,172.7L791.15,172.81L784.87,177L783.26,175.78L779.26,175.03L777.33,175.79L774.18,178.92L771.69,178.56L770.38,179.34L769.61,179.9L769.7,180.99L769.51,181.08L762.41,176.43L751.11,167.88L742.85,162.72L746.95,151.65L742.35,145.38L727.02,144.95L720.65,139.35L718.45,132.79L719.13,127.22L717.73,127.53L715.95,121.4L720.88,119.04L717.55,115.93L718.68,108.9L715.82,99.3L716.71,90.72L722.28,81.63L725.5,68.27L744.69,0.8L764.41,0.69z"/>
		<path id="C24009" title="Calvert" class="land" d="M850.58,487.9L850.08,488.62L848.88,493.94L849.86,496.78L836.7,501.24L832.17,494.99L826.84,493.42L828.51,488.15L823.95,478.18L814.46,468.77L809.13,469.72L806.24,465.88L796.97,459.78L793.98,459.42L789.62,452.74L781.3,445.14L781.91,442.13L775.85,433.05L778.92,423.58L775.48,420.33L776.36,414.37L774.03,404.66L776.28,398.06L776.34,391.64L774.4,387.98L772.53,387.2L770.68,385L771.02,380.76L772.81,378.55L773.31,376.3L768.91,374.68L768.43,373.77L768.91,372.81L770.65,372.37L771.34,371.9L772.18,370.12L772.25,369.2L769.14,366L770.1,361.77L768.17,358.82L770.48,353.93L770.09,350.3L770.41,350L772.29,350.01L772.89,349.71L773.12,349.14L772.89,347.24L772.88,346.12L772.47,345.58L772.51,345.53L784.41,338.25L789.92,338.96L791.9,355.32L814.05,355.08L815.8,357.87L815.72,358.31L815.67,358.59L815.43,359.85L815.37,360.18L815.36,360.22L814.91,362.65L814.89,362.76L814.89,363.27L814.92,368.41L814.92,369.66L814.93,370.25L815.02,370.76L815.46,373.1L816.18,376.92L816.3,377.54L816.97,381.09L817.07,381.65L817.21,381.97L818.94,386L819.18,386.56L819.57,387.49L820.75,392.27L820.43,394.35L820.39,394.58L819.78,398.53L819.52,400.18L819.52,400.21L819.51,400.22L819.36,401.24L819.7,413.35L819.62,414L819.61,414.08L819.61,414.1L819.58,414.35L819.03,419.18L819.52,422.65L819.53,422.75L819.63,423.06L821.8,430.01L821.97,430.56L822.2,431.3L824.07,435.18L824.19,435.45L824.35,435.77L825.88,438.94L826.17,439.26L831.2,444.75L831.79,445.38L832.87,446.56L832.91,446.6L832.91,446.61L833.79,447.56L834.59,448.44L836.05,450.03L835.99,451.2L836.51,451.91L837.39,453.12L838.92,454.31L839.73,454.94L839.74,454.95L840.08,455.22L840.71,455.7L841.44,456.27L841.6,456.46L847.2,462.84L850.69,469.39L853.26,471.67L854.65,472.27L854.66,472.29L855.23,474.29L855.23,474.42L855.04,480.89L855.03,481.14L855.02,481.56L854.91,481.72L854.52,482.27L854.49,482.31L851.92,485.99L851.2,487.02L851.01,487.28L850.87,487.48z"/>
		<path id="C24011" title="Caroline" class="land" d="M976.84,371.75L967.64,363.23L963.15,349.36L969.52,338.16L970.63,336.45L970.67,334.82L971.01,334.56L974.27,335.36L975.68,335.03L979.02,331.92L980.35,328.79L981.26,328L988.27,324.98L990.2,322.1L988.97,318.71L984.81,315.11L983.96,315.02L981.66,313.72L981.57,312.95L983.98,311.56L984.08,311.18L983.95,310.9L981.93,310.85L981.23,310.15L980.94,309.49L981.5,308.95L983.03,308.11L983.2,307.24L982.61,306.14L980.98,305.82L980.24,304.15L979.74,303.63L978.48,303.96L977.86,303.45L977.44,302.57L977.07,300.95L977.3,300.5L978.58,300.49L978.95,299.93L978.84,299.15L978.5,298.75L977.88,298.8L977.22,299.45L976.69,299.7L975.87,299.77L975.12,299.14L975.36,297.66L976.19,297.67L977.86,297.78L978.16,297.61L977.02,295.67L975.99,295.23L975.9,294.98L976.65,294.31L977.08,293.03L976.93,292.04L975.89,291.32L975.83,290.71L976.49,290.42L977.43,289.81L975.88,287.92L976.01,287.04L977.19,287.12L977.11,286.33L975.71,285.69L975.17,275.94L977.67,274.54L979.2,266.17L978.08,265.03L983.9,256.81L991.85,250.4L997.68,236.57L1003.46,231.51L1003.58,226.52L1007.25,218.5L1019.35,209.86L1031.32,206.14L1031.32,206.15L1031.75,214.29L1031.84,216.2L1032.38,223.37L1037.34,303L1037.42,303.4L1037.83,310.58L1037.85,310.97L1038.16,315.74L1038.23,316.85L1038.23,316.9L1038.39,319.65L1042.44,385.38L1027.09,367.5L1024.28,370.95L1017.33,370.97L1016.76,363.73L1006.42,361.24L998.1,364.36L990.12,362.17L987.28,367.07L986.9,366.89L986.72,366.93L986.57,367.07L986.53,367.22L986.32,367.32L986.09,367.2L986,367.04L985.85,366.65L985.72,366.49L985.56,366.51L985.43,366.6L985.23,366.96L985.18,367.18L985.4,367.83L985.44,368.11L985.32,368.31L985,368.34L984.66,368.28L984.52,368.31L984.37,368.55L984.41,368.71L984.72,369.17L984.79,369.32L984.76,369.47L984.65,369.59L984.47,369.64L984.31,369.54L984.2,369.36L983.95,369.29L983.73,369.27L983.28,369.04L983.05,368.97L982.92,369.05L982.82,369.21L982.78,369.36L982.9,369.63L983.25,369.77L983.37,369.94L983.35,370.14L983.29,370.24L983.13,370.2L982.18,369.64L981.96,369.7L981.79,370.45L981.78,370.61L981.63,370.79L981.08,371.09L980.89,371.11L980.71,371.04L980.49,370.8L980.63,370.26L980.54,370.08L980.36,369.91L980.3,369.69L980.2,369.49L980.02,369.39L979.8,369.48L979.7,369.56L979.44,369.62L979.15,369.63L978.93,369.8L978.87,369.94L978.95,370.2L978.94,370.61L978.88,370.93L978.71,371L978.49,370.88L978.11,370.85L977.76,370.94L977.39,371.16L977.05,371.5z"/>
		<path id="C24013" title="Carroll" class="land" d="M686.13,1.15L688.49,1.16L703.47,0.84L714.23,0.94L716.29,0.94L738.6,0.84L739.37,0.87L744.69,0.8L744.69,0.8L725.5,68.27L722.28,81.63L716.71,90.72L715.82,99.3L718.68,108.9L717.55,115.93L720.88,119.04L715.95,121.4L717.73,127.53L719.13,127.22L718.45,132.79L705.94,131.64L694.34,127.89L679.49,132.64L657.95,126L643.9,133.3L639.63,131.45L642.99,122.84L645.4,108.33L653.98,93.63L653.53,87.13L656.28,81.46L643.97,67.95L638.94,67.27L639.26,60.25L635.63,58.39L630.8,51.53L624.74,52.31L615.25,42.55L606.64,42.29L601.21,37.09L603.1,34.93L600.08,29.94L609.54,32.74L609.98,27.1L613.69,20.66L621.37,16.01L618.98,10.01L626.63,8.57L623.57,6L626.14,1.09L626.2,1.09L669.74,1.05L669.93,1.01L672.99,1.09z"/>
		<path id="C24015" title="Cecil" class="land" d="M924.35,0.53L954.12,0.43L958.13,0.4L962.11,0.52L1014.11,0.41L1017.01,0.41L1020.1,0.44L1020.09,8.12L1020.09,8.22L1020.02,14.68L1020.03,15.1L1020.02,23.14L1020.35,30.54L1020.5,33L1022.19,61.62L1022.5,66.52L1022.54,67.16L1026.07,123.07L1014.18,122.28L1012.39,121.96L1011.7,121.38L1010.37,121.69L1008.29,124.26L1005.2,125.4L1001.6,127.68L998.25,126.52L994.24,127.76L993.21,129.02L990.42,127.21L987.1,127.7L981.98,125.39L978.33,126.53L971.65,124.07L966.51,126.64L961.06,123.46L961.05,120.49L961.04,120.41L959.86,120.36L955.59,120.16L951.96,120L951.93,120L951.91,119.99L950.91,119.42L950.73,119.32L950.72,119.24L950.47,117.36L950.44,117.13L950.54,116.97L952,114.51L952.09,114.38L952.16,114.34L956.58,112.35L956.76,112.27L957.18,112.08L957.39,111.91L958.27,111.19L959.07,110.55L959.84,109.92L960.95,107.54L962.13,105.01L962.46,104.31L962.65,104.23L963.74,103.75L963.83,103.72L964.82,103.29L966.54,102.54L967.87,99.79L968.15,99.22L968.16,98.84L968.19,98.09L964.5,94.23L964.46,94.24L964.01,94.35L963.27,94.51L962.21,94.75L961.05,97.23L961.05,97.24L961.03,97.24L959.24,97.57L959.13,97.59L959.11,97.55L958.46,96.41L958.34,96.2L958.51,95.83L958.98,94.76L960.93,90.32L962.68,87.83L963.04,85.56L963.36,83.52L963.54,82.87L965.52,75.82L965.76,75.21L965.81,75.1L967.18,71.72L968.33,68.88L968.34,68.85L968.55,68.6L969,68.04L970.85,65.76L970.85,65.69L970.81,63.63L970.79,62.41L970.79,62.2L970.78,61.67L969.92,58.99L963.77,57.05L961.83,57.98L961.69,58.26L961.4,58.83L960.97,59.67L960.79,60.02L960.58,60.43L960.03,61.52L960.01,61.55L959.99,61.59L953.35,62.15L948.81,62.53L944.26,62.91L944.14,62.92L940.86,64.2L932.46,50.81L922.01,37.58L913.87,22.5L913.78,22.44L903.09,13.08L897.42,0.62L899.92,0.61z"/>
		<path id="C24017" title="Charles" class="land" d="M651.46,391.1L651.62,390.86L650.08,385.5L649.53,383.32L649.61,382.26L648.51,380.29L649.45,371.85L652.34,367.63L656.78,363.76L657.66,363.23L658.68,363.13L660.67,361.44L662.18,360.49L664.31,364.71L664.74,366.1L672.84,392.08L682.94,379.54L695.43,376.27L702.65,378.62L712.26,379.68L723.77,377.19L755.66,391.95L758.37,412.88L768.15,416.94L768.39,417.24L768.39,418.01L768.82,418.01L769.33,417.73L769.52,417.77L770.77,418.47L770.91,418.71L771.06,419.43L771.25,419.6L771.52,419.71L771.96,419.7L772.48,419.79L772.88,420L773.78,420.28L774.7,420.51L775.48,420.33L778.92,423.58L775.85,433.05L768.3,432.85L768.1,432.34L767.8,432.08L767.25,432.33L767.25,432.03L766.91,431.43L766.38,431.22L766.38,430.98L766.18,430.34L765.97,430.09L765.84,430.31L765.81,429.7L765.45,429.46L765,429.59L764.9,429.24L749.78,428.5L727.26,468.57L721.33,471.85L721.33,471.89L721.47,475.82L727.37,479.96L726.35,488.97L731.75,503.12L728.49,503.78L728.42,503.8L728.38,503.8L728.39,505.82L728.39,505.89L729.63,506.58L729.76,506.66L730,506.79L730.51,508.54L731.51,512L731.54,512.1L731.45,512.58L730.74,516.3L730.71,516.44L729.54,518.87L729.51,518.92L729.16,518.77L728.94,518.68L728.76,518.6L728.44,518.46L728.15,518.34L723.41,513.87L722.85,513.62L722.82,513.6L717.27,511.05L711.21,507.05L707.83,505.97L707.79,505.96L707.45,499.13L707.44,499.04L707.04,497.78L706.76,497.4L706.11,496.55L705.41,495.63L701.94,492.64L698.69,491.36L695.26,488.52L692.85,486.53L692.74,486.44L690.51,480.95L689.72,474.08L689.65,473.52L689.57,472.81L689.34,470.8L689.22,469.75L688.94,469.27L688.93,469.25L688.66,468.76L687.68,467.04L686.9,465.67L686.89,465.64L686.37,464.73L686.3,464.36L685.71,461.23L685.56,460.44L685.53,460.29L685.46,460.15L685.28,459.77L684.19,457.56L684.12,457.41L681.47,452.01L681.39,452.02L674.78,452.35L674.39,452.57L674.16,452.7L673.8,452.91L671.32,454.75L671.29,454.78L671.25,454.81L671.19,454.85L671.1,454.92L670.83,455.12L670.77,455.16L670.73,455.19L670.29,455.51L670.19,455.59L670.14,455.63L670.08,455.68L668.72,456.69L665.53,459.06L665.48,459.09L665.38,459.17L665.17,459.33L663.58,461.17L663.53,461.22L662.16,462.82L660.87,465.34L656.6,465.8L656.49,465.7L656.3,465.53L656.23,465.46L655.91,465.16L655.88,465.13L655.49,464.76L655.48,464.76L651.98,464.26L651.26,466.29L650.85,467.43L650.76,467.7L650.58,467.92L650.51,468.02L650.46,468.08L650.45,468.1L650.39,468.17L650.06,468.59L648.69,470.33L648.36,470.76L648.28,470.86L648.22,470.9L647.39,471.46L646.51,472.04L645.3,472.85L640.89,475.78L639.46,476.73L637.17,478.25L636.4,478.76L635.62,479.29L635.45,479.4L634.99,479.7L634.5,480.03L633.75,480.29L629.45,481.82L628.84,482.04L628.82,482.05L628.8,482.04L628.53,481.92L627.47,481.45L626.22,480.89L626.19,480.87L620.84,476.89L617,474.02L616.81,473.48L616.71,473.2L616.16,471.64L615.28,469.13L615.07,468.52L613.75,464.79L613.12,462.98L613.93,459.69L614.3,458.21L614.3,455.43L614.08,454.53L613.27,451.23L612.4,447.65L611.67,444.68L610.42,439.54L610.38,439.38L610.37,439.32L610.39,439.22L611.23,436.17L613.29,428.59L615.01,425.25L615.7,423.92L618.12,419.2L619.05,417.4L620.43,414.71L620.7,414.64L623.53,413.92L625.01,413.54L628.1,408.74L629.38,406.76L635.31,397.56L637.46,396.36L639.11,395.44L639.2,395.39L639.79,395.44L640.77,395.51L640.92,395.53L640.99,395.53L641.13,395.54L641.43,395.56L644.99,395.84L645.7,395.44L648.61,393.77L650.35,392.78L650.39,392.76L650.46,392.65L651.14,391.59z"/>
		<path id="C24019" title="Dorchester" class="land" d="M920.54,508.42l-0.13,-0.05l-2.92,-2.21l-0.1,0.01l-0.14,0.02l-1.33,0.16l-2,1.79l-0.04,0.03l-0.08,0.13l-0.05,0.07l-0.03,0.04l-0.01,0.02l-0.09,0.14l-0.03,0.05l-0.02,0.04l-1.5,2.38l-0.01,0.02l0.02,0.08l0.27,1.21l0.23,1.03l0.69,3.07l1.25,1.6l1.89,2.42l0.31,0.4l4.67,-0.27l3.07,1.33l0.05,0.02l0.67,0.29l0.44,0.19l1.19,0.52l0.05,0.32l0.17,1.11l0.03,0.19l-0.74,0.92l-0.12,0.15l-0.67,0.83l-2.41,0.55l-3.02,-1.02l-6.15,-4.48l-4.22,-7.13l-0.27,-1.77l-0.01,-0.05L909.2,511l-1.83,-2.83l-0.15,-0.23l-0.05,-0.08l-1.03,-1.59l0,0l-0.2,-0.31l-0.08,-0.13l-0.07,-0.11l-0.15,-0.23l-0.13,-0.21l-2.08,-3.22l-1.33,-0.83l-0.37,-0.23l-0.12,-0.07l-2.29,-1.43h-0.01l-4.82,-0.11l-2.92,-1.68l-1.03,-1.14l-2.32,-7.4l0.67,-2.43l1.35,1.69l0.01,0.01l0.01,0l0.24,-0.09l0.13,-0.05l5.36,-2.09l-0.01,-0.13l-0.02,-0.31l-0.02,-0.35l-0.11,-0.18l-0.01,-0.02l-0.15,-0.24l-0.08,-0.13l-0.08,-0.13l-0.06,-0.09l-1.91,-3.07l-0.39,-0.63l-0.25,-0.4l-1.96,-0.88l-0.19,0l-0.15,0l-4.13,0.07l-1.58,-5.76l-0.02,-0.09l-0.53,-1.95l-0.13,-0.47l-0.03,-0.11l-0.02,-0.08l-0.08,-0.3l-0.12,-0.45l-0.04,-0.13l0.47,-3.51l-0.68,-3.63l-2.11,-3.82l-2.62,-4.74l-0.36,-0.65l-2.79,-3.68l-0.05,-0.06l-2.5,-3.3l-2.91,-4.72l-0.02,-0.04l-0.02,-0.04l-0.06,-0.27l-0.06,-0.32l-1.21,-5.97l2.51,-2.77l2.54,0.67l7.87,-2l1.63,-0.09l0.51,0.7l4.91,-0.45l0.51,-0.5l0.49,-0.48l3.44,-5.88l0.16,-0.28l0.8,-4.62l-1.24,-0.72l-0.38,-0.04l-0.21,-0.02l-0.71,-0.07l-5.63,2.87l-1.12,-0.44l-0.81,-1.29l0.99,-2.01l0.43,-2.44l-1.03,-2.96l-0.98,-1.43l-0.12,-0.18l-1.49,-2.17l-0.28,-0.41l-0.17,-0.03l-1.6,-0.29l-0.78,-0.14l-2.49,-0.45l0.87,-1.24l3.63,-2.35l0.3,-0.2l4.8,-3.11l1.34,-2.24l-1.09,-1.49l-0.56,-0.77l-0.08,-0.1l-0.1,-0.14l-0.01,-0.01l-0.1,-0.14l-1.08,-1.48l0.4,-0.4l0.39,-0.39l1.35,-1.36l2.12,0.19l0.16,-0.13l0.22,-0.17l0.46,-0.37l0.23,-0.18l1.76,-1.42l1.66,-1.34l0.38,-0.31l2.72,-0.81l0.18,0.62l0.29,0.99l1.03,3.51l0.5,0.25l0.05,0.03l0.09,0.05l1.61,0.8l0.63,0.31l2.28,1.13l0,0l2.58,-1.4l0.13,-0.8l3.22,-2.84l4.39,-2.71l1.35,-0.15l2.74,1.33l2,-2.24l8.16,10.2l3.96,1.72l6.73,-2.36l8.21,8.45l7.47,2.86l10.09,-7.04l2.54,-5.12l-0.44,-6.35l7.06,-8.06l0.65,-5.43l2.85,-3.75l0.21,-0.25l0.34,-0.34l0.36,-0.21l0.35,-0.09l0.38,0.03l0.22,0.12l0.17,-0.07l0.06,-0.32l0,-0.41l-0.07,-0.26l0.05,-0.14l0.23,-0.17l0.29,-0.01l0.26,-0.05l0.1,-0.08l0.22,-0.08l0.18,0.09l0.1,0.2l0.06,0.22l0.18,0.18l0.09,0.18l-0.14,0.54l0.21,0.24l0.19,0.08l0.19,-0.02l0.55,-0.3l0.14,-0.19l0.01,-0.16l0.16,-0.75l0.22,-0.05l0.95,0.56l0.16,0.03l0.06,-0.1l0.02,-0.2l-0.13,-0.17l-0.34,-0.14l-0.12,-0.27l0.03,-0.15l0.1,-0.15l0.13,-0.08l0.23,0.07l0.45,0.23l0.22,0.02l0.25,0.08l0.11,0.18l0.16,0.1l0.18,-0.05l0.11,-0.11l0.03,-0.15l-0.06,-0.15l-0.32,-0.46l-0.04,-0.16l0.15,-0.24l0.15,-0.03l0.34,0.06l0.32,-0.03l0.12,-0.21l-0.04,-0.28l-0.22,-0.65l0.05,-0.23l0.2,-0.36l0.13,-0.08l0.17,-0.02l0.13,0.16l0.15,0.39l0.1,0.16l0.22,0.12l0.21,-0.1l0.04,-0.15l0.15,-0.13l0.18,-0.05l0.38,0.18l2.84,-4.9l7.98,2.19l8.32,-3.12l10.34,2.49l0.57,7.24l6.95,-0.02l2.81,-3.45l15.35,17.88l0,0.03l0.21,3.22l0.1,1.7l0.1,1.77l0.02,0.54l0.49,7.97l0.15,2.44l0.52,8.57l-1.59,0.43l-1.26,3.04l-5.59,4.51l-3.51,0.08l-5.54,10.99l-4.71,1.71l-3.47,3.24l-5.15,1.14l-3.15,3.51l2.48,3.41l-0.25,2.13l-4.54,1.99l-0.99,3.34l1,1.63l3.25,1.47l0.01,3.2l-2.09,2.35l-4.61,0.54l-1.57,7.54l3.55,4.51l-6.2,1.37l-1.78,2.96l2.66,4.07l-1.81,4.45l-7.71,4.59l-7.66,8.69l-2.4,5.45l0.86,10.71l-3.61,-1.98l-0.48,0.25l-0.6,0.31l-0.07,0.04l-1.56,0.82l-0.83,0.44l-0.04,0.02l0,0l-0.01,0.02l-0.02,0.03l-0.78,0.86l-0.02,0.03l-0.04,0.04l-0.01,0.01l-0.02,0.03l-0.02,0.03l0,0l0.03,1.04l0.06,2.42l0.01,0.22l0.01,0.2l1.24,1.12l0.17,0.15l0.18,0.17l0.25,-0.03l0.61,-0.06l0.32,-0.03l0.41,0.3l0.16,0.12l0.06,0.04l0.43,0.32l-0.14,0.24l-0.45,0.79l-1,1.77l-0.49,0.13l-0.82,0.22l-1.11,0.3l-0.18,0.05l-0.69,0.19l-0.13,0.03l-0.88,0.24l-0.04,0.01l-0.17,0.05l-0.06,0.01l-2.09,0.58l-0.27,0.07l-0.2,0.05l0.5,-0.61l0.08,-0.1l0.2,-0.25l0.02,-0.02l1.32,-1.61l0.11,-0.14l0.04,-0.18l0.48,-2.08l-0.34,-1.49l-5.74,-4.67l-0.42,-3.96l-0.55,-0.99l-0.25,-0.45l-0.46,-0.82l-0.21,-0.34l-0.14,-0.23l-0.27,-0.43l-0.04,-0.07l-0.16,-0.25l-1.89,-3.02l-1.04,-1.66l-0.86,-1.37l-0.04,-0.06l-0.03,-0.05l-0.03,-0.01l-1.04,-0.43l-0.06,-0.02l-1.33,-0.55l-0.01,-0.01l-0.06,-0.12l-0.22,-0.49l-0.02,-0.03l2.2,-1.01l0.2,-0.09l4.82,-0.65l0.18,-0.02l1.23,-0.17l0.34,-0.05l0.1,-0.01l0.34,-0.05l0,0l0.18,-0.02l0.33,-0.04l3.25,-1.71l0.08,-0.04l0.11,-0.12l1.28,-1.33l0.63,-2.9v-1.14v-0.07l0,-1.89l-0.94,-2.45l-0.28,-0.74l-0.68,-1.78l-0.08,-0.2l-0.46,-1.2l-0.05,-0.13l-0.14,-0.37l-0.1,-0.27l-0.07,-0.19l-0.03,-0.08l-0.44,-1.14l-1.61,-0.62l-0.13,-0.05l-0.18,-0.07l-4.1,-1.58l-1.69,-0.65l-0.09,-0.03l-0.03,-0.01l-0.73,0.85l-0.55,0.64l-1.36,3.38l-0.08,1.23l0.31,0.78l0.08,0.21l0.13,0.34l0.01,0.03l-0.04,0.17l-0.02,0.08l-1.72,7.03l-4.76,3.23l-2.06,0.37l-0.05,0.01l-0.01,0.01l-0.42,0.52l-0.2,0.25l-0.2,0.25l-0.11,0.14l-0.15,0.19l-0.1,0.28l-0.11,0.31l-0.29,0.79l-0.16,0.45l-0.18,0.49l-0.09,0.25l-0.07,0.18l-0.09,0.24l-0.02,0.04l-0.01,0.09l-0.01,0.12l-0.16,1.72l0.85,0.88l1.97,2.04l2.62,2.72l0.63,2.07l0.19,0.61l0.02,0.06l-1.41,3.93l-0.02,0.05l-0.03,0.08l-0.06,0.17l-0.17,0.47l-0.04,0.1l-1.43,4l-0.22,0.29l-1.16,1.53l-0.09,0.12l0.03,2.07l0.01,0.62l0.08,0.14l1.61,2.71l0.24,0.39l0,0l0.28,0.46l0.11,0.19l0.62,2.97l0.03,0.16l0.36,1.72l-7.16,-3.63l-3.17,-3.98l-0.37,-1.18l-0.09,-0.29l-0.64,-2.08l-0.06,-0.21l-0.21,-0.68l-0.01,-0.02l-0.01,-0.05l-0.01,-0.04l-0.03,-0.11l-0.01,-0.03l-0.04,-0.12l-2.03,-0.15l-0.08,-0.01l-2,-0.15l-0.72,-0.05l-0.08,-0.01l-0.54,-0.04l-1.39,-0.1l-2.17,-3.1l1.39,-5.12l-2.41,-3.43l-4.31,1.12l-1.14,0.3l-1.7,0.44l-0.06,0.01l-0.29,0.07l-0.01,0l-0.02,-0.01l-0.57,-0.21l-0.08,-0.03l-0.6,-0.22L920.54,508.42zM948.4,565.72l-2.33,-1.6l-1.16,-0.66l-0.03,0.01l-0.1,0.04l-0.6,0.27l-0.28,0.12l-4.54,1.99l-0.13,0.06l-1,0.44l-0.02,0.01l-0.06,0.24l-0.09,0.36l-0.02,0.07l-0.08,0.04l-0.77,0.44l-0.04,0.02l-0.47,0.27l-1.29,-3.72l1.35,-2.12l0,-0.02l0.03,-0.24l0.42,-3.18l-0.25,-0.98l-0.08,-0.32l-0.58,-2.3l1.02,-14.42l4.73,-3.79l1.01,-0.01l0.19,0h0.03l1.4,-0.02l0.6,-0.01h0.05l0.09,0h0.02h0.04l0.03,0l1.43,-0.02l0.44,-0.01l0.46,-0.01l0.43,-0.01h0.04l0.62,0.76l0.07,0.09l0.99,1.22l0.02,0.03l0.06,0.08l0.03,0.04l0.09,0.11l0.34,0.42l0.49,0.61l0.6,0.74l2.25,2.77l0.05,0.06l0.42,0.51l0.28,0.34l1.03,1.26l0.06,2.06l-1.09,0.36l-1.9,0.63l-0.01,0l-0.34,3.92l0.02,0.09l0.56,3.14l0.02,0.12l0.12,0.24L948.4,565.72z"/>
		<path id="C24021" title="Frederick" class="land" d="M559.43,178.86L559.7,178.26L559.78,177.2L559.65,176.8L559.08,176.02L556.04,173.84L553.4,171.3L552.33,169.72L551.74,169.2L549.04,167.97L545.78,167.41L542.69,165.78L542.32,165.33L541.91,165.12L538.6,163.96L536.92,163.04L536.19,162.34L535.9,161.37L535.46,160.7L534.03,159.16L533.46,157.96L531.33,155.52L530.8,152.56L531.06,149.93L530.68,149.22L529.74,148.43L528.79,148.35L526.46,148.75L523.77,149.91L522.53,150.15L520.84,149.94L518.9,149.3L516.13,149.64L510.58,147.84L509.42,147.68L506.47,146.78L502.29,144.57L500.86,142.91L499.62,142.02L499.26,142.06L500.28,134.9L506.31,123.93L509.39,114.19L511.2,98.44L516.1,90.49L514.19,79.56L517.07,68.86L521.16,65L528.75,36.77L540.08,32.33L550.07,16.64L545.88,13.83L556.61,1.08L559.29,1.08L618.89,1.09L619.85,1.09L626.14,1.09L623.57,6L626.63,8.57L618.98,10.01L621.37,16.01L613.69,20.66L609.98,27.1L609.54,32.74L600.08,29.94L603.1,34.93L601.21,37.09L606.64,42.29L615.25,42.55L624.74,52.31L630.8,51.53L635.63,58.39L639.26,60.25L638.94,67.27L643.97,67.95L656.28,81.46L653.53,87.13L653.98,93.63L645.4,108.33L642.99,122.84L639.63,131.45L639.5,131.53L639.44,131.61L638.7,131.97L599.44,155.41L593.05,159.23L560.53,178.42z"/>
		<path id="C24023" title="Garrett" class="land" d="M59.39,140.32L56.7,142.42L56.23,147.18L54.44,150.84L53.76,151.06L51.11,150.76L47.67,149.05L42.82,150.63L39.52,152.9L39.17,154.25L39.72,155.17L39.67,155.54L36.92,158.4L34.83,159.5L30.75,160.13L27.75,162.83L20.85,171.7L18.56,172.29L17.26,174.13L17.44,176.08L13.19,180.02L9.64,181.92L5.1,183.48L3.2,184.75L0.22,183.96L0.21,183.96L0.49,163.06L0.41,163.03L0.1,162.95L0.25,158.36L0,157.73L0.23,151.89L0.44,134.88L0.9,134.88L1.38,71.91L1.46,70.73L1.46,68.24L2.42,68.24L2.73,28.82L2.95,28.57L3.05,28.14L3.03,0.7L26.25,0.58L121.91,0.06L153.45,0.1L153.45,0.1L125.25,64.51L125.33,64.72L115.74,86.93L115.55,88.59L111.51,89.7L109.29,89.34L108.36,89.04L107.86,89.2L107.43,89.46L107.21,89.68L107.16,90.1L107.38,90.75L107.96,91.78L108.16,92.85L105.73,97.89L104.71,98.82L103.02,99.69L102.38,100.7L102.33,101.56L102.23,102.36L101.95,102.85L101.54,103.3L100.95,103.43L100.27,103.28L98.89,104.59L98.79,105.62L98.92,106.81L98.68,108.01L98.02,108.59L96.78,108.81L95.67,109.17L95.33,110.01L95.12,111.35L94.81,112.06L94.36,112.33L93.81,112.33L93.22,112.33L92.67,111.97L92.12,110.81L91.12,110.46L90.57,110.46L89.98,110.86L88.56,114.77L88.81,116.11L88.36,117.48L87.46,117.92L86.33,117.66L85.67,117.88L85.02,119.23L82.23,119.89L81.16,119.36L80.55,119.43L79.89,120.02L78.51,122.95L75.47,127.41L73.71,128.18L71.26,128L69.43,129.77L64.91,130.49L64.45,131.4L64.46,137.39L64.07,137.87L60.19,139.7z"/>
		<path id="C24025" title="Harford" class="land" d="M895.61,0.62L897.41,0.62L897.42,0.62L903.09,13.08L913.78,22.44L913.87,22.5L922.01,37.58L932.46,50.81L940.86,64.2L935.25,66.38L933.35,71.1L932.63,72.9L932.6,72.97L932.45,73.34L932.2,73.97L930.97,77.03L929.52,80.63L929.41,80.92L930.13,83.57L930.32,84.25L931.73,85.81L932.88,87.07L934.1,87.73L934.3,87.84L934.63,88.02L938.77,87.4L938.83,87.42L939.24,87.55L941.58,88.3L941.8,88.37L941.89,88.4L941.93,88.5L942.49,89.99L944.13,94.36L944.57,95.55L944.94,96.52L944.93,96.89L944.92,98.1L944.92,98.12L939.35,102.03L939.29,101.97L938.78,101.46L938.74,101.47L935.93,101.98L933.55,102.41L930.64,104.47L930,104.93L929.53,105.27L929.43,105.43L928.38,107.14L928.16,107.48L928.13,107.54L925.31,109.9L922.52,112.24L921.38,113.2L921.19,113.18L920.31,113.09L920.23,113.08L920.12,113.07L919.84,113.04L919.81,113.04L919.73,113.03L918.42,112.89L918.01,112.85L917.96,112.84L917.79,113.07L914.55,117.72L914.45,117.86L914.38,118.02L913.45,120.06L913.32,120.34L913.23,120.54L912.09,123.03L912.08,123.04L906.77,127.09L905.94,127.72L899.15,132.88L898.97,132.81L898.42,132.59L897.27,132.14L897.01,131.61L897,131.6L896.72,131.03L896.52,130.64L896.13,129.86L895.59,128.8L895.21,128.74L894.63,128.66L894.33,128.69L894.18,128.7L894.1,128.71L892.77,128.83L892.67,128.9L888.29,131.66L888.59,132.85L889.21,133.34L890.49,134.34L890.5,134.37L891.72,137.55L889.49,138.28L889.36,138.32L889.2,138.38L889.06,138.42L889.04,138.44L888.49,139.08L888.45,139.14L888.36,139.24L888.32,139.29L888.28,139.34L886.55,141.37L885.61,142.47L885.13,143.95L885.12,144L885.01,144.32L884.98,144.41L884.94,144.54L884.36,146.33L884.31,146.48L884.23,147.79L884.15,149L884.13,149.23L884.1,149.76L884.09,149.86L884.06,149.85L879.96,149.76L879.6,149.75L881.47,144.18L879.35,140.24L879.35,138.55L879.35,136.66L879.35,136.33L879.68,135.61L880.24,134.4L880.4,134.06L880.2,132.85L878.52,132.06L876.08,130.93L876.03,130.9L875.88,130.83L875.79,130.79L875.54,130.75L875.46,130.74L875.05,130.68L872.76,130.33L872.48,130.29L870.73,130.67L872.48,124.18L863.09,118.72L862.8,118.53L862.67,117.2L862.44,116.94L858.74,107.47L858.6,107.16L858.06,106.63L857.61,106.44L855.13,93.92L842.37,83.8L843.39,77.75L835.04,76.96L825.36,70.07L821,70.84L815.31,63.93L812.67,53.79L805.88,38.73L804.7,0.66L804.73,0.66L819.15,0.62L826.1,0.62L846.26,0.66L846.28,0.62L852.65,0.66L856.79,0.62L856.93,0.62z"/>
		<path id="C24027" title="Howard" class="land" d="M718.45,132.79L720.65,139.35L727.02,144.95L742.35,145.38L746.95,151.65L742.85,162.72L751.11,167.88L762.41,176.43L769.51,181.08L762.48,192.14L757.51,193.43L747.49,203.47L744.73,211.3L734.35,215.39L730,220.37L722.11,217.16L716.73,210.52L708.34,210.1L698.68,207.78L693.76,204.12L692.88,201.31L693.25,200.13L691.6,198.97L690.21,198.29L687.37,197.89L686.34,195.63L684.94,194.48L684.2,193.13L684.7,190.03L682.83,183.4L670.93,172.36L669.18,171.04L668.22,168.73L667.14,167.48L665.86,166.46L663.2,164.74L660.15,163.77L658.39,163.01L656.2,163.23L653.37,162.17L650.72,161.73L648.93,160.65L648.54,158.43L647.54,155.53L646.09,152.48L639.01,145.95L634.47,137.04L639.44,131.61L639.5,131.53L639.63,131.45L643.9,133.3L657.95,126L679.49,132.64L694.34,127.89L705.94,131.64z"/>
		<path id="C24029" title="Kent" class="land" d="M918.14,223.61L915.59,223.31L915.11,223.25L915.02,223.24L914.89,223.23L911.03,222.78L909.37,223.95L908.05,224.88L905.67,226.56L905.66,226.57L905.61,226.76L905.18,228.52L904.49,231.33L903.82,234.08L903.76,234.75L903.59,236.74L903.32,239.82L903.12,242.13L903.11,242.25L903.11,242.3L903.27,243.11L903.39,243.74L903.7,245.3L903.88,246.22L903.96,246.65L904.24,248.08L904.29,248.15L904.7,248.84L904.71,248.87L904.95,249.26L906.4,251.72L906.31,251.78L905.99,252L904.07,253.31L904.03,253.29L901.94,252.28L900.76,251.71L900.06,251.38L897.83,250.3L895.5,247.45L895.03,246.88L894.82,246.63L895.31,242.78L895.71,242.01L896.25,240.99L896.37,240.76L897.98,235.36L898.01,235.28L897.92,231.49L897.83,227.56L897.36,224.53L895.39,219.06L894.17,215.65L891.99,209.6L891.98,209.58L889.95,206.36L889.8,206.12L888.82,205.95L888.24,205.85L887.81,205.78L885.93,205.46L885.43,205.37L884.93,205.28L885.41,202.2L885.72,200.13L885.98,198.48L886.01,198.3L886.1,198.08L887.43,194.87L887.66,194.32L888.12,193.21L888.22,192.97L891.19,189.05L892.52,186.35L893.15,184.89L897.59,174.61L897.75,174.25L899.36,169.59L900.94,165L901.25,164.09L901.26,164.08L901.53,163.75L901.76,163.46L903.47,161.33L903.48,161.32L903.5,161.32L903.62,161.31L905.75,161.29L905.87,161.15L908.51,158.13L908.99,157.57L909.38,157.13L910.47,155.87L910.54,155.8L911.69,153.51L911.7,153.5L912.73,151.07L912.74,151.06L912.88,149.5L912.98,148.39L912.99,148.32L912.97,148.27L912.38,147.08L912.35,147.02L910.44,146.18L910.27,145.13L910.27,145.11L910.45,144.28L910.56,143.74L910.58,143.72L914.7,139.26L914.71,139.25L914.74,139.21L915.02,139.08L915.31,138.95L917.71,137.86L918.4,137.95L919.63,138.12L921.61,138.39L925,136.23L924.48,135.53L923.97,134.84L924.53,132.47L925.9,131.54L929.56,129.04L929.65,128.97L929.77,128.68L930.52,126.8L931.24,124.99L931.26,124.95L931.7,124.96L931.85,124.97L941.06,125.28L943.57,125.37L943.62,125.37L944.78,125.41L945.38,125.43L945.55,125.43L945.78,125.44L946.8,125.48L947.99,125.52L952.66,126.67L952.98,126.89L953.45,127.23L955.4,128.63L956.47,128.25L959.93,127.04L961.08,126.63L961.06,123.46L966.51,126.64L971.65,124.07L978.33,126.53L981.98,125.39L987.1,127.7L990.42,127.21L993.21,129.02L994.24,127.76L998.25,126.52L1001.6,127.68L1005.2,125.4L1008.29,124.26L1010.37,121.69L1011.7,121.38L1012.39,121.96L1014.18,122.28L1026.07,123.07L1026.08,123.18L1027.89,151.73L1029.03,169.74L1017.77,171.41L1005.93,165.61L998.22,164.98L996.46,168.41L983.92,170.76L982.42,170.43L982.29,170.45L981.89,170.58L981.06,171.05L980.59,171.27L979.4,171.93L978.76,172.19L978.09,172.42L977.7,172.46L977.35,172.39L977,172.21L976.63,171.83L976.47,171.54L976.17,171.24L975.94,171.04L975.67,170.92L975.38,170.87L975.07,170.94L974.67,171.16L974.27,171.45L973.85,171.69L973.2,171.6L972.56,171.39L972.05,171.18L971.81,170.97L971.48,170.6L971.21,170.28L970.9,169.98L970.49,169.77L969.9,169.63L969.18,169.71L968.01,170.19L967.54,170.21L967.14,170.14L966.77,170.02L966.14,169.78L965.94,169.73L965.79,169.75L965.66,169.89L965.58,170.09L965.56,170.39L965.67,171.04L965.64,171.41L965.54,171.73L965.3,172.01L965.1,172.14L964.7,172.25L964.05,172.34L963.39,172.39L962.44,172.5L962.08,172.57L961.85,172.55L961.51,172.56L961.18,172.52L960.66,172.43L960.48,172.37L959.68,171.81L959.48,171.76L959.3,171.77L959.03,171.92L956.1,176.36L954.24,176.6L946.14,182.41L942.88,188.24L943.97,191.51L948.87,192.89L950.72,196.71L948.6,199.3L939.24,204.61L941.18,206.83L941.31,209.16L935.78,211.98L929.46,218.97z"/>
		<path id="C24031" title="Montgomery" class="land" d="M595.46,236.42L593.96,235.81L593.88,235.29L593.46,235.01L592.15,234.58L589.38,234.88L586.79,234.93L584.64,235.25L582.55,235.18L581.17,234.64L579.63,234.93L575.9,233.94L574.42,234.05L571.43,233.36L569.29,233.2L565.37,231.88L561.11,231.23L559.63,230.78L558.74,230.28L558.41,229.89L556.53,226.3L555.71,224.13L554.45,221.37L553.27,219.48L552.02,218.19L549.5,216.87L548.19,216.55L543.88,214.9L542.61,214.08L541.33,211.64L540.74,208.28L540.58,205.12L541.25,204.33L542.25,199.87L543.58,196.38L545.17,193.69L546.68,192.43L551.97,191.15L554.01,189.91L554.35,189.44L555,187.87L554.74,185.35L555.38,183.09L556.35,181.87L559.17,179.45L559.43,178.86L560.53,178.42L593.05,159.23L599.44,155.41L638.7,131.97L639.44,131.61L634.47,137.04L639.01,145.95L646.09,152.48L647.54,155.53L648.54,158.43L648.93,160.65L650.72,161.73L653.37,162.17L656.2,163.23L658.39,163.01L660.15,163.77L663.2,164.74L665.86,166.46L667.14,167.48L668.22,168.73L669.18,171.04L670.93,172.36L682.83,183.4L684.7,190.03L684.2,193.13L684.94,194.48L686.34,195.63L687.37,197.89L690.21,198.29L691.6,198.97L693.25,200.13L692.88,201.31L693.76,204.12L698.68,207.78L708.34,210.1L716.73,210.52L694.33,249.31L693.95,250.03L693.68,250.45L693.22,251.29L693,251.65L692.25,252.98L691.61,253.97L690.35,256.34L689.93,256.86L689.22,258.16L689,258.41L688.45,259.55L685.26,269.03L683.7,267.41L682.18,265.89L681.68,265.36L675.97,259.78L674.68,258.58L671.01,262.11L660.75,272.21L658.21,274.9L657.17,275.78L652.92,280.05L650.8,278.04L649.61,275.43L648.01,272.64L645.56,269.49L645.12,269.21L644.32,268.92L640.4,268.15L639.96,268.12L639.66,268.36L638.58,268.33L635.52,267.87L634.06,268.33L631.52,268.58L630.14,268.19L629.84,267.83L628.27,267.3L627.66,267.66L624.9,266.99L623.95,266.27L623,264.48L622.56,263.97L622.12,263.95L621.93,264.09L621.24,265.22L617.1,261.83L617.51,259.57L617.26,259.07L616.22,258.37L615.47,256L616.55,252.82L617.9,251.62L618.53,249.74L618.15,248.05L617.49,247.34L615.58,246.24L612.63,245.57L610.23,244.8L605.16,240.41L602.98,239.35L600.31,238.46L599.15,238.39L596.58,236.87z"/>
		<path id="C24033" title="Prince George's" class="land" d="M674.39,355.53L674.57,354.01L674.68,349.3L674.43,348.03L674.65,336.83L674.85,332.59L674.93,330.98L675.09,330.56L675.34,330.42L679.26,326.38L685.6,319.85L685.98,319.7L688,317.48L691.64,314.1L698.75,306.8L699.86,305.81L707.99,297.66L708.24,297.42L710.58,295.09L710.97,294.7L703.88,287.47L702.11,285.71L685.29,269.07L685.26,269.03L688.45,259.55L689,258.41L689.22,258.16L689.93,256.86L690.35,256.34L691.61,253.97L692.25,252.98L693,251.65L693.22,251.29L693.68,250.45L693.95,250.03L694.33,249.31L716.73,210.52L722.11,217.16L730,220.37L731.9,222.94L733.58,224.55L732.45,226.24L732.15,229.69L730.84,231.78L732.17,232.37L733.91,233.76L735.78,234.77L737.86,235.19L740.59,236.05L742.65,238.17L742.96,239.69L744.24,240.93L747.54,240.95L748.77,242.42L750.34,242.84L751.8,244.34L753.46,243.71L754.56,244.58L755.16,246.42L756.77,250.94L758.26,252.44L759.89,254.36L761.92,257.2L764.34,257.87L766.31,259.68L768.05,261.45L768.45,263.8L767.95,266.28L769,269.1L770.38,272.54L770.56,274.01L771.32,283.42L776.95,289.72L775.17,300.64L773.35,303.9L771.05,306.35L770.95,306.55L770.88,306.85L770.86,307.11L770.88,307.29L771.08,307.61L771.18,307.86L771.2,308.04L771.18,308.15L770.82,309.27L770.46,309.9L769.66,310.8L769.39,311.69L769.19,312.26L769.14,312.84L768.96,313.36L768.83,313.94L768.79,314.46L768.89,314.87L769,315.25L768.98,315.41L768.89,315.87L768.94,316.25L768.99,316.45L769.21,316.9L769.32,317.28L769.39,318.21L769.39,318.37L769.71,319.42L769.57,320.16L769.58,320.45L769.55,320.81L769.31,321.1L768.46,321.8L768.22,321.95L767.99,322.03L767.65,322.09L767.33,322.06L766.82,321.88L766.57,321.74L766.47,321.64L766.11,321.7L765.78,321.9L765.38,322.49L765.31,323.31L765.41,323.85L765.71,324.51L766.25,325.15L766.49,325.71L766.39,326.33L766.01,327.23L765.77,327.98L765.76,328.26L765.92,328.84L766.11,329.14L766.89,330L767.45,330.44L768.01,330.81L768.14,331.05L768.15,331.39L768.05,331.68L765.25,336.27L768.45,338.44L768.85,343.59L772.47,345.58L772.88,346.12L772.89,347.24L773.12,349.14L772.89,349.71L772.29,350.01L770.41,350L770.09,350.3L770.48,353.93L768.17,358.82L770.1,361.77L769.14,366L772.25,369.2L772.18,370.12L771.34,371.9L770.65,372.37L768.91,372.81L768.43,373.77L768.91,374.68L773.31,376.3L772.81,378.55L771.02,380.76L770.68,385L772.53,387.2L774.4,387.98L776.34,391.64L776.28,398.06L774.03,404.66L776.36,414.37L775.48,420.33L774.7,420.51L773.78,420.28L772.88,420L772.48,419.79L771.96,419.7L771.52,419.71L771.25,419.6L771.06,419.43L770.91,418.71L770.77,418.47L769.52,417.77L769.33,417.73L768.82,418.01L768.39,418.01L768.39,417.24L768.15,416.94L758.37,412.88L755.66,391.95L723.77,377.19L712.26,379.68L702.65,378.62L695.43,376.27L682.94,379.54L672.84,392.08L664.74,366.1L664.31,364.71L662.18,360.49L664.06,359.29L665.91,358.59L666.17,358.92L667.97,359.28L671.31,359.15L673.44,357.6L674.32,356.13z"/>
		<path id="C24035" title="Queen Anne's" class="land" d="M906.71,309.51L906.39,307.9L905.87,305.35L905.95,304.54L906.57,298.2L905.19,294.73L905.33,290.15L905.45,286.48L905.45,286.42L905.46,286.14L905.58,282.15L904.47,280.88L902.8,279.01L902.77,278.97L898.83,277.55L898.75,277.52L897.75,277.15L897.24,277.29L897.02,277.35L892.76,278.51L892.56,282.19L892.57,282.21L892.9,282.88L893.01,283.09L893.1,283.28L893.12,283.31L893.16,283.39L893.19,283.46L893.22,283.52L893.35,283.77L893.03,284.47L893,284.54L892.98,284.59L892.89,284.78L892.83,284.81L891.2,285.46L891.09,285.5L891.04,285.52L890.57,285.4L890.54,285.39L889.43,285.11L888.75,283.49L888.75,283.42L888.68,281.47L888.45,281.05L888.32,280.81L887.51,279.33L887.02,278.44L886.84,278.1L886.45,277.39L886.43,277.36L886.39,277.4L885.62,277.97L883.36,279.65L882.1,280.59L881.44,281.08L880.23,281.98L880.14,282.05L879.51,284.38L879.17,285.62L879.18,285.63L879.43,286.12L880.68,288.54L880.7,288.59L880.71,288.7L880.71,288.76L880.72,288.91L880.81,290.22L880.84,290.8L880.85,290.88L880.85,290.94L880.86,291.02L880.87,291.25L880.87,291.26L876.69,292.73L874.06,288.17L874.06,288.17L873.9,288.18L873.7,288.18L872.75,288.21L872.6,288.21L872.37,288.22L872.37,288.22L869.06,290.05L869.05,290.08L868.86,291.49L868.82,291.77L868.78,292.03L868.75,292.29L868.71,292.55L868.52,293.92L868.5,294.07L868.42,294.65L868.4,294.82L868.55,295.22L868.81,295.92L868.93,296.23L869,296.4L869.17,296.87L869.26,297.1L869.27,297.14L869.69,299.86L869.84,300.82L869.85,300.9L870.01,301.89L870.44,304.62L870.46,304.75L869.63,306.19L868.56,307.13L868.5,307.19L868.07,307.56L867.82,307.78L865.55,307.29L865.12,307.19L863.47,308.25L862.48,308.89L862.44,308.91L862.15,309.1L862.1,309.24L860.67,313.35L860.22,314.67L860.21,314.69L860.16,314.67L858.96,313.92L858.85,313.85L858.31,313.51L858.29,313.33L858.25,312.76L858.21,312.27L858.05,310.23L858,309.64L858,309.63L858.09,309.4L859.01,307.03L860.39,303.45L860.44,303.3L861.18,301.4L861.03,294.77L860.98,292.79L860.91,289.52L861.05,288.02L861.15,287.03L861.22,286.29L861.9,279.26L861.99,278.33L862.56,276.67L863.04,275.27L863.09,275.13L863.86,272.86L864.17,271.96L864.77,270.91L866.97,267.08L869.72,262.29L870.38,261.13L872.59,257.29L872.76,256.99L872.85,254.91L872.86,254.6L872.52,253.68L872.78,252.22L873.42,248.72L873.42,248.72L873.42,248.71L875.77,244.39L878.45,242.86L878.5,242.83L878.56,243.54L878.6,244.02L878.72,245.59L878.73,245.64L878.73,245.68L878.23,247.72L878.28,247.89L880.64,255.34L880.68,255.45L881.25,256.4L881.96,257.59L882.74,258.89L883.18,259.63L883.62,260.37L884.43,261.71L885.06,262.77L885.22,263.04L885.23,263.04L885.64,263L890.37,262.62L890.39,262.63L893.89,263.55L894.56,263.73L898.32,264.72L898.51,264.77L898.66,264.9L901.37,267.26L901.41,267.25L905.94,266.36L906.01,266.29L910.13,262.66L911.42,261.51L911.92,261.07L915.32,258.07L916.51,257.02L916.52,257.01L916.52,257.01L916.53,256.69L916.54,256.11L916.62,253.29L915.53,250.39L913.92,247.82L913.58,247.27L912.7,245.86L912.62,245.73L912.58,245.66L910.94,240.49L912.25,238.13L912.92,236.94L913.4,236.06L915.12,234.65L917.91,233.7L918.56,232.3L919.42,230.48L920.23,228.77L921.71,224.02L918.14,223.61L929.46,218.97L935.78,211.98L941.31,209.16L941.18,206.83L939.24,204.61L948.6,199.3L950.72,196.71L948.87,192.89L943.97,191.51L942.88,188.24L946.14,182.41L954.24,176.6L956.1,176.36L959.03,171.92L959.3,171.77L959.48,171.76L959.68,171.81L960.48,172.37L960.66,172.43L961.18,172.52L961.51,172.56L961.85,172.55L962.08,172.57L962.44,172.5L963.39,172.39L964.05,172.34L964.7,172.25L965.1,172.14L965.3,172.01L965.54,171.73L965.64,171.41L965.67,171.04L965.56,170.39L965.58,170.09L965.66,169.89L965.79,169.75L965.94,169.73L966.14,169.78L966.77,170.02L967.14,170.14L967.54,170.21L968.01,170.19L969.18,169.71L969.9,169.63L970.49,169.77L970.9,169.98L971.21,170.28L971.48,170.6L971.81,170.97L972.05,171.18L972.56,171.39L973.2,171.6L973.85,171.69L974.27,171.45L974.67,171.16L975.07,170.94L975.38,170.87L975.67,170.92L975.94,171.04L976.17,171.24L976.47,171.54L976.63,171.83L977,172.21L977.35,172.39L977.7,172.46L978.09,172.42L978.76,172.19L979.4,171.93L980.59,171.27L981.06,171.05L981.89,170.58L982.29,170.45L982.42,170.43L983.92,170.76L996.46,168.41L998.22,164.98L1005.93,165.61L1017.77,171.41L1029.03,169.74L1029.04,169.78L1030.39,193.95L1030.86,198.54L1031.32,206.14L1019.35,209.86L1007.25,218.5L1003.58,226.52L1003.46,231.51L997.68,236.57L991.85,250.4L983.9,256.81L978.08,265.03L979.2,266.17L977.67,274.54L975.17,275.94L975.71,285.69L936.79,276.24L933.79,277.57L933.71,278.09L933.15,278.4L932.61,279.6L932.44,280.49L931.89,281.67L931.14,282.76L931.04,283.19L931.03,284.06L931.2,284.89L930.76,285.72L930.13,286.43L929.89,287.32L931,288.28L930.48,290.57L933.43,295.63L933.2,298.41L927.94,298.5L926.44,300.63L925.32,299.41L920.42,298.23L916.59,299.39L914.88,304.28L911.49,306.76L908.69,304.93z"/>
		<path id="C24037" title="St. Mary's" class="land" d="M856.36,501.82L856.54,501.91L856.92,502.19L858.25,503.15L858.33,503.21L858.46,504.21L858.47,504.28L857.89,504.97L856.39,506.72L853.04,510.62L852.29,512.92L851.75,514.55L851.71,515.48L851.7,515.69L851.69,515.85L851.63,517.21L851.63,517.25L851.69,517.5L853.52,524.32L853.57,524.51L853.74,525.15L853.75,525.19L855.51,531.77L857.48,534.51L857.59,534.67L859.01,536.66L861.33,539.88L861.95,540.75L862.5,541.91L864.18,545.45L864.26,545.61L864.52,545.93L864.56,545.99L865.78,547.48L867.01,548.98L868.64,550.97L869.06,551.47L870.82,553.63L870.82,553.63L870.83,553.64L871.05,554.15L871.07,554.18L871.08,554.2L871.18,554.42L871.53,555.22L873.36,559.29L873.46,559.51L872.37,560.93L870.47,563.39L870.24,563.69L869.29,564.92L869.19,565.06L868.72,565.67L868.49,565.96L868.39,566.1L868.7,569.09L868.7,569.12L870.24,572.51L870.33,572.71L870.4,572.86L870.52,573.12L870.52,573.13L870.52,573.17L870.9,581.97L870.93,582.78L870.97,582.93L872.11,587.07L873.33,591.55L873.64,592.67L873.08,594.5L872.96,594.91L872.92,595.04L871.57,592.04L869.96,590.36L867.66,589.08L867.6,589.05L866.79,589.09L866.41,589.11L865.04,589.19L864.47,589.23L862.13,587.01L862.04,586.81L862.01,586.72L861.98,586.65L859.9,581.67L859.65,581.07L859.48,580.65L859.22,580.02L857.42,577.45L856.68,576.38L856.59,576.26L856.47,576.08L856.44,576.04L855.88,575.23L855.6,574.83L853.94,572.45L853.69,572.09L853.63,571.99L853.55,571.88L853.33,571.8L853.09,571.7L852.41,571.43L852.08,571.3L851.97,571.26L849.96,570.46L849.79,570.46L847.81,570.49L847.45,570.82L847.3,570.95L846.87,571.34L845.63,570.8L845.59,570.79L845.4,570.44L843.33,566.66L843.31,566.61L843.05,566.13L843.05,566.09L843.13,565.3L843.24,564.22L843.28,563.76L841.17,560.43L840.45,559.3L835.1,559.12L834.98,559.11L834.87,559.38L834.71,559.8L833.31,563.33L832.19,566.17L832.19,566.24L832.19,566.4L832.19,566.48L832.2,567L832.21,567.43L832.21,567.47L832.87,568.52L832.97,568.67L833.08,568.85L833.13,568.92L833.13,568.95L833.14,568.99L833.27,569.84L833.38,570.59L833.42,570.86L832.72,571.17L831.23,571.83L830.63,571.4L830.42,571.25L829.88,569.68L829.76,569.32L829.71,569.17L829.7,569.15L829.64,568.96L829.43,568.36L829.1,567.38L829.09,567.35L829.09,567.35L829.08,567.34L828.82,566.97L828.27,566.17L827.96,565.73L827.73,565.41L827.65,565.28L827.63,565.26L826.06,563L825.23,561.81L824.67,561.01L824.45,560.7L824.13,560.24L823.91,559.91L823.88,559.9L823.77,559.85L823.51,559.72L823.23,559.58L821.43,558.68L819.77,558.51L817.68,559.14L815.87,560.78L815.74,560.89L815.63,561L812.73,554.4L811.36,550.07L810.81,546.47L810.78,546.39L810.65,546.07L810.55,545.81L810.36,545.32L809.26,542.44L805.58,538.5L803.33,536.66L799.41,533.45L798.87,533.01L789.56,529.79L789.21,529.66L788.54,529.43L788.09,529.28L788.04,529.26L787.47,529.06L787.46,529.06L787.33,529.01L787.31,529.01L784.17,529.21L784.15,529.2L783.87,529.09L783.83,529.07L779.97,527.53L776.03,525.95L774.59,526L772.27,526.08L765.24,526.32L764.26,526.36L764.19,526.36L763.87,526.32L763.3,526.26L757.67,525.66L756.5,527.24L755.09,529.16L754.37,530.14L754.35,530.17L754.29,530.24L749.41,528.75L747.03,528.02L746.69,527.83L743.36,525.94L742.08,525.21L741.84,525.07L737.92,520.45L737.88,520.03L737.85,519.76L738.65,519.73L738.69,519.73L738.82,519.72L739.49,519.7L739.54,519.58L739.69,519.22L740.32,511.72L740.49,509.74L739.78,508.85L739.75,508.81L739.66,508.7L739.63,508.66L739.32,508.27L738.21,506.88L738.05,506.67L736.97,505.31L736.63,504.89L735.4,503.33L735.19,503.06L735.16,503.05L734.29,502.61L734.27,502.6L731.75,503.12L726.35,488.97L727.37,479.96L721.47,475.82L721.33,471.89L721.33,471.85L727.26,468.57L749.78,428.5L764.9,429.24L765,429.59L765.45,429.46L765.81,429.7L765.84,430.31L765.97,430.09L766.18,430.34L766.38,430.98L766.38,431.22L766.91,431.43L767.25,432.03L767.25,432.33L767.8,432.08L768.1,432.34L768.3,432.85L775.85,433.05L781.91,442.13L781.3,445.14L789.62,452.74L793.98,459.42L796.97,459.78L806.24,465.88L809.13,469.72L814.46,468.77L823.95,478.18L828.51,488.15L826.84,493.42L832.17,494.99L836.7,501.24L849.86,496.78L850.64,499.01z"/>
		<path id="C24039" title="Somerset" class="land" d="M953.07,556.27l2.46,4.94l0.42,0.24l0.14,0.08l0.23,0.13l0.29,0.16l0.22,0.12l0.73,-0.06l0.34,-0.03l0.39,-0.03l0.16,3.32l-0.4,0.3l-0.37,0.28l-0.28,0.21l-1.32,1.01l-0.22,2.94l-0.01,0.17l0,0.06l0.1,0.12l0.99,1.2l0.53,0.64l2.02,2.42l0.62,6.36l-1.55,1.69l-0.32,0.05l-0.7,0.12l-2.22,0.37l-3.69,-2.01l-4.28,-4.61l-1.68,-1.81l-0.27,-0.29l2.52,-4.19l0.79,-0.26l0.22,-0.07l0.34,-0.11l0.22,-0.07l0.66,-0.22l0.28,-0.3l0.06,-0.06l0.35,-0.38l-0.02,-0.04l-0.27,-0.52l-0.76,-1.49l-1.37,-0.94L953.07,556.27zM1065.33,609.78L1065.33,609.78l-0.35,1.54l-0.55,0.45l-0.9,0.25l-0.46,0.39l-0.36,0.76l0.03,0.51l1.34,1.83l0,0.35l-0.19,0.29l-0.4,0.1l-0.28,-0.12l-0.61,-0.58l-0.42,-0.65l-0.69,0.05l-0.99,1.2l-0.8,2.16l-0.97,1.05l0.17,6.88l-2.23,0.55l-2.57,-1.38l-1.3,-0.49l1.28,-1.91l0.54,-1.71l-0.53,-0.42l-1.2,-0.95l-0.64,-0.5l-3.95,-0.36l-0.15,-0.06l-5.97,-2.5l-1.37,-0.57l-2.46,1.12l-0.16,0.73l-0.56,0.54l-0.18,0.17l-0.72,0.7l-1.98,0.93l-0.66,0.31l-0.13,0.06l-3.38,-1.86l-2.44,-0.62l-4.88,-0.48l-0.61,-0.06l-1.23,-0.12l-0.1,-0.01l-0.33,0.31l-0.06,0.05l-0.02,0.02l-0.06,0.05l-0.79,0.74l-0.44,0.41l-4.47,4.17l-0.22,0.2l-0.23,0.21l-3.13,2.92l-0.46,0.43l-0.59,0.55l-0.37,0.34l-0.06,0.05l-1.5,1.4l-0.07,0.18l-0.43,1.13l-0.04,0.09l-0.16,0.42l-0.11,0.07l-3.03,2.03l-0.61,0.41l-0.17,0.12l-0.16,0.11l-0.07,0.05l-0.09,0.06l-0.03,0.02l-0.05,0.04l-0.27,0.18l-3.21,2.14l-5.84,2l-0.5,0.17l-0.37,0.13l-2.11,-1.79l-0.86,-1.59l-0.04,-0.08l-0.66,-1.21l1.17,-1.98l0.11,-1.08l0.23,-2.21l0.54,-5.09l-2.23,-6.85l4.46,-9.92l2.06,-3.13l-0.03,-5.67l0.61,-2.14l1.01,-0.36l0.99,-0.35l0.35,-0.12l1.59,-0.56l0.38,-0.13l0.18,0.07l0.38,0.14l0.21,0.08l0.57,0.21l0.59,0.22l0.05,0.29l0.1,0.55l0.57,-0.03l0.06,-0.03l3.23,-1.93l0.38,-0.23l0.27,-0.16l0.07,-0.04l0.94,-0.56l0.18,-0.11l0.03,-0.03l0.77,-0.93l0.14,-0.17l3.61,-4.37l-0.13,-0.19l-0.03,-0.04l-1.64,-2.45l-0.02,-0.03l-0.03,-0.05l-2.88,-0.8l-0.3,-0.08l-0.45,-0.13l-1.98,-0.55l-0.31,-0.09l-0.04,-0.01l-0.84,-0.24l-0.8,0.34l-1.41,0.6l-1.83,0.78l-0.02,0.04l-0.15,0.27l-0.14,0.25l0.1,0.58l0.08,0.46l0.04,0.26l0.08,0.45l0.03,0.2l-0.48,0.06l-0.09,0.01l-0.02,0l-0.14,0.02l-1.29,0.16l-0.3,0.04l-0.07,0.01l-0.38,0.05l-0.72,0.09l-0.74,-0.49l-1.74,-5.14l2.51,-4.94l0.31,-0.6l1.26,-2.49l0.15,-0.3l0.37,-0.72l5.85,-4.24l1.39,-0.22l0.1,-0.25l0.01,-0.03l0.03,-0.08l2.5,-6.29l0.03,-0.07l0.06,-0.15l-0.01,-0.01l-4.45,-3.89l-1.67,0.06l-1.27,0.65l-1.15,0.58l-0.24,0.12l-1.78,1.97l-0.73,0.18l-0.39,-0.11l-0.27,-0.07l-2.67,-0.72l-0.08,-0.02l-5.34,-1.44l-0.19,0.11l-0.26,0.15l-0.4,0.23l-0.59,0.35l-0.25,0.14l-0.21,0.12l-4.56,2.66l-2.46,1.44l-1.11,0.65l-0.09,0.05l0.01,0.4l0.01,0.46l0.04,1.75l0.06,2.37l-0.5,-0.01l-1.88,-1.09l-1.17,-1.76l-1.89,-4.53l0,0l-0.65,-1.55l-0.2,-0.47l-0.03,-0.08l1.99,-7.46l0.27,-1.02l0.04,-0.16l0.42,-0.91l0.61,-1.32l0.01,-0.16l0.02,-0.25l0.04,-0.47l-0.23,-0.34l-0.02,-0.04l-0.1,-0.14l-0.04,-0.06l-0.86,-1.26l-0.04,-0.06l0.03,-0.19l0.07,-0.43l0,-0.03l0.55,-0.68l0.04,-0.05l0.15,-0.18l0.04,-0.05l0.59,-0.73l0.32,-0.4l0.84,-1.04l0.26,-0.1l2.07,-0.81l12.65,-4.94l0.51,0.18l0.35,0.98l0.09,0.26l0.02,0l1.72,0.47l0.15,0.04l0.14,-0.03l1.73,-0.41l0.69,-0.16l1.2,-0.29l0.46,-0.32l1.51,-1.04l0.7,-0.48l0.59,-0.41l1.04,-0.72l0.32,-0.22l0.07,-0.05l0.09,-0.06l0.09,-0.06l-1.38,-5.58l-0.04,-0.04l-2.1,-2.4l-1.51,-1.72l7.07,-5.3l10.09,-0.47l8.18,-6.31l1.13,-4.31l0.85,-0.22l0.98,-0.06l2.1,0.19l0.57,0.23l-0.21,0.96l0.36,0.48l0.59,-0.14l0.11,-0.52l-0.17,-0.6l0.25,-0.14l0.37,0.41l0.47,1.09l1.18,0.44l1.97,-1.36l0.93,0.71l0.74,0.02l0.17,0.24l-0.36,1.06l0.22,0.58l1.1,-0.24l0.24,0.16l0.11,0.38l-0.21,1.08l0.94,1.73l0.62,0.27l1,-0.42l0.93,0.86l0.5,-0.1l0.78,-0.47l0.52,-0.03l0.52,0.3l0.91,0.21l1.38,-0.7l0.24,-0.66l-0.78,-0.66l0.2,-0.43l-0.2,-0.8l9.3,-8.63l13.76,7.07l0.64,3.06l1.52,5.92l1.77,4.47l2.32,4.43l3.73,3.31l5.2,9.27l2.98,3.77l-0.24,2.62l-0.78,3.65l-3.14,1.95l-2.56,1.97l-1.39,3.22l2.35,3.46l1.86,1.53l1.56,1.51l0.97,2.38l0.97,1.6l1.32,2.33l0.47,1.83l-0.41,2.01l-1.32,3.06l-2.83,0.06l-17.71,10.73l-6.96,2.85l-0.35,7.12l5.57,6.6L1065.33,609.78zM955.58,623.83l-1.95,0.04h-0.02l-0.18,0.04l-2.18,-0.09l-0.93,-0.04l-0.08,0l-1.07,0.12l-0.27,0.03l-0.85,-10.46l0.01,-0.5l0,-0.15l0.01,-0.24l0.04,-1.44l0.21,-8.55l0.66,-3.73l1.25,-2.31l5.75,-2.43l2.12,-0.22l1.18,0.52l0.04,0.02l1.13,0.5l3.51,3.94l2.94,1.06l1.09,0.39l0.48,0.17l0,0l0.57,0.69l0.31,0.38l0.59,0.72l0,0v0l0,0.15l-0.05,2.45l-0.01,0.66l-0.14,0.03l-2.47,0.52l-0.22,0.05l-0.61,0.13l-0.38,0.08l-0.06,0.22l-0.05,0.19l-0.1,0.34l-0.19,0.69l-0.15,0.51l-0.09,0.31l-0.54,1.92l-0.05,0.17l-0.11,0.37l-0.93,3.28l-0.62,2.2l0,0l0.54,1.66l0.34,1.06l0.74,2.28l-1.39,2.38l-0.23,0l-3.07,-0.06l-3.25,-0.06l-0.86,-0.02l-0.04,0l-0.21,0L955.58,623.83z"/>
		<path id="C24041" title="Talbot" class="land" d="M975.88,287.92L977.43,289.81L976.49,290.42L975.83,290.71L975.89,291.32L976.93,292.04L977.08,293.03L976.65,294.31L975.9,294.98L975.99,295.23L977.02,295.67L978.16,297.61L977.86,297.78L976.19,297.67L975.36,297.66L975.12,299.14L975.87,299.77L976.69,299.7L977.22,299.45L977.88,298.8L978.5,298.75L978.84,299.15L978.95,299.93L978.58,300.49L977.3,300.5L977.07,300.95L977.44,302.57L977.86,303.45L978.48,303.96L979.74,303.63L980.24,304.15L980.98,305.82L982.61,306.14L983.2,307.24L983.03,308.11L981.5,308.95L980.94,309.49L981.23,310.15L981.93,310.85L983.95,310.9L984.08,311.18L983.98,311.56L981.57,312.95L981.66,313.72L983.96,315.02L984.81,315.11L988.97,318.71L990.2,322.1L988.27,324.98L981.26,328L980.35,328.79L979.02,331.92L975.68,335.03L974.27,335.36L971.01,334.56L970.67,334.82L970.63,336.45L969.52,338.16L963.15,349.36L967.64,363.23L976.84,371.75L973.99,375.49L973.34,380.92L966.29,388.98L966.73,395.33L964.19,400.45L954.1,407.49L946.63,404.63L938.42,396.18L931.69,398.54L927.74,396.82L919.58,386.62L921.16,384.86L921.04,384.49L920.87,383.94L920.77,383.62L920.66,383.27L920.55,382.92L919.67,380.09L919.66,380.05L919.65,380.03L919.55,379.7L919.43,379.33L919.34,379.02L919.25,378.73L919.11,378.3L919.11,378.28L919.03,378.03L919.02,377.99L918.83,377.39L917.47,376.04L916.39,374.97L915.19,373.79L913.59,372.21L913.44,372.06L907.49,372.19L906.67,372.8L906.6,372.85L906.5,372.92L903.06,369.01L899.32,363.33L898.52,362.11L897.93,361.2L897.83,361.05L897.73,360.89L897.66,360.79L897.62,360.72L897.54,360.61L897.53,360.59L897.52,360.58L897.52,360.57L897.14,360L897.11,359.95L897.1,359.94L896.98,359.76L896.16,358.5L896.13,358.46L896.09,358.39L896.06,358.35L896.03,358.3L895.91,358.12L895.73,356.7L895.72,356.59L895.6,355.69L896.37,354.01L895.92,350.17L891.4,349.8L891.33,349.87L890.78,350.43L890.75,350.46L890.75,350.46L890.64,350.58L890.39,350.82L890.25,350.96L890.14,351.08L890.11,351.11L890.08,351.14L890.08,351.14L890.04,351.18L889.77,351.45L889.53,351.7L887.76,353.5L887.63,353.63L887.46,353.81L887.42,353.85L887.21,354.06L886.94,356.94L886.89,357.55L886.86,357.86L886.85,357.99L885.9,358.17L885.9,358.17L879.43,356.31L879.24,355.85L879.95,354.48L879.97,354.45L880.13,354.14L879.51,353.4L879.19,353.02L879.18,353L875.5,351.83L874.56,352.23L873,354.35L872.98,354.38L872.94,354.43L872.94,354.43L872.76,354.67L872.75,354.69L872.75,354.69L872.75,354.7L872.72,354.72L872.71,354.74L872.68,354.79L872.61,354.88L872.52,355L871.81,355.97L871.52,356.36L871.28,356.68L871.2,356.8L870.7,357.47L870.33,357.97L870.05,359.43L869.89,360.2L869.77,360.86L869.7,361.2L869.63,361.54L869.67,361.6L870.17,362.31L872.98,366.33L872.98,366.44L872.97,366.55L872.97,366.59L872.97,366.66L872.83,369.92L868.37,372.48L867.96,372.71L867.89,372.76L867.09,370.78L867.08,370.74L866.94,370.39L866.82,370.1L865.78,367.49L866.58,361.39L866.71,360.41L867.83,351.96L867.83,351.73L867.81,351.32L867.81,351.22L867.81,351.11L867.81,351.08L867.81,351.04L867.81,351.03L867.81,350.98L867.8,350.95L867.8,350.63L867.79,350.25L867.78,350.07L867.78,350.01L867.78,349.99L867.68,346.46L867.68,346.43L867.68,346.4L867.63,344.51L867.63,344.46L867.63,344.42L867.62,344.37L869.47,336.97L869.71,336.79L870.82,335.96L872.46,334.73L872.75,334.24L875.46,329.81L876.05,328.84L876.07,328.8L876.08,328.79L876.1,328.75L876.23,328.54L876.55,322.72L876.72,322.38L876.73,322.37L876.77,322.28L877.01,321.79L878.49,318.76L878.77,318.2L878.77,318.2L879.3,317.73L879.62,317.45L879.96,317.49L879.99,317.5L880.01,317.5L880.02,317.5L880.03,317.5L880.03,317.5L880.04,317.5L880.12,317.51L880.24,317.53L880.27,317.53L880.27,317.53L880.76,317.6L881.18,317.65L882.2,317.79L883.21,317.31L885.12,316.41L885.15,316.4L885.24,316.35L885.24,316.34L885.04,314.92L885.07,314.82L886.07,311.65L886.85,309.18L888.06,309.22L888.39,309.23L888.88,309.25L888.46,310.63L888.44,310.68L888.48,310.74L889.44,312.51L889.52,312.65L889.59,312.79L890.77,314.94L891.2,315.73L891.33,315.95L891.33,315.96L892.7,318.46L892.72,318.48L893.93,319.59L895.9,320.52L898.54,321.78L898.85,321.92L900.75,322.83L901.26,323.07L907.1,322.34L907.3,321.95L907.56,321.43L907.57,321.4L907.87,320.82L908.4,319.75L908.44,319.56L908.5,319.33L908.51,319.26L908.54,319.15L908.56,319.08L908.58,318.96L908.65,318.69L909.04,316.97L909.02,316.91L908.55,315.64L908.53,315.58L908.53,315.56L907.22,312.02L907.21,311.98L906.71,309.51L908.69,304.93L911.49,306.76L914.88,304.28L916.59,299.39L920.42,298.23L925.32,299.41L926.44,300.63L927.94,298.5L933.2,298.41L933.43,295.63L930.48,290.57L931,288.28L929.89,287.32L930.13,286.43L930.76,285.72L931.2,284.89L931.03,284.06L931.04,283.19L931.14,282.76L931.89,281.67L932.44,280.49L932.61,279.6L933.15,278.4L933.71,278.09L933.79,277.57L936.79,276.24L975.71,285.69L977.11,286.33L977.19,287.12L976.01,287.04z"/>
		<path id="C24043" title="Washington" class="land" d="M487.71,143.11L485.4,142.91L484.43,141.84L483.3,141.01L477.57,138.57L476.52,137.35L476.1,136.49L476.11,135.51L476.29,134.92L476.6,134.52L479.06,133.05L480.29,131.71L480.86,129.32L480.78,127.47L478.26,122.79L478.12,122.33L478.23,121.45L478.56,121.01L479.25,120.71L481.71,120.27L482.45,119.99L482.94,119.44L483.05,118.76L482.91,117.69L481.92,114.48L479.86,111.2L478.43,107.92L478.31,106.82L477.88,106.32L476.76,105.56L475.49,104.98L472.31,105.19L468.89,104.66L467.38,104.21L465.69,103.23L464.68,102.3L464.48,101.88L464.59,101.12L465.14,100.57L468.53,99.86L469.23,99.36L469.36,98.96L469.21,98.31L467.28,96.81L465.89,95.18L465.57,94.33L465.8,93.51L466.43,93.14L467.27,93.03L469.92,93.73L470.76,93.8L471.11,93.61L471.5,93.07L471.5,92.75L471.3,92.45L468.23,90.97L466.58,89.75L466.27,89.32L465.88,88.16L465.99,87.08L466.29,86.46L466.62,85.99L468.55,84.84L470.41,84.1L473.18,83.36L473.89,82.98L474.46,82.6L474.88,82L474.92,81.51L474.76,81.04L474.08,80.31L473.39,79.84L472.45,79.7L470.45,79.85L469.67,80.21L469.09,80.73L468.2,82.29L467.65,82.8L466.58,83.21L464.87,83.29L463.22,82.99L459.65,81.69L458.35,81.56L456.58,81.39L452.79,80.01L452.24,79.27L452.11,78.77L452.25,78.33L452.94,77.44L457.37,74.38L458.31,73.5L458.88,70.95L458.83,70.3L458.39,69.13L457.88,68.68L456.14,67.9L455.19,68.07L454.61,68.44L454.2,69.12L454.17,72.06L453.82,72.94L451.39,74.04L448.78,74.42L447.82,74.17L447.14,73.23L447.04,72.39L447.14,70.72L447.43,69.47L447.64,67.12L447.61,66.53L447.36,65.85L445.65,63.75L441.54,61.02L440.85,59.6L440.93,58.85L441.12,58.44L441.63,58L443.75,56.91L445.33,56.77L447.25,56.89L449.98,56.51L453.75,56.61L455.36,55.88L456.22,54.23L456.89,50.61L457.16,48.43L457.17,47.09L456.61,43.5L456.12,42.85L454.9,41.72L453.58,41.31L450.64,41.36L449.44,41.09L446.44,39.93L444.78,38.8L441.91,38.27L441.38,38.72L441.4,39.15L442.78,41.01L443.01,41.68L443.04,42.88L442.82,43.88L442.5,44.32L441.92,44.63L440.98,44.85L433.28,42.9L433.16,42.85L431.38,42.17L430.64,41.17L429.88,38.94L428.74,37.6L427.46,37.07L426.24,37.2L425.5,37.92L425.63,38.69L427.23,39.41L428.03,41.02L427.77,45.86L427.04,48.48L426.18,49.27L425.07,49.31L424.06,48.49L423.48,46.5L423.42,44.87L423.76,43.48L423.85,42.49L423.44,41.63L421.91,40.83L420.68,40.8L419.54,41.25L418.46,42.08L417.41,43.52L416.66,43.99L414.42,44.11L412.59,43.83L409.59,43.73L408.37,43.42L407.47,42.87L407.1,42.44L404.05,36.91L403.64,36.16L401.92,34.11L400.3,31.16L399.51,30.31L397.08,28.53L396.45,27.73L395.91,26.71L391.4,22.12L389.66,20.12L388.85,19.33L387.54,18.52L385.8,18.5L385.46,18.34L383.45,16.02L382.17,15.26L380.49,14.6L379.39,14.44L376.05,13.35L373.63,12.88L372.94,12.4L370.66,11.65L367.72,11.61L365.52,10.5L362.97,9.79L361.52,9.67L359.83,9.97L357.53,11.7L357.16,12.11L355.99,14.63L354.78,16.13L354.26,16.56L353.21,16.8L347.54,16.75L346.37,17.37L345.94,17.91L345.97,18.77L348.5,21.57L348.57,22.11L348.16,22.9L347.44,23.65L344.58,25.33L342.19,27.94L340.16,29.6L337.93,33.04L337.61,34.48L337.6,36.17L337.13,37.03L336.65,37.19L335.46,36.9L332.18,36.6L325.25,33.34L323.91,32.85L318.7,31.04L318.16,30.89L317.74,28.94L315.67,27.89L315.76,26.35L315.39,24.97L312.26,23.91L310.99,23.38L311.97,21.95L314.05,22.23L316.85,21.12L318.32,20.76L316.31,18L316.24,15.95L319.45,16.12L321.28,16.49L322.21,15.48L322.05,14L321.7,12.02L322.65,10.51L322.42,7.29L320.6,6.09L319.1,5.17L318.62,2.54L317.37,1.48L316.15,2.36L315.29,1.45L315.69,0.18L315.78,0.18L316.33,0.19L316.6,0.18L317.27,0.21L319.03,0.13L336.04,0.15L336.06,0.16L343.19,0.2L343.95,0.19L353.85,0.19L354.28,0.22L382.89,0.26L389.33,0.26L389.9,0.26L444.77,0.29L474.06,0.6L481.04,0.66L483.96,0.7L486.31,0.77L499.98,0.78L500.61,0.81L538.52,1.04L538.9,1.03L556.61,1.08L545.88,13.83L550.07,16.64L540.08,32.33L528.75,36.77L521.16,65L517.07,68.86L514.19,79.56L516.1,90.49L511.2,98.44L509.39,114.19L506.31,123.93L500.28,134.9L499.26,142.06L498,142.2L496.51,143.54L494.89,144.06L493.65,143.99L490.83,142.95L488.58,143.28z"/>
		<path id="C24045" title="Wicomico" class="land" d="M999.07,524.58L997.5,522.79L997.5,522.79L996.91,522.6L996.3,522.41L994.04,522.44L993.88,522.44L993.4,522.8L992.94,523.15L992.79,523.26L992.48,523.49L992.25,524.17L993.27,527.14L993.2,527.19L991.89,528.18L990.81,528.03L990.5,527.99L990.45,527.94L989.38,526.82L989.3,526.74L989.13,526.37L988.93,525.93L987.7,523.24L987.66,523.14L986.99,521.67L987.03,519.78L986.24,517.71L984.55,515.9L983.95,515.58L983.72,515.45L982.29,514.67L981.42,503.96L983.82,498.5L991.48,489.82L999.18,485.23L1000.99,480.78L998.33,476.71L1000.11,473.74L1006.31,472.38L1002.76,467.87L1004.32,460.32L1008.93,459.78L1011.02,457.43L1011.01,454.23L1007.76,452.76L1006.76,451.13L1007.75,447.79L1012.29,445.79L1012.54,443.67L1010.06,440.26L1013.21,436.74L1018.36,435.6L1021.84,432.36L1026.54,430.65L1032.09,419.66L1035.6,419.58L1041.19,415.06L1042.44,412.03L1044.04,411.6L1044.06,412.06L1044.42,417.93L1044.8,425.2L1045.38,434.16L1045.47,435.6L1046.25,446.91L1053.96,447.34L1054.71,447.39L1063.64,447.69L1072.57,448.06L1073.95,448.21L1074.99,448.26L1076.56,448.21L1079.18,448.36L1083.09,448.5L1083.29,448.51L1090.31,448.72L1093.35,448.83L1093.74,448.83L1098.8,448.98L1099.58,449.01L1105.37,449.16L1119.27,449.52L1120.35,449.54L1124.19,449.62L1128.63,449.7L1128.97,449.72L1135.17,449.72L1139.38,449.76L1143.39,449.77L1143.39,449.77L1146.38,459.49L1150.05,466.5L1146.57,474.54L1150.28,478.75L1152.04,485.75L1139.48,497.92L1136.94,506.38L1068.52,510.48L1054.76,503.41L1045.46,512.03L1045.66,512.83L1045.46,513.26L1046.24,513.93L1046,514.58L1044.62,515.28L1043.71,515.08L1043.19,514.77L1042.66,514.8L1041.89,515.27L1041.38,515.37L1040.45,514.52L1039.46,514.94L1038.84,514.67L1037.9,512.94L1038.11,511.86L1037.99,511.48L1037.75,511.31L1036.65,511.55L1036.42,510.97L1036.79,509.91L1036.62,509.67L1035.88,509.65L1034.95,508.94L1032.98,510.3L1031.8,509.85L1031.33,508.76L1030.96,508.35L1030.72,508.49L1030.89,509.09L1030.78,509.61L1030.18,509.76L1029.82,509.28L1030.03,508.33L1029.46,508.1L1027.36,507.91L1026.38,507.97L1025.53,508.19L1024.4,512.5L1016.23,518.81L1006.14,519.28z"/>
		<path id="C24047" title="Worcester" class="land" d="M1165.63,598.85L1165.22,598.9L1164.76,598.95L1133.3,602.49L1127.51,603.14L1119.25,603.98L1117.28,604.18L1065.33,609.78L1064.06,605.18L1058.49,598.58L1058.84,591.46L1065.79,588.6L1083.5,577.88L1086.32,577.82L1087.65,574.76L1088.06,572.75L1087.59,570.92L1086.27,568.59L1085.3,566.99L1084.33,564.61L1082.77,563.1L1080.91,561.57L1078.56,558.12L1079.95,554.9L1082.51,552.92L1085.66,550.97L1086.44,547.33L1086.68,544.71L1083.7,540.94L1078.5,531.67L1074.77,528.36L1072.45,523.93L1070.68,519.46L1069.16,513.54L1068.52,510.48L1136.94,506.38L1139.48,497.92L1152.04,485.75L1150.28,478.75L1146.57,474.54L1150.05,466.5L1146.38,459.49L1143.39,449.77L1165.7,449.94L1167.81,449.97L1186.37,450.1L1198.37,450.04L1212.77,450.02L1213.15,450.02L1213.83,450.02L1218.09,450.01L1218.22,450.01L1219.21,450.01L1219.65,450.01L1222.75,450.01L1223.02,450.01L1223.91,450.02L1224,450.02L1223.88,450.98L1223.86,451.15L1223.82,451.47L1223.16,456.93L1223.15,456.95L1223.11,457.31L1223.1,457.4L1223.09,457.44L1223.05,457.77L1223.04,457.9L1223.03,457.99L1223.03,458L1223.02,458.08L1222.95,458.62L1222.93,458.75L1222.93,458.79L1222.85,459.42L1222.84,459.5L1222.8,459.82L1222.79,459.89L1222.44,462.79L1222.1,464.42L1222.05,464.64L1222,464.88L1221.7,466.33L1220.57,471.68L1218.71,478.95L1218.7,479L1218.63,479.26L1218.59,479.42L1218.59,479.43L1218.24,480.79L1218.24,480.82L1217.83,482.42L1217.74,482.74L1217.73,482.8L1217.73,482.81L1217.61,483.26L1217.51,483.65L1217.13,484.8L1216.94,485.36L1214.29,493.37L1214.01,494.22L1213.97,494.35L1213.93,494.47L1213.91,494.51L1213.38,495.03L1212.09,494.87L1211.61,494.8L1209.11,498.97L1208.88,499.73L1205.28,512.02L1198,530.82L1194.66,540.57L1193.66,543.48L1192.92,546.22L1188.58,562.42L1188.15,563.54L1184.3,573.65L1184.06,574.28L1183.62,575.13L1181.05,580.11L1180.99,580.23L1180.55,581.09L1177.9,586.22L1175.63,590.02L1174.74,591.52L1172.46,595.33L1172.4,595.42L1171.99,596.1L1170.81,598.08L1170.69,598.28L1170.68,598.28L1168.46,598.53L1166.88,598.71z"/>
		<path id="C24510" title="City of Baltimore" class="land" d="M771.83,161.89L765.66,158.45L765.63,131.29L765.58,128.86L765.62,128.32L765.59,125.06L793.59,124.96L804.56,124.99L805.32,125L806.82,124.96L807.49,125.01L808.15,125L808.69,125.04L808.82,125.01L809.85,125L810.25,125.01L815.65,125.02L815.65,130.52L815.65,132.23L815.74,132.59L815.64,133.61L815.67,133.72L815.65,134.16L815.68,138.09L815.65,146.92L815.65,159.89L815.69,160.43L815.74,170.6L815.7,171.77L815.73,179.54L815.98,179.87L815.69,180.15L814.41,181.39L814.22,181.72L813.97,182.17L814.73,183.37L810.05,187.06L801.14,183.54L800.66,183.25L799.27,181.42L793.06,173.88L791.34,172.92L791.15,172.81L791.04,172.7L779.78,166.39z"/>
	</g>
</svg>