<?xml version="1.0" encoding="utf-8"?>
<!-- (c) ammap.com | SVG map of MN Counties -->
<svg xmlns="http://www.w3.org/2000/svg" xmlns:amcharts="http://amcharts.com/ammap" xmlns:xlink="http://www.w3.org/1999/xlink" version="1.1">
	<defs>
		<style type="text/css">
			.land
			{
				fill: #CCCCCC;
				fill-opacity: 1;
				stroke:white;
				stroke-opacity: 1;
				stroke-width:0.5;
			}
		</style>

		<amcharts:ammap projection="mercator" leftLongitude="-97.239668" topLatitude="49.384757" rightLongitude="-89.488920" bottomLatitude="43.499536"></amcharts:ammap>

		<!-- All areas are listed in the line below. You can use this list in your script. -->
		<!--{id:"C27001"},{id:"C27003"},{id:"C27005"},{id:"C27007"},{id:"C27009"},{id:"C27011"},{id:"C27013"},{id:"C27015"},{id:"C27017"},{id:"C27019"},{id:"C27021"},{id:"C27023"},{id:"C27025"},{id:"C27027"},{id:"C27029"},{id:"C27031"},{id:"C27033"},{id:"C27035"},{id:"C27037"},{id:"C27039"},{id:"C27041"},{id:"C27043"},{id:"C27045"},{id:"C27047"},{id:"C27049"},{id:"C27051"},{id:"C27053"},{id:"C27055"},{id:"C27057"},{id:"C27059"},{id:"C27061"},{id:"C27063"},{id:"C27065"},{id:"C27067"},{id:"C27069"},{id:"C27071"},{id:"C27073"},{id:"C27075"},{id:"C27077"},{id:"C27079"},{id:"C27081"},{id:"C27083"},{id:"C27085"},{id:"C27087"},{id:"C27089"},{id:"C27091"},{id:"C27093"},{id:"C27095"},{id:"C27097"},{id:"C27099"},{id:"C27101"},{id:"C27103"},{id:"C27105"},{id:"C27107"},{id:"C27109"},{id:"C27111"},{id:"C27113"},{id:"C27115"},{id:"C27117"},{id:"C27119"},{id:"C27121"},{id:"C27123"},{id:"C27125"},{id:"C27127"},{id:"C27129"},{id:"C27131"},{id:"C27133"},{id:"C27135"},{id:"C27137"},{id:"C27139"},{id:"C27141"},{id:"C27143"},{id:"C27145"},{id:"C27147"},{id:"C27149"},{id:"C27151"},{id:"C27153"},{id:"C27155"},{id:"C27157"},{id:"C27159"},{id:"C27161"},{id:"C27163"},{id:"C27165"},{id:"C27167"},{id:"C27169"},{id:"C27171"},{id:"C27173"}-->

	</defs>
	<g>
		<path id="C27001" title="Aitkin" class="land" d="M351.85,476.77L351.65,476.02L350.4,475.63L350.33,426.38L353.72,425.58L353.92,393.91L353.99,359.97L372.76,360.08L413.69,360.75L427.5,360.57L426.93,399.31L426.59,412.5L426.82,425.04L427.51,427.15L427.62,450.8L427.72,489.29L404.15,489.1L389.09,489.9L389.25,488.86L389.21,476.3L378.66,476.19z"/>
		<path id="C27003" title="Anoka" class="land" d="M412.89,639.9L409.95,639.88L410.02,650.64L410.03,652.7L404.26,652.74L404.38,650.47L404.78,642.94L402.96,640.26L401.38,637.1L395.09,632.14L391.11,629.25L389.99,627.21L383.61,625.27L380.88,622.38L380.84,621.69L381.09,597.87L431.22,598.31L431.23,614.97L431.15,639.56L431.12,639.98L413.94,639.91z"/>
		<path id="C27005" title="Becker" class="land" d="M212.17,393.64L212.1,406.58L156.28,406.9L108.8,406.55L108.55,393.59L108.85,367.9L106.86,367.9L106.75,341.91L119.79,341.81L172.51,341.86L211.54,341.7L211.43,367.78L212.25,367.77z"/>
		<path id="C27007" title="Beltrami" class="land" d="M249.28,303.06L210.11,302.62L209.04,233.09L202.67,230.65L200.69,226.55L200.52,222.28L200.98,219.77L203.61,212.9L205.42,210.67L169.27,210.58L168.28,210.58L168.15,187.34L168.21,157.87L167.31,157.87L167.41,132.27L167.28,131.22L168.87,131.27L193.83,131.02L207.17,131.05L207.27,157.78L287.22,157.58L287.52,157.57L287.74,210.69L288.33,210.69L288.25,237.15L288.2,250.33L288.48,275.31L288.69,276.39L288.49,297.79L288.47,302.76L262.54,303.01z"/>
		<path id="C27009" title="Benton" class="land" d="M315.75,576.91L314.6,575.85L313.56,572.46L311.4,570.83L310.21,568.11L310.15,564.19L310.79,560.96L312.36,559.36L310.42,559.68L309.56,556.22L308.07,554.15L308.98,552.51L306.77,551.96L304.48,550.21L303.25,545.41L299.14,543.16L298.86,541.63L296.83,541.38L294.94,538.55L355.15,538.55L355.61,576.83z"/>
		<path id="C27011" title="Big Stone" class="land" d="M80.35,619.01L80.35,618.99L80.37,616.79L80.34,614.79L80.23,614.29L79.94,613.98L79.86,613.41L79.44,612.5L78.95,612.03L78.81,611.82L78.74,611.54L78.69,610.9L78.57,610.66L77.66,608.77L77.33,607.81L76.66,606.25L75.34,605.03L74.71,604.69L73.32,603.55L72.38,603.14L71.48,602.87L70.84,602.77L69.19,602.04L68.25,601.49L67.48,601.14L66.88,600.64L65.2,599.56L63.51,598.85L62.13,598.68L61.17,598.68L60.43,598.55L58.96,598.71L58.14,598.49L57.61,598.54L57.1,598.5L56.76,598.34L55.87,597.5L54.9,596.21L54,594.66L52.63,592.55L51.9,591.74L51.76,591.5L51.34,590.33L51.17,589.35L50.76,588.59L50.66,588.31L50.64,587.76L50.46,587.14L49.7,585.19L48.91,583.34L48.43,582.39L46.82,580.27L46.43,579.5L45.51,578.13L44.98,577.62L44.68,577.44L41.26,572.98L100.78,573.06L101.97,573.05L101.98,598.18L114.68,598.28L114.55,601.25L114.58,623.23L116.04,623.23L116.05,632.35L112.52,629.95L108.96,630.01L103.7,625.98L98.58,625.71L97.68,622.2L94.81,621.52z"/>
		<path id="C27013" title="Blue Earth" class="land" d="M293.32,822.12L293.33,785.23L293.04,763.11L294.05,763.83L295.67,764.01L296.87,764.33L298.43,765.29L299.24,765.97L300.97,766.93L302.61,768.42L303.62,768.43L305.58,769.4L306.48,770.63L307.35,770.55L308.27,770.81L308.63,771.54L310.42,771.88L313.78,773.04L316.96,773.65L318.67,775.19L319.57,775.88L320.55,776.34L321.85,777.48L324.03,777.97L325.12,778.59L326.58,778.13L328.2,777.05L329.92,774.51L329.55,773.5L329.15,772.48L328.69,770.75L329.3,769.54L329.24,767.44L329.82,766.7L354.73,766.67L354.74,772.86L354.76,822.13L305.77,822.13z"/>
		<path id="C27015" title="Brown" class="land" d="M217.72,772.98L217.85,760.65L242.5,760.56L242.54,729.8L248.14,732.19L251.25,735.73L252.13,737.09L253.49,737.19L255.65,737.58L257.22,739.02L259.03,739.12L260.03,740.41L259.46,741.07L259.67,742.02L260.19,741.29L259.98,742.59L260.52,743.1L261.02,742.78L262.18,742.96L262.27,743.8L263.11,744.6L263.79,744.07L264.83,744.25L266.18,744.95L267.92,745.95L270.76,747.08L272.52,747.31L274.74,747.93L278.11,748.5L278.84,750.14L280.1,749.94L280.78,750.61L281.98,751.75L284.25,753.38L285.2,755.16L286.21,756.49L287.17,758.52L287.64,759.22L289,761.1L291.01,762.75L292.53,762.92L293.04,763.11L293.33,785.23L243.16,785.33L218.59,785.33L218.51,772.99z"/>
		<path id="C27017" title="Carlton" class="land" d="M426.93,399.31L453.89,399.34L468.1,398.91L471.44,399.3L504.58,399.67L504.64,414.11L505.55,414.65L505.55,414.66L505.62,420.35L505.61,423.36L505.58,438.27L505.54,439.51L505.52,442L505.5,448.92L505.49,450.56L505.49,451.1L503.45,451.05L503.19,451.08L427.62,450.8L427.51,427.15L426.82,425.04L426.59,412.5z"/>
		<path id="C27019" title="Carver" class="land" d="M380.02,677.39L380.01,677.69L380.02,678.2L380.04,685.98L378.94,685.96L374.99,687.14L372.3,689L370.3,691.41L370.23,693.65L368.8,696.77L369.5,699.18L368.88,700.75L367,701.68L365.38,701.49L362.42,704.63L359.56,707.4L356.03,709.02L355.65,709.54L354.73,709.49L354.72,704.73L342.39,704.75L342.41,698.5L329.95,698.43L330.02,673.4L329.82,673.39L329.78,660.91L354.8,661.01L354.89,661.01L354.83,673.54L380.01,673.45z"/>
		<path id="C27021" title="Cass" class="land" d="M353.92,393.91L295.99,393.51L295.74,419.4L297.21,419.42L297.58,469.91L297.05,471.41L296.35,470.66L296.11,471.69L295.19,471.37L295.91,470.37L295.21,469.08L293.14,468.82L290.13,465.45L287.44,463.63L283.97,463.81L283.26,465.07L276.38,467.99L274.19,467.35L271.19,464.81L267.38,464.47L264.25,461.22L257.16,460.68L256.28,458.28L256.61,456.41L254.2,456.74L252.38,454.11L251.41,454.5L251.26,419.63L250.7,419.51L250.59,393.75L263.58,393.78L263.7,371.25L263.21,367.96L263.22,316.18L262.41,316.16L262.54,303.01L288.47,302.76L288.49,297.79L290.52,300.31L292.4,299.73L297.56,302.16L318.97,292.38L321.31,292.8L322.86,294.23L324.74,298.8L328.18,303.24L326.82,304.17L326.71,308.59L327.41,310.54L332.36,313.95L333.71,313.9L337.85,318.88L341.07,319.34L342.45,316.75L346.86,317.05L346.6,318.06L349.42,319.45L349.91,318.42L354.12,318.82L352.84,319.66L353.91,322.88L353.26,325.34L351,326.89L351.17,330.64L354.06,332.69L353.99,359.97z"/>
		<path id="C27023" title="Chippewa" class="land" d="M153.51,667.03L152.85,665.87L146.64,665.15L144.73,662.87L144.48,659.01L140.9,656.79L139.98,654.39L138.52,653.8L128.65,643.78L126.29,640.2L125.36,640L122.89,635.89L203.64,635.86L203.44,673.48L179.48,673.57L179.49,693.41L178.64,693.15L178.57,692.3L178.59,691.54L177.72,690.79L176.9,691.25L175.72,690.75L175.39,690.16L175.95,688.96L176.94,688.82L176.7,687.16L174.27,686.22L173.02,683.79L170.03,680.87L166.86,679.46L164.6,676.35L163.84,676.03L162.04,674.2L161.98,673.68L160.27,672.77L160.21,671.79L159.11,671.42L157.79,671.67L156.2,671.55L155.23,670.72L155.18,669.99L154.75,668.42z"/>
		<path id="C27025" title="Chisago" class="land" d="M449.46,552L449.26,552.13L448.67,552.19L448.51,552.36L448.5,552.83L448.45,552.91L448.2,553.01L447.26,553.14L446.95,553.38L446.59,553.82L446.54,554.18L446.62,554.64L446.32,556.42L446.5,556.78L446.49,556.86L445.95,557.99L445.8,559.99L445.59,561.4L445.23,562.29L445.08,562.96L444.9,564.25L444.76,564.53L444.67,565.28L444.77,565.6L444.79,566.09L444.66,566.82L444.66,567.32L444.8,568.08L445.18,568.96L445.23,569.47L444.98,570.23L444.83,571.15L444.83,571.7L445.15,572.44L444.98,574.04L445.1,574.52L445.37,574.83L446.4,575.67L448.91,575.83L449.19,575.88L450.17,576.33L451.28,576.64L452.42,576.61L453.51,576.36L454.67,575.77L455.12,575.63L456.11,575.54L456.38,575.58L456.7,575.77L457.28,576.25L458.06,577.14L459.22,577.79L461.21,579.52L461.35,579.89L461.36,580.16L461.01,581.77L461.04,582.77L461.15,583.4L461.39,583.72L462.26,584.53L462.66,585.02L463.65,586.51L464.37,587.99L464.74,588.95L465.23,589.53L465.9,590.68L466.21,590.9L467.85,591.56L468.63,591.99L468.71,592.11L469.34,593.98L469.32,594.52L469.08,595.72L468.96,597.24L469.04,597.64L469.3,597.95L469.33,598.1L469.18,598.94L468.93,599.54L468.95,600.24L468.12,600.59L467.55,600.99L467,601.6L466.23,602.9L466.05,603.47L466.1,603.85L466,603.98L464.24,605.31L463.6,606.04L463.5,606.35L463.46,606.74L463.93,608.37L463.99,608.81L463.98,609.24L463.88,609.63L463.39,610.67L462.86,611.43L461.04,613.17L460.55,613.9L460.08,614.45L459.22,615.12L431.23,614.97L431.22,598.31L430.94,577.19L418.71,577.05L418.73,551.91z"/>
		<path id="C27027" title="Clay" class="land" d="M46.44,419.68L45.91,419.37L45.79,419.13L45.85,418.58L45.95,418.25L45.97,417.87L45.84,416.76L45.21,416.13L45,415.43L45.05,414.36L45.51,413.78L45.64,413.34L45.53,412.93L45.56,412.64L45.6,412.56L46.01,412.42L46.13,412.2L46.09,411.9L46.48,411.43L46.5,411.17L46.41,411.04L46.22,410.96L46.13,410.52L46.23,410.27L46.25,409.82L46.13,409.14L45.81,408.76L45.78,408.65L46.3,407.3L46.44,406.16L46.94,405.8L47,405.13L46.94,404.87L46.77,404.73L46.49,404.3L46.76,403.68L46.8,403.12L46.46,402.8L46.39,402.33L46.46,401.97L46.58,401.72L46.56,401.31L46.17,400.77L46.17,400.52L46.3,400.15L46.46,400.09L46.56,399.9L46.36,399.63L46.35,399.38L46.49,399.25L46.49,399.17L46.42,398.98L46.05,398.61L46,398.3L46.1,397.87L46.03,397.67L45.7,397.56L45.66,397.48L45.64,397.22L45.79,396.76L45.76,396.47L45.59,396.17L45.27,395.84L45.19,395.59L45.32,393.18L45.24,393.04L44.74,392.79L44.62,392.62L44.68,392.48L44.85,392.33L44.95,392.04L44.87,391.41L45.09,391.01L45.75,390.19L45.97,390.25L46.15,390.2L46.19,390.01L45.94,389.53L45.97,389.4L46.38,389.27L46.57,388.99L46.59,388.76L46.52,388.55L46.54,388.35L46.58,388.26L46.89,388.21L47,388.06L47,387.84L46.91,387.58L46.96,387.3L47.14,386.95L47.14,386.78L47.02,386.64L46.84,386.56L46.72,386.38L46.73,385.93L46.81,385.73L46.82,385.53L46.79,385.33L46.63,385.02L46.63,384.72L46.85,384.34L47,383.51L47,383.03L46.89,382.86L46.79,382.52L46.89,382.4L47.38,382.55L47.82,382.8L47.98,382.79L48.11,382.49L48.22,381.88L48.15,381.71L47.98,381.71L47.76,381.82L47.59,381.71L47.28,380.09L47.59,378.91L47.9,378.43L48.21,378.67L48.39,378.69L48.61,378.03L48.57,377.58L48.68,376.92L49.05,376.72L49.04,376.53L48.88,376.33L48.83,376.13L48.87,375.88L49.02,375.6L48.8,375.37L48.77,375.21L48.77,375.07L48.94,374.66L48.94,374.46L48.79,374.27L48.64,374.21L47.42,374.84L46.9,375.23L46.61,375.64L46.4,375.6L46.23,375.13L45.87,375.06L45.8,374.99L45.74,374.79L45.75,374.33L45.9,373.82L45.75,372.81L45.61,372.58L45.12,372.52L44.95,372.38L45.01,371.54L44.92,371.34L44.89,370.61L45.01,370.13L44.96,369.88L44.75,369.61L44.6,369.61L43.88,369.91L42.89,369.38L42.65,369.09L42.63,368.84L42.85,367.9L42.58,365.99L42.37,365.52L42.38,365.09L42.51,364.81L42.52,364.52L42.21,364.24L42.08,364.28L41.63,363.87L41.39,363.52L41.35,363.37L41.36,363.19L41.46,363.01L41.58,362.25L41.51,362.12L41.87,361.3L42.19,361.05L42.9,360.8L43.05,360.55L42.99,360.37L42.71,360.04L42.68,359.81L42.7,359.61L42.96,359.41L42.99,359.21L42.97,358.9L42.78,358.61L42.75,358.33L42.96,357.48L42.91,356.61L42.58,356.17L42.38,355.6L42.42,355.33L42.62,355.24L42.71,355.11L42.66,354.9L42.48,354.67L42.42,353.96L42.46,353.8L42.71,353.58L42.75,353.48L42.68,353.11L42.89,352.83L42.93,352.39L42.82,352.24L42.77,352.02L42.94,351.43L42.78,351.1L42.83,350.85L43.01,350.57L42.99,349.88L42.85,349.67L42.84,349.44L43.03,348.94L43.05,348.67L42.96,348.5L42.68,348.3L42.57,348.13L42.62,347.82L42.78,347.51L42.72,347.21L42.09,346.55L42.05,346.35L42.15,346.15L42.28,346.07L42.35,345.83L42.38,345.5L42.06,345.15L41.94,344.85L42.06,344.36L42.06,344.09L41.96,343.61L41.66,343.28L41.57,343.02L41.81,342.56L41.81,342.3L41.71,342.16L41.69,342L106.75,341.91L106.86,367.9L108.85,367.9L108.55,393.59L108.8,406.55L109.03,419.49L97.93,419.48L97.77,419.47L46.81,419.56L46.55,419.53z"/>
		<path id="C27029" title="Clearwater" class="land" d="M169.34,223.76L169.27,210.58L205.42,210.67L203.61,212.9L200.98,219.77L200.52,222.28L200.69,226.55L202.67,230.65L209.04,233.09L210.11,302.62L210.11,315.74L210.42,315.77L211.5,315.76L211.54,341.7L172.51,341.86L172.48,289.47L172.19,289.49L172.26,263.71L172.28,263.25L169.68,263.24z"/>
		<path id="C27031" title="Cook" class="land" d="M635.25,294.76L635.49,230.75L634.9,230.7L635.09,203.94L634.35,199.4L634.36,184.96L634.38,184.96L635.13,184.71L635.29,184.35L636.34,183.49L637.27,183.17L637.17,182.8L639.96,180.22L645.26,178.63L646.3,178.52L647.13,177.49L649.31,176.2L649.72,177.01L650.37,177.42L651.19,177.36L653.21,176.4L653.59,176.53L654.04,177.15L654.19,177.89L653.98,178.87L654,178.96L654.19,179.14L654.23,179.28L654.49,182.87L654.56,184.93L654.34,186.72L654.72,187.21L655.38,186.69L655.45,186.06L655.42,185.71L655.89,185.53L656.07,185.84L656.24,186.32L656.96,186.31L657.62,186.58L657.98,188.81L658.39,189.41L659.49,189.17L659.75,188.71L659.96,188.59L660.3,188.73L660.47,189.01L660.35,189.81L660.29,191.03L659.5,191.52L658.37,192.44L658.25,192.84L658.53,193.05L658.68,193.04L659.04,193.01L659.26,193.11L659.34,193.25L659.34,193.33L659.32,193.45L659.08,193.91L659.36,194.24L659.74,194.37L660.42,194.79L660.49,195.04L660.5,195.08L660.68,195.59L660.68,195.63L660.81,195.79L661.2,195.94L661.36,196.9L661.98,198.45L661.97,198.73L662.99,199.85L664.02,199.29L667.89,199.08L669.63,198.39L674.24,197.93L675.74,196.66L676.41,196.65L676.83,196.56L677.83,196.03L679.36,195.79L679.45,195.45L680.3,194.84L680.54,194.82L680.83,195.22L680.95,195.28L681.5,195.19L681.95,195.02L682.65,195.16L683,195.86L681.58,197.41L681.81,198.29L682.13,198.66L682.9,199.08L686.96,198.56L687.59,198.87L687.87,198.58L688.14,198.52L689.1,198.65L689.15,198.55L689.18,198.5L689.34,198.27L689.74,198.62L690.03,198.61L690.41,198.41L690.72,198.15L690.99,197.64L691.67,197.54L692,197.12L692.23,197.15L692.46,197.35L693.61,197.7L694.08,197.95L694.48,198.38L695,198.66L697.87,197.7L698.6,197.69L699.59,198.41L699.93,198.46L700.31,198.74L700.4,199.1L700.5,199.29L700.74,199.51L701.53,199.85L701.68,199.81L701.76,199.44L702.23,199.3L703.65,199.23L704.37,199.37L704.62,199.32L704.7,199.22L704.76,199.14L705.22,199.05L705.34,198.5L706.07,198.1L707.38,197.89L707.88,197.66L708.57,197.69L709.34,198.08L709.83,198.6L710.23,198.62L711.74,197.97L712.72,197.96L713.86,198.13L715.91,197.39L716.84,197.23L717.69,197.48L718.2,197.51L719.87,197.19L720.52,197.26L721.75,196.57L723.02,196.98L724.4,196.9L724.96,196.69L725.11,196.54L725.88,196.62L726.25,196.67L726.66,197.18L727.02,197.29L727.14,197.38L727.27,197.61L727.92,197.81L730.44,197.76L732.25,198.29L733.91,199.02L734.79,199.74L735.14,199.79L736.77,200.36L737.39,200.8L737.88,202.73L738.26,203.47L738.69,203.36L738.78,203.22L738.94,203.29L740.02,204.94L740.43,206.24L740.21,207.37L740.14,208.32L740.34,209.03L740.51,209.38L740.94,209.8L741.1,209.83L741.31,209.72L741.4,209.74L742.13,210.13L742.52,210.61L743.05,211.5L743.53,211.48L744.44,211.96L744.85,211.29L746.5,211.33L746.65,211.71L746.69,212.13L746.88,212.47L747.81,213.73L748.45,214.49L748.87,214.74L749.53,214.89L749.66,214.98L750,215.42L750.29,215.6L751.4,215.79L751.99,215.78L752.75,215.93L752.96,215.85L753.28,215.25L755.38,214.86L755.51,214.82L755.88,214.1L755.89,213.5L755.88,213.41L755.88,213.35L755.93,213.29L755.98,213.27L756.29,213.37L756.76,213.78L756.99,213.8L757.14,213.67L757.93,212.08L758.15,211.48L758.22,211.41L759.48,211.09L759.63,211.57L759.74,211.61L760.47,211.5L760.63,211.45L760.73,211.1L760.83,211.02L761.07,210.94L762.01,210.99L762.34,210.91L762.9,210.41L763.92,210.21L765.42,210.16L765.94,210.33L766.06,210.67L766.11,210.69L766.46,210.61L766.69,210.46L767.26,210.7L767.28,210.85L768,210.82L768.05,210.79L768,210.63L768.09,210.59L768.19,210.64L768.31,210.97L768.26,211.04L768.11,211.04L767.97,211.2L768,211.63L768.29,211.51L768.49,211.22L768.71,211.09L768.81,211.21L768.78,212.15L768.83,212.3L769.11,212.18L769.63,212.16L769.74,212.26L769.84,212.49L770.2,212.75L770.31,212.76L771.6,212.07L771.84,212.09L771.89,212.22L772,212.21L772.53,212.15L772.82,212L773.14,211.96L773.33,212.04L773.36,212.16L773.59,212.44L773.82,212.58L774.06,212.51L774.22,212.09L774.85,212.19L774.98,212.56L775.24,213.01L775.46,213.16L775.67,213.12L775.79,212.93L776.04,212.77L776.44,212.81L776.61,213.11L776.8,213.13L776.87,213.09L776.88,212.96L776.83,212.7L776.72,212.47L776.88,212.29L778.12,211.96L778.59,212.07L778.85,212.04L779.03,211.83L779.23,211.35L779.49,211.04L779.62,211L779.72,211.17L779.81,211.81L779.69,212.28L779.88,212.71L780.51,212.98L781.22,213.05L781.8,213.43L782.11,213.73L782.51,214.27L782.62,214.33L783.68,214.01L784.33,213.26L792,211.5L791.74,212.92L791.38,213.35L786.66,214.8L785.63,215.64L785.49,216.64L785.28,217.54L783.51,218.7L781.88,218.85L781.1,218.12L779.51,216.64L778.17,216.27L777.43,216.75L776.9,217.75L776.58,218.59L776.61,219.82L776.77,220.67L776.64,220.77L774.49,221.13L770.7,222.65L767.42,225.08L766.62,226.16L764.46,227.86L760.9,230.24L754.73,232.87L752.93,232.84L747.6,234.69L746.87,235.34L747.21,236.39L746.56,237.01L742.43,239.47L738.4,240.86L735.43,241.44L732.44,242.42L732.42,242.93L732.08,243.6L731.39,243.56L730.79,243.64L727.87,244.8L726.3,244.75L723.37,245.2L721.53,246.16L720.63,247.42L716.38,247.71L714.38,248.23L709.56,250.31L708.5,250.68L707.72,250.67L706.75,251.11L706.05,251.55L705.8,252.23L700.33,253.03L699.56,253.46L696.74,253.93L695.07,254.47L694.64,255.26L692.96,256.02L684.91,258.79L683.46,260.73L680.02,262.17L673.6,265.89L669.66,267.79L664.59,270.7L651.07,280.89L647.06,284.52L646.79,284.92L646.83,285.52L646.37,286.06L645.85,286.49L644.97,286.61L643.83,287.28L635.25,294.76z"/>
		<path id="C27033" title="Cottonwood" class="land" d="M217.72,772.98L218.51,772.99L218.59,785.33L243.16,785.33L243.2,822.11L182.59,822.13L181.58,822.14L181.56,772.85z"/>
		<path id="C27035" title="Crow Wing" class="land" d="M353.92,393.91L353.72,425.58L350.33,426.38L350.4,475.63L351.65,476.02L351.85,476.77L350.35,476.78L350.41,489.52L292.75,489.44L293.63,486.2L290.59,481.39L290.72,478.91L291.28,477.51L294.72,475.02L296.51,472.24L296.11,471.69L296.35,470.66L297.05,471.41L297.58,469.91L297.21,419.42L295.74,419.4L295.99,393.51z"/>
		<path id="C27037" title="Dakota" class="land" d="M431.17,673.56L432.19,677.44L432.09,681.78L432.74,684.46L431.02,688.5L431.59,690.1L436.92,690.89L440.17,689.31L442.08,690.23L445.09,690.27L448.01,694.1L453.4,694.37L453.41,694.46L454.9,695.57L457.13,696.69L458.05,697.52L458.34,697.67L458.75,697.77L460.07,698.48L460.6,698.98L460.6,711.04L454.42,711L454.42,723.41L441.5,723.37L441.52,727.03L437.84,728.54L437.63,727.47L434.76,726.86L429.2,727.33L429.19,733.56L404.43,733.54L404.45,723.27L404.76,723.27L404.79,710.85L400.65,710.88L399.54,687.88L407.4,684.99L411.61,680.89L413,677.7L414.98,673.91L417.49,673.25L420.08,669.41L428.08,669.43z"/>
		<path id="C27039" title="Dodge" class="land" d="M428.53,772.74L429.01,772.74L466.05,772.91L466.08,822.06L464.96,822.04L428.52,822.06z"/>
		<path id="C27041" title="Douglas" class="land" d="M150.17,496.74L157.85,496.75L157.93,496.75L213.93,496.84L213.89,522.36L214.65,522.38L214.55,545.67L214.56,547.79L200.36,547.8L200.25,547.86L200.09,547.79L151.32,547.64L151.3,522.23L150.19,522.23z"/>
		<path id="C27043" title="Faribault" class="land" d="M334.02,871.18L334.02,871.18L321.53,871.08L321.39,871.08L319.98,871.08L319.8,871.08L305.69,871.08L305.77,822.13L354.76,822.13L366.97,822.11L366.94,871.18L361.75,871.18L361.18,871.18L360.79,871.18L360.03,871.18L352.05,871.19L351.9,871.19z"/>
		<path id="C27045" title="Fillmore" class="land" d="M562.96,822.28L562.98,871.03L562.97,871.03L562.67,871.04L562.34,871.04L562.14,871.05L559.8,871.03L558.13,871.02L557.97,871.01L555.35,871.02L555.12,871.03L553.31,871.03L541.36,871.04L540.54,871.05L527.26,871.03L527.24,871.03L526.22,871.03L524.8,871.02L517.14,871.02L515.1,871.05L507.06,871.06L506.89,871.06L497.71,871.06L495.73,871.05L493.91,871.06L493.63,871.04L489.54,871.06L489.53,824.09L489.55,822.09L527.31,822.25z"/>
		<path id="C27047" title="Freeborn" class="land" d="M366.97,822.11L391.66,822.11L428.16,822.06L428.19,871.18L409.83,871.18L405.44,871.21L392.44,871.19L389.43,871.2L385.34,871.2L384.9,871.21L383.96,871.2L383.32,871.2L382.39,871.2L382.39,871.2L379.21,871.2L378.84,871.2L376.13,871.19L374.28,871.19L370.15,871.19L366.94,871.18z"/>
		<path id="C27049" title="Goodhue" class="land" d="M460.6,698.98L462.53,700.78L463.78,701.83L464.24,702.45L465.26,703.5L467.49,706.18L467.87,706.54L468.4,706.95L470.82,708.24L471.88,709.68L472.08,710.36L472.08,711.07L471.79,711.89L471.71,712.29L471.73,712.65L471.91,713.11L472.26,713.41L472.61,713.58L473.37,713.47L473.94,713.53L475.07,714.4L475.24,715.01L475.51,715.24L475.66,715.27L475.98,715.13L476.26,714.69L476.43,714.53L476.86,714.59L477.22,714.75L477.45,715L478.1,715.97L479.23,717.95L479.28,718.44L479.24,718.69L479.09,719.05L479.05,719.31L479.21,719.69L479.41,719.86L479.79,719.97L480.17,719.94L481.52,719.04L482.18,718.8L482.44,718.8L483.03,719.29L483.42,719.5L484.95,720.11L485.29,720.09L485.88,719.82L486.26,719.79L487.36,720.25L488.91,720.7L490.37,720.57L491.14,720.19L491.36,720.15L491.9,720.32L492.42,720.68L493,720.92L494.61,721.22L495.66,721.3L497.78,721.09L498.47,721.13L499.9,721.38L501.07,721.83L501.79,722.27L502.72,723.13L502.98,723.47L503.1,723.69L503.32,724.12L503.65,725.44L503.94,726.05L504.4,726.71L504.45,726.88L504.5,727.19L504.45,729.03L504.53,729.5L505.05,730.58L505.68,731.62L506.56,732.73L507.13,733.31L508.59,734.52L509.96,735.32L510.39,735.71L510.68,736.07L491.44,735.95L491.41,748.33L479.13,748.3L479.12,772.99L466.05,772.91L429.01,772.74L429.19,733.56L429.2,727.33L434.76,726.86L437.63,727.47L437.84,728.54L441.52,727.03L441.5,723.37L454.42,723.41L454.42,711L460.6,711.04z"/>
		<path id="C27051" title="Grant" class="land" d="M99.52,496.57L150.17,496.74L150.19,522.23L151.3,522.23L151.32,547.64L134.52,547.69L133.91,547.65L100.68,547.66L100.72,522.09L99.44,522.08L99.44,509.34z"/>
		<path id="C27053" title="Hennepin" class="land" d="M410.03,652.7L411.96,652.69L411.99,664.6L412.79,671L414.98,673.91L413,677.7L411.61,680.89L407.4,684.99L399.54,687.88L394.3,688.65L393.89,687.03L388.45,684.73L387.82,685.82L380.04,685.98L380.02,678.2L380.01,677.69L380.02,677.39L380.01,673.45L354.83,673.54L354.89,661.01L354.8,661.01L355.37,646.17L357.63,646.2L358.73,644.86L359.58,641.34L363.53,636.04L364.15,636.04L365.04,635.56L365.62,635.73L367.02,634.96L367.29,634.54L367.96,633.95L367.94,632.69L367.52,632.2L366.7,631.55L366.11,630.65L365.98,629.6L366.39,629.16L367.23,628.69L367.59,628.09L368.44,627.91L368.66,628.5L369.26,627.91L370.06,627.67L370.67,627.52L371.29,627.22L371.72,627.62L372.36,627.77L372.67,627.32L372.53,626.65L374.04,626.46L375.71,625.65L376.49,625.11L377.29,625.06L377.63,624.53L378.65,624.94L379.29,625.67L379.68,624.44L379.94,623.84L380.29,623.42L380.23,622.87L379.91,622.24L380.56,622.28L380.88,622.38L383.61,625.27L389.99,627.21L391.11,629.25L395.09,632.14L401.38,637.1L402.96,640.26L404.78,642.94L404.38,650.47L404.26,652.74z"/>
		<path id="C27055" title="Houston" class="land" d="M608.57,822.26L608.79,822.87L609.23,823.57L609.43,825.39L609.71,826.28L609.81,826.96L610.28,828.31L610.58,828.85L610.79,830.01L612.66,832.47L612.68,832.7L611.5,836.67L611.56,838.27L611.45,838.79L611.27,839.38L611.17,839.7L610.9,840.25L610.37,841.03L610.17,841.61L610.24,843.61L609.74,846.29L609.68,847.7L609.84,849.34L609.94,849.6L610.52,850.16L610.64,850.37L610.79,851.2L610.71,851.7L610.17,853.22L610.14,854.91L610.52,855.67L610.87,856.2L611.21,856.58L611.76,857.02L613.17,858.51L613.64,859.11L613.83,859.39L613.91,859.63L613.95,860.5L613.82,862.01L613.65,862.44L613.02,863.4L612.75,864L612.69,864.22L612.66,864.72L612.76,865.46L613.42,866.5L613.8,867.76L614.1,868.09L614.86,868.61L615.3,869.1L615.4,869.37L615.34,869.98L615.36,871.04L612.4,871.05L610.86,870.98L599.87,871.01L599.63,870.99L599.09,871.05L597,871L592.46,871.06L592.04,871.04L590.46,871.03L590.08,871.04L587.43,871.03L583.06,871.04L582.3,871.05L581.3,871.05L577.2,871.05L575.19,871.05L575.18,871.05L574.73,871.04L574.57,871.03L574.51,871.03L574.17,871.03L573.67,871.02L572.79,871.05L572.77,871.06L572.65,871.06L572.23,871.04L571.7,871.05L571.04,871.06L570.32,871.05L569.05,871.05L566,871.04L562.98,871.03L562.96,822.28z"/>
		<path id="C27057" title="Hubbard" class="land" d="M210.11,302.62L249.28,303.06L262.54,303.01L262.41,316.16L263.22,316.18L263.21,367.96L263.7,371.25L263.58,393.78L250.59,393.75L212.17,393.64L212.25,367.77L211.43,367.78L211.54,341.7L211.5,315.76L210.42,315.77L210.11,315.74z"/>
		<path id="C27059" title="Isanti" class="land" d="M431.22,598.31L381.09,597.87L381.03,576.96L380.86,553.64L380.73,551.38L393.48,551.9L418.73,551.91L418.71,577.05L430.94,577.19z"/>
		<path id="C27061" title="Itasca" class="land" d="M288.49,297.79L288.69,276.39L288.48,275.31L288.2,250.33L288.25,237.15L353.9,237.06L353.94,229.08L424.93,230.16L424.82,256.17L426.96,256.2L426.57,289.49L426.19,295.82L426.12,305.46L426.61,308.82L426.45,348.17L427.48,348.18L427.5,360.57L413.69,360.75L372.76,360.08L353.99,359.97L354.06,332.69L351.17,330.64L351,326.89L353.26,325.34L353.91,322.88L352.84,319.66L354.12,318.82L349.91,318.42L349.42,319.45L346.6,318.06L346.86,317.05L342.45,316.75L341.07,319.34L337.85,318.88L333.71,313.9L332.36,313.95L327.41,310.54L326.71,308.59L326.82,304.17L328.18,303.24L324.74,298.8L322.86,294.23L321.31,292.8L318.97,292.38L297.56,302.16L292.4,299.73L290.52,300.31z"/>
		<path id="C27063" title="Jackson" class="land" d="M243.2,822.11L243.71,822.11L243.7,871.04L243.36,871.04L243.12,871.05L241.84,871.04L241.69,871.04L240.35,871.05L237.57,871.06L237.56,871.06L237.53,871.06L237.52,871.06L235.51,871.05L233.49,871.06L231.45,871.05L229.4,871.05L227.38,871L225.36,871.01L223.37,871.01L223.29,871L217.09,871.03L216.3,871.02L213,871.06L211.74,871.01L211.68,871L210.4,871.01L206.87,871L203.81,870.95L203.21,871.07L203.19,871.06L190.54,871.08L190.48,871.08L189.2,871.09L189.2,871.09L189.2,871.09L184.46,871.08L184.45,871.07L182.39,871.03L182.56,841.93L182.62,841.63L182.49,841.38L182.59,822.13z"/>
		<path id="C27065" title="Kanabec" class="land" d="M380.73,551.38L380.2,518.57L380.28,515.18L389.02,515.24L389.09,489.9L404.15,489.1L427.72,489.29L427.59,515.26L418.62,515.3L418.73,551.91L393.48,551.9z"/>
		<path id="C27067" title="Kandiyohi" class="land" d="M203.44,673.48L203.64,635.86L203.63,623.39L202.75,623.38L202.75,598.2L215.37,598.22L253.06,598.15L253.04,610.73L253.02,623.33L253.61,623.33L253.54,673.37z"/>
		<path id="C27069" title="Kittson" class="land" d="M1.04,59.82L31.5,59.93L85.21,59.93L85.26,103.75L87.04,103.75L87,130.39L71.2,130.56L7.78,130.44L7.82,130.01L7.88,129.8L8.01,129.63L8.52,129.33L8.76,129.32L8.87,129.15L8.89,128.9L8.71,128.58L8.46,128.41L8.27,128.16L8.22,127.95L8.23,127.34L8.36,127.06L8.95,126.8L9.16,126.45L9.22,126.13L9.23,125.65L9.16,125.36L9.14,124.96L9.28,124.73L9.64,124.67L9.77,124.53L9.84,124.32L9.98,123.22L9.91,122.95L9.74,122.64L9.76,122.26L9.85,122.05L10.05,121.8L10.32,121.16L10.41,120.68L10.32,120.38L10.39,119.92L10.53,119.77L10.86,119.75L11.01,119.65L11.09,119.25L11.02,118.87L11.15,118.55L11.61,118.59L11.69,118.49L11.77,118.22L11.76,117.9L11.58,117.65L11.58,117.33L11.64,117.23L12.1,117.02L12.69,117.21L13.04,117.15L13.25,116.96L13.36,116.78L13.38,116.51L13.24,115.82L13.01,115.19L13.08,114.95L13.43,114.45L13.62,113.7L13.76,113.42L14.04,113.13L14.17,112.77L14.16,112.26L13.96,111.82L14.07,111.51L14.23,111.34L14.25,110.8L14.16,109.53L14.22,109.26L14.46,108.86L14.5,108.67L14.47,108.5L14.36,108.31L13.34,107.7L12.36,106.3L12.28,105.88L12.5,105.61L12.57,104.94L12.05,104.29L11.74,103.43L11.53,103.13L10.73,102.5L10.59,102.31L10.54,102.1L10.64,101.79L10.67,101.24L10.61,101.05L10.24,100.73L10.18,100.5L10.19,99.19L9.81,98.52L9.11,97.93L9.01,97.78L8.98,97.52L9.37,96.55L9.37,96.19L8.85,95.17L8.72,95.06L8.62,94.87L8.58,94.72L8.62,94.53L8.72,94.38L8.78,93.87L8.7,93.73L8.39,93.54L8.32,93.39L8.32,92.84L8.39,92.48L8.29,92.3L7.97,92.2L7.79,92.03L7.73,91.7L7.72,91.01L7.49,90.35L7.49,90.12L7.6,89.83L7.6,89.66L7.52,89.44L7.23,89.23L6.66,89.06L6.35,88.75L6.19,88.48L6.05,88.08L6.28,87.09L5.95,86.45L5.94,85.87L6.01,85.61L6.49,85.34L6.64,85.17L6.68,85L6.63,84.34L6.33,83.74L6.36,83.54L6.5,83.22L6.5,82.71L6.15,82.13L6.04,81.4L5.81,81.07L5.49,80.89L5.32,80.7L5.3,80.47L5.46,79.75L5.41,79.56L5.26,79.38L4.98,79.23L4.21,78.49L4.12,78.2L4.21,77.8L4.23,77.49L4.01,76.83L4.2,76.38L4.21,75.71L4.12,75.47L3.22,75.04L2.93,74.77L2.71,74.19L2.72,73.92L2.9,73.29L2.87,72.87L2.69,72.65L2.17,72.39L2.06,72.02L2.05,71.59L2.22,71.16L2.21,70.81L2.1,70.52L1.5,70.16L1.31,69.45L1.27,68.69L1.16,68.33L0.72,67.86L0.7,67.62L0.85,66.42L0.85,66L0.79,65.76L0.69,65.54L0.17,65.31L0.03,65.12L0,64.79L0.12,63.79L0.08,62.63L0.2,62.15L0.51,61.65L0.86,61.28L0.9,60.96L0.79,60.55L0.8,60.36z"/>
		<path id="C27071" title="Koochiching" class="land" d="M287.05,106.24L287.68,105.56L287.96,105.03L288.22,104.82L288.5,104.7L289.5,104.76L291.29,104.54L291.76,104.56L292.38,104.8L293.36,105.39L294.95,105.75L296,105.86L297.46,105.69L299.51,104.81L301.32,105.19L302.23,105.58L302.99,106.4L304,106.55L304.4,106.95L304.65,107.65L305.2,108.5L305.36,108.93L305.42,109.75L305,111.96L305.01,112.35L305.43,113.08L305.46,113.13L305.8,113.45L306.05,113.57L307.16,113.74L308.11,114.17L309.11,114.2L310.64,113.95L311.76,114.04L313.89,114.39L314.94,114.75L316.85,114.76L318.12,114.96L319.78,115L320.82,114.74L321.7,115.08L323.19,115L323.73,114.74L324.31,114.7L324.46,115.07L324.87,115.16L325.67,115.02L326.61,115.12L327.39,115.49L328.01,115.51L330.32,115.15L330.96,115.22L332.04,115.68L333.42,116.02L334.77,116.08L335.05,116.18L335.69,116.61L336.73,116.83L338.49,117L339.54,116.85L339.66,116.77L339.78,116.52L340.07,116.47L342.58,117.07L346.19,117.17L346.97,117.28L347.3,117.41L347.64,117.63L347.96,117.96L348.61,119.81L349,120.16L349.15,120.41L349.42,121.23L349.57,122.53L350.24,124.13L350.65,124.84L350.77,125.26L350.93,126.38L350.92,126.68L350.78,127.7L350.55,128.6L350.23,129.41L350.21,129.65L350.31,130.2L350.32,130.68L350.22,130.97L349.67,131.69L349.59,131.9L349.54,132.18L349.6,132.58L349.91,133.13L350.22,133.39L351.31,134.04L351.73,134.38L352.03,134.74L353.03,134.82L354.35,134.77L355.23,134.72L355.91,134.84L356.27,134.88L357.41,134.53L358.4,134.43L359.27,134.54L360.75,134.43L361.35,134.56L362.23,134.93L362.62,134.96L364.28,134.7L366.12,134.78L367.27,134.54L367.5,134.39L367.67,134.24L368,133.74L368.28,132.94L368.6,132.57L368.95,132.4L369.2,132.44L369.62,133.12L370.03,133.52L370.59,133.84L370.82,133.87L371.3,133.75L371.52,133.61L372.09,133.03L372.48,132.77L373.14,132.76L373.88,133.1L374.12,133.12L375.78,132.76L377.3,132.79L378,132.61L378.84,132.21L380.21,131.97L380.54,131.85L382.11,130.86L384.02,130.56L385.44,130.18L385.66,130.02L386.13,129.42L386.39,128.7L386.55,127.69L386.51,126.86L386.03,125.81L385.6,123.77L385.68,123.25L385.77,123.07L388.41,122.83L388.85,122.56L389.45,121.84L389.74,121.61L390.91,120.95L391.47,120.51L391.8,120.37L391.91,120.37L391.97,120.64L392.45,121.21L392.85,121.3L394,121.02L395.29,121.03L395.65,120.73L395.71,120.53L396.21,119.68L396.8,119.99L396.9,120.02L397.03,119.91L397.12,119.75L397.13,119.39L397.54,117.97L397.64,117.74L397.71,117.71L407.18,115.21L412.03,115.26L414.41,117.44L414.83,117.97L415.02,118.21L418.67,117.97L424.18,117.56L423.49,175.56L423.24,176.7L423.36,203.38L424.13,203.36L424.24,213.72L424.97,216.98L424.93,230.16L353.94,229.08L353.9,237.06L288.25,237.15L288.33,210.69L287.74,210.69L287.52,157.57L287.22,157.58z"/>
		<path id="C27073" title="Lac qui Parle" class="land" d="M80.44,661.08L80.42,651.74L80.43,650.61L80.43,650.4L80.43,644.31L80.45,644.12L80.41,640.15L80.41,639.95L80.42,632.08L80.43,628.53L80.43,628.28L80.42,627.68L80.35,619.01L94.81,621.52L97.68,622.2L98.58,625.71L103.7,625.98L108.96,630.01L112.52,629.95L116.05,632.35L122.89,635.89L125.36,640L126.29,640.2L128.65,643.78L138.52,653.8L139.98,654.39L140.9,656.79L144.48,659.01L144.73,662.87L146.64,665.15L152.85,665.87L153.51,667.03L153.47,673.45L142.23,673.41L142.07,685.83L80.49,685.8L80.45,673.66L80.46,671.27L80.44,670.69L80.41,663.21L80.44,661.08z"/>
		<path id="C27075" title="Lake" class="land" d="M635.25,294.76L634.24,295.77L632.94,296.03L629.67,300.21L627.64,302.45L626.75,302.76L624.51,304.6L624.19,305.51L622.59,307.33L621.61,307.73L620.23,309.62L618.32,313.55L616.53,315.19L613.22,318.83L612.04,321.01L610.78,322.69L610.43,322.66L609.94,323.01L608.13,324.69L604.29,328.74L601.45,332.68L601.04,333.58L599.37,334.92L598.06,336.49L596.89,337L594.81,338.76L591.41,342.81L590.91,343.7L588.83,345.72L586.73,346.19L585.8,346.8L584.59,348.35L578.97,351.08L577.16,354.25L576.19,355.04L575.79,355.06L574.95,355.67L573.55,357.05L572.49,358.48L571.74,360.56L570.13,361.64L569.5,362.38L565.6,363.73L562.28,367.08L558.17,371.72L557.83,372.6L556.46,373.52L556.68,308.68L556.84,304.99L555.94,254.38L556.03,182.76L556.05,182.77L556.69,182.82L556.98,183.72L557.27,183.75L557.78,183.13L559.46,183.11L559.61,182.97L559.85,182.46L560.29,182.43L560.56,183.01L561.06,183.37L561.48,183.43L561.79,183.33L561.75,182.51L562.1,182.56L564.55,183.33L565,184.13L564.89,184.86L564.8,185.11L563.88,186.21L563.77,186.51L563.56,187.68L563.69,187.89L564.28,187.51L565.11,187.37L565.53,187.66L565.55,189.35L565.33,190.28L565.2,190.42L565.71,191.54L565.9,191.63L566.14,191.64L566.23,191.78L566.26,192.11L566.07,193.61L565.65,194.67L565.25,194.96L564.82,195.89L564.8,196.07L564.85,196.22L565.71,196.4L566.8,195.97L566.94,195.78L566.85,195.52L567.83,195.09L567.73,195.76L567.34,196.68L568.02,197.23L568.44,197.36L568.98,197.19L569.39,197.19L569.63,197.4L569.84,197.12L569.89,196.72L570.85,196.31L570.96,196.37L571.02,196.52L570.82,197.01L572.19,198.94L574.73,198.18L577.42,198.14L578.76,197.48L580.45,197.21L581.1,198.01L579.38,199.48L578.8,203.61L579.05,204.98L578.78,206.28L579.64,207.05L582.17,205.59L587.67,203.34L590.04,203.54L591.59,203.23L591.97,203.44L591.92,204.08L592.84,205.77L592.76,206.1L592.89,206.21L593.7,206.31L595.31,205.56L597.64,205.01L598.83,203.76L599.71,203.13L600.29,203.51L601.79,202.79L602.85,202.55L603.2,202.91L603.21,203.1L603.62,203.15L603.88,203.07L604.01,202.95L604.1,202.83L604.42,202.65L605.45,202.52L605.74,202.6L606.68,202.58L607.95,202.44L609.41,201.75L610.39,201.72L612.05,200.9L613.6,199.09L614.49,198.52L615.7,198.02L618.14,194.67L618.89,195.08L619.6,194.53L621.66,192.29L623.53,190.97L623.47,190.68L623.46,190.61L623.36,190.35L623.36,190.11L623.45,189.94L625.34,189.25L625.55,188.99L625.87,188.38L626.48,188.02L627.6,187.6L628.18,187.31L628.54,186.66L629.15,186.14L629.31,186.19L629.39,186.37L629.88,186.38L630.91,186.07L631.18,185.46L631.83,185.1L633.15,184.85L633.94,184.81L633.98,184.81L634.05,184.89L634.36,184.96L634.35,199.4L635.09,203.94L634.9,230.7L635.49,230.75z"/>
		<path id="C27077" title="Lake of the Woods" class="land" d="M287.22,157.58L207.27,157.78L207.17,131.05L193.83,131.02L193.81,104.38L219.65,104.37L219.45,72.26L214.72,76.25L205.69,78.29L203.32,78.03L198.07,74.79L195.86,69.91L196.36,67.31L195.44,62.71L196.14,60.12L213.13,60.1L213.17,31.16L213.15,21L213.16,12.31L213.17,11.99L213.16,11.87L213.16,11.74L213.17,6.41L213.16,6.37L213.16,4.69L213.16,2.89L213.17,2.61L213.17,2.39L213.16,0.2L213.17,0L213.48,0.22L213.53,0.59L213.98,0.95L214.34,0.95L215.91,2.33L216.99,2.79L217.64,2.82L218.1,3.04L218.33,3.26L219.66,3.64L222.86,4.88L223.79,4.9L227.36,4.37L229.97,2.42L231.46,2.6L233.18,2.22L233.73,2.45L238.1,5.35L238.33,5.61L241.25,8L243.73,9.42L245.5,9.43L247.61,9.91L246.79,11.81L246.7,14.09L249.55,26.58L249.52,29.15L251.91,40.49L252.01,41.16L254.36,44.42L254.36,59.93L257.56,59.93L261.22,77.94L261.22,78.02L261.1,79.72L260.25,80.26L260.48,81.07L260.49,81.12L260.2,82.67L260.95,84.72L259.79,85.4L259.29,86.02L259.05,87.17L260,89.51L259.9,90.97L260.07,92.58L260.42,94.32L260.43,94.33L260.72,94.66L262.27,95.68L262.85,96.17L263.57,97.07L264.42,97.75L265.1,98.67L264.98,98.67L265.1,98.82L265.1,99.57L265.54,100.03L267.77,100.61L268.63,101.46L269.57,102.01L270.13,102.65L270.63,103.38L271.02,103.67L272.94,103.99L274.22,103.88L274.92,104.12L275.28,104.5L276.01,105.95L276.55,106.19L277.42,106.15L279.02,106.33L279.91,106.67L281.31,106.69L282.7,106.87L283.56,107.08L284.8,107.55L285.39,107.48L286.19,107.18L287.05,106.24z"/>
		<path id="C27079" title="Le Sueur" class="land" d="M367.13,772.84L358.89,772.83L354.74,772.86L354.73,766.67L329.82,766.7L329.47,765.39L329.67,762.54L331.4,760.28L334.22,757.25L335.88,754.46L336.78,753.08L337.07,750.44L335.53,749.66L334.9,748.8L335.02,745.96L334.91,745.2L336.17,743.4L337.76,740.02L338.26,736.28L338.23,735.73L340.53,733.3L342.54,728.89L342.45,725.76L340.18,723.38L379.64,723.31L379.55,772.84z"/>
		<path id="C27081" title="Lincoln" class="land" d="M118.61,772.75L80.37,772.73L80.37,772.71L80.38,764.51L80.41,764.42L80.41,762.47L80.41,762.04L80.38,760.51L80.4,760.09L80.41,758.48L80.42,758.25L80.41,756.34L80.42,756.15L80.41,754.35L80.42,754.05L80.42,752.27L80.43,752.04L80.42,751.6L80.42,750.24L80.43,749.49L80.43,746.14L80.44,745.28L80.46,737.89L80.47,735.2L80.43,733.7L80.44,733.39L80.45,728.57L80.45,727.13L80.42,725.71L80.45,723.33L80.45,723.31L80.46,723.25L80.48,710.86L80.47,710.79L80.47,710.77L117.14,710.89L117.11,723.3L118.43,723.35z"/>
		<path id="C27083" title="Lyon" class="land" d="M168.17,772.91L120.12,772.78L118.61,772.75L118.43,723.35L117.11,723.3L117.14,710.89L167.11,710.97L167.07,723.47L168.05,723.5z"/>
		<path id="C27085" title="McLeod" class="land" d="M304.86,660.8L329.78,660.91L329.82,673.39L330.02,673.4L329.95,698.43L305.06,698.38L305,710.92L280.15,710.97L280.13,698.48L280.16,673.33L279.69,673.34L279.74,660.76z"/>
		<path id="C27087" title="Mahnomen" class="land" d="M119.73,289.61L172.19,289.49L172.48,289.47L172.51,341.86L119.79,341.81z"/>
		<path id="C27089" title="Marshall" class="land" d="M10.01,184.17L10.34,183.57L10.23,182.77L10.26,182.49L10.37,182.25L10.68,182.05L10.71,181.6L10.44,181.28L10.4,180.87L10.63,180.56L10.63,180.27L10.59,180L10.39,179.88L10.33,179.66L10.37,179.36L10.52,179.19L10.55,178.9L10.52,178.77L10.21,178.58L10.06,178.3L10.01,177.9L10.16,177.71L10.57,177.45L10.59,177.23L10.28,176.71L10.26,176.32L10.34,176.13L10.81,175.57L11.22,175.48L11.37,175.32L11.44,175.04L11.41,174.88L11.24,174.57L11.21,174.35L11.22,174.21L11.45,173.89L11.45,173.58L11.31,173.28L11.06,173.21L10.96,173.1L10.97,172.86L11.13,172.6L11.64,172.42L11.77,172.3L12.53,171.01L12.52,170.77L12.42,170.42L11.96,169.42L11.64,169.14L11.44,169.15L11.28,168.99L11.25,168.54L11.3,168.25L11.44,168.13L11.84,168.11L11.92,168L11.97,167.76L11.95,167.68L11.55,167.33L11.55,166.49L11.45,166.33L11.06,166.12L10.96,165.95L10.91,165.52L10.99,165.09L11.03,164.9L11.18,164.75L11.41,164.32L11.42,163.96L11.39,163.79L11.04,163.62L10.78,163.63L10.67,163.5L10.66,163.1L10.96,162.45L11.04,161.81L10.98,161.59L10.35,161.06L10.29,160.62L10.4,160.14L10.36,159.93L10.15,159.71L9.74,159.54L9.35,158.71L9.35,157.63L9.39,157.36L9.49,157.12L9.71,156.97L9.93,156.52L10.13,155.56L10.13,155.29L10.05,155.02L9.77,154.69L9.61,154.27L9.57,153.46L9.61,153.24L9.75,153L10.13,152.67L10.57,151.92L10.65,151.53L10.59,150.75L10.31,150.12L9.89,150L9.85,149.58L9.93,149.42L10.45,149.18L10.59,148.82L10.59,148.49L10.36,148.26L10.22,147.88L10.21,147.65L10.53,147.25L10.65,146.99L10.73,146.45L10.64,146.07L10.41,145.88L10.37,145.77L10.37,145.26L10.44,145.03L10.79,144.54L10.89,143.89L10.88,143.36L10.73,143.17L9.96,142.73L9.82,142.39L9.72,141.94L9.76,141.25L9.93,141.1L10,140.85L9.86,140.59L9.67,140.43L9.63,140.04L9.74,139.83L10.11,139.55L10.21,139.31L10.25,138.07L10.1,137.69L9.5,137.25L9.36,136.97L9.31,136.68L8.8,133.49L8.92,132.71L9.21,132.23L9.23,131.93L9.07,131.53L8.71,131.19L8.13,130.84L7.96,130.66L7.78,130.46L7.78,130.44L71.2,130.56L87,130.39L167.28,131.22L167.41,132.27L167.31,157.87L168.21,157.87L168.15,187.34L115.56,187.51L108.89,187.22L107.9,187.48L103.06,187.41L99.84,187.03L75.46,187.15L9.56,187.29L9.6,187.16L9.9,186.77L9.97,186.59L9.99,186.39L9.95,185.99L9.84,185.84L9.67,185.77L9.52,185.55L9.5,185.33L9.98,184.34z"/>
		<path id="C27091" title="Martin" class="land" d="M305.77,822.13L305.69,871.08L292.45,871.07L291.11,871.06L285.77,871.04L285.77,871.04L285.34,871.03L282.95,871.07L273.71,871.07L273.22,871.08L268.08,871.05L243.7,871.04L243.71,822.11L293.32,822.12z"/>
		<path id="C27093" title="Meeker" class="land" d="M304.86,660.8L279.74,660.76L279.69,673.34L253.54,673.37L253.61,623.33L253.02,623.33L253.04,610.73L291.83,610.65L291.84,617L304.37,616.84L304.46,623.15L304.62,623.28L304.8,623.3z"/>
		<path id="C27095" title="Mille Lacs" class="land" d="M389.09,489.9L389.02,515.24L380.28,515.18L380.2,518.57L380.73,551.38L380.86,553.64L381.03,576.96L355.61,576.83L355.15,538.55L354.65,515.08L350.41,514.99L350.41,489.52L350.35,476.78L351.85,476.77L378.66,476.19L389.21,476.3L389.25,488.86z"/>
		<path id="C27097" title="Morrison" class="land" d="M264.25,461.22L267.38,464.47L271.19,464.81L274.19,467.35L276.38,467.99L283.26,465.07L283.97,463.81L287.44,463.63L290.13,465.45L293.14,468.82L295.21,469.08L295.91,470.37L295.19,471.37L296.11,471.69L296.51,472.24L294.72,475.02L291.28,477.51L290.72,478.91L290.59,481.39L293.63,486.2L292.75,489.44L350.41,489.52L350.41,514.99L354.65,515.08L355.15,538.55L294.94,538.55L296.83,541.38L298.86,541.63L299.14,543.16L303.25,545.41L272.03,545.54L265.22,545.59L265.25,525.33L264.72,522.28L264.81,471L264.26,470.96z"/>
		<path id="C27099" title="Mower" class="land" d="M428.16,822.06L428.17,822.06L428.52,822.06L464.96,822.04L464.97,824.12L489.53,824.09L489.54,871.06L487.95,871.07L478.89,871.08L478.88,871.08L469.07,871.12L468.65,871.12L466.68,871.11L465,871.11L464.62,871.11L463.13,871.11L458.56,871.11L454.65,871.18L446.48,871.19L432.42,871.18L430.73,871.18L430.72,871.18L428.19,871.18z"/>
		<path id="C27101" title="Murray" class="land" d="M181.58,822.14L121.29,821.97L120.04,821.98L120.12,772.78L168.17,772.91L181.56,772.85z"/>
		<path id="C27103" title="Nicollet" class="land" d="M267.24,735.82L292.81,735.74L292.94,735.78L338.23,735.73L338.26,736.28L337.76,740.02L336.17,743.4L334.91,745.2L335.02,745.96L334.9,748.8L335.53,749.66L337.07,750.44L336.78,753.08L335.88,754.46L334.22,757.25L331.4,760.28L329.67,762.54L329.47,765.39L329.82,766.7L329.24,767.44L329.3,769.54L328.69,770.75L329.15,772.48L329.55,773.5L329.92,774.51L328.2,777.05L326.58,778.13L325.12,778.59L324.03,777.97L321.85,777.48L320.55,776.34L319.57,775.88L318.67,775.19L316.96,773.65L313.78,773.04L310.42,771.88L308.63,771.54L308.27,770.81L307.35,770.55L306.48,770.63L305.58,769.4L303.62,768.43L302.61,768.42L300.97,766.93L299.24,765.97L298.43,765.29L296.87,764.33L295.67,764.01L294.05,763.83L293.04,763.11L292.53,762.92L291.01,762.75L289,761.1L287.64,759.22L287.17,758.52L286.21,756.49L285.2,755.16L284.25,753.38L281.98,751.75L280.78,750.61L280.1,749.94L278.84,750.14L278.11,748.5L274.74,747.93L272.52,747.31L270.76,747.08L267.92,745.95L266.18,744.95L264.83,744.25L263.79,744.07L263.11,744.6L262.27,743.8L262.18,742.96L261.02,742.78L260.52,743.1L259.98,742.59L260.19,741.29L259.67,742.02L259.46,741.07L260.03,740.41L259.03,739.12L257.22,739.02L255.65,737.58L253.49,737.19L252.13,737.09L251.25,735.73z"/>
		<path id="C27105" title="Nobles" class="land" d="M181.58,822.14L182.59,822.13L182.49,841.38L182.62,841.63L182.56,841.93L182.39,871.03L182.37,871.03L182.37,871.04L180.28,871.08L179.09,871.08L179.08,871.09L176.23,871.14L153.13,871.14L153.05,871.14L144.9,871.13L143.56,871.13L140.85,871.13L140.83,871.13L121.21,871.1L121.29,821.97z"/>
		<path id="C27107" title="Norman" class="land" d="M41.45,328.88L41.04,328.46L40.98,328.31L40.98,328.15L41.07,327.95L41.32,327.62L41.34,327.37L41.27,327.02L40.78,326.62L40.74,326.51L40.81,326.26L40.79,326.16L40.63,325.86L40.69,325.7L40.72,325.4L40.67,325.22L40.54,325.16L40.53,324.99L40.59,324.79L40.81,324.69L40.9,324.43L40.82,324.27L40.54,324.15L40.47,324.01L40.57,323.58L40.76,323.26L40.77,323.04L40.65,321.98L40.38,321.08L40.4,320.63L41.52,318.9L41.52,318.52L41.23,317.95L41.1,317.87L40.69,317.84L40.54,317.71L40.6,317.04L40.67,316.94L41.1,316.75L41.2,316.56L41.22,316.42L41.14,315.98L41.29,315.63L41.29,315.29L41.2,315.11L40.97,314.91L40.95,314.71L41.22,314.18L41.14,313.76L40.74,313.42L40.39,312.64L40.27,312.15L40.45,311.4L40.36,311.16L40.09,311.04L39.97,310.86L39.85,310.58L39.83,310.01L39.53,309.62L39.55,309.46L39.82,309.32L39.92,309.12L39.89,308.97L39.57,308.77L39.39,308.54L39.5,308.31L39.88,308.25L40.09,308.02L40.23,307.31L40.68,306.93L40.73,306.06L40.72,305.85L40.62,305.68L40.24,305.42L40.2,305.12L40.29,304.57L40.27,304.47L39.97,304.07L39.49,303.65L39.5,303.39L39.44,303.2L38.95,302.99L38.57,302.38L38.54,302.26L38.64,301.97L38.63,301.86L38.39,301.71L38.32,301.6L38.32,301.38L38.45,301.18L38.8,300.92L38.88,300.61L38.69,300.38L38.65,300.18L38.67,299.99L38.9,299.51L38.75,299.17L38.78,298.94L39.01,298.45L39.01,298.28L38.8,297.67L38.83,296.78L38.93,296.51L38.94,296.33L38.79,296.1L38.76,295.9L38.8,295.7L39.01,295.47L39.08,295.02L38.8,294.47L38.77,293.86L38.84,293.57L39.18,293.14L39.29,292.75L39.26,292.55L38.94,292.25L38.9,292.12L38.9,291.9L38.96,291.79L39.15,291.66L39.2,291.4L39.18,291.24L38.9,290.99L38.9,290.85L38.96,290.6L39.06,290.46L39.61,289.91L39.59,289.66L119.73,289.61L119.79,341.81L106.75,341.91L41.69,342L41.69,341.95L42.02,341.49L42.56,341.15L42.59,341.04L42.56,340.93L42.36,340.73L42.34,340.61L42.4,340.41L42.6,340.17L42.63,339.83L42.38,339.53L42.4,338.95L42.31,338.74L41.86,338.34L41.84,338.14L41.88,338L42.13,337.57L42.16,337.35L42.13,337.17L41.99,336.99L41.78,336.89L41.67,336.75L41.57,336.46L41.56,336.33L41.7,335.96L41.69,335.82L41.5,335.55L41.12,335.33L40.98,335.13L40.92,334.9L40.94,334.65L41.04,334.42L41.53,334L41.6,333.86L41.47,333.61L41.29,333.47L41.26,333.33L41.45,333.03L41.48,332.87L41.46,332.67L41.15,332.17L41.24,331.69L41.21,331.44L40.97,331.28L40.87,331.01L40.92,330.83L41.24,330.6L41.24,330.5L41.06,330.2L41.05,329.82L41.2,329.49L41.48,329.33L41.54,329.16L41.52,328.95z"/>
		<path id="C27109" title="Olmsted" class="land" d="M527.29,785.47L527.31,822.25L489.55,822.09L489.53,824.09L464.97,824.12L464.96,822.04L466.08,822.06L466.05,772.91L479.12,772.99L502.82,773.12L502.82,785.37z"/>
		<path id="C27111" title="Otter Tail" class="land" d="M150.17,496.74L99.52,496.57L99.59,471.03L98.03,471.02L97.93,419.48L109.03,419.49L108.8,406.55L156.28,406.9L212.1,406.58L212.14,419.61L212.94,419.61L212.94,458.24L213.07,470.99L213.93,471L213.93,496.84L157.93,496.75L157.85,496.75z"/>
		<path id="C27113" title="Pennington" class="land" d="M169.34,223.76L156.31,223.48L156.29,219.14L77.33,219.25L77.32,210.41L75.45,210.41L75.46,187.15L99.84,187.03L103.06,187.41L107.9,187.48L108.89,187.22L115.56,187.51L168.15,187.34L168.28,210.58L169.27,210.58z"/>
		<path id="C27115" title="Pine" class="land" d="M505.49,451.1L505.47,465.17L505.49,465.55L505.49,466.24L505.48,466.37L505.49,467.35L505.49,467.76L505.47,468.7L505.46,469.12L505.41,476.65L505.42,479.51L505.38,486.06L505.4,488.01L505.4,489.41L505.42,495.8L505.36,501.02L505.37,501.6L504.9,501.8L504.07,501.89L502.78,502.35L501.91,502.8L501.71,502.94L501.39,503.31L501.15,503.79L500.85,504.86L500.81,505.16L500.54,505.85L500.32,506.21L500.3,506.51L500.42,507.45L500.29,508.33L500.24,508.49L500.02,508.78L499.72,509.05L499.65,509.3L499.61,509.73L499.65,510.02L499.47,510.21L498.83,510.55L498.41,510.59L497.33,510.43L496.41,510.01L495.29,509.65L493.69,508.61L493.45,508.51L492.42,508.59L491.62,508.96L490.9,509.4L490.22,510.14L490,510.79L490.01,511.17L489.46,512.18L489.26,512.45L489.13,512.84L489.06,513.07L489.08,513.55L488.76,513.94L488.15,514.29L487.94,514.71L487.98,515.09L488.05,515.22L488.29,515.41L488.28,515.53L487.95,515.99L487.45,516.35L487.1,516.48L486.42,516.33L485.89,516.05L485.24,516.1L484.06,515.45L482.33,514.87L482.07,514.83L481.55,514.97L481.2,515.16L480.46,515.77L479.65,516.89L479.37,517.05L479.23,517.21L479.14,518.27L479.22,518.81L479.09,519.51L479.01,519.6L478.06,519.69L477.19,520.11L476.66,520.12L476.08,520.39L475.11,521.05L473.85,521.19L473.25,521.58L472.64,522.11L471.78,522.01L471.27,522.38L471.11,522.42L470.39,522.09L470.13,522.16L470.02,522.25L470,522.41L470.17,523.36L470.1,523.57L468.36,523.58L468.01,523.81L466.91,524.79L466.31,525.4L466.25,525.56L466.36,526.07L466.27,526.23L465.52,526.59L463.98,527.68L463.54,527.73L463.09,527.91L462.6,528.38L461.72,529.53L460.4,531.83L460.15,532.53L460.19,533.14L459.87,534.83L459.79,535.02L459.22,535.73L458.85,535.84L457.8,536.62L457.57,536.84L457.22,537.38L457.17,537.8L457.25,538.15L457.55,539.17L457.75,539.53L457.96,540.15L457.97,540.83L457.85,541.21L457.56,541.6L456.89,542.08L456.51,542.48L456.06,543.25L455.74,544.33L455.56,545.72L455.23,547.02L453.8,548.56L453.39,548.81L453.25,549.12L453.11,549.46L452.65,549.94L452.34,550.15L451.97,550.25L451,551.04L450.7,551.47L450.52,551.55L449.99,551.6L449.46,552L418.73,551.91L418.62,515.3L427.59,515.26L427.72,489.29L427.62,450.8L503.19,451.08L503.45,451.05z"/>
		<path id="C27117" title="Pipestone" class="land" d="M80.32,821.91L80.32,821.9L80.31,818.03L80.31,817.81L80.33,817.8L80.31,807.83L80.32,807.59L80.33,805.37L80.32,805.28L80.31,803.74L80.32,803.43L80.31,801.64L80.32,801.38L80.33,799.66L80.34,799.38L80.31,797.27L80.3,797.04L80.31,795.47L80.33,795.2L80.37,772.73L118.61,772.75L120.12,772.78L120.04,821.98z"/>
		<path id="C27119" title="Polk" class="land" d="M35.58,263.47L35.49,263.32L35.15,263.26L35,263.08L34.73,260.85L34.64,260.65L34.49,260.53L34.36,260.53L34.13,260.88L33.93,261L33.75,260.96L33.65,260.84L33.63,260.58L33.92,260.17L33.89,260L33.67,259.66L33.49,259.18L33.35,258.99L33.26,259.04L33.11,258.9L33.11,258.72L33.19,258.53L33.15,258.2L33.08,258.05L32.61,257.69L32.59,257.38L32.64,257.09L32.58,256.75L32.26,256.5L32.27,256.26L32.68,255.85L32.77,255.64L32.71,255.51L32.1,254.86L31.54,254.06L31.31,253.63L31.26,253.39L31.29,253.21L31.67,252.75L31.75,252.46L31.75,251.98L31.7,251.63L31.17,251.32L31.14,251.24L31.17,251L31.33,250.88L31.32,250.65L31.03,250.43L30.8,250.14L30.74,249.8L30.89,249.48L30.66,248.9L29.6,247.86L28.88,247.71L28.89,247.17L28.34,246.64L28.08,246.68L27.99,246.61L27.99,246.39L28.17,246.03L28.37,245.82L28.81,245.6L28.82,245.47L28.75,245.31L28.17,244.92L27.91,244.51L27.34,244.37L27.15,244.43L26.99,244.36L26.89,244.17L26.88,243.87L26.43,243.25L26.37,243.07L26.39,242.84L26.6,242.61L26.7,242.34L26.45,241.73L26.42,241.01L26.48,240.85L26.56,240.8L26.56,240.38L26.32,240.19L26.26,240.06L26.31,239.49L25.81,238.39L25.17,238.35L24.62,237.77L24.66,237.55L24.82,237.37L24.77,235.85L24.64,235.17L24.41,234.86L24.27,234.81L23.88,234.39L23.85,234.2L24.1,234.11L24.29,233.88L24.19,233.68L23.9,233.45L22.67,233.24L22.27,233.09L22.08,232.88L22.08,232.72L22.51,232.44L22.61,232.19L22.47,231.92L22.06,231.65L21.85,231.31L21.9,230.92L22.49,230.48L22.51,230.28L21.9,229.69L22,229.21L22.39,228.85L22.38,228.59L21.98,228.12L21.9,227.68L22.04,227.63L22.37,227.95L22.68,228.06L22.91,227.83L22.88,227.36L22.68,226.93L22.02,226.51L22.6,226.17L22.63,225.92L21.42,224.73L20.79,224.33L20.63,223.86L20.81,223.36L20.76,222.94L20.44,222.77L19.85,222.68L19.23,222.33L18.87,221.89L18.77,221.46L18.81,221.2L19.08,220.59L19.08,220.23L18.92,219.85L18.41,219.48L18.17,219.25L18.12,219.12L18.16,218.9L18.53,218.43L18.6,218.2L18.38,217.67L18.4,217.46L18.67,216.67L18.97,215.54L19.02,215.19L18.97,214.99L18.83,214.79L18.08,214.33L17.88,213.94L17.62,212.25L17.76,211.98L18.01,211.7L17.98,211.43L17.81,211.33L17.37,211.25L17.23,211.13L17.06,210.8L17.1,210.45L17.4,209.71L17.42,209.49L17.25,207.35L17.06,206.39L16.88,205.91L16.72,205.68L15.97,205.21L15.56,204.84L14.45,202.88L13.91,202.79L13.77,202.67L13.75,202.57L13.8,202.35L14.15,201.91L14.28,201.2L14.25,200.62L14,200.13L13.69,199.93L13.65,199.79L13.67,199.57L13.83,199.3L13.82,199.05L13.73,198.8L13.37,198.5L13.25,197.75L13.05,197.57L12.88,197.52L12.21,197.65L11.85,197.45L11.81,197.25L11.86,197.02L12.08,196.59L12.12,196.43L12.11,196.18L12.02,195.89L11.48,194.76L11.34,194.32L11.22,193.41L10.94,193L10.9,192.72L10.96,192.43L10.72,192.08L10,191.82L9.92,191.6L9.91,191.13L10.11,190.7L10.19,190.36L10.25,190.03L10.25,189.65L10.17,189.44L9.94,189.28L9.71,188.93L9.45,188L9.46,187.55L9.56,187.29L75.46,187.15L75.45,210.41L77.32,210.41L77.33,219.25L77.37,236.91L90.59,236.92L90.7,250.12L143.28,250.03L143.31,236.79L156.36,236.73L156.31,223.48L169.34,223.76L169.68,263.24L172.28,263.25L172.26,263.71L172.19,289.49L119.73,289.61L39.59,289.66L39.59,289.57L39.44,289.28L39.44,288.89L39.46,288.45L39.6,288.29L39.64,288.11L39.6,287.95L39.45,287.75L39.42,287.39L39.35,287.31L38.91,287.23L38.61,287.08L38.42,286.87L38.39,286.41L38.1,285.72L38.1,285.56L38.27,285.3L38.51,285.09L38.7,285.02L39.29,284.05L39.25,283.85L39.12,283.67L39.09,283.4L39.3,283.01L39.34,282.74L39.32,282.64L39.12,282.39L39.1,282.22L39.14,282.09L39.33,281.86L39.39,281.55L39.25,281.24L38.96,280.94L38.85,280.63L38.84,280.46L39.02,280.17L39.07,279.93L39.04,279.81L38.89,279.74L38.84,279.46L38.88,279.3L39.09,279.23L39.4,278.85L39.36,278.61L39.17,278.41L39.12,278.04L39.44,277.48L39.64,276L39.57,275.67L39.29,275.18L39.32,274.95L39.46,274.86L39.49,274.7L39.39,274.41L39.2,274.25L39.07,274.03L39.28,273.42L39.22,273.06L39.05,272.75L38.73,272.54L37.36,272.32L37.31,272.15L37.63,271.84L37.67,271.73L37.64,271.65L37.08,271.48L36.76,271.27L36.46,269.32L35.83,268.57L35.87,268.38L36.25,268.22L36.42,268.08L36.47,266.97L36.41,266.8L36,266.36L35.93,265.48L36.13,265.08L36.14,264.79L35.98,264.35L35.73,264.01L35.71,263.7z"/>
		<path id="C27121" title="Pope" class="land" d="M151.32,547.64L200.09,547.79L200.25,547.86L200.36,547.8L214.56,547.79L214.54,573.14L215.4,573.13L215.37,598.22L202.75,598.2L152.45,598.23L152.42,573.06L151.34,573.07z"/>
		<path id="C27123" title="Ramsey" class="land" d="M410.02,650.64L409.95,639.88L412.89,639.9L413.94,639.91L431.12,639.98L434.79,639.99L434.78,646.98L434.79,665.25L434.83,673.09L431.17,673.56L428.08,669.43L420.08,669.41L417.49,673.25L414.98,673.91L412.79,671L411.99,664.6L411.96,652.69L410.03,652.7z"/>
		<path id="C27125" title="Red Lake" class="land" d="M156.31,223.48L156.36,236.73L143.31,236.79L143.28,250.03L90.7,250.12L90.59,236.92L77.37,236.91L77.33,219.25L156.29,219.14z"/>
		<path id="C27127" title="Redwood" class="land" d="M242.54,729.8L242.5,760.56L217.85,760.65L217.72,772.98L181.56,772.85L168.17,772.91L168.05,723.5L192,723.58L192.03,701.15L192.78,701.49L195.13,701.95L196.9,703.66L198.32,705.74L199.86,706.57L202.77,706.15L204.44,706.61L206.49,708.63L209,710.63L210.77,712.47L212.72,712.88L214.55,714.67L216.67,715.89L218.47,718.03L219.17,719.31L220.59,719.5L222.55,719.85L223.68,721.06L225.45,721.7L226.37,722.54L227.3,722.75L228.46,723.17L229.65,723.09L230.69,723.86L231.54,724.23L232.25,724.82L234.46,725.62L235.86,726.03L237.74,727.25L239.51,726.65L241.29,727.65L241.98,729.44z"/>
		<path id="C27129" title="Renville" class="land" d="M253.54,673.37L279.69,673.34L280.16,673.33L280.13,698.48L266.7,698.55L266.72,723.5L267.22,723.5L267.24,735.82L251.25,735.73L248.14,732.19L242.54,729.8L241.98,729.44L241.29,727.65L239.51,726.65L237.74,727.25L235.86,726.03L234.46,725.62L232.25,724.82L231.54,724.23L230.69,723.86L229.65,723.09L228.46,723.17L227.3,722.75L226.37,722.54L225.45,721.7L223.68,721.06L222.55,719.85L220.59,719.5L219.17,719.31L218.47,718.03L216.67,715.89L214.55,714.67L212.72,712.88L210.77,712.47L209,710.63L206.49,708.63L204.44,706.61L202.77,706.15L199.86,706.57L198.32,705.74L196.9,703.66L195.13,701.95L192.78,701.49L192.03,701.15L187.82,698.21L188.19,697.42L183.75,694.7L179.49,693.41L179.48,673.57L203.44,673.48z"/>
		<path id="C27131" title="Rice" class="land" d="M404.45,723.27L404.43,733.54L429.19,733.56L429.01,772.74L428.53,772.74L391.67,772.79L379.55,772.84L379.64,723.31z"/>
		<path id="C27133" title="Rock" class="land" d="M80.34,871.06L80.31,858.89L80.31,858.73L80.31,856.01L80.31,855.67L80.3,846.52L80.31,844.46L80.32,830.11L80.34,828.18L80.32,821.91L80.32,821.91L120.04,821.98L121.29,821.97L121.21,871.1L106.36,871.08L106.33,871.08L105.3,871.07L92.7,871.06L90.76,871.08z"/>
		<path id="C27135" title="Roseau" class="land" d="M193.83,131.02L168.87,131.27L167.28,131.22L87,130.39L87.04,103.75L85.26,103.75L85.21,59.93L129.15,59.93L191.15,60.13L192.47,60.13L193.99,60.13L195.83,60.12L196.14,60.12L195.44,62.71L196.36,67.31L195.86,69.91L198.07,74.79L203.32,78.03L205.69,78.29L214.72,76.25L219.45,72.26L219.65,104.37L193.81,104.38z"/>
		<path id="C27137" title="St. Louis" class="land" d="M514.5,408.61L514.39,408.83L514.45,409.45L515.13,409.78L516.7,409.91L517.24,410.42L517.38,410.66L517.42,411.23L517.27,411.67L516.88,412.14L516.24,412.33L515.74,412.66L515.03,413.63L514.56,414.11L514.41,414.44L514.74,415.28L514.75,415.3L514.81,415.64L514.74,415.88L514.25,416.34L513.71,416.64L513.3,416.65L512.58,416.24L512.06,416.19L511.34,416.62L510.63,416.74L509.19,415.33L508.88,415.57L508.23,416.47L507.76,416.52L507.54,416.21L507.37,415.52L506.95,415.35L506.42,415.32L506.17,415.09L506.08,414.72L506.04,414.06L505.65,413.94L505.55,414.25L505.55,414.65L504.64,414.11L504.58,399.67L471.44,399.3L468.1,398.91L453.89,399.34L426.93,399.31L427.5,360.57L427.48,348.18L426.45,348.17L426.61,308.82L426.12,305.46L426.19,295.82L426.57,289.49L426.96,256.2L424.82,256.17L424.93,230.16L424.97,216.98L424.24,213.72L424.13,203.36L423.36,203.38L423.24,176.7L423.49,175.56L424.18,117.56L434.76,118.15L437.83,116.96L438.32,117.12L438.35,120.54L440.41,120.75L442.42,122.38L443.98,122.59L461.01,131.16L468.18,130.08L470.53,130.61L471.25,133.79L471.47,134.4L471.49,134.5L471.38,134.99L471.4,135.11L471.53,135.2L471.5,135.22L470.92,135.93L470.92,135.96L470.88,136.16L471.12,136.39L471.31,136.68L470.97,137.06L470.35,137.29L469.28,137.22L468.58,136.95L467.82,137.73L465.43,137.57L464,137.99L463.75,139.57L462.93,141.34L463,141.76L462.59,142.89L465.11,145.83L467.63,146.39L468.37,146.93L476.59,146.3L480.52,145.24L482.79,145.15L483.57,145.21L485.13,147.39L485.42,147.91L485.95,148.03L486.15,148.16L486.28,148.48L486.24,148.67L486.81,149.68L488.78,150.38L488.77,152.39L486.69,156.9L487.39,159.95L489.05,163.37L490.32,165.51L490.67,166.39L491.27,167.12L491.58,167.01L491.87,167.21L492.87,168.59L493.85,171.06L494.78,173.17L495.17,173.93L495.63,175.04L495.86,175.66L495.75,176.05L495.85,176.38L495.92,176.44L496.18,176.36L496.13,176.63L496.14,176.97L496.26,177.33L496.69,177.73L496.75,178.09L496.74,178.49L496.79,178.67L497.32,179.57L497.69,180.1L498.41,179.7L499.32,178.56L499.73,178.4L500.54,178.23L500.73,177.92L500.99,177.79L501.14,177.81L501.32,178.01L501.46,178.02L502.17,177.53L502.53,177.49L503.26,177L506.73,176.43L507.85,175.82L507.44,174.52L505.74,173.17L505.31,172.25L505.47,171.51L505.26,171.48L505.2,171.25L504.61,169.64L505.32,166.91L504.11,165.38L504.29,164.38L505.23,164.23L505.88,161.31L508.61,159.48L512.64,160.36L512.97,160.52L513.24,160.98L514.28,160.91L514.26,160.71L514.19,160.57L514.6,159.92L515.5,160.17L515.57,160.43L515.63,160.45L517.18,159.95L517.13,159.42L517.29,159.13L518.84,158.2L520.59,157.83L520.74,159.29L525.99,159.53L526.88,159.64L527.45,158.97L528.64,158.76L529.77,158.82L530.44,160.41L530.74,160.56L530.8,160.88L530.54,161.19L530.66,162.57L531.56,162.81L532.26,163.94L535.4,164.62L534.09,168.3L534.18,169.85L534.67,170.9L534.74,173.19L536.48,173.99L537.38,175.89L537.71,175.99L537.71,176.11L537.69,176.2L537.78,176.37L537.89,176.39L538.37,175.91L538.44,175.65L538.22,175.49L538.3,175.09L538.46,175L539.55,175.01L540.07,175.29L540.08,175.37L540.14,175.64L540.31,175.99L540.3,176.41L539.74,176.67L539.73,177.16L539.59,177.65L539.73,178.15L540.18,178.15L540.39,178.21L541.02,178.54L541.36,178.52L541.47,178.3L541.82,177.97L542.67,177.72L543.51,177.58L544.02,177.25L544.86,177.36L544.92,177.42L545.02,177.52L545.25,177.53L546.3,177.43L547.2,179.02L548.92,180.28L549.27,182.12L551.17,181.88L551.82,181.72L552.34,181.7L552.59,181.77L554.24,181.4L554.37,181.87L554.93,182.28L556.03,182.76L555.94,254.38L556.84,304.99L556.68,308.68L556.46,373.52L555.15,374.41L553.19,375.39L552.29,375.4L551.63,375.68L548.57,378.2L547.35,378.59L544.97,380.75L544.1,381.85L540.22,384.36L536.94,386.95L535.62,388.57L534.04,389.32L529.4,392.86L529.07,393.74L526.62,395.18L525.8,396.15L526.39,398.26L528.82,402.45L532.78,407.6L533.85,408.24L533.34,408.61L532.89,408.37L531.94,407.88L526.27,401.89L524.36,401.9L524.3,401.91L523.94,401.94L523.5,401.98L521.32,403.33L520.77,404.06L520.76,405.02L520.98,405.46L520.6,406.46L520.6,406.47L520.46,406.84L520.22,406.96L519.55,406.84L518.32,406.24L518.25,406.28L518.04,406.4L517.6,406.64L517.13,406.72L516.09,406.6L515.85,406.79L515.83,406.83L515.82,406.91L515.66,407.54L515.24,408.07L514.88,408.28L514.82,408.32L514.81,408.32L514.78,408.35L514.73,408.4z"/>
		<path id="C27139" title="Scott" class="land" d="M354.73,709.49L355.65,709.54L356.03,709.02L359.56,707.4L362.42,704.63L365.38,701.49L367,701.68L368.88,700.75L369.5,699.18L368.8,696.77L370.23,693.65L370.3,691.41L372.3,689L374.99,687.14L378.94,685.96L380.04,685.98L387.82,685.82L388.45,684.73L393.89,687.03L394.3,688.65L399.54,687.88L400.65,710.88L404.79,710.85L404.76,723.27L404.45,723.27L379.64,723.31L340.18,723.38L340.2,722.69L341.36,722.74L341.7,723.11L341.91,721.88L341.79,720.34L341.69,718.94L341.43,717.11L342.07,716.1L343.67,714.95L344.31,714.9L345.89,712.93L346.8,712.47L347.13,711.68L349.76,710.82L352.85,710.84L354.17,710.84L354.85,710.59z"/>
		<path id="C27141" title="Sherburne" class="land" d="M380.88,622.38L380.56,622.28L379.91,622.24L376.7,619.3L375.6,614.35L374.01,615.65L364.41,615.06L363.13,613.78L361.21,614.85L358.04,614.53L355.78,615.25L350.04,611.88L348.28,609.48L344.56,608.82L342.38,605.38L338.49,602.09L335.38,603.22L331.41,599.78L330.02,601.3L330.21,599.35L328.4,599.37L326.19,596.7L325.69,594.9L322.93,594.51L320.78,590.35L316.55,586.52L315.75,576.91L355.61,576.83L381.03,576.96L381.09,597.87L380.84,621.69z"/>
		<path id="C27143" title="Sibley" class="land" d="M354.73,709.49L354.85,710.59L354.17,710.84L352.85,710.84L349.76,710.82L347.13,711.68L346.8,712.47L345.89,712.93L344.31,714.9L343.67,714.95L342.07,716.1L341.43,717.11L341.69,718.94L341.79,720.34L341.91,721.88L341.7,723.11L341.36,722.74L340.2,722.69L340.18,723.38L342.45,725.76L342.54,728.89L340.53,733.3L338.23,735.73L292.94,735.78L292.81,735.74L267.24,735.82L267.22,723.5L266.72,723.5L266.7,698.55L280.13,698.48L280.15,710.97L305,710.92L305.06,698.38L329.95,698.43L342.41,698.5L342.39,704.75L354.72,704.73z"/>
		<path id="C27145" title="Stearns" class="land" d="M214.55,545.67L252.65,545.6L265.22,545.59L272.03,545.54L303.25,545.41L304.48,550.21L306.77,551.96L308.98,552.51L308.07,554.15L309.56,556.22L310.42,559.68L312.36,559.36L310.79,560.96L310.15,564.19L310.21,568.11L311.4,570.83L313.56,572.46L314.6,575.85L315.75,576.91L316.55,586.52L320.78,590.35L322.93,594.51L325.69,594.9L326.19,596.7L325.24,596.97L322.47,602.94L322.71,604.83L321.22,606.93L321.88,607.76L314.54,614.31L313.3,614.31L311.96,611.88L304.8,613.58L304.37,616.84L291.84,617L291.83,610.65L253.04,610.73L253.06,598.15L215.37,598.22L215.4,573.13L214.54,573.14L214.56,547.79z"/>
		<path id="C27147" title="Steele" class="land" d="M391.67,772.79L428.53,772.74L428.52,822.06L428.17,822.06L428.16,822.06L391.66,822.11z"/>
		<path id="C27149" title="Stevens" class="land" d="M100.68,547.66L133.91,547.65L134.52,547.69L151.32,547.64L151.34,573.07L152.42,573.06L152.45,598.23L114.68,598.28L101.98,598.18L101.97,573.05L100.78,573.06z"/>
		<path id="C27151" title="Swift" class="land" d="M203.64,635.86L122.89,635.89L116.05,632.35L116.04,623.23L114.58,623.23L114.55,601.25L114.68,598.28L152.45,598.23L202.75,598.2L202.75,623.38L203.63,623.39z"/>
		<path id="C27153" title="Todd" class="land" d="M265.22,545.59L252.65,545.6L214.55,545.67L214.65,522.38L213.89,522.36L213.93,496.84L213.93,471L213.07,470.99L212.94,458.24L256.28,458.28L257.16,460.68L264.25,461.22L264.26,470.96L264.81,471L264.72,522.28L265.25,525.33z"/>
		<path id="C27155" title="Traverse" class="land" d="M41.26,572.98L40.39,571.83L40.35,571.77L39.83,571.11L39.4,570.62L38.98,570.09L39.09,569.64L39.53,568.79L39.61,568.13L40.37,565.19L40.72,564.36L41.23,563.72L41.55,563.42L42.08,563.23L42.21,563.07L44.87,561L48.88,558.21L49.26,557.7L49.96,556.56L50.5,556.15L53.96,553.82L56.41,552.6L57.9,551.67L58.93,550.74L59.99,549.56L61.04,547.65L61.27,546.84L61.37,546.14L61.58,545.63L62.21,544.54L62.32,544.09L62.48,543.8L62.73,543.55L63.46,543.09L64.04,542.6L64.54,541.92L65.13,540.86L65.66,540.06L66.02,539.76L66.64,539.38L67.05,538.86L67.39,538.01L67.62,536.95L67.62,536.24L67.72,535.95L67.93,535.49L68.08,532.78L67.94,532.28L67.91,532.02L68.2,531.28L68.12,530.61L68.25,529.11L68.51,528.91L68.56,528.45L68.59,527.35L68.56,526.74L68.67,526.37L68.96,525.79L68.84,525.57L68.74,525.42L68.69,524.87L68.74,524.68L69,524.3L68.97,524.08L68.95,523.32L69.08,522L69.15,521.73L69.27,520.48L69.19,520.18L68.92,519.79L68.35,517.85L68.15,515.41L68.14,514.04L68.02,512.17L67.97,511.86L67.79,511.34L67.95,510.09L67.72,509.31L99.44,509.34L99.44,522.08L100.72,522.09L100.68,547.66L100.78,573.06z"/>
		<path id="C27157" title="Wabasha" class="land" d="M526.87,742.79L527.38,743.12L528.03,743.24L529.12,743.22L529.64,743.42L529.94,743.62L530.68,744.61L531.52,745.42L533.44,746.49L534.54,746.71L534.78,746.83L535.13,747.07L535.4,747.38L536.03,747.83L536.71,748.21L537.05,748.31L537.6,748.32L537.98,748.44L538.45,748.68L539.13,749.21L539.55,749.6L540.24,750.51L540.57,751.11L541.41,752.22L542.75,753L543.02,753.28L543.73,754.83L543.98,755.48L544.25,756.43L544.25,756.58L544.17,756.88L543.49,757.9L543.17,758.47L543.08,758.79L543.12,759.22L543.36,759.79L543.56,759.97L545.04,760.67L545.77,761.3L546,761.65L546.08,761.89L545.96,762.97L546.04,763.33L546.74,764.3L546.88,764.57L546.96,764.91L546.87,765.68L546.35,767.28L546.38,767.85L546.68,768.54L547.65,769.92L547.94,770.44L548.05,770.91L548.08,771.88L548.17,772.19L548.46,772.39L549.27,772.76L549.89,773.27L527.3,773.3L527.29,785.47L502.82,785.37L502.82,773.12L479.12,772.99L479.13,748.3L491.41,748.33L491.44,735.95L510.68,736.07L511.16,736.76L511.66,737.33L512.82,738.05L513.43,738.32L515.45,738.99L518.01,739.73L518.81,739.93L521.15,740.29L522.69,740.66L523.04,740.88L523.63,741.52L524.06,741.82L525.46,742.18L526.5,742.55z"/>
		<path id="C27159" title="Wadena" class="land" d="M212.17,393.64L250.59,393.75L250.7,419.51L251.26,419.63L251.41,454.5L252.38,454.11L254.2,456.74L256.61,456.41L256.28,458.28L212.94,458.24L212.94,419.61L212.14,419.61L212.1,406.58z"/>
		<path id="C27161" title="Waseca" class="land" d="M358.89,772.83L367.13,772.84L379.55,772.84L391.67,772.79L391.66,822.11L366.97,822.11L354.76,822.13L354.74,772.86z"/>
		<path id="C27163" title="Washington" class="land" d="M459.22,615.12L458.69,615.53L457.88,615.82L457.64,616.1L457.56,616.39L457.56,616.69L457.68,617.58L457.95,618.16L458.5,618.92L458.6,619.45L458.59,620.06L458.24,620.78L457.86,621.26L457.72,621.81L458,623.44L458.01,624.57L458.18,625.23L458.37,625.67L458.54,625.94L458.59,626.28L458.36,627.14L457.95,627.6L457.53,627.95L457.35,628.28L457.04,629.69L456.99,630.4L457.05,631.08L457.25,631.46L458.52,632.75L458.51,633.06L458.06,634.01L457.97,634.69L457.98,635.42L458.07,635.94L458.83,637.92L459.21,640.09L459.49,640.55L459.73,640.76L459.84,641.04L459.83,641.17L459.74,641.49L459.29,642.22L459.1,642.41L458.32,642.97L457.17,644.04L456.32,644.99L454.53,646.36L453.57,647.83L453.44,648.1L453.36,648.41L453.34,649.05L453.45,649.56L453.96,650.54L454.35,651.04L454.9,651.57L455.82,652.17L456.69,652.97L457.28,653.69L457.54,654.34L457.55,654.6L457.49,654.88L456.92,656.53L456.6,657.64L456.64,658.68L456.82,659.54L456.69,660.24L456.69,660.87L456.78,661.85L456.87,662.18L457.01,662.44L457.68,662.88L458.3,664.21L458.69,666.25L458.7,666.87L458,670.62L457.88,670.94L457.79,671.1L457.61,671.24L456.41,672.03L456.31,672.22L456.26,672.51L456.22,673.27L456.32,673.67L456.77,674.68L457.33,675.69L457.4,675.94L457.37,676.24L457.02,677.01L456.82,677.67L456.82,677.69L456.82,677.69L456.87,678.79L457.21,680.7L457.21,681.26L457.12,681.58L456.79,682.03L456.49,682.57L456.45,682.82L456.53,683.29L456.45,683.52L455.66,684.79L455.55,685.25L455.4,686.87L455.17,687.7L454.81,688.35L454.06,689.17L453.63,689.84L453.12,691.14L452.91,692.49L452.84,693.56L452.91,693.72L453.25,694L453.37,694.22L453.4,694.37L448.01,694.1L445.09,690.27L442.08,690.23L440.17,689.31L436.92,690.89L431.59,690.1L431.02,688.5L432.74,684.46L432.09,681.78L432.19,677.44L431.17,673.56L434.83,673.09L434.79,665.25L434.78,646.98L434.79,639.99L431.12,639.98L431.15,639.56L431.23,614.97z"/>
		<path id="C27165" title="Watonwan" class="land" d="M243.16,785.33L293.33,785.23L293.32,822.12L243.71,822.11L243.2,822.11z"/>
		<path id="C27167" title="Wilkin" class="land" d="M99.44,509.34L67.72,509.31L67.64,509.06L67.58,508.57L68.02,506.95L68.77,504.97L69.31,504.38L69.49,503.96L69.73,503L69.76,502.4L69.61,502.07L69.61,501.93L69.97,500.19L69.78,499.76L69.75,498.24L69.62,497.48L69.5,497.1L69.09,496.66L68.83,496.08L68.7,495.67L69.12,495.45L69.1,494.97L68.39,494.35L68.24,494.06L68.38,493.86L68.46,492.89L67.9,491.5L67.63,491.23L67.42,490.84L67.33,490.31L67.6,488.61L67.58,488.16L67.51,487.82L67.31,487.67L67.08,487.41L66.98,487.02L67.03,486.94L66.91,486.5L66.79,486.47L66.68,486.47L66.61,486.35L66.59,486.23L66.59,486.06L66.61,485.9L66.63,485.67L66.6,485.54L66.49,485.31L66.49,484.65L66.58,484.33L66.58,483.83L66.86,483.54L66.93,483.42L67,482.98L66.92,482.52L66.87,482.49L66.68,481.67L66.18,480.46L65.77,480.21L65.57,479.05L65.46,477L65.52,476.78L65.91,476.46L66.1,476.35L66.24,476.18L66.31,476.08L66.34,475.97L66.31,475.84L66.25,475.74L66.09,475.66L65.92,475.52L65.88,475.28L65.97,475.04L65.98,474.79L65.88,474.55L65.74,474.31L65.44,474.2L65.35,473.98L65.42,473.75L65.65,473.13L65.83,472.07L65.78,471.84L65.49,471.34L65.45,471.14L65.51,470.89L65.72,470.45L65.72,469.8L65.63,469.6L65.39,469.45L65.29,469.23L65.46,468.73L65.41,468.52L65.3,468.34L65.18,467.79L65.5,466.55L65.49,466.27L65.22,465.52L65.35,463.92L65.22,463.81L64.5,463.6L63.82,462.88L63.28,462.48L63.23,462.3L63.47,461.87L63.2,461.38L62.41,461.09L62.32,460.95L62.34,460.63L62.1,460.47L61.21,460.79L60.79,460.74L60.63,460.5L60.49,459.77L60.59,459.4L60.57,459.18L60.14,459.01L59.68,458.67L59.4,458L59.35,457.57L58.58,457.4L58.46,457.27L58.19,455.91L58.26,455.11L57.3,452.93L57.08,452.55L56.94,452.49L56.65,452.61L56.32,452.48L56.24,452.25L56.3,452.03L56.23,451.7L55.69,451.53L55.45,451.34L55.42,451.15L55.47,450.91L55.42,450.69L55.32,450.59L54.96,450.6L54.87,450.29L54.87,450.12L54.98,449.73L54.94,449.42L54.79,449.29L54.48,449.25L54.39,449.18L54.34,448.81L54.17,448.43L53.9,448.3L53.52,448.3L53.26,447.99L53.2,447.74L53.27,447.43L53.42,447.06L53.4,446.66L53.35,446.54L53.25,446.45L53.17,446.1L53.21,445.97L53.51,445.68L53.58,444.9L53.51,444.3L53.32,444.11L53.02,443.59L52.93,443.29L52.97,443.08L52.9,442.98L52.81,442.88L52.58,442.83L52.37,442.69L52.35,442.35L51.51,441.98L51.39,441.8L51.4,441.61L51.52,441.25L51.48,441.09L51.31,440.94L51.22,440.65L51.24,440.37L51.57,439.71L51.67,439.27L51.48,439.16L51.25,438.74L51.44,438.12L51.44,437.92L51.16,437.47L51.41,436.86L51.28,436.25L51.17,435.04L50.81,434.56L50.57,433.97L50.57,433.73L50.79,433.41L50.78,433.15L50.5,432.87L50.49,432.77L50.5,432.69L50.71,432.5L50.73,432.4L50.65,432.22L50.37,432.01L50.57,431.44L50.55,431.26L50.32,430.7L50.18,430.51L50.11,430.25L50.18,430L50.34,429.87L50.56,429.09L50.36,427.89L50.18,427.63L49.83,427.55L49.71,427.38L49.68,427.17L49.78,426.68L49.71,426.6L49.44,426.59L49.28,426.49L49.31,426.15L49.18,425.99L48.79,425.75L48.73,425.57L48.79,425.08L48.71,424.94L48.58,424.85L48.3,424.35L47.93,424.32L47.7,424.03L47.7,423.82L47.7,423.49L47.77,423.19L47.74,423.11L47.46,422.94L47.38,422.67L47.53,422.08L47.44,421.88L47.08,421.65L47.03,421.4L47.11,421.18L47.02,420.96L46.53,420.84L46.47,420.28L46.54,419.99L46.51,419.79L46.44,419.68L46.44,419.68L46.55,419.53L46.81,419.56L97.77,419.47L97.93,419.48L98.03,471.02L99.59,471.03L99.52,496.57z"/>
		<path id="C27169" title="Winona" class="land" d="M549.89,773.27L551.28,774.42L552.53,775.07L552.87,775.35L554.08,777.35L555.03,778.06L556.19,778.76L558.46,779.72L559.06,780.29L560.28,781.24L560.78,781.53L562.94,781.8L563.87,782.16L564.12,782.37L564.99,783.56L565.1,783.97L565.25,784.92L565.23,785.73L565.31,785.91L566.55,786.67L566.96,786.77L567.53,786.69L567.96,786.83L569.44,788.31L569.62,788.59L569.81,789.17L570.21,790.12L570.47,790.52L570.95,790.91L571.4,791.55L571.72,791.74L571.86,791.75L572.15,791.61L572.4,791.67L572.88,792.08L573.44,792.73L573.86,792.97L574.72,793.33L575.22,793.65L575.54,793.93L575.93,794.45L576.54,795.68L577.1,796.19L578.07,796.76L578.33,796.82L579.02,796.82L580.48,797.05L581.71,797.49L583.06,797.6L584.03,797.6L585.78,797.95L586.29,798.25L587.02,798.86L588.47,799.48L588.71,799.5L589.73,799.29L590.24,799.35L590.87,799.74L592.59,800.42L592.91,800.64L593.41,801.08L593.68,801.5L594,802.26L594.11,802.74L594.16,802.85L594.26,803.09L595.45,804.4L595.65,804.75L595.97,805.57L596.12,805.74L597.23,806.38L598.18,807.11L599.27,808.52L600.14,809.48L600.33,809.85L600.49,811.02L601.08,812.34L601.15,812.44L601.67,812.72L602.07,813.09L602.22,813.36L602.62,814.4L603.05,815.11L604.07,815.71L604.84,816.41L605.39,817.35L605.62,818.21L605.83,819.39L606.82,820.5L607.07,820.92L607.28,821.11L607.87,821.46L608.57,822.26L562.96,822.28L527.31,822.25L527.29,785.47L527.3,773.3z"/>
		<path id="C27171" title="Wright" class="land" d="M364.15,636.04L363.53,636.04L359.58,641.34L358.73,644.86L357.63,646.2L355.37,646.17L354.8,661.01L329.78,660.91L304.86,660.8L304.8,623.3L304.62,623.28L304.46,623.15L304.37,616.84L304.8,613.58L311.96,611.88L313.3,614.31L314.54,614.31L321.88,607.76L321.22,606.93L322.71,604.83L322.47,602.94L325.24,596.97L326.19,596.7L328.4,599.37L330.21,599.35L330.02,601.3L331.41,599.78L335.38,603.22L338.49,602.09L342.38,605.38L344.56,608.82L348.28,609.48L350.04,611.88L355.78,615.25L358.04,614.53L361.21,614.85L363.13,613.78L364.41,615.06L374.01,615.65L375.6,614.35L376.7,619.3L379.91,622.24L380.23,622.87L380.29,623.42L379.94,623.84L379.68,624.44L379.29,625.67L378.65,624.94L377.63,624.53L377.29,625.06L376.49,625.11L375.71,625.65L374.04,626.46L372.53,626.65L372.67,627.32L372.36,627.77L371.72,627.62L371.29,627.22L370.67,627.52L370.06,627.67L369.26,627.91L368.66,628.5L368.44,627.91L367.59,628.09L367.23,628.69L366.39,629.16L365.98,629.6L366.11,630.65L366.7,631.55L367.52,632.2L367.94,632.69L367.96,633.95L367.29,634.54L367.02,634.96L365.62,635.73L365.04,635.56z"/>
		<path id="C27173" title="Yellow Medicine" class="land" d="M80.47,710.77L80.49,700.49L80.53,698.3L80.49,692.26L80.51,692.08L80.49,690.01L80.47,687.96L80.46,687.7L80.47,686.93L80.49,685.81L80.49,685.8L142.07,685.83L142.23,673.41L153.47,673.45L153.51,667.03L154.75,668.42L155.18,669.99L155.23,670.72L156.2,671.55L157.79,671.67L159.11,671.42L160.21,671.79L160.27,672.77L161.98,673.68L162.04,674.2L163.84,676.03L164.6,676.35L166.86,679.46L170.03,680.87L173.02,683.79L174.27,686.22L176.7,687.16L176.94,688.82L175.95,688.96L175.39,690.16L175.72,690.75L176.9,691.25L177.72,690.79L178.59,691.54L178.57,692.3L178.64,693.15L179.49,693.41L183.75,694.7L188.19,697.42L187.82,698.21L192.03,701.15L192,723.58L168.05,723.5L167.07,723.47L167.11,710.97L117.14,710.89z"/>
	</g>
</svg>