<?xml version="1.0" encoding="utf-8"?>
<!-- (c) ammap.com | SVG map of MT Counties -->
<svg xmlns="http://www.w3.org/2000/svg" xmlns:amcharts="http://amcharts.com/ammap" xmlns:xlink="http://www.w3.org/1999/xlink" version="1.1">
	<defs>
		<style type="text/css">
			.land
			{
				fill: #CCCCCC;
				fill-opacity: 1;
				stroke:white;
				stroke-opacity: 1;
				stroke-width:0.5;
			}
		</style>

		<amcharts:ammap projection="mercator" leftLongitude="-116.050463" topLatitude="49.001491" rightLongitude="-104.038950" bottomLatitude="44.357792"></amcharts:ammap>

		<!-- All areas are listed in the line below. You can use this list in your script. -->
		<!--{id:"C30001"},{id:"C30003"},{id:"C30005"},{id:"C30007"},{id:"C30009"},{id:"C30011"},{id:"C30013"},{id:"C30015"},{id:"C30017"},{id:"C30019"},{id:"C30021"},{id:"C30023"},{id:"C30025"},{id:"C30027"},{id:"C30029"},{id:"C30031"},{id:"C30033"},{id:"C30035"},{id:"C30037"},{id:"C30039"},{id:"C30041"},{id:"C30043"},{id:"C30045"},{id:"C30047"},{id:"C30049"},{id:"C30051"},{id:"C30053"},{id:"C30055"},{id:"C30059"},{id:"C30057"},{id:"C30061"},{id:"C30063"},{id:"C30065"},{id:"C30067"},{id:"C30069"},{id:"C30071"},{id:"C30073"},{id:"C30075"},{id:"C30077"},{id:"C30079"},{id:"C30081"},{id:"C30083"},{id:"C30085"},{id:"C30087"},{id:"C30089"},{id:"C30091"},{id:"C30093"},{id:"C30095"},{id:"C30097"},{id:"C30099"},{id:"C30101"},{id:"C30103"},{id:"C30105"},{id:"C30107"},{id:"C30109"},{id:"C30111"}-->

	</defs>
	<g>
		<path id="C30001" title="Beaverhead" class="land" d="M445.19,659.45L442.88,659.4L442.34,660.83L441.74,661.78L439.52,661.84L438.59,662.17L437.31,663.17L437.01,663.73L432.46,665.66L432.32,666.31L430.93,666.66L428.79,664.27L428.1,662.3L425.94,658.86L424.17,658.94L422.57,659.83L418.05,659.89L417.68,660.85L414.69,662.75L413.23,662.93L411.33,661.95L409.41,661.33L409.17,661.9L409.26,662.61L408.98,663.66L407.3,662.98L405.71,662.69L403.23,663.71L402.93,664.67L402.39,665.01L401.86,665.01L399.99,663.92L399.59,662.81L398.83,662.29L395.97,662.04L394.43,663.28L394,663.27L390.15,661.78L389.35,660.93L389.62,660.11L389.29,659.04L388,658.28L386.38,658.07L383.58,658.22L381.39,659.76L380.85,660.35L380.63,660.85L380.64,662.01L380.21,662.41L377.2,662.47L376.64,662.9L376.16,663.87L376.4,668.96L376.16,669.93L375.16,672.65L373.26,675.37L368.38,673.36L365.83,671.44L364.52,670.82L361.75,673.24L360.59,672.75L360.56,672.19L359.86,671.43L357.51,670.26L356.63,670.12L354.29,670.69L353.21,670.63L351.4,669.26L345.41,670.01L345.02,669.91L344.34,669.22L340.61,667.55L339.46,667.36L337.83,668.1L336.41,669.23L333.12,670.13L331.43,672.8L328.34,676.17L327.54,678.98L328.98,681.15L329.93,683.3L329.86,685.32L329.77,685.45L329.12,686.33L326.64,688.14L325.57,687.89L322.88,685L322.44,682.79L319.43,681.82L315.81,679.83L312.7,677.33L310.47,674.98L308.7,668.86L308.93,665.12L308.81,663.92L307.5,662.69L306.47,661.32L306.51,658.68L304.61,656.96L302.29,653.41L303.31,651.74L304.15,651.25L305.04,651.06L305.37,650.7L305.8,649.53L305.58,648.45L304.15,646.68L303.87,645.68L303.65,644.04L303.92,643.33L303.92,642.38L302.48,640.68L300.84,639.81L300.52,638.22L300.42,635.3L298.92,634L297.09,631.91L296.8,630.86L297.44,630.19L297.43,629.04L296.5,628.48L294.71,627.89L294.14,628.17L292.55,626.99L292.14,626.07L291.02,624.84L289.47,623.85L286.5,623.12L285.64,621.86L282.46,623.33L280.58,624.67L280.1,625.29L276.01,627.32L274.75,626.33L274.68,625.8L275.5,625.31L275.56,625.06L274.54,622.31L272.39,620.16L271.7,619.79L267.79,619.05L264.45,615.78L262.47,609.27L260.78,606.87L260,604.75L260.44,603.85L261.83,603.61L262.44,603.82L263.19,603.93L265.08,603.14L265.6,602.23L265.49,599.9L265.27,598.68L265.29,596.68L266.22,595.47L264.98,591.42L265.06,589.85L264.77,587.96L263.89,587.15L263.43,587.45L262.55,587.6L261.37,587.34L257.82,583.1L258.77,582.11L259.2,581.04L258.51,579.9L256,579.93L255.14,580.33L254.3,580.24L252.26,578L250.23,572.59L250.71,571.01L249.73,568.97L245.92,565.82L244.85,563.61L244.58,562.69L243.87,561.72L242.99,561.02L242.1,560.57L241.66,560.59L241.03,559.95L240.3,558.29L240.35,557.46L240.71,556.67L240.58,555.64L235.86,549.62L235.54,548.97L235.4,546.68L235.87,543.91L236.19,540.97L236.12,540.23L235.99,539.92L234.34,538.42L233.28,537.87L232.85,537.28L232.56,536.19L233.03,534.8L232.91,534.27L231.01,531.31L230.92,530.86L233.38,527.12L232.76,521.34L231.51,520.94L229.65,520.93L229.01,520.98L228.37,521.45L225.78,521.33L227.28,514.71L228.81,512.68L228.97,512.12L229,510.9L228.62,509.52L226.95,508.01L223.04,506.39L220.54,507.36L218.63,506.63L218.85,504.46L219.22,503.41L219.05,502.82L218.74,502.4L217.1,501.33L216.01,499.39L215.62,497.88L214.77,497.28L216.82,494.71L217.97,495.45L218.64,490.68L217.55,488.75L219.47,485.08L222.22,483.44L223.7,484.65L224.3,487.67L226.25,487.93L228.86,486.17L231.02,482.19L236.48,477.92L238.24,475.14L239.73,474.39L242.82,475.6L247.42,474.71L248.58,473.38L250.48,473.42L250.59,471.53L256.96,468.91L256.14,467.03L256.3,464.25L258.21,460.51L259.74,460.2L261.23,464.12L262.85,466.48L264.17,470.52L265.84,472.59L267.04,476.21L266.5,479.78L268.01,482.44L271.06,485.94L273.84,486.85L273.69,484.96L275.48,480.03L276.6,478.81L279.41,479.81L280.44,478.03L282.76,478.12L285.35,474.97L284.84,474.1L287.51,471.05L290.76,469.87L292.66,468.31L300.61,468.82L302.12,471.91L310.62,478.42L311.12,479.78L316.4,480.88L318.26,480.54L320.62,483.55L322.01,482.29L324.45,484.05L329.01,484.47L331.29,486.75L335.36,488.28L336.6,491.92L336.47,495.65L337.79,497.4L341.28,498.71L342.07,501.97L341.32,504.69L342.72,506.22L343.5,508.02L342.71,509.68L342.75,514.28L342.01,518.13L340.91,519.51L342.29,522.55L342.28,526.72L347.64,530.84L348.68,532.94L351.74,534.55L353.91,534.49L357.77,532.08L361.24,532.58L365.45,539.75L365.41,546.04L366.09,546.05L366.18,583.74L378.72,583.75L378.68,596.38L393.26,596.41L393.32,608.99L395.72,609.02L395.71,621.32L406.05,621.43L406.03,627.47L434.98,627.85L434.99,638.19L465.69,638.14L465.12,638.36L464.78,638.74L464.69,639.42L465.24,641.22L465.94,641.97L466.87,642.4L466.43,644.38L463.19,648.63L461.49,651.82L461.07,653.03L461.23,654.36L461.75,656.16L464.51,659.31L466.84,660.56L466.98,661.64L466.58,662.16L463.62,662.27L461.85,661.69L461.25,661.09L458.94,659.84L457.93,660.21L457.3,660.11L454.96,659.03L454.34,659.22L453.38,660.26L452.04,661L451.74,660.93z"/>
		<path id="C30003" title="Big Horn" class="land" d="M997.35,597.36L933.63,597.06L933.21,597.05L917.12,596.98L914.66,596.9L913.64,596.96L911.53,596.65L909.49,596.56L908.62,596.46L886.48,596.27L872.15,596.26L860.35,596.34L860.25,596.35L845.8,596.36L829.38,596.29L820.66,596.25L820.32,596.29L805.16,596.32L798.12,596.39L796.12,596.44L794.98,596.55L794.03,595.38L795.16,593.3L795.67,590.04L797.59,589.83L796,587.4L797.95,585.21L798.22,582.94L799.54,581.7L801.16,582.05L801.88,578.57L803.07,577.38L802.71,573.95L804.93,572.09L805.58,568.61L807.34,565.11L749.09,565.1L749.07,546.15L750.48,539.93L750.87,534.02L754.66,529.53L788.14,530.05L788.16,525.86L800.7,525.87L800.71,521.66L813.28,521.69L813.35,483.13L815.56,483.16L815.55,466.26L832.46,466.31L832.46,462.06L836.69,462.04L836.7,457.86L840.96,457.88L840.97,453.64L853.57,453.64L853.58,445.16L870.17,445.22L879,445.2L878.99,457.86L904.33,457.86L904.32,464.21L917.02,464.14L916.99,470.52L928.5,470.52L928.52,476.12L934.81,476.12L934.84,482.45L931.22,482.46L931.16,497.61L937.92,497.63L937.92,498.69L950.07,498.71L949.85,499.22L949.85,545.8L945.88,545.62L945.94,570.62L970.98,570.95L983.58,570.98L983.58,570.61L995.71,570.59L997.34,570.6z"/>
		<path id="C30005" title="Blaine" class="land" d="M663.6,193.12L663.56,173.13L664.16,173.13L664.02,133.03L664.1,119.9L662.25,119.9L662.26,108.88L665.58,108.89L665.59,93.41L667.83,93.41L667.8,84.67L671.16,84.57L671.14,73.4L667.83,73.44L667.86,66.9L666.98,66.9L666.93,13.54L668.58,13.53L668.57,0.12L672.21,0.04L673.9,0.12L679.26,0.15L679.33,0.16L689.33,0.14L692.92,0.21L712.3,0.27L712.33,0.27L718.4,0.33L719.01,0.33L765.03,0.31L770.65,0.31L796.29,0.29L796.32,13.6L793.95,13.59L793.96,40.04L787.86,40.03L787.89,66.77L785.11,66.77L785.13,89.18L781.98,86.15L779.15,86.37L778.56,85.17L778.47,85.71L778.46,120.18L776.17,120.18L776.16,157.13L762.33,156.36L759.5,154.74L757.55,157.76L756.85,160.02L756.62,165.58L751.94,165.16L729.87,165.29L729.58,193.79L726.69,193.65L724.22,194.59L723.57,193.42L726.58,190.46L724.01,187.98L724.31,185.12L720.68,183.48L718.4,183.41L715.39,185.02L711.76,183.72L704.94,186.73L702.13,186.93L699.08,185.25L695.04,184.65L690.53,184.9L689.74,187.37L686.59,190.17L679.17,192.51L676.54,195.27L674.87,195.99L668.82,194.32L666.41,192.27z"/>
		<path id="C30007" title="Broadwater" class="land" d="M434.36,367.91L450.28,367.89L449.44,365.93L449.56,342.85L450.91,341.75L452.49,337.7L454.8,336.4L457.39,338.66L459.14,338.26L463.9,339.27L468.26,342.21L467.45,344.88L468.96,346.01L468.9,351.31L472.38,352.36L472.92,357.57L475.99,356.48L477.29,358.07L480.97,358.38L480.61,366.54L481.77,369.75L479.5,371.33L482.35,373.56L484.91,374.04L486.44,375.61L488.48,380.87L489.55,387.24L491.44,388.62L495.43,388.42L496.86,386.05L502.17,385.08L501.77,386.75L504.59,387.88L505,389.26L508.82,392.33L507.39,396.46L507.7,399.68L505.02,401.07L502.63,405.07L501.7,411.42L506.69,415.12L506.15,416.9L508.35,419.18L508.28,423.29L498.35,423.23L498.34,424.01L479.34,423.99L479.05,433.28L474.03,436.06L474.74,437.96L471.39,442.66L472.02,451.83L468.03,451.78L466.62,458.64L462.82,462.37L460.17,462.59L457.07,466.48L453.4,467.03L447.39,475.86L447.35,444.31L434.72,444.23L434.36,376.63z"/>
		<path id="C30009" title="Carbon" class="land" d="M757.07,596.41L712.13,596.53L710.02,596.53L707.93,595.62L691.63,595.7L691.03,595.71L680.19,595.81L679.09,595.77L659.95,596.09L650.84,596.11L641.97,596.24L637.08,596.16L637.13,572.39L648.04,572.42L648.11,558.86L656.45,558.86L656.43,552.59L658.51,552.6L658.5,548.38L660.62,548.39L661.2,544.17L663.29,544.17L663.29,542.08L665.4,542.08L665.4,539.99L667.5,540.02L667.5,537.92L669.6,537.92L669.6,535.8L673.78,535.82L673.78,533.73L675.85,533.71L675.84,531.63L682.17,531.6L682.17,529.48L698.96,529.51L698.96,520.98L705.38,520.99L705.45,511.65L711.49,512.26L714.42,511.14L717.16,508.76L721.9,507.62L725.22,509.41L729.55,509.46L732.93,507.9L734.51,508.23L739.01,504.76L740.68,504.21L740.61,507.97L738.62,511.7L738.69,516.78L742.9,516.82L742.9,521.01L749.13,521.08L749.24,529.52L754.66,529.53L750.87,534.02L750.48,539.93L749.07,546.15L749.09,565.1L807.34,565.11L805.58,568.61L804.93,572.09L802.71,573.95L803.07,577.38L801.88,578.57L801.16,582.05L799.54,581.7L798.22,582.94L797.95,585.21L796,587.4L797.59,589.83L795.67,590.04L795.16,593.3L794.03,595.38L794.98,596.55L792.75,596.43L769.36,596.52L762.71,596.39L761.43,596.4z"/>
		<path id="C30011" title="Carter" class="land" d="M1223.54,468.79L1223.55,470.25L1223.57,470.77L1223.69,488.02L1223.76,515.94L1223.79,516.98L1223.78,518.66L1223.84,523.84L1223.83,524.33L1223.78,525.67L1223.87,529.74L1223.91,539.76L1223.94,542.54L1223.93,546.71L1223.92,548.07L1223.94,565.83L1223.96,578.5L1224,578.63L1223.94,596.47L1223.99,596.75L1222.15,596.84L1202.54,596.73L1180.12,596.69L1180.09,596.69L1160.38,596.63L1160.24,596.67L1154.01,596.54L1150.59,596.61L1150.06,596.59L1124.26,596.41L1124.16,596.42L1123.55,596.43L1122.21,596.42L1122.22,545.74L1127.43,545.75L1127.42,536.3L1128.01,532.65L1127.95,482.63L1132.31,482.64L1132.3,431.55L1137.75,431.53L1175.46,431.58L1175.42,443.56L1188.26,443.5L1188.2,455.89L1194.52,455.75L1194.53,456.2L1214.3,456.09L1214.31,468.78z"/>
		<path id="C30013" title="Cascade" class="land" d="M550.03,330.19L547.37,329.97L545.54,327.05L542.77,327.9L539.96,327.06L539.92,320.51L539.01,318.8L534.57,318.58L532.49,316.63L529.21,315.44L529.13,312.08L527.79,312.18L523.49,306.81L515.03,303.22L506.04,302.39L503.98,299.62L506.85,297.27L506.09,294.49L506.41,290.82L498.49,290.81L498.5,302.25L485.59,302.23L485.58,303.84L459.71,303.9L459.69,316.85L447.58,316.86L434.13,316.77L434.21,284.72L425.49,284.76L423.29,285.85L423.3,283.7L420.91,283.76L418.64,282.54L416.64,278.74L414.86,278.04L415.01,276.49L411.79,277.24L411.88,275.49L410.06,274.22L408.16,275.2L407.92,226.71L409.85,226.48L412.9,227.94L415.73,227.42L416.59,228.51L420.17,229.1L420.64,228.36L420.63,212.38L446.7,212.38L446.67,199.31L472.96,199.25L517.06,199.2L514.1,205.23L512.97,205.78L510.88,210.09L509.57,214.32L511.55,216.73L514.4,218.23L517.73,218.34L521,222L524.04,222.77L525.84,221.26L526,223.18L528.12,223.37L528.52,225.36L538.22,225.39L538.17,237.24L551.35,237.34L551.39,241.71L551.41,250.3L538.39,250.28L538.39,259.51L537.86,257.87L536.23,258L536.25,266.67L538.45,268.97L538.41,276.54L537.88,276.54L537.86,289.67L550.79,289.69L550.81,302.34L551.25,302.34L551.24,315.28L551.72,315.27L551.72,328.18L550.02,328.18z"/>
		<path id="C30015" title="Chouteau" class="land" d="M594.83,241.65L592.45,241.67L592.25,241.69L551.39,241.71L551.35,237.34L538.17,237.24L538.22,225.39L528.52,225.36L528.12,223.37L526,223.18L525.84,221.26L524.04,222.77L521,222L517.73,218.34L514.4,218.23L511.55,216.73L509.57,214.32L510.88,210.09L512.97,205.78L514.1,205.23L517.06,199.2L472.96,199.25L473.02,155.54L472.96,133.47L532.27,133.32L532.28,120.14L539.55,120.14L552.82,120.15L552.84,106.89L632.29,106.97L632.28,120.23L644.39,119.87L644.38,133.41L664.02,133.03L664.16,173.13L663.56,173.13L663.6,193.12L659.4,191.77L656.69,194.05L653.91,193.03L649.01,193.88L644.72,198.63L641.52,198.5L633.93,196.58L633.19,197.14L632.77,199.6L633.68,209.23L632.01,213.27L632.56,217.55L631.79,223.21L629.68,225.42L626.46,225.15L623.21,227.38L622.91,228.93L619.13,230.46L617.24,232.4L613.4,232.2L608.51,236.86L601.13,240.33L600.32,241.85z"/>
		<path id="C30017" title="Custer" class="land" d="M1004.66,482.4L1004.7,431.48L1008.59,431.46L1008.39,380.53L1011.94,380.52L1011.89,329.05L1015.41,329.06L1015.39,326.87L1015.38,324.75L1041.25,324.71L1041.25,328.94L1063.18,328.93L1063.13,341.85L1067.39,341.87L1067.45,354.76L1075.99,354.75L1075.99,363.3L1080.36,363.31L1080.36,367.62L1101.75,367.74L1101.72,372.04L1127.68,372.1L1127.67,367.84L1140.5,367.89L1140.52,361.48L1153.35,361.45L1153.32,380.72L1135.71,380.72L1135.77,405.57L1137.78,405.61L1137.75,431.53L1132.3,431.55L1132.31,482.64L1127.95,482.63L1094.04,482.54L1094.03,482.46z"/>
		<path id="C30019" title="Daniels" class="land" d="M1044.14,67.56L1022.04,67.57L1022.03,27.43L1008.72,27.44L1008.75,14.05L1012.79,14.02L1012.78,0.33L1019.06,0.34L1027.65,0.3L1041.11,0.26L1047.06,0.27L1059.85,0.3L1063.69,0.26L1064.21,0.27L1067.15,0.27L1072.86,0.28L1084.14,0.28L1084.55,0.3L1086.23,0.3L1086.63,0.31L1089.85,0.31L1097.84,0.3L1099.09,0.29L1120.26,0.33L1120.23,14.04L1122.22,14.06L1122.19,54.2L1128.84,54.22L1128.84,67.58L1063.47,67.59L1062.37,67.48z"/>
		<path id="C30021" title="Dawson" class="land" d="M1185.2,250.96L1182.02,256.39L1184.19,256.42L1185.26,258.6L1188.57,260.81L1189.8,265.15L1193.22,267.29L1193.2,271.62L1194.28,271.63L1194.28,274.86L1195.83,277.03L1195.82,283.55L1196.88,283.55L1196.89,297.66L1194.67,297.7L1194.65,303.1L1192.46,305.33L1190.4,311.79L1187.13,313.93L1186.02,318.23L1183.88,318.21L1183.87,320.37L1181.72,320.37L1180.64,322.5L1178.51,322.5L1177.43,324.65L1166.5,324.66L1123.32,324.57L1123.32,320.23L1121.16,320.24L1121.19,318.05L1119.04,318.08L1119.04,316L1106.05,315.99L1106.07,307.36L1093.01,307.36L1093.02,276.86L1084.72,276.87L1084.69,224.73L1089.08,224.7L1089.13,185.33L1102.21,185.28L1102.18,198.44L1128.36,198.48L1128.31,211.62L1167.53,211.67L1167.52,224.77L1175.76,224.73L1175.72,250.94z"/>
		<path id="C30023" title="Deer Lodge" class="land" d="M258.21,460.51L258.15,460.4L258.09,460.33L259.42,459.1L261.9,460.36L264.02,457.06L264.14,453.84L265.8,454.32L270.15,451.48L270.4,449.46L272.29,448.85L273.88,450.51L276.6,450.76L277.41,449.27L282.51,444.87L282.87,442.84L282.87,431.67L281.79,431.67L281.82,418.91L307.04,418.86L307.08,412.43L355.83,412.57L353.63,416.24L351.82,417.06L354.34,420.33L353.95,425.35L350.06,427.3L347.41,425.89L345.69,429.38L343.34,431.69L333.49,431.66L333.55,444.47L325.91,444.46L324.22,447.18L324.37,449.88L322.63,451.82L318.7,450.84L317.11,452.54L317.14,456.16L318.62,460.97L318.14,462.17L314.9,462.85L314.36,465.35L309.49,468.44L308.49,470.1L302.12,471.91L300.61,468.82L292.66,468.31L290.76,469.87L287.51,471.05L284.84,474.1L285.35,474.97L282.76,478.12L280.44,478.03L279.41,479.81L276.6,478.81L275.48,480.03L273.69,484.96L273.84,486.85L271.06,485.94L268.01,482.44L266.5,479.78L267.04,476.21L265.84,472.59L264.17,470.52L262.85,466.48L261.23,464.12L259.74,460.2z"/>
		<path id="C30025" title="Fallon" class="land" d="M1223.4,459.54L1223.54,468.79L1223.54,468.79L1214.31,468.78L1214.3,456.09L1194.53,456.2L1194.52,455.75L1188.2,455.89L1188.26,443.5L1175.42,443.56L1175.46,431.58L1137.75,431.53L1137.78,405.61L1135.77,405.57L1135.71,380.72L1153.32,380.72L1153.35,361.45L1153.35,355L1166.17,355.06L1166.17,350.76L1185.46,350.76L1185.46,352.9L1191.92,352.89L1191.97,357.19L1223.42,357.19L1223.44,372.05L1223.44,376.65L1223.33,395.21L1223.4,397.72L1223.4,401.39L1223.4,403.95L1223.4,410.47L1223.42,433.25L1223.37,433.4L1223.26,451.52z"/>
		<path id="C30027" title="Fergus" class="land" d="M594.83,241.65L600.32,241.85L601.13,240.33L608.51,236.86L613.4,232.2L617.24,232.4L619.13,230.46L622.91,228.93L623.21,227.38L626.46,225.15L629.68,225.42L631.79,223.21L632.56,217.55L632.01,213.27L633.68,209.23L632.77,199.6L633.19,197.14L633.93,196.58L641.52,198.5L644.72,198.63L649.01,193.88L653.91,193.03L656.69,194.05L659.4,191.77L663.6,193.12L666.41,192.27L668.82,194.32L674.87,195.99L676.54,195.27L679.17,192.51L686.59,190.17L689.74,187.37L690.53,184.9L695.04,184.65L699.08,185.25L702.13,186.93L704.94,186.73L711.76,183.72L715.39,185.02L718.4,183.41L720.68,183.48L724.31,185.12L724.01,187.98L726.58,190.46L723.57,193.42L724.22,194.59L726.69,193.65L729.58,193.79L733.29,195.72L740.1,201.37L743.88,207.14L749.36,209.62L755,210.98L761.92,212.61L768.05,211.8L772.66,213.76L776.34,213.73L779.61,214.82L781.66,217.17L786.94,217.49L788.53,216.57L788.29,256.91L785.09,257.99L760.17,258.21L760.21,263.57L747.09,263.6L747.2,276.46L745.34,276.46L745.31,289.32L758.37,289.38L758.14,328.25L756.13,328.26L756.09,341.2L719.01,341.01L718.63,340.97L718.19,341.06L717.48,341.05L678.84,340.96L678.82,349.46L642.45,349.45L642.45,341.96L641.4,341.95L641.4,336.6L638.2,336.63L637.09,333.4L633.89,333.39L633.34,332.34L633.32,329.09L637.09,329.12L637.76,321.57L639.38,321.56L639.35,319.42L641.49,319.41L641.34,276.27L629.56,276.29L629.57,269.78L616.55,269.8L616.53,263.3L603.53,263.34L603.52,250.31L594.81,250.29z"/>
		<path id="C30029" title="Flathead" class="land" d="M134.71,0.13L139.8,0.1L140.19,0.11L170.6,0L183.34,0.08L186,0.26L188.42,0.33L190.55,0.26L201.97,0.38L203.57,4.69L207.14,14.86L208.29,21.12L217.62,24.41L223.09,23.52L233.18,29.87L238.5,42.8L235.34,53.19L247.3,63.17L258.95,68.15L265.04,86.07L270.99,89.99L275.86,97.37L272.73,103.14L275.21,106.33L277.22,109.23L280.45,110.22L281.35,113.21L286.7,115.92L287.76,117.94L286.69,120.37L287.27,127.65L289.49,128.58L291.35,126.83L293.89,128.41L297.08,132.53L301.57,132.82L304.35,130.77L305.78,135.15L309.11,133.43L310.83,133.69L312.54,135.62L311.53,138.65L312.98,140.11L312.75,142.38L314.36,142.16L317.24,144.37L315.85,146.13L316.27,148.81L320.31,149.19L321.38,150.72L323.2,157.25L321.69,157.22L319.74,161.7L312.39,160.55L309.42,162.45L308.7,164.51L302,165.99L301.4,169.33L304.42,170.95L304.93,173.18L304.9,177.44L303.76,179.44L304.56,185.66L302.39,187.96L302.58,191.46L301.26,192.41L296.74,192.05L293.97,194.81L294.77,199.62L297.04,204.52L297.35,208.16L296.1,208.48L296.98,211L296.06,214.62L277.64,214.59L277.65,214.03L263.29,214.07L246.22,214.09L247.14,210.72L247.38,205.23L249.06,204.55L249.87,201.44L249.27,195.74L245.56,195.97L243.16,192.09L244.9,189.92L244.22,187.39L241.4,184.69L242.65,181.96L242.02,173.95L242.81,170.21L239.61,166.19L237.59,166.2L234.63,160.69L232.34,161.52L232.11,159.93L228.89,156.6L225.03,156.88L222.63,151.44L223.26,149.67L220.56,145.8L206.03,145.68L206.05,147.86L203.81,147.87L203.82,150.08L200.95,150.01L202.63,155.07L203.02,153.56L204.94,155.46L204.99,159.25L158.78,159.35L160.29,185.42L147.33,185.43L147.32,172.44L121.16,172.41L121.15,172.86L108.06,172.86L108.1,153.1L105.91,153.1L105.91,150.95L104.96,119.18L122.5,119.15L122.34,92.67L122.32,65.99L118.38,65.98L118.35,52.93L143.8,52.86L143.51,52.03L138.35,49.56L139.53,47.32L138.44,45.3L139.73,42.81L145.82,40L146.56,38.55L144.2,37.47L142.9,34.37L139.45,31.57L134.27,29.71L135.26,26.25L138.42,24.63L138.66,21.29L136.46,17.1L137.25,15.1L136.62,11.01L135.69,9.69L137.89,7.35L139.09,4.32L137.91,3.27L134.09,2.93z"/>
		<path id="C30031" title="Gallatin" class="land" d="M510.14,596.28L509.03,596.28L508.92,605.67L508.98,606.01L508.85,615.6L508.9,632.31L509,635.83L509.01,644.27L509.03,650.17L509.66,671.67L508.26,671.38L502.15,668.88L501.26,667.99L500.44,665.54L500.02,662.89L498.39,661.37L497.64,661.25L496.74,660.54L496.05,658.45L495.33,657.85L494.12,657.19L491.7,656.44L491.19,655.58L491.09,652.74L491.81,650.39L488.9,646.44L487.87,646.64L486.43,645.79L487.26,643.98L484.46,639.13L481.67,635.95L479.87,635.26L479.17,635.81L478.4,635.5L477.28,633.97L477.33,633.41L476.46,632.26L476.16,632.06L476.18,609.16L476.7,609.14L476.63,545.96L478.95,545.96L478.85,503.74L459.97,503.71L459.94,501.59L457.95,501.59L457.94,499.48L455.78,499.51L455.75,497.45L453.69,497.45L453.67,495.31L451.55,495.36L451.55,493.16L449.5,493.24L449.47,491.07L447.44,491.1L447.43,489.01L441.12,489L441.1,484.75L436.88,484.73L436.86,482.67L432.61,482.66L432.6,481.03L437.62,480.12L442.76,481.36L446.08,475.87L447.39,475.86L453.4,467.03L457.07,466.48L460.17,462.59L462.82,462.37L466.62,458.64L468.03,451.78L472.02,451.83L471.39,442.66L474.74,437.96L474.03,436.06L479.05,433.28L479.34,423.99L498.34,424.01L498.35,423.23L508.28,423.29L536.05,423.34L536.67,423.36L536.67,426.98L536.01,430.75L535.81,452.84L536.16,457.21L536.1,482.75L535.51,482.75L535.55,511.24L529.22,511.15L529.1,520.7L522.89,520.66L523.04,545.85L510.76,545.87L510.67,571.03L509.9,571.06z"/>
		<path id="C30033" title="Garfield" class="land" d="M981.55,160.03L987.7,160.06L987.7,173.52L997.6,173.54L997.65,224.76L993.83,224.78L993.82,250.99L1006.82,250.94L1006.84,276.96L1015.37,276.96L1015.38,324.75L1015.39,326.87L950.81,326.98L950.83,324.85L887.16,324.81L884.02,324.98L874.72,324.72L874.74,326.05L831.38,326.05L830.44,324.44L828.61,323.21L827.21,322.47L826.59,320.22L827.38,317.84L827.98,316.21L827.83,315.42L828.11,314.67L828.6,314.36L829.05,313.33L828.93,312L829.85,309.67L830.49,307.72L831.89,305.73L831.88,303.88L831.42,302.5L830.74,301.4L830,301.83L828.55,300.85L829.21,299.67L828.93,297.76L828.37,296.13L828.38,295.46L828.17,294.82L828.63,293.56L828.47,292.39L828.21,291.61L827.55,291.83L826.87,291.06L827.11,289.99L826.67,288.79L825.93,287.64L826.54,287.47L826.54,286.44L825.54,286.06L824.85,284.94L825.32,284.13L825.34,283.41L826.01,281.97L825.64,281.14L826.19,280.19L826.66,279.77L826.91,279.15L827.54,277.8L827.44,276.59L826.92,275.93L825.79,274.75L826,273.83L826.63,272.33L825.94,270.89L825.13,270.57L824.49,269.9L824.64,269.06L824.96,268.14L824.78,267.3L824.21,266.96L824.37,265.55L825,265.22L824.95,263.7L824.58,262.93L824.74,261.73L824.81,260.73L824.85,259.76L825.38,258.86L826.02,256.85L826.1,256.09L825.56,256.1L824.85,255.6L824.96,253.45L824.26,251.4L825.16,249.84L827.19,246.67L829.19,242.18L828.85,238.24L829.67,236.54L834.38,235.71L834.04,231.75L835.65,230.36L834.18,227.97L838.42,222.39L840.92,222.44L841.67,220.94L843.03,222.56L844.92,221.3L844.54,219.66L847.71,218.18L847.76,216.28L849.94,214.1L851.53,209.58L856.31,209.99L855.63,206.15L857.27,206.64L859.5,209.2L861.05,206.53L864.41,207.6L869.25,207.63L871.21,210.43L876.42,210.75L877.55,210.13L880.02,200.25L884.94,200.13L888.46,201.92L893.1,201.91L897.05,204.82L904.4,204.75L906.21,203.84L910.79,203.68L915.12,204.67L921.19,204.55L924.38,202.69L930.89,203.23L933.37,202.52L935.07,201.27L935.52,199.13L934.82,196.41L935.82,193.67L938.19,192.86L942.39,192.72L947.69,194.48L949.73,193.61L951.73,190.59L951.67,188.14L955.07,187.43L956,188.55L957.59,185.53L959.21,184.94L962.07,187.28L962.78,186.1L961.96,183.23L966.54,181.64L966.97,177.23L969.88,176.6L970.43,174.43L968.87,173.08L970.14,171.63L972.35,171.87L972.34,170.13L970.15,167.96L973.24,166.63L974.43,164.22L972.44,161.72L973.17,159.74L976.53,159.06L978.78,156.15L980.56,157.88L979.99,159.46z"/>
		<path id="C30035" title="Glacier" class="land" d="M275.21,106.33L272.73,103.14L275.86,97.37L270.99,89.99L265.04,86.07L258.95,68.15L247.3,63.17L235.34,53.19L238.5,42.8L233.18,29.87L223.09,23.52L217.62,24.41L208.29,21.12L207.14,14.86L203.57,4.69L201.97,0.38L202.89,0.39L218.35,0.39L222.77,0.48L240.21,0.58L252.12,0.45L272.52,0.44L274.46,0.49L290.98,0.38L298.97,0.45L299.6,0.44L299.94,0.45L300.31,0.44L300.83,0.45L301.1,0.44L301.45,0.44L301.88,0.44L302.11,0.44L309.7,0.43L309.82,0.43L393.01,0.39L393.03,10.15L393.46,13.51L393.48,67.08L393.94,67.07L393.95,80.71L389.31,79.87L353.95,79.81L354.05,106.45z"/>
		<path id="C30037" title="Golden Valley" class="land" d="M740.88,432.16L726.21,432.19L676.13,432.18L675.95,445.04L656.82,444.91L656.86,432.18L651.81,432.19L651.79,419.4L677.41,419.35L677.46,379.49L678.93,379.48L678.82,349.46L678.84,340.96L717.48,341.05L717.54,360.08L719.95,359.79L719.64,366.49L728.18,366.69L728.13,379.64L730.7,379.62L730.52,385.24L732.67,385.24L732.61,398.02L734.7,398.01L735.77,400.12L735.75,404.47L736.78,406.73L738.96,406.81L738.87,410.97L740.99,410.98z"/>
		<path id="C30039" title="Granite" class="land" d="M258.09,460.33L255.73,459.59L243.16,454.19L233.52,446.12L232.65,432.75L230.27,426.2L228.24,423.71L229,419.42L231.87,415.88L230.66,397.77L222.36,379.07L225.76,368.44L227.55,357.12L226.46,354.3L242.83,354.68L242.78,346.15L254.67,346.06L255.3,341.85L261.93,341.87L261.92,333.29L268.38,333.31L268.41,328.96L279.95,328.93L281.11,328.93L281.13,332.67L283.74,329.86L285.44,330.64L286.1,333.51L287.63,336.23L291.19,338.17L293.2,340.62L292.64,343.92L297.37,344.62L299.03,346.51L306.89,343.17L307.08,412.43L307.04,418.86L281.82,418.91L281.79,431.67L282.87,431.67L282.87,442.84L282.51,444.87L277.41,449.27L276.6,450.76L273.88,450.51L272.29,448.85L270.4,449.46L270.15,451.48L265.8,454.32L264.14,453.84L264.02,457.06L261.9,460.36L259.42,459.1z"/>
		<path id="C30041" title="Hill" class="land" d="M539.55,120.14L539.5,67.07L540.14,63.05L540.05,13.51L540.87,13.51L540.82,0.44L556.19,0.37L562.39,0.46L571.91,0.34L594.54,0.33L594.6,0.34L599.08,0.33L617.01,0.27L667.44,0.15L668.57,0.12L668.58,13.53L666.93,13.54L666.98,66.9L667.86,66.9L667.83,73.44L671.14,73.4L671.16,84.57L667.8,84.67L667.83,93.41L665.59,93.41L665.58,108.89L662.26,108.88L662.25,119.9L664.1,119.9L664.02,133.03L644.38,133.41L644.39,119.87L632.28,120.23L632.29,106.97L552.84,106.89L552.82,120.15z"/>
		<path id="C30043" title="Jefferson" class="land" d="M393.35,488.24L390.69,485.71L386.04,484.34L385.55,482.73L372.04,476.21L369.29,474.39L368.86,472.86L371.56,468.01L368.8,461.84L368.9,457.38L368.1,456.26L367.45,450.8L368.32,449.43L367.27,446.62L364.58,445.63L364.12,444.04L365.7,440.53L365.24,437.99L360.3,433.24L360.08,427.25L361.25,424.54L353.95,425.35L354.34,420.33L351.82,417.06L353.63,416.24L355.83,412.57L354.69,406.81L356.03,406.47L358.4,402.96L361.41,403.13L362.03,401.39L364.33,401.53L366.53,403.29L366.71,400.15L369.41,399.04L370.08,396.33L372.3,394.68L376.92,395.01L378.17,392.44L381.09,389.74L385.23,390.71L390.22,387.63L390.78,385.45L394.88,384.36L393.76,381.6L392.23,381.24L391.86,378.35L393.54,378.21L399.03,374.81L404.22,375.66L409.29,371.77L409.75,367.89L434.36,367.91L434.36,376.63L434.72,444.23L447.35,444.31L447.39,475.86L446.08,475.87L442.76,481.36L437.62,480.12L432.6,481.03L432.44,480.47L429.76,477.9L425.27,477.29L421.86,476.53L420.84,473.47L419,472.92L416.74,473.17L414.84,473.85L412.85,473.42L411.35,472.49L409.12,472.46L407.74,473.01L407.07,473.4L405.92,473.24L404.23,473.66L403.22,474.6L402.37,474.94L401.76,475.27L400.82,476.16L400.77,477.81L400.7,478.65L401.11,479.97L399.62,482L398.8,484.77L396.41,487.15L394.29,488.27z"/>
		<path id="C30045" title="Judith Basin" class="land" d="M550.03,330.19L550.02,328.18L551.72,328.18L551.72,315.27L551.24,315.28L551.25,302.34L550.81,302.34L550.79,289.69L537.86,289.67L537.88,276.54L538.41,276.54L538.45,268.97L536.25,266.67L536.23,258L537.86,257.87L538.39,259.51L538.39,250.28L551.41,250.3L551.39,241.71L592.25,241.69L592.45,241.67L594.83,241.65L594.81,250.29L603.52,250.31L603.53,263.34L616.53,263.3L616.55,269.8L629.57,269.78L629.56,276.29L641.34,276.27L641.49,319.41L639.35,319.42L639.38,321.56L637.76,321.57L637.09,329.12L633.32,329.09L633.34,332.34L633.89,333.39L637.09,333.4L638.2,336.63L641.4,336.6L641.4,341.95L642.45,341.96L642.45,349.45L634.85,349.46L632.34,346.92L630.14,347.02L625.91,343.9L625.09,344.02L619.65,340.72L613.65,343.13L611.24,341.17L607.77,341.59L604.8,342.72L604.24,345.11L600.51,346.1L597.01,344.7L595.03,347.26L588.7,346.95L585.67,350.23L583.31,350.67L583.09,352.49L578.83,349.67L574.8,350.77L573.65,351.82L572.07,350.53L569.05,351.72L567.27,348.27L564.77,346.51L563.23,346.65L559.07,342.72L559.72,339.08L557.75,338.24L553.37,337.92L550.39,333.49z"/>
		<path id="C30047" title="Lake" class="land" d="M246.22,214.09L214.14,213.99L216.05,214.3L215.87,217.77L217.14,221.69L216.08,223.12L216.29,226.02L218.24,226.93L217.59,229.08L214.79,230.22L213.89,232.73L216.18,234.25L215.77,235.44L218.66,236.97L220.06,239.41L220.02,241.76L222.08,245.33L220.51,248.76L220.49,256.35L218.99,257.34L220.87,257.94L222.09,260.96L224.93,263.36L226.77,263.01L227.15,263.85L227.06,276.86L215.65,276.84L215.67,283.34L189.82,283.35L189.89,276.84L188.23,276.83L188.2,250.77L179.51,250.77L177.81,249.77L175.76,250.69L174.41,247.48L172.94,245.67L173.96,242.98L174.19,238.06L175.63,236.36L175.68,234.06L177.86,234.82L179.96,232.63L178.2,229.57L173.21,229.62L171.18,231.97L169.84,231.64L171.8,225.99L171.96,222.93L175.38,220.47L174.31,216.33L174.18,215.68L173.22,213.78L149.47,213.82L149.38,191.99L147.3,191.98L147.33,185.43L160.29,185.42L158.78,159.35L204.99,159.25L204.94,155.46L203.02,153.56L202.63,155.07L200.95,150.01L203.82,150.08L203.81,147.87L206.05,147.86L206.03,145.68L220.56,145.8L223.26,149.67L222.63,151.44L225.03,156.88L228.89,156.6L232.11,159.93L232.34,161.52L234.63,160.69L237.59,166.2L239.61,166.19L242.81,170.21L242.02,173.95L242.65,181.96L241.4,184.69L244.22,187.39L244.9,189.92L243.16,192.09L245.56,195.97L249.27,195.74L249.87,201.44L249.06,204.55L247.38,205.23L247.14,210.72z"/>
		<path id="C30049" title="Lewis and Clark" class="land" d="M447.58,316.86L453.23,320.1L452.59,322.22L449.22,323.96L449.51,328.95L451,328.97L453.55,332.55L456.26,332.21L460.49,333.02L461.3,331.15L463.13,331.59L463.9,339.27L459.14,338.26L457.39,338.66L454.8,336.4L452.49,337.7L450.91,341.75L449.56,342.85L449.44,365.93L450.28,367.89L434.36,367.91L409.75,367.89L409.29,371.77L404.22,375.66L399.03,374.81L393.54,378.21L391.86,378.35L392.23,381.24L393.76,381.6L394.88,384.36L390.78,385.45L390.22,387.63L385.23,390.71L381.09,389.74L379.59,387.87L381.64,385.29L381.57,376.55L382.81,373.57L381.32,370.71L380.44,366.99L382.78,362.46L382.31,359.49L380.01,354.97L370.87,354.93L370.88,348.57L358.19,348.74L358.16,328.59L331.69,328.98L331.56,277.52L305.82,277.56L304.83,277.2L304.77,230.92L304.44,231.78L300.25,231.43L299.12,230.54L298.29,226.77L298.12,220.42L298.82,218.5L296.06,214.62L296.98,211L296.1,208.48L297.35,208.16L297.04,204.52L294.77,199.62L293.97,194.81L296.74,192.05L301.26,192.41L302.58,191.46L302.39,187.96L304.56,185.66L303.76,179.44L304.9,177.44L304.93,173.18L304.42,170.95L301.4,169.33L302,165.99L308.7,164.51L309.42,162.45L312.39,160.55L315.77,169.19L318.98,177.84L318.94,186.75L320.54,197.12L323.84,206.71L337.67,212.24L345.55,210.64L356,207.04L369.73,215.29L379.63,222.76L393.33,228.01L404.72,226.97L407.92,226.71L408.16,275.2L410.06,274.22L411.88,275.49L411.79,277.24L415.01,276.49L414.86,278.04L416.64,278.74L418.64,282.54L420.91,283.76L423.3,283.7L423.29,285.85L425.49,284.76L434.21,284.72L434.13,316.77z"/>
		<path id="C30051" title="Liberty" class="land" d="M472.96,133.47L472.98,120.17L486.65,120.18L486.76,13.52L487.13,13.49L487.06,0.64L514.25,0.6L526.12,0.51L526.2,0.51L540.82,0.44L540.87,13.51L540.05,13.51L540.14,63.05L539.5,67.07L539.55,120.14L532.28,120.14L532.27,133.32z"/>
		<path id="C30053" title="Lincoln" class="land" d="M134.71,0.13L134.09,2.93L137.91,3.27L139.09,4.32L137.89,7.35L135.69,9.69L136.62,11.01L137.25,15.1L136.46,17.1L138.66,21.29L138.42,24.63L135.26,26.25L134.27,29.71L139.45,31.57L142.9,34.37L144.2,37.47L146.56,38.55L145.82,40L139.73,42.81L138.44,45.3L139.53,47.32L138.35,49.56L143.51,52.03L143.8,52.86L118.35,52.93L118.38,65.98L122.32,65.99L122.34,92.67L122.5,119.15L104.96,119.18L105.91,150.95L91.9,154.45L88.82,161.45L81.39,167.77L70,166.98L62.02,166.6L51.21,160.18L51.61,154.34L43.5,143.4L38.65,129.68L37.89,121.38L35.07,116.68L27.58,116.42L23.09,120.4L14.87,124.59L10.74,127.64L2.85,125.31L0.02,120.84L0,117.41L0.07,115.52L0.03,111.75L0.11,106.38L0,90.53L0.09,80.15L0.09,76.96L0.08,0.07L4.99,0.02L6.05,0.07L55.95,0.11L85.82,0.33z"/>
		<path id="C30055" title="McCone" class="land" d="M1040.13,152L1043.69,149.81L1045.99,150.14L1046.85,146.4L1048.11,148.92L1049.63,149.71L1052.66,148.72L1055.34,145.44L1058.23,144.9L1058.73,146.62L1060.41,146L1060.93,143.54L1060.09,141.82L1063.19,142.44L1065.48,141.14L1068.19,140.87L1071.38,143.53L1073.27,140.16L1075.37,138.69L1076.74,139.75L1079.92,139.98L1087.04,139.45L1088.97,140.08L1092.36,139.49L1093.76,141.56L1102.86,139.53L1103.82,140.29L1103.63,143.78L1106.27,143.59L1106.25,173.56L1102.22,173.56L1102.21,185.28L1089.13,185.33L1089.08,224.7L1084.69,224.73L1084.72,276.87L1041.22,276.96L1041.24,290.07L1028.27,290.1L1028.28,276.96L1015.37,276.96L1006.84,276.96L1006.82,250.94L993.82,250.99L993.83,224.78L997.65,224.76L997.6,173.54L987.7,173.52L987.7,160.06L981.55,160.03L981.99,157.7L980.4,150.79L981.63,147.05L983.38,144.16L986.13,144.1L987.07,146.46L989.7,146.57L991.45,145.15L993.54,147.28L996.12,146.49L1000.84,149.56L1011.41,148.92L1009.46,152.49L1011.74,152.92L1014.47,151.96L1015.47,148.3L1017.46,148.58L1019.71,152.28L1022.74,152.58L1021.65,149.61L1023.58,148.45L1026.8,151.16L1030.81,151.54L1032.56,152.98L1034.76,151.39L1034.95,147.77L1036.72,150.31z"/>
		<path id="C30059" title="Meagher" class="land" d="M447.58,316.86L459.69,316.85L459.71,303.9L485.58,303.84L485.59,302.23L498.5,302.25L498.49,290.81L506.41,290.82L506.09,294.49L506.85,297.27L503.98,299.62L506.04,302.39L515.03,303.22L523.49,306.81L527.79,312.18L529.13,312.08L529.21,315.44L532.49,316.63L534.57,318.58L539.01,318.8L539.92,320.51L539.96,327.06L542.77,327.9L545.54,327.05L547.37,329.97L550.03,330.19L550.39,333.49L553.37,337.92L557.75,338.24L559.72,339.08L559.07,342.72L563.23,346.65L564.77,346.51L567.27,348.27L569.05,351.72L572.07,350.53L573.65,351.82L574.8,350.77L578.83,349.67L583.09,352.49L583.31,350.67L585.67,350.23L588.7,346.95L588.71,379.59L587.85,379.59L587.84,419.23L587.84,424.56L574.85,424.56L574.86,423.44L536.67,423.36L536.05,423.34L508.28,423.29L508.35,419.18L506.15,416.9L506.69,415.12L501.7,411.42L502.63,405.07L505.02,401.07L507.7,399.68L507.39,396.46L508.82,392.33L505,389.26L504.59,387.88L501.77,386.75L502.17,385.08L496.86,386.05L495.43,388.42L491.44,388.62L489.55,387.24L488.48,380.87L486.44,375.61L484.91,374.04L482.35,373.56L479.5,371.33L481.77,369.75L480.61,366.54L480.97,358.38L477.29,358.07L475.99,356.48L472.92,357.57L472.38,352.36L468.9,351.31L468.96,346.01L467.45,344.88L468.26,342.21L463.9,339.27L463.13,331.59L461.3,331.15L460.49,333.02L456.26,332.21L453.55,332.55L451,328.97L449.51,328.95L449.22,323.96L452.59,322.22L453.23,320.1z"/>
		<path id="C30057" title="Madison" class="land" d="M393.35,488.24L394.29,488.27L396.41,487.15L398.8,484.77L399.62,482L401.11,479.97L400.7,478.65L400.77,477.81L400.82,476.16L401.76,475.27L402.37,474.94L403.22,474.6L404.23,473.66L405.92,473.24L407.07,473.4L407.74,473.01L409.12,472.46L411.35,472.49L412.85,473.42L414.84,473.85L416.74,473.17L419,472.92L420.84,473.47L421.86,476.53L425.27,477.29L429.76,477.9L432.44,480.47L432.6,481.03L432.61,482.66L436.86,482.67L436.88,484.73L441.1,484.75L441.12,489L447.43,489.01L447.44,491.1L449.47,491.07L449.5,493.24L451.55,493.16L451.55,495.36L453.67,495.31L453.69,497.45L455.75,497.45L455.78,499.51L457.94,499.48L457.95,501.59L459.94,501.59L459.97,503.71L478.85,503.74L478.95,545.96L476.63,545.96L476.7,609.14L476.18,609.16L476.16,632.06L475.42,631.57L474.51,631.94L474.11,632.77L474.45,633.08L474.03,636.11L472.43,637.92L471.42,637.45L470.87,636.57L469.93,636.51L465.69,638.14L434.99,638.19L434.98,627.85L406.03,627.47L406.05,621.43L395.71,621.32L395.72,609.02L393.32,608.99L393.26,596.41L378.68,596.38L378.72,583.75L366.18,583.74L366.09,546.05L365.41,546.04L365.45,539.75L361.24,532.58L357.77,532.08L353.91,534.49L351.74,534.55L348.68,532.94L347.64,530.84L342.28,526.72L342.29,522.55L340.91,519.51L342.01,518.13L342.75,514.28L342.71,509.68L343.5,508.02L342.72,506.22L351.53,500.93L353.88,498.47L356.74,497.58L359.36,494.14L359.17,491.27L360.21,488.5L361.97,486.59L365.72,489.07z"/>
		<path id="C30061" title="Mineral" class="land" d="M127.67,263.8L127.68,268.07L129.86,268.13L129.86,270.29L136.34,270.28L136.35,276.78L138.48,276.79L138.49,279.03L142.67,279.04L142.65,283.35L144.81,283.36L144.8,285.51L149.12,285.51L149.1,289.84L151.27,289.82L151.24,293.92L159.63,293.93L159.66,300.47L166.15,300.49L166.16,302.59L162.92,302.62L162.93,304.96L156.81,302.57L155.37,302.57L155.36,305.09L153.18,305.07L153.25,309.39L151.24,309.36L151.2,328.7L152.96,328.69L152.98,341.5L140.12,341.49L140.13,343.03L137.92,342.51L137.68,342.56L136.52,345.9L136.2,346.28L134.78,346.36L133.49,346.78L132.71,348.13L132.56,348.57L132.29,348.94L130.76,348.98L128.71,346.86L128.55,346.45L129.46,344.02L130.06,343.81L130.73,342.77L130.94,341.8L130.95,339.91L128.4,336.85L126.51,336.32L125.54,336.5L124.42,336.29L123.73,335.02L122.82,334.54L121.59,333.46L121.27,332.96L121.13,331.92L120.83,331.64L119.18,331.95L118.41,332.43L117.42,331.74L116.74,330.31L115.11,329.59L114.36,328.35L114.3,327.28L114.8,326.63L114.28,325.56L113.08,325.38L112.37,324.89L112.79,323.6L113.25,323.45L113.98,322.29L114.03,321.5L113.45,319.23L113.63,318.58L114.35,317.36L114.4,316.73L114.14,315.92L111.02,314.38L110.68,313.95L108.38,311.09L106.91,308.77L106.88,308.15L104.11,307.59L104.05,307.96L103.78,308.2L102.13,308.5L101.96,308.31L101.19,305.93L100.26,304.5L99.75,300.67L98.06,297.18L97.01,296.67L96.54,296.92L96.09,296.65L94.68,294.83L93.08,292.29L92.79,291.35L92.7,290.09L89.64,288.12L89.38,287.13L87.7,284.42L86.57,283.2L84.26,281.74L82.17,281.53L81,279.66L80.94,277.89L80.32,276.84L77.82,276.61L76.38,275.89L76.35,275.02L76.84,273.27L77.24,272.64L76.97,270.98L76.56,270.34L75.7,269.64L75.22,269.67L74.69,269.13L73.9,267.4L73.69,265.75L72.44,264.89L70.39,265.22L69.68,264.91L69.11,264.35L65.15,264.5L64.04,263.38L63.88,262.71L63.35,262.33L61.8,262.54L60.43,262.47L59.01,261.41L57.34,261.16L54.84,259.86L53.33,258.66L52.79,257.03L51.09,254.32L50.85,251.67L50.31,251.19L49.45,251.13L48.83,250.69L48.04,249.1L44.89,247.03L44.1,246.77L41.87,247.36L41.34,246.88L40.92,245.61L39.98,244.05L36.63,241.89L34.62,241.48L33.74,241L33.48,240.48L32.73,239.81L32.47,239.14L32.73,237.37L33.81,236.17L36.39,235.55L38.61,235.98L39.35,235.6L40.32,233.92L40.45,232.73L44,231.42L44.64,232.94L48.99,233.5L53.11,232.65L54.14,229.58L55.53,230.04L57.24,233.12L61.79,234.21L65.94,231.47L70.61,231.87L71.86,233.42L75.95,233.24L78.23,231.1L81.61,232.01L85.38,234.75L91.01,236.94L91.85,239.23L94.77,241.18L97.11,239.91L99.96,241.49L104.05,241.9L105.71,244.24L109.12,244.82L110.18,248.05L110.17,257.25L116.61,257.32L116.61,259.5L123.08,259.49L123.09,263.83z"/>
		<path id="C30063" title="Missoula" class="land" d="M189.82,283.35L215.67,283.34L215.65,276.84L227.06,276.86L227.15,263.85L226.77,263.01L224.93,263.36L222.09,260.96L220.87,257.94L218.99,257.34L220.49,256.35L220.51,248.76L222.08,245.33L220.02,241.76L220.06,239.41L218.66,236.97L215.77,235.44L216.18,234.25L213.89,232.73L214.79,230.22L217.59,229.08L218.24,226.93L216.29,226.02L216.08,223.12L217.14,221.69L215.87,217.77L216.05,214.3L214.14,213.99L246.22,214.09L263.29,214.07L263.33,277.26L279.96,277.19L279.95,328.93L268.41,328.96L268.38,333.31L261.92,333.29L261.93,341.87L255.3,341.85L254.67,346.06L242.78,346.15L242.83,354.68L226.46,354.3L191.55,354.35L191.55,354.44L174.99,354.34L172.16,353.11L168.71,353.73L167.81,354.5L167.04,354.82L165.67,354.35L162.73,356.04L162.63,357.26L161.34,358.64L159.37,358.47L158.17,357.75L153.14,356.74L151.69,357.1L149.46,358.41L148.46,358.47L148.26,358.38L146.24,357.45L146.1,356.87L146.58,356.27L146.27,355.15L145.58,354.72L144.13,354.54L143.42,352.5L143.52,351.59L144.52,350.9L145.41,349.78L145.65,347.43L145.05,346.61L144.41,346.23L142.74,343.65L140.13,343.03L140.12,341.49L152.98,341.5L152.96,328.69L151.2,328.7L151.24,309.36L153.25,309.39L153.18,305.07L155.36,305.09L155.37,302.57L156.81,302.57L162.93,304.96L162.92,302.62L166.16,302.59L166.15,300.49L159.66,300.47L159.63,293.93L151.24,293.92L151.27,289.82L149.1,289.84L149.12,285.51L144.8,285.51L144.81,283.36L142.65,283.35L142.67,279.04L138.49,279.03L138.48,276.79L136.35,276.78L136.34,270.28L129.86,270.29L129.86,268.13L127.68,268.07L127.67,263.8L131.33,265.13L132.39,264.58L136.69,265.93L138.86,263.02L144.53,263.88L148.64,265.62L152.86,266.39L158.66,271.21L161.08,271.21L162.61,272.91L165.73,272.59L170.08,275.9L172.88,275.44L173.72,278.62L172.66,280.42L178.1,283.64L179.12,285.25L182.98,285.97L184.87,283.91L187.29,284.92z"/>
		<path id="C30065" title="Musselshell" class="land" d="M842.68,378.68L842.59,393.53L827.67,393.53L827.68,395.67L825.57,395.71L825.54,397.86L823.48,397.86L823.47,400L821.34,400L821.32,402.14L819.21,402.17L819.25,406.41L817.42,406.42L817.38,412.88L787.7,412.84L787.68,414.96L783.43,414.91L783.42,416.94L779.15,416.94L779.12,432.12L740.88,432.16L740.99,410.98L738.87,410.97L738.96,406.81L736.78,406.73L735.75,404.47L735.77,400.12L734.7,398.01L732.61,398.02L732.67,385.24L730.52,385.24L730.7,379.62L728.13,379.64L728.18,366.69L719.64,366.49L719.95,359.79L717.54,360.08L717.48,341.05L718.19,341.06L718.63,340.97L719.01,341.01L756.09,341.2L837.94,340.23L838.16,341.09L838.45,341.7L838.95,341.92L839.42,342.27L839.65,343.02L839.8,343.59L839.76,344.11L839,344.48L838.49,344.37L838.26,345.55L838.17,346.15L838.66,346.92L838.74,347.69L839.2,348.49L839.42,348.98L840.28,349.39L840.73,350.09L841.37,350.95L841.22,351.94L841.01,352.76L840.9,353.81L840.31,354.09L839.86,354.58L839.89,355.17L839.39,355.33L839.03,356.1L839.02,357.36L839.49,358.13L839.19,358.76L838.85,359.68L838.67,360.47L838.45,361.71L837.97,361.89L837.99,362.62L837.37,362.92L837.17,363.48L837.58,363.81L839.73,363.85L841.23,368L841.09,372.32L841.09,376.07L842.1,378.69z"/>
		<path id="C30067" title="Park" class="land" d="M637.08,596.16L629.23,596L617.07,596.01L613.96,595.95L613.88,595.94L605.34,595.91L596.23,597.02L587.34,596.92L583.5,596.59L581.7,596.61L579.6,596.39L575.5,597.36L566.82,597.57L560.8,597.55L560.26,597.59L544.69,597.57L540.05,596.77L538.95,596.48L536.56,596.05L510.14,596.28L509.9,571.06L510.67,571.03L510.76,545.87L523.04,545.85L522.89,520.66L529.1,520.7L529.22,511.15L535.55,511.24L535.51,482.75L536.1,482.75L536.16,457.21L535.81,452.84L536.01,430.75L536.67,426.98L536.67,423.36L574.86,423.44L574.85,424.56L587.84,424.56L587.84,431.99L586.73,432L586.74,482.92L594.05,482.96L594.27,546.21L593.22,546.22L593.27,571.61L610.06,571.71L637.13,571.74L637.13,572.39z"/>
		<path id="C30069" title="Petroleum" class="land" d="M829.67,236.54L828.85,238.24L829.19,242.18L827.19,246.67L825.16,249.84L824.26,251.4L824.96,253.45L824.85,255.6L825.56,256.1L826.1,256.09L826.02,256.85L825.38,258.86L824.85,259.76L824.81,260.73L824.74,261.73L824.58,262.93L824.95,263.7L825,265.22L824.37,265.55L824.21,266.96L824.78,267.3L824.96,268.14L824.64,269.06L824.49,269.9L825.13,270.57L825.94,270.89L826.63,272.33L826,273.83L825.79,274.75L826.92,275.93L827.44,276.59L827.54,277.8L826.91,279.15L826.66,279.77L826.19,280.19L825.64,281.14L826.01,281.97L825.34,283.41L825.32,284.13L824.85,284.94L825.54,286.06L826.54,286.44L826.54,287.47L825.93,287.64L826.67,288.79L827.11,289.99L826.87,291.06L827.55,291.83L828.21,291.61L828.47,292.39L828.63,293.56L828.17,294.82L828.38,295.46L828.37,296.13L828.93,297.76L829.21,299.67L828.55,300.85L830,301.83L830.74,301.4L831.42,302.5L831.88,303.88L831.89,305.73L830.49,307.72L829.85,309.67L828.93,312L829.05,313.33L828.6,314.36L828.11,314.67L827.83,315.42L827.98,316.21L827.38,317.84L826.59,320.22L827.21,322.47L828.61,323.21L830.44,324.44L831.38,326.05L830.85,326.31L834.47,328.41L833.96,329.3L836.53,333.45L836.79,335.36L835.34,336.98L837.94,340.23L756.09,341.2L756.13,328.26L758.14,328.25L758.37,289.38L745.31,289.32L745.34,276.46L747.2,276.46L747.09,263.6L760.21,263.57L760.17,258.21L785.09,257.99L788.29,256.91L788.53,216.57L791.61,217.14L793.93,215.88L796.13,216.73L800.05,215.62L802.19,217.08L805.35,216.54L806.4,215.21L812.28,215.28L813.72,214.33L815.64,215.81L819.04,216.88L821.89,215.77L824.3,218.61L827.66,218.95L827.5,222.46L828.62,226.03L830.89,228.08L829.65,230.93z"/>
		<path id="C30071" title="Phillips" class="land" d="M796.29,0.29L850.48,0.24L877.35,0.31L885.25,0.21L903.97,0.23L903.95,13.75L901.29,13.74L901.26,66.84L902.65,66.84L902.57,75.85L895.99,75L896,80.2L891.55,80.19L891.62,93.51L895.75,93.53L895.74,107.16L884.66,107.1L884.6,120.35L881.07,120.35L881.07,173.18L880.07,173.2L880.02,200.25L877.55,210.13L876.42,210.75L871.21,210.43L869.25,207.63L864.41,207.6L861.05,206.53L859.5,209.2L857.27,206.64L855.63,206.15L856.31,209.99L851.53,209.58L849.94,214.1L847.76,216.28L847.71,218.18L844.54,219.66L844.92,221.3L843.03,222.56L841.67,220.94L840.92,222.44L838.42,222.39L834.18,227.97L835.65,230.36L834.04,231.75L834.38,235.71L829.67,236.54L829.65,230.93L830.89,228.08L828.62,226.03L827.5,222.46L827.66,218.95L824.3,218.61L821.89,215.77L819.04,216.88L815.64,215.81L813.72,214.33L812.28,215.28L806.4,215.21L805.35,216.54L802.19,217.08L800.05,215.62L796.13,216.73L793.93,215.88L791.61,217.14L788.53,216.57L786.94,217.49L781.66,217.17L779.61,214.82L776.34,213.73L772.66,213.76L768.05,211.8L761.92,212.61L755,210.98L749.36,209.62L743.88,207.14L740.1,201.37L733.29,195.72L729.58,193.79L729.87,165.29L751.94,165.16L756.62,165.58L756.85,160.02L757.55,157.76L759.5,154.74L762.33,156.36L776.16,157.13L776.17,120.18L778.46,120.18L778.47,85.71L778.56,85.17L779.15,86.37L781.98,86.15L785.13,89.18L785.11,66.77L787.89,66.77L787.86,40.03L793.96,40.04L793.95,13.59L796.32,13.6z"/>
		<path id="C30073" title="Pondera" class="land" d="M472.98,120.17L472.96,133.47L473.02,155.54L414.4,155.88L414.42,147.01L407.88,147.01L407.93,140.36L394.63,140.28L394.63,133.66L309.11,133.43L305.78,135.15L304.35,130.77L301.57,132.82L297.08,132.53L293.89,128.41L291.35,126.83L289.49,128.58L287.27,127.65L286.69,120.37L287.76,117.94L286.7,115.92L281.35,113.21L280.45,110.22L277.22,109.23L275.21,106.33L354.05,106.45L353.95,79.81L389.31,79.87L393.95,80.71L394.95,82.28L397.26,81.66L402.61,84.94L403.13,86.37L410.11,84.58L413.66,86.69L413.68,93.47L433.54,93.66L433.52,100.27L446.8,100.32L446.73,120.18z"/>
		<path id="C30075" title="Powder River" class="land" d="M1122.21,596.42L1118.31,596.42L1039.69,596.41L1033.04,596.34L1032.95,596.47L1031.53,597.38L1021.68,597.38L997.35,597.36L997.34,570.6L995.71,570.59L995.73,545.78L1000.2,545.78L1000.57,487.48L1000.33,482.43L1004.66,482.4L1094.03,482.46L1094.04,482.54L1127.95,482.63L1128.01,532.65L1127.42,536.3L1127.43,545.75L1122.22,545.74z"/>
		<path id="C30077" title="Powell" class="land" d="M296.06,214.62L298.82,218.5L298.12,220.42L298.29,226.77L299.12,230.54L300.25,231.43L304.44,231.78L304.77,230.92L304.83,277.2L305.82,277.56L331.56,277.52L331.69,328.98L358.16,328.59L358.19,348.74L370.88,348.57L370.87,354.93L380.01,354.97L382.31,359.49L382.78,362.46L380.44,366.99L381.32,370.71L382.81,373.57L381.57,376.55L381.64,385.29L379.59,387.87L381.09,389.74L378.17,392.44L376.92,395.01L372.3,394.68L370.08,396.33L369.41,399.04L366.71,400.15L366.53,403.29L364.33,401.53L362.03,401.39L361.41,403.13L358.4,402.96L356.03,406.47L354.69,406.81L355.83,412.57L307.08,412.43L306.89,343.17L299.03,346.51L297.37,344.62L292.64,343.92L293.2,340.62L291.19,338.17L287.63,336.23L286.1,333.51L285.44,330.64L283.74,329.86L281.13,332.67L281.11,328.93L279.95,328.93L279.96,277.19L263.33,277.26L263.29,214.07L277.65,214.03L277.64,214.59z"/>
		<path id="C30079" title="Prairie" class="land" d="M1015.38,324.75L1015.37,276.96L1028.28,276.96L1028.27,290.1L1041.24,290.07L1041.22,276.96L1084.72,276.87L1093.02,276.86L1093.01,307.36L1106.07,307.36L1106.05,315.99L1119.04,316L1119.04,318.08L1121.19,318.05L1121.16,320.24L1123.32,320.23L1123.32,324.57L1166.5,324.66L1166.19,328.96L1166.17,350.76L1166.17,355.06L1153.35,355L1153.35,361.45L1140.52,361.48L1140.5,367.89L1127.67,367.84L1127.68,372.1L1101.72,372.04L1101.75,367.74L1080.36,367.62L1080.36,363.31L1075.99,363.3L1075.99,354.75L1067.45,354.76L1067.39,341.87L1063.13,341.85L1063.18,328.93L1041.25,328.94L1041.25,324.71z"/>
		<path id="C30081" title="Ravalli" class="land" d="M258.09,460.33L258.15,460.4L258.21,460.51L256.3,464.25L256.14,467.03L256.96,468.91L250.59,471.53L250.48,473.42L248.58,473.38L247.42,474.71L242.82,475.6L239.73,474.39L238.24,475.14L236.48,477.92L231.02,482.19L228.86,486.17L226.25,487.93L224.3,487.67L223.7,484.65L222.22,483.44L219.47,485.08L217.55,488.75L218.64,490.68L217.97,495.45L216.82,494.71L214.77,497.28L211.82,495.2L210.28,494.63L207.33,495.86L206.95,496.32L206.83,498.03L206.87,499.61L207.51,501.37L207.39,501.98L207.01,502.77L205.51,502.76L202.03,505.8L200.58,508.18L200.44,509.25L200.55,510.27L200.09,511.11L198.7,511.81L196.45,512.11L195.52,513.54L195.43,513.81L195.81,514.33L195.76,514.84L195.14,516L193.14,516.66L190.57,516.88L189.92,517.73L189.27,519.03L188.16,519.18L185.69,517.6L183.63,517.68L183.25,518.85L183.63,519.52L183.66,520.81L182.26,524.94L181.33,526.34L180.46,527.14L174.96,530.23L173.76,530.14L172.16,528.08L171.66,525.72L171.36,525.39L169.31,523.91L166.54,522.92L164.18,519.1L162.97,518.17L162.37,517.96L161.98,515.45L160.64,515.16L158.15,516.29L157.32,515.75L156.15,514.45L155.31,514.07L152.92,515.55L151.95,514.8L152.03,511.99L152.46,511.09L154.08,508.83L153.39,507.41L152.47,507.03L151.51,505.24L151.48,504.39L151.74,504.03L154.32,502.48L154.94,502.23L155.71,502.66L157.18,501.26L158,499.8L158.43,494.81L158.21,493.74L157.47,492.07L154.33,489.61L151.22,484.55L151.59,483.66L152.31,482.74L153.41,481.99L156.64,476.54L156.23,475.91L156.22,475.49L156.48,474.79L157.01,474.1L158.08,473.35L160.99,473.25L162.49,472.72L163.19,472.15L165.81,472.67L167.19,473.21L169.35,468.73L169.46,467.74L168.66,465.94L167.71,465.65L166.81,464.48L164.98,460.94L164.96,460.6L165.33,460.37L165.74,459.72L166.53,459.16L166.94,458.51L167.67,457.99L167.92,457.18L167.78,456.36L167.2,455.73L166.94,454.78L166.13,454.31L165.52,453.74L163.96,453.23L160.92,452.17L160.28,451.43L160.21,450.23L160.63,449.12L159.98,447.11L159.41,447.16L158.92,446.8L158.63,446.11L158.5,445.32L158.76,444.63L161.17,442.4L161.85,440.05L162.03,437.33L160.57,435.08L159.15,434.99L155.79,433.2L155.2,430.14L156.46,426.98L159.06,426.99L160.17,427.99L160.75,427.79L162.29,426.61L163.47,426.07L163.75,421.81L163.52,419.28L163.08,416.8L162.86,416.19L161.2,415.08L160.97,412.36L161.53,411.51L162.73,411.83L163.94,411.41L164.54,411L165.37,409.96L165.55,409.34L164.74,406.75L164.92,405.98L166.75,402.27L167.07,398.63L166.97,397.75L165.87,394.74L167.24,392.77L169.71,391.1L170.56,386.5L170.26,383.97L169.88,383.05L168.72,382.59L168.15,381.46L167.85,378.29L168.13,377.78L168.64,377.63L169.59,377.45L170.67,377.82L172.36,377.31L173.08,376.9L174.06,375.19L173.33,373.74L173.38,373.11L173.72,370.94L174.32,368.64L175.11,367.48L175.15,366.61L174.89,365.88L174.78,365.07L174.89,364.48L176.05,361.69L176.01,356.97L176.24,356.38L175.84,355.4L174.99,354.34L191.55,354.44L191.55,354.35L226.46,354.3L227.55,357.12L225.76,368.44L222.36,379.07L230.66,397.77L231.87,415.88L229,419.42L228.24,423.71L230.27,426.2L232.65,432.75L233.52,446.12L243.16,454.19L255.73,459.59z"/>
		<path id="C30083" title="Richland" class="land" d="M1223.54,154.16L1223.53,154.66L1223.55,157.89L1223.6,160.48L1223.62,161.23L1223.73,170.1L1223.79,174.45L1223.76,177.57L1223.69,182.63L1223.71,183.07L1223.71,183.39L1223.63,191.85L1223.63,191.88L1223.57,210.3L1223.52,212.22L1223.56,213.59L1223.54,225.58L1223.48,235.23L1223.47,238.38L1223.44,244.53L1214.67,244.49L1214.63,251.03L1188.78,251.1L1185.2,250.96L1175.72,250.94L1175.76,224.73L1167.52,224.77L1167.53,211.67L1128.31,211.62L1128.36,198.48L1102.18,198.44L1102.21,185.28L1102.22,173.56L1106.25,173.56L1106.27,143.59L1107.49,141.7L1110.58,142.34L1115.13,143.15L1122.34,143.93L1126.63,142.13L1130.8,138.63L1133.73,134.51L1139.59,132.58L1145.33,134.84L1154.68,136.1L1162.65,136.57L1168.01,135.26L1175.31,136.03L1185.39,140.69L1197.25,145.88L1205.97,148.67L1212.26,146.7L1219.82,153.4z"/>
		<path id="C30085" title="Roosevelt" class="land" d="M1223.25,94.21L1223.28,96.45L1223.31,96.55L1223.31,101.42L1223.34,114.48L1223.36,114.74L1223.38,116.1L1223.37,116.34L1223.38,116.82L1223.39,124.07L1223.4,124.29L1223.4,126.76L1223.41,128.57L1223.54,154.16L1219.82,153.4L1212.26,146.7L1205.97,148.67L1197.25,145.88L1185.39,140.69L1175.31,136.03L1168.01,135.26L1162.65,136.57L1154.68,136.1L1145.33,134.84L1139.59,132.58L1133.73,134.51L1130.8,138.63L1126.63,142.13L1122.34,143.93L1115.13,143.15L1110.58,142.34L1107.49,141.7L1106.27,143.59L1103.63,143.78L1103.82,140.29L1102.86,139.53L1093.76,141.56L1092.36,139.49L1088.97,140.08L1087.04,139.45L1079.92,139.98L1076.74,139.75L1075.37,138.69L1073.27,140.16L1071.38,143.53L1068.19,140.87L1065.48,141.14L1063.19,142.44L1060.09,141.82L1060.93,143.54L1060.41,146L1058.73,146.62L1058.23,144.9L1055.34,145.44L1052.66,148.72L1049.63,149.71L1048.11,148.92L1046.85,146.4L1045.99,150.14L1043.69,149.81L1040.13,152L1040.16,120.24L1044.15,120.22L1044.14,67.56L1062.37,67.48L1063.47,67.59L1128.84,67.58L1150.82,67.59L1150.8,80.87L1164.06,80.93L1164.03,94.24z"/>
		<path id="C30087" title="Rosebud" class="land" d="M928.5,470.52L928.52,431.53L921.54,431.92L921.56,406.43L919.4,406.57L919.41,393.52L906.68,393.5L906.65,382.85L904.52,382.82L904.5,380.7L847.03,380.79L842.68,378.68L842.1,378.69L841.09,376.07L841.09,372.32L841.23,368L839.73,363.85L837.58,363.81L837.17,363.48L837.37,362.92L837.99,362.62L837.97,361.89L838.45,361.71L838.67,360.47L838.85,359.68L839.19,358.76L839.49,358.13L839.02,357.36L839.03,356.1L839.39,355.33L839.89,355.17L839.86,354.58L840.31,354.09L840.9,353.81L841.01,352.76L841.22,351.94L841.37,350.95L840.73,350.09L840.28,349.39L839.42,348.98L839.2,348.49L838.74,347.69L838.66,346.92L838.17,346.15L838.26,345.55L838.49,344.37L839,344.48L839.76,344.11L839.8,343.59L839.65,343.02L839.42,342.27L838.95,341.92L838.45,341.7L838.16,341.09L837.94,340.23L835.34,336.98L836.79,335.36L836.53,333.45L833.96,329.3L834.47,328.41L830.85,326.31L831.38,326.05L874.74,326.05L874.72,324.72L884.02,324.98L887.16,324.81L950.83,324.85L950.81,326.98L1015.39,326.87L1015.41,329.06L1011.89,329.05L1011.94,380.52L1008.39,380.53L1008.59,431.46L1004.7,431.48L1004.66,482.4L1000.33,482.43L1000.57,487.48L1000.2,545.78L995.73,545.78L995.71,570.59L983.58,570.61L983.58,570.98L970.98,570.95L945.94,570.62L945.88,545.62L949.85,545.8L949.85,499.22L950.07,498.71L937.92,498.69L937.92,497.63L931.16,497.61L931.22,482.46L934.84,482.45L934.81,476.12L928.52,476.12z"/>
		<path id="C30089" title="Sanders" class="land" d="M105.91,150.95L105.91,153.1L108.1,153.1L108.06,172.86L121.15,172.86L121.16,172.41L147.32,172.44L147.33,185.43L147.3,191.98L149.38,191.99L149.47,213.82L173.22,213.78L174.18,215.68L174.31,216.33L175.38,220.47L171.96,222.93L171.8,225.99L169.84,231.64L171.18,231.97L173.21,229.62L178.2,229.57L179.96,232.63L177.86,234.82L175.68,234.06L175.63,236.36L174.19,238.06L173.96,242.98L172.94,245.67L174.41,247.48L175.76,250.69L177.81,249.77L179.51,250.77L188.2,250.77L188.23,276.83L189.89,276.84L189.82,283.35L187.29,284.92L184.87,283.91L182.98,285.97L179.12,285.25L178.1,283.64L172.66,280.42L173.72,278.62L172.88,275.44L170.08,275.9L165.73,272.59L162.61,272.91L161.08,271.21L158.66,271.21L152.86,266.39L148.64,265.62L144.53,263.88L138.86,263.02L136.69,265.93L132.39,264.58L131.33,265.13L127.67,263.8L123.09,263.83L123.08,259.49L116.61,259.5L116.61,257.32L110.17,257.25L110.18,248.05L109.12,244.82L105.71,244.24L104.05,241.9L99.96,241.49L97.11,239.91L94.77,241.18L91.85,239.23L91.01,236.94L85.38,234.75L81.61,232.01L78.23,231.1L75.95,233.24L71.86,233.42L70.61,231.87L65.94,231.47L61.79,234.21L57.24,233.12L55.53,230.04L54.14,229.58L53.11,232.65L48.99,233.5L44.64,232.94L44,231.42L40.45,232.73L40.23,232.44L37.02,231.29L36.27,229.33L34.78,227.22L34.62,224.69L33.93,224.21L31.45,223.31L30.85,222.63L30.72,221.72L30.89,220.81L32.14,218.98L33.51,217.64L35.01,217.49L36.75,214.77L36.25,210.54L34.8,208.74L34.12,208.59L32.62,207.67L31.97,205.82L32.96,203.2L33.25,199.49L32.53,198.32L30.33,196.46L29.69,196.12L29.21,196.38L28.35,196.36L27.9,196L27.16,194.56L27.47,192.43L25.75,190.3L25.08,190.16L22.97,191.11L22.24,190.56L21.87,189.78L21.9,188.41L21.66,187.68L21.36,186.88L20.64,186.11L20.53,182.47L20.84,181.62L20.15,179.64L18.26,178.59L17.81,177.33L17.17,176.36L15.19,177.36L14.63,176.88L13.32,175.19L11.21,171.29L9.18,169.02L8.65,167.2L8.25,166.58L6.85,166.31L5.74,164.77L5.59,163.61L5.28,162.86L4.36,161.14L1.96,157.61L1.19,157.92L0.16,157.09L0.12,157.04L0.12,157.03L0.09,153.58L0.13,144.44L0.07,143.44L0.06,141.83L0.11,134.58L0.02,120.84L2.85,125.31L10.74,127.64L14.87,124.59L23.09,120.4L27.58,116.42L35.07,116.68L37.89,121.38L38.65,129.68L43.5,143.4L51.61,154.34L51.21,160.18L62.02,166.6L70,166.98L81.39,167.77L88.82,161.45L91.9,154.45z"/>
		<path id="C30091" title="Sheridan" class="land" d="M1120.26,0.33L1138.81,0.37L1162.06,0.32L1172.63,0.29L1223.07,0.23L1223.09,2.23L1223.08,5.37L1223.08,5.82L1223.06,6.56L1223.08,6.85L1223.07,7.67L1223.05,8.01L1223.06,8.99L1223.07,9.45L1223.06,10.49L1223.06,13.82L1223.06,14.63L1223.07,15.29L1223.07,18.79L1223.05,19.44L1223.05,19.71L1223.06,20.7L1223.07,20.98L1223.05,23.82L1223.08,31.59L1223.09,32.9L1223.12,36.43L1223.08,38.63L1223.11,39.28L1223.15,52.05L1223.16,52.21L1223.15,52.87L1223.15,53.09L1223.15,54.25L1223.16,54.45L1223.18,56.7L1223.18,56.7L1223.18,57.77L1223.18,57.98L1223.15,58.82L1223.12,62.07L1223.14,63.21L1223.16,67.64L1223.16,71.18L1223.18,72.44L1223.15,72.55L1223.19,73.3L1223.17,74.53L1223.13,77.27L1223.19,78.17L1223.2,82.32L1223.22,84.49L1223.21,84.55L1223.22,85.36L1223.23,85.56L1223.25,89.37L1223.23,90.9L1223.25,94.02L1223.25,94.21L1223.25,94.21L1164.03,94.24L1164.06,80.93L1150.8,80.87L1150.82,67.59L1128.84,67.58L1128.84,54.22L1122.19,54.2L1122.22,14.06L1120.23,14.04z"/>
		<path id="C30093" title="Silver Bow" class="land" d="M353.95,425.35L361.25,424.54L360.08,427.25L360.3,433.24L365.24,437.99L365.7,440.53L364.12,444.04L364.58,445.63L367.27,446.62L368.32,449.43L367.45,450.8L368.1,456.26L368.9,457.38L368.8,461.84L371.56,468.01L368.86,472.86L369.29,474.39L372.04,476.21L385.55,482.73L386.04,484.34L390.69,485.71L393.35,488.24L365.72,489.07L361.97,486.59L360.21,488.5L359.17,491.27L359.36,494.14L356.74,497.58L353.88,498.47L351.53,500.93L342.72,506.22L341.32,504.69L342.07,501.97L341.28,498.71L337.79,497.4L336.47,495.65L336.6,491.92L335.36,488.28L331.29,486.75L329.01,484.47L324.45,484.05L322.01,482.29L320.62,483.55L318.26,480.54L316.4,480.88L311.12,479.78L310.62,478.42L302.12,471.91L308.49,470.1L309.49,468.44L314.36,465.35L314.9,462.85L318.14,462.17L318.62,460.97L317.14,456.16L317.11,452.54L318.7,450.84L322.63,451.82L324.37,449.88L324.22,447.18L325.91,444.46L333.55,444.47L333.49,431.66L343.34,431.69L345.69,429.38L347.41,425.89L350.06,427.3z"/>
		<path id="C30095" title="Stillwater" class="land" d="M675.95,445.04L676.13,432.18L726.21,432.19L726.06,444.31L726.41,457.47L728.54,457.46L728.2,483.05L728.13,497.85L730.23,497.78L730.25,502.02L734.46,504.1L734.51,508.23L732.93,507.9L729.55,509.46L725.22,509.41L721.9,507.62L717.16,508.76L714.42,511.14L711.49,512.26L705.45,511.65L705.38,520.99L698.96,520.98L698.96,529.51L682.17,529.48L682.17,531.6L675.84,531.63L675.85,533.71L673.78,533.73L673.78,535.82L669.6,535.8L669.6,537.92L667.5,537.92L667.5,540.02L665.4,539.99L665.4,542.08L663.29,542.08L663.29,544.17L661.2,544.17L660.62,548.39L658.5,548.38L658.51,552.6L656.43,552.59L656.45,558.86L648.11,558.86L648.04,572.42L637.13,572.39L637.13,571.74L610.06,571.71L610.11,546.22L623.47,546.25L623.49,521.06L636.04,521.08L636.05,514.77L648.61,514.82L648.64,508.53L661.21,508.5L660.98,483.24L662.79,483.15L662.53,470.4L666.91,470.49L666.83,457.52L675.34,457.36L675.35,446.7z"/>
		<path id="C30097" title="Sweet Grass" class="land" d="M587.84,419.23L651.79,419.4L651.81,432.19L656.86,432.18L656.82,444.91L675.95,445.04L675.35,446.7L675.34,457.36L666.83,457.52L666.91,470.49L662.53,470.4L662.79,483.15L660.98,483.24L661.21,508.5L648.64,508.53L648.61,514.82L636.05,514.77L636.04,521.08L623.49,521.06L623.47,546.25L610.11,546.22L610.06,571.71L593.27,571.61L593.22,546.22L594.27,546.21L594.05,482.96L586.74,482.92L586.73,432L587.84,431.99L587.84,424.56z"/>
		<path id="C30099" title="Teton" class="land" d="M407.92,226.71L404.72,226.97L393.33,228.01L379.63,222.76L369.73,215.29L356,207.04L345.55,210.64L337.67,212.24L323.84,206.71L320.54,197.12L318.94,186.75L318.98,177.84L315.77,169.19L312.39,160.55L319.74,161.7L321.69,157.22L323.2,157.25L321.38,150.72L320.31,149.19L316.27,148.81L315.85,146.13L317.24,144.37L314.36,142.16L312.75,142.38L312.98,140.11L311.53,138.65L312.54,135.62L310.83,133.69L309.11,133.43L394.63,133.66L394.63,140.28L407.93,140.36L407.88,147.01L414.42,147.01L414.4,155.88L473.02,155.54L472.96,199.25L446.67,199.31L446.7,212.38L420.63,212.38L420.64,228.36L420.17,229.1L416.59,228.51L415.73,227.42L412.9,227.94L409.85,226.48z"/>
		<path id="C30101" title="Toole" class="land" d="M393.01,0.39L398.09,0.38L412.35,0.44L412.65,0.38L427.61,0.51L427.61,0.52L437.03,0.58L437.04,0.58L463.61,0.69L487.06,0.64L487.13,13.49L486.76,13.52L486.65,120.18L472.98,120.17L446.73,120.18L446.8,100.32L433.52,100.27L433.54,93.66L413.68,93.47L413.66,86.69L410.11,84.58L403.13,86.37L402.61,84.94L397.26,81.66L394.95,82.28L393.95,80.71L393.94,67.07L393.48,67.08L393.46,13.51L393.03,10.15z"/>
		<path id="C30103" title="Treasure" class="land" d="M928.5,470.52L916.99,470.52L917.02,464.14L904.32,464.21L904.33,457.86L878.99,457.86L879,445.2L870.17,445.22L869.56,442.84L871.28,441.11L871.53,438.69L873.57,436.83L872.94,433.43L875.15,430.84L873.96,429.46L874.77,425.54L872.68,425.52L872.67,423.38L870.54,423.41L870.53,419.12L868.4,419.14L868.43,414.82L866.28,414.82L866.28,412.71L864.14,412.7L864.17,408.49L862.05,408.49L862.04,406.36L859.85,406.36L859.88,399.98L857.83,400.11L857.75,397.84L855.63,397.84L855.59,393.6L853.48,393.61L853.47,391.47L851.34,391.47L851.33,387.2L849.2,387.19L849.19,382.92L847.06,382.9L847.03,380.79L904.5,380.7L904.52,382.82L906.65,382.85L906.68,393.5L919.41,393.52L919.4,406.57L921.56,406.43L921.54,431.92L928.52,431.53z"/>
		<path id="C30105" title="Valley" class="land" d="M903.97,0.23L960.45,0.27L961.28,0.28L971.4,0.28L973.19,0.25L973.19,0.3L975.33,0.31L986.03,0.27L986.69,0.29L996.26,0.32L999.12,0.33L999.43,0.31L1000.36,0.3L1012.78,0.33L1012.79,14.02L1008.75,14.05L1008.72,27.44L1022.03,27.43L1022.04,67.57L1044.14,67.56L1044.15,120.22L1040.16,120.24L1040.13,152L1036.72,150.31L1034.95,147.77L1034.76,151.39L1032.56,152.98L1030.81,151.54L1026.8,151.16L1023.58,148.45L1021.65,149.61L1022.74,152.58L1019.71,152.28L1017.46,148.58L1015.47,148.3L1014.47,151.96L1011.74,152.92L1009.46,152.49L1011.41,148.92L1000.84,149.56L996.12,146.49L993.54,147.28L991.45,145.15L989.7,146.57L987.07,146.46L986.13,144.1L983.38,144.16L981.63,147.05L980.4,150.79L981.99,157.7L981.55,160.03L979.99,159.46L980.56,157.88L978.78,156.15L976.53,159.06L973.17,159.74L972.44,161.72L974.43,164.22L973.24,166.63L970.15,167.96L972.34,170.13L972.35,171.87L970.14,171.63L968.87,173.08L970.43,174.43L969.88,176.6L966.97,177.23L966.54,181.64L961.96,183.23L962.78,186.1L962.07,187.28L959.21,184.94L957.59,185.53L956,188.55L955.07,187.43L951.67,188.14L951.73,190.59L949.73,193.61L947.69,194.48L942.39,192.72L938.19,192.86L935.82,193.67L934.82,196.41L935.52,199.13L935.07,201.27L933.37,202.52L930.89,203.23L924.38,202.69L921.19,204.55L915.12,204.67L910.79,203.68L906.21,203.84L904.4,204.75L897.05,204.82L893.1,201.91L888.46,201.92L884.94,200.13L880.02,200.25L880.07,173.2L881.07,173.18L881.07,120.35L884.6,120.35L884.66,107.1L895.74,107.16L895.75,93.53L891.62,93.51L891.55,80.19L896,80.2L895.99,75L902.57,75.85L902.65,66.84L901.26,66.84L901.29,13.74L903.95,13.75z"/>
		<path id="C30107" title="Wheatland" class="land" d="M587.84,419.23L587.85,379.59L588.71,379.59L588.7,346.95L595.03,347.26L597.01,344.7L600.51,346.1L604.24,345.11L604.8,342.72L607.77,341.59L611.24,341.17L613.65,343.13L619.65,340.72L625.09,344.02L625.91,343.9L630.14,347.02L632.34,346.92L634.85,349.46L642.45,349.45L678.82,349.46L678.93,379.48L677.46,379.49L677.41,419.35L651.79,419.4z"/>
		<path id="C30109" title="Wibaux" class="land" d="M1223.42,357.19L1223.42,357.19L1191.97,357.19L1191.92,352.89L1185.46,352.9L1185.46,350.76L1166.17,350.76L1166.19,328.96L1166.5,324.66L1177.43,324.65L1178.51,322.5L1180.64,322.5L1181.72,320.37L1183.87,320.37L1183.88,318.21L1186.02,318.23L1187.13,313.93L1190.4,311.79L1192.46,305.33L1194.65,303.1L1194.67,297.7L1196.89,297.66L1196.88,283.55L1195.82,283.55L1195.83,277.03L1194.28,274.86L1194.28,271.63L1193.2,271.62L1193.22,267.29L1189.8,265.15L1188.57,260.81L1185.26,258.6L1184.19,256.42L1182.02,256.39L1185.2,250.96L1188.78,251.1L1214.63,251.03L1214.67,244.49L1223.44,244.53L1223.46,247.9L1223.41,252.63L1223.41,254.36L1223.42,254.63L1223.43,262.59L1223.43,263.05L1223.44,263.43L1223.44,264.11L1223.44,264.24L1223.43,264.56L1223.39,271.77L1223.47,284.96L1223.44,290.12L1223.44,291.86L1223.41,292.25L1223.42,294.44L1223.42,295.39L1223.43,295.97L1223.44,297.87L1223.44,298.36L1223.39,312.71L1223.39,313.79L1223.39,313.8L1223.35,329.13L1223.41,344.76L1223.4,345.24L1223.41,345.36L1223.39,346.47L1223.4,347.23z"/>
		<path id="C30111" title="Yellowstone" class="land" d="M870.17,445.22L853.58,445.16L853.57,453.64L840.97,453.64L840.96,457.88L836.7,457.86L836.69,462.04L832.46,462.06L832.46,466.31L815.55,466.26L815.56,483.16L813.35,483.13L813.28,521.69L800.71,521.66L800.7,525.87L788.16,525.86L788.14,530.05L754.66,529.53L749.24,529.52L749.13,521.08L742.9,521.01L742.9,516.82L738.69,516.78L738.62,511.7L740.61,507.97L740.68,504.21L739.01,504.76L734.51,508.23L734.46,504.1L730.25,502.02L730.23,497.78L728.13,497.85L728.2,483.05L728.54,457.46L726.41,457.47L726.06,444.31L726.21,432.19L740.88,432.16L779.12,432.12L779.15,416.94L783.42,416.94L783.43,414.91L787.68,414.96L787.7,412.84L817.38,412.88L817.42,406.42L819.25,406.41L819.21,402.17L821.32,402.14L821.34,400L823.47,400L823.48,397.86L825.54,397.86L825.57,395.71L827.68,395.67L827.67,393.53L842.59,393.53L842.68,378.68L847.03,380.79L847.06,382.9L849.19,382.92L849.2,387.19L851.33,387.2L851.34,391.47L853.47,391.47L853.48,393.61L855.59,393.6L855.63,397.84L857.75,397.84L857.83,400.11L859.88,399.98L859.85,406.36L862.04,406.36L862.05,408.49L864.17,408.49L864.14,412.7L866.28,412.71L866.28,414.82L868.43,414.82L868.4,419.14L870.53,419.12L870.54,423.41L872.67,423.38L872.68,425.52L874.77,425.54L873.96,429.46L875.15,430.84L872.94,433.43L873.57,436.83L871.53,438.69L871.28,441.11L869.56,442.84z"/>
	</g>
</svg>