<?xml version="1.0" encoding="utf-8"?>
<!-- (c) ammap.com | SVG map of ND Counties -->
<svg xmlns="http://www.w3.org/2000/svg" xmlns:amcharts="http://amcharts.com/ammap" xmlns:xlink="http://www.w3.org/1999/xlink" version="1.1">
	<defs>
		<style type="text/css">
			.land
			{
				fill: #CCCCCC;
				fill-opacity: 1;
				stroke:white;
				stroke-opacity: 1;
				stroke-width:0.5;
			}
		</style>

		<amcharts:ammap projection="mercator" leftLongitude="-104.049187" topLatitude="49.000687" rightLongitude="-96.554124" bottomLatitude="45.934889"></amcharts:ammap>

		<!-- All areas are listed in the line below. You can use this list in your script. -->
		<!--{id:"C38001"},{id:"C38003"},{id:"C38005"},{id:"C38007"},{id:"C38009"},{id:"C38011"},{id:"C38013"},{id:"C38015"},{id:"C38017"},{id:"C38019"},{id:"C38021"},{id:"C38023"},{id:"C38025"},{id:"C38027"},{id:"C38029"},{id:"C38031"},{id:"C38033"},{id:"C38035"},{id:"C38037"},{id:"C38039"},{id:"C38041"},{id:"C38043"},{id:"C38045"},{id:"C38047"},{id:"C38049"},{id:"C38051"},{id:"C38053"},{id:"C38055"},{id:"C38057"},{id:"C38059"},{id:"C38061"},{id:"C38063"},{id:"C38065"},{id:"C38067"},{id:"C38069"},{id:"C38071"},{id:"C38073"},{id:"C38075"},{id:"C38077"},{id:"C38079"},{id:"C38081"},{id:"C38083"},{id:"C38085"},{id:"C38087"},{id:"C38089"},{id:"C38091"},{id:"C38093"},{id:"C38095"},{id:"C38097"},{id:"C38099"},{id:"C38101"},{id:"C38103"},{id:"C38105"}-->

	</defs>
	<g>
		<path id="C38001" title="Adams" class="land" d="M180.77,736.33L172.96,736.3L172.07,736.31L172.02,736.31L172.06,733.08L172.14,732.93L172.04,732.72L172.05,657.52L183.63,657.33L253.39,656.93L253.38,675.08L334.98,675.22L334.86,710.93L334.86,736.46L334.84,736.46L334.56,736.45L334.52,736.46L334.52,736.46L324.68,736.44L320.73,736.44L320.33,736.45L314.28,736.4L314.15,736.43L312.54,736.45L310.89,736.43L309.09,736.43L308.83,736.44L308.59,736.44L305.77,736.44L305.72,736.44L299.05,736.42L281.02,736.4L276.92,736.36L276.77,736.38L270.49,736.36L270.48,736.36L269.9,736.37L269.53,736.38L268.29,736.35L267.61,736.33L266.01,736.33L265.16,736.35L265.15,736.34L261.72,736.33L259.57,736.33L258.27,736.31L256.89,736.31L244.65,736.35L243.4,736.32L229.69,736.26L228.21,736.25L225.75,736.28L224.8,736.29L224.54,736.29L219.51,736.33L190.87,736.34L184.3,736.34z"/>
		<path id="C38003" title="Barnes" class="land" d="M1039.85,574.99L982.39,574.8L916.21,574.71L915.97,569.31L916.2,569.15L916.14,491.81L911.56,491.82L911.57,429.42L994.25,429.4L1035.93,429.53L1035.93,492.07L1039.94,492.09z"/>
		<path id="C38005" title="Benson" class="land" d="M744.09,155.34L791.88,155.41L791.95,208.08L800.2,212.2L801.84,210.92L806.74,219.71L813.09,219.66L813.11,240.59L814.76,240.58L818.58,234.39L824.43,232.96L823.9,235.73L826.46,242.77L826.03,248.3L833.61,245.25L836.22,246.67L837.66,241.55L841.31,239.34L842.74,243.62L843.64,239.97L851.48,234L853.16,230.74L856.63,231.35L859.65,238.66L860.01,245.54L865.33,250.2L860.75,252.39L858.19,257.78L863.3,252.82L867.88,250.56L869.74,246.52L874.44,245.01L878.15,245.84L879.56,254.62L885.73,261.3L885.78,266.26L902.08,266.59L902.09,283.29L899.06,283.31L898.95,283.01L776.06,283.16L775.21,283.18L769.02,283.16L768.98,283.17L691.95,283.05L691.96,240.71L686.07,240.69L686.33,155.25z"/>
		<path id="C38007" title="Billings" class="land" d="M133.49,574.99L71.81,575.02L71.76,491.75L62.38,491.77L62.42,408.08L155.11,408.23L165.99,408.24L165.97,491.58L133.58,491.65L133.55,511.28L133.46,512.58z"/>
		<path id="C38009" title="Bottineau" class="land" d="M416.82,0.26L423.36,0.34L461.06,0.29L461.17,0.28L461.9,0.31L462.65,0.3L477.47,0.4L510.92,0.28L511.35,0.28L512.06,0.25L513.12,0.27L590.4,0.32L590.34,0.28L590.78,0.27L590.77,0.32L631.43,0.36L631.38,69.75L637.51,69.76L637.45,112.55L616.09,112.64L594.9,112.68L594.84,91.21L488.21,91.08L488.21,112.52L424.25,112.33L424.23,69.47L416.83,69.46z"/>
		<path id="C38011" title="Bowman" class="land" d="M172.02,736.31L167.05,736.28L163.51,736.27L158.49,736.28L155.32,736.29L148.29,736.29L144.97,736.28L136.91,736.3L135.64,736.3L124.91,736.32L124.91,736.32L111.02,736.32L109.99,736.4L104.13,736.29L103.03,736.31L100.69,736.28L100.29,736.28L80.06,736.32L77.06,736.29L63.39,736.3L63.39,736.29L62.13,736.29L0.56,736.28L0.34,723.42L0.51,694.39L0.6,694.14L0.57,657.64L103.39,657.69L166.56,657.62L166.76,657.64L172.05,657.52L172.04,732.72L172.14,732.93L172.06,733.08z"/>
		<path id="C38013" title="Burke" class="land" d="M181.31,0.31L195.73,0.31L299.19,0.53L300.12,0.53L309.83,0.47L313.14,0.46L331.18,0.42L331.09,47.96L309.78,47.94L309.72,69.41L296.48,69.41L296.43,112.27L189.97,112.26L189.96,90.86L189.98,69.36L181.12,69.36z"/>
		<path id="C38015" title="Burleigh" class="land" d="M553.17,573.92L553.56,570.2L556.45,566.5L556.74,563.78L550.91,564.6L546.64,567.75L542.38,568.88L539.52,566.49L540.67,563.96L539.06,560.14L534.18,561.58L532.61,560.59L530.95,554.67L534.13,553.61L533.97,549.68L527.74,549.49L524.94,546.7L524.18,543.22L527.5,536.41L526.29,530.28L521.85,526.02L512.99,509.76L513.62,503.35L512.78,498.66L508.84,495.44L508.41,491.05L517.2,483.34L516.86,475.66L510.13,468.58L508.16,464.58L506.98,453.61L503.64,449.5L538.89,449.36L538.94,409.44L538.89,408.48L551.29,408.47L551.91,408.54L636.01,408.61L636.52,408.58L642.78,408.58L642.55,491.33L648.99,491.42L648.01,574.17z"/>
		<path id="C38017" title="Cass" class="land" d="M1035.93,429.53L1077.5,429.75L1178.42,430L1178.52,430.1L1178.57,430.44L1178.46,430.71L1178.02,430.96L1177.77,431.49L1177.8,432.1L1178.08,432.59L1178.08,432.75L1177.57,433.12L1177.49,433.39L1177.65,433.83L1178.04,434.08L1178.08,434.49L1177.94,435.25L1178.43,436.05L1178.46,436.37L1178.41,436.62L1178.11,437.1L1178.16,437.33L1178.44,437.56L1178.66,437.95L1178.55,438.18L1177.75,438.84L1177.6,439.21L1177.57,439.62L1177.66,439.99L1177.9,440.31L1178.5,440.65L1178.8,441.08L1178.82,441.31L1178.6,441.91L1178.61,442.11L1178.77,442.57L1178.94,442.8L1179.28,442.96L1179.5,443.23L1179.55,443.53L1179.5,443.88L1179.1,444.56L1179.03,444.79L1179.07,445.11L1179.8,445.75L1179.94,446.09L1179.91,447.01L1180.3,447.49L1180.25,448.04L1179.94,448.43L1179.85,448.75L1179.88,448.93L1180.2,449.25L1180.25,449.43L1180.2,449.6L1179.33,450.14L1178.8,450.88L1178.81,450.96L1178.83,451.22L1178.99,451.45L1178.99,451.86L1178.61,452.59L1178.75,453L1179.24,453.53L1179.39,454.3L1179.39,454.74L1179.21,455.52L1179.39,456L1179.91,456.55L1179.85,457.08L1179.75,457.47L1179.54,457.59L1179.38,457.92L1179.44,458.24L1180.45,459.29L1180.54,459.77L1180.28,460.26L1180.2,460.75L1180.38,461.03L1180.83,461.34L1180.97,461.62L1180.94,462.05L1180.64,462.85L1180.66,463.22L1180.88,463.56L1180.91,464.66L1180.63,465.11L1180.55,465.5L1180.8,466.03L1180.53,466.97L1180.6,467.33L1180.79,467.56L1180.72,468.27L1180.38,468.72L1180.5,469.32L1180.44,469.48L1180.03,469.82L1179.97,470.07L1180.07,471.21L1180.34,471.58L1180.42,471.92L1180.28,472.12L1179.97,472.26L1179.91,472.69L1180.22,473.61L1180.75,474.32L1180.83,475.71L1180.5,477.05L1180.55,477.51L1180.84,477.97L1180.88,478.47L1180.83,478.79L1180.41,479.11L1180.38,479.43L1180.44,479.79L1180.88,480.32L1180.97,480.61L1180.73,481L1179.6,481.41L1179.09,481.81L1178.51,483.12L1178.63,483.32L1178.43,484.54L1178.27,484.83L1178.25,485.11L1178.32,485.36L1178.71,485.91L1179.42,486.57L1179.63,486.5L1180.12,486.96L1180.12,487.42L1179.91,487.86L1179.89,488.55L1180.22,489.3L1180.66,492.35L1180.31,493.85L1180.34,494.26L1180.71,494.72L1182.3,495.57L1183.46,495.08L1183.69,495.08L1184.02,495.51L1184.11,495.92L1183.92,496.68L1183.97,497.85L1184.11,498.17L1184.01,499.51L1184.28,499.74L1185.07,499.83L1185.28,500.2L1185.53,501.82L1185.28,502.63L1185.27,503.36L1185.37,503.68L1185.48,503.79L1186.05,503.91L1186.33,504.66L1186.66,504.73L1187.13,504.06L1187.96,503.44L1189.91,502.44L1190.15,502.54L1190.39,502.84L1190.39,503.16L1190.11,503.82L1190.11,504.04L1190.16,504.29L1190.52,504.66L1190.28,505.11L1190.22,505.5L1190.3,505.82L1190.55,506.14L1190.56,506.46L1189.97,506.78L1189.79,507.82L1189.86,508.54L1189.51,509.59L1189.22,509.57L1188.73,509.19L1188.22,509.95L1187.73,511.83L1188.22,514.43L1188.5,514.6L1188.84,514.43L1189.12,514.43L1189.24,514.69L1189.06,515.67L1188.84,516.15L1188.6,516.17L1187.9,515.76L1187.11,515.53L1186.95,515.72L1187.11,516.26L1187.29,516.53L1187.29,517.3L1187.05,518.62L1186.7,519.24L1186.7,519.71L1186.95,520.21L1187,520.53L1186.98,520.85L1186.86,521.17L1186.84,521.9L1187.03,522.17L1187.33,522.3L1187.51,522.53L1187.51,522.81L1187.22,523.35L1187.14,523.81L1187.28,524.21L1187.28,524.58L1187.11,524.81L1186.62,524.9L1186.54,525.03L1186.51,525.35L1186.64,525.69L1186.59,526.06L1186.3,526.51L1185.64,526.72L1185.59,526.92L1185.98,527.69L1185.92,527.99L1185.64,528.08L1185.28,527.98L1184.24,529.29L1183.88,529.93L1184.01,530.93L1183.85,531.39L1183.58,531.64L1183.49,531.87L1183.67,532.13L1184.48,532.53L1184.6,532.75L1184.4,536.61L1184.53,537.01L1185.03,537.53L1185.3,538.01L1185.36,538.48L1185.11,539.21L1185.14,539.62L1185.2,539.76L1185.73,539.94L1185.84,540.26L1185.69,540.94L1185.77,541.44L1186.36,542.03L1186.47,542.32L1186.47,542.46L1186.25,542.66L1186.26,543.07L1186.58,543.5L1186.42,543.8L1186.17,543.89L1185.95,544.48L1185.95,544.89L1186.58,545.75L1186.61,546.41L1186.43,546.81L1186.31,547.38L1186.42,548.13L1186.97,548.64L1186.91,549.53L1186.47,550.53L1186.92,551.22L1187.19,551.45L1187.29,551.85L1187.19,552.93L1186.4,553.5L1186.16,555.32L1185.34,557.48L1185.39,557.66L1185.9,558.26L1186.08,559.35L1186.05,560.08L1185.9,560.46L1186.04,561.16L1186.34,561.3L1186.49,561.51L1186.46,561.92L1185.84,562.67L1185.9,563.16L1185.71,563.5L1185.06,563.72L1184.99,563.86L1184.93,564.31L1185.12,564.97L1184.9,565.67L1184.17,566.6L1184.1,568.32L1184.43,569.43L1185.43,570.44L1185.64,572.21L1185.61,572.82L1185.45,573.34L1185.36,574.23L1184.21,574.9L1183.77,574.93L1105.52,575.13L1039.85,574.99L1039.94,492.09L1035.93,492.07z"/>
		<path id="C38019" title="Cavalier" class="land" d="M999.82,113.06L935.97,112.9L829.43,112.79L829.44,69.95L824.62,69.94L824.63,0.17L845.99,0.12L996.05,0.04L996.15,70.05L999.77,70.06L999.81,70.33z"/>
		<path id="C38021" title="Dickey" class="land" d="M869.61,737.83L840.21,737.63L840.04,737.63L823.68,737.54L823.66,737.54L824.09,657L874.64,657.02L874.77,657.06L982.27,657.02L983.05,657.06L986.82,657.06L986.6,738.44L986.58,738.44L976.4,738.42L957.76,738.42L957.6,738.42L920.22,738.34L885.78,737.94z"/>
		<path id="C38023" title="Divide" class="land" d="M181.31,0.31L181.12,69.36L189.98,69.36L189.96,90.86L85.2,90.74L4.61,90.74L4.46,90.69L3.8,90.74L0.22,90.69L0.22,90.69L0.18,87.08L0.17,86.77L0.17,84.91L0.17,84.56L0.17,83.5L0.17,83.25L0.09,62.78L0.06,61.74L0.11,58.21L0.06,52.55L0.05,50.44L0,37.99L0.04,33.45L0.01,33.01L0,31.41L0,30.98L0.03,29.94L0.04,24.32L0.03,23.27L0.03,21.97L0.02,16.63L0.03,14.97L0.02,14.24L0,12.67L0.03,12.12L0.04,10.81L0.02,10.34L0.06,9.16L0.05,8.42L0.07,3.4L0.03,0.2L9.22,0.28L9.8,0.27L10.63,0.27L10.87,0.27L11.11,0.27L11.83,0.27L12.97,0.29L13.11,0.29L20.52,0.28L20.73,0.28L21.23,0.28L21.47,0.27L28.09,0.28L29.98,0.27L30.4,0.26L31.12,0.27L31.49,0.28L32.11,0.28L109.99,0.43L113.25,0.27z"/>
		<path id="C38025" title="Dunn" class="land" d="M229.73,288.76L232.64,292.95L242.85,299.33L253.12,299.35L257.39,303.01L266.79,306.14L271.63,304.68L278.68,294.34L291.83,298.87L291.96,303.69L287.08,305.58L288.57,310.11L291.65,312.17L291.28,337.02L301.09,349.05L301.05,408.39L311.04,408.38L310.99,484.49L310.48,484.52L248.81,484.5L248.81,491.41L165.97,491.58L165.99,408.24L155.11,408.23L155,324.91L229.65,325.04z"/>
		<path id="C38027" title="Eddy" class="land" d="M906.24,345.98L904.17,346.01L903.67,345.97L903.42,346.01L781.18,345.89L781.2,325.26L776.04,325.25L776.06,283.16L898.95,283.01L899.06,283.31L902.09,283.29L902.15,325.38L906.23,325.4z"/>
		<path id="C38029" title="Emmons" class="land" d="M680.86,737.13L680.83,737.13L666.86,737.1L660.38,737.07L650,737.01L647.53,736.98L643.56,736.96L643.25,736.97L638.13,736.94L636.44,736.94L633.38,736.93L616.4,736.83L616.26,736.84L614.87,736.83L614.67,736.79L613.24,736.76L594.25,736.71L592.65,736.7L591.95,736.69L590.95,736.67L585.68,736.69L579.72,736.67L577.69,736.67L577.66,736.67L578.47,731.31L574.21,723.35L569.78,721.5L563.28,711.77L560.91,706.63L560.65,696.33L558.49,689.88L560.78,683.64L567.32,674.3L569.95,668.12L570.05,664.75L566.58,659.5L566.48,657.35L569.96,651.09L571.58,646.07L571.25,638L564.88,622.8L563.59,617.27L565.47,607.48L566.75,604.44L572.13,599.8L572.34,597.77L565.61,587L569.65,584.96L553.17,573.92L648.01,574.17L675.07,574.28L674.87,656.94L681.13,657.02z"/>
		<path id="C38031" title="Foster" class="land" d="M906.38,408.76L781.11,408.6L781.18,345.89L903.42,346.01L903.67,345.97L904.17,346.01L906.24,345.98L906.25,359.63L906.21,359.91L906.25,360.08z"/>
		<path id="C38033" title="Golden Valley" class="land" d="M0.62,596.07L0.59,572.26L0.59,572.26L0.56,556.29L0.54,555.07L0.58,553.3L0.57,553.1L0.57,552.33L0.49,527.28L0.55,502.72L0.55,502.69L0.54,500.97L0.62,477.97L0.63,477.19L0.6,474.14L0.6,473.21L0.59,471.69L0.58,468.18L0.63,467.55L0.62,464.77L0.67,456.49L0.55,435.36L0.61,423.8L0.62,423.3L0.63,423.08L0.62,421.99L0.61,421.39L0.62,420.66L0.59,407.89L62.42,408.08L62.38,491.77L71.76,491.75L71.81,575.02L40.52,575.09L40.51,596.12z"/>
		<path id="C38035" title="Grand Forks" class="land" d="M1127.52,203.51L1127.45,203.71L1127.29,204.13L1127.27,204.85L1127.68,206.33L1128.06,206.89L1128.43,207.15L1128.55,207.48L1128.55,208.08L1128.46,208.62L1128.33,209.16L1128,209.85L1128.03,210.6L1128.15,210.94L1129.31,211.37L1129.69,211.93L1129.6,212.39L1129.65,212.84L1130.1,213.49L1130.29,214.95L1130.52,215.65L1131.38,217.45L1131.53,217.92L1131.55,218.32L1131.47,218.58L1131.13,219.26L1131.04,219.62L1131.12,219.95L1131.68,220.26L1132.75,220.07L1133.04,220.13L1133.35,220.42L1133.53,221.62L1134.11,222.1L1134.26,222.51L1134.28,222.91L1134.01,223.34L1133.99,223.68L1134.06,223.91L1134.56,224.23L1134.94,225.02L1135,225.94L1134.78,227.07L1134.23,227.77L1134.14,228.13L1134.18,228.3L1134.41,228.48L1135.27,228.62L1137.03,231.76L1137.7,232.35L1138.89,233.1L1139.15,233.47L1139.44,234.23L1139.74,235.77L1140.02,239.19L1139.97,239.54L1139.5,240.73L1139.44,241.28L1139.7,241.82L1139.93,242L1140.64,242.12L1140.9,242.29L1140.95,242.73L1140.56,243.17L1140.34,243.61L1140.74,246.3L1141.07,246.92L1142.27,247.66L1142.5,247.97L1142.57,248.31L1142.5,248.87L1142.02,250.66L1141.58,251.92L1141.55,252.26L1141.91,253.12L1141.79,253.48L1141.19,254.23L1141.14,254.57L1141.2,254.79L1141.6,255.16L1142.41,255.74L1142.67,256.35L1142.66,256.93L1142.23,257.91L1142.17,258.32L1142.33,259L1142.9,259.7L1143.9,260.26L1144.85,260.41L1145.35,260.68L1145.43,261.36L1145.14,262.16L1145.4,262.91L1146.4,263.54L1148.34,265.44L1148.29,265.85L1147.36,266.39L1148.42,267.07L1148.73,267.75L1148.78,268.5L1148.42,268.87L1147.92,268.7L1147.39,268.19L1147.17,268.26L1147.3,268.96L1147.93,269.72L1147.95,270.13L1147.33,270.71L1147.17,271.46L1148.15,272.41L1148.11,272.73L1147.17,273.43L1147.1,274.06L1147.43,274.6L1148.08,275.03L1148.31,275.47L1148.15,275.86L1147.46,276.32L1147.46,276.56L1147.77,276.9L1148.41,277.15L1150.37,277.49L1150.84,277.85L1150.99,278.17L1150.69,278.53L1150.28,278.68L1150.33,278.99L1150.95,279.65L1151.18,279.73L1151.54,280.23L1151.76,281.31L1151.83,283.74L1151.59,284.04L1151.52,284.39L1152.39,285.32L1153.42,285.38L1154.23,287.13L1154.14,288.04L1154.23,288.26L1154.62,288.56L1154.62,289.22L1154.49,289.31L1154.39,289.56L1154.44,290.71L1154.84,291.69L1154.69,292.11L1154.35,292.49L1154.32,292.86L1154.41,293.15L1155.13,294.13L1155.15,294.61L1155.3,294.91L1155.56,295.02L1155.86,294.93L1156.78,295.16L1157.2,295.82L1158.12,296.44L1158.23,296.7L1158.22,296.9L1157.52,297.25L1157.2,297.59L1156.9,298.16L1156.91,298.51L1157.06,298.63L1157.46,298.56L1158.35,299.4L1158.32,300.28L1159.47,300.51L1161.17,302.17L1161.54,303.1L1161.3,303.62L1161.39,304.15L1161.77,304.62L1162.24,304.98L1162.24,305.34L1161.99,305.53L1161.95,305.91L1161.99,306.04L1162.83,306.54L1162.92,307.1L1162.92,307.86L1162.79,308.32L1162.18,309.06L1162.13,309.35L1162.21,309.74L1162.58,310.41L1163.48,311.69L1164.45,312.74L1164.54,312.95L1164.39,313.28L1163.74,313.93L1163.73,314.32L1164.24,314.73L1164.34,315.26L1164.25,315.73L1164.29,316.21L1165.04,316.8L1165.15,317.03L1165.22,317.56L1165.08,317.87L1165.08,318.15L1165.33,318.37L1165.48,318.3L1165.69,318.6L1165.98,319.38L1166.33,319.91L1166.39,320.18L1165.92,320.85L1165.96,321.26L1166.12,321.45L1166.39,321.51L1166.71,321.33L1167.09,320.76L1167.29,320.75L1167.53,320.96L1167.68,321.27L1168.11,324.83L1168.35,325.12L1168.89,325.22L1169.04,325.46L1074.03,325.49L1007.13,325.45L1007.16,240.87L1003.66,240.85L1003.69,198.42L1128.17,198.73L1128.13,199L1127.36,200.58L1127.39,200.93L1127.62,201.27L1127.9,201.4L1128.08,201.63L1128.14,202.27L1128.11,202.6L1127.99,202.88z"/>
		<path id="C38037" title="Grant" class="land" d="M318.91,554.16L380.66,554.09L380.67,574.74L449.11,574.9L449.12,636.12L490.03,636.14L490.02,656.58L493.76,656.69L488.4,660L482.37,659.3L483.04,662.85L478.99,666.02L481.44,670.11L474.52,675.73L470.53,676.04L470.03,678.44L465.6,680.33L466.96,688.58L463.33,686.81L460.58,691.13L457.62,690.1L448.68,692.2L448.97,698.88L438.77,706.96L434.86,704.84L423.1,711.75L417.91,711.66L418.63,716.86L413.45,717.52L407.44,721.87L404.08,717.49L401.28,721.23L398.92,719.29L396.25,714.79L393.74,714.77L392.74,719.69L390,720.69L380.42,717.97L374.55,713.5L372.78,716.24L370.67,714.33L366.93,716.92L363.18,714.78L360.42,716.64L358.04,712.62L360.27,711.75L359.23,706.29L355.11,708.61L351.8,707.23L351.92,710.15L344.9,707.91L340.32,711.78L334.86,710.93L334.98,675.22L334.95,656.82L326.99,656.8L326.26,574.76L318.86,574.73z"/>
		<path id="C38039" title="Griggs" class="land" d="M911.57,429.42L911.6,408.76L906.38,408.76L906.25,360.08L906.21,359.91L906.25,359.63L906.24,345.98L906.23,325.4L990.4,325.43L990.11,408.86L993.46,408.69L994.34,408.87L994.25,429.4z"/>
		<path id="C38041" title="Hettinger" class="land" d="M183.07,574.96L318.86,574.73L326.26,574.76L326.99,656.8L334.95,656.82L334.98,675.22L253.38,675.08L253.39,656.93L183.63,657.33z"/>
		<path id="C38043" title="Kidder" class="land" d="M751.15,574.59L697.19,574.39L696.94,574.45L696.73,574.38L675.07,574.28L648.01,574.17L648.99,491.42L642.55,491.33L642.78,408.58L655.84,408.6L746.08,408.63L746.03,491.56L751.69,491.51z"/>
		<path id="C38045" title="LaMoure" class="land" d="M818.61,574.84L916.21,574.71L982.39,574.8L982.27,657.02L874.77,657.06L874.64,657.02L824.09,657L818.49,656.94z"/>
		<path id="C38047" title="Logan" class="land" d="M675.07,574.28L696.73,574.38L696.94,574.45L697.19,574.39L751.15,574.59L755.74,574.61L755.93,574.68L757.07,574.62L818.61,574.84L818.49,656.94L681.13,657.02L674.87,656.94z"/>
		<path id="C38049" title="McHenry" class="land" d="M488.19,133.87L488.21,112.52L488.21,91.08L594.84,91.21L594.9,112.68L616.09,112.64L616.13,155.24L622.51,155.26L622.55,240.61L629.01,240.61L628.94,282.96L565.71,282.99L556.87,282.93L556.45,282.87L556.29,282.91L502.64,282.7L502.77,240.42L495.5,240.4L495.64,155.22L488.17,155.21z"/>
		<path id="C38051" title="McIntosh" class="land" d="M823.66,737.54L809.43,737.48L807.88,737.49L789.88,737.5L789.7,737.5L788.39,737.51L788.3,737.51L782.5,737.51L779.48,737.48L778.22,737.48L776.05,737.48L772.68,737.46L768.29,737.45L768.26,737.45L762.78,737.43L761.63,737.43L759.06,737.44L744.53,737.44L744.06,737.43L728.44,737.26L724.78,737.27L714.85,737.27L711.42,737.3L707.32,737.31L707.32,737.31L702.45,737.3L702.22,737.3L702.19,737.3L702.04,737.3L687.62,737.22L680.86,737.13L681.13,657.02L818.49,656.94L824.09,657z"/>
		<path id="C38053" title="McKenzie" class="land" d="M229.73,288.76L229.65,325.04L155,324.91L155.11,408.23L62.42,408.08L0.59,407.89L0.59,407.45L0.58,404.69L0.66,397.11L0.63,391.71L0.67,381.85L0.7,376.81L0.78,361.33L0.81,342.12L0.76,339.93L0.84,336.85L0.92,307.32L0.93,307.28L1.06,293.72L1.06,293.21L1.03,292.51L1.15,284.4L1.18,279.4L1.09,272.42L0.91,258.2L0.88,257L0.81,252.86L0.77,247.68L0.78,246.88L4.66,248.8L6.84,253.88L13.31,249.46L17.35,251.84L21.09,256.65L26.27,255.17L29.32,252.55L31.51,247.12L31.46,242.27L36.4,246.84L35.94,250.77L40.52,247.33L42.02,242.69L41.02,237.28L43.2,231.45L49.22,236.01L55.18,231.8L55.44,229.99L50.4,225.62L50.09,223.18L54.19,219.36L61.04,216.11L67.96,218.81L73.8,213.18L75.65,215.59L71.98,218.13L73.78,221.33L78.51,224.52L81.94,225.03L76.19,231.85L75.93,235.41L78.32,237.24L85.49,237.82L89.46,244.49L92.09,244.3L96.27,239.92L101.35,237.19L109.28,239.82L118.59,236.21L124.21,236.17L126.02,231.81L133.26,230.51L134.4,227.64L130.07,223.29L138.34,212.99L145.65,212.75L153.82,210.23L156.27,211.05L156.8,215.56L160.03,213.67L166.82,212.92L169.85,213.78L175.74,212.3L181.36,213.65L186.52,216.26L193.38,212.57L199.32,215.8L204.82,216.91L210.13,214.27L214.17,217.53L213.51,221.39L210.78,223.05L219.71,224.52L226.27,227.27L225.52,233.55L230.14,236.9L235.27,234.65L236.73,236.87L237.64,243.11L244.48,246.63L242.21,253.47L238.02,258.65L234.93,260.74L229.33,268.61L227.46,279.76z"/>
		<path id="C38055" title="McLean" class="land" d="M355.56,282.97L497.44,282.82L497.88,282.76L502.64,282.7L556.29,282.91L556.45,282.87L556.87,282.93L565.71,282.99L565.68,283.63L565.71,325.04L551.45,325.03L551.29,408.47L538.89,408.48L538.94,409.44L538.89,449.36L503.64,449.5L500.69,445.42L499.13,438.16L501.84,430.89L501.61,427.13L497.49,421.97L492.3,418.39L488.08,416.74L480.57,416.26L468.21,419.91L464.84,427.84L455.97,423.55L451.6,420.34L441.49,417.07L439.71,409.17L438.74,398.79L436.64,397.59L432.21,390.54L430.61,382.55L425.84,375.81L425.84,373.14L437.43,360.73L433.19,357.91L428.04,352.07L423.78,351.79L416.5,353.43L403.57,358.81L393.15,360.18L386,357.86L382.4,357.79L376.8,359.97L368.98,365.54L363.02,368.37L356.3,366.03L352.27,365.78L347.1,361.4L340.7,357.88L331.63,358.36L329.69,357.33L331.1,352.65L328.65,349.48L322.18,349.22L308.29,351.25L301.09,349.05L291.28,337.02L291.65,312.17L288.57,310.11L287.08,305.58L291.96,303.69L291.83,298.87L278.68,294.34L271.63,304.68L271.66,282.93z"/>
		<path id="C38057" title="Mercer" class="land" d="M455.97,423.55L455.82,429.2L373.11,429.18L373.11,491.41L353.46,491.37L353.11,491.43L319.15,491.41L318.84,491.45L310.97,491.38L310.99,484.49L311.04,408.38L301.05,408.39L301.09,349.05L308.29,351.25L322.18,349.22L328.65,349.48L331.1,352.65L329.69,357.33L331.63,358.36L340.7,357.88L347.1,361.4L352.27,365.78L356.3,366.03L363.02,368.37L368.98,365.54L376.8,359.97L382.4,357.79L386,357.86L393.15,360.18L403.57,358.81L416.5,353.43L423.78,351.79L428.04,352.07L433.19,357.91L437.43,360.73L425.84,373.14L425.84,375.81L430.61,382.55L432.21,390.54L436.64,397.59L438.74,398.79L439.71,409.17L441.49,417.07L451.6,420.34z"/>
		<path id="C38059" title="Morton" class="land" d="M373.11,491.41L403.79,491.49L404.09,491.34L508.41,491.05L508.84,495.44L512.78,498.66L513.62,503.35L512.99,509.76L521.85,526.02L526.29,530.28L527.5,536.41L524.18,543.22L524.94,546.7L527.74,549.49L533.97,549.68L534.13,553.61L530.95,554.67L532.61,560.59L534.18,561.58L539.06,560.14L540.67,563.96L539.52,566.49L542.38,568.88L546.64,567.75L550.91,564.6L556.74,563.78L556.45,566.5L553.56,570.2L553.17,573.92L569.65,584.96L565.61,587L572.34,597.77L572.13,599.8L566.75,604.44L565.47,607.48L563.59,617.27L564.88,622.8L563.07,623.04L560.1,624.59L545.54,631.67L541.07,630.84L531.95,631.53L522.32,630.81L517.83,629.17L512.67,630.14L509.1,635.11L504.64,642.86L498.27,648.72L495.9,650.44L494.86,654.53L493.76,656.69L490.02,656.58L490.03,636.14L449.12,636.12L449.11,574.9L380.67,574.74L380.66,554.09L318.91,554.16L318.84,491.45L319.15,491.41L353.11,491.43L353.46,491.37z"/>
		<path id="C38061" title="Mountrail" class="land" d="M355.56,282.97L271.66,282.93L271.63,304.68L266.79,306.14L257.39,303.01L253.12,299.35L242.85,299.33L232.64,292.95L229.73,288.76L227.46,279.76L229.33,268.61L234.93,260.74L238.02,258.65L242.21,253.47L244.48,246.63L237.64,243.11L236.73,236.87L235.27,234.65L230.14,236.9L225.52,233.55L226.27,227.27L219.71,224.52L210.78,223.05L213.51,221.39L214.17,217.53L210.13,214.27L204.82,216.91L199.32,215.8L199.37,215.47L199.39,154.85L189.97,154.94L189.97,112.26L296.43,112.27L338.99,112.07L338.98,155.05L347.33,155L347.35,240.29L355.61,240.29z"/>
		<path id="C38063" title="Nelson" class="land" d="M940.2,198.35L1003.69,198.42L1003.66,240.85L1007.16,240.87L1007.13,325.45L990.4,325.43L906.23,325.4L902.15,325.38L902.09,283.29L902.08,266.59L902.08,240.79L918.89,240.79L918.98,198.43z"/>
		<path id="C38065" title="Oliver" class="land" d="M508.41,491.05L404.09,491.34L403.79,491.49L373.11,491.41L373.11,429.18L455.82,429.2L455.97,423.55L464.84,427.84L468.21,419.91L480.57,416.26L488.08,416.74L492.3,418.39L497.49,421.97L501.61,427.13L501.84,430.89L499.13,438.16L500.69,445.42L503.64,449.5L506.98,453.61L508.16,464.58L510.13,468.58L516.86,475.66L517.2,483.34z"/>
		<path id="C38067" title="Pembina" class="land" d="M996.05,0.04L1024.54,0.03L1084.08,0.04L1113.83,0L1113.45,0.86L1113.43,1.16L1113.61,1.82L1113.54,2.33L1112.99,2.91L1112.49,3.72L1112.31,4.48L1112.37,6.34L1112.17,7.94L1112.23,8.47L1112.45,8.77L1113.27,9.13L1113.44,9.49L1113.54,9.87L1113.54,10.53L1113.3,12.45L1113.33,12.83L1114.03,13.6L1114.2,14.18L1114.27,15.39L1114.57,16.52L1115.53,17.09L1115.71,17.56L1115.72,18.11L1115.44,18.81L1115.46,19.5L1115.64,20.08L1116.47,20.5L1116.75,20.84L1116.81,21.51L1116.53,22.53L1116.5,22.95L1116.86,23.88L1117.32,24.32L1118.76,25.01L1118.91,25.38L1118.89,26.46L1118.58,27.18L1118.93,28.23L1118.91,28.72L1118.76,29.37L1118.91,29.84L1120.13,31.01L1120.58,31.26L1120.82,31.54L1120.91,31.85L1120.64,32.99L1120.68,33.36L1120.95,33.67L1121.46,33.95L1121.82,34.48L1122,35.65L1122.56,36.58L1122.56,37.38L1122.33,37.91L1122.29,38.22L1122.77,39.17L1122.85,40.24L1122.78,40.5L1122.54,40.77L1121.78,41.22L1121.66,41.62L1121.68,42.55L1122.21,43.58L1121.84,45.15L1122.07,45.8L1122.33,46.22L1122.82,46.72L1123.72,47L1124.19,47.33L1124.31,47.67L1124.31,47.95L1124.14,48.41L1124.14,48.78L1124.51,49.84L1124.53,50.93L1124.63,51.46L1124.91,51.75L1125.42,51.9L1125.58,52.18L1125.47,52.76L1125.47,53.65L1125.59,53.89L1126.07,54.19L1126.21,54.4L1126.11,55.22L1125.95,55.47L1125.89,55.77L1125.95,56.01L1126.11,56.32L1126.32,56.49L1127.15,58.11L1127.15,58.69L1126.53,60.24L1126.57,60.66L1126.73,60.9L1127.86,61.85L1128.46,62.91L1128.44,65L1128.54,65.37L1129.14,65.88L1129.22,66.19L1129.18,67.07L1129.02,67.56L1129.1,67.9L1129.32,68.2L1130.6,69.21L1130.94,69.68L1131.44,71.06L1132.27,72.11L1132.14,73.17L1131.8,73.6L1131.92,74.27L1133.5,76.51L1135.12,77.49L1135.3,77.79L1135.34,78.07L1135.28,78.37L1134.9,79.01L1134.8,79.44L1134.94,81.47L1134.91,82.32L1134.66,82.61L1134.48,83.1L1134.8,83.8L1134.82,84.62L1134.62,85.19L1134.16,85.66L1133.94,86.1L1133.63,87.3L1133.08,88.09L1132.96,88.49L1133.33,89.48L1133.56,90.59L1133.53,91.02L1133.36,91.31L1133.02,91.61L1132.45,91.72L1131.51,91.41L1130.78,91.75L1130.68,91.9L1130.68,92.42L1130.96,92.81L1130.98,93.33L1130.86,93.76L1130.72,93.91L1130,93.85L1129.79,94.37L1129.89,94.98L1129.77,95.61L1129.53,95.77L1129.01,95.8L1128.78,96.04L1128.66,96.77L1128.8,97.26L1128.66,98.02L1128.24,99.05L1127.92,99.45L1127.77,99.78L1127.73,100.39L1128.01,100.89L1128.12,101.32L1127.9,103.07L1127.78,103.41L1127.57,103.63L1127,103.73L1126.79,104.1L1126.81,104.74L1126.93,105.2L1126.91,105.96L1126.81,106.48L1126.48,107.03L1125.53,107.45L1125.33,107.91L1125.31,108.88L1125.39,109.21L1125.7,109.61L1126.1,109.88L1126.38,110.4L1126.34,110.8L1126.18,111.07L1125.8,111.08L1124.97,111.56L1124.77,111.83L1124.67,112.16L1124.6,112.85L1124.6,112.88L1124.9,113.21L1124.5,113.29L999.82,113.06L999.81,70.33L999.77,70.06L996.15,70.05z"/>
		<path id="C38069" title="Pierce" class="land" d="M637.45,112.55L744.05,112.64L744.02,154.67L744.09,155.34L686.33,155.25L686.07,240.69L691.96,240.71L691.95,283.05L649.97,283.04L628.94,282.96L629.01,240.61L622.55,240.61L622.51,155.26L616.13,155.24L616.09,112.64z"/>
		<path id="C38071" title="Ramsey" class="land" d="M935.97,112.9L935.87,155.64L940.21,155.64L940.2,198.35L918.98,198.43L918.89,240.79L902.08,240.79L902.08,266.59L885.78,266.26L885.73,261.3L879.56,254.62L878.15,245.84L874.44,245.01L869.74,246.52L867.88,250.56L863.3,252.82L858.19,257.78L860.75,252.39L865.33,250.2L860.01,245.54L859.65,238.66L856.63,231.35L853.16,230.74L851.48,234L843.64,239.97L842.74,243.62L841.31,239.34L837.66,241.55L836.22,246.67L833.61,245.25L826.03,248.3L826.46,242.77L823.9,235.73L824.43,232.96L818.58,234.39L814.76,240.58L813.11,240.59L813.09,219.66L806.74,219.71L801.84,210.92L800.2,212.2L791.95,208.08L791.88,155.41L829.34,155.45L829.43,112.79z"/>
		<path id="C38073" title="Ransom" class="land" d="M1105.42,657.14L986.82,657.06L983.05,657.06L982.27,657.02L982.39,574.8L1039.85,574.99L1105.52,575.13z"/>
		<path id="C38075" title="Renville" class="land" d="M488.19,133.87L360.44,133.6L360.41,69.44L331.13,69.41L331.09,47.96L331.18,0.42L395.8,0.38L416.22,0.25L416.82,0.26L416.83,69.46L424.23,69.47L424.25,112.33L488.21,112.52z"/>
		<path id="C38077" title="Richland" class="land" d="M1113.96,738.66L1113.91,725.24L1108.84,724.18L1108.86,657.11L1105.42,657.14L1105.52,575.13L1183.77,574.93L1184.21,574.9L1185.36,574.23L1185.55,574.61L1186.39,575.11L1186.39,575.11L1186.5,575.29L1186.54,575.61L1186.44,576.06L1186.53,576.97L1187.33,577.15L1187.47,577.51L1187.34,577.85L1187.42,578.26L1188,578.62L1188.14,578.93L1187.89,579.89L1188.03,580.32L1188.46,580.59L1188.51,580.72L1188.4,581.2L1188.4,581.73L1188.41,582.05L1188.77,582.52L1189.36,582.57L1189.81,583.36L1190.02,583.52L1190.14,583.75L1190.05,584.51L1190.14,584.81L1190.77,585.19L1190.98,585.44L1190.94,585.98L1191.19,586.14L1191.62,586.17L1191.73,586.3L1191.58,587.07L1191.62,587.41L1191.81,587.68L1192.37,587.82L1192.65,588.22L1192.98,590.15L1192.62,591.39L1192.37,591.59L1192.26,592L1192.37,592.41L1192.59,592.73L1192.96,593.61L1193,593.9L1192.67,594.81L1193.12,595.14L1193.25,595.44L1193.21,595.6L1192.89,595.89L1192.87,596.03L1192.89,596.18L1193.32,596.64L1193.34,597.04L1193,597.56L1193,597.95L1193.38,598.89L1193.95,599.66L1194.13,601.58L1194.33,602.57L1193.94,603.54L1194.38,604.26L1194.38,604.58L1194.08,605.57L1194.44,606.25L1194.75,606.41L1194.59,607.12L1194.06,608.17L1194.03,608.62L1194.17,609.08L1194.44,609.32L1194.52,609.57L1194.31,610.16L1194.3,610.45L1194.5,610.75L1195.84,611.33L1195.87,611.88L1196.2,612.1L1196.58,612.19L1196.72,612.35L1196.83,612.51L1196.76,612.85L1196.9,613.32L1197.39,614.16L1197.7,614.45L1197.81,615.42L1197.69,616.66L1197.21,617.13L1197.15,617.33L1197.27,617.89L1197.44,618.03L1197.52,618.23L1197.55,618.86L1197.3,619.46L1197.19,619.95L1197.29,620.35L1197.71,620.85L1198.32,620.85L1198.75,621.05L1199.02,621.66L1199.1,622.25L1199.24,622.36L1199.74,622.43L1199.97,622.63L1200.05,623.13L1199.86,623.76L1199.86,624.03L1200.02,624.53L1200.58,624.5L1200.75,624.66L1200.83,625.02L1200.75,625.41L1200.8,625.7L1201.17,626.01L1202.04,626.29L1202.15,626.8L1202.06,627.16L1202.18,627.53L1202.71,627.73L1203.18,627.54L1203.39,627.64L1203.75,628.25L1205.28,631.74L1205.17,633.01L1205.6,635.18L1205.79,635.39L1207.03,635.67L1207.1,636.35L1207.55,637.42L1208.29,637.96L1208.97,638.23L1209,638.59L1208.85,639.18L1209.06,640.35L1209.33,640.73L1209.99,640.81L1211.41,640.3L1211.8,640.56L1211.77,641.06L1211.91,641.29L1213.17,641.75L1213.61,642.53L1213.23,643.22L1213.3,643.51L1214.17,644.15L1215.25,645.29L1216.4,645.63L1216.61,645.81L1216.4,648.36L1216.83,649.56L1216.86,650.01L1216.35,652L1216.53,652.88L1216.71,653.16L1216.79,653.5L1216.52,654.29L1216.68,654.65L1217.07,654.89L1217.21,655.2L1217.21,656.25L1216.86,656.94L1216.77,657.35L1216.83,657.66L1217.3,658.46L1217.38,658.83L1217.09,660.53L1216.72,661.52L1216.61,661.89L1216.75,662.23L1217.24,662.41L1217.46,662.79L1217.61,663.18L1217.6,663.58L1217.46,663.96L1217.52,664.34L1217.8,664.57L1218.05,664.71L1218.14,664.86L1218.19,665.06L1218.14,665.24L1218.03,665.4L1217.82,665.67L1217.51,665.85L1216.88,666.37L1216.79,666.72L1216.97,669.99L1217.28,671.84L1217.93,672.24L1218.74,674.18L1219.04,675.48L1219.12,675.54L1219.25,676.27L1219.14,676.97L1219.03,677.17L1218.58,677.63L1218.58,678.43L1218.44,678.94L1218.44,679.99L1218.61,680.37L1218.66,680.57L1218.63,680.93L1218.6,681.2L1218.6,681.47L1218.63,681.65L1218.74,681.85L1218.91,681.85L1219.1,681.89L1219.29,682.59L1219.22,682.73L1219.38,683.36L1219.75,683.76L1220.06,684.01L1220.17,684.54L1220.21,685.26L1219.77,687.98L1219.93,688.83L1220.26,689.46L1220.69,689.88L1221.59,692.1L1221.46,693.66L1221.23,693.97L1221.47,694.43L1222.61,695.43L1222.64,696.2L1221.97,696.55L1222.17,697.2L1222.58,698.14L1223.24,698.83L1223.44,699.44L1223.65,700.66L1223.7,703.09L1224,703.77L1223.42,706.56L1223.42,706.78L1223.66,707.31L1223.61,708.27L1223.22,709.81L1222.95,710.48L1222.07,711.41L1220.88,714.58L1220.17,717.17L1220.28,717.95L1220.4,718.35L1220.77,719.59L1220.51,721.59L1220.81,722.43L1220.88,722.93L1221.06,725.91L1221.08,728.1L1221.41,732L1222.32,735.1L1222.75,735.72L1222.88,736.2L1222.69,738.2L1222.57,738.64L1220.34,738.63L1216.99,738.64L1215.4,738.62L1213.58,738.6L1210.19,738.62L1206.79,738.56L1203.4,738.53L1200.02,738.5L1185.29,738.49L1183.06,738.59L1151.46,738.53L1151.18,738.64L1148.04,738.6L1134.38,738.46L1131.96,738.58L1127.56,738.63z"/>
		<path id="C38079" title="Rolette" class="land" d="M738.74,0.34L738.71,69.88L744.08,69.88L744.05,112.64L637.45,112.55L637.51,69.76L631.38,69.75L631.43,0.36L675.36,0.41L675.37,0.41L683.9,0.38L683.9,0.37z"/>
		<path id="C38081" title="Sargent" class="land" d="M1113.96,738.66L1113.95,738.66L1113.95,738.66L1100.25,738.67L1099.16,738.68L1072.53,738.66L1070.9,738.67L1066.49,738.62L1066.47,738.62L1062.62,738.63L1037.46,738.61L1024.33,738.6L1023.1,738.62L994.66,738.49L991.38,738.47L990.06,738.47L986.6,738.44L986.82,657.06L1105.42,657.14L1108.86,657.11L1108.84,724.18L1113.91,725.24z"/>
		<path id="C38083" title="Sheridan" class="land" d="M551.29,408.47L551.45,325.03L565.71,325.04L565.68,283.63L565.71,282.99L628.94,282.96L649.97,283.04L649.92,325.1L655.91,325.11L655.84,408.6L642.78,408.58L636.52,408.58L636.01,408.61L551.91,408.54z"/>
		<path id="C38085" title="Sioux" class="land" d="M335.91,736.48L334.86,736.46L334.86,710.93L340.32,711.78L344.9,707.91L351.92,710.15L351.8,707.23L355.11,708.61L359.23,706.29L360.27,711.75L358.04,712.62L360.42,716.64L363.18,714.78L366.93,716.92L370.67,714.33L372.78,716.24L374.55,713.5L380.42,717.97L390,720.69L392.74,719.69L393.74,714.77L396.25,714.79L398.92,719.29L401.28,721.23L404.08,717.49L407.44,721.87L413.45,717.52L418.63,716.86L417.91,711.66L423.1,711.75L434.86,704.84L438.77,706.96L448.97,698.88L448.68,692.2L457.62,690.1L460.58,691.13L463.33,686.81L466.96,688.58L465.6,680.33L470.03,678.44L470.53,676.04L474.52,675.73L481.44,670.11L478.99,666.02L483.04,662.85L482.37,659.3L488.4,660L493.76,656.69L494.86,654.53L495.9,650.44L498.27,648.72L504.64,642.86L509.1,635.11L512.67,630.14L517.83,629.17L522.32,630.81L531.95,631.53L541.07,630.84L545.54,631.67L560.1,624.59L563.07,623.04L564.88,622.8L571.25,638L571.58,646.07L569.96,651.09L566.48,657.35L566.58,659.5L570.05,664.75L569.95,668.12L567.32,674.3L560.78,683.64L558.49,689.88L560.65,696.33L560.91,706.63L563.28,711.77L569.78,721.5L574.21,723.35L578.47,731.31L577.66,736.67L558.76,736.67L554.98,736.66L543.54,736.58L538.72,736.67L536.81,736.63L536.81,736.64L535.56,736.64L515.89,736.62L508.47,736.64L507.92,736.62L503.77,736.63L501.78,736.62L501.11,736.57L481.4,736.62L480.51,736.59L474.67,736.62L474.1,736.62L471.29,736.61L470.01,736.6L469.26,736.59L468.7,736.61L464.67,736.61L461.37,736.58L453.61,736.54L451.04,736.56L446.79,736.55L443.42,736.55L438.29,736.56L437.41,736.54L436.91,736.52L429.38,736.64L406.94,736.56L406.14,736.53L395.29,736.52L390.55,736.5L386.8,736.51L386.6,736.48L382.19,736.5L379.81,736.54L378.72,736.5L374.05,736.47L373.13,736.49L372.96,736.5L372.82,736.51L368.92,736.48L368.18,736.49L361.91,736.48L358.7,736.48L353.11,736.46L341.58,736.47L338.92,736.48L336.35,736.48z"/>
		<path id="C38087" title="Slope" class="land" d="M0.62,596.07L40.51,596.12L40.52,575.09L71.81,575.02L133.49,574.99L183.07,574.96L183.63,657.33L172.05,657.52L166.76,657.64L166.56,657.62L103.39,657.69L0.57,657.64L0.56,647.19L0.56,643.1L0.56,637.2L0.46,633.18L0.63,603.44z"/>
		<path id="C38089" title="Stark" class="land" d="M318.84,491.45L318.91,554.16L318.86,574.73L183.07,574.96L133.49,574.99L133.46,512.58L133.55,511.28L133.58,491.65L165.97,491.58L248.81,491.41L248.81,484.5L310.48,484.52L310.99,484.49L310.97,491.38z"/>
		<path id="C38091" title="Steele" class="land" d="M1007.13,325.45L1074.03,325.49L1073.77,409.18L1074.02,409.24L1077.44,409.25L1077.5,429.75L1035.93,429.53L994.25,429.4L994.34,408.87L993.46,408.69L990.11,408.86L990.4,325.43z"/>
		<path id="C38093" title="Stutsman" class="land" d="M751.15,574.59L751.69,491.51L746.03,491.56L746.08,408.63L781.11,408.6L906.38,408.76L911.6,408.76L911.57,429.42L911.56,491.82L916.14,491.81L916.2,569.15L915.97,569.31L916.21,574.71L818.61,574.84L757.07,574.62L755.93,574.68L755.74,574.61z"/>
		<path id="C38095" title="Towner" class="land" d="M744.05,112.64L744.08,69.88L738.71,69.88L738.74,0.34L763.18,0.33L824.63,0.17L824.62,69.94L829.44,69.95L829.43,112.79L829.34,155.45L791.88,155.41L744.09,155.34L744.02,154.67z"/>
		<path id="C38097" title="Traill" class="land" d="M1074.03,325.49L1169.04,325.46L1169.25,325.83L1169.27,326.32L1169.68,326.86L1169.93,327.57L1169.91,328.02L1169.6,328.68L1169.7,330.08L1170.37,330.78L1170.45,331.05L1170.37,332.82L1170.1,333.05L1169.51,333.3L1169.44,333.61L1170.45,334.81L1170.92,337.93L1171.44,338.26L1172.33,338.54L1172.38,338.65L1172.31,338.83L1171.81,339.33L1171.87,339.6L1174.06,339.96L1174.58,340.3L1174.85,340.78L1174.95,341.37L1174.61,342.33L1174.82,342.68L1175.12,342.94L1175.28,343.4L1175.23,343.66L1175.01,343.8L1174.96,344.17L1175.42,344.96L1175.53,345.49L1175.21,347.85L1174.7,348.75L1174.78,349.33L1175.07,349.65L1175.14,350.05L1174.65,350.65L1174.31,350.76L1174.24,351.02L1174.32,351.46L1174.56,351.57L1174.62,351.76L1174.53,352.15L1174.24,352.61L1174.26,352.89L1174.43,353.38L1174.91,353.85L1175.13,354.36L1175.03,354.84L1174.72,355.21L1174.66,355.42L1174.69,355.7L1175.02,356.09L1175.05,356.25L1174.99,356.69L1174.64,357.31L1174.69,357.75L1174.91,358.02L1174.97,358.35L1174.02,359.9L1173.72,360.01L1173.33,360.35L1173.07,360.77L1173.07,361.02L1173.53,362.13L1173.58,362.86L1173.87,363.19L1174.36,363.43L1175.05,363.56L1175.17,363.69L1175.22,364.27L1175.45,364.59L1175.52,364.84L1175.45,365.12L1175.24,365.37L1175.2,366.08L1175.2,366.7L1175.44,367.17L1175.45,367.32L1175.47,367.72L1174.6,368.59L1174.44,368.82L1174.35,369.21L1174.35,369.44L1174.78,369.84L1174.81,370.09L1174.74,370.5L1174.44,370.71L1174.35,370.9L1174.35,371.24L1174.41,371.45L1174.92,371.93L1174.97,372.25L1174.78,372.87L1174.25,373.56L1174.13,374.02L1174.18,375L1174.63,375.89L1174.52,376.6L1174.17,376.97L1174.11,377.29L1174.16,377.61L1174.41,377.98L1174.39,378.26L1174.23,378.69L1174.18,380.11L1174.52,381.09L1174.52,381.36L1174.14,382.14L1174.1,382.51L1174.35,383.06L1173.97,383.82L1173.94,384.12L1174,384.44L1174.32,384.81L1174.17,385.32L1173.63,385.73L1173.41,386.05L1173.41,386.4L1173.52,386.58L1173.91,386.81L1173.93,386.99L1173.77,387.45L1173.81,387.65L1174.42,388.61L1175.2,388.96L1175.31,389.26L1175.29,389.68L1176.05,390.34L1176.54,390.98L1176.57,391.14L1176.41,392.01L1176.48,392.5L1177.08,392.91L1177.26,393.19L1177.27,393.53L1177.19,394.91L1176.46,395.53L1176.24,396.65L1175.91,397.02L1175.3,397.12L1175.13,397.49L1175.41,397.86L1175.92,398.17L1175.97,398.41L1175.81,398.73L1175.38,398.96L1175.34,399.21L1175.83,399.83L1175.86,400.75L1176.05,401.19L1176.25,401.49L1176.67,401.67L1176.81,402.06L1176.53,403.25L1176.72,404.04L1177.28,405.29L1177.93,405.84L1178.05,406.5L1177.61,407.35L1177.65,407.67L1178.02,407.99L1178.16,408.27L1178.16,408.82L1177.93,409.37L1178.05,410.08L1178.02,410.31L1177.86,410.61L1177.18,410.91L1177.05,411.07L1176.96,412.15L1177.21,412.35L1177.86,412.39L1178.07,412.52L1178.54,413.43L1178.54,414.05L1176.73,416.8L1176.71,417.53L1177.13,418.96L1177.34,420.65L1177.32,421.01L1177.01,421.52L1176.85,422.21L1176.96,422.44L1177.41,422.63L1177.54,422.88L1177.4,423.29L1177.04,423.45L1176.94,423.77L1176.96,424.05L1177.16,424.14L1177.26,424.44L1177.21,424.92L1177.1,425.17L1177.37,425.65L1177.4,425.81L1177.29,426.2L1177.35,426.38L1178.13,427.02L1178.24,427.57L1178.21,427.99L1177.82,428.51L1177.66,428.83L1177.66,429.09L1177.75,429.32L1178.42,430L1077.5,429.75L1077.44,409.25L1074.02,409.24L1073.77,409.18z"/>
		<path id="C38099" title="Walsh" class="land" d="M935.97,112.9L999.82,113.06L1124.5,113.29L1124.9,113.21L1125.16,113.5L1126.1,114.05L1126.66,114.6L1126.93,115.23L1126.89,115.72L1126.42,116.48L1126.24,117.73L1127.05,122.83L1127.13,123.29L1127.35,123.74L1128.32,124.44L1128.56,125.05L1128.49,127.03L1128.33,127.42L1127.74,127.86L1127.56,128.19L1127.62,128.83L1127.93,129.07L1128.15,129.5L1128.05,129.89L1127.76,130.13L1127.7,131.23L1127.87,131.95L1128.09,132.5L1129.32,133.2L1129.56,133.5L1129.58,134.35L1129.42,135.38L1128.85,136.17L1128.75,136.54L1128.75,137.36L1128.81,137.54L1129.18,137.84L1129.32,138.45L1129.2,139.3L1129,139.72L1128.49,140.36L1128.51,140.72L1128.73,141.33L1129.09,141.71L1129.09,142.23L1128.87,142.81L1128.04,143.2L1127.91,143.44L1127.97,144.11L1128.65,144.3L1129.09,145.31L1129.19,146.56L1129.06,147.19L1128.36,148.39L1127.75,148.92L1127.53,149.3L1127.46,149.64L1127.53,150.93L1127.78,151.61L1128.23,152.13L1128.36,152.57L1128.36,153L1128.04,154.54L1127.69,155.26L1127.33,155.5L1127.17,155.88L1127.11,156.31L1127.11,158.04L1127.75,159.37L1128.4,159.63L1128.73,159.98L1128.79,160.32L1128.62,161.09L1128.72,161.8L1129.73,162.64L1129.82,162.99L1129.69,164.02L1129.22,165.05L1129.23,165.69L1129.4,165.9L1129.81,165.88L1130.37,166.16L1130.43,166.42L1130.4,167.01L1130.04,167.69L1129.8,167.93L1129.73,168.23L1129.61,168.92L1129.7,169.6L1129.85,169.87L1130.48,170.22L1130.63,170.48L1130.63,171.81L1131.27,172.38L1131.3,172.5L1131.23,172.89L1131.1,173.05L1130.45,173.09L1130.23,173.29L1130.16,173.75L1130.2,174.46L1130.46,174.72L1130.77,174.71L1131.29,175.15L1132.01,176.76L1132.18,177.3L1132.2,177.69L1130.98,179.75L1130.77,179.95L1129.96,180.23L1129.71,180.65L1129.7,181.03L1129.85,181.21L1130.25,181.32L1130.48,181.8L1130.48,182.29L1130.11,182.8L1130.09,183.04L1130.13,183.38L1130.4,183.88L1130.45,184.14L1130.34,184.59L1130.11,184.84L1129.45,184.98L1128.7,185.87L1128.58,186.17L1128.6,186.8L1129.09,187.64L1129.07,187.98L1128.41,188.39L1128.17,188.7L1128.24,189.34L1128.49,189.79L1128.98,190.09L1129.03,190.31L1128.98,190.77L1128.75,191.03L1128.68,191.52L1128.78,191.86L1129.09,192.06L1129.16,192.49L1129.16,192.96L1128.8,193.44L1128.87,194.11L1129.29,194.62L1129.24,195.34L1128.75,195.66L1128.58,196.03L1128.52,196.48L1128.7,197.76L1128.17,198.73L1003.69,198.42L940.2,198.35L940.21,155.64L935.87,155.64z"/>
		<path id="C38101" title="Ward" class="land" d="M488.19,133.87L488.17,155.21L495.64,155.22L495.5,240.4L502.77,240.42L502.64,282.7L497.88,282.76L497.44,282.82L355.56,282.97L355.61,240.29L347.35,240.29L347.33,155L338.98,155.05L338.99,112.07L296.43,112.27L296.48,69.41L309.72,69.41L309.78,47.94L331.09,47.96L331.13,69.41L360.41,69.44L360.44,133.6z"/>
		<path id="C38103" title="Wells" class="land" d="M746.08,408.63L655.84,408.6L655.91,325.11L649.92,325.1L649.97,283.04L691.95,283.05L768.98,283.17L769.02,283.16L775.21,283.18L776.06,283.16L776.04,325.25L781.2,325.26L781.18,345.89L781.11,408.6z"/>
		<path id="C38105" title="Williams" class="land" d="M199.32,215.8L193.38,212.57L186.52,216.26L181.36,213.65L175.74,212.3L169.85,213.78L166.82,212.92L160.03,213.67L156.8,215.56L156.27,211.05L153.82,210.23L145.65,212.75L138.34,212.99L130.07,223.29L134.4,227.64L133.26,230.51L126.02,231.81L124.21,236.17L118.59,236.21L109.28,239.82L101.35,237.19L96.27,239.92L92.09,244.3L89.46,244.49L85.49,237.82L78.32,237.24L75.93,235.41L76.19,231.85L81.94,225.03L78.51,224.52L73.78,221.33L71.98,218.13L75.65,215.59L73.8,213.18L67.96,218.81L61.04,216.11L54.19,219.36L50.09,223.18L50.4,225.62L55.44,229.99L55.18,231.8L49.22,236.01L43.2,231.45L41.02,237.28L42.02,242.69L40.52,247.33L35.94,250.77L36.4,246.84L31.46,242.27L31.51,247.12L29.32,252.55L26.27,255.17L21.09,256.65L17.35,251.84L13.31,249.46L6.84,253.88L4.66,248.8L0.78,246.88L0.57,205.87L0.56,202.97L0.57,199.01L0.55,198.66L0.52,187.05L0.52,186.27L0.53,185.88L0.5,183.7L0.47,183.29L0.42,162.36L0.41,154.55L0.37,154.4L0.32,150.81L0.32,150.8L0.32,150.5L0.29,145.5L0.32,143.04L0.3,136.95L0.28,136.62L0.26,135.32L0.27,135.22L0.25,131.75L0.22,125.1L0.14,123.66L0.2,119.27L0.23,117.29L0.17,116.09L0.2,115.92L0.18,113.89L0.18,108.23L0.15,101.13L0.11,99.29L0.16,94.09L0.21,92.75L0.21,92.41L0.22,90.69L3.8,90.74L4.46,90.69L4.61,90.74L85.2,90.74L189.96,90.86L189.97,112.26L189.97,154.94L199.39,154.85L199.37,215.47z"/>
	</g>
</svg>