<?xml version="1.0" encoding="utf-8"?>
<!-- (c) ammap.com | SVG map of NH Counties -->
<svg xmlns="http://www.w3.org/2000/svg" xmlns:amcharts="http://amcharts.com/ammap" xmlns:xlink="http://www.w3.org/1999/xlink" version="1.1">
	<defs>
		<style type="text/css">
			.land
			{
				fill: #CCCCCC;
				fill-opacity: 1;
				stroke:white;
				stroke-opacity: 1;
				stroke-width:0.5;
			}
		</style>

		<amcharts:ammap projection="mercator" leftLongitude="-72.557386" topLatitude="45.305507" rightLongitude="-70.703624" bottomLatitude="42.696888"></amcharts:ammap>

		<!-- All areas are listed in the line below. You can use this list in your script. -->
		<!--{id:"C33001"},{id:"C33003"},{id:"C33005"},{id:"C33007"},{id:"C33009"},{id:"C33011"},{id:"C33013"},{id:"C33015"},{id:"C33017"},{id:"C33019"}-->

	</defs>
	<g>
		<path id="C33001" title="Belknap" class="land" d="M447.47,952.89L349.95,881.28L342.11,874.97L338.72,873.74L323.74,883.05L317.35,878.4L311.05,856.31L306.07,858.14L293.43,845.62L288.21,835.16L280.89,823.36L284.92,816.24L279.7,811.83L287.56,805.65L295.13,808.48L302.77,804.01L306.91,796.47L305.57,777.95L307.88,766.19L350.5,761.05L347.05,729.36L368.1,751.78L438.96,819.38L450.27,822.5L456.57,829.02L459.74,825.26L471.92,834.6L462.24,847.07L473.1,919.89z"/>
		<path id="C33003" title="Carroll" class="land" d="M389.42,519.13L389.54,519.1L393.49,518.35L396.96,535.19L406.27,541.37L411.11,561.93L410.97,576.05L413.51,579.06L421.7,576.29L423.7,554.9L441.86,504.54L494.25,508.73L512.94,507.57L512.27,485.95L523.85,485.44L524.37,497.67L524.36,497.85L524.43,503.95L526.88,575.6L526.86,575.72L527.85,600.07L529.75,658.61L529.81,667.99L530.74,694.67L531.03,716.55L531.04,716.69L532.44,734.99L533.39,752.71L533.34,754.19L533.43,758.81L533.44,759.28L535.55,794.68L536.57,820.22L537.44,821.02L537.98,820.87L540.25,823.62L541.81,824.37L542.27,825.1L542.56,827.68L543.13,828.39L543.62,828.61L543.97,829.18L542.48,833.9L542.45,833.85L542.25,833.41L540.14,833.83L540.02,833.66L537.83,836.45L534.5,840.48L519.05,860.84L514.7,839.11L504.63,840.21L498.65,849.77L489.46,849.7L484.07,818.94L471.92,834.6L459.74,825.26L456.57,829.02L450.27,822.5L438.96,819.38L368.1,751.78L347.05,729.36L336.13,669.45L404.78,658.94L397.71,608.88L409.87,586.96L403.14,586.97L398.04,573.45L399.9,563.24L396.08,546.31L387.54,541.25L383.25,520.27L386.53,519.68z"/>
		<path id="C33005" title="Cheshire" class="land" d="M35.61,1009.98L42.39,1010.74L42.55,1021.88L62.71,1023.53L61.24,1011.69L76.81,1012.86L76.22,1009.29L135.69,1000.48L128.27,1023.61L175.78,1025.06L177.05,1025.1L174.44,1046.57L169.02,1075.83L167.58,1109.99L186.65,1110.42L197.4,1181.66L207.39,1181.92L212.81,1217L195,1216.51L146.53,1214.52L92.87,1212.72L91.87,1212.69L33.43,1210.29L33.44,1209.26L32.59,1207.37L30.28,1203.69L28.5,1201.53L27.95,1199.32L27.53,1196.11L26.97,1194.49L26.38,1193.63L24.51,1192.51L23.99,1191.85L23.53,1190.75L22.39,1189.33L20.96,1188.95L20.08,1189.12L19.8,1189.55L19.64,1190.9L19.15,1191.54L16.68,1193.03L15.7,1193.33L14.95,1193.3L13.94,1192.33L13.72,1191.07L14.36,1189.8L15.95,1188.98L16.55,1188.34L16.66,1187.3L16.39,1185.9L15.41,1183.97L14.02,1181.93L13.17,1180.97L5.98,1174.45L4.9,1172.77L3.76,1165.66L3.32,1161.67L3.33,1159.38L2.94,1157.34L1.29,1155.18L0,1152.28L1.02,1149.05L0.72,1146.43L0.38,1146.19L0.35,1145.87L0.72,1143.98L0.62,1141.96L1.49,1137.57L1.77,1137.27L3.64,1136.57L5.6,1135.54L6.76,1134.39L8.29,1132.46L8.73,1131.59L8.69,1127.35L9.15,1125.32L9.5,1124.79L10.83,1124.03L11.11,1123.47L11.18,1122.13L10.21,1117.48L10.46,1114.19L10.37,1112.26L10.1,1110.77L9.72,1109.77L9.31,1109.4L8.65,1109.22L7.91,1108.26L7.68,1107.66L7.83,1106.63L8.49,1105.33L13.15,1101.54L16.71,1101.08L17.95,1100.32L21.89,1099.47L23.83,1097.56L25.58,1096.55L26.41,1096.73L27.27,1097.58L28.25,1097.45L30.9,1094.48L32.38,1092.44L32.39,1091.91L31.57,1090.96L31.12,1089.37L31.33,1087.51L31.94,1085.96L32.95,1084.51L33.97,1083.95L35.71,1084.29L36.75,1084.01L38.02,1082.51L38.43,1081.67L38.41,1080.42L38.13,1079.68L35.31,1077.29L33.93,1076.58L33.27,1075.61L32.12,1072.76L31.92,1071.39L32.62,1067.96L32.85,1065.78L32.17,1064.15L30.93,1062.63L30.62,1061.85L30.44,1060.25L30.73,1059.29L31.64,1058.06L34.72,1055.25L37.94,1051.61L39.75,1048.99L40.99,1046.82L41.29,1045.99L41.33,1044.56L39.97,1040.76L38.67,1037.99L38.88,1036.7L39.5,1035.54L41.45,1033.8L42.03,1032.54L42.19,1031.87L42.08,1029.29L41.08,1027.57L39.38,1025.62L38.71,1024.42L38.77,1023.98L39.44,1023.83L39.49,1023.49L39.4,1021.83L39.06,1021.45L38.28,1021.1L36.89,1021.19L35.64,1020.39L33.98,1016.86L33.9,1015.96L34.1,1015.48L35.37,1014.35L35.71,1013.65L35.79,1012.88z"/>
		<path id="C33007" title="Coos" class="land" d="M268.37,427.94L269.3,427.75L271.29,428.04L271.89,428.43L273.51,430.15L275.05,430.43L275.69,430.29L275.96,429.95L276.77,427.87L277.48,426.85L278.12,426.32L279.61,425.87L281.42,425.69L285.18,426.11L287.56,425.41L290.48,423.48L293.36,421.04L295.08,420.01L297.08,417.88L297.35,415.87L297.08,414.98L297.31,414.52L297.95,414.2L300.8,413.81L302.41,412.95L303.21,412.03L304.16,409.84L304.74,405.55L306.08,402.48L306.43,402.19L308.89,402.46L309.64,401.89L310.47,400.73L310.32,399.91L308.39,398.52L307.94,398L307.84,397.03L308,396.51L308.61,395.55L309.55,394.84L310.84,394.28L313.04,391.42L313.65,391.21L314.79,391.27L315.46,391.74L315.68,392.41L316.67,392.6L317.5,391.17L318.19,390.55L318.76,390.44L320.91,391.2L324.33,390.2L324.86,389.29L325.68,386.43L325.83,384.42L326.08,383.44L326.89,383.33L327.45,383.77L327.66,384.09L327.66,384.49L328.56,384.49L328.93,383.77L328.67,382.44L329.61,382.27L330.93,382.95L331.34,382.89L331.72,382.52L331.92,381.88L331.68,381.48L329.83,379.88L329.24,379L328.91,377.44L328.58,376.85L326.82,375.38L326.19,374.45L326.09,373.54L326.57,372.91L328.52,373.18L328.98,373.07L330.07,372.25L331.98,369.44L332.8,367.86L333.29,366.61L333.27,365.82L332.55,364.46L328.19,361.15L325.23,358.51L324.79,357.56L324.9,356.73L325.46,354.97L326.21,353.58L326.83,352.97L327.48,352.69L332.44,353.13L334.44,354.08L336.54,353.87L337.75,353.44L338.18,352.75L338.04,351.23L338.38,350.44L338.88,350.29L340.19,350.87L340.52,350.82L341.2,350.32L341.51,349.77L341.44,349.19L339.96,347.37L339.81,346.67L339.83,346.09L340,345.59L340.69,345.73L341.33,346.31L341.95,346.61L342.8,346.26L344.43,344.72L345.24,343.65L345.74,341.92L344.26,340.96L341.33,339.67L339.91,339.54L339.52,338.44L339.57,337.19L339.04,335.78L339.12,334.79L339.44,333.99L339.77,333.09L339.69,331.9L338.86,328.39L339.13,325.01L339.5,324.4L339.76,324.39L340.01,323.81L340.5,323.36L339.51,321.17L336.98,319.1L336.8,318.77L336.8,317.71L338.08,317.42L338.36,316.62L338.18,315.4L337.1,312.62L336.2,311.39L335.61,310.9L335.11,311.04L334.76,312L334.23,312.5L333.58,312.55L332.57,312.44L332.25,311.78L332.17,311.22L332.38,310.56L332.27,310.03L329.92,309.59L329.28,309.02L328.7,308.23L328.7,307.46L329.15,306.31L329.37,305.45L329.01,304.36L329.01,303.58L329.41,303.14L330.07,302.17L330.25,301.56L329.9,300.95L328.43,300.9L327.53,300.61L325.4,298.93L325.37,298.65L325.95,297.72L326.11,296.69L325.36,295.15L324.81,292.41L325.21,291.41L326.06,290.9L326.14,290.46L324.6,289.95L324.1,289.51L323.89,289.05L323.89,288.61L324.42,287.16L324.23,286.48L322.49,285.13L319.72,280.01L317.93,278.26L317.88,277.65L318.25,275.68L318.17,275.27L317.69,275.09L316.5,275.81L316.27,275.8L315.71,275.21L315.48,274.61L315.47,272.35L315.66,271.38L315.62,268.11L315.04,266.57L313.62,265.88L313.32,265.09L313.35,264.08L313.57,263.71L316.05,262.81L318.07,262.46L319.33,261.13L319.32,260.2L320.17,258.43L321.36,257.81L322.59,256.82L323.65,254.76L325.49,253.17L325.53,252.76L325.27,252.22L325.18,251.47L326.53,249.67L329.44,248.27L330.92,248.39L331.28,248.11L333.21,245.34L333.73,243.94L333.25,242.46L334.17,238.97L334.61,238.13L334.57,237.29L333.34,236.54L332.57,235.03L332.45,233.84L332.85,232.88L335.02,230.14L335.95,229.74L336.08,230.11L336.44,230.11L336.93,229.76L338.48,225.11L339.82,224.32L340.33,223.51L340.4,222.83L340.18,221.48L339.38,219.72L338.8,219.18L338.78,218.26L339.18,217.43L339.84,216.68L341.64,215.06L341.63,214.35L340.98,213.14L341.02,212.16L341.24,211.7L342.47,210.01L344.43,208.82L346.3,208.31L348.14,206.47L348.23,204.87L348.42,204.44L348.99,203.84L350.43,203.02L353.85,198.53L354.05,197.89L353.24,197.14L353.15,196.75L353.32,196.43L355.09,194.97L357.17,192.58L357.64,191.77L358.17,191.6L359.04,191.87L359.42,191.51L360.07,188.67L359.91,188.24L357.75,186.95L356.49,184.79L354.89,182.71L352.87,180.86L352.27,174.96L352.55,174.41L352.76,173.14L352.32,171.2L352.99,165.88L352.52,163.1L350.44,162.27L348.81,158.76L347.31,157.63L345.22,153.69L344.94,151.83L345.49,148.97L347.82,146.36L349.54,145.29L351.23,145.1L353.07,144.3L355.38,142.29L356.32,142.3L357.66,142.97L358.89,144.34L362.22,145.75L364.92,144.81L365.49,142.63L366.08,141.87L367.06,141.14L369.44,140.48L370.02,139.68L357.17,139.81L357.99,139.41L357.96,138.85L357.68,138.54L358.03,133.63L360.04,129.79L361.01,126.25L361.03,125.34L360.33,124.34L358.97,124.91L358.17,124.86L357.72,124.65L356.24,122.9L356.29,121.62L356.47,121.18L357.08,121.06L357.83,121.39L358.78,120.05L359.33,115.11L358.55,112.94L358.72,112.48L358.93,112.5L359.33,113.13L359.55,113.17L361.69,111.66L361.69,111.06L362.64,108.7L363.82,108.39L364.71,107.35L364.81,106.96L364.48,106.53L364.52,106.28L366.38,105.87L367.7,105.98L369.04,104.71L369.92,101.76L370.86,101.52L371.56,100.78L372.13,98.99L373.1,97.72L374.11,97.33L375.2,96.26L375.5,94.65L375.39,94.12L376.43,92.03L378.13,91.51L380.89,88.64L382.11,87L382.66,85.34L382.81,84.23L380.67,80.3L379.75,79.45L379.27,78.17L380.64,74.9L381.72,73.8L382.5,73.43L382.82,72.95L383.75,70.06L383.88,69.19L383.54,66.91L384.41,66.13L385.42,64.7L386.4,61.42L386.64,58.56L386.85,57.79L387.49,57.14L388.9,56.33L390.06,52.47L389.97,51.46L392.62,48.87L392.55,47.72L392.18,46.43L390.77,43.21L389.37,42.51L388.79,42.61L386.61,41.94L386.43,41.79L386.4,41.21L386.04,40.37L384.64,39.05L381.12,36.8L378.82,34.87L378.13,33.81L377.35,33.89L377.02,33.58L377.01,32.81L377.19,32.49L377.55,32.1L378.82,31.88L380.7,32.53L381.58,33.26L381.94,34.17L384.99,34.89L385.59,34.35L386.07,33.52L387.84,31.97L389.51,30.67L390.98,30.16L393.76,30.82L394.62,32.74L395.46,33.79L396.74,34.65L396.98,34.59L397.57,33.84L398.59,31.95L398.7,31.11L399.45,29.39L399.77,29.05L401.38,28.36L402.58,28.25L404.4,27.47L405.68,26.17L406.35,25.01L406.53,24.32L406.49,23.17L405.57,20.53L404.66,19.54L404.33,18.73L404.46,18.16L405.2,17.1L407.11,17.68L407.64,17.64L408.24,17.4L409.61,16L410.83,16.46L413.41,15.55L414.24,14.47L414.33,13.77L414.99,12.24L416.1,11.68L418.65,11.11L419.51,9.99L420.89,8.85L422.69,8.75L423.41,7.97L424.08,6.25L425.36,4.28L426.92,3.02L431.02,1.46L431.26,1.68L431.65,2.97L431.58,3.83L432.26,4.94L432.77,5.04L435.11,4.21L437.06,5.22L437.61,5.77L437,6.84L437.99,10.92L438.25,13.47L438.56,14.09L439.41,15.46L440.49,15.42L442.54,17.41L444.19,17.56L444.53,17.91L446.28,20.89L447.32,21.27L447.63,21.65L448.91,24.94L448.42,25.86L449.06,26.75L450.1,26.76L450.86,25.8L452.15,24.91L452.61,26.07L455.6,26.39L458.57,24.55L460.18,24.57L460.73,24.88L461.33,26.36L462.4,26.75L463.85,27.71L465.09,29.04L465.43,30.1L465.5,30.89L466.07,31.47L466.43,31.32L466.86,30.74L467.22,29.66L468.62,28.36L469.33,28.46L470.62,27.81L472.18,26.45L473.76,27.21L474.59,28.31L477.15,30.25L478.29,30.32L480.11,29.98L481.95,29.4L482.64,28.8L484,24.85L485.16,24.08L486.72,20.72L486.65,19.06L487.93,15.9L489.01,14.69L489.83,14.4L490.98,12.89L491.54,11.02L490.3,11.16L490.02,10.78L489.83,10.03L490.53,7.92L491.72,5.2L494.22,1.71L497.02,0.43L498.35,0L498.77,0.09L501.28,28.09L502.74,59.7L503.83,77.36L507.35,143.84L507.73,146.17L509.48,179.18L512.21,220.05L514.62,262.59L514.9,271.67L516.82,310.14L518.3,356.27L519.54,383.77L520.29,396.22L522.13,441.4L523.01,459.02L523.51,477.39L523.85,485.44L512.27,485.95L512.94,507.57L494.25,508.73L441.86,504.54L423.7,554.9L421.7,576.29L413.51,579.06L410.97,576.05L411.11,561.93L406.27,541.37L396.96,535.19L393.49,518.35L389.54,519.1L389.42,519.13L386.53,519.68L377.21,502.16L368.28,497.11L332.36,499.61L328.51,476L294.77,461.05L291.42,463.01z"/>
		<path id="C33009" title="Grafton" class="land" d="M77.08,806.27L77.46,805.99L77.74,805.12L77.55,803.18L77.11,802.46L76.04,801.56L75.35,799.6L75.46,797.4L76.15,794.68L77.3,793.79L77.89,792.13L77.85,791.84L77.13,791.06L77.07,790.22L77.25,789.79L77.83,789.23L79.49,788.23L81.95,787.18L82.34,786.41L82.42,784.66L82.01,783.33L82.36,780.19L82.75,779.12L83.44,778.52L85.16,775.35L85.65,773.96L85.96,771.84L86.06,769.96L85.64,768.53L85.07,767.64L85.31,761.71L86.14,758.46L87.21,756.67L88.84,755.53L89.75,754.44L91.53,751.68L92.26,750.23L93.93,748.23L95.21,747.1L96.87,743.79L99.22,743.78L105.71,739.61L109.9,737.19L112.97,732.72L113.5,731.79L114.16,730.02L114.85,729.04L115.39,728.67L117.31,728.12L118.42,727.38L119.22,726.59L119.36,726.45L119.1,721.3L119.18,720.28L119.6,719.52L121.98,717.69L122.48,717L123.28,715.5L124.1,712.64L126.11,710.82L126.62,709.19L126.33,707.16L125.57,705.6L124.84,703.13L124.95,702.32L125.63,700.42L126.62,698.66L127,697.1L126.78,691.92L125.25,687.94L125.07,686.76L126.13,683.36L126.75,682.46L127.95,682.06L129.52,681.96L131.99,680.67L131.21,678.67L130.49,677.39L129.92,675.75L130.19,673.85L130.57,673.08L130.93,672.6L132.07,672.73L134.24,672.21L134.78,671.7L135,669.62L135.97,667.57L137.46,665.43L139.58,663.75L142.95,661.53L147.73,657.35L148.34,656.41L148.74,655.32L149.16,650.33L149.16,649.7L148.41,645.98L148.5,644.97L148.8,644.29L149.67,643.91L151.16,643.9L152.85,643.1L153.34,642.55L155.28,639.21L155.19,638.64L154.53,637.71L154.65,636.95L155.32,636.32L158.1,635.58L158.15,635.39L157.85,635.09L156.14,634.3L153.15,633.45L152.45,633.65L151.13,634.85L150,634.59L149.85,634.21L149.86,633.67L150.41,632.12L150.61,630.77L150.86,626.42L150.5,624.97L149.18,623.13L149.08,621.94L151.78,619.1L153.56,618.02L153.63,617.37L153.16,614.95L153.04,613.41L154,612.37L155.21,612.09L156.45,612.98L157.08,614.45L157.12,614.96L157.81,615.07L158.2,614.71L158.29,614.07L158.05,613.38L156.46,611.54L156.3,610.12L156.5,609.11L156.85,608.48L157.54,607.88L158.06,607.95L159.96,609.36L160.79,608.96L161.04,608.26L160.98,606.71L161.15,605.97L161.61,605.39L163.08,604.5L163.3,603.97L163.14,603.11L161.81,600.8L161.75,599.91L161.95,599.23L162.5,598.43L163.34,597.82L166.21,596.22L167.65,595.92L167.46,595.13L165.54,594L165.28,593.63L165.8,592.12L166.55,591.97L168.77,592.17L169.34,591.83L169.62,591.39L170.59,588.97L172.35,586.9L172.25,585.86L171.38,584.69L171.23,584.06L171.37,583.76L174.45,583.21L174.85,583.37L175.47,584.37L176.29,584.62L177.37,584.37L177.9,583.57L177.86,583.13L177.27,582.35L175.23,581.2L172.68,579.27L172.18,578.45L172.55,577.63L173.04,577.32L175.15,577.68L176.41,577.46L177.09,577.04L177.56,576.43L177.9,575.52L178.2,573.35L178.12,572.36L177.53,571.63L176.21,570.94L175.26,570.82L174.85,571.14L174.28,572.05L174.16,573.51L173.98,573.81L173.49,574.09L172.33,573.86L171.43,572.94L170.96,571.89L170.13,567.64L170.18,566.69L170.97,563.05L172.98,561.17L174.49,560.35L174.91,560.34L175.55,560.83L176,560.79L177.29,557.58L177.1,557.12L175.88,556.52L174.48,554.93L174.18,548.29L174.24,547.83L175.13,546.19L175.1,545.59L174.91,545.15L174.35,543.81L172.58,543.35L170.74,540.48L169.23,535.05L167.93,532.46L166.29,530.19L166.83,526.81L167.18,526.1L168.36,525.16L168.72,524.38L169.04,522.52L168.85,521.5L170.67,517.43L170.87,516.5L170.45,514.68L170.55,513.11L171.55,509.56L172.48,507.25L172.29,505.97L171.73,504.63L170.42,503.27L168.46,498.99L167.98,495.52L168.25,494.78L168.44,494.77L168.73,494.33L168.9,493.4L168.81,492.4L168.1,492.42L166.84,493.35L166.19,493.19L165.75,491.94L166.54,488.99L168.76,484.75L170.63,482.74L173.02,482.04L175.49,479.93L176.16,479.28L177.37,477.38L177.68,476.49L177.76,475.11L177.75,470.83L177.25,470.08L177.48,468.66L178.86,467.7L179.97,467.86L182.22,468.65L183.77,468.34L185.32,467.91L187.92,466.53L192.66,464.22L193.28,463.54L193.91,461.17L195.09,460.57L201.18,461.02L202.88,460.55L207.27,460.46L209.34,461.35L210.58,461.39L212.7,460.54L214.07,458.44L216.66,456.31L220.22,455.48L221.77,455.85L228.69,459.29L230.74,460.63L231.88,460.98L232.75,460.83L235.45,459.34L238.6,458.98L241.42,457.41L243.68,455.72L245.16,454.61L247.54,453.73L250.05,453.29L251.56,452.53L252.06,452.06L252.29,451.2L252.2,450.67L251.35,448.22L250.95,446.39L251.18,445.78L252.08,445.02L252.28,444.53L252.22,444.04L251.26,443.07L251.08,442.65L251.55,439.6L251.98,439.19L253.44,438.69L255.25,438.94L256.32,438.49L256.46,437.7L255.24,435.61L255.24,434.9L255.63,434.19L258.48,431.41L259.58,430.95L263.67,431.16L264.76,430.54L265.63,429.61L267.3,428.5L268.28,427.96L268.37,427.94L291.42,463.01L294.77,461.05L328.51,476L332.36,499.61L368.28,497.11L377.21,502.16L386.53,519.68L383.25,520.27L387.54,541.25L396.08,546.31L399.9,563.24L398.04,573.45L403.14,586.97L409.87,586.96L397.71,608.88L404.78,658.94L336.13,669.45L347.05,729.36L350.5,761.05L307.88,766.19L305.57,777.95L306.91,796.47L302.77,804.01L295.13,808.48L287.56,805.65L279.7,811.83L284.92,816.24L280.89,823.36L278.07,820.66L269.63,821.39L263.96,828.17L257.25,825.23L250.31,832.17L239.66,801.09L225.2,818.2L210.64,839.69L165.92,832.45L165.16,828.12L157.92,839.46L148.11,835.11L152.65,828.03L118.17,813.26z"/>
		<path id="C33011" title="Hillsborough" class="land" d="M394.51,1080.41L400.2,1112.6L374.5,1116.51L377.72,1135.45L382.71,1165.22L396.45,1165.92L405.15,1177.14L408.37,1189.47L439.32,1196.99L444.19,1203.06L440.92,1205.79L440.77,1205.91L436.61,1210.73L432.87,1217.45L427.7,1224L415.51,1223.91L408.17,1223.47L343.61,1221.39L313.38,1220.42L311.89,1220.37L274.77,1219.27L223,1217.38L212.81,1217L207.39,1181.92L197.4,1181.66L186.65,1110.42L167.58,1109.99L169.02,1075.83L174.44,1046.57L177.05,1025.1L175.78,1025.06L180.77,1010.57L176.24,1000.21L185.65,997.74L218.07,988.77L237.45,1031.27L301.18,1014.07L310.18,1059.55L351.74,1052.74L353.71,1062.27L361.8,1060.79L367.02,1068.36L373.35,1064.16L374.93,1075.1z"/>
		<path id="C33013" title="Merrimack" class="land" d="M288.21,835.16L293.43,845.62L306.07,858.14L311.05,856.31L317.35,878.4L323.74,883.05L338.72,873.74L342.11,874.97L349.95,881.28L447.47,952.89L443.61,957.76L420.54,1009.57L406.71,1037.47L394.02,1066.83L394.51,1080.41L374.93,1075.1L373.35,1064.16L367.02,1068.36L361.8,1060.79L353.71,1062.27L351.74,1052.74L310.18,1059.55L301.18,1014.07L237.45,1031.27L218.07,988.77L185.65,997.74L174.63,981.6L173.33,966.76L166.54,966.64L158.21,935.34L171.59,909.66L172.86,894.62L169.06,888.75L170.48,880.32L184.86,882.22L188.73,872.91L210.64,839.69L225.2,818.2L239.66,801.09L250.31,832.17L257.25,825.23L263.96,828.17L269.63,821.39L278.07,820.66L280.89,823.36z"/>
		<path id="C33015" title="Rockingham" class="land" d="M488.03,1168.51L482.46,1166.83L476.63,1169.55L471.25,1172.67L470.54,1173.27L468.27,1175.94L464.31,1180.95L465.76,1205.36L456.85,1202.74L456.82,1202.73L456.79,1202.73L451.51,1201.17L448.29,1201.73L444.19,1203.06L439.32,1196.99L408.37,1189.47L405.15,1177.14L396.45,1165.92L382.71,1165.22L377.72,1135.45L374.5,1116.51L400.2,1112.6L394.51,1080.41L394.02,1066.83L406.71,1037.47L420.54,1009.57L443.61,957.76L518.29,1020.77L502.61,1046.81L533.37,1046.55L549.81,1042.93L569.49,1047.41L574.39,1040.41L574.21,1026.81L588.28,1027.94L592.1,1030.49L597.12,1035.28L600.51,1037.98L602.13,1040.28L605.89,1041.34L606.43,1041.76L607.58,1043.24L609.41,1047.21L609.82,1047.63L614.73,1048.83L616.08,1050.63L617.57,1050.72L622.04,1050.07L625.9,1049.93L626.88,1050.81L627.33,1051.78L627.63,1057.05L624.3,1058.7L624.12,1063.2L624.33,1065.13L622.5,1069.62L621.07,1071.03L619.28,1071.82L618.61,1072.83L618.03,1074.21L617.85,1076.75L617.28,1078.41L616.9,1078.92L615.25,1079.4L614.09,1080.85L612.31,1086.64L612.26,1087.93L611.99,1088.39L611.03,1088.59L610.24,1088.34L609.71,1088.55L608.88,1089.41L608.1,1090.7L607.05,1093.68L606.83,1095.92L604.6,1099.28L604.56,1100.02L605.32,1100.96L604.63,1102.39L603.32,1104.28L602.14,1104.47L601.7,1104.94L600.09,1107.25L599.6,1108.82L598.21,1110.94L597.09,1112.27L595.79,1116.81L595.51,1119.46L595.68,1121.01L593.03,1123.03L592.1,1124.76L591.64,1126.25L591.44,1127.48L591.33,1134.16L590.32,1135.36L589.68,1136.98L589.3,1139.92L589.2,1143.41L587.68,1143.6L584.62,1144.96L582.4,1146.77L578.59,1148.63L565.88,1138.66L560.25,1136.85L556.15,1136.84L556.14,1136.83L551.83,1137.41L550.76,1137.75L550.46,1137.93L544.53,1141.66L538.67,1144.93L516.76,1149.49L512.29,1154.23L511.24,1156.39L509.18,1161.45L505.59,1173.78z"/>
		<path id="C33017" title="Strafford" class="land" d="M588.28,1027.94L574.21,1026.81L574.39,1040.41L569.49,1047.41L549.81,1042.93L533.37,1046.55L502.61,1046.81L518.29,1020.77L443.61,957.76L447.47,952.89L473.1,919.89L462.24,847.07L471.92,834.6L484.07,818.94L489.46,849.7L498.65,849.77L504.63,840.21L514.7,839.11L519.05,860.84L534.5,840.48L537.83,836.45L540.02,833.66L540.14,833.83L540.13,833.83L539.76,834.81L539.68,835.82L539.74,836.52L540.01,836.96L541.47,838.23L541.87,839.55L541.82,841.29L541.96,841.66L542.88,842.4L542.89,844.18L541.94,847.01L542.43,847.64L542.65,848.36L541.56,849.18L541.15,853.22L540.21,853.97L538.6,856.98L537.63,859.34L537.83,860.38L538.37,861L538.17,861.86L536.05,863.42L536.48,864.54L537.17,865.06L538.83,865.52L539.33,865.36L539.37,865.35L540.39,867.02L540.72,868.46L539.52,873.03L538.75,874.49L538.54,875.96L538.9,877.31L540.32,879.41L540.52,880.6L540.48,881.6L537.9,883.19L537.7,884.2L538.04,885.8L537.13,887.51L535.92,888.71L534.76,889.21L533.12,890.42L531.79,892.78L531.64,893.89L531.84,897.76L532.15,898.65L533.15,899.72L533.23,900.43L533.13,901.81L531.6,902.44L531.48,903.34L531.51,904.27L532.34,905.56L532.08,906.72L532.08,908.68L532.64,910.17L532.63,910.49L533.47,911.54L535.32,914.6L536.08,916.62L535.84,918.92L538.42,925.5L539.51,926.38L540.72,926.77L541.6,928.28L542.05,929.72L543.23,930.38L543.74,929.72L548.62,928.47L550.1,928.76L550.29,929.78L550.48,931.42L550.77,932.09L553.08,934.32L555.63,936.4L555.97,936.6L557.13,936.61L557.25,941.19L556.97,941.96L557.87,942.71L558.68,943.59L559.67,943.35L560.41,943.55L561.06,945.17L560.72,946.38L559.87,947.25L558.68,948.78L559.16,949.66L562.44,952.63L564.51,953.14L565.76,953.79L566.71,956.24L567.01,958.24L567.38,958.56L570.47,959.64L573.64,961.98L573.64,961.98L574.27,962.89L574.78,964.45L574.87,965.58L575.34,966.06L576.4,966.57L577.44,965.82L580.39,966.97L581.77,968.41L581.6,968.79L581.15,969.12L581.08,969.6L581.96,972.25L582.43,972.53L583.66,972.28L585.56,972.87L586.01,973.01L586.56,973.18L587.16,973.45L587.28,973.52L589,974.58L589.03,974.81L589.56,975.93L589.82,978.69L590.31,978.68L591.04,979.02L591.79,980.37L591.78,980.76L590.61,984.14L589.62,984.87L589.33,985.37L588.02,992.23L588.16,993.23L588.57,994.37L588.5,995.35L588.04,995.99L587.01,996.26L585.84,997L585.6,997.37L585.47,998.29L586.65,1001.53L587.09,1003.89L586.92,1004.49L586.18,1005.05L585.47,1006.48L585.64,1007.68L585.2,1011.62L583.61,1016.7L583.91,1018.37L584.89,1020.63L585.13,1023.36L585.54,1024.93L585.98,1025.86L588.28,1027.94z"/>
		<path id="C33019" title="Sullivan" class="land" d="M35.61,1009.98L35.68,1005.93L35.45,1005.03L38.04,1002.33L38.55,1001.51L38.43,1000.36L36.51,997.14L36.22,995.61L40.05,991.65L40.48,990.86L40.18,987.96L39.51,985.07L39.53,983.31L40.5,980.43L41.58,978.04L41.8,976.85L41.84,976.65L41.66,975.94L40.84,974.39L40.06,971.65L40.15,967.63L40.93,965.52L41.32,965.05L45.94,962.75L48.02,959.07L50.59,953.74L52.68,944.23L54.79,939.78L54.67,939.03L54.05,937.89L52.39,936.35L50.3,932.97L49.8,931.71L49.74,931.12L50.19,929.85L52.92,924.57L53.49,923.74L54.81,922.42L56.32,920.3L56.6,919.4L55.9,918.96L53.1,919.05L51.91,918.86L48.72,916.7L48.27,915.99L48.14,915.24L47.84,910.3L48.04,908.59L48.79,906.69L51.47,904.05L51.96,903.15L53.2,894.29L53.26,892.32L54.63,885.01L54.72,881.5L55.28,878.65L56.23,876.5L56.44,875.6L55.74,869.16L55.79,868.1L56.12,867.44L58.5,864.92L59.02,864.08L59.44,862.18L59.88,858.26L59.9,856.81L59.72,856L58.4,852.8L56.79,851.11L54.5,849.17L53.8,847.88L53.73,846.67L54.66,843.36L54.62,841.81L55.21,840.17L56.4,840.24L56.94,839.77L58.9,836.55L59.89,833.9L59.62,827.37L59.08,823.85L59.13,823.08L60.21,818.45L62.35,815.95L65.47,813.98L70.21,812.08L76.15,806.66L77.08,806.27L118.17,813.26L152.65,828.03L148.11,835.11L157.92,839.46L165.16,828.12L165.92,832.45L210.64,839.69L188.73,872.91L184.86,882.22L170.48,880.32L169.06,888.75L172.86,894.62L171.59,909.66L158.21,935.34L166.54,966.64L173.33,966.76L174.63,981.6L185.65,997.74L176.24,1000.21L180.77,1010.57L175.78,1025.06L128.27,1023.61L135.69,1000.48L76.22,1009.29L76.81,1012.86L61.24,1011.69L62.71,1023.53L42.55,1021.88L42.39,1010.74z"/>
	</g>
</svg>