<?xml version="1.0" encoding="utf-8"?>
<!-- (c) ammap.com | SVG map of NJ Counties -->
<svg xmlns="http://www.w3.org/2000/svg" xmlns:amcharts="http://amcharts.com/ammap" xmlns:xlink="http://www.w3.org/1999/xlink" version="1.1">
	<defs>
		<style type="text/css">
			.land
			{
				fill: #CCCCCC;
				fill-opacity: 1;
				stroke:white;
				stroke-opacity: 1;
				stroke-width:0.5;
			}
		</style>

		<amcharts:ammap projection="mercator" leftLongitude="-75.599774" topLatitude="41.357514" rightLongitude="-73.893832" bottomLatitude="38.928429"></amcharts:ammap>

		<!-- All areas are listed in the line below. You can use this list in your script. -->
		<!--{id:"C34001"},{id:"C34003"},{id:"C34005"},{id:"C34007"},{id:"C34009"},{id:"C34011"},{id:"C34013"},{id:"C34015"},{id:"C34017"},{id:"C34019"},{id:"C34021"},{id:"C34023"},{id:"C34025"},{id:"C34027"},{id:"C34029"},{id:"C34031"},{id:"C34033"},{id:"C34035"},{id:"C34037"},{id:"C34039"},{id:"C34041"}-->

	</defs>
	<g>
		<path id="C34001" title="Atlantic" class="land" d="M318.35,825L345.43,849.27L349.93,876.59L359.93,879.95L362.56,876.68L375.39,884.05L380.04,890.64L389.22,891.38L393.87,901.78L408.21,905.31L417.63,911.99L425.89,916.19L430.28,910.43L441.66,911.35L455.81,940.67L476.85,936.78L482.24,940L481.76,943L483.83,947.95L485.21,948.45L486.21,950.45L485.38,954.19L473.6,973.86L461.15,988.81L445.8,1001.02L445.76,1002.81L445.2,1007.22L443.48,1009.34L425.23,1017.21L401.29,1032.74L393.7,1039.49L383.13,1039.98L374.24,1034.97L364.09,1042.84L354.27,1041.86L350.5,1045.29L348.73,1041.1L332.49,1044.8L318.1,1040.36L307.59,1041.4L299.9,1036.07L284.06,1036.99L279.31,1032.28L270.14,1029.85L270.11,1027.79L268.81,1024.32L273.64,1000.95L272.03,977.49L222.1,932.55L250.58,900.68L263.87,885.85L293.31,852.93z"/>
		<path id="C34003" title="Bergen" class="land" d="M520.62,114.36L532.53,120.81L565.63,140.13L567.3,141.1L587.18,152.75L587.19,152.75L637.13,182.26L639,183.7L639.79,184.15L640.69,184.3L644.05,184.36L643.09,192.27L638.91,207.67L635.7,221.23L634.89,223.99L634.8,224.97L634.61,225.02L634.11,227.06L631.38,236.29L630.51,239.24L628.81,243.06L628.81,243.06L627,246.82L623.06,255.12L620.85,260.41L617.29,271.16L615.4,274.31L608.93,286.15L596.41,272.87L585.67,280.93L579.1,282.13L568.54,295L557.36,300.06L546.01,291.72L552.78,274.69L557.11,254.65L561.77,254.66L552.72,241.06L552.95,223.69L545.81,212.72L545.77,212.34L546.44,209.23L548.52,200.1L536.94,194.66L516.06,192.3L506.95,186.83L498.46,171.63z"/>
		<path id="C34005" title="Burlington" class="land" d="M193.19,693.69L193.57,693.24L196.58,687.2L198.21,684.99L201.18,682.93L210.39,679.66L211.05,679.31L212.09,678.76L213.33,677.85L220.29,670.71L222.61,667.99L226.16,664.97L226.32,664.88L237.88,657.68L242.6,655.06L245.27,653.9L247.01,653.7L250.45,654.31L251.57,654.15L255.61,652.77L259.77,651.34L262.71,649.83L269.05,648.11L270.17,647.36L270.59,646.76L271.21,644.79L271.87,643.53L272.68,642.63L273.96,641.72L276.94,640.31L279.02,638.7L280.15,637.19L281.03,633.26L282.74,628.93L283.7,627.12L285.1,625.71L286.37,625.3L287.42,625.25L288.77,625.61L293.49,627.67L298.09,628.88L299.48,628.93L300.64,628.68L305.52,624.48L308.08,622.77L309.62,622.02L311,621.68L314.64,621.93L315.8,621.83L316.69,621.42L322.46,616.24L322.99,615.48L323.06,615.33L331.45,596.72L345.88,606.55L373.08,620.08L373.38,620.25L373.62,620.09L373.9,620.11L373.97,619.77L374.24,620.03L374.45,620.06L374.94,619.58L375.06,619.65L375.07,619.92L375.19,619.99L375.75,619.9L389.19,649.67L434.99,762.4L452.29,803.2L452.05,892.07L448.07,903.86L441.03,905.8L441.66,911.35L430.28,910.43L425.89,916.19L417.63,911.99L408.21,905.31L393.87,901.78L389.22,891.38L380.04,890.64L375.39,884.05L362.56,876.68L359.93,879.95L349.93,876.59L345.43,849.27L318.35,825L304.2,814.47L288.9,797.26L276.25,794.89L259.28,799L254.07,794.49L253.79,794.27L244.64,752.84L230.25,729.33L222.68,726.19L226.1,720.44L210.6,716.34L211.19,712.5L211.32,711.37L209.61,710.04L209.95,709.26L209.63,707.81L209.15,707.74L208.96,705.83L212.46,699.64L204.49,693.09z"/>
		<path id="C34007" title="Camden" class="land" d="M164.8,741.61L165.8,739.61L166.92,733.78L166.07,731.17L165.03,728.86L164.18,726L163.75,722.68L163.91,716.05L164.76,712.39L166.07,710.22L167.31,709.02L170.29,706.86L174.58,704.4L180.15,702.33L180.63,702.24L182.12,701.93L188.54,699.22L193.19,693.69L204.49,693.09L212.46,699.64L208.96,705.83L209.15,707.74L209.63,707.81L209.95,709.26L209.61,710.04L211.32,711.37L211.19,712.5L210.6,716.34L226.1,720.44L222.68,726.19L230.25,729.33L244.64,752.84L253.79,794.27L254.07,794.49L259.28,799L276.25,794.89L288.9,797.26L304.2,814.47L318.35,825L293.31,852.93L263.87,885.85L253.93,874.04L251.57,857.32L243.23,844.55L232.14,838.47L220.68,836.17L207.19,824.72L207.58,816.46L199.6,808.95L197.43,800.65L191.9,796.89L187.63,802.94L182.72,800.12L188.27,788.56L183.47,783.43L184.06,768.46L170.43,758.4L162.25,745.5z"/>
		<path id="C34009" title="Cape May" class="land" d="M249.28,1100.5L245.16,1080.25L256.18,1072.05L261.98,1035.43L270.11,1027.79L270.14,1029.85L279.31,1032.28L284.06,1036.99L299.9,1036.07L307.59,1041.4L318.1,1040.36L332.49,1044.8L348.73,1041.1L350.5,1045.29L354.27,1041.86L364.09,1042.84L374.24,1034.97L383.13,1039.98L393.7,1039.49L389.94,1042.83L389.06,1046.13L386.15,1050.23L378.4,1054.14L371.86,1060.09L365.46,1067.15L357.02,1078.99L353.04,1083.38L351.16,1090.05L343.43,1099.38L326.84,1129.18L326.46,1130.62L326.92,1131.75L330.68,1135.11L330.12,1137.55L317.57,1151.55L301.93,1177.16L299,1188.54L296.53,1192.56L290.66,1195.56L286.24,1198.8L274.1,1211.12L268.8,1218.11L268.51,1217.6L266.46,1216.56L261.89,1217.45L252.33,1222.28L247.16,1223.69L242.07,1224L230.51,1222.68L229.04,1221.58L227.22,1218.13L233.65,1187.97L235.93,1180.85L240.24,1171.16L253.64,1145.24L255.91,1139.6L257.94,1132.46L260.5,1117.35L260.02,1109.8L253.05,1101.8z"/>
		<path id="C34011" title="Cumberland" class="land" d="M249.28,1100.5L230.93,1094.2L225.56,1093.19L217.16,1093.69L206.26,1092.52L205.22,1092.05L205.63,1089.61L207.27,1088.06L207.32,1086.97L206.19,1084.45L202.59,1081.69L200.28,1081.64L197.9,1083.53L196.15,1082.58L192.22,1082.61L182.98,1085.29L177.33,1083.55L174.9,1083.68L172.02,1085.59L167.25,1094.43L163.59,1099.57L162.59,1099.28L152.21,1088.43L152.66,1081.09L150.48,1072.13L147.75,1068.1L136.79,1058.22L134.21,1058.15L122.95,1052.51L122.02,1050.72L122.47,1049.28L121.9,1046.73L119.02,1039.66L111.36,1037.61L107.11,1040.09L106.06,1043.49L104.68,1044.81L98.06,1038.77L94.51,1034.35L90.04,1023.45L89.77,1020.07L87.34,1017.05L84.16,1015.37L78.9,1015.81L75.25,1019.01L65.57,1010.61L63.91,1007.88L63.58,1004.07L61.99,1000.04L58.9,998.81L54.41,984.62L58.33,977.96L56.19,963.36L61.78,958.77L74.05,961.49L84.02,944.62L90.36,945.65L102.85,934L123.77,910.39L183.9,961.21L188.03,947.22L185.57,939.22L188.46,928.01L187.62,917.79L192.42,905.66L222.1,932.55L272.03,977.49L273.64,1000.95L268.81,1024.32L270.11,1027.79L261.98,1035.43L256.18,1072.05L245.16,1080.25z"/>
		<path id="C34013" title="Essex" class="land" d="M486.58,328.85L486.25,328.93L486.01,328.78L485.63,328.93L484.97,328.73L484.35,328.58L484.12,328.48L483.66,328.32L483.43,328.12L483.27,327.81L482.54,327.76L482.11,327L481.72,326.54L481.14,326.24L480.87,325.94L479.71,325.93L478.78,326L459.25,315.75L464.67,307.1L457.08,304.45L459.66,303.15L462.24,285.33L471.91,278.26L475.95,268.68L476.92,251.19L471.53,244.4L476.9,229.59L498.38,235.49L507.67,243.71L510.14,244.01L552.78,274.69L546.01,291.72L545.88,292.64L545.73,295.08L539.33,307.88L538.88,312.72L539.73,315.77L540.38,317.34L540.43,317.39L557.82,316.82L557.79,330.42L559.45,334.12L555.53,340.18L550.2,348.67L539.18,340.67L525.11,342.5L517.04,332.01L492.52,324.4z"/>
		<path id="C34015" title="Gloucester" class="land" d="M134.85,756.92L135.02,756.82L140.86,751.25L143.18,749.39L145.62,748.74L158.11,748.39L160.16,747.64L161.32,746.53L162.17,745.63L162.25,745.5L170.43,758.4L184.06,768.46L183.47,783.43L188.27,788.56L182.72,800.12L187.63,802.94L191.9,796.89L197.43,800.65L199.6,808.95L207.58,816.46L207.19,824.72L220.68,836.17L232.14,838.47L243.23,844.55L251.57,857.32L253.93,874.04L263.87,885.85L250.58,900.68L222.1,932.55L192.42,905.66L139.13,856.5L131.32,859.11L121.47,857.91L114.93,849.14L106,850.12L97.46,845.17L90.16,844.98L86.22,837.85L70.7,826.64L70.14,817.06L59.41,808.18L58.17,796.02L45.9,799.49L47.05,798.19L59.65,791.78L55.9,788.98L60.27,786.11L65.38,782.2L65.68,781.95L72.61,776.04L79.35,769.86L84.24,766.77L88.62,765.3L91.4,764.9L96.64,764.72L102.95,765.42L111.54,765.09L122.26,762.5L125.51,761.49L130.92,759.23z"/>
		<path id="C34017" title="Hudson" class="land" d="M602.97,297.03L599.51,303.36L597.73,306.92L594.89,321.76L593.57,330.9L588.16,330.23L583.27,337.82L576.04,343.56L571.05,349.05L568.26,356.06L569.26,359.25L566.68,361.24L547.61,365.19L540.65,364.08L541.08,363.16L543.88,358.65L550.2,348.67L555.53,340.18L559.45,334.12L557.79,330.42L557.82,316.82L540.43,317.39L540.38,317.34L539.73,315.77L538.88,312.72L539.33,307.88L545.73,295.08L545.88,292.64L546.01,291.72L557.36,300.06L568.54,295L579.1,282.13L585.67,280.93L596.41,272.87L608.93,286.15L606.32,290.91z"/>
		<path id="C34019" title="Hunterdon" class="land" d="M190.7,418.6L190.38,417.09L189.85,415.76L186.03,412.68L179.38,404.51L177.59,402.78L173.5,401.33L171.03,400.05L163.51,398.77L161.52,399L159.4,400.08L155.12,404.06L153.41,404.67L151.19,404.66L148.6,404.21L145.57,403.02L144.18,401.98L142.01,399.52L141.35,398.5L141.04,397.32L140.94,396.76L141.12,395.62L142.61,393.13L142.86,391.35L142.78,390.7L146.5,389.22L160.06,371.87L174.49,366.29L186.87,353.97L209.99,338.49L215.55,338.58L224.42,330.16L228.58,330.21L259.02,291.04L283.09,313.29L311.93,319.92L322.95,325.81L325.5,343.77L320.58,353.15L324.85,360.17L322.53,370.36L330.96,375.65L322.75,392.16L327.38,394.46L322.86,403.65L315.89,409.84L303.01,435.49L294.56,429.27L300.48,443.34L313.77,475.55L290.42,479.34L292.94,495.39L266.71,498.97L271.97,514.71L238.44,517.27L238.13,516.8L237.62,514.39L237.26,509.35L236.21,505.58L234.29,499.86L230.31,490.17L229.72,489.11L228.14,487.88L223.06,485.52L222.01,484.76L220.68,483.33L217.79,482.44L216.91,482.66L215.09,483.79L209.73,485.42L206.81,486.02L205.44,485.8L202.23,484.33L200.28,482.76L199.73,481.9L198.42,480.79L194.69,479.64L193.63,478.63L192.61,476.21L192.06,470.86L190.31,463.32L189.1,459.85L189.1,459.25L190.36,454.9L190.07,453.06L190.18,450.91L191.51,448.9L192.33,446.57L192.44,444.06L192.27,441.36L191.15,434.78L190.87,431.72L190.92,427.27L191.22,423.9L190.71,418.64z"/>
		<path id="C34021" title="Mercer" class="land" d="M312.3,597.1L311.39,596.23L310.89,595.47L310.38,594.11L308.95,589.32L306.52,584.88L305.16,581.45L304.79,581L300.99,577.92L295.54,573.94L286.18,569.35L284.48,567.83L279.68,565.46L277.36,563.29L275.7,559.1L273.19,553.6L271.87,549.71L270.33,546.09L268.71,543.01L267.35,540.73L262.55,535.47L260.04,533.1L258.3,531.74L256.44,530.67L253.77,530.42L251.84,529.77L248.32,526.99L244.69,523.45L242.25,521.58L239.7,519.11L238.44,517.27L271.97,514.71L266.71,498.97L292.94,495.39L290.42,479.34L313.77,475.55L323.82,500.33L350.25,492.32L362.26,495.64L364.28,498.96L363.48,500.71L359.42,517.79L381.67,537.77L398.67,541.19L416.54,551.53L415.8,561.88L416.84,567.04L393.02,580.44L385.52,593.84L372.8,599.01L365.55,597.61L375.75,619.9L375.19,619.99L375.07,619.92L375.06,619.65L374.94,619.58L374.45,620.06L374.24,620.03L373.97,619.77L373.9,620.11L373.62,620.09L373.38,620.25L373.08,620.08L345.88,606.55L331.45,596.72L323.06,615.33L323.65,613.97L324.03,612.05L324.07,609.74L323.76,608.63L319.32,601.62L318,600.06L315.33,598.34L312.39,597.18z"/>
		<path id="C34023" title="Middlesex" class="land" d="M485.74,381.94L490.38,390.57L503.25,385.32L504.14,385.35L504.92,385.96L507.24,386.41L519.88,384.39L523.12,389.21L522.25,398.48L520,406.44L518.69,408.16L513.51,407.15L506.92,412.02L505.83,415.72L507.84,426.53L499.32,437.55L498.66,439.68L497.62,443.02L499.59,451.43L501.79,455.02L511.54,458.52L516.04,460.8L507.41,471.85L507.05,484.44L463.59,529.02L456.67,536.23L455.68,537.52L445.26,551.54L424.89,562.86L415.8,561.88L416.54,551.53L398.67,541.19L381.67,537.77L359.42,517.79L363.48,500.71L375.77,490.67L376.52,479.12L395.71,468.39L411.94,452.44L412.34,451.95L413.77,450.11L425.22,441.7L422.32,432.73L413.38,425.47L403.62,414.37L399.71,402.43L406.01,394.46L423.89,386.84L426.43,388.74L433.95,387.89L450.46,386z"/>
		<path id="C34025" title="Monmouth" class="land" d="M455.68,537.52L456.67,536.23L463.59,529.02L507.05,484.44L507.41,471.85L516.04,460.8L516.42,460.99L516.84,461.2L521.94,463.78L523.33,467.17L523.24,468.14L522.38,468.78L522.94,469.84L524.9,468.06L528.08,467.02L529.08,466.02L530.45,463.78L535.47,459.63L535.43,460.19L535.36,462.9L534.68,463.61L535.26,464.18L537.33,462.14L538.48,463.11L538.79,463.92L539.63,463.32L539.91,463.27L542.05,464.18L543.66,463.66L544.02,463.81L544.3,463.45L547.81,462.26L548.97,460.74L549.54,460.21L550.54,459.84L551.35,460.1L552.35,460.82L553.77,461.93L554.84,462.68L555.76,463.35L557.87,464.46L569,468.33L573.6,470.71L580.25,476.28L584.54,478.2L600.59,482.15L603.63,482.25L604.8,477.92L606.27,466.06L600.71,455.06L596.18,451.23L596.13,450.15L597.63,449.07L600.31,449.66L604.73,453L611.46,467.42L611.96,483.46L614.12,502.07L614.12,514.05L611.78,538.62L610.14,548.7L605.65,569.77L596.86,605.45L591.39,627.67L589.88,637.59L590.74,638.63L586,636.47L575.89,644.49L566.49,634.84L561.37,620.52L545.07,639.76L541.67,636.14L524.22,632.84L510.41,632.92L501.98,605.54L501.07,604.77L445.77,602.71L399.16,644.05L389.19,649.67L375.75,619.9L365.55,597.61L372.8,599.01L385.52,593.84L393.02,580.44L416.84,567.04L415.8,561.88L424.89,562.86L445.26,551.54z"/>
		<path id="C34027" title="Morris" class="land" d="M473.68,181.03L486.93,181.52L488.09,193.25L495.75,195.97L491.24,219.28L498.38,235.49L476.9,229.59L471.53,244.4L476.92,251.19L475.95,268.68L471.91,278.26L462.24,285.33L459.66,303.15L457.08,304.45L464.67,307.1L459.25,315.75L451.96,326.4L437.99,334.82L424.71,349.2L400.59,361.24L396.43,352.32L404.46,337.04L399.34,330.17L398.58,321.39L390.78,314.86L388.16,306.21L322.95,325.81L311.93,319.92L283.09,313.29L259.02,291.04L274.3,282.69L292.98,252.24L290.92,243.18L306.14,227.9L320.06,223.31L327.98,234.36L335.71,231.89L350.55,222.9L357.55,207.85L355.98,199.63L368.43,183.93L395.8,153.06L407.82,139.61L408.6,139.05L411.19,140.84L413.08,143.03L414.56,144.3L414.74,148.8L409.99,159.85L410.01,164.46L412.06,164.12L414.71,162.54L416.75,160.43L418.87,158.59L421.13,158.48L424.32,156.73L428.17,156L431.46,156.95L433.14,160.63L434.85,162.36L436.33,167.46L436.8,173.4L438.66,171.83L439.3,169.79L441.88,168.5L444.36,169.74L447.83,173.32L452.42,175.77L456.47,175.67L460.18,177L462.57,176.65L464.93,175.92L467.28,179.35L469.34,180.34L472.24,179.33z"/>
		<path id="C34029" title="Ocean" class="land" d="M441.66,911.35L441.03,905.8L448.07,903.86L452.05,892.07L452.29,803.2L434.99,762.4L389.19,649.67L399.16,644.05L445.77,602.71L501.07,604.77L501.98,605.54L510.41,632.92L524.22,632.84L541.67,636.14L545.07,639.76L561.37,620.52L566.49,634.84L575.89,644.49L586,636.47L590.74,638.63L590.95,638.89L590.09,639.4L587.81,648.5L580.32,688.85L578.26,699.95L573.19,734.2L567.89,789.89L565.52,805.99L565.59,808.41L564.81,810.16L563.83,811.84L559.11,819.58L548.25,845.26L529.21,877.44L510.06,912.52L506.76,915.98L495.81,932.92L490.31,936.09L482.79,936.59L482.24,940L476.85,936.78L455.81,940.67z"/>
		<path id="C34031" title="Passaic" class="land" d="M512.39,109.92L520.62,114.36L498.46,171.63L506.95,186.83L516.06,192.3L536.94,194.66L548.52,200.1L546.44,209.23L545.77,212.34L545.81,212.72L552.95,223.69L552.72,241.06L561.77,254.66L557.11,254.65L552.78,274.69L510.14,244.01L507.67,243.71L498.38,235.49L491.24,219.28L495.75,195.97L488.09,193.25L486.93,181.52L473.68,181.03L472.24,179.33L469.34,180.34L467.28,179.35L464.93,175.92L462.57,176.65L460.18,177L456.47,175.67L452.42,175.77L447.83,173.32L444.36,169.74L441.88,168.5L439.3,169.79L438.66,171.83L436.8,173.4L436.33,167.46L434.85,162.36L433.14,160.63L431.46,156.95L428.17,156L424.32,156.73L421.13,158.48L418.87,158.59L416.75,160.43L414.71,162.54L412.06,164.12L410.01,164.46L409.99,159.85L414.74,148.8L414.56,144.3L413.08,143.03L411.19,140.84L408.6,139.05L409.1,138.4L461.59,79.16L478.94,89.7L486.29,94.72z"/>
		<path id="C34033" title="Salem" class="land" d="M45.9,799.49L58.17,796.02L59.41,808.18L70.14,817.06L70.7,826.64L86.22,837.85L90.16,844.98L97.46,845.17L106,850.12L114.93,849.14L121.47,857.91L131.32,859.11L139.13,856.5L192.42,905.66L187.62,917.79L188.46,928.01L185.57,939.22L188.03,947.22L183.9,961.21L123.77,910.39L102.85,934L90.36,945.65L84.02,944.62L74.05,961.49L61.78,958.77L56.19,963.36L58.33,977.96L54.41,984.62L58.9,998.81L53.17,996.53L49.42,993.99L45.33,988.67L36.5,970.41L32.22,970.81L29.4,969.46L20.86,963.43L19.81,960.33L8.96,959.62L6.47,954.69L5.9,950.12L6.54,941.65L12.19,940.88L12.56,939.88L11.7,939.33L11.4,937.26L11.46,934.54L12.74,926.64L12.69,924.24L12.35,922.33L10.84,921.55L9.9,919.62L10.55,918.33L13,915.73L15.69,912.28L17.35,908.68L18.44,906.18L18.13,900.99L17.16,899.61L15.46,898.37L14.7,898.45L13.12,897.96L11.01,896L9.72,894.8L8.66,893.52L7.76,892.87L7.6,892.8L6.05,891.99L5.49,891.6L2.36,888.99L1.45,887.08L1.11,886.65L0.82,885.4L1.06,883.92L0.45,881.35L0,877.89L0.2,875.47L0.06,875.09L1.3,872.54L3.47,871.04L4.8,869.73L6.79,866.99L7.88,866.94L9.46,866.39L12.71,862.43L12.67,862.13L12.86,861.78L14.41,859.58L15.96,858.03L17.39,855.68L18.51,852.83L19.44,847.32L19.28,846.92L19.55,842.72L20.28,841.49L21.49,840.82L24.5,839.27L26.4,834.41L27.48,832.55L28.76,832.06L29.57,832.21L30.11,832.69L31.19,833.06L31.7,832.46L31.99,830.79L31.78,829.68L31.85,827.6L32.55,825.6L32.57,824.42L33.04,822.21L34.95,818.13L36.1,814.57L36.1,814.55L37.34,810.77L37.23,809.32L38.73,807.01L41.48,805.41L43.41,803.25L43.11,802.93L42.91,802.85z"/>
		<path id="C34035" title="Somerset" class="land" d="M362.26,495.64L350.25,492.32L323.82,500.33L313.77,475.55L300.48,443.34L294.56,429.27L303.01,435.49L315.89,409.84L322.86,403.65L327.38,394.46L322.75,392.16L330.96,375.65L322.53,370.36L324.85,360.17L320.58,353.15L325.5,343.77L322.95,325.81L388.16,306.21L390.78,314.86L398.58,321.39L399.34,330.17L404.46,337.04L396.43,352.32L400.59,361.24L424.71,349.2L428.4,358.95L436.94,353.31L447.64,353.74L445.19,364.04L433.68,381.43L423.89,386.84L406.01,394.46L399.71,402.43L403.62,414.37L413.38,425.47L422.32,432.73L425.22,441.7L413.77,450.11L412.34,451.95L411.94,452.44L395.71,468.39L376.52,479.12L375.77,490.67L363.48,500.71L364.28,498.96z"/>
		<path id="C34037" title="Sussex" class="land" d="M229.09,134.69L228.97,134.24L228.21,133.85L227.2,134.12L225.94,134.88L223.61,137.03L222.27,137.7L220.92,137.87L219.86,137.69L219.55,137.4L219.59,135.79L223.26,127.63L224.17,126.52L226.86,125.03L228.25,124.76L229.42,124.86L230.19,124.57L236.53,119.8L236.75,119.35L236.6,118.4L237.63,116.99L243.01,114.78L246.09,112.34L253.02,103.38L254.36,100.45L254.6,99.18L255.17,98L259.14,94.2L261.96,90.5L263.37,87.09L263.45,85.56L265.09,81.44L267.7,76.21L270.37,71.75L270.66,70.92L270.78,70.19L270.2,69.26L267.88,66.93L267.66,66.47L268.13,64.24L269.73,61.43L269.87,59.4L271.62,55.61L272.07,55.04L272.58,54.82L274.78,54.47L275.57,53.38L275.98,52.55L276.31,50.96L275.74,49.15L275.81,48.38L277.81,44.33L278.89,41.1L280.55,39.14L282.1,36.02L285.26,32.62L287.65,31.43L289.07,30.4L291.07,27.84L296.6,24.01L296.82,23.49L296.67,22.23L295.34,19.96L295.64,18.99L296.77,17.94L297.94,17.52L300.84,17.03L303.43,16.98L304.71,16.59L306.59,14.81L307.83,13.27L309.06,8.77L310.75,6.4L311.8,5.8L318.61,5.6L320.64,5.87L324.3,5.15L329.1,2.41L330.67,1.73L332.16,1.47L334.35,0L354.99,12.59L368.21,20.34L409.88,46.2L426.12,55.99L456.55,76.09L461.59,79.16L409.1,138.4L408.6,139.05L407.82,139.61L395.8,153.06L368.43,183.93L355.98,199.63L357.55,207.85L350.55,222.9L335.71,231.89L327.98,234.36L320.06,223.31L306.14,227.9L297.89,217.97z"/>
		<path id="C34039" title="Union" class="land" d="M478.78,326L479.71,325.93L480.87,325.94L481.14,326.24L481.72,326.54L482.11,327L482.54,327.76L483.27,327.81L483.43,328.12L483.66,328.32L484.12,328.48L484.35,328.58L484.97,328.73L485.63,328.93L486.01,328.78L486.25,328.93L486.58,328.85L492.52,324.4L517.04,332.01L525.11,342.5L539.18,340.67L550.2,348.67L543.88,358.65L541.08,363.16L540.65,364.08L533.04,362.87L531.13,363.08L529.94,364.22L524.86,370.7L523.12,389.21L519.88,384.39L507.24,386.41L504.92,385.96L504.14,385.35L503.25,385.32L490.38,390.57L485.74,381.94L450.46,386L433.95,387.89L426.43,388.74L423.89,386.84L433.68,381.43L445.19,364.04L447.64,353.74L436.94,353.31L428.4,358.95L424.71,349.2L437.99,334.82L451.96,326.4L459.25,315.75z"/>
		<path id="C34041" title="Warren" class="land" d="M140.29,382.11L139.63,380.63L138.53,379.04L138.35,377.74L138.78,377.15L139.87,376.65L142.65,376.33L143.2,375.55L143.47,373.96L142.51,367.19L142.04,365.75L141.57,365.01L138.87,362.66L138.88,361.48L140.34,358.48L142.59,355.02L143.72,354.07L145.72,352.98L147.76,349.61L148.02,348.03L147.72,347L146.57,346.17L145.04,345.87L142.69,346.17L140.24,345.19L138.7,343.06L137.54,340.01L139.55,333L141.21,328.57L141.91,327.62L143.15,326.56L144.32,323.51L145.82,320.48L145.98,319.67L145.7,318.59L144.55,316.75L140.85,312.58L140.47,311.73L140.27,310.23L140.39,309.45L142.22,307.31L145.61,305.53L147.16,304.23L147.76,303.04L148,300.76L148.48,298.62L149.36,296.99L150.04,296.17L150.84,295.8L153.11,295.84L158.63,297.67L162.6,298.27L164.42,298.19L164.84,298.01L165.55,297.08L167.72,292.97L168.79,291.59L171.21,290.26L173.33,289.99L174.43,289.38L177.41,284.95L177.61,284.25L177.66,283.32L177.43,282.05L177.61,280.99L178.38,279.61L179.21,278.63L181.39,276.75L183.37,273.66L183.93,272.39L183.97,270.69L183.32,269.53L179.68,265.96L178.88,264.82L178.66,263.99L178.65,262.94L178.79,262.11L179.35,260.88L181.21,259.81L186.73,259.46L187.95,259.93L189,260.72L190.86,260.62L191.51,260.24L193,257.86L195.78,254.35L196.65,251.42L196.73,250.19L196.47,249.09L195.64,247.34L193.71,245.31L192.35,242.95L191.08,241.22L187.8,237.91L187.25,236.9L187.02,236.12L187.31,233.85L186.96,230.34L186.63,228.89L185.73,226.84L179.45,221.61L178.6,220.33L175.58,215.42L175.34,213.7L173.2,209.4L170.85,206.89L170.41,205.19L170.03,202.49L169.86,201.99L169.73,201.28L170.07,200.01L169.82,199.1L169.79,199.06L168.98,198.16L166.48,198.75L165.59,198.6L164.66,197.74L163.98,196.29L163.98,194.73L164.93,193.04L165.3,191.82L165.53,190.62L165.49,188.59L165.9,187.47L167.2,186.01L168.66,184.9L173.62,181.81L174.19,180.83L177.46,179.5L179.44,178.4L181.46,176.13L181.67,175.5L185.03,174.33L187.39,174.18L189.11,173.42L200.66,166.71L203.05,164.16L204.51,163.31L206.42,162.6L206.55,162.14L206.19,160.24L206.45,159.19L208.97,155.88L209.72,154.59L210.25,153.2L210.48,151.67L211.53,149.08L212.08,148.45L213.92,148.43L216.53,145.16L218.38,143.83L220.51,142.93L223.12,142.49L227.6,139.36L228.61,138.08L229.24,135.21L229.09,134.69L297.89,217.97L306.14,227.9L290.92,243.18L292.98,252.24L274.3,282.69L259.02,291.04L228.58,330.21L224.42,330.16L215.55,338.58L209.99,338.49L186.87,353.97L174.49,366.29L160.06,371.87L146.5,389.22L142.78,390.7L142.03,385.1L140.63,383.01z"/>
	</g>
</svg>