<?xml version="1.0" encoding="utf-8"?>
<!-- (c) ammap.com | SVG map of NY Counties -->
<svg xmlns="http://www.w3.org/2000/svg" xmlns:amcharts="http://amcharts.com/ammap" xmlns:xlink="http://www.w3.org/1999/xlink" version="1.1">
	<defs>
		<style type="text/css">
			.land
			{
				fill: #CCCCCC;
				fill-opacity: 1;
				stroke:white;
				stroke-opacity: 1;
				stroke-width:0.5;
			}
		</style>

		<amcharts:ammap projection="mercator" leftLongitude="-79.762515" topLatitude="45.016108" rightLongitude="-71.855807" bottomLatitude="40.495733"></amcharts:ammap>

		<!-- All areas are listed in the line below. You can use this list in your script. -->
		<!--{id:"C36001"},{id:"C36003"},{id:"C36005"},{id:"C36007"},{id:"C36009"},{id:"C36011"},{id:"C36013"},{id:"C36015"},{id:"C36017"},{id:"C36019"},{id:"C36021"},{id:"C36023"},{id:"C36025"},{id:"C36027"},{id:"C36029"},{id:"C36031"},{id:"C36033"},{id:"C36035"},{id:"C36037"},{id:"C36039"},{id:"C36041"},{id:"C36043"},{id:"C36045"},{id:"C36047"},{id:"C36049"},{id:"C36051"},{id:"C36053"},{id:"C36055"},{id:"C36057"},{id:"C36059"},{id:"C36061"},{id:"C36063"},{id:"C36065"},{id:"C36067"},{id:"C36069"},{id:"C36071"},{id:"C36073"},{id:"C36075"},{id:"C36077"},{id:"C36079"},{id:"C36081"},{id:"C36083"},{id:"C36085"},{id:"C36087"},{id:"C36089"},{id:"C36091"},{id:"C36093"},{id:"C36095"},{id:"C36097"},{id:"C36099"},{id:"C36101"},{id:"C36103"},{id:"C36105"},{id:"C36107"},{id:"C36109"},{id:"C36111"},{id:"C36113"},{id:"C36115"},{id:"C36117"},{id:"C36119"},{id:"C36121"},{id:"C36123"}-->

	</defs>
	<g>
		<path id="C36001" title="Albany" class="land" d="M772.82,446.37L771.34,449.76L771.46,454.24L710.73,464L709.55,464.19L709.37,461.97L712,453.19L714.06,448.99L714.43,443.4L712.38,439.15L713.35,434.8L718.58,427.24L721.65,418.77L722.3,410.06L720.29,407.83L750.99,402.63L751.24,402.61L768.12,399.94L768.15,399.27L773.28,397.97L777.4,392.26L779.33,391.94L779.7,395.34L783.76,399.86L785.26,398.5L783.53,406.9L782.61,408.04L781.94,413.08L776.25,422.49L774.35,428.74L775.53,436.39L774.74,442.04z"/>
		<path id="C36003" title="Allegany" class="land" d="M200.73,534.92L192.39,535.03L187.63,534.95L187.49,448.71L187.56,448L187.54,444.31L222.2,444.35L222.45,444.25L221.79,444.79L247.94,444.91L248,452.44L263.14,453.03L262.73,464.73L262.3,464.73L262.1,464.75L259.66,535.06L250.25,535.1L249.06,535.11L227.71,535.07L223.39,534.96L223.36,534.95L211.29,534.77z"/>
		<path id="C36005" title="Bronx" class="land" d="M772.79,730.42l0.36,-0.15l0.54,0.51l0.16,0.53l-0.12,1.57l-0.47,0.05l-0.44,-0.59l-0.09,-1.14L772.79,730.42zM766.36,725.02l5.12,1.73l-0.16,0.43l-0.09,1.61l-0.42,1.8l0.09,0.74l0.43,0.4l0.33,0.75l0.01,0.47l-0.02,0.38l0.14,0.59l-0.18,0.22l-0.17,0.14l-0.2,-0.21l-0.36,-0.69l-0.36,-0.77l0.2,-0.82l-0.35,-0.75l-0.2,0.04l-0.45,0.58l-0.29,0.71l-0.95,-0.25l-0.76,0.47l-0.36,1.97l0.05,0.69l0.43,0.97l0.95,1.16l0.93,0.5l1.47,2.5l-5.75,-0.39l-4.67,1.61l-0.55,1.13l-1.79,0.06l-0.65,-0.13l-0.09,-0.47l-0.21,-0.04l-0.98,-0.36l-1.64,-0.62l-2.48,-2l-0.22,-4.28l3.41,-6.84l-3.41,-1.47l0,0l0.57,-1.28l0.29,-0.98l0.91,-3.08l0.17,-0.68l0.06,-0.02l12.11,4.71h0.06l-0.01,-0.09l0.06,-0.04L766.36,725.02z"/>
		<path id="C36007" title="Broome" class="land" d="M568.11,534.95L558.77,534.96L558.22,534.96L552.94,534.95L552.16,534.98L552.09,534.98L535.75,535.03L518.73,535.22L502.16,535.05L488.02,535.02L487.65,535.02L471.81,535.05L471.13,515.38L470.75,508.28L470.47,502.69L474.27,502.47L474.52,501.3L475,494.9L473,490.22L475.06,490.11L474.15,486.52L472.49,486.58L472.35,481.02L470.96,479.59L470.68,471.16L468.67,463.63L482.54,463.22L482.71,463.86L503.01,462.7L504.56,474.94L505.63,489.83L506.58,492.53L510.22,491.68L532.14,491.74L532.3,500.96L545.76,501.02L560.51,501.06L560.35,508.79L560.08,527.58L562.6,533z"/>
		<path id="C36009" title="Cattaraugus" class="land" d="M108.82,535.18L100.53,535.03L91.58,534.99L90.44,534.98L90.51,441.41L95.07,441L100.08,445.78L103.17,449.8L108.61,455.87L109.97,457.18L113.01,458.35L117.05,457.85L121.15,456.47L126.89,455.76L128.34,454.33L130.95,452.52L134.25,450.96L137,450.77L139.15,451.57L141.06,450.08L144.63,448.88L147.67,447.31L150.94,446.08L153.19,446.04L155.46,445.9L157.3,445.31L160.05,444.54L162.25,443.2L164.62,442.05L166.59,442.14L167.52,441.67L167.44,444.67L187.54,444.31L187.56,448L187.49,448.71L187.63,534.95L150.4,534.87L130.64,535.18L114.51,535.27z"/>
		<path id="C36011" title="Cayuga" class="land" d="M421.04,343.23L421.99,359.59L425.72,359.35L427.35,387.55L439.4,386.9L446.01,393.23L449.94,398.99L450.02,400.6L451.2,426.43L426.31,427.3L426.27,425.77L406.2,426.69L399.46,426.46L397.04,418.27L392.6,413L391.06,409.45L389.97,397.42L392.62,391.11L392.4,383.37L390.31,377.66L390.72,370.16L390.4,365.68L393.69,357.29L393.36,356.24L392.84,349.44L394.84,346.32L394.45,338.38L392.24,299.87L395.35,299.74L397.09,298.28L399.06,295.83L402.54,289.69L404.07,287.54L405.84,286.52L407.4,315.79L423.38,315.25L423.63,320.39L424.42,334.76L422.72,335.25L424.36,342.16z"/>
		<path id="C36013" title="Chautauqua" class="land" d="M19.53,535.03L17.66,535.01L17.66,535.02L11.88,534.97L0.1,535.01L0.05,531.56L0.06,514.25L0,512.12L0.04,508.75L0.05,506.67L0.03,504.83L0.03,503.72L0.04,503.04L0,492.72L0.02,491.28L0.03,488.07L5.72,485.49L15.07,480.11L21.7,475.59L27.86,471.8L32.41,468.5L37.08,464.68L39.82,463.49L42.97,460.49L46.03,456.15L49.06,453.85L51.62,451.46L52.93,449.94L54.18,449.81L55.1,450.04L55.57,449.91L56.66,448.92L57.35,448.03L61.78,446.05L64.2,443.97L67.01,442.47L69.55,441.71L73.41,440L79.16,438.64L80.47,436.76L80.71,435.85L85.87,436.74L90.51,441.41L90.44,534.98L75.31,534.95L66.12,535.06L37.38,535.15L28.87,535.11L27.2,535.08z"/>
		<path id="C36015" title="Chemung" class="land" d="M365.84,534.56L364.55,534.56L363.84,534.58L360.86,534.63L360.85,534.63L360.94,486.57L360.98,485.01L376.7,483.91L390.76,483.92L390.92,491.85L396.98,491.81L396.99,493.67L401.84,493.58L402.59,494.34L405.52,491.75L405.55,485.81L416,486L416.24,507.93L412.87,507.87L412.74,508.44L413.69,512.91L414.42,521.07L415.59,525.9L413.04,533.21L413.51,534.83L413.45,534.82L388.73,534.56L380.19,534.56L377.71,534.54L366.65,534.54L366.51,534.56z"/>
		<path id="C36017" title="Chenango" class="land" d="M545.76,501.02L532.3,500.96L532.14,491.74L510.22,491.68L506.58,492.53L505.63,489.83L504.56,474.94L503.01,462.7L499.68,408.9L559.19,405.13L559.28,406.41L576.33,405.36L575.96,407.71L576.29,409.04L575.71,410.48L574.27,413.89L572.99,416.2L572.04,417.66L571.85,419.99L572.52,422.44L572.27,424.81L572.75,426.61L570.82,428.75L571.68,431.76L572.15,433.33L572.09,434.61L571.68,436.05L570.67,437.39L569,438.28L567.65,438.68L566.51,441.21L564.81,444.16L562.77,446.46L563.09,448L562.61,451.24L563.29,454.9L565.34,460.79L565.92,462.8L564.06,465.19L562.61,469.87L563.65,473.42L562.25,477.23L560.94,479.66L560.92,480.37L560.51,501.06z"/>
		<path id="C36019" title="Clinton" class="land" d="M740.01,3.65L759.73,2.66L774.13,2.29L785.43,2.35L790.04,2.25L816.15,1.21L828.31,0.91L827.4,3.92L826.98,4.67L826.83,5.18L826.89,5.78L827.05,6.4L827.4,7.21L828.1,8.25L828.88,9.09L828.94,9.29L828.98,10.06L828.77,13.18L828.91,16.68L828.85,17.84L828.57,18.4L827.7,19L826.95,19.72L826.62,20.24L826.38,20.81L826.09,21.56L825.85,22.6L825.3,25.59L824.96,27.1L824.59,27.88L824.11,28.18L823.58,28.85L823.37,30.35L823.38,31.03L823.62,32.3L823.72,32.42L824.15,32.61L824.67,33.62L824.89,33.91L825.4,34.4L826.38,34.97L826.79,35.3L826.98,35.5L827.4,36.22L829.3,38.36L829.43,38.8L829.5,39.34L829.6,41.23L829.52,41.88L829.27,42.44L828.17,43.49L827.8,44.09L827.59,44.95L826.86,47.29L826.43,48.07L825.64,49.11L825.42,49.74L825.48,52.66L825.42,57.25L825.96,58.14L825.96,58.29L825.45,59.56L824.82,60.04L824.88,60.24L825.18,60.69L825.2,61.19L824.7,61.37L824.61,61.47L824.49,62.96L824.83,63.44L824.89,63.91L824.77,64.08L824.45,64.05L824.31,64.11L823.67,65.12L823.69,65.41L823.81,65.65L823.81,65.82L823.15,67.11L823.74,67.89L823.58,68.09L822.68,68.81L822.63,68.96L822.79,69.77L822.71,70.52L822.6,71.1L822.27,71.84L822.23,72.06L822.29,72.27L823.17,73.18L823.46,74.43L823.96,75.45L824.03,75.88L823.96,76.2L823.82,76.49L823.34,77.08L823.31,77.31L823.84,78.07L824.11,78.62L824.28,79.81L825.19,81.24L825.94,81.97L826.12,82.14L826.55,82.98L826.75,83.16L827.42,83.43L828.34,84.06L828.88,84.76L828.89,84.98L828.89,84.98L812.73,86.63L813.27,89.81L809.58,93.5L808.51,95.94L805.75,95.47L800.97,96.57L798.87,99.67L793.15,101.65L791.42,100.93L786.22,103.99L782.17,103.23L755.2,106.09L752.2,79.68L750.53,79.92L747.92,55.65L745.3,55.9L742.68,32.5L742.33,20.42z"/>
		<path id="C36021" title="Columbia" class="land" d="M752.63,521.21L755.07,512.81L757.38,505.98L759.71,504.72L762.23,501.69L763.19,494.93L764.81,492.89L768.97,490.88L771.05,487.52L771.86,482.3L771.63,478.49L770.09,469.77L772.48,460.22L772.42,454.66L771.46,454.24L827.1,446.26L807.02,519.92L808.47,526.25L805.3,526.2L804.57,538.66L780.85,533.9L775.56,531.03L755.45,521.07L754.44,520.85z"/>
		<path id="C36023" title="Cortland" class="land" d="M452.77,464.11L451.2,426.43L450.02,400.6L475.12,399.07L475.12,398.79L498.88,397.15L499.68,408.9L503.01,462.7L482.71,463.86L482.54,463.22L468.67,463.63z"/>
		<path id="C36025" title="Delaware" class="land" d="M614.86,548.94L595.61,560.62L594.78,561.02L594.31,561.06L593.66,560.8L593.32,560.5L593.06,560.1L592.73,559.17L592.82,557.83L592.68,557.27L592.5,557.04L591.98,556.86L591.72,556.91L591.39,557.33L591.22,558.06L590.99,558.67L590.77,558.96L590.6,559.06L590.38,559.03L590.13,558.83L589.96,558.62L589.8,558.17L589.42,557.79L588.98,557.52L588.18,557.34L587.44,557.45L586.77,557.76L586.1,558.95L585.64,559.48L585.38,559.48L584.62,559.14L584.24,558.77L583.7,558.06L583.39,557.82L583.11,557.86L582.5,558.47L582.09,558.69L581.24,558.67L580.89,558.39L580.6,557.97L580.48,557.64L580.47,557.19L580.77,556.75L581.16,556.44L581.27,556.09L580.88,554.94L580.57,554.71L579.95,554.56L579.5,554.32L579.33,553.32L579.31,552.64L579.95,551.8L579.98,550.92L579.7,550.17L578.97,548.76L578.82,548.3L578.83,547.53L578.73,546.33L578.49,545.41L577.17,544.73L576.96,544.36L576.86,544L576.9,543.07L576.61,542.7L575.98,542.72L575.74,542.83L575.59,543.01L575.64,543.69L575.58,543.78L575.28,543.81L574.46,543.67L574.14,543.47L573.45,542.77L573.21,541.62L572.91,541.48L572.01,540.35L571.18,539.99L570.7,539.9L570.35,539.54L570.32,539.3L570.92,537.55L570.94,537.15L570.49,536.1L569.79,535.66L568.89,535.35L568.11,534.95L562.6,533L560.08,527.58L560.35,508.79L560.51,501.06L560.92,480.37L563.54,480L565.56,479.45L571.18,479.84L572.79,479.17L574.42,479.08L575.41,477.89L576.35,476.74L577.68,475.6L578.9,474.54L579.49,473.32L579.99,472.23L581.14,471.27L582.45,471.13L584.48,471.54L586.41,471.11L587.26,469.77L589.5,469.34L608.73,460.2L612.71,456.68L613.38,456.86L614.26,457.41L614.94,458.33L615.69,458.13L616.1,457.43L616.8,457.26L617.74,453.68L619.77,453.17L619.94,454.5L634.62,445.81L643.96,447.23L646.54,445.48L651.73,444.9L663.69,461.18L686.32,473.26L688.29,474.29L674.21,499.95L685.26,505.54L678.51,509.75L675.03,509.48L672.11,513.81L642.81,532.02z"/>
		<path id="C36027" title="Dutchess" class="land" d="M750.72,584.11L751.15,581L751.15,580.43L751.18,577.27L749.79,574.46L750.2,560.65L751.25,556.84L748.42,551.96L748.14,549.87L748.96,548.48L749.63,542.28L752.15,531.65L751.64,529.7L752.63,521.21L754.44,520.85L755.45,521.07L775.56,531.03L780.85,533.9L804.57,538.66L805.3,526.2L808.47,526.25L809.71,526.26L809.41,534.83L808.97,542.02L808.52,548.27L808.29,553.43L807.81,559.27L807.43,565.21L807.42,565.3L806.65,576.51L806.53,579.58L805.9,588.77L805.71,592.35L805.48,596.75L805.35,600.43L804.19,616.34L797.72,616.48L784.06,618.78L752.09,623.02L745.94,631.49L743.53,628.47L743.86,623.21L745,613.93L748.79,608.72L749.57,605.55L750.34,592.22L750.97,589.37L750.84,588.3L750.54,587.39L750.43,586.73z"/>
		<path id="C36029" title="Erie" class="land" d="M80.71,435.85L81.62,432.33L82.06,432.14L82.62,431.56L83.67,429.51L83.98,428.22L88.18,423.56L88.89,423.57L90.12,422.73L90.31,418.61L92.04,414.97L95.91,412.8L97.55,412.28L99.49,412.14L105.55,407.48L108.91,406.55L115.31,400.78L117.26,398.38L117.53,397.01L116.87,395.52L116.5,395.45L115.94,393.28L115.68,390.88L116.36,389.41L116.48,388.32L115.69,386.39L114.84,386.22L113.5,383.77L112.33,380.69L109.64,380.39L110.51,378.04L110.52,373.93L110.07,372.19L108.82,369.8L108.52,369.53L107.08,368.22L103.28,367.89L101.57,365.95L96.86,363.05L95.77,361.38L95.65,357.95L96.83,355.37L97.68,352.19L97.64,350.4L96.99,349.14L95.82,348.8L105.41,348.68L111.73,352.7L112.52,356.6L119.08,357.04L120.44,355.16L120.73,353.85L124.48,348.82L131.74,347.29L134.38,346.07L136.03,345.4L138.71,345.64L140.35,345.69L142.59,345.61L143.94,345.64L144.16,344.86L145.26,344.04L146.06,344.19L147.19,345.42L147.88,346.36L149.06,347.16L149.97,347.78L151.03,347.53L152.22,346.87L152.65,345.47L153.26,345.29L154.62,344.36L154.8,343.59L155.8,344.19L156.42,343.58L157.45,343.75L156.99,344.54L157.69,345.12L158.59,344.99L159.2,344.76L159.99,344.88L161.01,344.4L161.37,343.64L162.17,343.97L162.53,344.85L163.01,345.65L164.08,345.79L165.54,345.62L166.3,345.78L166.94,345.69L167.46,344.86L167.53,373.76L167.46,383.74L164.64,383.69L164.4,398.95L167.61,398.99L167.52,441.67L166.59,442.14L164.62,442.05L162.25,443.2L160.05,444.54L157.3,445.31L155.46,445.9L153.19,446.04L150.94,446.08L147.67,447.31L144.63,448.88L141.06,450.08L139.15,451.57L137,450.77L134.25,450.96L130.95,452.52L128.34,454.33L126.89,455.76L121.15,456.47L117.05,457.85L113.01,458.35L109.97,457.18L108.61,455.87L103.17,449.8L100.08,445.78L95.07,441L90.51,441.41L85.87,436.74z"/>
		<path id="C36031" title="Essex" class="land" d="M828.8,85.4L828.84,85.62L829.8,86.95L829.89,87.25L829.93,87.83L830.07,88.16L830.2,88.29L830.79,88.53L831.03,88.87L831.15,89.84L831.11,90.46L831.19,90.97L831.39,91.27L832.21,92.12L833.01,93.37L833.24,94.83L833.31,96L833.89,97.63L834.01,98.6L834.04,99.92L833.86,101.59L834.49,103.18L834.7,104.14L834.67,104.68L834.39,106.34L832.52,110.97L832.27,112.39L831.94,113.51L831.68,113.96L831.17,114.56L829.96,115.76L829.54,116.43L829.37,117.84L829.41,119.2L830.35,121.45L830.63,122.5L830.78,123.34L830.8,124.86L830.71,125.96L830.75,127.62L831,129.15L831.7,131.64L832.29,133.01L832.45,134.05L832.22,135.65L832.14,135.85L831.73,137.01L831.32,138.49L830.83,139.5L830.69,139.55L830.09,139.39L829.94,139.44L829.48,140.02L829.13,140.28L828.3,140.55L828.42,141.18L827.44,141.93L827.32,142.72L826.81,143.14L826.75,143.27L826.74,143.87L826.4,144.47L825.94,145.52L825.87,145.84L824.76,146.56L824.53,146.99L824.16,147.4L823.85,147.47L823.26,147.88L823.04,148.6L822.87,148.7L822.46,148.75L822.19,149.01L822.16,149.34L822.31,150.74L822.21,151.06L821.51,151.72L821.37,152.07L821.31,152.47L821.4,152.97L821.57,153.31L821.55,153.45L821.14,154.15L821.02,155.39L820.66,157.08L820.55,157.36L819.92,158.25L819.46,158.52L818.94,159.42L818.94,159.65L819.2,160.63L819.46,162.16L819.51,163.03L818.87,165.4L817.2,168.98L817.07,170.36L816.84,171.84L816.1,175.14L816.21,175.58L817,176.26L817.36,176.45L817.99,177.33L818.37,177.47L819.12,177.91L819.58,178.37L819.97,179.38L820.2,180.29L820.2,181.14L819.52,185.66L819.35,186.28L819.34,186.77L819.52,187.55L820.09,189.03L820.26,192.34L819.86,195.17L819.97,195.72L820.85,198.01L821.33,200.04L821.5,200.51L823.1,202.67L824.03,204.57L824.32,205.41L824.31,205.66L823.64,207.36L823.36,208.32L823.29,209.08L823.42,209.5L824.36,210.38L824.53,210.64L824.55,210.8L824.37,211.29L823.99,211.87L823.31,212.23L822.47,213.11L822.24,213.65L821.91,214.93L821.94,215.18L822.22,215.79L823.13,216.51L823.45,216.93L823.64,217.37L816.68,218.15L816.34,218.2L816.05,218.23L760.49,225.51L736.19,228.76L737.47,219.53L732.5,217.3L730.4,217.99L725.65,215.72L724.31,213.6L717.38,215.26L715.97,216.94L700.08,196.55L710.51,188.59L707.18,161.62L731.48,158.56L727.09,123.99L725.3,110.13L755.2,106.09L782.17,103.23L786.22,103.99L791.42,100.93L793.15,101.65L798.87,99.67L800.97,96.57L805.75,95.47L808.51,95.94L809.58,93.5L813.27,89.81L812.73,86.63L828.89,84.98z"/>
		<path id="C36033" title="Franklin" class="land" d="M755.2,106.09L725.3,110.13L727.09,123.99L731.48,158.56L707.18,161.62L674.49,165.43L673.29,152.86L675.71,152.64L674.34,138.39L660.72,11.5L650.6,11.43L649.83,3.82L650.31,3.24L652.96,2.28L655.29,2.94L656,2.87L656.7,2.71L657.43,2.58L658.19,2.96L672.7,3.12L684.51,3.42L700.3,4.36L713.33,4.31L724.6,4.43L740.01,3.65L742.33,20.42L742.68,32.5L745.3,55.9L747.92,55.65L750.53,79.92L752.2,79.68z"/>
		<path id="C36035" title="Fulton" class="land" d="M706.22,363.2L680.47,363.08L673.56,363.01L645.49,352.12L643.71,345.79L644.73,344.6L644.2,340.52L649.57,338.41L648.83,335.08L652.06,334.18L650.9,331.46L652.16,330.09L653.74,329.77L651.59,310.04L651.54,309.53L674.56,320.28L701.43,317.9L701.95,322.65L715.04,321.47L714.62,316.74L725.46,315.72L730.97,363.46z"/>
		<path id="C36037" title="Genesee" class="land" d="M167.53,373.76L167.46,344.86L167.47,344.36L167.32,337.83L174.37,337.47L227.74,337.06L239.53,336.96L233.71,353.51L239.76,353.95L239.02,362.61L238.82,370.12L235.87,370.02L235.75,377.1L233.13,377L233.2,384.56L227.99,384.17L217.82,384.39L217.82,383.26L167.46,383.74z"/>
		<path id="C36039" title="Greene" class="land" d="M686.32,473.26L694.63,469.98L698.89,473.14L707.85,471.81L711.97,469.41L710.73,464L771.46,454.24L772.42,454.66L772.48,460.22L770.09,469.77L771.63,478.49L771.86,482.3L771.05,487.52L768.97,490.88L764.81,492.89L763.19,494.93L762.23,501.69L759.71,504.72L757.38,505.98L755.07,512.81L754.08,512.53L743.23,504.19L743.08,506.55L740.34,506.77L738.08,505.33L733.9,518.13L703.86,515.05L685.26,505.54L674.21,499.95L688.29,474.29z"/>
		<path id="C36041" title="Hamilton" class="land" d="M651.59,310.04L631.58,300.55L643.46,274.56L633.33,170.65L674.49,165.43L707.18,161.62L710.51,188.59L700.08,196.55L715.97,216.94L717.38,215.26L724.31,213.6L725.65,215.72L730.4,217.99L732.5,217.3L737.47,219.53L736.19,228.76L715.85,231.58L722.89,294.94L725.46,315.72L714.62,316.74L715.04,321.47L701.95,322.65L701.43,317.9L674.56,320.28L651.54,309.53z"/>
		<path id="C36043" title="Herkimer" class="land" d="M603.3,286.9L600.29,251.75L592.55,165.84L606.41,174.18L633.33,170.65L643.46,274.56L631.58,300.55L651.59,310.04L653.74,329.77L652.16,330.09L650.9,331.46L652.06,334.18L648.83,335.08L649.57,338.41L644.2,340.52L644.73,344.6L643.71,345.79L645.49,352.12L647.57,355.06L648.05,360.76L645.05,384.48L630.14,378.33L628.1,389.95L626.54,391.19L601.48,376.56L596.46,385.09L587.33,385.65L587.13,381.54L588.51,381.42L586.23,351.23L589.24,346.82L590.98,347.21L590.57,344.9L593.74,340.27L605.58,320.42L605.48,319.43L602.78,319.86L598.68,318L596.09,315.54L593.62,315.12L595.36,309.54L595.41,306.68L599.04,306.77L601.62,303.14L604.63,302.16z"/>
		<path id="C36045" title="Jefferson" class="land" d="M439.57,159.34L439.99,158.63L445.12,147.55L448.49,146.7L453.25,146.63L453.79,146.72L458.79,144.77L460.78,143.56L464.27,140.27L464.58,132.88L468.58,130.03L469.14,130.4L470.22,130.35L471.02,129.78L472.91,129.5L479.63,123.72L484.39,121.54L485.34,120.88L487.74,120.9L488.27,121L488.71,121.12L488.95,121.58L489.32,121.72L491.98,120.59L493.25,119.47L494.57,118.71L495.5,117.62L496.7,117.18L502.05,112.37L503.53,110.85L553.72,142.21L554.28,142.78L554.65,142.86L556.94,144.21L544.07,164.77L551.98,169.92L549.63,174.02L549.75,181.48L543.54,181.73L544.45,188.95L540.03,189.4L536.61,188.31L516.68,204.84L506.04,203.91L504.75,220.33L512.98,220.96L514.56,238.66L482.23,235.43L482.63,242.35L459.6,240.2L458.96,233.35L457.96,227.16L455.88,218.15L453.19,214.3L451.02,212.1L449.62,211.54L448.91,211.05L448.76,209.8L448.99,208.44L449.82,207.6L450.73,206.66L451.71,205.82L453.23,205.4L454.06,204.98L455.2,205.09L456.11,205.5L457.17,206.97L459.37,207.31L460.59,206.55L462.16,205.06L465.05,203.27L466.69,203.07L468.27,202.3L469.04,201.43L469.33,198.77L468.64,195.15L468.22,193.85L468.13,192.91L468.14,191.28L467.52,189.96L466.62,189.5L463.56,189.94L461.61,188.35L456.04,186.28L454.9,187.14L453.93,187.51L452.91,187.51L452.14,187.46L451.36,187.12L450.79,186.61L450.79,185.46L451.05,183.98L450.67,182.98L449.09,181.55L448.33,181.15L447.17,180.81L446.89,180.02L446.73,179.12L446.81,177.65L447.15,175.06L446.69,172.96L446.21,172.56L438.97,170.51L438.91,167.51L438.11,165.23L438.52,163.2L439.25,161.12z"/>
		<path id="C36047" title="Kings" class="land" d="M748.35,751.09L748.56,751.19L749.39,750.82L750.38,751.12L757.8,760.16L759.8,758.47L760.46,758.3L761.55,765.17L765.05,769.61L764.91,773.21L762.92,776.34L759.13,778.71L751.47,780.15L750.7,779.72L749.99,778.93L748.79,779.05L744.66,779.44L743.28,779.4L742.38,779.02L742,778.74L741.87,778.12L742.61,777.2L742.73,777L743.34,776L743.12,775.14L742.14,774.29L739.31,773.68L738.44,772.23L738.08,770.22L738.6,768.15L738.92,767.52L739.41,766.55L741.19,764.43L740.91,761.08L740.59,760.66L741.05,760.95L742.5,759.75L743.04,759.34L744.24,756.78L747.44,755.95L748.37,753.63L748.51,753.43z"/>
		<path id="C36049" title="Lewis" class="land" d="M600.29,251.75L545.67,286.41L516.93,277.44L514.56,238.66L512.98,220.96L504.75,220.33L506.04,203.91L516.68,204.84L536.61,188.31L540.03,189.4L544.45,188.95L543.54,181.73L549.75,181.48L549.63,174.02L551.98,169.92L544.07,164.77L556.94,144.21L592.55,165.84z"/>
		<path id="C36051" title="Livingston" class="land" d="M239.02,362.61L262.11,362.51L263.79,365.27L261.92,370.08L258.48,370.92L281.54,370.31L284.09,374.27L285.93,384.05L285.21,386.09L280.55,386.1L280.52,402.05L277.5,402.02L279.16,417.98L293.6,418.27L293.08,434.52L271.27,433.98L271.09,441.89L263.44,441.89L263.14,453.03L248,452.44L247.94,444.91L221.79,444.79L222.45,444.25L221.05,441.25L219.57,442.28L221.2,437.9L223.04,436.14L221.16,434.17L224.44,433.19L226.59,430.76L223.59,429.97L227.7,427.84L230.43,423.91L231.42,419.58L233.02,418.79L233.2,384.56L233.13,377L235.75,377.1L235.87,370.02L238.82,370.12z"/>
		<path id="C36053" title="Madison" class="land" d="M500.4,333.08L502.49,334.64L506.12,332.21L511.54,332.47L515.3,330.55L519.31,331.47L523.26,333.8L523.23,336.18L526.99,338.13L528.09,340.19L531.89,343.19L531.7,346.05L537.15,349.66L536.15,350.93L537.49,354.24L543.18,353.86L544.28,372.45L557.19,372.22L558.1,384.46L582.51,383.01L582.92,383.53L582.57,384.22L583.6,389.57L581.83,396.32L582.06,398.27L576.33,405.36L559.28,406.41L559.19,405.13L499.68,408.9L498.88,397.15L496.06,345.26L488.64,344.47L491.88,336.67L488.96,334.46L489.18,333.24L488.43,332.71L488.77,331.74L487.7,329.89L486.75,330.26L486.8,328.84L486.32,328.17L486.44,327.86L487.16,328.08L487.46,328.83L488.11,329.23L488.9,328.79L490.69,328.76L490.72,329.43L491.2,330.15L491.6,330.34L494.1,329.35L495.1,331.99z"/>
		<path id="C36055" title="Monroe" class="land" d="M227.94,310.25L227.95,309.81L227.96,296.05L228.05,296.05L230.43,295.36L231.87,295.56L233.46,296.37L237.36,297.52L239.67,297.52L243.47,298.81L251.06,299.89L253.53,300.55L255.11,300.65L258.33,300.31L258.75,300.99L262.15,302.26L264.28,303.43L265.92,306.13L271.22,310.59L272.07,311.21L275.35,312.66L278.73,315.19L281.94,317.61L285.32,318.93L287.5,319.14L291.79,316.36L294.92,315.62L300.06,313.65L302.94,313.02L305.97,311.77L306.7,311.68L307.9,311.54L308.12,333.6L308.49,354.36L293.79,354.38L294.16,370.45L281.54,370.31L258.48,370.92L261.92,370.08L263.79,365.27L262.11,362.51L239.02,362.61L239.76,353.95L233.71,353.51L239.53,336.96L227.74,337.06z"/>
		<path id="C36057" title="Montgomery" class="land" d="M680.47,363.08L706.22,363.2L730.97,363.46L731.55,368.22L732.77,378.41L710.46,393.48L710.67,394.08L709.57,396.17L706.2,398.4L684.85,400.3L670.97,393.3L659.89,390.38L659.64,390.32L652.96,387.62L645.05,384.48L648.05,360.76L647.57,355.06L645.49,352.12L673.56,363.01z"/>
		<path id="C36059" title="Nassau" class="land" d="M775.25,776.73L777.46,775.62L773.61,770.11L777.12,768.36L776.84,766.3L778.82,765.71L778.91,756.46L778.35,753.72L781.27,752.76L782.18,750.16L782.15,749.53L782.04,748.57L776.23,743.84L773.43,740.39L773.45,740.38L775.29,736.96L775.24,735.96L778.61,731.53L778.82,730.87L778.3,729.4L778.44,729.22L780.5,728.6L785.41,730.83L786.04,730.54L787.95,729.66L788.15,727.23L789.86,724.78L790.81,723.83L791.68,723.62L792.9,723.88L794.92,723.04L795.79,722.28L799.04,720.9L799.53,720.83L801.87,722.04L805.58,721.09L806.13,721.34L808.08,720.43L808.45,719.64L811,723.65L813.98,734.72L815.69,746.56L817.78,761.03L817.9,772.75L814.47,773.83L800.02,777.18L797.26,776.68L793.76,776.51L789.14,777.33L782.11,777.2L775.19,777.06z"/>
		<path id="C36061" title="New York" class="land" d="M738.28,757.46l0.11,-0.1l0.08,0.04l0.18,0.25l-0.7,1.58l-0.13,0.21l-0.25,-0.12l-0.12,-0.22l0.05,-0.11L738.28,757.46zM752.14,726.57l3.41,1.47l-3.41,6.84l0.22,4.28l2.48,2l0.25,0.88l-0.74,0.74l-1.5,1.67l-0.92,-0.42l-3.58,7.05l0.16,2.34l-0.14,0.19l-0.93,2.32l-3.2,0.83l-1.2,2.56l-0.54,0.41l-1.45,1.2l-0.46,-0.29l-0.14,-0.19l-0.11,-0.79l0.4,-1.1l0.42,-0.33l0.22,-1.08l-0.35,-0.88l-0.65,-0.42l0.44,-3.05l0.95,-4.95l0.59,-1.19l1.16,-2.11l1.12,-2.04l0.87,-1.59l2.16,-3.95l0.63,-1.05l1.19,-3.58l0.74,-1.77l1.32,-2.77L752.14,726.57z"/>
		<path id="C36063" title="Niagara" class="land" d="M167.46,344.86L166.94,345.69L166.3,345.78L165.54,345.62L164.08,345.79L163.01,345.65L162.53,344.85L162.17,343.97L161.37,343.64L161.01,344.4L159.99,344.88L159.2,344.76L158.59,344.99L157.69,345.12L156.99,344.54L157.45,343.75L156.42,343.58L155.8,344.19L154.8,343.59L154.62,344.36L153.26,345.29L152.65,345.47L152.22,346.87L151.03,347.53L149.97,347.78L149.06,347.16L147.88,346.36L147.19,345.42L146.06,344.19L145.26,344.04L144.16,344.86L143.94,345.64L142.59,345.61L140.35,345.69L138.71,345.64L136.03,345.4L134.38,346.07L131.74,347.29L124.48,348.82L120.73,353.85L120.44,355.16L119.08,357.04L112.52,356.6L111.73,352.7L105.41,348.68L95.82,348.8L88.74,346.77L88.71,345.83L89.36,344.92L89.99,344.06L90.57,341.97L90.42,340.91L90.35,340.16L90.28,339.31L90.58,338.5L91.02,338.14L91.96,336.69L92.66,336.16L92.88,335.18L92.82,334.21L92.6,333.48L92.34,331.88L92.09,331.48L91.5,329.89L91.56,328.13L91.8,325.7L91.49,323.53L91.53,321.35L91.14,318.44L90.43,316.18L89.25,314.22L95.79,312.24L101.98,310.9L107.28,308.78L116.5,305.65L119.48,304.33L119.76,304.49L127.03,302.81L130.97,301.48L137.47,300.3L145.53,297.4L156.75,295.3L164.31,294.37L165.12,294.43L166.34,295.07L167.32,295L167.2,307.1L167.98,322.38L167.32,337.83L167.47,344.36z"/>
		<path id="C36065" title="Oneida" class="land" d="M582.51,383.01L558.1,384.46L557.19,372.22L544.28,372.45L543.18,353.86L537.49,354.24L536.15,350.93L537.15,349.66L531.7,346.05L531.89,343.19L528.09,340.19L526.99,338.13L523.23,336.18L523.26,333.8L519.31,331.47L515.3,330.55L511.54,332.47L506.12,332.21L502.49,334.64L500.4,333.08L503.16,304.18L500.08,303.17L509.39,275.11L516.93,277.44L545.67,286.41L600.29,251.75L603.3,286.9L604.63,302.16L601.62,303.14L599.04,306.77L595.41,306.68L595.36,309.54L593.62,315.12L596.09,315.54L598.68,318L602.78,319.86L605.48,319.43L605.58,320.42L593.74,340.27L590.57,344.9L590.98,347.21L589.24,346.82L586.23,351.23L588.51,381.42L587.13,381.54z"/>
		<path id="C36067" title="Onondaga" class="land" d="M450.02,400.6L449.94,398.99L446.01,393.23L439.4,386.9L427.35,387.55L425.72,359.35L421.99,359.59L421.04,343.23L424.36,342.16L422.72,335.25L424.42,334.76L423.63,320.39L441,319.48L445.61,319.79L448.04,321.8L449.2,325.05L451.65,321.98L449.91,318.4L452.05,318.63L453.9,322.67L456.5,324.37L459.82,323.03L458.29,317.48L459.33,312.62L463.65,317.01L470.72,319.5L476.53,322.73L474.67,322.74L475.29,325.33L479.52,324.86L485,329.34L486.32,328.17L486.8,328.84L486.75,330.26L487.7,329.89L488.77,331.74L488.43,332.71L489.18,333.24L488.96,334.46L491.88,336.67L488.64,344.47L496.06,345.26L498.88,397.15L475.12,398.79L475.12,399.07z"/>
		<path id="C36069" title="Ontario" class="land" d="M361.08,358.15L361.16,377.5L361.16,382.78L359.2,383.46L359.85,389.65L359.25,400.09L360.12,401.83L354.02,401.91L340.53,402.27L316.04,402.35L312.86,407.36L310.8,413.08L310.31,418.68L309.06,418.7L309.13,434.68L293.08,434.52L293.6,418.27L279.16,417.98L277.5,402.02L280.52,402.05L280.55,386.1L285.21,386.09L285.93,384.05L284.09,374.27L281.54,370.31L294.16,370.45L293.79,354.38L308.49,354.36L324.58,354.37L324.61,353.47L339.09,353.44L339.21,358.27z"/>
		<path id="C36071" title="Orange" class="land" d="M653.88,645.46L653.68,645.47L654.37,644.96L654.54,644.75L654.57,644.36L654.36,643.76L653.87,643.23L652.8,642.43L652.13,641.78L651.88,641.23L651.49,639.91L651.16,639.43L650.52,639.07L649.3,638.91L648.88,638.68L648.56,638.44L648.25,637.96L647.93,637.28L647.84,636.81L647.92,636.21L648.23,635.85L648.74,634.27L648.72,633.74L648.64,633.45L648.49,633.15L648.26,632.91L647.94,632.82L647.57,632.91L646.68,633.36L646.21,633.85L646.16,633.88L645.5,627.74L646.71,627.01L645.36,622.61L646.46,622.08L682.18,620.27L688.19,610.91L696.18,605.38L702.23,603.32L702.98,602.18L709.47,598.2L711.26,598.79L711.08,602.91L719.35,605.42L719.63,604.84L727.24,606.83L726.19,601.13L730.82,602.58L731.95,604.07L734.76,602.8L736.62,607.17L749.57,605.55L748.79,608.72L745,613.93L743.86,623.21L743.53,628.47L745.94,631.49L748.82,638.08L750.32,639.31L748.55,646.98L745.95,651.06L722.67,673.1L713.29,682.14L704.58,677.07L702.13,675.39L696.34,671.87L694.66,670.85L684.5,664.14L679.08,660.87L665.18,652.24L660.76,649.66z"/>
		<path id="C36073" title="Orleans" class="land" d="M227.95,309.81L227.94,310.25L227.74,337.06L174.37,337.47L167.32,337.83L167.98,322.38L167.2,307.1L167.32,295L179.61,294.06L181.1,294.51L195.05,295.06L197.24,295.38L208.65,294.24L213.9,294.22L224.34,295.82L227.96,296.05z"/>
		<path id="C36075" title="Oswego" class="land" d="M514.56,238.66L516.93,277.44L509.39,275.11L500.08,303.17L503.16,304.18L500.4,333.08L495.1,331.99L494.1,329.35L491.6,330.34L491.2,330.15L490.72,329.43L490.69,328.76L488.9,328.79L488.11,329.23L487.46,328.83L487.16,328.08L486.44,327.86L486.32,328.17L485,329.34L479.52,324.86L475.29,325.33L474.67,322.74L476.53,322.73L470.72,319.5L463.65,317.01L459.33,312.62L458.29,317.48L459.82,323.03L456.5,324.37L453.9,322.67L452.05,318.63L449.91,318.4L451.65,321.98L449.2,325.05L448.04,321.8L445.61,319.79L441,319.48L423.63,320.39L423.38,315.25L407.4,315.79L405.84,286.52L407.13,285.77L412.84,281.31L416.84,279.23L418.11,277.76L418.9,277.31L420.06,277.67L422.63,276.56L424.5,273.48L429.02,270.56L431.58,268.42L432.48,268.09L437.87,267.62L440.89,269.81L442.77,270.07L447.13,269.91L451.94,267.81L455.04,267.01L455.96,266.35L457.34,264.19L458.39,261.53L459.21,258.9L459.77,254.37L460.1,245.61L459.6,240.2L482.63,242.35L482.23,235.43z"/>
		<path id="C36077" title="Otsego" class="land" d="M645.05,384.48L652.96,387.62L659.64,390.32L659.89,390.38L657.69,396.99L657.34,401.83L657.41,404.2L661.65,422.2L662.17,425.9L656.78,436.76L651.73,444.9L646.54,445.48L643.96,447.23L634.62,445.81L619.94,454.5L619.77,453.17L617.74,453.68L616.8,457.26L616.1,457.43L615.69,458.13L614.94,458.33L614.26,457.41L613.38,456.86L612.71,456.68L608.73,460.2L589.5,469.34L587.26,469.77L586.41,471.11L584.48,471.54L582.45,471.13L581.14,471.27L579.99,472.23L579.49,473.32L578.9,474.54L577.68,475.6L576.35,476.74L575.41,477.89L574.42,479.08L572.79,479.17L571.18,479.84L565.56,479.45L563.54,480L560.92,480.37L560.94,479.66L562.25,477.23L563.65,473.42L562.61,469.87L564.06,465.19L565.92,462.8L565.34,460.79L563.29,454.9L562.61,451.24L563.09,448L562.77,446.46L564.81,444.16L566.51,441.21L567.65,438.68L569,438.28L570.67,437.39L571.68,436.05L572.09,434.61L572.15,433.33L571.68,431.76L570.82,428.75L572.75,426.61L572.27,424.81L572.52,422.44L571.85,419.99L572.04,417.66L572.99,416.2L574.27,413.89L575.71,410.48L576.29,409.04L575.96,407.71L576.33,405.36L582.06,398.27L581.83,396.32L583.6,389.57L582.57,384.22L582.92,383.53L582.51,383.01L587.13,381.54L587.33,385.65L596.46,385.09L601.48,376.56L626.54,391.19L628.1,389.95L630.14,378.33z"/>
		<path id="C36079" title="Putnam" class="land" d="M745.94,631.49L752.09,623.02L784.06,618.78L797.72,616.48L804.19,616.34L803.68,624.5L803.67,624.62L803.66,624.78L803.65,624.97L803.65,625.06L803.63,625.15L803.45,628.36L803.44,628.61L803.44,628.69L803.42,629.06L803.41,629.36L803.3,631.12L803.23,632.01L803.21,632.35L802.76,637.13L802.47,642.14L802.46,642.17L802.3,643.92L745.79,651.57L745.95,651.06L748.55,646.98L750.32,639.31L748.82,638.08z"/>
		<path id="C36081" title="Queens" class="land" d="M756.48,741.78L757.46,742.15L757.67,742.19L757.75,742.65L758.4,742.79L760.2,742.73L760.75,741.59L765.41,739.98L771.17,740.37L771.76,741.38L772.45,741.32L773.43,740.39L776.23,743.84L782.04,748.57L782.15,749.53L782.18,750.16L781.27,752.76L778.35,753.72L778.91,756.46L778.82,765.71L776.84,766.3L777.12,768.36L773.61,770.11L777.46,775.62L775.25,776.73L775.38,776.02L772.59,775.99L769.17,776.85L768.47,777.03L764.92,778.28L759.17,781.04L752,783.7L752,781.99L752.23,781.15L751.85,780.36L751.47,780.15L759.13,778.71L762.92,776.34L764.91,773.21L765.05,769.61L761.55,765.17L760.46,758.3L759.8,758.47L757.8,760.16L750.38,751.12L749.39,750.82L748.56,751.19L748.35,751.09L751.92,744.04L752.84,744.46L754.35,742.79L755.09,742.04L754.84,741.16z"/>
		<path id="C36083" title="Rensselaer" class="land" d="M771.46,454.24L771.34,449.76L772.82,446.37L774.74,442.04L775.53,436.39L774.35,428.74L776.25,422.49L781.94,413.08L782.61,408.04L783.53,406.9L785.26,398.5L785.68,397.27L785.83,396.3L787.46,392.24L784.25,379.36L784.99,375.87L788.63,371.31L790.59,370.78L814.44,370.2L817.02,367.73L823.52,370.35L837.19,370.36L837.18,370.57L837.17,370.94L837,378.51L836.63,389.71L835.9,389.44L835.76,389.59L835.54,392.04L835.97,393.14L835.64,394.16L835.04,395.23L836.92,405.02L838.4,405.03L827.1,446.26z"/>
		<path id="C36085" title="Richmond" class="land" d="M724.91,785.4L724.36,785.51L722.79,786.81L720.58,788.03L720.04,787.85L717.75,789.36L716.39,789.74L715.19,790.9L713.45,791.12L711.71,792L711.26,791.9L710.7,790.95L710.5,790L710.94,788.99L712.21,787.81L712.35,786.05L711.57,784L714,782.03L715.55,782.04L716.33,781.04L717.22,776.23L718.15,774.93L718.33,774.12L718.24,771.69L717.61,771.56L717.51,771.12L717.67,769.1L719.11,767.29L720.3,766.72L721.08,766.79L721.59,767.28L723.81,767.84L728.04,767.28L732.39,766.19L733.76,766.28L734.55,767.44L734.83,770.38L735.76,772.39L736.69,773.8L735.91,775.52L734.75,777.12L731.83,780.1L729.16,783.41L729.02,783.29L727.85,784.12L725.84,786.26L725.45,785.64z"/>
		<path id="C36087" title="Rockland" class="land" d="M750.26,668.44L755.25,678.46L758.11,683.81L757.11,692.46L757.14,694.58L757.82,700.1L757.23,706.98L756.11,706.96L755.81,706.91L755.54,706.76L754.92,706.28L738.25,696.43L738.25,696.43L731.61,692.54L731.06,692.22L720.01,685.77L716.04,683.62L713.29,682.14L722.67,673.1L745.95,651.06L745.79,651.57L750.44,656.83L747.82,660.9L747.32,664.2z"/>
		<path id="C36089" title="St. Lawrence" class="land" d="M633.33,170.65L606.41,174.18L592.55,165.84L556.94,144.21L554.65,142.86L554.28,142.78L553.72,142.21L503.53,110.85L508.59,105.63L510.27,98.54L515.63,90.57L520.69,85.7L524.62,81.23L529.03,76.84L534.71,71.83L539.55,66.61L549.23,56.38L552.87,53.64L559.8,47.11L561.1,44.83L563.28,44L564.52,42.81L566.46,42.26L567.23,41.1L569.79,38.19L571.44,38.04L574.96,34.46L574.81,32.52L577.97,30.28L579.89,29.2L581.54,28.74L583.37,27.05L585,26.88L586.31,25.5L588.31,25.13L589.19,24.44L590.21,24.1L593.2,22.27L596.06,21.01L597.22,18.91L599.05,17.82L600.94,17.21L602.04,16.14L605.96,15.58L606.77,14.78L611.01,12.6L613.84,10.45L614.55,9.08L614.6,8.04L615.44,6.98L618.06,5.9L621.39,5.67L626.38,5.91L627.32,4.2L628.98,2.88L630.35,2.64L631.46,2.65L632.33,2.38L633.29,1.9L634.36,1.01L635.84,0.21L636.89,0L637.78,0.54L638.6,0.42L639.62,0.88L640.39,1.22L641.2,2.04L644.35,2.17L645.45,3.8L647.46,4.6L649.18,4.63L649.83,3.82L650.6,11.43L660.72,11.5L674.34,138.39L675.71,152.64L673.29,152.86L674.49,165.43z"/>
		<path id="C36091" title="Saratoga" class="land" d="M779.33,391.94L777.4,392.26L773.28,397.97L768.15,399.27L766.5,399.02L761.81,392.06L759.57,389.56L758.8,386.65L756.98,386.61L755.89,376.07L749.3,378.5L742.82,372.15L736.39,368.67L731.55,368.22L730.97,363.46L725.46,315.72L722.89,294.94L758.61,290.26L760.2,294.77L759.63,296.08L762.48,300.92L761.74,302.23L764.59,306.42L766.02,306.64L765.99,311.81L764.77,313.62L765.11,316.59L768.93,316.36L770.68,317.4L773.55,321.34L776.59,317.71L777.42,313.35L781.54,311.31L784.2,310.97L786.19,313.97L787.28,312.38L785.97,308.8L788.63,309.43L789.65,306.85L795.81,306.51L796.61,307.49L795.13,311.34L796.58,314L795.54,317.4L797.84,323.67L797.63,328.11L796.48,330.45L797.72,333.55L796.36,335.91L798.1,339.52L798.6,342.77L797.52,348.38L798.02,350.46L796.99,351.72L795.54,359.12L793.83,363.74L791.1,365.78L790.59,370.78L788.63,371.31L784.99,375.87L784.25,379.36L787.46,392.24L785.83,396.3L785.68,397.27L785.26,398.5L783.76,399.86L779.7,395.34z"/>
		<path id="C36093" title="Schenectady" class="land" d="M731.55,368.22L736.39,368.67L742.82,372.15L749.3,378.5L755.89,376.07L756.98,386.61L758.8,386.65L759.57,389.56L761.81,392.06L766.5,399.02L768.15,399.27L768.12,399.94L751.24,402.61L750.99,402.63L720.29,407.83L719.77,410.89L712.6,409.76L708.41,410.58L704.15,404.78L710.15,403.07L711.54,398.27L709.57,396.17L710.67,394.08L710.46,393.48L732.77,378.41z"/>
		<path id="C36095" title="Schoharie" class="land" d="M710.73,464L711.97,469.41L707.85,471.81L698.89,473.14L694.63,469.98L686.32,473.26L663.69,461.18L651.73,444.9L656.78,436.76L662.17,425.9L661.65,422.2L657.41,404.2L657.34,401.83L657.69,396.99L659.89,390.38L670.97,393.3L684.85,400.3L706.2,398.4L709.57,396.17L711.54,398.27L710.15,403.07L704.15,404.78L708.41,410.58L712.6,409.76L719.77,410.89L720.29,407.83L722.3,410.06L721.65,418.77L718.58,427.24L713.35,434.8L712.38,439.15L714.43,443.4L714.06,448.99L712,453.19L709.37,461.97L709.55,464.19z"/>
		<path id="C36097" title="Schuyler" class="land" d="M395.57,439.85L396.98,469.76L396.36,470.09L396.25,485.56L405.55,485.81L405.52,491.75L402.59,494.34L401.84,493.58L396.99,493.67L396.98,491.81L390.92,491.85L390.76,483.92L376.7,483.91L360.98,485.01L360.94,486.57L346.78,487.09L344.97,487.69L343.57,487.63L342.59,450.84L357.8,450.65L357.99,454.42L361.08,455.12L370.65,454.45L369.22,449.09L369.9,440.76z"/>
		<path id="C36099" title="Seneca" class="land" d="M360.12,401.83L359.25,400.09L359.85,389.65L359.2,383.46L361.16,382.78L361.16,377.5L361.08,358.15L393.36,356.24L393.69,357.29L390.4,365.68L390.72,370.16L390.31,377.66L392.4,383.37L392.62,391.11L389.97,397.42L391.06,409.45L392.6,413L397.04,418.27L399.46,426.46L402.2,432L405.69,436.38L409.85,439.3L395.57,439.85L369.9,440.76L370.1,434.26L369.81,419.97L363.6,406.9L363.21,401.8z"/>
		<path id="C36101" title="Steuben" class="land" d="M355.46,534.71L355.44,534.7L348.21,534.77L340.34,534.96L291.22,534.84L277.71,534.93L259.66,535.06L262.1,464.75L262.3,464.73L262.73,464.73L263.14,453.03L263.44,441.89L271.09,441.89L271.27,433.98L293.08,434.52L309.13,434.68L337.87,434.59L337.12,438.61L337.41,448.51L342.54,447L342.59,450.84L343.57,487.63L344.97,487.69L346.78,487.09L360.94,486.57L360.85,534.63z"/>
		<path id="C36103" title="Suffolk" class="land" d="M984.57,688.71l0.5,-0.64l0.21,-1.2l5.48,2.32l0.39,1.29l-0.75,6.08l-1.13,0.73l-0.19,-0.15l0.01,-3.57l-0.78,-1.81l-0.42,-0.41l-1.83,-0.73l-2.41,0.12l-0.35,-0.33l-0.13,-0.59l0.28,-0.52L984.57,688.71zM1008.91,657.57l2.16,-0.59l-1.09,1.63l-1.42,0.73l-2.11,0.91l-2.11,1.02l-2.04,1.46l-1,0.61l-4.44,0.53l0.24,-0.97l0.71,-1.3l0.78,-1.35l0.58,-0.53l1.56,0.11l2.03,-1.34l1.43,0.18l3.51,-0.82L1008.91,657.57zM813.98,734.72L811,723.65l-2.55,-4.01l0.05,-0.12l0.63,-3.17l0.83,-0.73l0.07,0.06l0.61,0.47l0.22,0.17l0.51,0.21l1.38,0.57l0.4,0.05l0.53,0.07l1.48,0.2l0.97,0.13l0.11,0.01l0.88,0.87l0.03,0.27l0.11,1.14l2.94,0.22l0.4,-0.83l-0.06,-2.91l0.33,-2.01l0.14,-0.2l0.89,-0.02l2.38,3.01l1.1,1l1.7,0.85l0.93,0.24l0.18,-0.34l1.65,-0.39l4.68,0.87h0l8.49,3.3l10.36,-4.04l0.36,-1.05l0.2,-3.54l0.5,-1.76l3.92,-0.98l3.71,-0.19l4.89,1.85l0.42,-0.39l5.74,-0.34l5.26,0.06l5.33,0.63l3.3,-0.08l8.03,-1.16l6.7,0.76l1.82,-1.71l5.88,-1.75l3.24,-0.71l3.14,0.39l3.83,-0.52l6.46,-1.2l2.57,-2.03l0.57,-1.01l1.44,-0.75l3.65,-3.04l5.71,-2.48l2.13,-2.52l2,-3.26l3.52,-0.31l2.7,-1.42l5.28,-6.37l2.93,-0.75l1.42,-0.45l4.04,-2.6l1.59,-0.49l0.75,0.63l0.63,0.15l2.94,-1.21l0.92,0.29l0.06,0.52l-2.04,3.29l-1.49,1.48l-4.55,2.77l0.04,-3.38l-0.82,-0.99l-0.82,-0.12l-0.7,0.24l-1.09,0.85l-1.12,2.03l0.01,2.28l2.31,3.11l2.52,1.3l2.24,0.11l0.47,0.63l-0.82,1.51l1.22,2.79l1.7,1.61l2.49,-0.46l1.53,0.07l1.53,0.64l2.02,1.42l1.46,-0.05l0.94,-0.52l0.49,-0.48l0.59,-1.31l1.55,-1.2l0.33,-0.11l0.84,0.34l2.14,2.08l0.28,1.43l-0.29,1.26l2.71,4.11l0.95,0.97l0.88,0.44l0.87,0.03l1.6,-0.87l0.4,-1.19l0.1,-0.51l0.39,-0.45l1.9,-0.06l0.45,0.79l0.11,-0.02l0.24,-0.06l0.46,-0.21l0.27,-0.55l-0.26,-1.03l-0.05,-0.81l0.58,-0.35l1.51,0.31l2.68,-1.29l2.03,-1.93l4.16,-1.38l0.77,-1.11l0.09,-0.96l-0.16,-0.71l0.25,-1.23l2.75,-1.05l2.43,-0.53l2.6,-0.05l0.49,0.59l0.77,0.29l2.58,0.11l0.66,-0.32l0.9,0.57l0.17,0.5l-2.28,3.12l-3.85,2.06l-4.12,1.02l-12.09,5.84l-10.98,4.74l-36.31,17.93l-9.57,4.07l-13.35,5.01l-22.17,7.84l-1.02,0.6l-0.52,-0.14l-1.42,0.47l-12.26,4.86l-7.75,3.34l-11.53,5.7l-5.47,2.25l-11.65,3.54l-8.15,2.47l-3.96,0.98l-2.96,0.61l-0.31,0.01l-5.41,0.12l-0.43,-0.3l-1.23,-2.25l-4.16,0.9l-5.23,2.2l-4.11,1.29l-0.12,-11.72l-2.09,-14.48L813.98,734.72z"/>
		<path id="C36105" title="Sullivan" class="land" d="M645.66,634.17L645,634.11L644.1,633.67L643.77,633.64L643.15,633.86L642.34,634.32L641.55,634.45L641.11,634.28L640.91,634.05L640.37,632.8L640.3,632.56L640.27,631.98L640.16,631.63L639.59,630.94L639.34,630.82L638.75,630.79L637.99,631.22L637.36,631.85L636.96,632.72L636.63,632.9L636.36,632.93L635.85,632.88L635.55,632.74L634.44,631.72L634.04,631.27L633.32,630.76L632.76,630.54L631.97,630.62L630.42,631.25L628.87,631.6L628.2,631.49L627.92,631.31L627.88,630.93L628.07,630.26L628.82,629.38L628.82,629.15L628.66,628.68L628.43,628.4L628.05,628.18L626.87,627.91L626.52,627.68L626.37,627.08L626.36,626.48L626.23,625.74L625.8,625.2L625.18,624.95L624.3,624.93L623.95,624.73L623.21,624.04L622.02,623.83L621.52,623.89L621.21,624.33L620.13,625L619.89,625.06L618.39,624.88L616.88,624.45L616.66,624.29L616.44,623.81L616.37,623.44L616.41,622.88L616.77,621.62L616.81,621.27L616.78,620.84L616.52,619.88L616.36,619.65L616.1,619.51L615.3,619.51L614.56,619.74L614.1,619.62L614.03,619.41L614.03,619.1L614.17,618.51L614.39,617.98L614.39,617.7L614.34,617.46L614.01,616.88L613.28,616.12L612.58,615.62L612.36,615.5L611.54,615.32L611.38,615.17L611.31,614.98L611.31,614.18L611.56,613.89L612.23,613.67L612.42,613.41L612.4,613.03L612.12,612.12L610.98,610.1L610.74,609.91L610.23,609.83L609.73,609.5L609.28,609.04L608.85,608.11L608.47,606.71L607.69,605.93L606.76,605.41L606.29,604.74L605.87,603.93L605.51,603.54L604.88,602.85L604.88,602.47L605.26,602.2L605.76,602.09L606.42,602.17L606.8,601.98L606.77,601.72L606.55,601.17L606.56,601.01L606.75,600.83L607.56,600.63L607.82,600.71L608.26,601.08L608.4,601.12L608.64,601.05L608.8,600.74L608.89,599.77L608.29,598.33L608.23,598.02L608.15,596.63L608.23,594.15L608.07,593.07L607.54,592.1L607.12,591.98L606.97,591.85L606.85,591.39L606.92,591.03L607.71,590.34L607.89,590.08L607.9,589.65L607.7,588.63L607.19,587.37L606.79,586.68L605.83,585.69L605.63,585.22L605.65,584.88L605.91,584.46L606.61,584.4L607.77,584.67L607.97,584.57L608.07,584.34L608.09,584.03L607.6,581.95L607.43,580.57L607.69,578.92L607.61,577.58L606.67,575.49L606.13,575.14L605.66,575.03L605.13,574.77L604.93,574.48L604.71,574.31L604.25,574.36L602.53,574.85L602.19,574.85L601.48,574.72L601.15,574.35L601.04,574.1L601,573.84L601.15,572.5L601.3,571.72L601.42,571.48L602.52,570.02L603.11,569.82L604,570L604.41,569.83L604.59,569.65L604.91,569.02L605.2,567.96L605.25,567.34L605.19,567.03L604.91,566.79L604.43,566.79L604.21,566.84L603.44,567.39L602.96,567.4L602.44,567.09L601.6,566.23L599.88,565.47L599.69,564.97L599.65,564.69L599.67,564.17L599.87,563.13L599.88,562.38L599.75,561.88L599.59,561.7L599.18,561.49L598,561.65L597.61,561.61L596.41,560.41L595.95,560.47L595.61,560.62L614.86,548.94L642.81,532.02L685,556.35L680.71,563.31L669.34,578.83L692.61,596.24L693.74,600.75L696.18,605.38L688.19,610.91L682.18,620.27L646.46,622.08L645.36,622.61L646.71,627.01L645.5,627.74L646.16,633.88z"/>
		<path id="C36107" title="Tioga" class="land" d="M471.81,535.05L469.51,535.03L468.54,535.03L466.69,535.04L441.11,535.14L440.32,535.13L425.83,535.04L425.27,535.02L413.51,534.83L413.04,533.21L415.59,525.9L414.42,521.07L413.69,512.91L412.74,508.44L412.87,507.87L416.24,507.93L416,486L424.31,486.11L424.24,489.13L431.76,489.26L431.88,479.63L434.54,479.61L453.19,483.4L453.03,478.5L454.49,472.37L451.26,469.76L446.82,468.04L447.43,464.59L452.77,464.11L468.67,463.63L470.68,471.16L470.96,479.59L472.35,481.02L472.49,486.58L474.15,486.52L475.06,490.11L473,490.22L475,494.9L474.52,501.3L474.27,502.47L470.47,502.69L470.75,508.28L471.13,515.38z"/>
		<path id="C36109" title="Tompkins" class="land" d="M431.76,489.26L424.24,489.13L424.31,486.11L416,486L405.55,485.81L396.25,485.56L396.36,470.09L396.98,469.76L395.57,439.85L409.85,439.3L405.69,436.38L402.2,432L399.46,426.46L406.2,426.69L426.27,425.77L426.31,427.3L451.2,426.43L452.77,464.11L447.43,464.59L446.82,468.04L451.26,469.76L454.49,472.37L453.03,478.5L453.19,483.4L434.54,479.61L431.88,479.63z"/>
		<path id="C36111" title="Ulster" class="land" d="M751.15,580.43L751.15,581L750.72,584.11L750.43,586.73L750.54,587.39L750.84,588.3L750.97,589.37L750.34,592.22L749.57,605.55L736.62,607.17L734.76,602.8L731.95,604.07L730.82,602.58L726.19,601.13L727.24,606.83L719.63,604.84L719.35,605.42L711.08,602.91L711.26,598.79L709.47,598.2L702.98,602.18L702.23,603.32L696.18,605.38L693.74,600.75L692.61,596.24L669.34,578.83L680.71,563.31L685,556.35L642.81,532.02L672.11,513.81L675.03,509.48L678.51,509.75L685.26,505.54L703.86,515.05L733.9,518.13L738.08,505.33L740.34,506.77L743.08,506.55L743.23,504.19L754.08,512.53L755.07,512.81L752.63,521.21L751.64,529.7L752.15,531.65L749.63,542.28L748.96,548.48L748.14,549.87L748.42,551.96L751.25,556.84L750.2,560.65L749.79,574.46L751.18,577.27z"/>
		<path id="C36113" title="Warren" class="land" d="M760.49,225.51L816.05,218.23L811.92,222.98L813.19,224.43L813.23,229.42L811.69,235.45L810.11,238.08L808.9,244.65L804.61,248.06L796.58,259.9L793.46,261.03L792.66,268.58L790.43,272.68L791.43,274.61L795.81,306.51L789.65,306.85L788.63,309.43L785.97,308.8L787.28,312.38L786.19,313.97L784.2,310.97L781.54,311.31L777.42,313.35L776.59,317.71L773.55,321.34L770.68,317.4L768.93,316.36L765.11,316.59L764.77,313.62L765.99,311.81L766.02,306.64L764.59,306.42L761.74,302.23L762.48,300.92L759.63,296.08L760.2,294.77L758.61,290.26L722.89,294.94L715.85,231.58L736.19,228.76z"/>
		<path id="C36115" title="Washington" class="land" d="M825.75,227.22L824.88,228.81L824.81,229.16L824.75,230.35L824.85,231.56L824.76,232.18L823.84,233.53L823.17,234.18L822.79,234.67L822.03,236.06L821.78,236.83L821.55,237.25L821.19,237.64L820.7,237.91L820.36,238.42L820.29,238.75L820.52,239.4L820.44,240L819.97,241.57L819.93,242.12L819.09,244.11L818.97,245.14L818.55,245.95L817.93,246.34L817.72,246.59L817.56,246.89L817.28,247.96L817.37,248.34L818.61,250.31L818.69,250.6L818.67,250.8L817.91,252.26L817.9,252.5L818.11,253.3L818.18,253.92L817.75,254.67L817.06,256.14L816.94,256.53L816.98,256.76L817.28,257.3L817.53,257.48L818.34,257.74L818.78,258.41L820.25,259.57L820.93,259.98L821.21,260.12L821.52,260.12L822.01,259.79L823.01,258.8L823.12,258.58L823.22,258.15L823.11,257.17L823.11,255.03L823.84,254.52L824.4,253.87L824.52,253.59L824.54,253.39L824.06,252.22L824.25,251.85L824.85,251.06L824.86,250.95L824.52,250.41L824.6,250.1L824.99,250.07L825.21,250.26L825.42,250.29L826.25,250.09L826.31,250L827.73,250.46L828.43,249.82L830.3,249.85L830.79,249.55L831.61,249.6L832.22,250.08L832.51,250.17L832.88,249.57L833.07,249.48L833.34,249.65L833.55,249.89L833.61,250.13L833.84,252.54L834.13,252.67L834.68,253.53L834.88,254L834.88,254.78L834.8,255.54L834.75,255.78L834.27,256.71L834.86,257.1L834.89,257.2L834.59,257.56L834.48,257.96L834.57,258.19L834.71,258.27L835.82,258.13L836.29,258.43L836.33,258.82L836.49,259.03L837.83,259.43L838.51,259.98L839.21,260.68L839.99,262.11L840.5,262.64L840.53,262.87L840.28,263.25L840.31,264.49L840.61,264.6L840.77,264.77L841.35,266L841.41,265.99L841.44,266.46L841.37,266.98L841.18,267.28L840.74,267.62L840.63,268.09L840.63,268.78L840.75,268.85L840.71,269.55L840.53,277.43L839.99,295.04L839.98,295.16L839.96,296.37L839.93,297.92L839.75,305L839.49,314.79L839.2,319.97L838.32,343.53L837.78,354.14L837.19,370.36L823.52,370.35L817.02,367.73L814.44,370.2L790.59,370.78L791.1,365.78L793.83,363.74L795.54,359.12L796.99,351.72L798.02,350.46L797.52,348.38L798.6,342.77L798.1,339.52L796.36,335.91L797.72,333.55L796.48,330.45L797.63,328.11L797.84,323.67L795.54,317.4L796.58,314L795.13,311.34L796.61,307.49L795.81,306.51L791.43,274.61L790.43,272.68L792.66,268.58L793.46,261.03L796.58,259.9L804.61,248.06L808.9,244.65L810.11,238.08L811.69,235.45L813.23,229.42L813.19,224.43L811.92,222.98L816.05,218.23L816.34,218.2L816.68,218.15L823.64,217.37L823.65,217.39L823.78,217.81L823.91,218.78L824.02,219.1L825.08,220.07L825.81,220.63L826.45,221.39L826.71,222.72L826.81,223.03L827.35,223.88L827.33,224.14L826.83,225.26z"/>
		<path id="C36117" title="Wayne" class="land" d="M394.45,338.38L394.84,346.32L392.84,349.44L393.36,356.24L361.08,358.15L339.21,358.27L339.09,353.44L324.61,353.47L324.58,354.37L308.49,354.36L308.12,333.6L307.9,311.54L312.41,311.01L315.83,310.94L317.2,311.45L322.34,311.59L328.81,310.4L334.09,310.86L337.92,309.79L339.6,310.13L341.99,309.72L347.74,310.96L352.06,312.67L356.47,312.63L357.92,312.09L361.8,312.89L362.6,312.77L366.45,310.24L368.78,309.04L371.02,308.67L372.25,308.84L375.14,307.86L376.86,306.64L382.92,305.89L386.23,304.33L389.07,302.03L391.13,299.92L392.24,299.87z"/>
		<path id="C36119" title="Westchester" class="land" d="M773.59,725.85l0.01,0.15v0.1v0.22l0.1,0.41l-0.09,0.17l-0.5,0.14l-0.57,-0.49l0.01,-0.34l0.31,-0.07l0.06,-0.49l0.22,-0.15l0.3,0.14l0.13,0.12L773.59,725.85zM755.25,678.46l-4.99,-10.03l-2.94,-4.24l0.5,-3.3l2.62,-4.07l-4.65,-5.25l56.5,-7.65l-0.55,6.86l-0.08,1.77l0.08,1.43l-0.26,2.08l4.2,6.62l4.6,7.51l-3.46,2.04l-0.66,0.41l-6.49,3.97l-6.38,3.8l-2.29,1.36l-0.97,0.58l-11.37,6.96l0.67,1.21l0.74,1.02l2.92,4.83l0.92,1.47l0.93,1.52l1.23,1.99l1.01,1.64l0.94,1.31l0.09,0.19l-0.12,0.68l-0.49,1.4l0.08,1.02l-0.12,0.95l0.3,0.47l0.18,0.95l-0.52,1.91l-0.27,0.37l-0.31,-0.17l-1.76,0.75l-0.67,2.35l-0.41,0.65l-1.48,0.95l-3.07,1.29l-1.3,1.2l-3.23,2.11l-3.17,4.62l-0.28,0.75l-5.12,-1.73l0.02,0.09l-0.06,0.04l0.01,0.09h-0.06l-12.11,-4.71l0.03,-0.33l0.27,-0.92l1.07,-4.53l1.39,-5.14l0.32,-2.64l0.59,-6.88l-0.69,-5.51l-0.02,-2.13l0.99,-8.65L755.25,678.46z"/>
		<path id="C36121" title="Wyoming" class="land" d="M167.46,383.74L217.82,383.26L217.82,384.39L227.99,384.17L233.2,384.56L233.02,418.79L231.42,419.58L230.43,423.91L227.7,427.84L223.59,429.97L226.59,430.76L224.44,433.19L221.16,434.17L223.04,436.14L221.2,437.9L219.57,442.28L221.05,441.25L222.45,444.25L222.2,444.35L187.54,444.31L167.44,444.67L167.52,441.67L167.61,398.99L164.4,398.95L164.64,383.69z"/>
		<path id="C36123" title="Yates" class="land" d="M354.02,401.91L360.12,401.83L363.21,401.8L363.6,406.9L369.81,419.97L370.1,434.26L369.9,440.76L369.22,449.09L370.65,454.45L361.08,455.12L357.99,454.42L357.8,450.65L342.59,450.84L342.54,447L337.41,448.51L337.12,438.61L337.87,434.59L309.13,434.68L309.06,418.7L310.31,418.68L310.8,413.08L312.86,407.36L316.04,402.35L340.53,402.27z"/>
	</g>
</svg>