<?xml version="1.0" encoding="utf-8"?>
<!-- (c) ammap.com | SVG map of OK Counties -->
<svg xmlns="http://www.w3.org/2000/svg" xmlns:amcharts="http://amcharts.com/ammap" xmlns:xlink="http://www.w3.org/1999/xlink" version="1.1">
	<defs>
		<style type="text/css">
			.land
			{
				fill: #CCCCCC;
				fill-opacity: 1;
				stroke:white;
				stroke-opacity: 1;
				stroke-width:0.5;
			}
		</style>

		<amcharts:ammap projection="mercator" leftLongitude="-103.003003" topLatitude="37.002469" rightLongitude="-94.430777" bottomLatitude="33.616309"></amcharts:ammap>

		<!-- All areas are listed in the line below. You can use this list in your script. -->
		<!--{id:"C40001"},{id:"C40003"},{id:"C40005"},{id:"C40007"},{id:"C40009"},{id:"C40011"},{id:"C40013"},{id:"C40015"},{id:"C40017"},{id:"C40019"},{id:"C40021"},{id:"C40023"},{id:"C40025"},{id:"C40027"},{id:"C40029"},{id:"C40031"},{id:"C40033"},{id:"C40035"},{id:"C40037"},{id:"C40039"},{id:"C40041"},{id:"C40043"},{id:"C40045"},{id:"C40047"},{id:"C40049"},{id:"C40051"},{id:"C40055"},{id:"C40053"},{id:"C40057"},{id:"C40059"},{id:"C40061"},{id:"C40063"},{id:"C40065"},{id:"C40067"},{id:"C40069"},{id:"C40071"},{id:"C40073"},{id:"C40075"},{id:"C40077"},{id:"C40079"},{id:"C40081"},{id:"C40083"},{id:"C40085"},{id:"C40087"},{id:"C40089"},{id:"C40091"},{id:"C40093"},{id:"C40095"},{id:"C40097"},{id:"C40099"},{id:"C40101"},{id:"C40103"},{id:"C40105"},{id:"C40107"},{id:"C40109"},{id:"C40111"},{id:"C40113"},{id:"C40115"},{id:"C40117"},{id:"C40119"},{id:"C40121"},{id:"C40123"},{id:"C40125"},{id:"C40127"},{id:"C40129"},{id:"C40131"},{id:"C40133"},{id:"C40135"},{id:"C40137"},{id:"C40139"},{id:"C40141"},{id:"C40143"},{id:"C40145"},{id:"C40147"},{id:"C40149"},{id:"C40151"},{id:"C40153"}-->

	</defs>
	<g>
		<path id="C40001" title="Adair" class="land" d="M1171.73,148.88L1205.21,148.79L1205.21,148.82L1205.44,150.52L1206.73,159.29L1207.34,163.51L1207.36,163.69L1209.08,175.9L1209.2,176.8L1209.37,177.83L1209.6,179.41L1210.14,183.24L1210.16,183.31L1210.66,186.81L1210.7,187.1L1210.91,188.49L1210.95,188.71L1210.94,188.73L1210.94,188.82L1211.67,194.51L1213.09,204.33L1213.37,206.48L1213.54,207.75L1213.75,209.36L1214.01,211.25L1214.07,211.71L1214.1,211.91L1214.23,212.92L1214.31,213.52L1214.96,217.93L1215.13,219.05L1215.19,219.53L1215.86,224.77L1215.95,225.31L1218.08,240.65L1170.29,240.64L1170.29,194.67L1171.74,194.67z"/>
		<path id="C40003" title="Alfalfa" class="land" d="M699.48,72.56L699.46,95.65L638.17,95.62L638.19,76.47L637.19,72.45L637.23,10.67L636.55,10.67L636.59,0.57L654.37,0.66L654.64,0.65L655.97,0.66L663.81,0.76L664.8,0.76L664.94,0.76L680.43,0.75L683.03,0.78L684.64,0.75L689.01,0.75L693.32,0.72L698.38,0.73L698.45,10.71L698.73,10.71L698.76,72.56z"/>
		<path id="C40005" title="Atoka" class="land" d="M1001.18,497.48L986.13,497.43L941.76,497.4L941.81,452.48L979.26,452.43L979.22,437.36L986.86,437.35L986.83,407.23L1016.81,407.25L1016.83,422.27L1017.79,422.2L1046.82,422.21L1046.86,437.24L1031.47,437.28L1031.48,497.5z"/>
		<path id="C40007" title="Beaver" class="land" d="M428.23,89.17L415.92,89.19L402.89,89.19L384.41,89.18L384.36,89.18L384.32,89.19L382.48,89.18L381.01,89.22L381.01,89.22L378.53,89.21L378.53,89.21L374.71,89.22L374.7,89.21L369.71,89.21L369.7,89.22L368.61,89.21L368.6,89.22L366.8,89.22L365.79,89.22L365.79,89.21L354.2,89.25L353.04,89.23L353.02,89.25L352.91,89.25L352.91,89.24L350.78,89.24L346.21,89.22L346.21,89.22L345.46,89.22L345.44,89.21L344.15,89.22L344.15,89.21L344.14,89.21L336.19,89.22L336.19,89.21L334.84,89.21L334.84,89.21L327.58,89.21L327.58,89.2L325.33,89.2L325.33,89.19L319.98,89.19L319.98,89.19L314.12,89.19L314.11,89.19L313.65,89.19L313.65,89.18L311.07,89.19L311.07,89.19L307.27,89.17L306.01,89.18L302.52,89.18L302.51,89.18L297.61,89.19L295.1,89.19L292.52,89.19L292.57,27.36L293.12,27.31L293.74,27.31L293.76,0.72L299.59,0.65L299.64,0.62L301.44,0.64L306.58,0.64L312.49,0.56L313.66,0.55L319.46,0.54L320.68,0.51L323.88,0.56L332.3,0.45L338.33,0.4L338.33,0.4L338.84,0.39L344.32,0.32L344.33,0.33L349.85,0.26L350,0.28L399.97,0.02L401.1,0.01L401.3,0.03L401.99,0.02L412.25,0L415.99,0.02L427.96,0.09L428.4,0.09L428.32,72.62z"/>
		<path id="C40009" title="Beckham" class="land" d="M428.72,320.16L428.71,278.41L489.34,278.54L489.38,263.31L519.57,263.33L519.56,270.92L519.55,316.38L520.13,316.38L520.13,331.63L513.13,331.67L513.12,332.02L510.07,333.11L506.81,331.61L459.8,331.62L459.77,346.68L444.68,346.65L428.72,346.63z"/>
		<path id="C40011" title="Blaine" class="land" d="M623.42,148.26L684.31,148.26L684.39,195.08L684.84,195.08L684.8,225.49L669.62,225.48L669.64,255.86L625.39,255.85L624.11,255.85L624.13,210.2L624.11,195.05L623.53,195.04z"/>
		<path id="C40013" title="Bryan" class="land" d="M945.8,571.33L945.12,570.59L942.35,567.83L941.65,566.99L940.94,565.88L940.55,564.44L940.35,563.94L940,563.26L939.62,562.74L938.54,562.3L937.65,562.06L935.99,561.89L935.64,561.96L934.82,562.74L934.41,562.88L930.57,563.26L928.54,563.33L928.25,563.18L926.87,561.81L926.3,560.73L926.3,558.83L926.21,558.1L925.73,556.7L925.17,555.55L924.77,555.07L924.4,554.86L923.88,554.71L921.26,555.37L919.11,555.48L918.16,555.38L916.14,553.85L915.3,553.36L914.12,552.77L910.99,551.55L910.11,550.86L910.01,550.51L910.05,549.94L910.16,549.68L910.67,548.97L912.58,546.83L914.05,546.18L914.67,545.79L915.71,544.84L916.08,544.23L916.38,543.42L916.37,543.02L916.02,542.42L915.93,542.41L915.83,541.59L915.55,534.88L916.01,529.42L912.33,525.04L912.76,522.89L913.78,522.77L915.72,522.46L917.45,520.92L917.26,518.58L918.7,516.66L920.86,514.29L920.59,511.72L919.81,510.43L918.47,507.97L916.93,505.4L916.39,504.76L935.17,504.77L935.16,497.39L941.76,497.4L986.13,497.43L1001.18,497.48L1006.64,498.96L1007.15,502.23L1008.81,502.93L1008.84,533.28L1009.21,534.44L1011.56,537.24L1017.31,538.79L1022.78,545.95L1033.99,546.16L1034.13,546.51L1034.61,547.02L1035.17,548.98L1035.06,549.41L1034.53,550.08L1033.73,550.44L1032.52,551.15L1032.35,551.15L1031.93,550.92L1030.26,549L1029.98,548.77L1028.42,548.17L1027.8,548.16L1025.59,548.64L1025.44,548.95L1025.44,549.16L1025.58,549.96L1025.75,550.36L1025.83,551.04L1025.77,551.32L1025.57,551.71L1025.28,552.01L1024.5,552.48L1023.97,552.63L1023.18,552.55L1022.82,552.4L1022.29,551.98L1022.02,551.67L1021.42,550.95L1020.04,549.67L1016.93,548.27L1016.04,547.72L1015.21,546.98L1013.49,545.7L1011.98,544.76L1011.01,544.31L1009.23,543.74L1009.1,543.79L1008.94,544.16L1009,544.55L1009.17,544.89L1009.21,545.17L1009.21,545.79L1009.02,546.56L1008.36,548.1L1007.93,548.41L1006.89,548.89L1003.95,549L1002.69,548.5L1002.22,547.62L1001.57,547.2L1001.19,547.2L1000.89,547.31L1000.44,547.62L1000.3,548.22L1000.35,549.14L1000.3,549.72L1000.21,549.91L999.22,550.86L997.18,551.7L996.92,551.48L996.82,551.25L996.76,550.75L996.85,550.24L996.8,549.93L996.38,549.74L995.77,549.68L995.51,549.96L994.66,551.59L993,552.41L992.07,552.1L990.85,551.54L987.89,550.66L985.68,550.44L985.49,550.65L985.5,550.82L985.58,551.08L985.82,551.39L986.03,552.15L986.06,553.05L985.79,553.43L985.11,553.39L984.27,553.1L983.1,552.16L982.42,551.81L980.14,551.95L978.83,552.18L978.53,552.51L978.32,553.18L978.73,555.36L978.45,555.74L976.53,555.74L974.86,556.14L974.71,556.26L974.42,556.84L974.65,557.77L974.96,558.31L975.27,558.55L975.65,558.75L976.15,559L976.82,559.3L976.73,560.57L975.78,563.75L975.04,564.85L974.55,565.4L973.33,566.1L971.43,566.83L968.48,567.64L967.27,567.53L964.53,565.66L961.43,564.05L960.38,563.82L958.21,564.39L957.87,564.67L956.89,566.55L956.71,567.04L956.26,568.73L956.08,569.76L956.19,571.16L956.13,572.32L955.71,573.95L954.72,575.91L954.46,576.29L954.12,576.58L951.04,577.96L950.24,578.07L949.15,577.93L948.25,577.14L948.12,576.73L948.1,575.56L947.58,573.82L947.2,572.87z"/>
		<path id="C40015" title="Caddo" class="land" d="M700.66,286.19L700.81,316.5L701.33,316.5L701.12,336.51L701.14,377.06L686.12,377.03L686.01,377.01L625.86,377.05L625.69,335L626.09,333.13L626.12,316.43L625.29,316.38L625.36,271.11L625.39,255.85L669.64,255.86L670.35,255.9L670.57,257.73L670.7,286.29z"/>
		<path id="C40017" title="Canadian" class="land" d="M760.92,225.35L760.92,255.93L761.31,255.93L761.31,271.09L761.3,286.3L761.28,293.21L761.27,293.48L756.33,295.39L751.89,295.6L746.87,291.8L744.6,293.36L741.91,292.63L741.2,293.86L738.12,293.58L734.82,291.92L733.96,288.97L728.43,290.43L725.68,290.42L724.05,286.96L722.45,286.29L721.96,289.91L720.13,291.75L718.11,289.79L713.46,289.22L711.88,286.17L700.66,286.19L670.7,286.29L670.57,257.73L670.35,255.9L669.64,255.86L669.62,225.48L684.8,225.49z"/>
		<path id="C40019" title="Carter" class="land" d="M777.1,512.2L776.83,510.17L776.84,474.73L776.87,437.2L806.89,437.24L806.89,459.74L851.96,459.88L852.67,464.17L851.37,466.24L854.95,467.28L866.68,467.24L866.65,494.78L861.68,494.77L861.51,512.21z"/>
		<path id="C40021" title="Cherokee" class="land" d="M1141.16,148.81L1171.73,148.88L1171.74,194.67L1170.29,194.67L1170.29,240.64L1149.64,240.63L1149.36,240.68L1149.19,240.66L1124.57,240.59L1124.52,237.67L1124.61,236.9L1124.62,210.14L1104.84,210.05L1110.29,201.47L1109.58,199.62L1105.98,198.82L1102.57,194.12L1102.7,191.51L1104.32,189.67L1104.23,186.51L1102.98,183.58L1106.76,179.41L1108.73,179.38L1110.58,175.66L1110.6,170.27L1113.02,170.26L1113.08,164.14L1125.87,164.17L1125.85,148.84z"/>
		<path id="C40023" title="Choctaw" class="land" d="M1120.52,535.19L1119.77,535.09L1118.97,534.72L1118.68,534.4L1116.49,532.9L1111.45,530.98L1110.45,530.92L1109.86,531.12L1106.66,535.77L1106.56,536.44L1106.65,536.86L1106.89,537.39L1106.97,538.6L1106.95,539.29L1106.63,540.6L1106.26,541.03L1105.5,541.53L1105.1,541.66L1103.86,541.18L1103.46,541.23L1103.1,541.38L1102.83,541.68L1102.74,542.09L1102.57,543.65L1102.55,544.46L1102.3,545.34L1101.67,545.82L1100.68,545.74L1098.59,544.9L1096.29,543.98L1095.16,543.88L1095.01,543.96L1094.96,545.5L1094.35,546.86L1092.46,547.04L1089.19,546.97L1084.54,547.3L1078.89,546.86L1076.61,546.27L1076.49,546.09L1076.87,544.32L1076.67,543.94L1076.38,543.81L1075.67,543.91L1074.44,545.07L1072.51,545.84L1071.05,545.85L1070.51,545.57L1070.45,545.2L1070.49,543.88L1069.94,543.22L1069.19,543.05L1068.5,543.36L1067.76,544.01L1066.62,544.76L1065.69,544.97L1064.92,544.9L1064.48,544.48L1063.94,543.51L1063.9,542.49L1064.31,541.31L1064.36,540.17L1064.07,539.04L1063.25,536.9L1062.89,536.36L1062.66,536.13L1062.32,536.02L1059.1,535.62L1057.14,535.66L1056.57,536.87L1051.82,540.4L1050.35,540.51L1048.55,539.97L1047.77,540.14L1047.1,540.53L1046.11,542L1044.98,543.2L1043.25,544.06L1041.26,544.17L1040.88,544.08L1038.75,542.61L1037.46,542.22L1036.06,542.26L1034.77,542.79L1034.48,543.14L1033.97,544.37L1033.88,545.92L1033.99,546.16L1022.78,545.95L1017.31,538.79L1011.56,537.24L1009.21,534.44L1008.84,533.28L1008.81,502.93L1007.15,502.23L1006.64,498.96L1001.18,497.48L1031.48,497.5L1038.53,497.54L1038.57,497.5L1120.43,497.46z"/>
		<path id="C40025" title="Cimarron" class="land" d="M125.74,89L125.25,89.06L119.97,89.06L108.18,89L107.4,89.06L0.02,89.05L0,84.42L0.05,70.94L0.04,68.38L0.01,58.1L0.05,50.25L0.09,16.48L0.05,16.12L0.05,0.37L2.23,0.66L2.39,0.65L3.28,0.65L22.93,0.46L26.84,0.25L27.96,0.39L31.99,0.53L34.66,0.39L37.2,0.8L43.47,1.26L92.42,1.36L92.43,1.37L105.93,1.39L113.42,1.51L116.85,1.53L135.38,1.62L137.14,1.62L139.14,1.62L139.14,1.62L139.12,27.22L138.57,27.22L138.55,89.01z"/>
		<path id="C40027" title="Cleveland" class="land" d="M819.33,286.26L836.88,286.35L836.85,364.36L829.16,364.35L828.84,362.34L819.82,361.37L818.07,358.32L814.39,358.04L813.23,359.89L809.5,359.03L807.46,354.43L808.35,353.59L806.05,346.05L807.12,343.03L806.59,338.59L804.58,337.1L799.76,336.91L799.87,330.22L799.04,327.91L794.59,326.36L793.96,324.03L783.78,316.8L779.85,314.69L776.89,311.13L776.28,308.9L777.95,306.37L777.11,301.12L774.16,299.32L768.95,298.84L763.99,293.93L761.28,293.21L761.3,286.3L796.69,286.27z"/>
		<path id="C40029" title="Coal" class="land" d="M926.59,437.48L926.85,437.45L926.84,407.32L941.95,407.32L941.93,392.18L986.84,392.2L986.83,407.23L986.86,437.35L979.22,437.36L979.26,452.43L941.81,452.48L926.61,452.28z"/>
		<path id="C40031" title="Comanche" class="land" d="M701.14,377.06L701.58,377.06L701.65,407.13L694.12,407.13L694.07,437.2L679.51,437.18L679.5,444.67L672.12,444.7L672.11,447.2L642.26,447.13L642.26,452.12L627.33,452.09L627.33,454.59L619.84,454.62L619.84,437.12L596.41,437.14L596.42,422.12L596.4,376.96L625.86,377.05L686.01,377.01L686.12,377.03z"/>
		<path id="C40033" title="Cotton" class="land" d="M653.95,510.06L653.65,509.85L653.19,509.72L652.66,509.71L651.53,509.93L651.14,510.13L651.01,510.3L650.74,510.79L650.71,511.22L650.63,511.46L650.25,511.79L646.53,513.37L645.54,513.71L644.92,513.66L642.38,511.98L638.95,508.1L638.6,507.27L637.79,505.98L635.7,503.92L634.61,502.39L634.38,501.54L632.63,499.5L631.96,498.83L628.72,496.84L628.12,496.89L627.43,497.36L627.24,497.43L627.31,467.06L619.84,467.11L619.84,454.62L627.33,454.59L627.33,452.09L642.26,452.12L642.26,447.13L672.11,447.2L672.12,444.7L679.5,444.67L679.51,437.18L694.07,437.2L694.49,437.2L694.49,474.63L694.53,500.06L693.99,501L692.33,503.34L691.89,503.72L690.22,504.81L687.03,504.53L685.8,504.36L685.28,504.2L683.46,503.49L682.44,502.93L682.2,502.56L679.96,501.55L678.96,501.96L677.75,502.18L674.34,501.96L672.4,501.57L671.5,501.3L668.85,499.27L668.31,498.7L667.9,498.48L662.39,497.43L661.89,497.59L659.93,498.75L659.48,499.29L657.47,502.35L657.11,503.42L657.18,503.5L657.51,503.57L657.48,506.46L657.28,507.24L655.19,509.8L654.71,510.15L654.4,510.24L654.07,510.15z"/>
		<path id="C40035" title="Craig" class="land" d="M1142.86,58.91L1142.86,71.77L1142.01,71.77L1141.96,87.37L1141.14,87.38L1140.83,87.35L1095.91,87.31L1095.88,71.84L1081.15,71.86L1081.13,10.58L1084.54,10.59L1084.58,0.53L1095.48,0.5L1095.89,0.51L1095.93,0.51L1096.71,0.51L1114.89,0.47L1117.46,0.48L1120.59,0.47L1120.62,0.47L1132.28,0.48L1132.28,0.48L1135.71,0.47L1137.37,0.48L1138.45,0.48L1141.14,0.48L1141.69,0.48L1137.9,1.42L1138.79,4.35L1137.44,5.02L1139.6,7.37L1143.72,9.3L1142.9,10.5z"/>
		<path id="C40037" title="Creek" class="land" d="M972.49,202.38L972.48,240.55L911.35,240.57L911.28,187.55L911.23,149.14L911.25,148.5L946.38,148.61L946.53,148.62L957.44,148.72L957.45,163.95L995.75,164.02L995.76,179.31L995.75,194.64L995.25,202.41z"/>
		<path id="C40039" title="Custer" class="land" d="M624.13,210.2L624.11,255.85L625.39,255.85L625.36,271.11L519.56,270.92L519.57,263.33L519.57,255.83L517.73,255.82L517.9,210.24L613.11,210.29L614.03,210.18z"/>
		<path id="C40041" title="Delaware" class="land" d="M1141.16,148.81L1141.15,133.36L1141.93,133.35L1141.96,87.37L1142.01,71.77L1142.86,71.77L1142.86,58.91L1173.87,58.91L1174.3,59.42L1197.32,59.39L1197.35,69.19L1197.35,70.21L1197.35,71.58L1197.35,75.36L1197.34,82.58L1197.35,82.74L1197.33,83.06L1197.34,85.97L1197.34,86.47L1197.34,89.22L1197.71,91.77L1197.92,93.32L1198.24,95.92L1199.13,102.92L1199.52,105.86L1199.61,106.42L1199.94,108.99L1200.84,116.38L1201.87,124.46L1203.06,133.25L1203.05,133.35L1203.32,135.02L1203.46,136.14L1203.48,136.31L1203.55,136.79L1203.92,139.66L1204,140.16L1204.67,144.94L1204.8,145.88L1205.21,148.79L1171.73,148.88z"/>
		<path id="C40043" title="Dewey" class="land" d="M517.01,148.37L577.88,148.85L623.42,148.26L623.53,195.04L624.11,195.05L624.13,210.2L614.03,210.18L613.11,210.29L517.9,210.24L517.9,195.05L517.15,195.04L517.16,175z"/>
		<path id="C40045" title="Ellis" class="land" d="M428.71,167.48L428.71,89.17L428.23,89.17L428.32,72.62L485.1,72.71L485.21,133.86L486.49,133.85L486.45,148.41L517.01,148.37L517.16,175L511.29,175.18L506.91,176.35L503.38,179.78L500.77,181.01L497.99,190.31L493.08,194.8L491.82,200.8L485.63,202.57L483.06,205L478.3,203.59L474.78,203.43L469.17,201.89L464.98,198L460.75,196.92L457.13,192.97L455.87,189.76L456.2,184.24L457,182.26L455.98,177.26L451.91,176.08L449.47,176.63L446.56,179.42L444.72,179.41L441.26,185.18L442.25,188.39L439.46,192.44L434.54,194.83L432.75,196.8L428.71,198.18z"/>
		<path id="C40047" title="Garfield" class="land" d="M791.37,148.34L760.7,148.3L699.54,148.27L699.46,95.65L699.48,72.56L791.13,72.55L791.26,72.55L791.3,133.91L791.4,134.1L791.41,134.36z"/>
		<path id="C40049" title="Garvin" class="land" d="M761.77,377.02L763.52,377.02L763.71,376.97L763.93,377.03L866.82,377.14L866.84,414.79L836.8,414.74L836.84,417.25L828.6,417.22L830,421.78L833.32,423.19L833.58,425.9L832.03,426.08L834.68,429.62L833.8,430.23L834.78,434.65L836.62,437.28L806.89,437.24L776.87,437.2L776.75,437.2L776.81,407.13L761.72,407.1z"/>
		<path id="C40051" title="Grady" class="land" d="M700.66,286.19L711.88,286.17L713.46,289.22L718.11,289.79L720.13,291.75L721.96,289.91L722.45,286.29L724.05,286.96L725.68,290.42L728.43,290.43L733.96,288.97L734.82,291.92L738.12,293.58L741.2,293.86L741.91,292.63L744.6,293.36L746.87,291.8L751.89,295.6L756.33,295.39L761.27,293.48L761.29,293.84L761.36,294.01L761.43,377.01L761.77,377.02L761.72,407.1L702.08,407.12L701.84,407.11L701.65,407.13L701.58,377.06L701.14,377.06L701.12,336.51L701.33,316.5L700.81,316.5z"/>
		<path id="C40055" title="Greer" class="land" d="M513.12,332.02L514.83,334.9L517.81,336.81L519.2,341.61L524.86,349.28L522.27,356.03L524.84,361.66L527.69,364.97L529.27,369.05L528.12,371.18L526.62,374.51L528.63,377.16L531.42,378.79L535.91,381.55L536.38,382.74L536.38,384.49L513.62,384.31L513.64,391.93L509.12,391.91L509.16,397.56L508.42,398.92L511.14,399.54L476.34,399.62L476.3,394.58L473.79,394.58L473.78,392.04L468.75,392.03L467.17,361.61L444.7,361.63L444.68,346.65L459.77,346.68L459.8,331.62L506.81,331.61L510.07,333.11z"/>
		<path id="C40053" title="Grant" class="land" d="M791.15,0.63L791.13,72.55L699.48,72.56L698.76,72.56L698.73,10.71L698.45,10.71L698.38,0.73L707.9,0.69L708.68,0.69L709.52,0.68L742.6,0.62L742.6,0.62L745.29,0.6L745.3,0.58L747.4,0.62L757.63,0.6L764.29,0.57L766.19,0.55L770.56,0.63L776.56,0.62L779.13,0.62L779.22,0.62L781.88,0.62L789.65,0.62z"/>
		<path id="C40057" title="Harmon" class="land" d="M428.72,395.85L428.72,395.83L428.72,346.63L444.68,346.65L444.7,361.63L467.17,361.61L468.75,392.03L473.78,392.04L473.79,394.58L476.3,394.58L476.34,399.62L476.43,405.72L476.38,406.03L476.39,437.18L450.95,437.24L449.75,436.41L447.48,433.65L447,432.87L446.87,432.31L446.71,432.01L444.89,429.95L443.94,429.05L443.62,428.83L443.2,428.78L440.8,427.03L439.94,426.29L439.74,425.54L438.86,425.17L436.52,424.73L435.26,424.92L434.95,425.2L434.83,425.61L434.83,425.86L434.64,426.11L433.68,427.05L432.83,427.68L432.37,427.83L430.79,428.04L429.13,427.98L428.72,427.97z"/>
		<path id="C40059" title="Harper" class="land" d="M491.88,0.48L494.3,0.47L498.95,0.45L499.59,0.46L499.79,0.46L500.11,0.46L500.11,0.47L502.41,0.46L506.43,0.49L508.25,1.2L511.52,10.87L514.72,14.35L518.13,21.81L526.69,25.97L526.04,27.4L529.42,32.48L529.41,72.29L485.1,72.71L428.32,72.62L428.4,0.09L428.59,0.09L429.46,0.1L446.56,0.1L459.33,0.23L460.93,0.24L461.01,0.24L477.66,0.36L478.94,0.46L482.26,0.45z"/>
		<path id="C40061" title="Haskell" class="land" d="M1153.08,341.79L1092.91,341.75L1092.89,324.06L1077.81,324.01L1078.41,316.67L1078.34,300.44L1081.79,298.79L1084.06,295.67L1087.69,295.2L1093.56,300.95L1099.16,299.34L1101.6,300.58L1105.34,305.14L1108.4,306.31L1110.99,304.67L1114.33,299.12L1117.58,299.51L1118.43,297.98L1116.71,293.32L1117.79,290.94L1121.29,291.75L1122.6,290.06L1119.82,287.66L1122.89,285.8L1125.17,287.14L1128.23,282.73L1130.49,281.29L1131.36,276.56L1132.95,273.78L1135.65,272.04L1139.22,273.05L1139.32,276.84L1141.85,279.77L1144.66,280.85L1150.08,281.05L1153.38,283.56L1156.79,282.67L1158.16,285.04L1157.81,287.01L1154.31,290.31L1154.99,291.46L1156.77,291.6L1161.93,289.88L1165.83,287.51L1169.39,295.68L1169.3,316.75L1153.07,316.7z"/>
		<path id="C40063" title="Hughes" class="land" d="M986.84,392.2L941.93,392.18L941.97,367.8L941.62,363.93L939.33,368.61L934.21,366.39L929.89,367.41L929.94,331.78L936.94,331.8L936.95,301.46L1002.63,301.5L1002.3,325.58L998.51,326.43L998.69,331.22L995.7,331L991.02,336.61L990.09,342.08L987.29,343.27L987.26,377.09L986.86,377.13z"/>
		<path id="C40065" title="Jackson" class="land" d="M503.72,456.27L503.38,456.28L502,456L501.54,455.7L501.01,454.83L500.59,454.32L500.19,453.99L498.13,453.23L497.65,453.15L496.79,453.54L495.92,453.67L493.14,453.46L492.18,453.13L491.29,452.66L490.22,452.47L489.55,452.5L488.74,452.78L488.11,454.33L487.99,455.97L488.1,457.16L487.97,457.56L487.66,458.08L486.42,459.59L485.89,460.01L482.44,460.2L481.48,459.78L478.8,459.11L478.15,459.69L477.41,460.06L476.94,460.18L476.47,460.09L475.7,459.49L474.71,459.13L472.12,458.92L470.48,457.79L469.8,457.21L469.49,456.59L469.58,456.02L469.46,455.52L469.27,455.16L468.72,454.56L467.28,453.71L465.77,453.1L463.86,451.98L462.01,450.39L461.95,450.16L462.35,449.57L462.35,449.37L462.24,449.19L460.79,448.03L459.76,448L458.23,446.36L455.29,442.51L454.65,441L454.73,440.51L453.71,438.82L452.63,438.4L450.95,437.24L476.39,437.18L476.38,406.03L476.43,405.72L476.34,399.62L511.14,399.54L508.42,398.92L509.16,397.56L509.12,391.91L513.64,391.93L513.62,384.31L536.38,384.49L536.38,382.74L538.5,382.72L542.16,379.87L543.99,377.93L546.91,377.13L549.58,378.23L550.34,381.2L549.65,385.26L548.04,389.51L548.51,393.35L547.55,394.77L547.87,396.59L549.01,399.13L552.2,403.61L559.29,404.41L563.02,403.62L565.24,406.87L561.6,408.16L557.72,413.24L556.84,414.6L558.59,416.67L559.4,419.79L557.45,422.68L552.54,423L546.06,427.09L545.55,431.41L542.22,435.02L540.1,440.5L540.24,446.34L538.56,451.68L538.53,455.6L541.59,460.03L543.14,462.52L542.32,466.25L541.48,466.62L541.14,465.92L540.54,465.72L540.19,465.74L539.87,465.98L539.28,466.03L538.73,465.89L538.35,465.57L538.26,465.28L538.12,463.66L537.69,462.07L536.88,460.36L536.02,459.79L535.67,459.94L535.2,460.4L534.63,460.36L532.83,458.82L532.31,458.25L532.25,457.96L532.45,457.79L533.8,457.7L534.27,457.45L534.59,457.16L534.25,455.04L533.85,454.76L530.17,453.11L529.5,453L528.86,453.2L527.55,453.92L526.39,454.23L526.11,454.22L525.93,454.12L525.27,453.16L524.64,451.79L523.87,450.9L522.83,450.3L521.53,449.26L520.63,448.39L520.58,447.91L520.62,447.63L520.9,447.09L520.92,446.71L520.33,446.02L518.79,445.53L517.97,445.51L517.16,445.84L515.17,448.39L514.88,451.51L514.89,452.43L514.95,452.67L515.32,453.02L515.67,454.68L514.84,459.46L514.51,459.94L514.03,460.22L513.43,460.37L513.19,460.34L511.53,459.01L510.02,460.23L508.63,460.11L508.02,459.11L506.93,457.67L504.32,456.26z"/>
		<path id="C40067" title="Jefferson" class="land" d="M777.04,541.95L773.96,541.4L773.29,541.11L773.03,540.86L772.02,539.17L771.91,538.47L771.92,538.07L772.04,537.74L772.2,537.6L772.71,536.7L773.09,532.64L772.98,532.36L770.2,529.86L766.67,527.61L763.47,526.2L762.71,525.97L761.24,525.87L758.92,526.69L758.2,527.19L757.51,528.28L756.62,530.68L755.83,532.11L754.82,533.36L753.6,534.5L752.61,535.25L752.4,535.3L751.99,535.26L751.72,535.12L749.65,535.18L748.25,535.64L748.27,536.25L748.67,537.21L748.73,538.31L748.61,538.58L748.11,539.09L747.87,539.21L746.84,539.07L745.26,539.72L745.74,540.7L745.83,541.66L745.7,542.29L745.12,543.13L742.71,544.07L742.44,544.92L742.16,545.44L738.03,548.78L733.54,550.19L732.73,550.26L731.88,550.05L729.12,548.72L727.87,547.77L723.41,545.09L723.11,544.97L722.55,544.98L722.02,545.15L721.34,545.22L720.31,545.09L718.97,544.54L718.06,543.82L717.54,543.26L717.53,543.25L716.69,542.01L716.58,541.69L716.58,541.41L716.72,540.84L717.23,539.58L717.4,539.38L717.66,539.38L718.21,540.16L718.67,540.5L719.45,540.26L720,539.76L720.49,539.05L720.99,537.36L721.13,536.48L721.03,535.29L720.88,535.06L720.73,534.99L719.6,535.32L719.23,535.33L718.49,535.17L718.3,535.04L718.08,534.63L718.06,534.19L718.28,533.9L719.27,533.41L720.04,532.63L720.53,531.51L722.09,526.38L722.12,526.14L722.02,525.98L721.86,525.93L721.13,526.09L720.68,526.09L720.32,525.96L719.65,525.38L718.89,524.3L718.42,523.46L718.06,523.24L717.48,523.47L716.83,524.06L716.17,524.42L713.56,525.09L711.59,525.46L710.42,525.53L708.5,525.52L706.49,525.11L702.54,523.98L702.2,523.84L701.78,523.46L699.58,519.39L699.31,519.03L699.31,518.59L699.52,518.18L699.8,517.99L700.38,517.84L700.48,517.71L700.59,517.37L700.64,516.74L700.22,516.05L698.01,513.71L697.52,512.89L697.21,512.02L697.09,510.45L697.32,509.9L699.48,507.55L700.19,506.5L700.79,505.32L701.17,504.33L701.43,503.46L701.56,502.4L701.49,502.06L699.82,499.2L699.08,498.22L698.74,497.95L698.02,497.84L696.75,497.87L695.69,498.56L694.84,499.51L694.53,500.06L694.49,474.63L714.28,474.68L714.39,474.75L776.84,474.73L776.83,510.17L777.1,512.2L777.08,523.88L780.52,527.16L777.07,527.14z"/>
		<path id="C40069" title="Johnston" class="land" d="M916.39,504.76L916.83,502.89L913.32,500.39L911.47,496.73L908.42,497.21L908.78,495.54L906.28,496.73L904.3,494.83L866.65,494.78L866.68,467.24L874.17,467.19L874.19,437.37L881.84,437.38L926.59,437.48L926.61,452.28L941.81,452.48L941.76,497.4L935.16,497.39L935.17,504.77z"/>
		<path id="C40071" title="Kay" class="land" d="M791.15,0.63L791.16,0.63L802.21,0.6L803.99,0.6L836.08,0.55L839.67,0.56L840,0.57L842.28,0.57L842.8,0.57L851.49,0.57L852.88,0.58L860.66,0.57L861.83,0.56L866.51,0.56L868.33,0.54L869.01,0.54L870.95,0.55L871.16,0.54L874.84,0.53L876.09,0.53L882.48,0.54L886.42,0.6L886.87,0.54L892.9,0.57L892.53,39.13L887.35,39.15L887.35,41.71L882.51,41.71L882.64,44.82L880.86,45.99L876.26,44.31L872.96,44.61L868.47,50.67L866.89,56.16L858.31,55.9L853.72,54.87L852.79,53.42L848.02,56.5L848.32,62.43L849.6,63.64L850.79,70.94L848.98,72.55L791.26,72.55L791.13,72.55z"/>
		<path id="C40073" title="Kingfisher" class="land" d="M760.92,225.35L684.8,225.49L684.84,195.08L684.39,195.08L684.31,148.26L699.54,148.27L760.7,148.3z"/>
		<path id="C40075" title="Kiowa" class="land" d="M536.38,382.74L535.91,381.55L531.42,378.79L528.63,377.16L526.62,374.51L528.12,371.18L529.27,369.05L527.69,364.97L524.84,361.66L522.27,356.03L524.86,349.28L519.2,341.61L517.81,336.81L514.83,334.9L513.12,332.02L513.13,331.67L520.13,331.63L606.52,331.7L609.14,334.27L610.06,332.42L612.63,333.71L614.94,332.47L617.98,332.98L618.38,331.24L621.42,330.38L621.49,331.96L623.13,330.51L625.69,335L625.86,377.05L596.4,376.96L596.42,422.12L571.41,422.12L571.43,414.61L556.84,414.6L557.72,413.24L561.6,408.16L565.24,406.87L563.02,403.62L559.29,404.41L552.2,403.61L549.01,399.13L547.87,396.59L547.55,394.77L548.51,393.35L548.04,389.51L549.65,385.26L550.34,381.2L549.58,378.23L546.91,377.13L543.99,377.93L542.16,379.87L538.5,382.72z"/>
		<path id="C40077" title="Latimer" class="land" d="M1153.08,341.79L1153.11,361.93L1143.04,361.94L1143.09,377.03L1134.28,377.04L1134.26,407.2L1073.6,407.2L1073.14,407.15L1069.3,407.13L1069.35,380.76L1070.3,377.06L1070.28,346.84L1092.88,346.82L1092.91,341.75z"/>
		<path id="C40079" title="Le Flore" class="land" d="M1222.57,331.11L1221.62,363.36L1221.42,369.96L1221.45,370.26L1221.45,370.88L1221.37,373.54L1221.31,375.95L1221.3,376.4L1221.28,376.97L1220.66,398.86L1220.24,413.73L1220.25,415.12L1219.88,430.15L1219.88,430.6L1219.73,437.12L1152.75,437.25L1152.19,437.28L1152.02,437.24L1151.69,437.23L1151.67,407.18L1134.26,407.2L1134.28,377.04L1143.09,377.03L1143.04,361.94L1153.11,361.93L1153.08,341.79L1153.07,316.7L1169.3,316.75L1169.39,295.68L1172.14,295.02L1175.66,290.1L1178.45,289.82L1181.95,291.08L1184.83,293.95L1187.98,295.17L1188.71,298.91L1190.88,301.04L1195.12,300.83L1197.63,299.03L1200.64,294.87L1204.3,295.28L1206.38,297.96L1209.39,298.99L1211.76,298.09L1215.27,299.43L1216.87,298.09L1214.92,294.55L1214.92,292.33L1216.96,290.63L1216.52,287.65L1223.64,284.67L1223.79,285.66L1223.69,286.45L1223.96,287.62L1223.89,288L1223.91,288.78L1223.59,298.61L1223.44,301.23L1223.42,301.92L1223.41,303.94L1223.36,304.23L1223.34,304.74L1223.23,308.43L1223.09,309.81L1223.06,310.32L1223.09,311.77L1223,315.24L1222.96,315.66L1222.88,317.62L1222.88,318.27L1222.91,319.38L1222.82,322.06L1222.81,322.54L1222.64,329.53z"/>
		<path id="C40081" title="Lincoln" class="land" d="M837.1,187.46L911.28,187.55L911.35,240.57L910.74,271.37L836.97,271.15L837.03,225.61z"/>
		<path id="C40083" title="Logan" class="land" d="M837.03,225.61L760.92,225.35L760.7,148.3L791.37,148.34L806.63,148.37L806.6,149.29L806.64,179.92L810.96,175.36L815.1,176.3L816.35,180.7L817.86,181.99L822.45,182.16L825.59,183.5L828.1,186.97L832.56,187.64L837.11,184.49L837.1,187.46z"/>
		<path id="C40085" title="Love" class="land" d="M865.08,533.1L863.98,533.89L861.09,535.4L860.91,535.42L860.46,535.11L860.06,534.41L859.88,533.11L859.93,532.65L860.12,532.09L860.11,531.91L859.84,531.87L858.9,532.16L858.48,532.5L857.99,533.1L857.84,533.43L857.72,534.38L857.88,536.04L858.03,536.57L858.78,538.37L859.33,540.7L859.46,542.89L859.24,543.84L854.62,550.07L853.76,551.08L851.63,552.1L851.28,552.18L850.21,551.64L849.72,551.5L849.26,551.6L848.96,551.78L848.8,552.19L848.92,552.74L849.22,553.38L849.3,554.25L849.26,554.57L848.8,555.44L848.23,555.89L847.47,556.17L845.95,556.46L844.61,557.15L844.02,557.94L843.64,558.9L843.57,559.65L843.76,560.52L844.63,563.07L845,564.54L845.09,565.49L845.08,566.66L844.87,568.23L844.17,569.74L843.74,570.44L843.3,570.99L842.25,571.88L841.62,572.27L841,572.53L839.88,572.81L839.17,572.84L837.54,572.55L835.84,571.99L835.03,571.56L833.92,570.76L833.88,570.73L832.58,569.32L831.21,566.19L830.36,563.83L829.99,561.87L829.36,561.15L828.15,559.1L827.84,558.39L827.81,556.96L827.9,555.42L828.11,554.91L828.66,553.97L828.97,553.55L829.21,553.38L829.51,553.29L830.58,553.36L831.27,553.28L832.67,552.6L833.35,551.73L833.38,550.55L831.53,542.86L831.35,542.35L830.69,541.41L827.74,539.08L827.05,538.78L824.83,539.02L822.6,540.46L822.2,541L822.02,541.47L821.59,545.79L820.87,547.47L820.67,547.75L820.53,547.82L818.4,547.94L817.85,547.83L817.32,547.6L816.34,546.92L815.16,545.57L814.44,544.92L813.98,544.92L813.26,545.26L812.28,547.18L812.06,547.38L811.73,547.5L811.14,547.53L810.88,547.35L810.55,546.21L810.4,546L810.17,545.91L809.63,545.91L809.12,546.18L808.71,547.07L808.49,548.34L807.43,551.14L805.98,553.51L804.98,554.58L804.52,554.97L803.92,555.32L798.57,555.42L796.27,555.33L793.74,554.58L792.48,553.76L791.62,552.73L791.08,551.5L791.27,550.17L791.55,549.52L791.83,549.21L792.7,546.51L792.78,543L791.76,541.25L791.43,540.85L788.05,538.83L787.7,538.62L786.51,538.23L785.64,538.17L783.04,539.19L782.16,539.52L781.1,540.4L779.6,541.31L778.41,541.88L777.92,542L777.45,542.03L777.04,541.95L777.07,527.14L780.52,527.16L777.08,523.88L777.1,512.2L861.51,512.21L861.5,522.16L866.49,522.17L866.49,532.22z"/>
		<path id="C40087" title="McClain" class="land" d="M761.77,377.02L761.43,377.01L761.36,294.01L761.29,293.84L761.27,293.48L761.28,293.21L763.99,293.93L768.95,298.84L774.16,299.32L777.11,301.12L777.95,306.37L776.28,308.9L776.89,311.13L779.85,314.69L783.78,316.8L793.96,324.03L794.59,326.36L799.04,327.91L799.87,330.22L799.76,336.91L804.58,337.1L806.59,338.59L807.12,343.03L806.05,346.05L808.35,353.59L807.46,354.43L809.5,359.03L813.23,359.89L814.39,358.04L818.07,358.32L819.82,361.37L828.84,362.34L829.16,364.35L836.85,364.36L838.08,364.97L838.2,363.24L845.79,364.23L846.92,365.8L849.68,365.56L854.9,367.97L867.09,358.09L867.05,377.11L866.82,377.14L763.93,377.03L763.71,376.97L763.52,377.02z"/>
		<path id="C40089" title="McCurtain" class="land" d="M1180.25,574.71L1180.04,574.01L1180.26,572.98L1179.99,571.89L1179.54,571.13L1178.04,570.69L1177.17,570.69L1176.63,570.31L1175.94,569.33L1175.9,568.46L1176.17,567.53L1176.13,567.04L1175.9,566.61L1175.49,566.44L1174.9,566.33L1172.81,567.86L1171.53,568.13L1170.03,567.31L1169.62,566.88L1168.85,566.82L1168.21,567.04L1167.8,567.31L1167.62,568.24L1167.35,568.67L1166.94,568.89L1165.39,569L1164.3,568.98L1161.44,567.9L1160.67,567.34L1160.33,566.82L1160.56,566.26L1160.48,565.35L1160.02,564.65L1159.71,564.54L1159.02,564.7L1158.72,564.25L1156.73,562.7L1156.17,562.38L1155.42,562.34L1154.26,560.99L1154.19,560.43L1154.26,559.64L1154.63,558.39L1154.65,557.86L1154.51,557.16L1154.28,556.9L1153.93,556.62L1153.56,556.46L1153,556.48L1152.43,556.76L1151.94,556.88L1151.41,556.85L1150.73,556.57L1150.1,555.56L1149.98,554.25L1148.82,552.66L1147.86,552.31L1147.65,550.36L1147.22,548.22L1146.86,548.01L1146.57,548.08L1146.17,548.4L1145.4,549.7L1145.16,549.86L1144.42,549.92L1143.82,549.67L1143.42,548.82L1142.75,547.95L1141.58,547.34L1140.43,548.14L1139.59,548.41L1137.46,548.33L1136.13,547.94L1135.78,547.68L1134.38,543.79L1134.06,542.34L1133.42,541.6L1132.6,541.26L1131.51,541.81L1130.78,542.68L1129.86,542.68L1129.36,542.22L1129.17,541.65L1129.21,540.71L1128.71,539.83L1128.39,539.44L1128.02,539.19L1126.93,539.3L1125.65,538.82L1125.3,538.34L1125.28,537.81L1125.47,536.17L1124.97,535.59L1124.06,535.21L1121.43,535.31L1120.52,535.19L1120.43,497.46L1121.16,493.06L1121.18,482.51L1136.12,482.55L1136.1,437.16L1151.69,437.23L1152.02,437.24L1152.19,437.28L1152.75,437.25L1219.73,437.12L1219.37,452.27L1219.34,453.16L1219.29,455.18L1219.12,462.62L1219.05,463.9L1218.42,491.8L1217.76,520.64L1217.76,520.65L1217.76,521.02L1217.47,531.7L1217.46,532.31L1217.42,534.52L1217.41,535.06L1217.2,544.7L1217.18,544.75L1217.04,549.86L1216.95,553.48L1216.84,558.15L1216.84,558.19L1216.81,559.38L1216.77,560.52L1216.65,566.12L1216.64,566.57L1216.63,567.06L1216.62,567.1L1216.48,572.88L1216.49,573.8L1216.37,577.18L1216.39,577.81L1216.24,581.99L1216.24,583.71L1216.19,586.35L1215.96,587.88L1215.39,588.53L1213.52,589.29L1211.22,589.99L1210.42,589.54L1210.05,589.09L1209.92,588.14L1210.13,587.74L1210,586.94L1209.42,586.39L1208.62,586.34L1207.91,586.69L1207.16,586.69L1206.66,586.29L1206.53,585.64L1206.85,585.21L1206.87,584.24L1206.74,583.69L1206.03,583.13L1204.94,583.29L1204.36,583.49L1204.06,583.44L1203.85,583.08L1203.9,582.63L1204.27,581.98L1204.19,581.48L1203.77,580.88L1203.19,580.28L1202.81,579.56L1201.8,579.33L1201.26,579.58L1200.8,580.18L1200.34,580.63L1199.46,580.63L1198.83,580.48L1198.25,580.03L1197.5,579.23L1196.87,578.98L1195.95,579.53L1195.53,580.28L1194.86,580.88L1193.77,581.13L1193.31,580.98L1192.98,580.28L1193.06,579.08L1192.98,578.38L1192.81,577.78L1192.43,577.28L1191.45,577.08L1187.79,578.41L1184.5,577.98L1184.18,577.76L1184.09,577.17L1184.09,576.4L1184.27,575.81L1184.04,574.77L1183.49,574.5L1182.9,574.34L1182.49,574.5L1182.18,574.77L1181.95,575.32L1181.58,575.81L1180.99,575.7L1180.31,574.93z"/>
		<path id="C40091" title="McIntosh" class="land" d="M1093.56,300.95L1087.69,295.2L1084.06,295.67L1081.79,298.79L1078.34,300.44L1076.85,300.96L1071.32,299.59L1068.66,303.31L1069.53,305.65L1065.2,308.12L1061,309.44L1056.76,313.54L1053.89,312.85L1056.13,311.04L1055.79,308.57L1053.09,309.01L1046.8,312.4L1045.28,314.3L1046.47,315.68L1041.79,316.75L1040.51,319L1036.78,318.46L1034.82,321.12L1033.04,320.81L1029.5,317.62L1022.87,319.87L1018.45,319.59L1015.92,324.86L1013.12,326.98L1010.19,326.96L1005.33,325.43L1002.3,325.58L1002.63,301.5L1002.64,286.35L1017.74,286.38L1017.74,271.21L1025.19,271.15L1025.34,255.83L1040.97,255.81L1091.64,255.81L1092.25,255.75L1093.51,255.74z"/>
		<path id="C40093" title="Major" class="land" d="M577.24,87.9L593.9,88.02L597.35,94.25L599.02,96.06L603.32,98.24L610.58,98.79L614.48,103.97L625.07,108.1L638.18,107.22L638.17,95.62L699.46,95.65L699.54,148.27L684.31,148.26L623.42,148.26L577.88,148.85L577.86,133.84L577.16,133.84z"/>
		<path id="C40095" title="Marshall" class="land" d="M915.93,542.41L915.3,542.28L913.21,542.43L910.25,542.48L909.99,542.31L908,540.51L905.74,538.68L905.1,538.57L904.7,538.63L904.21,538.98L903.81,539.43L903.54,539.97L902.74,542.18L902.38,544.23L902.57,545.53L902.55,546L902.2,547.88L901.7,549.3L901.34,550.1L900.08,551.96L899.38,552.65L898.85,552.99L898.24,553.23L893.44,554.25L892.3,554.43L891.22,554.47L890.56,554.29L890.11,553.94L889.92,553.58L889.05,551.46L888.99,550.4L888.65,548.73L888.51,548.36L888.09,547.77L886.55,546.86L883.91,546.21L881.14,545.84L880.39,546.44L880.05,546.94L879.91,547.75L879.79,549.59L879.18,550.27L878.51,550.57L877.72,550.52L876.25,549.55L874.98,548.29L873.88,547.01L872.06,542.14L871.86,541.02L871.96,539.25L871.53,535.75L871.11,534.33L870.7,533.44L870.4,532.96L869.84,532.29L869.13,531.63L868.8,531.43L868.3,531.32L867.99,531.4L866.85,531.99L866.49,532.22L866.49,522.17L861.5,522.16L861.51,512.21L861.68,494.77L866.65,494.78L904.3,494.83L906.28,496.73L908.78,495.54L908.42,497.21L911.47,496.73L913.32,500.39L916.83,502.89L916.39,504.76L916.93,505.4L918.47,507.97L919.81,510.43L920.59,511.72L920.86,514.29L918.7,516.66L917.26,518.58L917.45,520.92L915.72,522.46L913.78,522.77L912.76,522.89L912.33,525.04L916.01,529.42L915.55,534.88L915.83,541.59z"/>
		<path id="C40097" title="Mayes" class="land" d="M1141.16,148.81L1125.85,148.84L1125.87,164.17L1113.08,164.14L1079.95,164.05L1079.95,133.39L1080.58,133.39L1080.57,87.32L1095.91,87.31L1140.83,87.35L1141.14,87.38L1141.96,87.37L1141.93,133.35L1141.15,133.36z"/>
		<path id="C40099" title="Murray" class="land" d="M881.84,437.38L874.19,437.37L874.17,467.19L866.68,467.24L854.95,467.28L851.37,466.24L852.67,464.17L851.96,459.88L806.89,459.74L806.89,437.24L836.62,437.28L834.78,434.65L833.8,430.23L834.68,429.62L832.03,426.08L833.58,425.9L833.32,423.19L830,421.78L828.6,417.22L836.84,417.25L836.8,414.74L866.84,414.79L866.82,422.31L881.84,422.32z"/>
		<path id="C40101" title="Muskogee" class="land" d="M1033.37,202.48L1049.9,202.42L1051.57,206.15L1051.63,214.55L1054.02,216.29L1056.82,216.22L1058.56,218.48L1062.37,214.49L1068.78,213.64L1074.58,211.64L1082.76,212.45L1091.32,208.45L1093.59,209.99L1104.84,210.05L1124.62,210.14L1124.61,236.9L1124.52,237.67L1124.57,240.59L1124.56,255.81L1123.86,260.29L1130.55,271.6L1134.03,270.96L1135.65,272.04L1132.95,273.78L1131.36,276.56L1130.49,281.29L1128.23,282.73L1125.17,287.14L1122.89,285.8L1119.82,287.66L1122.6,290.06L1121.29,291.75L1117.79,290.94L1116.71,293.32L1118.43,297.98L1117.58,299.51L1114.33,299.12L1110.99,304.67L1108.4,306.31L1105.34,305.14L1101.6,300.58L1099.16,299.34L1093.56,300.95L1093.51,255.74L1092.25,255.75L1091.64,255.81L1040.97,255.81L1040.95,225.37L1033.35,225.38z"/>
		<path id="C40103" title="Noble" class="land" d="M867.87,133.89L837.04,133.9L837.19,147.57L837.09,149.26L806.6,149.29L806.63,148.37L791.37,148.34L791.41,134.36L791.4,134.1L791.3,133.91L791.26,72.55L848.98,72.55L852.05,73.86L856.77,74.51L864.51,73.19L869.27,71.43L873.17,75.87L871.59,79.7L867.93,79.82L863.1,83.05L857.72,83.99L855.78,87.89L852.59,87.89L852.59,118.56L867.89,118.57z"/>
		<path id="C40105" title="Nowata" class="land" d="M1048.42,71.86L1027.16,71.87L1027.13,10.73L1030.44,10.73L1030.43,0.52L1033,0.53L1034.26,0.52L1036.83,0.53L1040.24,0.53L1040.69,0.52L1041.33,0.5L1043.29,0.53L1044.75,0.51L1047.91,0.51L1052.8,0.51L1053.62,0.51L1054.82,0.51L1055.36,0.51L1060.87,0.52L1066.46,0.51L1068.17,0.52L1069.72,0.53L1084.56,0.53L1084.58,0.53L1084.54,10.59L1081.13,10.58L1081.15,71.86z"/>
		<path id="C40107" title="Okfuskee" class="land" d="M910.74,271.37L911.35,240.57L972.48,240.55L972.44,255.8L987.44,255.76L987.48,286.35L1002.64,286.35L1002.63,301.5L936.95,301.46L936.96,270.5L936.35,272.06L932.42,271.15L930.33,273.74L931,275.36L929.06,277.27L925.91,276.87L922.03,272.25L918.67,275.11L920.6,276.26L919.89,278.36L923.27,280.41L923.47,283.88L920.47,283.19L920.73,282.02L917.63,281.98L916.33,280.31L914.33,282.84L910.91,282.19z"/>
		<path id="C40109" title="Oklahoma" class="land" d="M836.88,286.35L819.33,286.26L796.69,286.27L761.3,286.3L761.31,271.09L761.31,255.93L760.92,255.93L760.92,225.35L837.03,225.61L836.97,271.15z"/>
		<path id="C40111" title="Okmulgee" class="land" d="M972.49,202.38L995.25,202.41L1025.68,202.57L1033.37,202.48L1033.35,225.38L1040.95,225.37L1040.97,255.81L1025.34,255.83L1025.19,271.15L1017.74,271.21L1017.74,286.38L1002.64,286.35L987.48,286.35L987.44,255.76L972.44,255.8L972.48,240.55z"/>
		<path id="C40113" title="Osage" class="land" d="M999.81,102.61L999.82,147.96L999.76,148.25L999.83,148.9L961.66,148.78L961.54,146.72L964.62,143.57L965.23,140.9L963.33,137.56L953.32,137.4L949.78,135.47L944.74,130.25L939.65,128.43L938.03,126.94L936.32,120.7L934.62,118.69L930.46,119.18L928.37,123.15L926.4,124.74L923.38,125.08L919.45,123.37L918.08,121.68L918.17,118.83L920.15,115.88L923.69,114.58L925.9,110.76L924.28,107.39L922.76,106.73L917.77,111.33L914.03,109.93L913.37,106.22L909.19,102.22L903.65,103.19L901.5,102.56L898.48,100.14L897.48,97.02L899.13,93.09L898.63,90.68L896.47,88.55L896.66,85.55L894.7,80.26L892.37,78.04L890.09,77.55L886,79.64L882.73,82.26L880.35,85.45L878.35,90.67L874.98,94.26L869.67,94.81L865.71,96.98L861.85,96.17L856.39,91.59L855.78,87.89L857.72,83.99L863.1,83.05L867.93,79.82L871.59,79.7L873.17,75.87L869.27,71.43L864.51,73.19L856.77,74.51L852.05,73.86L848.98,72.55L850.79,70.94L849.6,63.64L848.32,62.43L848.02,56.5L852.79,53.42L853.72,54.87L858.31,55.9L866.89,56.16L868.47,50.67L872.96,44.61L876.26,44.31L880.86,45.99L882.64,44.82L882.51,41.71L887.35,41.71L887.35,39.15L892.53,39.13L892.9,0.57L894.12,0.53L894.79,0.52L898.52,0.52L899.24,0.53L924.92,0.62L928.53,0.63L940.65,0.55L943.67,0.53L960.12,0.52L960.51,0.52L968.91,0.56L971.41,0.57L973.59,0.53L977.98,0.54L978.21,0.56L978.6,0.56L978.96,0.57L979.53,0.55L979.81,0.58L999.86,0.6z"/>
		<path id="C40115" title="Ottawa" class="land" d="M1142.86,58.91L1142.9,10.5L1143.72,9.3L1139.6,7.37L1137.44,5.02L1138.79,4.35L1137.9,1.42L1141.69,0.48L1143.45,0.48L1163.74,0.59L1164.23,0.59L1165.49,0.6L1166.87,0.6L1174.58,0.61L1180,0.63L1180.31,0.63L1183.79,0.61L1185.36,0.6L1185.66,0.61L1196.29,0.63L1197.32,0.72L1197.32,1.07L1197.32,1.34L1197.32,9.26L1197.31,9.9L1197.3,11.5L1197.29,12.91L1197.3,13.52L1197.29,16.15L1197.29,18.71L1197.23,21.73L1197.27,27.55L1197.28,41.89L1197.31,53.45L1197.32,59.12L1197.32,59.39L1174.3,59.42L1173.87,58.91z"/>
		<path id="C40117" title="Pawnee" class="land" d="M957.44,148.72L946.53,148.62L946.38,148.61L911.25,148.5L911.23,149.14L910.5,149.1L883.02,149.32L883.03,133.89L867.87,133.89L867.89,118.57L852.59,118.56L852.59,87.89L855.78,87.89L856.39,91.59L861.85,96.17L865.71,96.98L869.67,94.81L874.98,94.26L878.35,90.67L880.35,85.45L882.73,82.26L886,79.64L890.09,77.55L892.37,78.04L894.7,80.26L896.66,85.55L896.47,88.55L898.63,90.68L899.13,93.09L897.48,97.02L898.48,100.14L901.5,102.56L903.65,103.19L909.19,102.22L913.37,106.22L914.03,109.93L917.77,111.33L922.76,106.73L924.28,107.39L925.9,110.76L923.69,114.58L920.15,115.88L918.17,118.83L918.08,121.68L919.45,123.37L923.38,125.08L926.4,124.74L928.37,123.15L930.46,119.18L934.62,118.69L936.32,120.7L938.03,126.94L939.65,128.43L944.74,130.25L949.78,135.47L953.32,137.4L963.33,137.56L965.23,140.9L964.62,143.57L961.54,146.72L961.66,148.78z"/>
		<path id="C40119" title="Payne" class="land" d="M911.28,187.55L837.1,187.46L837.11,184.49L832.56,187.64L828.1,186.97L825.59,183.5L822.45,182.16L817.86,181.99L816.35,180.7L815.1,176.3L810.96,175.36L806.64,179.92L806.6,149.29L837.09,149.26L837.19,147.57L837.04,133.9L867.87,133.89L883.03,133.89L883.02,149.32L910.5,149.1L911.23,149.14z"/>
		<path id="C40121" title="Pittsburg" class="land" d="M1078.34,300.44L1078.41,316.67L1077.81,324.01L1092.89,324.06L1092.91,341.75L1092.88,346.82L1070.28,346.84L1070.3,377.06L1069.35,380.76L1069.3,407.13L1069.33,422.16L1046.82,422.21L1017.79,422.2L1016.83,422.27L1016.81,407.25L986.83,407.23L986.84,392.2L986.86,377.13L987.26,377.09L987.29,343.27L990.09,342.08L991.02,336.61L995.7,331L998.69,331.22L998.51,326.43L1002.3,325.58L1005.33,325.43L1010.19,326.96L1013.12,326.98L1015.92,324.86L1018.45,319.59L1022.87,319.87L1029.5,317.62L1033.04,320.81L1034.82,321.12L1036.78,318.46L1040.51,319L1041.79,316.75L1046.47,315.68L1045.28,314.3L1046.8,312.4L1053.09,309.01L1055.79,308.57L1056.13,311.04L1053.89,312.85L1056.76,313.54L1061,309.44L1065.2,308.12L1069.53,305.65L1068.66,303.31L1071.32,299.59L1076.85,300.96z"/>
		<path id="C40123" title="Pontotoc" class="land" d="M866.84,414.79L866.82,377.14L867.05,377.11L867.09,358.09L869.94,359.08L873.54,364.7L878.25,364.26L882.67,361.25L885.99,364.05L885.94,368.22L889.21,369.25L892.09,369.28L894,374.55L896.07,376.67L900.85,374.71L901.95,372.16L900.63,368.62L898.45,367.22L900.09,364L904.63,364.12L907.58,368.87L911.17,369.42L914.9,368.21L917.57,366.37L920.45,366.79L922.01,372.32L925.74,374.41L929.89,367.41L934.21,366.39L939.33,368.61L941.62,363.93L941.97,367.8L941.93,392.18L941.95,407.32L926.84,407.32L926.85,437.45L926.59,437.48L881.84,437.38L881.84,422.32L866.82,422.31z"/>
		<path id="C40125" title="Pottawatomie" class="land" d="M836.85,364.36L836.88,286.35L836.97,271.15L910.74,271.37L910.91,282.19L906.71,283.76L901.44,281.64L899.67,279.51L897.33,280.23L896.47,277.95L893.91,281.12L889.06,280.33L889.21,369.25L885.94,368.22L885.99,364.05L882.67,361.25L878.25,364.26L873.54,364.7L869.94,359.08L867.09,358.09L854.9,367.97L849.68,365.56L846.92,365.8L845.79,364.23L838.2,363.24L838.08,364.97z"/>
		<path id="C40127" title="Pushmataha" class="land" d="M1069.3,407.13L1073.14,407.15L1073.6,407.2L1134.26,407.2L1151.67,407.18L1151.69,437.23L1136.1,437.16L1136.12,482.55L1121.18,482.51L1121.16,493.06L1120.43,497.46L1038.57,497.5L1038.53,497.54L1031.48,497.5L1031.47,437.28L1046.86,437.24L1046.82,422.21L1069.33,422.16z"/>
		<path id="C40129" title="Roger Mills" class="land" d="M428.71,278.41L428.71,244.05L428.71,198.18L432.75,196.8L434.54,194.83L439.46,192.44L442.25,188.39L441.26,185.18L444.72,179.41L446.56,179.42L449.47,176.63L451.91,176.08L455.98,177.26L457,182.26L456.2,184.24L455.87,189.76L457.13,192.97L460.75,196.92L464.98,198L469.17,201.89L474.78,203.43L478.3,203.59L483.06,205L485.63,202.57L491.82,200.8L493.08,194.8L497.99,190.31L500.77,181.01L503.38,179.78L506.91,176.35L511.29,175.18L517.16,175L517.15,195.04L517.9,195.05L517.9,210.24L517.73,255.82L519.57,255.83L519.57,263.33L489.38,263.31L489.34,278.54z"/>
		<path id="C40131" title="Rogers" class="land" d="M1079.95,164.05L1061.16,164.04L1060.18,162.49L1063.29,162.78L1063.87,161.19L1061.62,158.39L1061.62,154.39L1058.13,153.17L1056.43,153.8L1054.54,150.83L1054.45,148.68L1039.04,148.69L1034.01,148.64L1026.34,148.66L1026.34,133.35L1026.81,133.35L1026.79,107.8L1029.36,107.78L1029.34,102.63L1026.72,102.63L1026.76,71.86L1027.16,71.87L1048.42,71.86L1081.15,71.86L1095.88,71.84L1095.91,87.31L1080.57,87.32L1080.58,133.39L1079.95,133.39z"/>
		<path id="C40133" title="Seminole" class="land" d="M936.95,301.46L936.94,331.8L929.94,331.78L929.89,367.41L925.74,374.41L922.01,372.32L920.45,366.79L917.57,366.37L914.9,368.21L911.17,369.42L907.58,368.87L904.63,364.12L900.09,364L898.45,367.22L900.63,368.62L901.95,372.16L900.85,374.71L896.07,376.67L894,374.55L892.09,369.28L889.21,369.25L889.06,280.33L893.91,281.12L896.47,277.95L897.33,280.23L899.67,279.51L901.44,281.64L906.71,283.76L910.91,282.19L914.33,282.84L916.33,280.31L917.63,281.98L920.73,282.02L920.47,283.19L923.47,283.88L923.27,280.41L919.89,278.36L920.6,276.26L918.67,275.11L922.03,272.25L925.91,276.87L929.06,277.27L931,275.36L930.33,273.74L932.42,271.15L936.35,272.06L936.96,270.5z"/>
		<path id="C40135" title="Sequoyah" class="land" d="M1223.64,284.67L1216.52,287.65L1216.96,290.63L1214.92,292.33L1214.92,294.55L1216.87,298.09L1215.27,299.43L1211.76,298.09L1209.39,298.99L1206.38,297.96L1204.3,295.28L1200.64,294.87L1197.63,299.03L1195.12,300.83L1190.88,301.04L1188.71,298.91L1187.98,295.17L1184.83,293.95L1181.95,291.08L1178.45,289.82L1175.66,290.1L1172.14,295.02L1169.39,295.68L1165.83,287.51L1161.93,289.88L1156.77,291.6L1154.99,291.46L1154.31,290.31L1157.81,287.01L1158.16,285.04L1156.79,282.67L1153.38,283.56L1150.08,281.05L1144.66,280.85L1141.85,279.77L1139.32,276.84L1139.22,273.05L1135.65,272.04L1134.03,270.96L1130.55,271.6L1123.86,260.29L1124.56,255.81L1124.57,240.59L1149.19,240.66L1149.36,240.68L1149.64,240.63L1170.29,240.64L1218.08,240.65L1219.14,248.43L1219.25,249.33L1219.3,249.62L1219.42,250.42L1221.36,265.44L1223.91,282.72L1224,283.31L1223.61,284.51z"/>
		<path id="C40137" title="Stephens" class="land" d="M701.65,407.13L701.84,407.11L702.08,407.12L761.72,407.1L776.81,407.13L776.75,437.2L776.87,437.2L776.84,474.73L714.39,474.75L714.28,474.68L694.49,474.63L694.49,437.2L694.07,437.2L694.12,407.13z"/>
		<path id="C40139" title="Texas" class="land" d="M196.87,89.2L193.15,89.2L192.62,89.2L186.2,89.21L184.68,89.17L174.66,89.17L174.5,89.17L174.3,89.17L174.1,89.17L173.43,89.18L167.94,89.2L167.93,89.18L153.13,89.03L138.55,89.01L138.57,27.22L139.12,27.22L139.14,1.62L143.1,1.59L143.1,1.59L157.1,1.51L200.06,1.27L200.23,1.26L206.68,1.21L206.68,1.21L211.85,1.19L216.66,1.17L226.71,1.11L226.87,1.1L231.96,1.08L234.61,1.06L234.88,1.06L255.57,0.92L255.77,0.9L276.44,0.76L278.32,0.75L284.16,0.72L286.47,0.74L293.74,0.72L293.76,0.72L293.74,27.31L293.12,27.31L292.57,27.36L292.52,89.19L289.24,89.19L279.5,89.2L278.48,89.2L273.81,89.25z"/>
		<path id="C40141" title="Tillman" class="land" d="M627.24,497.43L627,497.53L626.3,497.55L625.6,497.42L623.59,496.66L622.52,496.16L621.83,496.17L621.47,496.4L620.74,497.23L615.83,501.55L614.91,501.48L612.11,501.07L611.91,500.98L609.52,501.1L609.35,501.19L609.15,501.51L609.1,501.92L608.78,502.54L608.42,502.86L607.37,503.08L606.27,503.01L605.89,502.62L605.92,502.28L605.76,501.68L605.59,501.44L605.05,500.99L601.27,499.73L599.16,497.64L598.28,497.2L595.69,496.57L592.19,496.66L591.95,496.75L591.86,497L591.79,498.18L591.55,498.67L591.2,498.81L590.4,498.72L589.67,498.04L589.44,497.68L589.43,497.45L589.82,496.86L589.96,496.42L589.92,496.07L589.72,495.8L584.52,493.93L583.23,493.18L582.9,492.91L582.55,492.47L581.93,491.58L581.83,491.32L580.11,489.43L578.66,488.05L578.38,487.9L578.35,487.89L577.5,487.68L577.17,487.82L576.95,488.12L576.99,488.96L576.93,489.26L576.38,489.83L576,489.84L575.27,489.45L574.92,488.98L574.62,488.3L574.23,487.04L573.39,486.41L572.88,486.34L571.46,487.03L571.08,487.58L571.16,488.55L570.74,488.92L569.7,489.51L566.39,488.87L566.22,488.95L566,489.26L565.72,489.92L565.36,490.37L564.6,490.37L563.28,489.96L563.17,489.85L563.12,489.56L562.95,489.24L562.08,488.62L560.72,488.13L560.21,488.08L558.41,488.46L556.04,489.48L554.55,489.76L553.5,489.55L553.04,489.31L552.74,488.79L552.79,488.46L552.99,487.97L553.36,487.7L553.49,487.43L553.36,486.97L553.22,486.84L552.92,486.73L551.83,486.77L551.01,487.53L548.86,488.54L544.51,487.6L544.14,487.19L544.06,486.83L544.14,486.25L544.43,485.39L544.42,484.96L544.28,484.5L543.65,483.18L543.42,482.45L543.45,479.59L543.79,477.61L543.64,476.16L543.55,476.05L542.98,476.11L542.49,475.98L541.93,475.7L541.62,475.21L541.35,474.2L541.09,471.03L541.35,470.46L541.62,468.57L541.48,466.62L542.32,466.25L543.14,462.52L541.59,460.03L538.53,455.6L538.56,451.68L540.24,446.34L540.1,440.5L542.22,435.02L545.55,431.41L546.06,427.09L552.54,423L557.45,422.68L559.4,419.79L558.59,416.67L556.84,414.6L571.43,414.61L571.41,422.12L596.42,422.12L596.41,437.14L619.84,437.12L619.84,454.62L619.84,467.11L627.31,467.06z"/>
		<path id="C40143" title="Tulsa" class="land" d="M995.76,179.31L995.75,164.02L957.45,163.95L957.44,148.72L961.66,148.78L999.83,148.9L999.76,148.25L999.82,147.96L999.81,102.61L1026.72,102.63L1029.34,102.63L1029.36,107.78L1026.79,107.8L1026.81,133.35L1026.34,133.35L1026.34,148.66L1034.01,148.64L1034.01,194.69L1025.76,194.64L1025.68,202.57L995.25,202.41L995.75,194.64z"/>
		<path id="C40145" title="Wagoner" class="land" d="M1034.01,148.64L1039.04,148.69L1054.45,148.68L1054.54,150.83L1056.43,153.8L1058.13,153.17L1061.62,154.39L1061.62,158.39L1063.87,161.19L1063.29,162.78L1060.18,162.49L1061.16,164.04L1079.95,164.05L1113.08,164.14L1113.02,170.26L1110.6,170.27L1110.58,175.66L1108.73,179.38L1106.76,179.41L1102.98,183.58L1104.23,186.51L1104.32,189.67L1102.7,191.51L1102.57,194.12L1105.98,198.82L1109.58,199.62L1110.29,201.47L1104.84,210.05L1093.59,209.99L1091.32,208.45L1082.76,212.45L1074.58,211.64L1068.78,213.64L1062.37,214.49L1058.56,218.48L1056.82,216.22L1054.02,216.29L1051.63,214.55L1051.57,206.15L1049.9,202.42L1033.37,202.48L1025.68,202.57L1025.76,194.64L1034.01,194.69z"/>
		<path id="C40147" title="Washington" class="land" d="M1008.97,0.52L1010.24,0.53L1012.8,0.51L1017.52,0.52L1017.79,0.52L1017.98,0.52L1018.98,0.52L1027.4,0.55L1030.43,0.52L1030.44,10.73L1027.13,10.73L1027.16,71.87L1026.76,71.86L1026.72,102.63L999.81,102.61L999.86,0.6L1005.08,0.55z"/>
		<path id="C40149" title="Washita" class="land" d="M520.13,331.63L520.13,316.38L519.55,316.38L519.56,270.92L625.36,271.11L625.29,316.38L626.12,316.43L626.09,333.13L625.69,335L623.13,330.51L621.49,331.96L621.42,330.38L618.38,331.24L617.98,332.98L614.94,332.47L612.63,333.71L610.06,332.42L609.14,334.27L606.52,331.7z"/>
		<path id="C40151" title="Woods" class="land" d="M529.42,32.48L526.04,27.4L526.69,25.97L518.13,21.81L514.72,14.35L511.52,10.87L508.25,1.2L506.43,0.49L513.45,0.47L517.97,0.36L531.94,0.47L536.14,0.47L553.09,0.5L553.74,0.5L564.48,0.53L567.38,0.46L571.53,0.48L572.38,0.48L588.63,0.52L588.71,0.52L590.21,0.52L600.5,0.53L601.03,0.53L601.28,0.53L605.62,0.5L611.77,0.54L612.34,0.56L636.56,0.57L636.59,0.57L636.55,10.67L637.23,10.67L637.19,72.45L638.19,76.47L638.17,95.62L638.18,107.22L625.07,108.1L614.48,103.97L610.58,98.79L603.32,98.24L599.02,96.06L597.35,94.25L593.9,88.02L577.24,87.9L577.29,71.6L574.04,69.71L569.72,64.29L568.35,63.9L568.21,60.59L564.7,56.1L565.24,54.6L562.79,50.96L559.51,49.87L557.66,46.24L553.5,42.6L551.6,38.97L547.77,37.62L541.5,37.61L535.82,38.61L532.98,37.78z"/>
		<path id="C40153" title="Woodward" class="land" d="M485.1,72.71L529.41,72.29L529.42,32.48L532.98,37.78L535.82,38.61L541.5,37.61L547.77,37.62L551.6,38.97L553.5,42.6L557.66,46.24L559.51,49.87L562.79,50.96L565.24,54.6L564.7,56.1L568.21,60.59L568.35,63.9L569.72,64.29L574.04,69.71L577.29,71.6L577.24,87.9L577.16,133.84L577.86,133.84L577.88,148.85L517.01,148.37L486.45,148.41L486.49,133.85L485.21,133.86z"/>
	</g>
</svg>