<?xml version="1.0" encoding="utf-8"?>
<!-- (c) ammap.com | SVG map of PA Counties -->
<svg xmlns="http://www.w3.org/2000/svg" xmlns:amcharts="http://amcharts.com/ammap" xmlns:xlink="http://www.w3.org/1999/xlink" version="1.1">
	<defs>
		<style type="text/css">
			.land
			{
				fill: #CCCCCC;
				fill-opacity: 1;
				stroke:white;
				stroke-opacity: 1;
				stroke-width:0.5;
			}
		</style>

		<amcharts:ammap projection="mercator" leftLongitude="-80.520189" topLatitude="42.269805" rightLongitude="-74.689293" bottomLatitude="39.719749"></amcharts:ammap>

		<!-- All areas are listed in the line below. You can use this list in your script. -->
		<!--{id:"C42001"},{id:"C42003"},{id:"C42005"},{id:"C42007"},{id:"C42009"},{id:"C42011"},{id:"C42013"},{id:"C42015"},{id:"C42017"},{id:"C42019"},{id:"C42021"},{id:"C42023"},{id:"C42025"},{id:"C42027"},{id:"C42029"},{id:"C42031"},{id:"C42033"},{id:"C42035"},{id:"C42037"},{id:"C42039"},{id:"C42041"},{id:"C42043"},{id:"C42045"},{id:"C42047"},{id:"C42049"},{id:"C42051"},{id:"C42053"},{id:"C42055"},{id:"C42057"},{id:"C42059"},{id:"C42061"},{id:"C42063"},{id:"C42065"},{id:"C42067"},{id:"C42069"},{id:"C42071"},{id:"C42073"},{id:"C42075"},{id:"C42077"},{id:"C42079"},{id:"C42081"},{id:"C42083"},{id:"C42085"},{id:"C42087"},{id:"C42089"},{id:"C42091"},{id:"C42093"},{id:"C42095"},{id:"C42097"},{id:"C42099"},{id:"C42101"},{id:"C42103"},{id:"C42105"},{id:"C42107"},{id:"C42109"},{id:"C42111"},{id:"C42113"},{id:"C42115"},{id:"C42117"},{id:"C42119"},{id:"C42121"},{id:"C42123"},{id:"C42125"},{id:"C42127"},{id:"C42129"},{id:"C42131"},{id:"C42133"}-->

	</defs>
	<g>
		<path id="C42001" title="Adams" class="land" d="M640.05,645.65L654.24,631.89L685.37,624.72L699.92,622.35L710.1,611.29L735.03,626.58L746.04,648.07L745.33,647.51L745.7,653.44L742.32,657.15L744.71,665.05L746.61,664.7L748.41,669.43L744.39,671.39L739.29,676.16L738.96,680.63L739.06,706.71L729.06,706.67L726.73,706.61L726.58,706.64L693.43,706.67L693.39,706.67L688.6,706.67L687.87,706.67L642.5,706.66z"/>
		<path id="C42003" title="Allegheny" class="land" d="M167.47,518.38L157.18,527.76L156.98,529.28L156.5,531.95L154.94,541.78L154.89,542.07L154.85,542.42L154.56,543.95L156.35,551.64L152.24,553.34L153.65,558.93L149.92,564.6L154.96,568.13L136.31,576.42L133.93,576.67L132.45,577.13L131.55,577.26L130.88,577.23L130.09,577.06L118.37,572L115.31,567L119.2,564.52L127.17,561.33L102.07,551.6L70.63,539.33L33.38,499.57L33.4,499.56L61.16,473.29L71.34,463.28L78.73,462.17L77.98,445.4L173.61,446.66L173.68,446.66L174.48,453.65L167.66,463.68L158.74,467.81L156.51,474.2L158.39,479.68L167.42,481.83L171.78,486.4L171.71,486.86L171.32,508.92z"/>
		<path id="C42005" title="Armstrong" class="land" d="M173.61,446.66L173.73,445.8L173.64,445.32L173.67,441.41L174.23,426.9L173.85,423.96L174.07,308.01L176.37,311.81L175,314.29L176.1,316.84L176.4,321.7L176.12,326.65L176.85,331.29L178.78,333.19L180.93,335.34L180.97,337.79L179.11,339.62L179.8,342.16L181.08,342.57L184.02,343.92L186.99,345.33L189.19,346.12L191.42,345.54L193.35,346.34L193,348.18L192.18,350.41L191.28,351.77L192.02,353.91L193.15,353.89L194.77,354.15L193.75,356.93L189.8,358.01L190.75,362.94L197.09,360.8L206.85,360.98L215.2,359.42L221.68,358.12L227.14,358.96L230.4,356.72L233.58,355.77L235.85,357.27L239.45,359.4L240.4,359.88L241.19,358.1L242.05,356.07L245.02,355.45L247.19,355.22L249.16,355.62L252.51,354.68L254.86,352.41L257.54,352.41L260.59,351.7L262.99,349.65L264.21,347.43L266.5,346.37L268.74,344.95L271.31,342.45L273.9,341.37L274.95,341.76L273.88,379.92L273.9,417.35L266.28,427.9L224.57,485.1L221.61,484.02L214.72,486.43L211.61,481.66L208.6,481.74L201.28,475.76L199.28,470.35L203.48,464.8L197.78,465.52L195.31,461.23L196.53,455.79L192.68,459.13L191.12,454.91L185.55,450.86L185.11,447.8L178.77,443.82L173.68,446.66z"/>
		<path id="C42007" title="Beaver" class="land" d="M0.18,488.47L0.18,488.47L0.18,468.58L0.17,468.59L0.17,461.36L0.18,461.36L0.19,455.19L0.18,412.84L0.19,410.37L0.17,397.12L0.18,396.87L0.18,396.52L75.86,395.46L77.91,444.81L77.98,445.4L78.73,462.17L71.34,463.28L61.16,473.29L33.4,499.56L33.38,499.57L15.07,499.53L0.19,499.62z"/>
		<path id="C42009" title="Bedford" class="land" d="M475,548.9L479.41,568.99L500.7,585.26L495.66,597.09L485.7,606.84L486.24,611.3L490.91,614.36L489.57,617.54L486.14,618.92L486.12,627.4L482.87,632.22L472.86,656.71L466.24,677.96L459.98,690L449.11,705.98L436.89,705.99L432.15,705.89L416.13,705.99L414.3,705.89L408.11,705.97L377.12,705.84L359.31,705.87L367.98,686.16L370.04,678.51L368.79,614.82L371.14,609.93L373.69,611.39L386.9,572.65L390.79,563.96L393.82,559.43L395.62,545.71L398.77,540.91L417.81,550.27L422.85,551.8L434.98,563.56L437.84,547.69L468.39,564.18z"/>
		<path id="C42011" title="Berks" class="land" d="M917.14,543.94L916.98,543.78L905.74,531.68L900.2,530.13L856.47,494.51L861.01,494.6L877.69,489.18L895.14,488.7L902.82,485.5L912.85,483.78L916.32,480.96L926.66,476.29L932.21,475.21L935.17,471.47L937.5,473.01L939.68,470.3L944.6,473.13L946.32,472.01L949.67,457.62L950.31,454.94L971.67,444.58L997.85,466.69L1003.58,471.4L1003.88,471.63L1013.06,479.33L1015.59,481.39L1038.75,500.73L1047.62,507.97L1041.31,518.21L1012.71,564.12L1012.54,564.25L1005.6,569.01L975.47,592.93L975.09,592.66L929.62,554.43L917.5,544.35z"/>
		<path id="C42013" title="Blair" class="land" d="M398.77,540.91L402.56,533.79L410.59,528.95L412.9,512.69L411.51,510.23L415.17,501.96L415.68,491.71L420.17,485.48L426.99,482.16L436.42,465.68L435.02,459.17L436.73,453.47L443.23,453.66L455.45,431.46L453.46,429.32L501.34,426.44L504.55,427.52L499.82,431.62L486,439.45L482.41,445.34L487.61,455.04L494.09,460.93L490.34,467.17L491.59,470.34L487.64,477.32L491.7,483.67L497.53,482.02L499.63,480.69L497.16,491.6L496.82,496.54L500.54,493.89L501.81,495.98L500.83,500.76L496.38,510.29L480.53,537.39L475,548.9L468.39,564.18L437.84,547.69L434.98,563.56L422.85,551.8L417.81,550.27z"/>
		<path id="C42015" title="Bradford" class="land" d="M765.25,189.2L764.41,182.65L763.4,169.78L761.37,146.77L760.13,130.05L754.26,75.64L755.35,75.64L755.58,75.61L773.57,75.61L777.6,75.64L791.5,75.64L831.72,76.07L831.82,76.07L850.94,76.39L851.86,76.42L875.43,76.56L876.73,76.58L918.33,76.42L924.71,173.84L907.32,174.96L902.67,204.75L778.05,191.13z"/>
		<path id="C42017" title="Bucks" class="land" d="M1136.38,577.83L1095.89,546.17L1057.2,515.81L1072.8,496.7L1081.58,489.38L1081.85,489.16L1088.8,483.2L1104.62,470.83L1117.5,463.51L1117.69,464.01L1118.45,465.14L1118.85,468.18L1118.9,468.53L1118.76,469.5L1117.95,470.85L1117.86,471.47L1117.91,471.77L1118.08,472.42L1118.44,472.97L1119.62,474.3L1120.37,474.87L1122.02,475.52L1123.42,475.76L1124.63,475.76L1125.56,475.44L1127.88,473.27L1129.03,472.69L1130.11,472.56L1134.2,473.25L1135.54,473.95L1137.76,474.74L1138.73,475.68L1142.34,480.11L1144.41,481.78L1144.7,482.51L1144.87,483.32L1144.88,483.35L1145.15,486.21L1144.99,488.04L1144.96,490.45L1145.12,492.11L1145.72,495.68L1145.82,497.15L1145.76,498.52L1145.31,499.78L1144.59,500.87L1144.53,502.04L1144.69,503.03L1144,505.4L1144,505.72L1144.66,507.6L1145.61,511.7L1145.91,514.6L1146.46,515.92L1147.04,516.47L1149.06,517.09L1149.78,517.69L1150.07,518.16L1151.13,519.01L1152.87,519.81L1153.62,519.93L1155.2,519.6L1158.12,518.72L1159.1,518.11L1159.58,517.99L1161.15,518.47L1161.87,519.25L1162.44,519.66L1165.2,520.94L1166.06,521.61L1166.38,522.18L1168.54,527.45L1169.58,530.55L1170.15,532.6L1170.35,535.34L1170.62,536.64L1170.8,536.9L1171.48,537.9L1172.86,539.24L1174.18,540.25L1176.16,542.17L1178.07,543.68L1179.12,544.04L1180.57,544.17L1181.57,544.75L1182.52,545.49L1183.88,546.78L1186.49,549.63L1187.22,550.87L1188.11,552.54L1188.94,554.51L1189.66,556.62L1191.02,559.61L1191.92,561.88L1193.18,563.06L1195.79,564.35L1196.71,565.17L1201.79,567.66L1204.75,569.83L1206.82,571.5L1207.02,571.74L1207.75,573.61L1209.08,576.02L1209.85,578.62L1210.13,579.35L1210.4,579.77L1210.9,580.24L1210.94,580.29L1212.54,580.92L1213.99,581.85L1214.7,582.69L1217.12,586.5L1217.28,587.1L1217.26,588.36L1217.05,589.4L1216.73,590.14L1216.7,590.22L1216.41,590.63L1213.27,593.45L1212.79,593.67L1212.16,593.72L1210.19,593.58L1209.44,593.77L1208.6,594.18L1207.21,595.1L1204.56,597.39L1203.93,597.52L1203.18,597.49L1200.68,596.84L1198.12,595.72L1197.38,595.52L1196.82,595.55L1196.12,595.77L1195.37,596.54L1194.84,597.52L1193.92,599.87L1193.44,602.01L1192.83,602.83L1191.69,603.7L1190.08,604.47L1189.38,604.96L1188.94,605.45L1188.59,606.13L1188.25,607.2L1188.02,607.53L1187.41,607.94L1183.97,608.87L1182.37,609.69L1180.11,610.46L1177.92,611.22L1177.31,611.3L1175.44,610.97L1174.5,611.08L1173.05,611.71L1170.49,613.13L1164.21,617.04L1164.85,610.25L1167.46,607.86L1168.02,604.24L1166.94,603.76L1166.17,597.98L1162.61,597.54L1157.57,594.18L1157.03,593.78L1155.66,592.69L1136.8,578.15z"/>
		<path id="C42019" title="Butler" class="land" d="M75.55,386.68L74.44,355.24L88.81,336.02L109.19,307.69L173.18,307.41L173.73,307.64L174.07,308.01L173.85,423.96L174.23,426.9L173.67,441.41L173.64,445.32L173.73,445.8L173.61,446.66L77.98,445.4L77.91,444.81L75.86,395.46z"/>
		<path id="C42021" title="Cambria" class="land" d="M340.72,484.28L348.45,464.59L351.27,456.06L359.36,432.62L360.71,431.54L379.38,431.6L421.17,431.15L438.47,431.29L455.45,431.46L443.23,453.66L436.73,453.47L435.02,459.17L436.42,465.68L426.99,482.16L420.17,485.48L415.68,491.71L415.17,501.96L411.51,510.23L412.9,512.69L410.59,528.95L402.56,533.79L398.77,540.91L395.62,545.71L393.82,559.43L390.79,563.96L367.66,563.82L343.25,563.49L340.85,556.15L334.28,552.42L307.33,552.41L324.4,521.98L335.3,497.86z"/>
		<path id="C42023" title="Cameron" class="land" d="M441.03,187.73L440.99,183.63L486.31,183.26L518.42,223.14L531.28,223.32L531.37,253.26L509.41,295.16L479.3,291.39L479.75,265.53L475.61,265.48L475.7,242.87L440.84,242.78z"/>
		<path id="C42025" title="Carbon" class="land" d="M1022.44,321.44L1023.23,324.05L1028.65,325.15L1030.19,329.24L1037.79,336.64L1039.39,339.68L1054.69,358.92L1038.19,368.86L1055.2,397.87L1059.27,406.63L1045.13,408.83L1030.97,414.19L1012.99,418.94L999.73,428.54L972.81,406.21L949.44,379.47L980.79,364.69L980.45,363.24L986.76,360.34L990.51,360.11L1005.16,353.09L1002.94,346.58L1000.02,346.62L997.13,341.45L997.76,329.54L1000.45,327L1005.04,326.82L1008.35,322.61L1010,323.3L1013.25,319.02L1018.73,318.2z"/>
		<path id="C42027" title="Centre" class="land" d="M662.49,397.74L661.75,397.75L646.78,404.13L614.38,421.41L601.95,425.92L598.75,428.56L595.91,430.1L589.84,434.28L588.07,430.76L577.6,432.94L565.86,426.26L551.21,433.84L540.72,440.64L504.55,427.52L501.34,426.44L453.46,429.32L449.97,423.3L456.07,416.53L458.03,410.98L463.04,408.3L465.57,401.45L469.56,396.29L472.42,397.7L476.69,395.4L476.75,391.49L482.71,385.99L480.9,382.85L482.87,379.54L490.91,376.88L494.15,372.77L496.3,371.59L493.72,366.21L500.37,367.28L501.09,370.38L512.62,367.44L509.91,360.8L510.78,357.16L516.05,356.74L517.2,354.22L512.14,346.84L517.06,344.48L516.5,341.15L509.97,338.67L509.41,333.13L505.45,323.69L514.54,321.11L520.99,312.75L525.37,312.87L528.26,315.19L529.18,310.14L534.68,307.36L534.67,298.7L537.53,295L541.43,297.24L541.82,293.55L545.05,292.52L550.39,285.2L551.53,305.91L571.3,304.88L573.1,306.22L573.19,315.95L575.87,315.11L583.2,325.53L588.27,326.27L590.69,323.79L594.01,325.91L599.85,325.27L600.61,327.38L608.42,330.09L614.92,335.79L619.77,337.19L617.2,342.35L632.18,365.64L646.52,362.45L656.25,361.39L667.59,358.93L708.69,343.08L708.76,343.51L696.12,357.39L680.33,380.37z"/>
		<path id="C42029" title="Chester" class="land" d="M1040.72,657.22L1033.3,664.63L1033.94,674.76L1033.75,674.79L1029.24,675.65L1025.57,676.69L1024.14,677.19L1019.67,679.15L1014.81,681.9L1011.61,684.2L1008.3,687.08L1006.19,689.23L1004.2,691.5L1002.54,693.65L1000.72,696.43L999.2,699.26L998,701.82L996.42,706.01L993.31,706.17L990.96,706.15L988.76,706.15L949.17,706.24L946.14,706.15L943.09,706.17L920.42,706.24L921.09,704.73L922.37,704.77L923.79,704.46L923.71,703.23L924.73,702.14L925.76,703.91L926.32,705.28L928,704.58L929.22,703.28L928.22,701.76L928.67,700.41L930.12,700.05L931.09,697.19L932,695.34L934.03,695.75L935.37,695.03L935.5,693.72L937.01,690.31L938.65,688.09L939.66,686.51L939.69,685.4L939.98,684.21L941.42,682.93L941.62,679.15L943.7,677.83L945.06,676.52L945.22,675.1L944.91,673.83L944.45,671.41L944.65,670.42L946.69,670.57L947.28,669.43L947.55,668.03L947.73,666.92L948.34,664.69L949.24,665.05L949.9,665.73L950.93,665.53L951.53,664.35L950.66,662.33L950.67,661.27L951.48,659.46L950.92,658.61L949.91,657.96L949.83,656.8L949.49,655.29L949.77,654.21L949.96,653.15L949.57,651.36L949.44,650.22L950.69,650.12L952.4,649.29L952.84,648.37L952.02,647.34L950.01,643.37L962.35,620.16L960.85,600.54L975.47,592.93L1005.6,569.01L1012.54,564.25L1014.89,565.7L1016.89,564.06L1018.89,563.36L1021.09,564.44L1022.18,564.21L1027.02,566.73L1034.4,568.74L1038.46,577L1041.85,573.74L1043.53,578.58L1047.78,584.37L1048.4,589.78L1051.08,587.13L1053.71,587.86L1051.67,592.6L1055.18,595.83L1061.91,596.29L1060.07,598.77L1063.05,606.42L1070.62,603.84L1076.39,613.74L1081.84,610.63L1083.02,612.49L1071.7,618.98L1073.92,622.9L1063.63,632.18L1067.33,634.47L1048.85,645.64L1049.87,648.32L1044.88,650.26L1044.11,655.02z"/>
		<path id="C42031" title="Clarion" class="land" d="M173.18,307.41L172.33,304.49L178.4,304.56L178.65,300.12L182.7,294.89L182.54,284.93L186.22,284.96L187.33,278.4L192.15,278.43L192.24,266.07L205.4,266.2L205.41,262.04L218.7,262.11L218.77,247.96L235.01,247.93L235.05,234.11L275.58,235.57L275.23,263.18L274.71,333.54L273.9,341.37L271.31,342.45L268.74,344.95L266.5,346.37L264.21,347.43L262.99,349.65L260.59,351.7L257.54,352.41L254.86,352.41L252.51,354.68L249.16,355.62L247.19,355.22L245.02,355.45L242.05,356.07L241.19,358.1L240.4,359.88L239.45,359.4L235.85,357.27L233.58,355.77L230.4,356.72L227.14,358.96L221.68,358.12L215.2,359.42L206.85,360.98L197.09,360.8L190.75,362.94L189.8,358.01L193.75,356.93L194.77,354.15L193.15,353.89L192.02,353.91L191.28,351.77L192.18,350.41L193,348.18L193.35,346.34L191.42,345.54L189.19,346.12L186.99,345.33L184.02,343.92L181.08,342.57L179.8,342.16L179.11,339.62L180.97,337.79L180.93,335.34L178.78,333.19L176.85,331.29L176.12,326.65L176.4,321.7L176.1,316.84L175,314.29L176.37,311.81L174.07,308.01L173.73,307.64z"/>
		<path id="C42033" title="Clearfield" class="land" d="M359.73,398.26L359.98,381.41L360.11,318.71L368.12,299.1L379.91,299.35L392.99,295.01L393.26,284.91L479.3,291.39L509.41,295.16L516.21,306.94L520.99,312.75L514.54,321.11L505.45,323.69L509.41,333.13L509.97,338.67L516.5,341.15L517.06,344.48L512.14,346.84L517.2,354.22L516.05,356.74L510.78,357.16L509.91,360.8L512.62,367.44L501.09,370.38L500.37,367.28L493.72,366.21L496.3,371.59L494.15,372.77L490.91,376.88L482.87,379.54L480.9,382.85L482.71,385.99L476.75,391.49L476.69,395.4L472.42,397.7L469.56,396.29L465.57,401.45L463.04,408.3L458.03,410.98L456.07,416.53L449.97,423.3L453.46,429.32L455.45,431.46L438.47,431.29L421.17,431.15L379.38,431.6L360.71,431.54L359.75,430.11z"/>
		<path id="C42035" title="Clinton" class="land" d="M708.69,343.08L667.59,358.93L656.25,361.39L646.52,362.45L632.18,365.64L617.2,342.35L619.77,337.19L614.92,335.79L608.42,330.09L600.61,327.38L599.85,325.27L594.01,325.91L590.69,323.79L588.27,326.27L583.2,325.53L575.87,315.11L573.19,315.95L573.1,306.22L571.3,304.88L551.53,305.91L550.39,285.2L545.05,292.52L541.82,293.55L541.43,297.24L537.53,295L534.67,298.7L534.68,307.36L529.18,310.14L528.26,315.19L525.37,312.87L520.99,312.75L516.21,306.94L509.41,295.16L531.37,253.26L531.28,223.32L613.38,222.27L613.56,232.74L616.2,232.72L625.18,249.4L626.02,253.87L634.15,257.13L639.02,261.39L639.89,268.08L645.49,275.46L648.8,277.02L655.18,285.11L661.2,290.67L665.55,291.84L665.52,294.33L671.58,294.6L677.95,301.23L677.43,303.63L681.84,307.5L704.46,336.32L708.69,336.29L708.78,342.68z"/>
		<path id="C42037" title="Columbia" class="land" d="M883.78,269.21L882,290L882.14,298.37L890.65,318.81L900.81,316.96L900.26,341.49L905.25,369.29L896.47,378.69L889.13,387.6L884.4,410.21L869.08,417.47L862.88,401.42L843.64,403.85L844.29,395.83L842.7,387.94L838.03,387.9L839.69,375.69L837.75,371.95L841.31,370.3L840.81,366.86L830.22,355.42L830.85,345.89L829.24,340.47L818.94,337.7L818.55,330.43L814.36,312.17L824.48,311.6L851.58,282.46L852.15,281.83L854.92,278.83L863.24,269.71z"/>
		<path id="C42039" title="Crawford" class="land" d="M162.04,183.38L145.07,182.17L144.92,187.76L109.42,216.02L109.19,219.07L82.82,220.12L82.84,221.76L18.63,219.93L15.74,218.45L15.72,219.88L0.14,219.35L0.14,216.31L0.15,208.25L0.12,205.31L0.11,168.82L0.1,168.41L0.11,159.94L0.1,149.32L0.11,145.64L0.14,142.09L0.13,118.4L176.25,117.85L190.58,118.27L190.47,139.32L190.42,158.86L190.42,181.67L190.42,183.57z"/>
		<path id="C42041" title="Cumberland" class="land" d="M640.05,645.65L643.62,637.92L634.95,628.99L627.21,612.05L620.78,597.8L611.25,588.65L607.2,578.82L609.91,576.11L611.84,579.72L621.79,570.61L626.24,570.49L639.52,560.87L649.39,551.99L656.14,547.36L663.53,544.51L663.4,546.49L653.02,555.29L650.11,559.85L658.1,558.54L667.44,551.91L671.19,550.51L669.57,555.01L672.34,557.2L680.05,554.92L690.84,552.77L721.33,547.98L744.36,545.49L756.8,540.51L754.8,550.71L758.97,559.09L768.55,568.51L766.87,571.34L761.66,571.36L759.09,569.11L757.37,574.48L753.28,576.06L758.15,578.25L755.05,581.99L758.75,585.05L753.83,586.32L743.56,585.36L744.99,587.48L732.89,589.99L710.1,611.29L699.92,622.35L685.37,624.72L654.24,631.89z"/>
		<path id="C42043" title="Dauphin" class="land" d="M756.8,540.51L752.89,532.94L737.23,532.29L734.58,530.15L732.94,523.3L736.19,520.23L735.45,514.09L738.27,513.52L743.05,507.93L748.86,503.72L749.7,500.85L748.8,495.98L742.08,488.9L742.92,482.11L740.64,476.48L742.38,471.86L747.88,467.34L749.57,458.12L755.9,464.9L755.6,463.12L761.86,463.1L767.13,458.37L772.52,458.87L778.16,456.7L780.23,452.87L782.19,454.71L791.5,451.23L801.59,449.87L801.61,449.89L808.48,455.52L809.18,456.07L809.58,456.4L809.58,456.41L819.88,464.77L836.48,478.22L806.54,500.35L829.34,576.93L829.99,576.64L828.97,577.25L827.89,577.23L826.25,578.26L824.22,578.68L822.58,578.89L821.35,578.57L820.14,580.36L818.68,581.36L817.38,581.72L815.78,583.74L814.6,584.78L812.5,585.19L810.81,585.38L809.31,585.82L808.23,586.97L806.89,588.56L805.43,588.92L803.8,588.4L802.76,588.41L801.36,590.88L800.18,593.1L798.73,594.28L797.39,597.59L792.56,593.99L791.62,584.72L780.81,575.69L774.88,574.34L768.55,568.51L758.97,559.09L754.8,550.71z"/>
		<path id="C42045" title="Delaware" class="land" d="M1040.72,657.22L1044.11,655.02L1044.88,650.26L1049.87,648.32L1048.85,645.64L1067.33,634.47L1063.63,632.18L1073.92,622.9L1071.7,618.98L1083.02,612.49L1083.97,613.24L1085.46,615.94L1091.49,625.97L1093.44,624.98L1100.78,636.68L1106.86,640.35L1106.92,645.7L1109.48,647.27L1107.98,648.56L1106.89,651.55L1106.95,653.91L1104.42,659.73L1103.21,660.96L1103.2,660.97L1103.16,661.07L1103.16,661.13L1103.15,661.17L1103.16,661.22L1103.17,661.26L1103.21,661.34L1103.22,661.37L1103.28,661.42L1103.31,661.44L1103.38,661.46L1103.44,661.44L1103.61,661.44L1103.64,661.45L1103.66,661.5L1103.64,661.57L1103.56,661.65L1103.35,661.75L1103.27,661.83L1103.29,661.88L1103.31,661.94L1103.37,662L1103.73,662.18L1103.83,662.3L1103.84,662.35L1103.83,662.4L1103.75,662.48L1103.57,662.53L1103.31,662.53L1103.2,662.82L1103.54,663.2L1103.51,663.6L1103.7,664.05L1113.53,664.19L1114.55,667.01L1112.42,668.27L1109.48,669.49L1107.71,670.04L1101.89,671.44L1097.23,671.62L1093.81,671.24L1090.96,671.34L1089.45,671.56L1087.07,672.36L1084.42,674.04L1080.76,677.39L1076.99,680.6L1076.83,680.74L1074.06,682.86L1071.69,684.42L1068.96,682.4L1063.56,679.38L1061.55,678.42L1057.79,676.98L1054.09,675.84L1049.98,675.02L1045.59,674.5L1039.06,674.29L1037.09,674.42L1037.08,674.42L1034.31,674.7L1034.19,674.71L1033.94,674.76L1033.3,664.63z"/>
		<path id="C42047" title="Elk" class="land" d="M479.3,291.39L393.26,284.91L392.99,295.01L379.91,299.35L379.95,291.46L374.04,291.34L374.65,282.37L327.65,254.74L324.98,250.72L314.81,257.99L313.25,256.12L305.4,258.08L302.98,256.94L299.11,260.73L299.43,237.7L305.4,237.72L305.74,229.35L323.98,229.75L323.98,233.88L327.7,233.85L328.31,181.79L328.3,181.66L357.74,181.44L387.83,181.33L394.33,180.46L427.53,179.98L427.65,187.68L441.03,187.73L440.84,242.78L475.7,242.87L475.61,265.48L479.75,265.53z"/>
		<path id="C42049" title="Erie" class="land" d="M0.1,82.44L0.1,82.44L17.73,74.54L23.12,72.86L30.82,69.33L31.08,69.37L32.88,68.24L35.84,67.6L39.87,65.93L46.84,62.3L60.76,54.16L69.66,49.57L74.32,46.3L76.8,43.79L80.55,33.87L81.76,32.06L84.5,29.24L90.56,27.31L92.9,27.85L93.74,28.58L92.34,30L94.03,32.34L92.6,33.44L93.13,34.45L94.03,34.96L96.32,35.3L111.41,26.21L123.56,17.83L125.11,17.61L129.92,15.02L133.04,12.69L136.86,10.98L141.75,9.71L151.46,3.94L159.12,0L159.12,5.23L159.08,7.58L159.14,24.36L159.12,25.47L159.13,27.27L159.16,30.27L159.14,33.65L159.08,39.14L159.17,42.59L159.15,70.75L159.24,76.38L178.4,76.3L187.81,76.4L187.81,76.38L190.84,76.4L190.58,118.27L176.25,117.85L0.13,118.4L0.12,96.04L0.12,91.87L0.1,82.82z"/>
		<path id="C42051" title="Fayette" class="land" d="M158.74,706.46L140.02,706.47L139.98,706.47L126.74,706.42L129.36,700.28L123.82,696.58L122.91,690L128.34,686.68L125.9,681.56L125.02,674.51L122.16,672.2L124.96,669.92L123.7,666.37L126.93,663.04L123.92,655.56L125.24,651.79L118.12,643.14L107.18,641.64L109.56,634.94L110.04,629L115.15,626.62L118.67,631.68L122.89,630.49L127.13,624.65L134.34,622.67L134.96,620.34L131.9,616.9L134.56,613.18L129.84,609.43L138.02,609.73L142.94,605.64L140.1,598.67L134.89,595.75L162.8,595.37L167.46,597.29L167.44,598.97L169.66,600.51L172.61,600.35L175.39,599.63L177.69,601.53L178.98,603.11L180.39,603.96L182.17,606.15L184.47,606.7L185.7,606.88L187.61,606.03L189.1,605.21L192.62,606.41L193.02,607.36L194.73,607.28L194.67,605.26L197.53,601.57L205.64,599.24L213.02,591.98L218.44,591.37L223.14,593.47L227.22,598.74L234.7,602.3L236.43,605.56L244.42,610.08L247.33,618.6L257.42,619.36L257.3,619.63L249.72,632.36L246.16,638.72L235.37,657.5L231.46,670.29L238.89,674.87L242.31,679.31L241.64,684.51L245.25,688.83L239.29,687.61L236.86,690.9L239.59,693.37L235.13,696.99L236.35,700.34L233.01,702.59L236.65,703.22L236.69,706.28L219.01,706.37L203.94,706.46L191.39,706.35L190.89,706.33z"/>
		<path id="C42053" title="Forest" class="land" d="M211.58,181.47L215.49,181.43L234.55,181.08L328.31,181.79L327.7,233.85L323.98,233.88L323.98,229.75L305.74,229.35L305.4,237.72L299.43,237.7L299.11,260.73L295.59,265.08L289.73,260.51L286.6,264.07L279.82,261.66L275.23,263.18L275.58,235.57L235.05,234.11L235.01,247.93L218.77,247.96L218.7,233L209.58,232.88L209.49,226L211.53,225.99z"/>
		<path id="C42055" title="Franklin" class="land" d="M609.91,576.11L607.2,578.82L611.25,588.65L620.78,597.8L627.21,612.05L634.95,628.99L643.62,637.92L640.05,645.65L642.5,706.66L640.46,706.66L626.98,706.62L626.68,706.63L597.82,706.46L597.34,706.44L586.93,706.42L585.15,706.37L582.92,706.34L577.61,706.3L555.31,706.06L513.53,706.04L513.11,706.04L508.2,706.04L514.47,698.97L515.47,696.41L528.45,677.66L534.23,665.36L538.14,653.63L538.21,650.3L542.07,644.32L545.91,629.46L553.85,616.68L557.46,613.58L557.83,613.47L577.65,574.59L584.03,565.56L591.36,558.3L597.92,551.11L601.14,556.43L598.77,561.47L603.39,560.37L604.61,570.88L609.59,566.78L611.96,568.89z"/>
		<path id="C42057" title="Fulton" class="land" d="M557.46,613.58L553.85,616.68L545.91,629.46L542.07,644.32L538.21,650.3L538.14,653.63L534.23,665.36L528.45,677.66L515.47,696.41L514.47,698.97L508.2,706.04L486.42,706.01L486.09,705.98L478.56,705.99L477.98,705.99L472.55,705.96L472.54,705.96L459.59,705.94L458.24,706L457.73,705.97L457.53,705.98L457.11,705.98L457.04,705.98L449.11,705.98L459.98,690L466.24,677.96L472.86,656.71L482.87,632.22L486.12,627.4L486.14,618.92L489.57,617.54L490.91,614.36L486.24,611.3L485.7,606.84L495.66,597.09L500.7,585.26L512.54,593.98L544.59,602.55L544.64,601.99z"/>
		<path id="C42059" title="Greene" class="land" d="M93.2,706.3L44.35,706.32L44.18,706.32L20.68,706.34L0.12,706.29L0.1,683.22L0.21,660.13L0.14,647.59L0.16,646.98L0.15,642.22L0.14,641.47L0.14,640.71L1.85,641.36L3.94,642.53L8.35,643.29L12.35,639.71L16,637.58L21.8,637.04L27,633.83L34.99,630.88L41.81,628.94L43.93,626.82L47.12,625.26L49.92,626.77L51.42,628.6L54.59,629.3L57.98,628.42L63.89,629.56L68.59,629.25L71.36,628.44L75.21,629.42L76.11,630.51L76.9,631.34L78.98,632.17L82.87,633.25L84.84,632.99L86.41,633.08L88.61,632.58L90.9,632.95L93.99,630.33L97.04,628.37L99.24,628.99L99.87,630.25L99.76,632.03L98.84,633.98L99.39,635.06L99.86,636.64L100.57,637.29L101.72,636.92L102.13,635.64L103.74,635.53L105.78,636.29L107.69,634.57L109.56,634.94L107.18,641.64L118.12,643.14L125.24,651.79L123.92,655.56L126.93,663.04L123.7,666.37L124.96,669.92L122.16,672.2L125.02,674.51L125.9,681.56L128.34,686.68L122.91,690L123.82,696.58L129.36,700.28L126.74,706.42z"/>
		<path id="C42061" title="Huntingdon" class="land" d="M581.05,526.77L591.36,558.3L584.03,565.56L577.65,574.59L557.83,613.47L557.46,613.58L544.64,601.99L544.59,602.55L512.54,593.98L500.7,585.26L479.41,568.99L475,548.9L480.53,537.39L496.38,510.29L500.83,500.76L501.81,495.98L500.54,493.89L496.82,496.54L497.16,491.6L499.63,480.69L497.53,482.02L491.7,483.67L487.64,477.32L491.59,470.34L490.34,467.17L494.09,460.93L487.61,455.04L482.41,445.34L486,439.45L499.82,431.62L504.55,427.52L540.72,440.64L551.21,433.84L565.86,426.26L577.6,432.94L588.07,430.76L589.84,434.28L595.91,430.1L596.9,433.77L591.75,436.94L590.24,440.94L591.2,443.85L595.62,443.08L581.16,456.98L576.78,458.73L566.47,471.68L562.22,479.63L567.53,493.38L563.47,497.73L550.77,516L548.32,517.03L547.1,521.24L552.29,521.16L556.24,523L555.77,526.04L559.05,530.42L562.95,529.38L566.7,531.7z"/>
		<path id="C42063" title="Indiana" class="land" d="M324.4,521.98L321.42,517.59L315.12,515.3L312.15,516.27L313.26,519.19L306.8,526.13L301.66,523.74L298.76,528.92L293.54,528.96L292.38,524.48L294.73,522.66L278.62,516.8L277.25,517.92L275.72,516.75L273.99,514.16L270.12,512.44L268.66,512.64L267.11,512.07L266.47,512.99L263.81,516.27L261.8,515.82L261.85,510.14L255.83,511.21L255.89,504.11L250.76,506.4L248.03,501.65L246.46,505.82L243.02,504.38L236.06,505.18L233.71,500.46L230.16,500.73L228.67,496.41L223.82,497.73L222.56,488.8L224.57,485.1L266.28,427.9L273.9,417.35L273.88,379.92L359.98,381.41L359.73,398.26L359.75,430.11L360.71,431.54L359.36,432.62L351.27,456.06L348.45,464.59L340.72,484.28L335.3,497.86z"/>
		<path id="C42065" title="Jefferson" class="land" d="M379.91,299.35L368.12,299.1L360.11,318.71L359.98,381.41L273.88,379.92L274.95,341.76L273.9,341.37L274.71,333.54L275.23,263.18L279.82,261.66L286.6,264.07L289.73,260.51L295.59,265.08L299.11,260.73L302.98,256.94L305.4,258.08L313.25,256.12L314.81,257.99L324.98,250.72L327.65,254.74L374.65,282.37L374.04,291.34L379.95,291.46z"/>
		<path id="C42067" title="Juniata" class="land" d="M678.5,440.08L697.19,443.14L707.35,444.64L715.97,440.64L719.3,444.9L731.49,444.68L731.73,449.36L737.18,449.37L739.58,456.02L750.53,452.04L751.6,455.3L750,457.74L749.57,458.12L734.06,464.7L717.26,467L700.55,470.8L703.27,476.14L678.15,488.32L667.97,494.68L645.34,507.92L625.55,521.09L627.21,527.47L620.2,529.84L613.11,535.11L605.4,542.18L597.92,551.11L591.36,558.3L581.05,526.77L587.07,518.88L603.33,502.09L610.37,495.9L610.61,489.27L634.51,470.9L634.45,463.26L636.08,461.8L653.47,451.46L663.23,446.59z"/>
		<path id="C42069" title="Lackawanna" class="land" d="M1014.54,261.13L1003.14,258.63L999.16,255.08L997.62,253.71L991.86,250.29L984.02,244.21L983.59,236.59L996.72,214.65L990.35,209.7L997.26,197.22L996.23,195.56L1005.74,178.33L1007.98,177.98L1007.69,176.52L1060.31,176.75L1061.74,176.71L1066.31,283.7L1059.97,287.84L1054.63,287.98L1052.67,290.82L1050.19,294.51L1045.49,292.79L1037.76,306.02L1032.7,310.57L1023.73,306.46L1022.52,302.38L1021.75,283.65L1016.47,281.92L1016.2,275.34L1013.11,270.99z"/>
		<path id="C42071" title="Lancaster" class="land" d="M952.02,647.34L952.84,648.37L952.4,649.29L950.69,650.12L949.44,650.22L949.57,651.36L949.96,653.15L949.77,654.21L949.49,655.29L949.83,656.8L949.91,657.96L950.92,658.61L951.48,659.46L950.67,661.27L950.66,662.33L951.53,664.35L950.93,665.53L949.9,665.73L949.24,665.05L948.34,664.69L947.73,666.92L947.55,668.03L947.28,669.43L946.69,670.57L944.65,670.42L944.45,671.41L944.91,673.83L945.22,675.1L945.06,676.52L943.7,677.83L941.62,679.15L941.42,682.93L939.98,684.21L939.69,685.4L939.66,686.51L938.65,688.09L937.01,690.31L935.5,693.72L935.37,695.03L934.03,695.75L932,695.34L931.09,697.19L930.12,700.05L928.67,700.41L928.22,701.76L929.22,703.28L928,704.58L926.32,705.28L925.76,703.91L924.73,702.14L923.71,703.23L923.79,704.46L922.37,704.77L921.09,704.73L920.42,706.24L901.82,706.31L899.91,706.31L899.91,706.31L898.54,706.31L898.38,703.86L892.73,695.96L890.92,691.54L882.61,682.17L877.87,678.9L875.25,672.08L869.81,667.03L869.18,660.88L866.55,654.17L848.59,644.08L844.89,636.91L844.24,631.28L838.07,622.75L836.58,616.37L828.97,617.92L809.52,613.12L802.52,602.39L797.39,597.59L798.73,594.28L800.18,593.1L801.36,590.88L802.76,588.41L803.8,588.4L805.43,588.92L806.89,588.56L808.23,586.97L809.31,585.82L810.81,585.38L812.5,585.19L814.6,584.78L815.78,583.74L817.38,581.72L818.68,581.36L820.14,580.36L821.35,578.57L822.58,578.89L824.22,578.68L826.25,578.26L827.89,577.23L828.97,577.25L829.99,576.64L857.48,565.25L884.31,560.63L917.14,543.94L917.5,544.35L929.62,554.43L975.09,592.66L975.47,592.93L960.85,600.54L962.35,620.16L950.01,643.37z"/>
		<path id="C42073" title="Lawrence" class="land" d="M88.81,336.02L74.44,355.24L75.55,386.68L75.86,395.46L0.18,396.52L0.19,389.27L0.03,383.1L0.02,382.85L0,381.22L0.17,377.23L0.19,358.87L0.19,356.63L0.2,351.11L0.2,338.31L0.2,335.7L0.2,335.45L0.19,334.57L0.17,332.61L0.17,330.23L0.16,327.41L0.15,326.15L0.19,323.21L0.18,320.69L0.19,320.69L0.19,320.68L28.3,320.29L54.94,319.88L54.99,322.84L78.25,323.81z"/>
		<path id="C42075" title="Lebanon" class="land" d="M916.98,543.78L917.14,543.94L884.31,560.63L857.48,565.25L829.99,576.64L829.34,576.93L806.54,500.35L836.48,478.22L856.47,494.51L900.2,530.13L905.74,531.68z"/>
		<path id="C42077" title="Lehigh" class="land" d="M997.85,466.69L971.67,444.58L989.24,436.25L999.73,428.54L1012.99,418.94L1030.97,414.19L1032.45,424.49L1034.42,428.35L1037.98,428.57L1041.64,432.55L1047.5,428.27L1048.49,432.77L1054.31,444.03L1056.99,446.17L1057.74,450.52L1068.46,445.44L1068.52,447.02L1077.51,456.86L1078.45,461.15L1073.92,471.07L1088.8,483.2L1081.85,489.16L1081.58,489.38L1072.8,496.7L1057.2,515.81L1047.62,507.97L1038.75,500.73L1015.59,481.39L1013.06,479.33L1003.88,471.63L1003.58,471.4z"/>
		<path id="C42079" title="Luzerne" class="land" d="M1014.54,261.13L1013.11,270.99L1016.2,275.34L1016.47,281.92L1021.75,283.65L1022.52,302.38L1023.73,306.46L1032.7,310.57L1025.52,321.2L1022.44,321.44L1018.73,318.2L1013.25,319.02L1010,323.3L1008.35,322.61L1005.04,326.82L1000.45,327L997.76,329.54L997.13,341.45L1000.02,346.62L1002.94,346.58L1005.16,353.09L990.51,360.11L986.76,360.34L980.45,363.24L980.79,364.69L949.44,379.47L942.97,382.51L905.25,369.29L900.26,341.49L900.81,316.96L890.65,318.81L882.14,298.37L882,290L883.78,269.21L889.08,251.79L889.45,250.74L947.82,248.5L952.4,246.68L982.62,237.32L983.59,236.59L984.02,244.21L991.86,250.29L997.62,253.71L999.16,255.08L1003.14,258.63z"/>
		<path id="C42081" title="Lycoming" class="land" d="M851.58,282.46L824.48,311.6L814.36,312.17L806.39,312.6L795.07,307.64L783.32,306.6L763.94,311.52L763.27,311.72L762.43,312.7L762.11,313.54L761.71,314.35L760.76,316.79L747.3,314.09L743.58,331L724.62,331.74L715.05,336.23L708.69,336.29L704.46,336.32L681.84,307.5L677.43,303.63L677.95,301.23L671.58,294.6L665.52,294.33L665.55,291.84L661.2,290.67L655.18,285.11L648.8,277.02L645.49,275.46L639.89,268.08L639.02,261.39L634.15,257.13L626.02,253.87L625.18,249.4L616.2,232.72L613.56,232.74L613.38,222.27L613.14,204.48L737.12,202.35L746.49,201.97L755.29,193.64L765.25,189.2L778.05,191.13L786.73,224.19L791.54,242.64L824.49,270.84L833.74,273.96L854.92,278.83L852.15,281.83z"/>
		<path id="C42083" title="McKean" class="land" d="M441.03,187.73L427.65,187.68L427.53,179.98L394.33,180.46L387.83,181.33L357.74,181.44L328.3,181.66L329.85,123.76L335.54,123.64L336.76,120.84L336.11,76.64L345.37,76.8L371.61,76.65L403.76,76.15L464.33,76.28L472.08,76.41L485.64,76.22L486.31,183.26L440.99,183.63z"/>
		<path id="C42085" title="Mercer" class="land" d="M0.21,294.49L0.21,290.81L0.25,286.28L0.21,281.75L0.19,280.91L0.19,280.87L0.23,270.52L0.16,268.6L0.13,262.72L0.13,262.04L0.13,261.71L0.13,261.7L0.12,261.17L0.13,261.17L0.13,261.01L0.12,260.87L0.12,260.7L0.13,257.89L0.14,255.05L0.14,251.99L0.14,250.07L0.18,239.61L0.19,239.61L0.19,234.3L0.15,226.73L0.14,219.35L15.72,219.88L15.74,218.45L18.63,219.93L82.84,221.76L82.82,220.12L109.19,219.07L109.19,279.24L109.19,307.69L88.81,336.02L78.25,323.81L54.99,322.84L54.94,319.88L28.3,320.29L0.19,320.68L0.19,320.67L0.15,318.38L0.15,318.37L0.16,315L0.16,307.87L0.22,297.31L0.21,294.49z"/>
		<path id="C42087" title="Mifflin" class="land" d="M598.75,428.56L601.95,425.92L614.38,421.41L646.78,404.13L661.75,397.75L662.49,397.74L664.08,408.68L664.61,437.85L678.5,440.08L663.23,446.59L653.47,451.46L636.08,461.8L634.45,463.26L634.51,470.9L610.61,489.27L610.37,495.9L603.33,502.09L587.07,518.88L581.05,526.77L566.7,531.7L562.95,529.38L559.05,530.42L555.77,526.04L556.24,523L552.29,521.16L547.1,521.24L548.32,517.03L550.77,516L563.47,497.73L567.53,493.38L562.22,479.63L566.47,471.68L576.78,458.73L581.16,456.98L595.62,443.08L591.2,443.85L590.24,440.94L591.75,436.94L596.9,433.77L595.91,430.1z"/>
		<path id="C42089" title="Monroe" class="land" d="M1059.27,406.63L1055.2,397.87L1038.19,368.86L1054.69,358.92L1039.39,339.68L1037.79,336.64L1030.19,329.24L1028.65,325.15L1023.23,324.05L1022.44,321.44L1025.52,321.2L1032.7,310.57L1037.76,306.02L1045.49,292.79L1050.19,294.51L1052.67,290.82L1083.41,288.96L1131.59,285.38L1125.96,313.66L1142.69,316.22L1152.95,333.23L1160.56,329.78L1160.54,330.66L1160.71,330.81L1161.28,330.91L1162.01,330.82L1162.74,330.45L1164,329.29L1164.69,328.87L1165.23,328.73L1165.65,328.94L1165.72,329.18L1165.8,329.47L1165.46,331.03L1164.91,331.72L1162.47,333.42L1161.06,333.66L1159.9,334.15L1158.9,334.87L1157.48,336.65L1156.48,336.65L1156.18,337L1155.61,338.4L1155.49,339.23L1155.2,339.99L1154.79,340.69L1153.42,342.49L1153.28,343.05L1153.48,344.09L1153.41,344.34L1152.37,344.72L1151.58,345.18L1150.28,346.57L1144.01,350.21L1143.07,350.62L1141.79,350.71L1139.97,351.34L1139.86,351.69L1138.76,352.91L1137.68,353.51L1135.91,354.24L1135.6,354.77L1132.91,356.44L1132.12,357.05L1131.41,357.84L1131.19,358.45L1131.21,359.55L1131.09,360.2L1130.88,360.86L1130.37,361.78L1130.37,362.63L1130.73,363.41L1131.24,363.88L1131.72,363.97L1133.08,363.64L1133.52,364.14L1131.69,366.75L1113.01,375.35L1110.01,383.13L1102.72,387.91L1099.19,392.46L1091.44,395.33L1078.36,402.13L1065.93,405.63z"/>
		<path id="C42091" title="Montgomery" class="land" d="M1057.2,515.81L1095.89,546.17L1136.38,577.83L1136.8,578.15L1155.66,592.69L1146.57,601.46L1138.51,611.55L1135.85,617.87L1129.55,613.09L1126.99,611.18L1121.78,607.27L1119.25,610.52L1111.88,605.01L1103.31,615.62L1115.31,627.61L1106.5,632.97L1100.78,636.68L1093.44,624.98L1091.49,625.97L1085.46,615.94L1083.97,613.24L1083.02,612.49L1081.84,610.63L1076.39,613.74L1070.62,603.84L1063.05,606.42L1060.07,598.77L1061.91,596.29L1055.18,595.83L1051.67,592.6L1053.71,587.86L1051.08,587.13L1048.4,589.78L1047.78,584.37L1043.53,578.58L1041.85,573.74L1038.46,577L1034.4,568.74L1027.02,566.73L1022.18,564.21L1021.09,564.44L1018.89,563.36L1016.89,564.06L1014.89,565.7L1012.54,564.25L1012.71,564.12L1041.31,518.21L1047.62,507.97z"/>
		<path id="C42093" title="Montour" class="land" d="M814.36,312.17L818.55,330.43L818.94,337.7L829.24,340.47L830.85,345.89L830.22,355.42L840.81,366.86L841.31,370.3L837.75,371.95L839.69,375.69L838.03,387.9L831.86,386.09L829.74,379.38L831.95,372.37L822.62,371.39L815.56,365.24L810.04,364.24L794.62,367.99L782.43,370.17L782.15,369.44L786.45,354.67L786.02,353.12L794.6,329.82L795.07,307.64L806.39,312.6z"/>
		<path id="C42095" title="Northampton" class="land" d="M1059.27,406.63L1065.93,405.63L1078.36,402.13L1091.44,395.33L1099.19,392.46L1102.72,387.91L1110.01,383.13L1113.01,375.35L1131.69,366.75L1133.52,364.14L1133.54,364.15L1133.68,364.65L1133.49,365.34L1133.56,365.72L1133.65,366L1133.86,367.46L1134.1,368.38L1135.37,369.75L1136.53,372.08L1136.67,373.02L1138.3,375.68L1138.77,376.38L1142.18,379.22L1142.66,380.33L1142.84,381.11L1143.03,383.02L1142.87,384.25L1143,384.68L1143.3,385.23L1145.08,387.02L1145.77,387.96L1146.51,389.24L1147.55,390.35L1148.01,391.3L1148.15,391.89L1148.11,392.56L1147.63,394.15L1146.12,396.06L1145.31,397.35L1144.96,397.56L1143.95,397.61L1143.38,397.18L1142.72,396.92L1139.72,397.11L1138.71,397.7L1138.41,398.36L1138.33,398.81L1138.34,399.39L1138.45,399.84L1138.89,400.46L1140.87,402.4L1141.22,403.02L1141.2,403.95L1140.89,404.64L1139.82,406.31L1138.63,407.33L1138.19,407.87L1137.77,408.61L1137.67,409.19L1137.79,409.88L1137.77,410.38L1137.66,410.76L1136.04,413.17L1135.44,413.5L1134.29,413.65L1132.98,414.37L1132.4,415.12L1131.22,417.35L1130.83,417.85L1130.6,417.95L1129.62,418L1127.46,417.67L1124.46,416.68L1123.23,416.65L1122.8,416.85L1122.43,417.3L1121.95,418.19L1121.69,419.35L1121.56,420.59L1121.23,421.23L1120.39,421.94L1118.55,422.91L1117.56,424.07L1117.49,424.49L1117.6,425.31L1117.81,425.77L1119.82,428.03L1120.44,429.03L1120.59,429.62L1120.51,430.06L1119.69,431.7L1119.06,433.36L1118.38,433.93L1118,434.45L1117.1,436.85L1116.01,440.66L1116.64,442.31L1117.48,443.47L1118.81,444L1120.08,443.84L1120.91,444.01L1121.54,444.45L1121.7,445.01L1121.56,445.87L1120.45,447.7L1119.36,448.29L1118.75,448.81L1117.53,450.69L1116.74,452.32L1116.73,452.95L1118.2,454.23L1118.45,454.64L1118.71,455.42L1119.23,459.09L1119.08,459.96L1118.79,460.38L1117.27,460.55L1116.68,460.82L1116.45,461.14L1116.55,461.85L1117.15,462.71L1117.5,463.51L1104.62,470.83L1088.8,483.2L1073.92,471.07L1078.45,461.15L1077.51,456.86L1068.52,447.02L1068.46,445.44L1057.74,450.52L1056.99,446.17L1054.31,444.03L1048.49,432.77L1047.5,428.27L1041.64,432.55L1037.98,428.57L1034.42,428.35L1032.45,424.49L1030.97,414.19L1045.13,408.83z"/>
		<path id="C42097" title="Northumberland" class="land" d="M763.94,311.52L783.32,306.6L795.07,307.64L794.6,329.82L786.02,353.12L786.45,354.67L782.15,369.44L782.43,370.17L794.62,367.99L810.04,364.24L815.56,365.24L822.62,371.39L831.95,372.37L829.74,379.38L831.86,386.09L838.03,387.9L842.7,387.94L844.29,395.83L843.64,403.85L862.88,401.42L869.08,417.47L830.44,436.06L822.91,439.12L802.99,448.49L802.59,448.33L801.78,448.45L801.59,449.87L791.5,451.23L782.19,454.71L780.23,452.87L778.16,456.7L772.52,458.87L767.13,458.37L761.86,463.1L755.6,463.12L755.9,464.9L749.57,458.12L750,457.74L751.6,455.3L767.46,436.54L770.51,408.22L778.37,397.29L778.37,396.81L781.04,390.05L781.19,388.99L780.89,388.04L775.92,385.79L769.53,378.71L763.66,363.31L766.48,356.92L768.75,335.28L762.08,327.39L760.76,316.79L761.71,314.35L762.11,313.54L762.43,312.7L763.27,311.72z"/>
		<path id="C42099" title="Perry" class="land" d="M680.05,554.92L672.34,557.2L669.57,555.01L671.19,550.51L667.44,551.91L658.1,558.54L650.11,559.85L653.02,555.29L663.4,546.49L663.53,544.51L656.14,547.36L649.39,551.99L639.52,560.87L626.24,570.49L621.79,570.61L611.84,579.72L609.91,576.11L611.96,568.89L609.59,566.78L604.61,570.88L603.39,560.37L598.77,561.47L601.14,556.43L597.92,551.11L605.4,542.18L613.11,535.11L620.2,529.84L627.21,527.47L625.55,521.09L645.34,507.92L667.97,494.68L678.15,488.32L703.27,476.14L700.55,470.8L717.26,467L734.06,464.7L749.57,458.12L747.88,467.34L742.38,471.86L740.64,476.48L742.92,482.11L742.08,488.9L748.8,495.98L749.7,500.85L748.86,503.72L743.05,507.93L738.27,513.52L735.45,514.09L736.19,520.23L732.94,523.3L734.58,530.15L737.23,532.29L752.89,532.94L756.8,540.51L744.36,545.49L721.33,547.98L690.84,552.77z"/>
		<path id="C42101" title="Philadelphia" class="land" d="M1164.85,610.25L1164.21,617.04L1164.13,617.09L1162.2,618.73L1160.94,620.2L1157.16,624.08L1156.48,624.57L1155.92,624.87L1155.56,625.06L1150.56,626.84L1148.95,627.96L1148.07,629.16L1146.43,632.44L1146.22,632.68L1143.7,635.68L1140.21,637.16L1139.4,637.32L1139.14,637.38L1136.12,638.49L1133.79,639.83L1132.17,641L1131.5,641.66L1130.79,642.83L1130.33,644.82L1130.24,648.42L1130.47,650.22L1130.94,651.78L1131.5,653.03L1131.96,654.45L1131.35,657.61L1130.81,658.7L1129.43,660.81L1129.38,660.88L1128.92,661.37L1128.29,661.97L1127.18,662.38L1120.4,662.57L1119.07,662.93L1117.81,663.93L1114.64,666.96L1114.55,667.01L1113.53,664.19L1103.7,664.05L1103.51,663.6L1103.54,663.2L1103.2,662.82L1103.31,662.53L1103.57,662.53L1103.75,662.48L1103.83,662.4L1103.84,662.35L1103.83,662.3L1103.73,662.18L1103.37,662L1103.31,661.94L1103.29,661.88L1103.27,661.83L1103.35,661.75L1103.56,661.65L1103.64,661.57L1103.66,661.5L1103.64,661.45L1103.61,661.44L1103.44,661.44L1103.38,661.46L1103.31,661.44L1103.28,661.42L1103.22,661.37L1103.21,661.34L1103.17,661.26L1103.16,661.22L1103.15,661.17L1103.16,661.13L1103.16,661.07L1103.2,660.97L1103.21,660.96L1104.42,659.73L1106.95,653.91L1106.89,651.55L1107.98,648.56L1109.48,647.27L1106.92,645.7L1106.86,640.35L1100.78,636.68L1106.5,632.97L1115.31,627.61L1103.31,615.62L1111.88,605.01L1119.25,610.52L1121.78,607.27L1126.99,611.18L1129.55,613.09L1135.85,617.87L1138.51,611.55L1146.57,601.46L1155.66,592.69L1157.03,593.78L1157.57,594.18L1162.61,597.54L1166.17,597.98L1166.94,603.76L1168.02,604.24L1167.46,607.86z"/>
		<path id="C42103" title="Pike" class="land" d="M1210.39,237.18L1211.16,236.39L1212.6,235.65L1213.21,235.5L1213.73,235.64L1214.1,236.04L1214.34,236.53L1214.47,236.99L1214.51,237.86L1213.68,240.44L1213.17,241.01L1213.04,241.99L1213.2,242.76L1213.71,243.86L1214.22,244.64L1214.74,245.03L1215.42,245.4L1217.41,245.67L1218.44,246.26L1218.98,247.03L1219.62,249.18L1220.02,250.07L1221.11,251.13L1222.86,252.43L1223.66,253.3L1224,254.27L1223.95,254.9L1223.67,255.24L1222.87,256.06L1221.67,256.86L1220.87,257L1220.01,257.36L1217.41,258.85L1215.42,259.24L1214.32,259.1L1210.62,259.21L1210.05,259.53L1209.14,260.82L1208.47,263.26L1207.79,264.1L1206.77,265.07L1206.08,265.28L1204.67,265.3L1203.1,265.57L1202.46,265.79L1201.85,266.37L1201.68,266.89L1202.41,268.13L1202.49,268.81L1202.37,269.09L1199.37,271.17L1198.28,272.56L1197.51,273.12L1196.21,273.77L1194.49,275.61L1193.65,277.31L1192.75,278.37L1192.17,280.13L1191.08,282.33L1191.04,282.74L1191.35,283.72L1191.17,284.59L1190.95,285.04L1190.52,285.63L1189.33,285.82L1189.05,285.94L1188.81,286.25L1187.86,288.31L1187.78,289.41L1186.91,290.93L1186.66,292.15L1186.77,292.4L1188.03,293.66L1188.35,294.17L1188.29,294.56L1188.13,295.01L1186.68,297.43L1185.26,300.27L1184.37,302.51L1184.33,303.34L1183.56,305.19L1182.03,307.2L1179.88,309.26L1179.57,309.91L1179.44,310.59L1178.71,312.18L1174.95,317.05L1173.27,318.37L1170.35,319.58L1169.8,320.34L1169.88,320.86L1169.75,321.1L1166.31,323.69L1165.89,323.85L1165.26,323.79L1164.5,323.94L1163.04,324.75L1162.55,325.35L1160.56,329.78L1152.95,333.23L1142.69,316.22L1125.96,313.66L1131.59,285.38L1083.41,288.96L1087.15,284.73L1092.99,268.51L1093.64,264.3L1090.39,260.72L1086.82,262L1085.3,253.05L1088.23,250.84L1090.87,253.65L1093.94,251.25L1096.23,253.31L1103.04,251.89L1107.94,238.25L1112.99,237.46L1119.72,232.24L1119.43,227.94L1123.35,223.24L1144.18,187.87L1144.76,188.5L1145.45,189.81L1146.22,190.91L1147.72,191.76L1149,193.02L1149.61,195.3L1150.32,196.82L1151.05,197.55L1151.86,198.1L1152.69,198.23L1153.08,198.53L1154.93,201.82L1155.39,203.3L1155.43,203.93L1155.12,204.35L1154.03,204.71L1153.61,205.17L1153.62,206.48L1153.74,206.78L1153.99,207.03L1155.33,207.32L1155.69,207.52L1156.81,208.34L1158.01,209.57L1158.55,210.52L1158.63,210.9L1158.62,211.36L1158.27,212.22L1158.04,213.18L1158.04,213.69L1158.16,214.02L1158.9,214.22L1160.1,213.84L1161.41,213.85L1161.83,214.07L1162.1,214.44L1162.52,216.01L1162.56,216.71L1162.5,217.27L1161.92,219.33L1161.84,220.23L1161.97,220.84L1162.32,221.62L1162.67,221.89L1165.14,222.59L1167.58,222.88L1167.97,222.78L1169.72,221.7L1170.23,220.97L1171.04,220.88L1172.97,221.22L1174.18,222.34L1174.75,222.67L1176.18,222.7L1177.19,223.1L1177.89,223.98L1178.1,225.19L1178.11,226.16L1178.37,227.14L1178.93,227.51L1180.85,227.96L1181.47,228.3L1181.84,228.76L1182.1,229.54L1182.11,229.9L1180.88,231.33L1180.57,232.43L1180.65,233.04L1181.09,233.33L1182.19,233.52L1184.7,232.94L1187.23,231.92L1188.51,231.8L1189.43,232.15L1190.6,232.98L1191.24,233.71L1193.06,235.37L1193.53,235.6L1194.37,235.68L1194.8,235.63L1195.34,235.34L1196,233.93L1197.03,232.89L1198.26,232.2L1199.21,232.24L1199.62,232.45L1200.55,233.56L1200.73,234.13L1200.79,235.08L1200.9,235.46L1201.77,237.5L1202.1,237.87L1202.82,238.15L1204.09,237.94L1205.42,237.19L1206.42,236.84L1206.97,236.88L1208.43,237.6L1209.5,237.7L1210.31,237.22z"/>
		<path id="C42105" title="Potter" class="land" d="M613.14,204.48L613.38,222.27L531.28,223.32L518.42,223.14L486.31,183.26L485.64,76.22L502.83,75.99L522.47,76.28L522.51,76.29L529.54,76.46L564.28,76.53L566.21,76.52L581.51,76.46L610.88,76.25z"/>
		<path id="C42107" title="Schuylkill" class="land" d="M971.67,444.58L950.31,454.94L949.67,457.62L946.32,472.01L944.6,473.13L939.68,470.3L937.5,473.01L935.17,471.47L932.21,475.21L926.66,476.29L916.32,480.96L912.85,483.78L902.82,485.5L895.14,488.7L877.69,489.18L861.01,494.6L856.47,494.51L836.48,478.22L819.88,464.77L809.58,456.41L809.58,456.4L809.18,456.07L808.48,455.52L801.61,449.89L801.59,449.87L801.78,448.45L802.59,448.33L802.99,448.49L822.91,439.12L830.44,436.06L869.08,417.47L884.4,410.21L889.13,387.6L896.47,378.69L905.25,369.29L942.97,382.51L949.44,379.47L972.81,406.21L999.73,428.54L989.24,436.25z"/>
		<path id="C42109" title="Snyder" class="land" d="M697.19,443.14L678.5,440.08L664.61,437.85L664.08,408.68L671.43,405.98L711.75,395.84L723.4,391.82L728.03,391.53L734.78,394.7L736.57,391.7L751.17,386.36L764.53,387.35L773.71,385.94L781.09,388.99L780.89,388.04L781.19,388.99L781.04,390.05L778.37,396.81L778.37,397.29L770.51,408.22L767.46,436.54L751.6,455.3L750.53,452.04L739.58,456.02L737.18,449.37L731.73,449.36L731.49,444.68L719.3,444.9L715.97,440.64L707.35,444.64z"/>
		<path id="C42111" title="Somerset" class="land" d="M300.47,564.42L307.33,552.41L334.28,552.42L340.85,556.15L343.25,563.49L367.66,563.82L390.79,563.96L386.9,572.65L373.69,611.39L371.14,609.93L368.79,614.82L370.04,678.51L367.98,686.16L359.31,705.87L333.53,705.91L333.53,705.91L309.52,705.88L236.69,706.28L236.65,703.22L233.01,702.59L236.35,700.34L235.13,696.99L239.59,693.37L236.86,690.9L239.29,687.61L245.25,688.83L241.64,684.51L242.31,679.31L238.89,674.87L231.46,670.29L235.37,657.5L246.16,638.72L249.72,632.36L257.3,619.63L257.42,619.36L260.69,616.35L261.67,613.69L262.93,611.72L265.03,607.11L268.67,604.64L272.5,600.89L276,598.55L278.02,599.36L281.08,598.85L282.78,596.63L284.26,592.62L285.27,587.77L287.66,586.54L288.85,585.96L289.57,584.63L289.4,583.54L290.3,581.45L291.31,581.32L292.31,579.06L292.89,576.87L294.3,574.76L295.73,572.59L296.5,570.91L297.71,569.9L298.41,568.43L298.29,566.93z"/>
		<path id="C42113" title="Sullivan" class="land" d="M854.92,278.83L833.74,273.96L824.49,270.84L791.54,242.64L786.73,224.19L778.05,191.13L902.67,204.75L901.89,209.43L889.45,250.74L889.08,251.79L883.78,269.21L863.24,269.71z"/>
		<path id="C42115" title="Susquehanna" class="land" d="M1061.74,176.71L1060.31,176.75L1007.69,176.52L930.46,175.83L924.9,176.2L924.71,173.84L918.33,76.42L921.34,76.41L922.92,76.41L926.66,76.44L952.44,76.39L953.03,76.39L976.03,76.44L1003,76.72L1030.69,76.41L1057.27,76.33L1057.39,76.32z"/>
		<path id="C42117" title="Tioga" class="land" d="M761.37,146.77L763.4,169.78L764.41,182.65L765.25,189.2L755.29,193.64L746.49,201.97L737.12,202.35L613.14,204.48L610.88,76.25L632.87,76.1L712.77,76.29L725.58,75.99L737.35,75.88L737.37,75.88L746.14,75.76L746.15,75.76L751,75.67L752.16,75.64L754.26,75.64L760.13,130.05z"/>
		<path id="C42119" title="Union" class="land" d="M708.69,336.29L715.05,336.23L724.62,331.74L743.58,331L747.3,314.09L760.76,316.79L762.08,327.39L768.75,335.28L766.48,356.92L763.66,363.31L769.53,378.71L775.92,385.79L780.89,388.04L781.09,388.99L773.71,385.94L764.53,387.35L751.17,386.36L736.57,391.7L734.78,394.7L728.03,391.53L723.4,391.82L711.75,395.84L671.43,405.98L664.08,408.68L662.49,397.74L680.33,380.37L696.12,357.39L708.76,343.51L708.69,343.08L708.78,342.68z"/>
		<path id="C42121" title="Venango" class="land" d="M109.19,307.69L109.19,279.24L109.19,219.07L109.42,216.02L144.92,187.76L145.07,182.17L162.04,183.38L190.42,183.57L190.42,181.67L211.58,181.47L211.53,225.99L209.49,226L209.58,232.88L218.7,233L218.77,247.96L218.7,262.11L205.41,262.04L205.4,266.2L192.24,266.07L192.15,278.43L187.33,278.4L186.22,284.96L182.54,284.93L182.7,294.89L178.65,300.12L178.4,304.56L172.33,304.49L173.18,307.41z"/>
		<path id="C42123" title="Warren" class="land" d="M190.42,158.86L190.47,139.32L190.58,118.27L190.84,76.4L203.32,76.49L206.04,76.53L219.89,76.61L266.64,76.45L281.59,76.27L306.22,76.32L308.06,76.33L322.63,76.41L336.11,76.64L336.76,120.84L335.54,123.64L329.85,123.76L328.3,181.66L328.31,181.79L234.55,181.08L215.49,181.43L211.58,181.47L190.42,181.67z"/>
		<path id="C42125" title="Washington" class="land" d="M0.14,640.71L0.14,640.65L0.14,640.39L0.16,625.91L0.19,609.36L0.2,609.06L0.17,586.75L0.18,583.18L0.18,583.17L0.18,536.77L0.4,529.67L0.4,521.19L0.4,520.98L0.46,503.72L0.19,500.64L0.19,499.62L15.07,499.53L33.38,499.57L70.63,539.33L102.07,551.6L127.17,561.33L119.2,564.52L115.31,567L118.37,572L130.09,577.06L130.88,577.23L131.55,577.26L132.45,577.13L133.93,576.67L136.31,576.42L137.31,576.53L139.02,577.59L139.7,578.11L140.56,581.93L139.37,585.08L137.66,586.17L132.79,585.3L130.06,585.98L129.29,586.94L129.11,588.09L134.89,595.75L140.1,598.67L142.94,605.64L138.02,609.73L129.84,609.43L134.56,613.18L131.9,616.9L134.96,620.34L134.34,622.67L127.13,624.65L122.89,630.49L118.67,631.68L115.15,626.62L110.04,629L109.56,634.94L107.69,634.57L105.78,636.29L103.74,635.53L102.13,635.64L101.72,636.92L100.57,637.29L99.86,636.64L99.39,635.06L98.84,633.98L99.76,632.03L99.87,630.25L99.24,628.99L97.04,628.37L93.99,630.33L90.9,632.95L88.61,632.58L86.41,633.08L84.84,632.99L82.87,633.25L78.98,632.17L76.9,631.34L76.11,630.51L75.21,629.42L71.36,628.44L68.59,629.25L63.89,629.56L57.98,628.42L54.59,629.3L51.42,628.6L49.92,626.77L47.12,625.26L43.93,626.82L41.81,628.94L34.99,630.88L27,633.83L21.8,637.04L16,637.58L12.35,639.71L8.35,643.29L3.94,642.53L1.85,641.36z"/>
		<path id="C42127" title="Wayne" class="land" d="M1083.41,288.96L1052.67,290.82L1054.63,287.98L1059.97,287.84L1066.31,283.7L1061.74,176.71L1057.39,76.32L1058.65,76.28L1067.24,76.3L1068.14,76.29L1083.33,76.27L1084.61,76.93L1086.06,77.43L1087.2,78.15L1087.94,79.86L1087.9,80.51L1086.92,83.35L1086.98,83.75L1087.55,84.34L1088.33,84.47L1089.68,85.05L1091.14,86.89L1091.63,87.13L1092.02,88.99L1093.15,90.13L1093.66,90.46L1095.01,90.68L1095.49,90.64L1095.58,90.49L1095.5,89.39L1095.75,89.09L1096.14,88.91L1097.16,88.89L1097.64,89.49L1097.57,91L1097.73,91.58L1098.07,92.18L1100.23,93.3L1100.62,94.79L1100.77,96.74L1100.76,98L1101.01,98.74L1102.19,101.04L1102.65,102.26L1102.6,103.68L1101.55,105.05L1101.59,106.16L1101.87,107.79L1102.6,108.18L1103.6,108.42L1104.1,108.79L1104.75,110.67L1104.56,111.24L1103.92,111.75L1103.44,112.45L1103.46,113.2L1103.65,113.73L1104.13,114.41L1104.69,114.87L1106.08,114.9L1106.74,114.55L1107.73,113.54L1108.2,113.48L1108.7,113.87L1109.58,115.03L1110.2,115.63L1111.43,116.18L1111.85,116.19L1112.61,115.32L1113.69,113.38L1114.79,112.88L1115.99,112.7L1117.29,113L1118.01,113.43L1118.63,114.05L1118.89,114.79L1119.16,115.12L1119.56,115.44L1119.93,115.49L1120.2,115.33L1120.55,114.86L1120.93,113.88L1121.21,112.68L1121.74,112L1122.17,111.92L1123.01,112.21L1123.31,112.58L1123.54,113.5L1123.4,115.68L1123.92,117.2L1124.35,117.84L1124.91,118.33L1125.96,118.75L1126.72,118.69L1128.07,118.03L1128.63,117.79L1129.38,117.7L1131.32,119.65L1131.96,119.71L1133.88,119.46L1134.55,119.79L1134.8,120.08L1135.02,120.89L1135,122.13L1134.68,123.81L1134.65,124.66L1134.71,125.11L1135.03,125.92L1137.82,127.17L1139.18,128.56L1140.03,129.07L1140.81,129.05L1142.06,128.16L1142.43,128.07L1143.2,128.08L1143.67,128.46L1143.76,128.98L1143.67,129.98L1143.2,131.7L1142.68,132.73L1142.39,133.03L1141.73,133.3L1140.28,133.01L1139.32,133.33L1137.52,135.7L1137.34,136.1L1137.08,137.36L1136.85,139.55L1136.92,139.98L1137.09,140.38L1137.62,140.98L1138.78,141.19L1139.33,141.19L1142.13,140.39L1142.88,140.31L1143.23,140.59L1143.56,141.06L1144.42,141.49L1145.19,141.66L1146.06,142.23L1147.6,145.63L1147.73,147.82L1147.31,150.5L1147.58,152.74L1148.39,156.12L1148.35,156.62L1148.18,157L1147.85,157.16L1145.98,156.73L1144.83,156.82L1144.41,157.51L1144.37,158.06L1144.69,158.83L1146.26,160.43L1146.91,161.55L1147.75,163.6L1148.06,165.27L1148.05,165.96L1147.77,166.39L1146.48,167.52L1146.36,168.1L1146.55,168.85L1146.8,169.05L1147.48,169.26L1148.34,170.84L1148.6,172.58L1148.47,176.63L1148.6,178.89L1148.7,179.38L1149.67,181.73L1149.53,183.31L1149.27,183.81L1148.89,183.92L1148.66,183.87L1147.93,183.26L1147.51,183.12L1146.2,183.45L1145.9,183.74L1145.87,184.01L1146.23,184.9L1146.28,185.32L1145.65,185.64L1144.59,185.5L1143.77,185.68L1143.15,186.13L1143.15,186.74L1144.18,187.87L1123.35,223.24L1119.43,227.94L1119.72,232.24L1112.99,237.46L1107.94,238.25L1103.04,251.89L1096.23,253.31L1093.94,251.25L1090.87,253.65L1088.23,250.84L1085.3,253.05L1086.82,262L1090.39,260.72L1093.64,264.3L1092.99,268.51L1087.15,284.73z"/>
		<path id="C42129" title="Westmoreland" class="land" d="M156.5,531.95L156.98,529.28L157.18,527.76L167.47,518.38L171.32,508.92L171.71,486.86L171.78,486.4L167.42,481.83L158.39,479.68L156.51,474.2L158.74,467.81L167.66,463.68L174.48,453.65L173.68,446.66L178.77,443.82L185.11,447.8L185.55,450.86L191.12,454.91L192.68,459.13L196.53,455.79L195.31,461.23L197.78,465.52L203.48,464.8L199.28,470.35L201.28,475.76L208.6,481.74L211.61,481.66L214.72,486.43L221.61,484.02L224.57,485.1L222.56,488.8L223.82,497.73L228.67,496.41L230.16,500.73L233.71,500.46L236.06,505.18L243.02,504.38L246.46,505.82L248.03,501.65L250.76,506.4L255.89,504.11L255.83,511.21L261.85,510.14L261.8,515.82L263.81,516.27L266.47,512.99L267.11,512.07L268.66,512.64L270.12,512.44L273.99,514.16L275.72,516.75L277.25,517.92L278.62,516.8L294.73,522.66L292.38,524.48L293.54,528.96L298.76,528.92L301.66,523.74L306.8,526.13L313.26,519.19L312.15,516.27L315.12,515.3L321.42,517.59L324.4,521.98L307.33,552.41L300.47,564.42L298.29,566.93L298.41,568.43L297.71,569.9L296.5,570.91L295.73,572.59L294.3,574.76L292.89,576.87L292.31,579.06L291.31,581.32L290.3,581.45L289.4,583.54L289.57,584.63L288.85,585.96L287.66,586.54L285.27,587.77L284.26,592.62L282.78,596.63L281.08,598.85L278.02,599.36L276,598.55L272.5,600.89L268.67,604.64L265.03,607.11L262.93,611.72L261.67,613.69L260.69,616.35L257.42,619.36L247.33,618.6L244.42,610.08L236.43,605.56L234.7,602.3L227.22,598.74L223.14,593.47L218.44,591.37L213.02,591.98L205.64,599.24L197.53,601.57L194.67,605.26L194.73,607.28L193.02,607.36L192.62,606.41L189.1,605.21L187.61,606.03L185.7,606.88L184.47,606.7L182.17,606.15L180.39,603.96L178.98,603.11L177.69,601.53L175.39,599.63L172.61,600.35L169.66,600.51L167.44,598.97L167.46,597.29L162.8,595.37L134.89,595.75L129.11,588.09L129.29,586.94L130.06,585.98L132.79,585.3L137.66,586.17L139.37,585.08L140.56,581.93L139.7,578.11L139.02,577.59L137.31,576.53L136.31,576.42L154.96,568.13L149.92,564.6L153.65,558.93L152.24,553.34L156.35,551.64L154.56,543.95L154.85,542.42L154.89,542.07L154.94,541.78z"/>
		<path id="C42131" title="Wyoming" class="land" d="M1007.69,176.52L1007.98,177.98L1005.74,178.33L996.23,195.56L997.26,197.22L990.35,209.7L996.72,214.65L983.59,236.59L982.62,237.32L952.4,246.68L947.82,248.5L889.45,250.74L901.89,209.43L902.67,204.75L907.32,174.96L924.71,173.84L924.9,176.2L930.46,175.83z"/>
		<path id="C42133" title="York" class="land" d="M797.39,597.59L802.52,602.39L809.52,613.12L828.97,617.92L836.58,616.37L838.07,622.75L844.24,631.28L844.89,636.91L848.59,644.08L866.55,654.17L869.18,660.88L869.81,667.03L875.25,672.08L877.87,678.9L882.61,682.17L890.92,691.54L892.73,695.96L898.38,703.86L898.54,706.31L869.09,706.31L868.99,706.31L865.84,706.34L860.99,706.31L860.97,706.34L845.62,706.31L840.33,706.31L829.35,706.34L829.33,706.34L799.43,706.37L798.66,706.37L783.65,706.45L783.65,706.45L779.59,706.5L779.01,706.48L762.02,706.56L760.45,706.56L752.26,706.48L740.86,706.72L739.06,706.71L738.96,680.63L739.29,676.16L744.39,671.39L748.41,669.43L746.61,664.7L744.71,665.05L742.32,657.15L745.7,653.44L745.33,647.51L746.04,648.07L735.03,626.58L710.1,611.29L732.89,589.99L744.99,587.48L743.56,585.36L753.83,586.32L758.75,585.05L755.05,581.99L758.15,578.25L753.28,576.06L757.37,574.48L759.09,569.11L761.66,571.36L766.87,571.34L768.55,568.51L774.88,574.34L780.81,575.69L791.62,584.72L792.56,593.99z"/>
	</g>
</svg>