<?xml version="1.0" encoding="utf-8"?>
<!-- (c) ammap.com | SVG map of TN Counties -->
<svg xmlns="http://www.w3.org/2000/svg" xmlns:amcharts="http://amcharts.com/ammap" xmlns:xlink="http://www.w3.org/1999/xlink" version="1.1">
	<defs>
		<style type="text/css">
			.land
			{
				fill: #CCCCCC;
				fill-opacity: 1;
				stroke:white;
				stroke-opacity: 1;
				stroke-width:0.5;
			}
		</style>

		<amcharts:ammap projection="mercator" leftLongitude="-90.310630" topLatitude="36.678385" rightLongitude="-81.646236" bottomLatitude="34.982763"></amcharts:ammap>

		<!-- All areas are listed in the line below. You can use this list in your script. -->
		<!--{id:"C47001"},{id:"C47003"},{id:"C47005"},{id:"C47007"},{id:"C47009"},{id:"C47011"},{id:"C47013"},{id:"C47015"},{id:"C47017"},{id:"C47019"},{id:"C47021"},{id:"C47023"},{id:"C47025"},{id:"C47027"},{id:"C47029"},{id:"C47031"},{id:"C47033"},{id:"C47035"},{id:"C47037"},{id:"C47039"},{id:"C47041"},{id:"C47043"},{id:"C47045"},{id:"C47047"},{id:"C47049"},{id:"C47051"},{id:"C47053"},{id:"C47055"},{id:"C47057"},{id:"C47059"},{id:"C47061"},{id:"C47063"},{id:"C47065"},{id:"C47067"},{id:"C47069"},{id:"C47071"},{id:"C47073"},{id:"C47075"},{id:"C47077"},{id:"C47079"},{id:"C47081"},{id:"C47083"},{id:"C47085"},{id:"C47087"},{id:"C47089"},{id:"C47091"},{id:"C47093"},{id:"C47095"},{id:"C47097"},{id:"C47099"},{id:"C47101"},{id:"C47103"},{id:"C47105"},{id:"C47107"},{id:"C47109"},{id:"C47111"},{id:"C47113"},{id:"C47115"},{id:"C47117"},{id:"C47119"},{id:"C47121"},{id:"C47123"},{id:"C47125"},{id:"C47127"},{id:"C47129"},{id:"C47131"},{id:"C47133"},{id:"C47135"},{id:"C47137"},{id:"C47139"},{id:"C47141"},{id:"C47143"},{id:"C47145"},{id:"C47147"},{id:"C47149"},{id:"C47151"},{id:"C47153"},{id:"C47155"},{id:"C47157"},{id:"C47159"},{id:"C47161"},{id:"C47163"},{id:"C47165"},{id:"C47167"},{id:"C47169"},{id:"C47171"},{id:"C47173"},{id:"C47175"},{id:"C47177"},{id:"C47179"},{id:"C47181"},{id:"C47183"},{id:"C47185"},{id:"C47187"},{id:"C47189"}-->

	</defs>
	<g>
		<path id="C47001" title="Anderson" class="land" d="M845.63,117.63L843.45,110.47L843.25,109.9L837.99,101.83L832.14,99.56L830.79,95.47L828.1,94.13L829.23,89.97L834.91,87.35L836.1,83.31L838.88,80.68L844.82,82.19L848.96,79.95L857.45,87.51L859,86.73L859.4,75.78L876.83,78.18L881.67,78.31L881.35,74.49L883.47,74.78L885.69,70.47L886.95,65.85L888.5,71L890.93,71.33L891.85,74.91L895.9,81.84L899.78,85.98L898.41,86.81L895.33,89.22L892.68,92.11L889.83,94.98L887.51,97.49L883.2,101.6L881.49,103.7L879.63,107.94L881.81,110.43L881.34,113.9L878.57,115.82L876.54,117.35L873.51,118.94L869.05,120.08L864.02,120.84L860.91,125.86L857.75,128.68L855.71,128.93L854.28,130.37L853.17,134.03L846.33,119.88z"/>
		<path id="C47003" title="Bedford" class="land" d="M574.34,182.27L574.84,204.36L574.22,211.69L575.83,213.24L574.13,213.86L572.58,220.19L568.28,221.09L567.39,223.72L562.42,226.32L559.91,228.94L558.07,228.9L556.53,231.33L551.15,231.56L549.31,236.34L544.36,235.03L539.85,228.96L534.76,230.16L526.63,227.35L524.28,228.39L521.63,228.08L515.98,216.26L514.94,212.64L515.14,206.5L516.69,192.27L519.23,191.7L515.2,190.92L516.83,190.01L518.63,172.92L519.07,170.14L532.24,170.9L536.14,172.49L539.18,177.75L542.28,178.32L542.12,179.78L548.93,179.07L550.57,180.87L549.93,182.9L552.08,184.58L556.28,182.41L555.48,180.38L559.22,179.1L560.22,176.76L565.13,177.13L565.85,179.77L568.35,179.44z"/>
		<path id="C47005" title="Benton" class="land" d="M333.53,76.08L333.24,79.71L335.81,86.42L337.71,88.52L338.28,91.48L337.36,97.13L332.1,105.22L327.94,110.3L326.29,113.54L326.51,117.96L323.52,121.9L323.25,124.36L324.58,127.69L336.77,129.62L336.46,134.91L334.84,141.7L331.67,146.05L330.54,150.43L322.42,151.24L322.24,146.25L319.11,144.49L314.51,145.75L301.28,145.2L295.69,145.07L295.78,139.76L294.61,139.76L295.81,138.2L296.38,97.49L301.47,92.72L302.01,89.28L306.74,83.3L307.22,80.35L310.88,79.11L312.16,74.16L314.6,73.76L313.58,67.06L311.9,64.25L313.37,59.12L312.83,55.83L327.69,55.66L328.02,55.73L328.85,56.37L329.13,56.85L332.65,64.03L334.28,72.41z"/>
		<path id="C47007" title="Bledsoe" class="land" d="M690.38,193.43L707.83,173.38L712.77,166.8L712.05,162.33L712.69,162.42L714.37,159.11L735.65,158.37L738.26,159.99L744.45,158.05L745.66,162.35L760.36,158.6L762.12,159.75L743.53,184.57L735.04,192.75L736.26,199.26L733.41,200.07L729.58,206.58L733.87,209.28L731.16,212.22L729.24,214.48L726.48,212.75L718.35,230.23L705.85,219.38L693.28,206.41L692.75,202L688.63,197.92z"/>
		<path id="C47009" title="Blount" class="land" d="M922.64,142.71L922.02,143.32L923.53,143.97L925.84,150.11L928.35,151.97L927.24,153.43L931.26,162.21L933.19,168.48L936.45,168.79L937.56,172.99L939.18,172.11L939.16,193.13L938.7,193.09L937.73,193.16L937.28,192.93L936.17,193.18L934.24,193.27L933.84,193.39L933.63,193.39L933.39,193.24L932.91,193.23L930.99,194.13L930.62,194.39L929.27,194.17L928.89,193.77L926.88,194.51L925.89,194.09L925.5,194.28L924.8,194.44L923.79,194.34L923.6,195.15L922.61,196.37L921.67,196.92L919.46,197.89L918.57,198.79L918.42,199.15L916.19,200.96L915.93,200.82L915.29,200.8L914.12,201.35L912.95,201.75L912.19,201.44L911.43,201.3L910.42,201.47L909.54,201.43L908.49,201.84L908.14,202.11L907.9,202.88L906.79,204.55L906.66,204.69L906.29,204.76L905.48,205.68L905.47,205.9L905.64,206.08L905.63,206.27L905.46,206.63L904.88,206.97L904.54,207.78L904.36,208.58L904.01,209.22L903.3,209.64L902.91,209.68L902.16,209.59L901.47,209.69L900.44,210L899.71,210.74L899.6,211.11L898.7,211.79L898.21,211.88L898.2,211.88L897.84,211.39L897.5,211.26L897.05,211.27L897.05,211.34L896.47,210.07L900.23,207.19L894.96,204.96L893.59,207.36L890,202.3L892.61,199.77L892.12,195.93L885.47,197.79L881.92,197.06L880.02,197.96L879.14,194.73L875.68,189.96L873.04,191.89L870.51,189.3L867.4,188.93L864.94,185.97L870.12,183.03L872.55,179.59L872.74,177.28L869.81,175.01L868.86,171.26L867.13,168.27L867.82,163.28L870.08,160.51L866.18,158.62L867.2,156.66L867.14,152.38L868.05,152.27L871.16,153.89L872.54,147.06L870.96,144.55L874.17,145.45L874.12,147.77L880.25,144.26L881.96,147.66L884.44,147.42L884.49,144.25L886.78,143.83L888.24,146.12L890.6,144.66L889.94,141.82L887.76,139.74L890.33,140.12L891.89,138.57L895.02,142.15L899.22,139.94L904.71,143.72L904.61,145.06L912.25,146.01L918.13,139.55L920.61,138.03z"/>
		<path id="C47011" title="Bradley" class="land" d="M792.14,249.75L790.41,251.02L793.06,251.93L792.68,261.59L785.95,276.42L787.66,277.22L785.78,281.1L781.93,293.29L777.37,293.33L777.22,293.33L777.04,293.32L777,293.32L776.08,293.3L775.62,293.27L775.13,293.31L774.02,293.26L770.32,293.3L769.85,293.29L758.84,293.27L758.11,293.28L756.53,293.29L753.51,293.31L755.75,288.59L751,285.04L749.94,280.56L750.95,278.28L749.31,277.56L748.81,273.87L746.5,267.8L748.9,264.06L749.03,259.62L750.42,256.29L752.97,253.41L755.71,247.42L755.01,246.49L758.41,242.65L757.84,241.7L760.51,241.51L770.02,230.96L773.16,232.69L775.01,235.16L777.03,234.78L778.11,236.47L780.98,237.26L785.59,241.77L789.07,241.41L789.31,243.27L785.19,244.19L786.94,247.09L791.16,246.14L792.99,247.8z"/>
		<path id="C47013" title="Campbell" class="land" d="M854.62,15.1L854.62,15.1L859.43,15.07L859.45,15.07L873.53,15.2L893.26,15.52L893.29,15.52L893.72,20.62L902.27,42.25L904.88,45.2L905.29,47.75L902.56,50.86L898.31,48.63L897.43,52.19L898.62,53.94L896.01,56.63L895.22,66.46L894.23,68.78L891.64,69.41L890.93,71.33L888.5,71L886.95,65.85L885.69,70.47L883.47,74.78L881.35,74.49L881.67,78.31L876.83,78.18L859.4,75.78L859,86.73L857.45,87.51L848.96,79.95L844.82,82.19L838.88,80.68L838.94,79.32L838.7,75.41L838.74,72.53L841.4,70.51L842.9,70.11L844.86,66.5L844.7,61.48L844.7,52.89L845.25,48.89L842.97,41.05L841.96,37.19L843.74,34.49L844.18,31.11L844.76,30.23L846.41,29.88L848.21,30.04L851.56,30.37L854.73,28.88L855.58,26.13L855.94,23.1L855.92,21.23L854.58,17.75z"/>
		<path id="C47015" title="Cannon" class="land" d="M579.71,169.83L579.6,164.89L581.36,163.3L582.54,159.44L582.33,153.86L583.37,154.02L584.52,140.28L585.15,138.51L586.57,139.13L588.95,133.3L587.33,126.35L597.19,124.51L606.88,125.19L610.09,127.29L621.97,140.57L625.2,146.27L625.14,147.85L621.15,149.25L611.11,164.5L610.44,168.52L609.34,168.41L610.84,169.8L611.09,177.39L609.79,177.33L609.76,178.5L596.42,179.69L591.99,177.25L588.68,177.11L585.55,173.68z"/>
		<path id="C47017" title="Carroll" class="land" d="M301.09,150.24L246.01,148.84L245.66,150.51L243.93,150.51L240.67,155L226.55,154.7L226.67,153.77L226.64,153.59L226.57,153.39L228.54,107.51L234.03,107.24L233.8,98L251.21,98.34L251.48,92.04L296.5,93.02L296.38,97.49L295.81,138.2L294.61,139.76L295.78,139.76L295.69,145.07L301.28,145.2L301.12,149.87z"/>
		<path id="C47019" title="Carter" class="land" d="M1176.4,29.75L1176.13,30.43L1177.13,31.9L1179.82,34.61L1180.43,35.41L1180.47,36.64L1179.37,37.48L1176.83,40.62L1174.9,43.28L1173.19,45.74L1171.14,47.92L1169.37,50.67L1167.18,52.99L1166.43,54.65L1168.03,55.14L1168.48,55.86L1168.6,56.54L1168.13,57.01L1169.32,57.6L1170.38,59.09L1173.96,60.54L1175.49,63.47L1176.78,67.39L1178.05,68.75L1180.57,71.18L1183.58,72.29L1182.75,73.83L1179.75,78.7L1170.35,95.76L1170.39,95.94L1170.05,96.79L1169.43,97.47L1168.75,97.35L1167.9,96.6L1166.46,96.35L1166.19,96.86L1166.19,97.42L1165.45,98.74L1164.63,98.93L1162.85,99.89L1162.79,100.03L1162.77,100.03L1161.97,99.98L1160.19,100.03L1159.75,99.94L1159.21,99.61L1158.69,99.77L1157.83,100.22L1156.15,100.25L1155.65,99.91L1154.62,97.61L1154.82,96.89L1154.82,96.01L1154.21,94.72L1153.75,93.32L1153.21,92.4L1152.08,92.64L1151.38,92.92L1150.2,92.91L1149.79,92.94L1149.55,93.13L1149.3,93.38L1148.84,93.48L1148.32,93.41L1148.17,93.29L1148.01,93.11L1147.57,92.68L1146.99,92.52L1146.51,92.31L1145.96,91.84L1145.6,91.45L1145.17,91.08L1144.27,90.75L1143.9,90.73L1143.25,90.95L1142.74,91.11L1141.77,85.26L1139.15,82.42L1136.25,81.88L1137.89,77.81L1133.91,74.53L1128.96,73.03L1126.01,74.39L1131.73,53.74L1131.75,49.31L1133.41,49.51L1138.53,45.18L1140.09,44.87L1141.27,46.54L1147.46,48.62L1158.95,40L1160.12,38.38L1163.07,38.62L1168.67,33.64L1174.41,32.48L1175.96,29.35z"/>
		<path id="C47021" title="Cheatham" class="land" d="M442.65,44.4l4.05,0.32l-0.24,-3.89l4.21,-1.82l13.11,9.6l3.15,1.42l2.44,4.06l7.13,-1.92l0.25,-1.37l3.2,0.93l0.99,2.87l-2.05,6.2l-3.81,8.43l-3.76,5.67l-3.29,21.16L462.3,102l-0.45,9.24l-1.88,-1.6l0.08,0.86l-4.41,0.31l-2.94,-0.24l-5.12,-0.5l-5.68,-0.3l1.33,-3.68l0.05,-6.73l0.99,-7.87l-0.71,-1.95l2.96,-1.9l-1.37,-2.56l-4.01,-3.52l1.37,-2.87l1.71,-0.32l-0.71,-2.88l-3.22,-0.08l1.72,-2.22l3.58,-2.06l0.48,-5.89l-3.43,-1.54l-5.57,-0.3l-2.22,-2.7l-1.42,1.39l-6.22,0.25l0.84,-5.68l2.42,0.03l1.89,-4.12l4.94,-3.15l1.4,-2.88L442.65,44.4zM446.22,68.07l1.36,-0.29l0.43,-0.3l-0.42,-0.38l-0.26,0.43l-0.39,-0.21L446.22,68.07z"/>
		<path id="C47023" title="Chester" class="land" d="M239.71,189.85L246.45,190.05L249.44,196.6L255.01,203L260.13,205.79L266.89,206.98L267.83,208.13L273.02,206.32L274.98,206.32L275.43,219.07L276.71,221.18L275.18,225.63L246.34,225.4L235.85,229.07L232.72,232.65L232.4,236.28L234.02,236.56L231.36,237.44L231.06,235.56L229.02,237.83L226.5,246.85L224.72,248.63L215.96,248.62L213.63,232.93L207.44,225.03L207.5,217.54L211.15,217.61L230.92,206.95L236.7,198.97L239.63,193.13z"/>
		<path id="C47025" title="Claiborne" class="land" d="M937.4,13.55L938.15,13.56L938.15,13.56L941.62,13.69L944.86,14.04L954.16,14.15L966.13,14.17L971.71,18.41L976.55,25.1L980.64,38.35L980.33,42.77L978.18,46.39L977.34,46.3L974.09,45.14L972.8,45.62L972.21,46.6L971.35,46.83L970.5,47.48L969.87,48.91L968.7,49.47L968.4,50.09L967.81,50.2L968.42,51.56L968.93,52.51L967.94,53.75L966.02,53.41L964.25,52.52L962.64,53.38L961.56,54.34L960.63,53.61L960.01,54.73L959.81,55.46L958.87,56.05L957.69,56.07L955.26,54.83L953.58,53.78L949.53,54.1L946.29,57.8L943.17,59.63L940.47,60.1L939,58.97L938.53,58.41L934.44,54.71L932.36,58.1L929.31,58.29L927.79,54L924.82,48.91L920.49,46.37L919.04,42.46L915.1,45.26L911.15,42.63L907.83,44.97L904.88,45.2L902.27,42.25L893.72,20.62L893.29,15.52L901.33,15.85L906.46,16.06L921.35,16.52L935.24,16.75L935.51,16.43L935.69,15.94L936.33,15.06L936.82,14.73L937.16,14.29L937.38,13.94z"/>
		<path id="C47027" title="Clay" class="land" d="M711.23,9.05L711.06,16.12L712.53,18.38L710.01,25.73L708.02,27.31L702.52,26.33L695.17,30.22L696.12,33.17L693.64,32.73L694.79,30.42L687.2,31.56L682.2,39.2L680.27,48.16L679.23,47.48L678.61,46.75L677.97,45.99L677.56,45.19L677.1,44.39L676.46,43.55L676.05,42.77L675.41,42.15L664.92,35.01L658.09,32.46L651.53,29.76L648.34,30.43L639.8,29.17L635.27,31.3L637.73,11.32L638.84,9.87L646.86,10.12L654.5,10.51L672.27,10.93L672.34,10.94L681.26,11.07L688.6,10.45L689.49,10.37L703.05,9.67L704.39,9.39L707.82,9.41L708.43,9.17L708.45,9.17L709.2,9.06L711.23,9.05z"/>
		<path id="C47029" title="Cocke" class="land" d="M993.74,117.09L995.8,118.87L996.56,110.71L998.91,108.46L996.96,104.12L999.69,103.62L1000.77,102.33L998.1,96.81L1001.79,96.24L1001.48,92.14L1005.24,95.99L1008.02,96.39L1006.65,87.65L1009.36,86.93L1008.46,91.08L1011.29,93.19L1013.09,95.94L1016.43,97.24L1016.15,99.03L1018.31,97.38L1022.4,102L1024.96,102.61L1025.46,104.87L1038.87,118.4L1047.17,127.96L1046.71,129.25L1046.73,130.34L1046.62,130.61L1046.47,130.84L1046.06,131.07L1045.46,131.12L1045.35,131.3L1045.27,132.04L1045.31,133.24L1045.98,134.51L1046.32,136.32L1046.7,137.02L1046.7,137.49L1046.43,137.95L1046.4,138.32L1046.81,138.87L1047,139.28L1047.07,139.7L1047,140.21L1046.77,140.56L1044.63,141.68L1044.37,142.05L1044.22,142.65L1043.99,144.29L1044.26,145.37L1044.11,145.92L1043.66,146.34L1043.06,146.46L1042.46,146.85L1042.26,147.44L1041.67,148.41L1040.76,148.7L1040.53,148.87L1039.61,150.34L1039.08,151.45L1039.03,151.79L1038.63,152.57L1038.24,153.07L1038.08,154L1038.17,154.41L1038.08,154.56L1037.9,154.89L1037.12,154.94L1036.44,155.44L1035.88,156.17L1035.09,156.96L1033.95,157.67L1033.42,157.81L1032.62,157.7L1031.97,156.9L1031.08,156.65L1027.71,155.33L1027.25,155.44L1026.8,155.68L1026.6,155.69L1026.29,155.6L1025.97,155.28L1025.39,154.96L1024.59,155.19L1024.14,155.44L1023.79,155.47L1022.63,155.18L1022.37,154.88L1021.71,154.98L1020.79,155.61L1020.67,155.99L1019.1,157.3L1018.67,157.53L1018.65,157.52L1018.67,157.53L1018.37,157.47L1018.05,157.62L1018.02,157.75L1017.22,158.19L1016.77,158.32L1015.85,159.01L1014.79,158.68L1012.06,159.2L1011.91,159.34L1011.06,159.34L1010.33,159.24L1010.01,159.5L1009.53,160.09L1009.46,160.31L1009.55,161.02L1008.79,162.49L1008.55,162.52L1007.75,162.87L1007.28,163.75L1007.1,164.33L1006.59,165.3L1006.21,165.32L1004.82,166.07L1004.55,166.09L1004.04,165.88L1002.52,166.25L1002.17,166.02L1001.75,165.87L1001.38,165.95L1000.04,165.96L998.83,165.85L998.62,166.39L998.43,166.58L997.33,167.03L996.75,167.67L996.73,167.89L993.78,168.13L993.16,161.8L993.93,156.86L992.22,153.97L993.37,149.17L995.84,148.81L994.4,148.13L992.03,141.75L989.21,140.71L988.92,136.52L991.34,133.95z"/>
		<path id="C47031" title="Coffee" class="land" d="M626.36,200.92L625.17,202.13L624.94,225.53L627.38,225.73L621.18,241.45L604.25,233.53L605.16,232.03L603.81,232.05L586.65,228.8L581.56,231.92L581.06,233.82L578.91,231.5L573.63,231.9L572.03,233.8L571.34,232.94L574.31,231.42L570.21,227.13L573.18,224.88L569.43,224.51L572.58,220.19L574.13,213.86L575.83,213.24L574.22,211.69L574.84,204.36L574.34,182.27L574.3,172.41L579.71,169.83L585.55,173.68L588.68,177.11L591.99,177.25L596.42,179.69L609.76,178.5L609.79,177.33L611.09,177.39L616.47,188.42L615.42,188.79L616.3,192.39L622.46,197.94L625.58,198.34z"/>
		<path id="C47033" title="Crockett" class="land" d="M196.97,153.62L200.25,155.95L182.22,175.44L176.63,174.02L175.3,171.75L173.88,170.95L168.59,170.61L165.03,167.05L160.87,164.3L156.24,162.31L146.8,160.97L144.69,158L141.4,157.85L137.32,154.64L137.27,155.01L135.56,150.97L134.82,150.09L136.69,139.11L145.54,138.16L147.37,133.45L149.79,132.78L153.53,128.84L156.82,123.34L158.44,118.46L161.51,122.48L165.92,124.01L167.51,132.15L166.73,135.74L168.71,138.28L169.68,142.38L189.73,147.59z"/>
		<path id="C47035" title="Cumberland" class="land" d="M763.29,91.22L768.5,94.59L773.94,103.81L775.04,101.96L777.75,102.68L779.64,108.08L789.72,119.31L795.38,134.33L791.77,136.48L788.58,142.88L781.07,148.81L778.82,148.79L762.12,159.75L760.36,158.6L745.66,162.35L744.45,158.05L738.26,159.99L735.65,158.37L714.37,159.11L715.25,155.46L712.2,154.3L715.16,153.37L716.16,151.5L718.82,139.73L717.54,136.98L719.95,135.98L720.15,133.99L715.97,133.53L712.93,122.05L713.95,122.16L715.45,100.9L716.95,100.02L728.68,101.1L731.65,96.1L736.1,94.31L738.72,95.31L738.5,94.66L746.1,88.76L749.58,91.71L750.95,90.49L754.48,90.95L756.06,92.69L759.15,91.46L759.7,92.97z"/>
		<path id="C47037" title="Davidson" class="land" d="M521.54,123.95L512.03,119.45L511.81,119.23L511.22,119.36L497.76,112.16L486.77,110.65L477.7,109.25L463.78,120.26L461.98,120.29L460.05,110.5L459.97,109.64L461.85,111.24L462.3,102L468.02,96.06L471.31,74.9L475.07,69.23L478.88,60.8L480.94,54.6L479.95,51.73L481.36,50.52L483.1,50.92L484.12,52.09L484.83,52.98L485.39,53.38L486.44,53.58L487.14,53.51L488.48,54.07L489.22,54.59L490.29,55.48L491.19,56.17L492.52,57.25L493.41,56.95L494.46,56.59L495.58,56.34L496.4,55.76L497.15,55.72L497.73,55.5L497.54,54.38L497.6,52.73L498.22,51.78L498.68,50.94L499.26,50.19L500.64,49.76L501.1,49.33L501.22,48.67L502.34,47.73L503.62,48.15L506.19,53.53L507.27,59.05L513.64,63.4L514.81,65.55L518.27,68.21L518.68,73.99L525.01,75.74L530.35,94.88L534.72,94.31L533.93,98.93L536.13,100.92L534.45,105.55L531.71,103.14L531.77,106.85L529.25,107.36L529.76,111.49L522.46,116.68L523.19,120.95z"/>
		<path id="C47039" title="Decatur" class="land" d="M325.32,218.31L329.91,219.9L328.59,223.71L322.91,223.67L317.29,219.31L311.39,223.98L308.74,225.12L302.88,223.72L298.65,225.87L296.41,220.88L292.26,218.33L291.37,218.29L292.07,200.09L299.5,186.22L301.09,150.24L301.12,149.87L301.28,145.2L314.51,145.75L319.11,144.49L322.24,146.25L322.42,151.24L330.54,150.43L329.26,156.81L327.83,159.79L323.36,163.96L321.51,167.36L322.39,171.55L323.93,173.41L323.73,177.37L321.35,184.01L321.58,185.41L326.63,195.91L329.05,198.98L330.03,202.65L329.05,206.78L322.62,209.91L320.77,212.11L320.43,214.65L322.05,217.52z"/>
		<path id="C47041" title="DeKalb" class="land" d="M600.54,103.46L605.01,103.92L607.24,102.76L610.94,103.27L614.73,99.17L617.75,99.44L621.51,101.45L621.68,98.08L623.54,98.19L623.9,100.16L628.19,102.1L631.83,96L633.19,97.08L636.19,95.52L638.93,100.51L641.5,101.9L640.63,104.8L641.88,106.23L643.87,106.6L646.99,104.21L653.23,107.15L655.85,113.23L658.28,116.28L659.19,115.8L658.96,120.37L656.6,123.38L656.64,127.28L657.8,131.16L657.19,132.97L658.85,135.42L655.86,138.63L659.76,137.59L660.39,138.61L655.2,143.34L655.33,144.28L660.91,144.93L657.88,148.31L653.89,147.73L644.04,144.47L638.99,145.69L638.85,144.13L625.2,146.27L621.97,140.57L610.09,127.29L606.88,125.19L605.23,118.67L603.22,116.9L603.92,112.96z"/>
		<path id="C47043" title="Dickson" class="land" d="M446.22,68.07l0.72,-0.75l0.39,0.21l0.26,-0.43l0.42,0.38l-0.43,0.3L446.22,68.07zM427.21,62.33l6.22,-0.25l1.42,-1.39l2.22,2.7l5.57,0.3l3.43,1.54l-0.48,5.89l-3.58,2.06l-1.72,2.22l3.22,0.08l0.71,2.88l-1.71,0.32l-1.37,2.87l4.01,3.52l1.37,2.56l-2.96,1.9l0.71,1.95l-0.99,7.87l-0.05,6.73l-1.33,3.68l-3.06,15.74l-39.3,-4.93l0.01,0.11l0.03,0.27l0.62,0.1l-1.69,0.17l-0.03,-0.78l-6.3,-0.82l-2.61,-4.06l1.09,-5.26l0.11,-8.29l-1.08,-7.57l-2.06,-6.99l5.14,-9.5l0.92,-3.29l1.47,-14.57l29.73,3.89L427.21,62.33z"/>
		<path id="C47045" title="Dyer" class="land" d="M158.44,118.46L156.82,123.34L153.53,128.84L149.79,132.78L147.37,133.45L145.54,138.16L136.69,139.11L136.38,138.18L135.87,137.47L135.76,136.56L135.1,136.31L134.82,135.18L134.03,134.41L133.25,134.07L132.5,133.66L131.35,132.44L130.4,131.31L129.5,129.72L128.8,128.88L128.01,128.66L124.99,127.66L118.18,127.54L115.63,128.26L114.96,130.21L113.84,131.1L113.16,131.03L113.57,130.36L112.84,130.42L112.4,130.86L111.7,130.25L110.69,130.42L108.98,130.41L107.78,129.65L106.55,129.39L105.92,129.74L105.21,130.4L104.47,130.97L103.58,130.97L101.08,131.65L97.52,132.23L94.93,133.42L94.02,135.04L93.75,134.41L93.24,132.71L92.97,132.07L92.42,131.31L90.31,129.58L89.53,128.76L88.07,127.51L86.24,126.41L84.78,125.4L84.17,124.85L83.57,123.94L83.44,123.47L83.4,122.83L83.57,121.03L83.52,120.86L82.21,119.54L81.81,118.96L81.55,118.32L85.25,118.25L85.42,117.55L85.72,117.02L87.29,114.86L87.84,113.34L88.03,112.5L88.42,109.43L88.78,105.84L89.05,104.07L89.22,103.7L90.12,102.44L90.94,101.75L92.2,101.17L94.28,100.39L96.35,99.83L96.81,99.61L98.22,98.62L100.08,97.63L100.5,97.23L101.2,96.29L101.33,95.85L101.47,94.82L101.54,93.34L101.46,92.29L101.15,91.37L100.23,89.78L99.36,88.63L97.78,87.09L96.99,86.54L96.19,86.15L116.14,85.77L116.89,81.4L117.59,81.37L119.16,81.42L163.3,82.79L162.04,113.89L156.03,116.02L155.99,116.35z"/>
		<path id="C47047" title="Fayette" class="land" d="M94.1,292.01L94.31,283.49L95.11,257.18L95.72,226.52L100.55,223.28L108.75,221.52L118.13,221.82L123.15,222.17L159.14,222.84L157.11,292.14L154.4,292.1L135.3,292.21L123.67,292.27L116.33,292.23L115.37,292.17L112.91,292.1z"/>
		<path id="C47049" title="Fentress" class="land" d="M733.24,47.44L735.73,46.96L737.76,31.19L741.13,26.36L742.69,27.13L744.05,20.91L748.45,19.73L748.75,18.24L748.99,19.07L763.11,17.26L769.71,18.97L775.97,22.44L780.77,26.84L788.15,26.89L790.51,31.4L793.7,42.49L798.43,49.53L794.64,50.79L792.54,53.79L789.19,52.82L788.05,54.59L788.84,56.73L786.22,57.24L787.04,59.54L783.88,61.19L782.08,60.29L780.51,61.66L779.06,66.61L775.38,66.24L772.45,68.43L770.66,67.26L767.83,68.72L766.68,76.77L762.39,82.16L762.91,85.98L764.42,88.37L763.29,91.22L759.7,92.97L759.15,91.46L756.06,92.69L754.48,90.95L750.95,90.49L749.58,91.71L746.1,88.76L738.5,94.66L738.72,95.31L736.1,94.31L733.37,93.24L738.6,84.27L732.99,65.36L733.46,48.73z"/>
		<path id="C47051" title="Franklin" class="land" d="M572.03,233.8L573.63,231.9L578.91,231.5L581.06,233.82L581.56,231.92L586.65,228.8L603.81,232.05L605.16,232.03L604.25,233.53L621.18,241.45L626.92,252.79L626.92,253.3L628.08,253.31L628.29,253.32L628.2,293.19L565,292.73L563.94,292.72L563.73,285.62L564.02,269.38L564.78,268.19L561.88,266.02L564.2,266.02L563.77,263.47L564.92,257.59L567.48,255.56L565.73,251.45L569.25,249.62L568.4,246.54L572.84,240.31L574.32,235.45z"/>
		<path id="C47053" title="Gibson" class="land" d="M163.3,82.79L190.6,83.32L190.8,79.62L194.58,84.55L200.02,87.64L204.39,94.44L207.6,96.93L219.8,99.7L220.47,102.32L228.54,107.51L226.57,153.39L226.64,153.59L226.67,153.77L226.55,154.7L197.7,153.61L196.97,153.62L189.73,147.59L169.68,142.38L168.71,138.28L166.73,135.74L167.51,132.15L165.92,124.01L161.51,122.48L158.44,118.46L155.99,116.35L156.03,116.02L162.04,113.89z"/>
		<path id="C47055" title="Giles" class="land" d="M438.51,216.62L445.06,216.24L449.45,212.68L457.55,215.38L459.36,216.95L463.07,216.87L465.22,219.62L468.98,220.94L469.83,218.93L473.23,219.41L478.19,221.92L477.93,226.64L478.98,230.6L481.5,233.13L480.9,237.16L487.55,239.77L489.49,235.97L491.92,240.73L491.95,245.85L490.82,292.61L490.81,292.61L489.38,292.59L488.91,292.58L487.17,292.58L472.34,292.16L471.9,292.13L471.56,292.12L471.31,292.14L467.69,292.03L466.11,292.03L437.92,291.36L437.08,291.34L436.04,291.31L435.94,282.8L437.46,270.01L439.81,263.79L436.38,261.4L437.56,252.07L436.74,252.07L437.27,241.9L434.91,240.85L437.3,240.32L437.32,225.57z"/>
		<path id="C47057" title="Grainger" class="land" d="M929.31,89.78L931.85,88.17L929.92,86.73L933.89,82.39L934.85,77.07L933.29,74.85L933.55,70.84L935.41,69.81L935.47,66.86L938.53,58.41L939,58.97L940.47,60.1L943.17,59.63L946.29,57.8L949.53,54.1L953.58,53.78L955.26,54.83L957.69,56.07L958.87,56.05L959.81,55.46L960.01,54.73L960.63,53.61L961.56,54.34L962.64,53.38L964.25,52.52L966.02,53.41L967.94,53.75L968.93,52.51L968.42,51.56L967.81,50.2L968.4,50.09L968.7,49.47L969.87,48.91L970.5,47.48L971.35,46.83L972.21,46.6L972.8,45.62L974.09,45.14L977.34,46.3L978.18,46.39L983.08,45.24L989.23,48.77L993.18,49.62L992.01,52.38L995.4,57.22L994.16,62.83L996.76,68.06L995.07,68.76L992.78,72.79L991.22,69.98L989.73,71.71L986.45,66.74L985.71,68.94L981.54,69.83L981.66,71.8L978.05,72.34L973.5,77.28L974.04,80.22L972.56,81.6L969.41,80.34L969.38,85.3L967,85.54L966.83,88.01L965.77,88.7L962.59,89.29L960.49,87.94L959.04,88.41L958.82,89.52L957.23,89.18L957.13,88.07L955.74,86.9L954.25,87.2L953.81,86.67L953.17,87.38L952.69,89.55L950.8,91.2L949.49,90.86L947.82,91.94L947.99,94.02L947.35,94.31L945.89,94.5L944.84,93.65L943.74,93.92L942.58,94.39L942.46,95.53L943.35,96.53L944.09,98.83L943.26,101.14L941,99.4L941.13,98.2L940.76,96.79L939.59,96.99L938.67,97.01L938.19,96.45L937.39,97.26L937.68,98.62L938.64,101.35L939.67,103.54L938.53,104.4L935.74,98.97L934.01,99.37z"/>
		<path id="C47059" title="Greene" class="land" d="M1074.85,46.87L1084.85,45.41L1082.59,92.94L1083.58,92.82L1085.64,96.37L1090.04,101.68L1092.56,104.79L1088.94,111.49L1088.47,111.29L1087.98,110.61L1087.43,110.35L1086.78,110.25L1086.79,109.52L1086.9,108.99L1086.71,108.66L1085.33,107.62L1084.78,106.99L1084.09,106.98L1083.19,107.5L1082.25,108.37L1081.6,108.64L1081.25,108.57L1080.49,108.85L1079.68,109.22L1079.03,109.65L1077.54,110.4L1077.37,110.59L1077.25,111.12L1076.79,111.71L1075.06,112.44L1074.77,112.79L1074.16,113.19L1073.07,113.45L1073.01,113.74L1073.04,114.2L1072.96,114.46L1071.67,115.26L1071.28,115.2L1070.71,115.36L1068.14,117.38L1067.52,117.67L1066.85,117.69L1065.98,117.9L1064.48,118.4L1064.29,118.63L1064.11,118.94L1064,119.72L1063.17,120.52L1063.13,122.28L1063.66,122.84L1063.87,122.88L1064.11,122.8L1064.42,122.96L1064.63,123.29L1064.23,124.17L1063.48,124.51L1063.27,124.7L1063.15,124.93L1063.18,125.51L1062.86,126.74L1061.02,128.13L1060.26,129.21L1060.21,129.39L1060.27,129.66L1060.69,130.56L1060.68,130.76L1060.38,131.08L1059.81,131.07L1059.52,131.14L1058.81,131.63L1058,132L1057.9,131.88L1057.41,130.64L1057,130.08L1056.83,130.07L1056.38,129.72L1055.43,128.82L1055.26,128.55L1054.04,127.5L1053.66,127.27L1052.51,127.56L1051.29,127.01L1051.1,126.77L1050.61,126.64L1049.23,127.25L1047.99,127.95L1047.39,128.05L1047.17,127.96L1047.17,127.96L1038.87,118.4L1025.46,104.87L1024.96,102.61L1022.4,102L1018.31,97.38L1016.15,99.03L1016.43,97.24L1013.09,95.94L1011.29,93.19L1008.46,91.08L1009.36,86.93L1013.23,85.31L1017.01,79.98L1021.2,76.23L1022.42,76.29L1028.33,70.18L1030.51,71.05L1036.11,65.9L1037.41,63.3L1041.7,60.08L1042.3,60.87z"/>
		<path id="C47061" title="Grundy" class="land" d="M664.46,199.61L674.44,207.31L673.78,211.75L674.56,216.91L677.88,218.38L677.8,221.03L681.65,221.26L681.14,225.19L678.75,229.65L673.64,232.45L671.35,236.27L660.83,238.96L657.65,238.63L652.72,241.99L650.25,241.21L652.27,250.06L645.69,254.18L640.98,253.59L634.06,249.54L630.86,249.74L626.92,252.79L621.18,241.45L627.38,225.73L624.94,225.53L625.17,202.13L626.36,200.92L626.78,200.08L634.36,204.29L634.78,202.75L643.77,200.91L650.9,200.13z"/>
		<path id="C47063" title="Hamblen" class="land" d="M968.16,91.38L968.02,91.39L966.83,88.01L967,85.54L969.38,85.3L969.41,80.34L972.56,81.6L974.04,80.22L973.5,77.28L978.05,72.34L981.66,71.8L981.54,69.83L985.71,68.94L986.45,66.74L989.73,71.71L991.22,69.98L992.78,72.79L995.07,68.76L996.76,68.06L999.81,69.34L998.94,67.33L1002.37,67.3L1004.53,64.94L1005.04,62.29L1008.15,63.63L1007.06,60.45L1009.86,58.25L1011.4,62.98L1013.85,66.83L1017.36,69.23L1021.2,76.23L1017.01,79.98L1013.23,85.31L1009.36,86.93L1006.65,87.65L1008.02,96.39L1005.24,95.99L1001.48,92.14L1001.79,96.24L998.1,96.81L1000.77,102.33L999.69,103.62L998.64,100.8L994.05,95.66L991.33,94.37L980.13,91.66L978.24,93.64L977.18,91.41z"/>
		<path id="C47065" title="Hamilton" class="land" d="M718.35,230.23L726.48,212.75L729.24,214.48L731.16,212.22L734.5,212.51L735.83,217.44L740.78,215.99L747.95,220.74L745.84,225.89L749.08,225.24L753.11,228.77L755.34,237.81L757.84,241.7L758.41,242.65L755.01,246.49L755.71,247.42L752.97,253.41L750.42,256.29L749.03,259.62L748.9,264.06L746.5,267.8L748.81,273.87L749.31,277.56L750.95,278.28L749.94,280.56L751,285.04L755.75,288.59L753.51,293.31L753.11,293.32L743.9,293.45L743.88,293.45L724.75,293.59L724,293.6L719.67,293.66L719.48,293.66L719.1,293.67L718.92,293.69L717.71,293.69L716.98,293.69L714.24,293.74L712.81,293.76L711.29,293.78L711.05,293.78L708.65,293.83L707.67,293.86L707.1,293.86L706.71,293.88L698.84,294.05L695.87,294.12L684.32,294.12L683.28,294.1L689.82,290.05L692.39,284.29L695.42,284.35L698.69,278.73L699.12,276.12L694.34,273.05L695.57,265.91L715.5,236.3z"/>
		<path id="C47067" title="Hancock" class="land" d="M966.13,14.17L979.86,14.15L993.79,14.01L995.94,14.77L997.46,14.76L997.52,14.76L997.66,14.78L1028.82,14.77L1028.98,14.77L1034.93,14.79L1048.65,14.84L1056.79,14.79L1049.21,18.4L1039.82,23.68L1038.37,21.55L1035.11,23.42L1034.22,20.37L1031.3,20.06L1015.74,28.78L1013.84,31.68L1009.21,36.23L1009.93,37.93L1003.59,41.43L1005.43,44.45L1001.35,46.91L993.18,49.62L989.23,48.77L983.08,45.24L978.18,46.39L980.33,42.77L980.64,38.35L976.55,25.1L971.71,18.41z"/>
		<path id="C47069" title="Hardeman" class="land" d="M207.5,217.54L207.44,225.03L213.63,232.93L215.96,248.62L215.26,269.7L215.27,292.01L210.12,292.03L206.17,292.04L201.09,291.91L195.69,292.08L182.7,292.06L181.37,292.06L165.49,292.17L165.47,292.17L162.97,292.24L157.11,292.14L159.14,222.84L159.33,216.68L173.98,216.92z"/>
		<path id="C47071" title="Hardin" class="land" d="M275.43,219.07L291.08,219.5L292.26,218.33L296.41,220.88L298.65,225.87L302.88,223.72L308.74,225.12L311.39,223.98L317.29,219.31L322.91,223.67L322.92,227.59L325.72,230.81L323.93,239.67L329.01,240.34L328.54,290.19L326.4,290.18L297.73,289.82L297.87,290.27L298.04,291.58L298.14,291.95L290.55,291.96L289.94,291.98L275.05,291.95L272.65,291.95L274.52,241.15L273.51,238.88L273.77,236.88L274.76,236.88L275.18,225.63L276.71,221.18z"/>
		<path id="C47073" title="Hawkins" class="land" d="M1088.05,14.73L1089.34,17.67L1087.03,17.27L1087.9,27.83L1085.43,28.83L1085.56,32.01L1074.89,38.99L1077.94,43.14L1074.85,46.87L1042.3,60.87L1041.7,60.08L1037.41,63.3L1036.11,65.9L1030.51,71.05L1028.33,70.18L1022.42,76.29L1021.2,76.23L1017.36,69.23L1013.85,66.83L1011.4,62.98L1009.86,58.25L1007.06,60.45L1008.15,63.63L1005.04,62.29L1004.53,64.94L1002.37,67.3L998.94,67.33L999.81,69.34L996.76,68.06L994.16,62.83L995.4,57.22L992.01,52.38L993.18,49.62L1001.35,46.91L1005.43,44.45L1003.59,41.43L1009.93,37.93L1009.21,36.23L1013.84,31.68L1015.74,28.78L1031.3,20.06L1034.22,20.37L1035.11,23.42L1038.37,21.55L1039.82,23.68L1049.21,18.4L1056.79,14.79L1075.81,14.8L1078.06,14.8z"/>
		<path id="C47075" title="Haywood" class="land" d="M134.82,150.09L135.56,150.97L137.27,155.01L137.32,154.64L141.4,157.85L144.69,158L146.8,160.97L156.24,162.31L160.87,164.3L165.03,167.05L168.59,170.61L173.88,170.95L175.3,171.75L173.98,216.92L159.33,216.68L159.14,222.84L123.15,222.17L118.13,221.82L118.74,197.03L116.93,197.02L117.68,194.36L114.18,191.14L118.72,188.62L119.24,173.48L121.16,173.51L124.73,162.27L122.97,162.23L123,159.06L125.91,153.33L127.85,151.62L128.36,149.22z"/>
		<path id="C47077" title="Henderson" class="land" d="M239.71,189.85L240.1,183.22L240.67,155L243.93,150.51L245.66,150.51L246.01,148.84L301.09,150.24L299.5,186.22L292.07,200.09L291.37,218.29L292.26,218.33L291.08,219.5L275.43,219.07L274.98,206.32L273.02,206.32L267.83,208.13L266.89,206.98L260.13,205.79L255.01,203L249.44,196.6L246.45,190.05z"/>
		<path id="C47079" title="Henry" class="land" d="M327.69,55.66L312.83,55.83L313.37,59.12L311.9,64.25L313.58,67.06L314.6,73.76L312.16,74.16L310.88,79.11L307.22,80.35L306.74,83.3L302.01,89.28L301.47,92.72L296.38,97.49L296.5,93.02L251.48,92.04L253.46,30.96L254.03,30.94L254.08,30.95L257.29,31.02L257.31,31.02L259.64,31.03L262.47,31.05L262.81,31.01L267.58,31.07L279.67,31.11L280.36,31.12L281.08,31.13L308.41,31.46L318.88,31.71L318.15,41.84L321.32,45.14z"/>
		<path id="C47081" title="Hickman" class="land" d="M374.7,186.18L370.65,181.96L362.61,176.73L363.45,170.08L367.35,168.99L364.14,165.93L366.43,146.43L367.81,134.78L371.11,133.01L374.67,133.1L381.62,127.74L381.25,127.12L384.68,126.52L387.26,127.5L392.46,123.73L392.17,119.63L398.47,120.45L398.51,121.23L400.2,121.06L399.58,120.96L399.55,120.69L399.54,120.58L438.84,125.52L439.14,129.53L438.72,133.25L437.3,144.36L434.61,166.21L430.2,167.19L432.32,168.9L431.56,170.42L426.8,171.02L422.63,174.92L421.73,177.8L419.76,177.56L402.76,185.18L395.95,182.88L390.1,182.56L387.33,178.74L384.8,178.6L381.93,181.52L379.62,182.13L379.09,185.06z"/>
		<path id="C47083" title="Houston" class="land" d="M329.13,56.85L334.18,56.71L341.55,60.1L345.97,60.94L351.58,61.15L360.84,58.66L366.6,54.24L384,54.34L384.76,58.87L395.14,60.1L393.67,74.67L392.75,77.96L387.61,87.46L384.93,84.07L374.14,83.39L369.13,79.63L364.42,77.42L358.86,76.09L354.88,75.8L349.77,77.96L333.53,76.08L334.28,72.41L332.65,64.03z"/>
		<path id="C47085" title="Humphreys" class="land" d="M331.67,146.05L334.84,141.7L336.46,134.91L336.77,129.62L324.58,127.69L323.25,124.36L323.52,121.9L326.51,117.96L326.29,113.54L327.94,110.3L332.1,105.22L337.36,97.13L338.28,91.48L337.71,88.52L335.81,86.42L333.24,79.71L333.53,76.08L349.77,77.96L354.88,75.8L358.86,76.09L364.42,77.42L369.13,79.63L374.14,83.39L384.93,84.07L387.61,87.46L389.68,94.45L390.76,102.02L390.65,110.31L389.56,115.57L392.17,119.63L392.46,123.73L387.26,127.5L384.68,126.52L381.25,127.12L381.62,127.74L374.67,133.1L371.11,133.01L367.81,134.78L366.43,146.43L352.02,146.77L347.22,152.49L339.08,146.5z"/>
		<path id="C47087" title="Jackson" class="land" d="M680.31,65.76L680.47,69.68L678.45,70.05L677.84,73.68L674.83,73.36L674.86,76.18L671.76,77.67L671.49,79.56L666.98,78.42L661.36,81.37L660.49,79.84L652.74,79.05L647.86,77.84L645.29,78.66L640.11,75.08L640.04,76.98L638.32,74.59L633.33,73.96L630.67,68.23L633.27,46.63L635.27,31.3L639.8,29.17L648.34,30.43L651.53,29.76L658.09,32.46L664.92,35.01L675.41,42.15L676.05,42.77L676.46,43.55L677.1,44.39L677.56,45.19L677.97,45.99L678.61,46.75L679.23,47.48L680.27,48.16L679.96,53.05z"/>
		<path id="C47089" title="Jefferson" class="land" d="M958.92,124.74L940.2,110.92L937.7,111.73L938,109.19L934.69,108.29L932.53,103.28L935.16,101.96L938.53,104.4L939.67,103.54L938.64,101.35L937.68,98.62L937.39,97.26L938.19,96.45L938.67,97.01L939.59,96.99L940.76,96.79L941.13,98.2L941,99.4L943.26,101.14L944.09,98.83L943.35,96.53L942.46,95.53L942.58,94.39L943.74,93.92L944.84,93.65L945.89,94.5L947.35,94.31L947.99,94.02L947.82,91.94L949.49,90.86L950.8,91.2L952.69,89.55L953.17,87.38L953.81,86.67L954.25,87.2L955.74,86.9L957.13,88.07L957.23,89.18L958.82,89.52L959.04,88.41L960.49,87.94L962.59,89.29L965.77,88.7L966.83,88.01L968.02,91.39L968.16,91.38L977.18,91.41L978.24,93.64L980.13,91.66L991.33,94.37L994.05,95.66L998.64,100.8L999.69,103.62L996.96,104.12L998.91,108.46L996.56,110.71L995.8,118.87L993.74,117.09L991.34,133.95L988.92,136.52L987.24,134.51L982.9,132.39L977.54,133.15L977.1,130.07L974.06,130.03L971.31,131.68L970.05,130.78L965.73,131.82L963.56,130.93L961.04,129.05z"/>
		<path id="C47091" title="Johnson" class="land" d="M1224,11.61L1219.67,15.78L1219.3,16.23L1219.46,17.39L1219.71,18.18L1219.74,18.83L1219.33,19.19L1218.41,19.32L1217.88,19.18L1217.56,19.7L1217.6,20.23L1217.89,20.76L1218.04,21.42L1217.91,22.08L1217.37,22.61L1216.85,23.44L1216.5,24.25L1216.5,24.76L1215.37,24.87L1215.33,25.59L1215.43,26.64L1216.14,27.65L1216.42,28.55L1216.48,28.73L1216.55,28.95L1216.58,29.19L1216.82,29.73L1216.8,29.89L1216.88,30.35L1216.79,30.5L1216.51,31.05L1216.46,31.12L1216.51,31.55L1216.74,31.69L1216.88,31.88L1216.95,32.36L1217.08,32.68L1216.88,33.88L1217.02,35.49L1217.23,35.67L1217.27,35.88L1217.16,36.82L1216.78,37.38L1216.61,37.51L1216.35,37.47L1215.33,37.82L1214.39,38.69L1214.37,39.36L1214.48,39.78L1214.49,40.47L1214.35,40.94L1214.3,41.48L1214.35,41.95L1214.35,42.31L1214.11,42.9L1213.96,43.67L1213.57,44.75L1212.27,46L1211.65,46.36L1211.09,46.81L1210.9,47.53L1210.9,48.42L1211.14,49.19L1211.71,49.64L1212.05,50.07L1212.19,50.37L1212.29,50.79L1212.16,51.67L1211.95,52.21L1211.85,52.8L1212.09,53.23L1212.81,54.13L1213.1,54.93L1213.1,55.53L1213.15,55.94L1213.29,56.59L1213.48,56.89L1213.92,57.36L1214.54,57.54L1215.4,58.13L1215.75,58.85L1215.66,59.44L1215.45,60.02L1214.63,60.21L1214.07,59.85L1213.53,59.41L1212.83,59.11L1212.12,58.97L1211.57,59.02L1210.92,59.22L1210.22,59.56L1209.74,59.64L1208.81,59.69L1208.31,59.61L1207.93,59.49L1207.69,59.38L1207.16,59.44L1206.75,58.99L1205.48,58.07L1205.01,57.84L1204.62,57.84L1204.14,57.66L1203.76,57.13L1203.52,56.59L1203.04,56.06L1202.25,56.02L1201.2,56.71L1200.55,57.24L1199.19,57.64L1197.68,57.89L1196.54,58.6L1195.92,59.11L1195.18,59.61L1194.27,60.09L1193.45,60.89L1191.87,62.81L1191.61,63.35L1191.15,63.76L1190.04,64.56L1189.01,64.91L1188.57,64.86L1187.09,65.81L1185.68,68.41L1183.58,72.29L1180.57,71.18L1178.05,68.75L1176.78,67.39L1175.49,63.47L1173.96,60.54L1170.38,59.09L1169.32,57.6L1168.13,57.01L1168.6,56.54L1168.48,55.86L1168.03,55.14L1166.43,54.65L1167.18,52.99L1169.37,50.67L1171.14,47.92L1173.19,45.74L1174.9,43.28L1176.83,40.62L1179.37,37.48L1180.47,36.64L1180.43,35.41L1179.82,34.61L1177.13,31.9L1176.13,30.43L1176.4,29.75L1179.07,25.69L1183.76,22.07L1184.28,19.32L1191.76,15.75L1191.94,13.67L1198.59,11.2L1211.28,11.53z"/>
		<path id="C47093" title="Knox" class="land" d="M937.7,111.73L939.31,119.9L940.86,120.79L940.34,123.3L935.83,127.12L936.24,129.4L934.87,128.03L920.61,138.03L918.13,139.55L912.25,146.01L904.61,145.06L904.71,143.72L899.22,139.94L895.02,142.15L891.89,138.57L890.33,140.12L887.76,139.74L889.94,141.82L890.6,144.66L888.24,146.12L886.78,143.83L884.49,144.25L884.44,147.42L881.96,147.66L880.25,144.26L874.12,147.77L874.17,145.45L870.96,144.55L872.54,147.06L871.16,153.89L868.05,152.27L854.33,136.33L853.63,135.35L853.17,134.03L854.28,130.37L855.71,128.93L857.75,128.68L860.91,125.86L864.02,120.84L869.05,120.08L873.51,118.94L876.54,117.35L878.57,115.82L881.34,113.9L881.81,110.43L879.63,107.94L881.49,103.7L883.2,101.6L887.51,97.49L889.83,94.98L892.68,92.11L895.33,89.22L898.41,86.81L899.78,85.98L902.46,88.94L929.31,89.78L934.01,99.37L935.74,98.97L938.53,104.4L935.16,101.96L932.53,103.28L934.69,108.29L938,109.19z"/>
		<path id="C47095" title="Lake" class="land" d="M116.89,81.4L116.14,85.77L96.19,86.15L95.14,85.53L94.03,84.63L92.6,83.34L91.29,82.47L89.11,80.83L87.27,79.25L86.27,78.23L85.6,77.42L85.48,77.23L85.44,76.95L85.47,76.65L85.73,76.03L86.25,75.17L86.43,74.78L86.9,74.4L87.45,74.52L88.17,74.97L89.33,75.18L92.93,74.76L94.39,74.97L95.16,75.22L96.9,76.05L98.78,76.76L99.43,76.92L100.02,76.96L102.14,76.72L103.53,76.23L104.04,75.96L105.3,74.87L105.69,74.73L106.29,74.7L106.91,74.82L107.57,75.2L108.16,75.32L108.6,75.25L108.94,75.09L109.57,74.43L109.61,72.83L109.46,71.3L109.16,70.47L108.9,70.11L108.15,69.57L107.9,69.57L107.53,69.87L106.81,70.04L103.39,68.2L102.57,67.32L101.79,66.72L98.68,64.57L97.64,62.54L97.49,62.14L97.56,61L98.12,59.86L98.84,59.1L99.55,58.79L100.28,58.66L102.95,58.76L105.94,59.57L108.12,59.73L109.1,59.61L109.99,59.31L110.66,58.88L111.28,58.34L111.8,57.67L112.62,55.7L113.11,53.3L113.13,53.05L113.02,52.48L112.51,51.33L110.91,48.62L108.5,45.18L108.23,44.55L108.09,43.96L108.05,43.33L108.12,42.59L108.35,41.92L108.71,41.43L110.63,39.68L110.92,39.25L111.17,38.8L111.51,37.87L111.7,36.98L111.73,35.51L111.57,34.94L111.28,34.48L109.6,32.71L108.96,31.52L114.76,31.58L115.54,31.6L116.59,31.61L116.36,32.09L115.4,34.93L115.29,35.41L115.32,35.89L115.44,36.43L115.8,37.24L116.43,37.92L117.8,38.58L118.48,38.73L119.55,38.7L120.07,38.53L121.11,37.98L121.76,37.43L123.42,35.68L124.47,34.38L125.37,33.06L125.82,32.27L126.17,31.38L128.06,31.36L129.88,31.37L131.18,31.2L131.42,31.13L134.74,30.82L136.23,30.64L137.07,35.2L134.25,38.82L132.96,42.7L134.25,47.07L131.35,52.7L128.07,57.08L128.01,63.77L124.52,73.26L122.31,77.41L121.03,78.71L116.49,79.95z"/>
		<path id="C47097" title="Lauderdale" class="land" d="M136.69,139.11L134.82,150.09L128.36,149.22L127.85,151.62L125.91,153.33L123,159.06L122.97,162.23L124.73,162.27L121.16,173.51L119.24,173.48L118.72,188.62L114.18,191.14L113.23,191.04L112.32,189.74L111.78,189.12L111.13,188.85L110.75,188.34L110.02,188.28L108.84,187.05L108.18,186.58L107.38,186.74L106.64,186.53L106.16,185.94L105.5,185.52L104.77,185.32L103.75,184.69L102.86,184.53L102.23,183.35L100.97,182.76L100.32,182.84L99.93,183.35L99.59,182.61L99.14,181.81L98.47,181.45L98.37,180.67L97.87,179.96L97.4,179.37L96.72,179.06L95.65,179.55L95.02,179.87L94.18,179.82L93.24,179.89L92.83,180.5L92.74,181.49L92.07,181.82L91.36,181.81L90.38,181.71L89.41,181.28L88.75,181.11L88.01,181.38L87.35,180.83L86.63,180.53L85.72,180.52L84.18,181.04L83.23,180.82L82.47,181.14L82.31,180.21L81.14,180.11L79.95,179.83L79.04,179.56L78.07,179.65L77.13,180.13L76.13,180.73L74.87,181.51L73.91,181.55L72.79,181.42L72.84,182.15L71.23,183.54L70.75,184.06L69.86,184.15L68.78,185.32L68.57,186.19L67.83,187.12L66.62,187.36L65.74,187.4L64.99,188.63L63.75,189.68L62.9,189.9L61.78,190.6L60.28,191.04L59.68,193.45L56.67,198.49L56.44,198.39L56.43,197.98L56.57,197.47L56.44,196.87L55.97,196.49L55.51,196.39L54.56,196.34L53.86,196.17L52.12,195.31L51.65,194.66L51.34,194.09L50.31,191.94L49.96,191.01L49.78,190.3L49.79,190L49.95,189.43L50.32,188.78L50.74,188.23L51.55,187.51L53.38,186.43L55.2,185.68L56.25,184.84L56.46,184.76L57.12,185L58,185.19L58.39,185.22L58.77,185.1L61.28,183.18L63.07,182.47L64.1,181.83L64.48,181.17L64.77,180.13L64.91,179.1L64.87,177.85L64.54,176.88L63.77,175.84L63.44,175.67L62.94,175.61L61.91,175.94L61.2,176.35L61,176.57L60.39,177.85L60.1,178.26L59.81,178.51L59.31,178.72L58.12,178.98L57.1,178.94L55.79,178.66L54.75,178.22L53.58,177.4L52.69,176.42L51.94,174.79L50.88,173.52L50.44,172.83L50.09,172.11L49.97,171.26L49.92,168.46L49.65,166.35L49.68,165.68L50.02,164.7L50.34,164.22L50.87,163.81L55.78,160.97L56.11,160.55L56.56,160.19L57.19,160.25L59.64,161.81L60.29,162.69L61.18,163.32L61.81,163.33L63.07,162.24L63.94,161.81L65.55,160.83L67.45,160.97L68.58,160.83L69.1,160.66L70.05,160.1L70.28,159.89L70.79,159.33L72.2,157.41L72.49,156.6L72.51,156.16L72.19,155.14L72.62,154.4L74.67,152.27L76.98,151.5L76.98,151.21L78.05,151.34L80.15,152.14L81.42,152.08L82.92,151.52L83.41,151.15L85.37,149.98L85.68,149.63L85.98,148.95L86.08,148.25L86.03,147.78L85.82,147.23L85.61,146.95L84.92,146.4L82.06,144.89L79.24,143.96L77.13,143.03L76.42,142.47L75.99,141.86L75.87,141.45L75.83,140.71L75.93,139.92L76.09,139.32L76.51,138.11L76.94,137.31L78.27,136.13L80.4,134.63L84.12,134.71L87.9,136.33L88.79,137.54L89.47,138.28L90.53,138.7L91.08,138.7L92.19,138.27L92.52,138.07L93.19,137.38L93.68,136.68L94.02,135.04L94.93,133.42L97.52,132.23L101.08,131.65L103.58,130.97L104.47,130.97L105.21,130.4L105.92,129.74L106.55,129.39L107.78,129.65L108.98,130.41L110.69,130.42L111.7,130.25L112.4,130.86L112.84,130.42L113.57,130.36L113.16,131.03L113.84,131.1L114.96,130.21L115.63,128.26L118.18,127.54L124.99,127.66L128.01,128.66L128.8,128.88L129.5,129.72L130.4,131.31L131.35,132.44L132.5,133.66L133.25,134.07L134.03,134.41L134.82,135.18L135.1,136.31L135.76,136.56L135.87,137.47L136.38,138.18z"/>
		<path id="C47099" title="Lawrence" class="land" d="M386.4,222.61L394.68,222.66L395.69,219.81L400.11,219.81L400.1,218.44L404.28,218.77L404.33,212.36L421.66,212.61L421.5,214.11L426.08,214.64L435.49,217.28L438.51,216.62L437.32,225.57L437.3,240.32L434.91,240.85L437.27,241.9L436.74,252.07L437.56,252.07L436.38,261.4L439.81,263.79L437.46,270.01L435.94,282.8L436.04,291.31L435.12,291.29L429.54,291.13L425.42,291.04L418.35,290.91L416.93,290.88L413.85,290.83L412.41,290.79L408.72,290.74L408.13,290.74L407.14,290.72L382.05,290.57L381.24,287.93L382.11,285.04L385.94,285.21L386.77,282.77L384.5,281.16L384.28,266.66L386.53,262.91L385.9,259.06z"/>
		<path id="C47101" title="Lewis" class="land" d="M366.31,207.96L367.24,204.17L370.11,204.16L370.79,196.77L375.61,193.87L376.07,189.52L374.7,186.18L379.09,185.06L379.62,182.13L381.93,181.52L384.8,178.6L387.33,178.74L390.1,182.56L395.95,182.88L402.76,185.18L419.76,177.56L419.7,177.96L420.84,178.05L420.68,181.79L417.83,184.7L417.78,189.59L419.89,192.51L423.2,193.4L422.8,196.59L426.74,196.78L427.79,204.24L429.63,204.07L427.66,205.62L428.87,207.95L427.92,212.22L426.08,214.64L421.5,214.11L421.66,212.61L404.33,212.36L404.28,218.77L400.1,218.44L400.11,219.81L395.69,219.81L394.68,222.66L386.4,222.61L383.32,220.32L381.89,216.1L376.35,215.09L376.44,209.79L370.8,209.78z"/>
		<path id="C47103" title="Lincoln" class="land" d="M534.76,230.16L532.76,233.48L534.48,237.6L541.82,240.06L547.22,243.87L548.77,246.57L550.91,246.57L549.09,249.74L553.57,250.72L556.91,261.71L556.83,269.09L557.64,270.06L559.35,266.01L560.27,268.94L564.02,269.38L563.73,285.62L563.94,292.72L552.86,292.63L547.67,292.73L542.88,292.79L534.31,292.8L530.44,292.75L528.27,292.74L525.77,292.71L524.2,292.7L518.38,292.62L515.78,292.61L514.2,292.57L513.7,292.57L513.37,292.56L513.24,292.56L498.26,292.58L498.26,292.58L493.03,292.61L490.82,292.61L491.95,245.85L503.45,247.71L512.93,237.99L523.84,234.94L524.28,228.39L526.63,227.35z"/>
		<path id="C47105" title="Loudon" class="land" d="M817.25,183.61L814.18,180.64L812.73,182.66L808.97,180.11L810.22,177.6L813.36,177.61L816.53,175.61L816.39,173.25L819.42,167.63L821.68,167.65L828.17,160.18L831.36,161.26L832.71,157.23L836.64,158.64L837.9,150.13L842.43,147.54L843.67,144.43L844.92,137.03L851.53,140.15L851.59,135.39L854.33,136.33L868.05,152.27L867.14,152.38L867.2,156.66L866.18,158.62L870.08,160.51L867.82,163.28L867.13,168.27L868.86,171.26L869.81,175.01L872.74,177.28L872.55,179.59L870.12,183.03L864.94,185.97L864.33,184.64L860.26,185.14L855.59,184.23L856.11,181.39L851.73,181.64L849.51,180.33L850.46,178.29L846.68,177.38L846.67,175.33L845.42,176.54L841.02,176.52L841.63,178.38L837.12,180.84L835.3,180.83L834.12,176.44L831.53,177.22L831.7,175.38L826.94,176.41L826.94,177.57L821.53,178.2L820.3,176.39L818.97,180.17L820.23,184.39z"/>
		<path id="C47107" title="McMinn" class="land" d="M803.97,180.07L808.97,180.11L812.73,182.66L814.18,180.64L817.25,183.61L817.71,190.19L820.23,191.47L825.89,204.25L827.57,209.05L830.22,213.95L828.87,216.57L831.27,219.16L831.31,222.02L833.73,222.63L834.89,234.36L827.3,236.4L821.53,242.09L818.62,245.37L797.25,245.1L792.14,249.75L792.99,247.8L791.16,246.14L786.94,247.09L785.19,244.19L789.31,243.27L789.07,241.41L785.59,241.77L780.98,237.26L778.11,236.47L777.03,234.78L775.01,235.16L773.16,232.69L770.02,230.96L776.46,215.97L778.41,215.05L777.73,213.96L781.69,211.01L785.98,203.22L789.17,201.36L793.75,194.39L794.08,191.67L797.37,189.65L800.86,183.26z"/>
		<path id="C47109" title="McNairy" class="land" d="M215.27,292.01L215.26,269.7L215.96,248.62L224.72,248.63L226.5,246.85L229.02,237.83L231.06,235.56L231.36,237.44L234.02,236.56L232.4,236.28L232.72,232.65L235.85,229.07L246.34,225.4L275.18,225.63L274.76,236.88L273.77,236.88L273.51,238.88L274.52,241.15L272.65,291.95L260.03,291.88L260.02,291.88z"/>
		<path id="C47111" title="Macon" class="land" d="M611.96,44.14L585.2,40.95L582.12,34.23L576.66,33.58L576.7,33.4L578.63,26.85L577.17,26.17L579.95,6.72L580.03,6.73L581.06,6.8L597.4,7.76L597.58,7.75L603.56,8.3L604.29,8.37L604.35,8.37L612.39,8.68L614.63,8.77L626.8,9.55L632.69,9.83L637.02,9.77L638.84,9.87L638.84,9.87L637.73,11.32L635.27,31.3L633.27,46.63z"/>
		<path id="C47113" title="Madison" class="land" d="M196.97,153.62L197.7,153.61L226.55,154.7L240.67,155L240.1,183.22L239.71,189.85L239.63,193.13L236.7,198.97L230.92,206.95L211.15,217.61L207.5,217.54L173.98,216.92L175.3,171.75L176.63,174.02L182.22,175.44L200.25,155.95z"/>
		<path id="C47115" title="Marion" class="land" d="M671.35,236.27L671.6,238.16L680.39,243.06L680.67,244.04L687.66,246.19L693.33,252.84L695.57,265.91L694.34,273.05L699.12,276.12L698.69,278.73L695.42,284.35L692.39,284.29L689.82,290.05L683.28,294.1L664.76,293.83L633.78,293.23L633.17,293.23L628.2,293.19L628.29,253.32L628.08,253.31L626.92,253.3L626.92,252.79L630.86,249.74L634.06,249.54L640.98,253.59L645.69,254.18L652.27,250.06L650.25,241.21L652.72,241.99L657.65,238.63L660.83,238.96z"/>
		<path id="C47117" title="Marshall" class="land" d="M512.03,168.74L513.71,171.01L518.63,172.92L516.83,190.01L515.2,190.92L519.23,191.7L516.69,192.27L515.14,206.5L514.94,212.64L515.98,216.26L521.63,228.08L524.28,228.39L523.84,234.94L512.93,237.99L503.45,247.71L491.95,245.85L491.92,240.73L489.49,235.97L487.55,239.77L480.9,237.16L481.5,233.13L478.98,230.6L477.93,226.64L478.19,221.92L473.23,219.41L474.05,213.46L482.46,208.35L484.56,206.12L485.88,204.65L488.95,200.67L490.57,196.31L490.23,193.45L492.08,190.89L490.32,189.26L492.45,187.63L494.27,171.1L496.38,171.96L498.49,169.34L505.22,170.68L505.68,169.31z"/>
		<path id="C47119" title="Maury" class="land" d="M437.3,144.36L472.66,158.03L473.26,157.43L472.99,156.12L474.25,156.29L477.81,156.96L476.41,159.74L494.27,166.94L498.49,169.34L496.38,171.96L494.27,171.1L492.45,187.63L490.32,189.26L492.08,190.89L490.23,193.45L490.57,196.31L488.95,200.67L485.88,204.65L484.56,206.12L482.46,208.35L474.05,213.46L473.23,219.41L469.83,218.93L468.98,220.94L465.22,219.62L463.07,216.87L459.36,216.95L457.55,215.38L449.45,212.68L445.06,216.24L438.51,216.62L435.49,217.28L426.08,214.64L427.92,212.22L428.87,207.95L427.66,205.62L429.63,204.07L427.79,204.24L426.74,196.78L422.8,196.59L423.2,193.4L419.89,192.51L417.78,189.59L417.83,184.7L420.68,181.79L420.84,178.05L419.7,177.96L419.76,177.56L421.73,177.8L422.63,174.92L426.8,171.02L431.56,170.42L432.32,168.9L430.2,167.19L434.61,166.21z"/>
		<path id="C47121" title="Meigs" class="land" d="M789.28,161.32L792.87,163.24L792.83,167.39L795.96,167.45L796.57,169.97L800.41,166.25L804.08,169.12L803.12,177.6L803.96,177.61L803.97,180.07L800.86,183.26L797.37,189.65L794.08,191.67L793.75,194.39L789.17,201.36L785.98,203.22L781.69,211.01L777.73,213.96L778.41,215.05L776.46,215.97L770.02,230.96L760.51,241.51L757.84,241.7L755.34,237.81L753.11,228.77L749.08,225.24L745.84,225.89L747.95,220.74L753.08,215.57L753.05,210.29L757.91,215.5L762.67,214.98L763.87,212.77L763.76,209.91L765.05,208.02L770.05,205.59L769.67,202.44L767.59,200.75L768.07,196.4L770.62,195.73L776.33,197.24L779.24,196L777.38,193.18L777.12,190.83L781.01,188.69L781.66,185.5L780.45,182.12L781.58,180.07L781.09,175L783.66,170.23L786.92,174.04L789.67,171.92L789.38,169.28L790.97,166.15z"/>
		<path id="C47123" title="Monroe" class="land" d="M850.24,255.67L845.53,253.48L842.9,256.08L841.12,251.02L821.53,242.09L827.3,236.4L834.89,234.36L833.73,222.63L831.31,222.02L831.27,219.16L828.87,216.57L830.22,213.95L827.57,209.05L825.89,204.25L820.23,191.47L817.71,190.19L817.25,183.61L820.23,184.39L818.97,180.17L820.3,176.39L821.53,178.2L826.94,177.57L826.94,176.41L831.7,175.38L831.53,177.22L834.12,176.44L835.3,180.83L837.12,180.84L841.63,178.38L841.02,176.52L845.42,176.54L846.67,175.33L846.68,177.38L850.46,178.29L849.51,180.33L851.73,181.64L856.11,181.39L855.59,184.23L860.26,185.14L864.33,184.64L864.94,185.97L867.4,188.93L870.51,189.3L873.04,191.89L875.68,189.96L879.14,194.73L880.02,197.96L881.92,197.06L885.47,197.79L892.12,195.93L892.61,199.77L890,202.3L893.59,207.36L894.96,204.96L900.23,207.19L896.47,210.07L897.05,211.34L897.05,211.5L897,212.08L896.46,212.78L896.26,212.86L895.8,212.78L895.58,212.83L895.33,213.27L895.35,213.9L894.61,214.09L893.91,215.04L892.59,215.78L892.02,216.52L891.81,217.03L891.65,217.84L891.56,218L891.23,218.46L890.79,218.74L889.89,219.69L889.47,220.28L889.06,220.42L888.63,220.65L888.47,221.07L888.51,221.63L888.89,222.38L888.99,222.5L889.4,222.61L889.55,222.73L890.38,224.01L890.38,224.13L890.05,224.73L889.96,225.04L890.16,225.33L890.37,225.99L890.47,227.24L889.41,228.41L888.83,229.32L888.69,229.68L888.23,230.24L888.05,230.3L886.55,230.83L886.25,231L886.16,231.25L886.96,233.24L887.13,233.31L887.39,233.87L887.25,234.34L886.99,234.66L886.96,235.02L886.96,235.23L886.53,236.53L886.5,237.37L886.6,237.53L887.49,237.8L887.8,237.99L888.52,239.35L888.22,240.32L887.6,240.83L887.43,240.94L886.46,241.54L885.51,243.32L884.11,244.76L883.67,245.07L882.54,245.33L881.57,245.83L880.99,245.94L880.08,246.29L879.84,246.68L879.83,246.99L878.52,248.21L877.77,248.66L877.1,248.53L876.97,248.42L876.22,248.15L875.54,248.38L875.38,248.36L875.29,248.25L875.26,248.13L874.43,248.09L873.9,248.23L873.8,248.31L873.63,248.81L873.56,249.17L873.33,249.29L873.1,249.35L872.71,249.29L872.27,249.1L871.8,248.86L871.32,248.74L869.6,248.81L869.09,248.92L868.88,249.26L868.75,249.33L867.72,248.93L867.47,248.93L866.54,249.52L866.32,249.81L864.92,249.93L864.39,249.4L863.41,249.29L863.27,249.12L863.04,248.59L862.88,247.21L862.54,246.78L862.51,246.54L861.62,245.44L860.98,245.11L859.94,244.92L859.36,245.13L858.79,245.66L857.61,247.31L857.21,247.66L855.83,248.3L855.13,248.86L854.77,249.6L852.63,250.83L851.63,252.02L851.53,252.24L850.86,252.6L850.63,252.57L850.54,252.41z"/>
		<path id="C47125" title="Montgomery" class="land" d="M446.7,44.71L442.65,44.4L438.71,46.52L437.31,49.4L432.37,52.55L430.48,56.68L428.06,56.65L427.21,62.33L424.87,63.99L395.14,60.1L384.76,58.87L384,54.34L382.56,45.38L382.44,44.17L377.11,7.03L387.88,6.84L388.14,6.84L406.02,6.55L407.65,6.5L409.16,6.5L418.55,6.43L419.07,6.42L420.22,6.41L427.92,6.38L428.36,6.38L432.7,6.36L435.05,6.35L435.12,6.35L451.45,6.26L449.9,8.61L450.6,11.32L448.85,20.22L446.45,19.51L449.37,23.06L451.06,22.52L450.93,27.06L449.51,37.86L450.68,39L446.46,40.82z"/>
		<path id="C47127" title="Moore" class="land" d="M572.58,220.19L569.43,224.51L573.18,224.88L570.21,227.13L574.31,231.42L571.34,232.94L572.03,233.8L574.32,235.45L572.84,240.31L568.4,246.54L569.25,249.62L565.73,251.45L567.48,255.56L564.92,257.59L563.77,263.47L564.2,266.02L561.88,266.02L564.78,268.19L564.02,269.38L560.27,268.94L559.35,266.01L557.64,270.06L556.83,269.09L556.91,261.71L553.57,250.72L549.09,249.74L550.91,246.57L548.77,246.57L547.22,243.87L541.82,240.06L534.48,237.6L532.76,233.48L534.76,230.16L539.85,228.96L544.36,235.03L549.31,236.34L551.15,231.56L556.53,231.33L558.07,228.9L559.91,228.94L562.42,226.32L567.39,223.72L568.28,221.09z"/>
		<path id="C47129" title="Morgan" class="land" d="M843.25,109.9L839.99,111.28L837.49,114.2L828.52,120.86L822.72,121L813.27,124.59L813.14,127.05L807.28,127.69L806.24,126.42L805.9,128.1L795.38,134.33L789.72,119.31L779.64,108.08L777.75,102.68L775.04,101.96L773.94,103.81L768.5,94.59L763.29,91.22L764.42,88.37L762.91,85.98L762.39,82.16L766.68,76.77L767.83,68.72L770.66,67.26L772.45,68.43L775.38,66.24L779.06,66.61L780.51,61.66L782.08,60.29L783.88,61.19L787.04,59.54L786.22,57.24L788.84,56.73L788.05,54.59L789.19,52.82L792.54,53.79L805.21,71.33L807.93,70.3L810.58,71.99L810.47,78.36L813.49,77.71L824.99,82.94L825.4,85.05L829.23,89.97L828.1,94.13L830.79,95.47L832.14,99.56L837.99,101.83z"/>
		<path id="C47131" title="Obion" class="land" d="M209.52,30.71L211.4,36.31L211.06,46.82L206.87,46.41L201.24,49.94L192.31,46.87L190.8,79.62L190.6,83.32L163.3,82.79L119.16,81.42L117.59,81.37L116.89,81.4L116.49,79.95L121.03,78.71L122.31,77.41L124.52,73.26L128.01,63.77L128.07,57.08L131.35,52.7L134.25,47.07L132.96,42.7L134.25,38.82L137.07,35.2L136.23,30.64L136.23,30.64L142.7,29.96L145.24,30.02L145.69,30.07L155.26,30.22L162.03,30.41L162.06,30.42L168.2,30.57L168.52,30.58L172.39,30.61L174.94,30.64L176.81,30.65L180.23,30.69L183.65,30.73L184.16,30.74L185.12,30.75L190.14,30.82L199.32,30.82L201.43,30.91L202.82,30.78L208.46,30.7L208.49,30.7z"/>
		<path id="C47133" title="Overton" class="land" d="M680.27,48.16L682.2,39.2L687.2,31.56L694.79,30.42L693.64,32.73L696.12,33.17L695.17,30.22L702.52,26.33L708.02,27.31L710.01,25.73L712.22,24.16L713.75,25.39L712.76,25.69L718.72,28.58L724.07,32.89L729.36,38.88L729.5,42.44L731.17,47.47L733.24,47.44L733.46,48.73L732.99,65.36L738.6,84.27L733.37,93.24L721.42,91.88L711.54,86.8L704.07,83.43L704.1,80.49L698.6,80.01L691,77.3L688.68,75.38L688.71,72.75L686.27,72.88L686.17,70.2L684.42,69.76L686.13,69.48L685.45,65.46L680.31,65.76L679.96,53.05z"/>
		<path id="C47135" title="Perry" class="land" d="M367.35,168.99L363.45,170.08L362.61,176.73L370.65,181.96L374.7,186.18L376.07,189.52L375.61,193.87L370.79,196.77L370.11,204.16L367.24,204.17L366.31,207.96L364.02,206.52L354.16,207.68L350.79,210.28L346.4,211.05L345.5,209.23L339.72,211.57L336.01,211L333.18,212.31L327.98,213.08L324.63,217.76L325.32,218.31L322.05,217.52L320.43,214.65L320.77,212.11L322.62,209.91L329.05,206.78L330.03,202.65L329.05,198.98L326.63,195.91L321.58,185.41L321.35,184.01L323.73,177.37L323.93,173.41L322.39,171.55L321.51,167.36L323.36,163.96L327.83,159.79L329.26,156.81L330.54,150.43L331.67,146.05L339.08,146.5L347.22,152.49L352.02,146.77L366.43,146.43L364.14,165.93z"/>
		<path id="C47137" title="Pickett" class="land" d="M752.17,10.77L753.81,10.97L758.18,11.49L770.08,12.56L770.07,12.57L772.43,12.8L777.99,12.95L780.58,13.1L785.59,21.84L788.15,26.89L780.77,26.84L775.97,22.44L769.71,18.97L763.11,17.26L748.99,19.07L748.75,18.24L748.45,19.73L744.05,20.91L742.69,27.13L741.13,26.36L737.76,31.19L735.73,46.96L733.24,47.44L731.17,47.47L729.5,42.44L729.36,38.88L724.07,32.89L718.72,28.58L712.76,25.69L713.75,25.39L712.22,24.16L710.01,25.73L712.53,18.38L711.06,16.12L711.23,9.05L722.66,9.23L736.68,9.75L738.05,9.85L746.78,10.3z"/>
		<path id="C47139" title="Polk" class="land" d="M792.14,249.75L797.25,245.1L818.62,245.37L821.53,242.09L841.12,251.02L842.9,256.08L845.53,253.48L850.24,255.67L849.83,259.84L849.44,262.41L848.48,270.29L847.97,275.19L847.95,275.26L847.74,277.65L846.07,293.19L835.89,293.25L835.75,293.25L819.62,293.25L819.51,293.26L803.74,293.2L803.25,293.26L788.77,293.25L788.26,293.24L781.93,293.29L785.78,281.1L787.66,277.22L785.95,276.42L792.68,261.59L793.06,251.93L790.41,251.02z"/>
		<path id="C47141" title="Putnam" class="land" d="M640.04,76.98L640.11,75.08L645.29,78.66L647.86,77.84L652.74,79.05L660.49,79.84L661.36,81.37L666.98,78.42L671.49,79.56L671.76,77.67L674.86,76.18L674.83,73.36L677.84,73.68L678.45,70.05L680.47,69.68L680.31,65.76L685.45,65.46L686.13,69.48L684.42,69.76L686.17,70.2L686.27,72.88L688.71,72.75L688.68,75.38L691,77.3L698.6,80.01L704.1,80.49L704.07,83.43L711.54,86.8L721.42,91.88L733.37,93.24L736.1,94.31L731.65,96.1L728.68,101.1L716.95,100.02L715.45,100.9L713.95,122.16L712.93,122.05L706.28,119.64L706.55,112.93L678.51,104.15L668.48,107.4L667.09,111.38L663.92,110.41L659.38,114.21L659.19,115.8L658.28,116.28L655.85,113.23L653.23,107.15L646.99,104.21L643.87,106.6L641.88,106.23L640.63,104.8L641.5,101.9L638.93,100.51L636.19,95.52L637.87,85.04L636.68,81.65L639.18,81.74z"/>
		<path id="C47143" title="Rhea" class="land" d="M789.28,161.32L790.97,166.15L789.38,169.28L789.67,171.92L786.92,174.04L783.66,170.23L781.09,175L781.58,180.07L780.45,182.12L781.66,185.5L781.01,188.69L777.12,190.83L777.38,193.18L779.24,196L776.33,197.24L770.62,195.73L768.07,196.4L767.59,200.75L769.67,202.44L770.05,205.59L765.05,208.02L763.76,209.91L763.87,212.77L762.67,214.98L757.91,215.5L753.05,210.29L753.08,215.57L747.95,220.74L740.78,215.99L735.83,217.44L734.5,212.51L731.16,212.22L733.87,209.28L729.58,206.58L733.41,200.07L736.26,199.26L735.04,192.75L743.53,184.57L762.12,159.75L778.82,148.79L781.07,148.81L780.14,150.71L785.98,154.15L787.27,156.74L784.95,161.06z"/>
		<path id="C47145" title="Roane" class="land" d="M803.12,177.6L804.08,169.12L800.41,166.25L796.57,169.97L795.96,167.45L792.83,167.39L792.87,163.24L789.28,161.32L784.95,161.06L787.27,156.74L785.98,154.15L780.14,150.71L781.07,148.81L788.58,142.88L791.77,136.48L795.38,134.33L805.9,128.1L806.24,126.42L807.28,127.69L813.14,127.05L813.27,124.59L822.72,121L828.52,120.86L837.49,114.2L839.99,111.28L843.25,109.9L843.45,110.47L845.63,117.63L846.33,119.88L853.17,134.03L853.63,135.35L854.33,136.33L851.59,135.39L851.53,140.15L844.92,137.03L843.67,144.43L842.43,147.54L837.9,150.13L836.64,158.64L832.71,157.23L831.36,161.26L828.17,160.18L821.68,167.65L819.42,167.63L816.39,173.25L816.53,175.61L813.36,177.61L810.22,177.6L808.97,180.11L803.97,180.07L803.96,177.61z"/>
		<path id="C47147" title="Robertson" class="land" d="M529.26,7.81L523.6,18.77L519.26,25.25L518.45,31.71L516.87,36.45L513.58,39.95L510.77,44.97L511.03,47.43L503.26,45.44L503.49,46.74L502.34,47.73L501.22,48.67L501.1,49.33L500.64,49.76L499.26,50.19L498.68,50.94L498.22,51.78L497.6,52.73L497.54,54.38L497.73,55.5L497.15,55.72L496.4,55.76L495.58,56.34L494.46,56.59L493.41,56.95L492.52,57.25L491.19,56.17L490.29,55.48L489.22,54.59L488.48,54.07L487.14,53.51L486.44,53.58L485.39,53.38L484.83,52.98L484.12,52.09L483.1,50.92L481.36,50.52L479.95,51.73L476.75,50.8L476.5,52.17L469.38,54.08L466.93,50.02L463.78,48.6L450.68,39L449.51,37.86L450.93,27.06L451.06,22.52L449.37,23.06L446.45,19.51L448.85,20.22L450.6,11.32L449.9,8.61L451.45,6.26L451.45,6.26L459.1,6.12L466.06,5.99L480.89,5.59L480.97,5.58L488.28,5.48L491.26,5.42L493.35,5.35L493.66,5.33L494.11,5.34L501.13,5.12L501.75,5.1L508.13,5.05L523.3,4.56L523.49,4.56L525.63,4.5z"/>
		<path id="C47149" title="Rutherford" class="land" d="M550.03,111.2L553.15,113.02L555.71,116.33L557.42,116.58L565.13,122.15L573.57,124.04L573.41,125.18L582.71,124.99L584.89,125.85L586.22,124.82L587.33,126.35L588.95,133.3L586.57,139.13L585.15,138.51L584.52,140.28L583.37,154.02L582.33,153.86L582.54,159.44L581.36,163.3L579.6,164.89L579.71,169.83L574.3,172.41L574.34,182.27L568.35,179.44L565.85,179.77L565.13,177.13L560.22,176.76L559.22,179.1L555.48,180.38L556.28,182.41L552.08,184.58L549.93,182.9L550.57,180.87L548.93,179.07L542.12,179.78L542.28,178.32L539.18,177.75L536.14,172.49L532.24,170.9L519.07,170.14L518.63,172.92L513.71,171.01L512.03,168.74L510.18,167.39L510.52,161.42L512.65,161.81L514.13,158.05L515.55,158.8L515.33,154.72L517.56,153.92L522.32,154.83L522.54,148.89L520.53,148.55L523.72,146.44L524.15,143.92L521.74,142.02L522.26,138.62L520.39,133.17L522.09,128.21L520.68,126.43L521.54,123.95L523.19,120.95L522.46,116.68L529.76,111.49L529.25,107.36L531.77,106.85L531.71,103.14L534.45,105.55L536.13,100.92z"/>
		<path id="C47151" title="Scott" class="land" d="M803.25,13.77L814.81,14.35L820.91,14.28L828.98,14.38L853.23,15.12L854.62,15.1L854.58,17.75L855.92,21.23L855.94,23.1L855.58,26.13L854.73,28.88L851.56,30.37L848.21,30.04L846.41,29.88L844.76,30.23L844.18,31.11L843.74,34.49L841.96,37.19L842.97,41.05L845.25,48.89L844.7,52.89L844.7,61.48L844.86,66.5L842.9,70.11L841.4,70.51L838.74,72.53L838.7,75.41L838.94,79.32L838.88,80.68L836.1,83.31L834.91,87.35L829.23,89.97L825.4,85.05L824.99,82.94L813.49,77.71L810.47,78.36L810.58,71.99L807.93,70.3L805.21,71.33L792.54,53.79L794.64,50.79L798.43,49.53L793.7,42.49L790.51,31.4L788.15,26.89L785.59,21.84L780.58,13.1L780.59,13.1L781.56,13.13z"/>
		<path id="C47153" title="Sequatchie" class="land" d="M671.49,199.38L680.22,196.85L685.29,196.98L690.38,193.43L688.63,197.92L692.75,202L693.28,206.41L705.85,219.38L718.35,230.23L715.5,236.3L695.57,265.91L693.33,252.84L687.66,246.19L680.67,244.04L680.39,243.06L671.6,238.16L671.35,236.27L673.64,232.45L678.75,229.65L681.14,225.19L681.65,221.26L677.8,221.03L677.88,218.38L674.56,216.91L673.78,211.75L674.44,207.31L664.46,199.61z"/>
		<path id="C47155" title="Sevier" class="land" d="M922.64,142.71L920.61,138.03L934.87,128.03L936.24,129.4L935.83,127.12L940.34,123.3L940.86,120.79L939.31,119.9L937.7,111.73L940.2,110.92L958.92,124.74L961.04,129.05L963.56,130.93L965.73,131.82L970.05,130.78L971.31,131.68L974.06,130.03L977.1,130.07L977.54,133.15L982.9,132.39L987.24,134.51L988.92,136.52L989.21,140.71L992.03,141.75L994.4,148.13L995.84,148.81L993.37,149.17L992.22,153.97L993.93,156.86L993.16,161.8L993.78,168.13L996.73,167.89L996.87,168.34L996.91,168.84L996.79,169.25L996.64,169.8L996.78,170.22L996.71,171.17L996.36,171.88L995.92,172.36L995.33,172.64L994.78,173.01L994.49,173.69L993.91,174.04L993.1,174.33L991.97,174.9L991.76,175.22L991.7,176.17L991.34,177.08L990.85,177.8L990.12,178.09L988.96,178.37L988.64,178.31L987.91,177.58L987.46,176.92L985.5,176.46L985.12,176.88L983.77,177.33L983.48,177.26L983.16,177.43L982.85,177.85L982.6,178.34L982.62,178.74L982.5,179.14L982.22,179.61L980.99,181.09L980.81,181.18L980.5,181.18L980.25,180.99L980.03,181.06L979.59,181.45L979.43,181.82L979.11,181.79L977.91,181.98L977.93,182.19L977.35,183.45L976.79,183.86L975.81,184.1L975.46,184.3L974.64,184.87L973.44,185.46L973.35,185.79L973.27,185.86L971.75,186.07L970.49,185.76L969.84,185.75L969.66,186.29L968.91,187.29L968.44,188.13L967.46,189.07L966.23,189.47L966.05,189.67L966.05,190.12L965.67,190.43L965.14,190.68L965.11,190.77L965.22,191.39L964.92,191.83L964.23,193.29L963.37,193.52L962.42,194.19L959.71,194.21L959.29,193.74L957.36,193.9L956.42,193.72L954.82,193.96L953.81,193.88L952.85,193.67L951.95,193.76L951.4,194.02L950.6,194.25L950.09,194.2L949.88,194.02L949.78,193.51L948.87,192.48L947.8,191.56L947.38,191.37L946.8,191.35L945.89,192.29L943.86,193.35L943.49,193.14L943,193.3L942.8,193.48L942.34,193.66L941.63,193.7L940.55,193.27L939.87,193.12L939.45,193.29L939.16,193.13L939.18,172.11L937.56,172.99L936.45,168.79L933.19,168.48L931.26,162.21L927.24,153.43L928.35,151.97L925.84,150.11L923.53,143.97L922.02,143.32z"/>
		<path id="C47157" title="Shelby" class="land" d="M94.31,283.49L94.1,292.01L82.79,292.02L80.32,292.02L72.78,292.18L65.25,292.19L60.32,292.18L58.9,292.17L0.14,291.94L0,290.46L0.06,289.52L0.48,288.07L1.36,286.25L1.84,284.69L2.08,284.31L2.59,284.02L6.36,284.28L6.57,284.4L6.63,284.76L6.77,284.95L7.6,285.27L11.26,285.82L12.08,286.05L13.29,286.72L13.55,286.77L14.26,286.64L15.57,285.56L16.14,284.77L16.03,283.7L15.99,282.48L16.07,281.56L16.27,280.58L18.21,275.49L18.85,271.94L19.31,270.91L20.48,269.68L21.23,269.06L21.8,268.69L23.4,268L23.67,267.98L24.2,268.17L28.38,270.77L29.63,271.15L31.04,270.87L31.59,270.62L32.05,270.29L33.78,268.58L34.43,267.83L34.6,267.54L34.71,267.03L34.45,265.23L34.38,265.1L34.03,264.79L31.07,264.34L30.71,264.17L30.2,263.53L29.74,262.93L29.26,262.33L28.93,261.86L28.57,261.19L28.42,260.52L28.14,260.49L27.7,259.97L27.25,258.9L27.23,258.44L27.43,257.07L28.43,256.97L30.08,257.71L30.21,257.7L30.66,256.25L31.32,254.68L31.96,255.02L32.37,255.41L32.99,255.3L33.31,254.88L33.35,254.83L33.36,253.88L33.26,253.29L32.98,252.61L32.71,252.03L32.12,251.34L31.64,250.67L31,249.55L30,248.21L29.78,247.97L28.99,247.47L28.28,247.27L27.38,247.21L26.38,247.35L25.17,247.66L24,247.81L22.35,247.17L21.4,246.04L20.3,243.97L19.99,243.19L19.98,242.69L20.5,240.77L20.7,240.26L21.06,239.77L21.39,239.48L22.17,239.15L22.68,239.02L24.13,239.79L25.14,239.51L26.36,238.81L26.62,238.81L27.28,239.01L28.43,238.73L28.75,235.35L29.17,234.01L28.26,232.22L28.47,232.25L28.68,232.15L29.67,230.69L30.16,229.73L30.63,229.16L31.06,229.09L31.42,228.68L32,227.73L33.25,225.08L34.42,224.91L35.11,224.73L36.17,224.2L36.15,224.13L37.5,223.56L37.97,222.93L58.18,223.72L59.48,223.92L67.94,223.69L75.1,224.45L75.38,221.45L81.87,222.16L85.88,220.87L85.82,224.23L94.46,224.7L94,227.31L95.72,226.52L95.11,257.18z"/>
		<path id="C47159" title="Smith" class="land" d="M589.65,66.88L591.15,67.19L593.33,62.06L597.55,56.49L603.88,51.84L611.42,49.41L611.96,44.14L633.27,46.63L630.67,68.23L633.33,73.96L638.32,74.59L640.04,76.98L639.18,81.74L636.68,81.65L637.87,85.04L636.19,95.52L633.19,97.08L631.83,96L628.19,102.1L623.9,100.16L623.54,98.19L621.68,98.08L621.51,101.45L617.75,99.44L614.73,99.17L610.94,103.27L607.24,102.76L605.01,103.92L600.54,103.46L599.63,96.81L598.07,94.9L591.6,72.97L592.64,71.59L591.33,72.18z"/>
		<path id="C47161" title="Stewart" class="land" d="M382.56,45.38L384,54.34L366.6,54.24L360.84,58.66L351.58,61.15L345.97,60.94L341.55,60.1L334.18,56.71L329.13,56.85L328.85,56.37L328.02,55.73L327.69,55.66L321.32,45.14L318.15,41.84L318.88,31.71L318.89,31.71L319.28,31.2L320.01,30.49L320.83,29.38L321.06,28.78L321.13,28.09L321.06,27.53L321.14,27.04L321.34,26.67L321.59,25.76L321.82,24.09L321.63,22.15L321.38,20.4L320.81,18.46L320.59,16.48L320.03,13.18L318.53,8.35L318.55,7.44L318.35,6.59L318.13,6.1L317.31,4.78L316.77,3.22L316.44,0L320.08,0.02L324.74,0.19L344.48,2.29L347.66,2.53L347.15,7.87L362.47,7.36L369.61,7.2L377.11,7.03L377.11,7.03L382.44,44.17z"/>
		<path id="C47163" title="Sullivan" class="land" d="M1132.55,14.45L1139.75,14.44L1142.09,14.44L1142.22,14.44L1142.54,14.44L1142.79,14.43L1144.3,14.42L1144.37,14.44L1147.48,14.54L1148.58,14.58L1149.07,14.61L1149.53,14.64L1152.82,14.63L1153.12,14.62L1153.48,14.62L1183.42,14.71L1185.04,10.85L1198.59,11.2L1191.94,13.67L1191.76,15.75L1184.28,19.32L1183.76,22.07L1179.07,25.69L1176.4,29.75L1175.96,29.35L1174.41,32.48L1168.67,33.64L1163.07,38.62L1160.12,38.38L1158.95,40L1147.46,48.62L1141.27,46.54L1140.09,44.87L1138.53,45.18L1133.41,49.51L1131.75,49.31L1121.92,48.16L1119.44,50.02L1121.2,45.18L1116.39,44.1L1116.89,42.31L1114.62,40.44L1089.13,44.64L1087.98,43.52L1081.15,41.93L1077.94,43.14L1074.89,38.99L1085.56,32.01L1085.43,28.83L1087.9,27.83L1087.03,17.27L1089.34,17.67L1088.05,14.73L1094.84,14.61L1095.03,14.61L1095.8,14.59L1105.27,14.43L1106.48,14.47L1108.19,14.66L1132.15,14.45z"/>
		<path id="C47165" title="Sumner" class="land" d="M568.96,57.87L567.1,60.11L566.81,63.78L562.29,62.88L560.26,63.68L557.83,64.15L560.08,60.95L559.39,57.03L557.56,56.02L555.73,57.27L553.91,61.3L553.81,64.38L550.28,63.77L549.86,60.43L547.71,59.17L545.16,59.94L536.44,66.46L534.61,69.91L532.99,67.78L532.2,62.56L530.87,62.83L529.22,65.45L529.89,68.35L528.29,72.69L525.01,75.74L518.68,73.99L518.27,68.21L514.81,65.55L513.64,63.4L507.27,59.05L506.19,53.53L503.62,48.15L502.34,47.73L503.49,46.74L503.26,45.44L511.03,47.43L510.77,44.97L513.58,39.95L516.87,36.45L518.45,31.71L519.26,25.25L523.6,18.77L529.26,7.81L529.27,7.83L531.09,7.04L531.26,5.84L532.2,6L532.15,6.59L537.24,4.5L542.08,4.64L542.09,4.64L542.26,4.62L542.79,4.61L550.85,4.83L556,4.97L556.17,4.91L558.25,4.96L561.92,5.15L567.53,5.75L577.59,6.53L578.02,6.54L578.4,6.58L578.43,6.59L579.95,6.72L577.17,26.17L578.63,26.85L576.7,33.4L575.99,34.48L575.46,39.62L571,39.45L570.48,55.9z"/>
		<path id="C47167" title="Tipton" class="land" d="M19.96,218.58l4.07,-2.53l1.52,-0.94l0.89,-3.09L26.8,211l0.31,-0.53l0.56,-0.64l0.94,-0.77l0.84,0.01l0.43,-0.29l1.94,-0.04l0.69,0.34l1.13,1.05l0.62,0.78l0.09,0.24l-0.01,0.67l-0.58,1.83l-0.39,1.85l0,0.97l0.5,1.85l1.21,1.4l-1.03,1.19l2.08,3.23l0.02,-0.01l0.02,0.06l-1.06,0.53l-0.69,0.18l-1.17,0.17l-0.42,-0.06l-0.28,-0.13l-1.1,-0.96l-0.83,-0.43l-0.43,-0.33l-1.16,-1.07l-0.27,-0.32l-0.53,-0.91l-0.28,-0.27l-0.62,-0.27l-1.92,-0.35l-0.66,0.13l-0.39,0.25l-0.53,0.51l-0.25,0.33l-0.23,0.5l-0.16,0.74l0.05,0.76l0.34,1.29l1.13,1.89l-1.33,0.35l-3.01,-0.02l-0.87,-0.51l-0.84,-0.76l-0.13,-0.54l1.21,-4.29l0.01,-1.43L19.96,218.58zM95.72,226.52l-1.73,0.8l0.46,-2.61l-8.64,-0.47l0.06,-3.37l-4,1.29l-6.49,-0.7l-0.29,2.99l-7.16,-0.76l-8.46,0.23l-1.3,-0.2l-20.21,-0.79l-0.5,-0.12l-1.63,-1.12l1.42,-1.58l0.18,-0.43l0.15,-0.66l0.22,-0.35l0.29,-0.29l1.27,-0.82l0.04,-0.68l0.28,-0.63l0.27,-0.46l0.11,-0.38l-0.04,-0.82l0.04,-0.5l0.33,-1.12l0.31,-0.54l0.46,-1.29l-0.02,-0.52l-0.2,-0.42l-2.06,-1.8l-1.21,-2l-0.32,-0.73l-0.38,-1.35l-0.25,-1.89l0.17,-1.21l0.4,-1.27l0.21,-0.36l0.39,-1l0.31,-1.83l0.3,-0.4l0.66,-0.54l0.61,-0.31l0.67,-0.19l0.93,0.06l0.85,-0.54l0.42,-0.17l1.31,-0.19l0.85,0.07l0.51,0.13l1.84,1.07l2.52,2.1l0.25,0.4l0.15,0.84l-0.02,0.23l-0.28,0.53l0,0.51l0.19,0.28l0.72,0.64l0.46,0.31l0.42,0.12l1.61,0.15l1.48,0.71l0.54,0.1l0.56,-0.22l0.49,-0.4l0.41,-0.54l0.19,-0.41l0.53,-1.94l-0.07,-0.26l-0.17,-0.19l-0.46,-0.22l-0.05,-0.02l3.01,-5.04l0.6,-2.41l1.5,-0.44l1.12,-0.7l0.85,-0.22l1.24,-1.05l0.75,-1.22l0.89,-0.05l1.2,-0.23l0.74,-0.93l0.21,-0.88l1.07,-1.17l0.9,-0.09l0.48,-0.51l1.61,-1.4l-0.05,-0.72l1.12,0.13l0.96,-0.04l1.26,-0.78l1,-0.6l0.93,-0.48l0.97,-0.09l0.92,0.27l1.19,0.28l1.17,0.09l0.16,0.93l0.76,-0.32l0.95,0.22l1.55,-0.52l0.9,0.01l0.73,0.3l0.66,0.55l0.74,-0.27l0.66,0.17l0.97,0.43l0.98,0.1l0.71,0.01l0.68,-0.33l0.08,-0.99l0.41,-0.62l0.94,-0.07l0.84,0.05l0.63,-0.32l1.07,-0.49l0.68,0.3l0.47,0.6l0.5,0.7l0.1,0.78l0.67,0.36l0.45,0.8l0.34,0.74l0.39,-0.51l0.65,-0.07l1.26,0.59l0.63,1.18l0.9,0.16l1.02,0.63l0.73,0.2l0.65,0.41l0.48,0.6l0.75,0.21l0.8,-0.16l0.66,0.47l1.18,1.24l0.73,0.06l0.38,0.5l0.65,0.27l0.54,0.63l0.92,1.3l0.95,0.1l3.49,3.22l-0.75,2.66l1.81,0.01l-0.61,24.79l-9.38,-0.3l-8.2,1.76L95.72,226.52z"/>
		<path id="C47169" title="Trousdale" class="land" d="M589.65,66.88L584.3,61.27L582.94,62.79L579.79,58.71L574.44,59.8L574.02,64.15L570.45,64.89L571.59,61.22L568.96,57.87L570.48,55.9L571,39.45L575.46,39.62L575.99,34.48L576.7,33.4L576.66,33.58L582.12,34.23L585.2,40.95L611.96,44.14L611.42,49.41L603.88,51.84L597.55,56.49L593.33,62.06L591.15,67.19z"/>
		<path id="C47171" title="Unicoi" class="land" d="M1109.03,117.06L1108.48,117.29L1107.12,118.4L1105.97,118.8L1105.8,119.07L1105.78,119.49L1105.64,119.66L1105.25,119.88L1105.24,119.89L1103.44,121.45L1102.71,122.3L1102.47,122.34L1101.69,122.65L1101.15,122.6L1100.55,122.83L1100.26,123.04L1099.05,123.26L1098.56,123.66L1097.92,123.79L1097.47,123.98L1096.45,124.63L1095.96,125.27L1095.29,126.43L1093.93,126.15L1092.85,125.66L1092.64,125.5L1092.49,124.65L1092.03,124.41L1090.48,124.26L1090.07,124.45L1089.29,124.57L1088.25,124.33L1087.8,124.09L1087.7,123.39L1087.8,122.86L1088.39,121.13L1088.74,120.63L1088.36,119.78L1087.56,119.55L1087.5,119.46L1087.21,118.37L1087.31,117.81L1087.38,117.6L1087.67,117.34L1088.73,115.26L1089.33,114.64L1089.97,113.9L1090.07,113.27L1089.88,112.88L1089.51,112.48L1089.24,111.91L1088.94,111.49L1092.56,104.79L1090.04,101.68L1099.57,92.5L1114.67,90.01L1115.25,87.23L1117.41,84.51L1122.03,81.49L1123.72,78.28L1123.52,76.47L1126.01,74.39L1128.96,73.03L1133.91,74.53L1137.89,77.81L1136.25,81.88L1139.15,82.42L1141.77,85.26L1142.74,91.11L1142.57,91.48L1142.34,92.31L1141.86,92.9L1140.94,93.76L1140.84,93.93L1140.71,94.07L1140.52,94.2L1139.99,94.56L1139.73,95.05L1139.57,95.32L1139.14,95.65L1138.53,95.41L1138.33,95.15L1137.9,95.12L1137.33,95.15L1136.91,95.78L1136.58,96.21L1136.14,96.31L1135.83,96.22L1135.39,95.9L1134.74,96.06L1134.5,96.01L1133.36,94.86L1133.22,94.8L1132.06,95.19L1131.32,95.57L1130.7,96.06L1130.5,96.41L1129.16,97.38L1128.7,97.62L1128.17,97.65L1127.61,97.99L1127.17,98.07L1126.53,98.43L1125.11,98.38L1124.89,98.25L1124.67,98.04L1123.93,98.31L1123.2,99L1123.12,99.18L1122.32,99.69L1121.64,99.91L1121.05,100.05L1120.6,100.53L1120.36,101.14L1119.02,101.56L1116.97,103.18L1116.26,103.91L1115.24,105.77z"/>
		<path id="C47173" title="Union" class="land" d="M904.88,45.2L907.83,44.97L911.15,42.63L915.1,45.26L919.04,42.46L920.49,46.37L924.82,48.91L927.79,54L929.31,58.29L932.36,58.1L934.44,54.71L938.53,58.41L935.47,66.86L935.41,69.81L933.55,70.84L933.29,74.85L934.85,77.07L933.89,82.39L929.92,86.73L931.85,88.17L929.31,89.78L902.46,88.94L899.78,85.98L895.9,81.84L891.85,74.91L890.93,71.33L891.64,69.41L894.23,68.78L895.22,66.46L896.01,56.63L898.62,53.94L897.43,52.19L898.31,48.63L902.56,50.86L905.29,47.75z"/>
		<path id="C47175" title="Van Buren" class="land" d="M671.49,199.38L666.25,184.7L664.76,169.01L666.52,164.47L666.61,161.04L663.35,159.9L665.08,159.46L664.37,158.11L665.08,154.02L665.34,152.02L666.77,152.94L669.51,152.01L672.07,153.86L673.08,152.79L676.82,154.52L675.86,151.89L677.84,150.55L679.7,152.02L683.26,149.22L690.86,150.72L699.08,153.71L712.81,149.34L711.06,151.51L712.2,154.3L715.25,155.46L714.37,159.11L712.69,162.42L712.05,162.33L712.77,166.8L707.83,173.38L690.38,193.43L685.29,196.98L680.22,196.85z"/>
		<path id="C47177" title="Warren" class="land" d="M671.49,199.38L664.46,199.61L650.9,200.13L643.77,200.91L634.78,202.75L634.36,204.29L626.78,200.08L626.36,200.92L625.58,198.34L622.46,197.94L616.3,192.39L615.42,188.79L616.47,188.42L611.09,177.39L610.84,169.8L609.34,168.41L610.44,168.52L611.11,164.5L621.15,149.25L625.14,147.85L625.2,146.27L638.85,144.13L638.99,145.69L644.04,144.47L653.89,147.73L655.4,149.56L659.6,150.25L665.08,154.02L664.37,158.11L665.08,159.46L663.35,159.9L666.61,161.04L666.52,164.47L664.76,169.01L666.25,184.7z"/>
		<path id="C47179" title="Washington" class="land" d="M1077.94,43.14L1081.15,41.93L1087.98,43.52L1089.13,44.64L1114.62,40.44L1116.89,42.31L1116.39,44.1L1121.2,45.18L1119.44,50.02L1121.92,48.16L1131.75,49.31L1131.73,53.74L1126.01,74.39L1123.52,76.47L1123.72,78.28L1122.03,81.49L1117.41,84.51L1115.25,87.23L1114.67,90.01L1099.57,92.5L1090.04,101.68L1085.64,96.37L1083.58,92.82L1082.59,92.94L1084.85,45.41L1074.85,46.87z"/>
		<path id="C47181" title="Wayne" class="land" d="M366.31,207.96L370.8,209.78L376.44,209.79L376.35,215.09L381.89,216.1L383.32,220.32L386.4,222.61L385.9,259.06L386.53,262.91L384.28,266.66L384.5,281.16L386.77,282.77L385.94,285.21L382.11,285.04L381.24,287.93L382.05,290.57L379.39,290.56L373.86,290.59L372.83,290.59L369.24,290.54L368.72,290.51L368.47,290.52L367.45,290.5L360.47,290.39L359.24,290.38L358.4,290.35L347.33,290.23L347.12,290.24L347.1,290.25L344.4,290.24L343.68,290.25L343.65,290.26L328.54,290.19L329.01,240.34L323.93,239.67L325.72,230.81L322.92,227.59L322.91,223.67L328.59,223.71L329.91,219.9L325.32,218.31L324.63,217.76L327.98,213.08L333.18,212.31L336.01,211L339.72,211.57L345.5,209.23L346.4,211.05L350.79,210.28L354.16,207.68L364.02,206.52z"/>
		<path id="C47183" title="Weakley" class="land" d="M209.56,30.71L211.01,30.71L213.44,30.72L220.8,30.71L225.35,30.74L233,30.81L244.85,30.87L249.38,30.89L253.45,30.96L253.46,30.96L251.48,92.04L251.21,98.34L233.8,98L234.03,107.24L228.54,107.51L220.47,102.32L219.8,99.7L207.6,96.93L204.39,94.44L200.02,87.64L194.58,84.55L190.8,79.62L192.31,46.87L201.24,49.94L206.87,46.41L211.06,46.82L211.4,36.31L209.52,30.71z"/>
		<path id="C47185" title="White" class="land" d="M665.08,154.02L659.6,150.25L655.4,149.56L653.89,147.73L657.88,148.31L660.91,144.93L655.33,144.28L655.2,143.34L660.39,138.61L659.76,137.59L655.86,138.63L658.85,135.42L657.19,132.97L657.8,131.16L656.64,127.28L656.6,123.38L658.96,120.37L659.19,115.8L659.38,114.21L663.92,110.41L667.09,111.38L668.48,107.4L678.51,104.15L706.55,112.93L706.28,119.64L712.93,122.05L715.97,133.53L720.15,133.99L719.95,135.98L717.54,136.98L718.82,139.73L716.16,151.5L715.16,153.37L712.2,154.3L711.06,151.51L712.81,149.34L699.08,153.71L690.86,150.72L683.26,149.22L679.7,152.02L677.84,150.55L675.86,151.89L676.82,154.52L673.08,152.79L672.07,153.86L669.51,152.01L666.77,152.94L665.34,152.02z"/>
		<path id="C47187" title="Williamson" class="land" d="M512.03,119.45L521.54,123.95L520.68,126.43L522.09,128.21L520.39,133.17L522.26,138.62L521.74,142.02L524.15,143.92L523.72,146.44L520.53,148.55L522.54,148.89L522.32,154.83L517.56,153.92L515.33,154.72L515.55,158.8L514.13,158.05L512.65,161.81L510.52,161.42L510.18,167.39L512.03,168.74L505.68,169.31L505.22,170.68L498.49,169.34L494.27,166.94L476.41,159.74L477.81,156.96L474.25,156.29L472.99,156.12L473.26,157.43L472.66,158.03L437.3,144.36L438.72,133.25L439.14,129.53L438.84,125.52L441.9,109.77L447.58,110.07L452.7,110.57L455.64,110.81L460.05,110.5L461.98,120.29L463.78,120.26L477.7,109.25L486.77,110.65L497.76,112.16L511.22,119.36L511.81,119.23z"/>
		<path id="C47189" title="Wilson" class="land" d="M550.03,111.2L536.13,100.92L533.93,98.93L534.72,94.31L530.35,94.88L525.01,75.74L528.29,72.69L529.89,68.35L529.22,65.45L530.87,62.83L532.2,62.56L532.99,67.78L534.61,69.91L536.44,66.46L545.16,59.94L547.71,59.17L549.86,60.43L550.28,63.77L553.81,64.38L553.91,61.3L555.73,57.27L557.56,56.02L559.39,57.03L560.08,60.95L557.83,64.15L560.26,63.68L562.29,62.88L566.81,63.78L567.1,60.11L568.96,57.87L571.59,61.22L570.45,64.89L574.02,64.15L574.44,59.8L579.79,58.71L582.94,62.79L584.3,61.27L589.65,66.88L591.33,72.18L592.64,71.59L591.6,72.97L598.07,94.9L599.63,96.81L600.54,103.46L603.92,112.96L603.22,116.9L605.23,118.67L606.88,125.19L597.19,124.51L587.33,126.35L586.22,124.82L584.89,125.85L582.71,124.99L573.41,125.18L573.57,124.04L565.13,122.15L557.42,116.58L555.71,116.33L553.15,113.02z"/>
	</g>
</svg>