<?xml version="1.0" encoding="utf-8"?>
<!-- (c) ammap.com | SVG map of VT Counties -->
<svg xmlns="http://www.w3.org/2000/svg" xmlns:amcharts="http://amcharts.com/ammap" xmlns:xlink="http://www.w3.org/1999/xlink" version="1.1">
	<defs>
		<style type="text/css">
			.land
			{
				fill: #CCCCCC;
				fill-opacity: 1;
				stroke:white;
				stroke-opacity: 1;
				stroke-width:0.5;
			}
		</style>

		<amcharts:ammap projection="mercator" leftLongitude="-73.437860" topLatitude="45.016714" rightLongitude="-71.464370" bottomLatitude="42.726793"></amcharts:ammap>

		<!-- All areas are listed in the line below. You can use this list in your script. -->
		<!--{id:"C50001"},{id:"C50003"},{id:"C50005"},{id:"C50007"},{id:"C50009"},{id:"C50011"},{id:"C50013"},{id:"C50015"},{id:"C50017"},{id:"C50019"},{id:"C50021"},{id:"C50023"},{id:"C50025"},{id:"C50027"}-->

	</defs>
	<g>
		<path id="C50001" title="Addison" class="land" d="M249.92,569.73L242.7,583.52L240.25,582.6L221.32,623.32L217.89,622.03L216.97,601.34L187.38,616.26L176.91,612.13L185.15,642.08L162.65,653.65L157.67,631.3L108.86,633.65L109.09,635.07L84.59,636.33L89.47,673.98L28.92,681.23L32.15,675.37L33.65,672.01L33.69,671.22L32.08,668.67L31.78,667.74L31,663.75L29.09,661.47L26.89,659.8L23.73,656.91L23.39,655.95L22.99,653.05L22.6,651.77L22.58,651.72L22.01,650.4L21.06,649.14L18.34,646.97L17.49,645.15L17.39,644.4L18.38,640.57L19.08,638.95L21.6,636.32L23.64,635.23L24.76,633.49L25.32,632.04L25.24,631.54L24.74,630.78L21.94,628.14L21.53,626.87L21.74,624.61L22.58,621.72L24.59,616.63L24.62,615.89L23.75,613.36L20.97,607.66L16.19,601.19L15.65,599.79L14.23,593.71L11.6,586.84L11.27,585.21L12.46,576.71L11.95,566.81L10.24,562.38L9.71,560.03L9.73,558.56L10.25,556.7L12.28,543.16L12.27,540.61L11.6,537.89L10.42,534.87L9.04,533.49L6.8,532.16L5.65,531.76L3.77,529.1L2.69,528.55L0.33,526.49L0,525.19L2.22,515.31L2.91,510.87L3.29,506.74L8.28,496.01L10.22,488.89L10.06,486.29L9.27,481.71L8.49,478.78L8.5,478.08L10.06,475.4L11.45,474.57L13.33,471.93L13.67,471.09L14.73,466L15.08,462.29L16.32,460.21L16.37,459.79L15.88,458.75L15.6,457.27L15.79,456.06L16.19,455.02L18.31,453.03L18.59,452.08L18.15,447.88L18.23,446.9L19.04,446.13L20.26,445.98L20.78,445.68L21.45,443.52L23.22,442.3L24.14,442.08L25.26,440.84L25.93,439.56L29.28,437.41L29.49,436.43L30.86,433.3L31.88,431.49L31.89,429.71L32.09,429.32L33.61,428.06L33.96,425.69L36.89,423.44L36.54,421.55L39.03,420.74L40.09,419.98L41.46,418.21L41.92,418.08L43.71,418.56L44.13,418.4L45.6,415.36L46.83,410.94L48.06,407.48L64.71,409.68L93.15,406.17L142.57,396.79L142.78,398.93L162.85,396.11L161.35,386.2L179.35,391.69L187.73,462.81L194.65,461.55L201.42,510.78L209.1,509.83L268.87,533.42L267.84,535.61z"/>
		<path id="C50003" title="Bennington" class="land" d="M239.08,945.58L228.04,941.88L219.99,1020.78L170.42,1017.68L166.12,1117.25L199.64,1118.98L196.2,1217.54L160.39,1216.51L66.8,1213.99L62.37,1213.95L56.75,1184.61L58.54,1181.4L59.54,1178.34L58.25,1175.04L58.9,1167.71L59.32,1167.26L61.5,1168.07L62.61,1134.52L63.13,1111.84L63.15,1110.73L63.19,1110.11L64.94,1061.51L66.56,1029.72L69.21,959.12L70.07,943.59L70.84,914.26L133.15,918.27L174.6,919.47L172.61,926.45L178.46,926.45L178.55,919.68L220.31,921.64L238.87,922.45z"/>
		<path id="C50005" title="Caledonia" class="land" d="M413.45,439.82L433.58,402.97L433.07,389.08L452.42,364.65L469.12,336.63L470.64,322.9L467.47,323.84L469.38,321.08L387.95,277.06L410.96,234.88L454.2,257.48L499.19,170.24L521.51,180.96L511.6,145.22L551.03,172.77L579.09,134.69L618.77,163.11L590.55,200.83L616.67,220.25L591.18,254.92L611.29,282.42L593.16,304.94L581.66,312.12L618.64,362.48L616.06,364.41L612.84,366.2L609.24,366.62L606.16,368.31L605.17,368.49L603.86,368.09L601.53,366.56L593.63,362.63L591.86,362.21L587.79,363.15L584.83,365.58L583.27,367.98L580.84,368.95L579.43,368.91L577.07,367.89L572.06,368L570.12,368.53L563.17,368.02L561.81,368.7L561.09,371.4L560.39,372.19L554.97,374.82L552.01,376.4L550.24,376.89L548.47,377.24L545.9,376.34L544.63,376.15L543.05,377.25L542.79,378.87L543.36,379.73L543.37,384.62L543.28,386.2L542.93,387.2L541.55,389.38L540.79,390.12L537.96,392.53L535.24,393.33L533.1,395.62L530.57,400.47L529.66,403.84L530.17,405.26L530.91,405.44L532.34,404.38L533.16,404.36L533.26,405.5L533.07,406.56L532.73,407.06L532.52,407.08L532.21,407.92L532.75,411.88L534.99,416.77L536.49,418.32L537.13,419.85L537.35,421.31L536.28,423.95L535.15,428.01L535.03,429.8L535.5,431.88L535.28,432.93L533.21,437.59L533.42,438.74L533.06,440.87L532.64,441.76L531.29,442.83L530.9,443.64L530.28,447.5L532.15,450.09L533.64,453.05L535.37,459.25L537.46,462.53L539.48,463.06L540.12,464.59L539.07,465.26L490.04,446.27L437.95,451.06z"/>
		<path id="C50007" title="Chittenden" class="land" d="M198.58,208.4L203.78,209.54L235.33,252.11L242.95,254.46L234.67,271.48L245.19,277.02L231.63,302.38L244.63,306.45L231.44,332.52L244.84,339.47L236.47,356.33L225.07,352.91L203.5,398.03L209.46,400.98L187.73,462.81L179.35,391.69L161.35,386.2L162.85,396.11L142.78,398.93L142.57,396.79L93.15,406.17L64.71,409.68L48.06,407.48L48.28,406.87L48.99,402.08L48.5,398.97L46.74,394.85L44.64,387.4L43.89,382.82L43.76,377.85L44.04,374.53L43.98,369.99L43.54,367.46L42.69,364.32L39.86,357.58L39.75,353.5L40.27,349.27L41.51,347.28L45.15,343.68L46.67,341.89L47.45,340.53L48.45,337.19L49.2,332.93L54.79,319.05L55.63,314.07L55.72,312.45L55.1,309.58L53.21,304.81L53.75,299.82L53.66,295.86L53.3,292.97L51.54,288.06L51.35,284.57L50.66,280.18L48.28,276.44L45.8,273.9L45.2,272.99L44.97,271.47L45.09,269.63L44.74,266.69L44,265.71L42.23,264.97L41.86,264.58L41.43,263.59L41.31,261.84L41.04,260.95L38.18,256.96L38.06,256.32L38.32,255.04L38.32,255.04L38.27,254.39L36.65,252.31L33.91,250.42L31.92,249.6L31.3,249.06L30.02,246.55L29.48,246.03L55.65,237.98L70.91,222.59L71.52,204.07L79.08,199.34L80.76,159.73L154.54,198.6L165.19,200.96L165.96,200.65z"/>
		<path id="C50009" title="Essex" class="land" d="M595.43,4.6L645.77,2.85L674.98,2.86L706.71,2.15L725.76,2.24L748.22,1.79L762.88,1.65L762.23,2.56L759.51,3.31L758.39,4.14L757.72,5.02L757.06,7.5L753.98,8.57L750.18,6.97L748.77,5.4L747.24,4.64L746.17,4.63L743.53,6.92L741.44,7.83L739.51,8.05L737.54,9.27L734.88,12.25L734.26,15.52L734.57,17.63L736.96,22.14L738.68,23.42L740.53,27.43L742.91,28.38L743.44,31.55L742.68,37.63L743.19,39.84L742.94,41.3L742.62,41.92L743.3,48.66L745.62,50.78L747.44,53.15L748.87,55.62L751.34,57.08L751.53,57.58L750.78,60.82L750.35,61.23L749.36,60.93L748.76,61.11L748.22,62.04L745.84,64.77L743.81,66.44L743.63,66.81L743.73,67.25L744.65,68.11L744.42,68.83L740.52,73.96L738.88,74.89L738.22,75.59L738.01,76.07L737.91,77.9L735.8,80L733.67,80.59L731.43,81.94L730.03,83.87L729.78,84.4L729.73,85.52L730.47,86.9L730.49,87.71L728.43,89.56L727.68,90.41L727.21,91.36L727.24,92.42L727.9,93.03L728.82,95.03L729.07,96.58L728.99,97.35L728.41,98.28L726.88,99.18L725.11,104.5L724.55,104.89L724.14,104.89L723.99,104.47L722.92,104.93L720.45,108.06L719.99,109.15L720.13,110.51L721.01,112.24L722.42,113.09L722.46,114.05L721.96,115.01L720.9,118.99L721.45,120.68L720.86,122.28L718.66,125.44L718.25,125.76L716.55,125.62L713.23,127.23L711.69,129.28L711.8,130.14L712.09,130.76L712.05,131.22L709.95,133.04L708.73,135.39L707.33,136.52L705.97,137.23L705,139.25L705.01,140.31L703.58,141.82L701.27,142.23L698.43,143.25L698.19,143.68L698.16,144.83L698.49,145.73L700.11,146.52L700.78,148.28L700.83,152.01L700.6,153.12L700.61,155.69L700.88,156.39L701.52,157.06L701.78,157.07L703.14,156.25L703.69,156.45L703.78,156.92L703.36,159.17L703.42,159.87L705.45,161.87L708.62,167.71L710.61,169.25L710.82,170.03L710.22,171.69L710.22,172.18L710.45,172.72L711.04,173.21L712.78,173.79L712.7,174.3L711.73,174.88L711.27,176.02L711.89,179.14L712.75,180.9L712.58,182.08L711.91,183.15L711.94,183.47L714.37,185.39L715.4,185.72L717.08,185.77L717.48,186.47L717.27,187.17L716.52,188.27L716.07,188.78L716.07,189.67L716.48,190.91L716.22,191.9L715.7,193.2L715.7,194.09L716.37,194.99L717.1,195.64L719.79,196.14L719.91,196.75L719.67,197.5L719.76,198.13L720.13,198.89L721.28,199.02L722.02,198.96L722.63,198.39L723.02,197.29L723.6,197.13L724.27,197.69L725.29,199.1L726.53,202.27L726.74,203.67L726.42,204.57L724.96,204.91L724.96,206.12L725.16,206.49L728.05,208.86L729.18,211.35L728.63,211.87L728.34,212.54L728.04,212.55L727.62,213.24L727.31,217.1L728.26,221.11L728.35,222.47L727.98,223.49L727.61,224.41L727.52,225.54L728.13,227.15L728.06,228.57L728.51,229.84L730.13,229.99L733.48,231.46L735.16,232.55L734.59,234.52L733.67,235.75L731.81,237.5L730.83,237.9L730.13,237.56L729.4,236.89L728.61,236.74L728.42,237.31L728.39,237.97L728.57,238.78L730.25,240.85L730.34,241.51L729.98,242.14L729.2,242.71L728.83,242.77L727.33,242.1L726.76,242.28L726.37,243.18L726.54,244.92L726.04,245.7L724.67,246.19L722.27,246.43L719.98,245.35L714.32,244.85L713.57,245.16L712.87,245.87L712.01,247.44L711.37,249.46L711.24,250.41L711.75,251.49L715.13,254.5L720.11,258.28L720.92,259.84L720.95,260.74L720.39,262.17L719.45,263.97L717.28,267.17L716.03,268.11L715.5,268.24L713.28,267.93L712.74,268.65L712.85,269.69L713.56,270.76L715.58,272.44L715.95,273.1L716.33,274.88L717,275.89L719.11,277.72L719.38,278.18L719.16,278.91L718.73,279.32L718.26,279.4L716.75,278.62L715.68,278.81L715.97,280.33L715.55,281.16L714.53,281.16L714.53,280.7L714.28,280.33L713.64,279.83L712.72,279.95L712.44,281.08L712.26,283.37L711.32,286.64L710.72,287.68L706.82,288.81L704.36,287.95L703.71,288.08L702.93,288.78L701.97,290.41L700.84,290.2L700.59,289.43L699.82,288.89L698.53,288.83L697.84,289.06L695.32,292.33L693.85,292.97L692.77,293.79L692.08,294.87L691.89,295.47L692.01,296.57L692.52,297.17L694.72,298.76L694.89,299.7L693.95,301.02L693.09,301.67L690.29,301.36L689.89,301.69L688.36,305.2L687.7,310.09L686.61,312.6L685.7,313.65L683.86,314.63L680.6,315.07L679.87,315.44L679.61,315.96L679.91,316.98L679.6,319.28L677.32,321.71L675.36,322.88L672.07,325.67L668.74,327.87L666.02,328.68L661.72,328.19L659.67,328.39L657.96,328.91L657.22,329.52L656.42,330.68L655.5,333.06L655.19,333.44L654.45,333.6L652.7,333.28L650.84,331.33L650.17,330.88L647.9,330.54L646.83,330.76L646.73,330.78L645.61,331.4L643.71,332.66L642.7,333.73L641.46,334.44L636.79,334.19L635.54,334.73L632.28,337.9L631.84,338.71L631.84,339.52L633.23,341.91L633.07,342.81L631.85,343.32L629.78,343.04L628.11,343.61L627.63,344.08L627.09,347.56L627.29,348.03L628.39,349.14L628.46,349.7L628.23,350.27L627.2,351.14L626.94,351.82L627.39,353.91L628.37,356.72L628.47,357.32L628.2,358.3L627.64,358.84L625.91,359.7L623.04,360.21L620.33,361.21L618.64,362.48L581.66,312.12L593.16,304.94L611.29,282.42L591.18,254.92L616.67,220.25L590.55,200.83L618.77,163.11L579.09,134.69L565.79,125.19L604.41,76.37L583.5,59.55z"/>
		<path id="C50011" title="Franklin" class="land" d="M95.04,1.66L136,0.63L136.39,1.04L144.07,1.02L146.16,0.43L148.97,0.51L150.53,1.02L163.23,0.87L163.53,0.92L181.6,1.4L193.81,1.3L193.84,1.09L196.07,0.82L228.92,0L255.34,0.43L294.98,0.65L327.8,1.87L329.01,2.06L330.71,2.79L340.94,4.55L341.54,4.57L348.75,49.5L347.57,49.59L349.93,99.76L332.33,127.88L319.21,117.01L266.92,125.38L263.4,136.09L259.31,136.13L257.56,150.3L253.12,150.28L248.3,176.36L226.82,166.13L211.41,195.46L206.84,201.29L197.43,201.93L198.58,208.4L165.96,200.65L165.19,200.96L154.54,198.6L80.76,159.73L70.14,139.89L69.09,133.63L75.72,115.5L88.49,105.13L89.12,93.3L93.24,77.1L95.12,59.83L81.76,52.91L76.07,36.55z"/>
		<path id="C50013" title="Grand Isle" class="land" d="M36.58,3.17L72.85,2.44L76.04,2.13L95.04,1.66L76.07,36.55L81.76,52.91L95.12,59.83L93.24,77.1L89.12,93.3L88.49,105.13L75.72,115.5L69.09,133.63L70.14,139.89L80.76,159.73L79.08,199.34L71.52,204.07L70.91,222.59L55.65,237.98L29.48,246.03L27.24,243.85L24.49,239.57L24,236.01L23.18,234.34L21.61,232.07L21.69,231.39L23.14,229.62L23.56,228.75L23.74,227.8L23.54,226.51L22.04,223.46L21.19,219.7L18.53,216.98L18.37,216.36L18.47,215.67L19.48,213.48L19.81,211.72L20.04,209.49L19.55,207.05L19.7,206.6L22.42,204.44L22.88,203.84L21.1,201.52L23.11,197.64L23.09,197.14L22.72,196.42L22.68,195.55L24.59,192.54L25.01,192.34L25.96,192.44L26.32,191.92L26.16,190.52L25.14,189.07L25.48,184.62L25.77,184.31L27.27,183.78L27.19,182.27L26.31,180.93L26.13,180.34L28.01,178.88L29.55,175.1L29.54,174.64L27.91,171.97L28.1,158.23L27.91,149.47L28.59,147.59L30.96,144.46L32.24,142.14L34.43,135.11L35.05,132.54L36.14,130.75L39.45,127.6L40.2,125.92L40.44,123.98L40.13,118.31L39.94,116.69L39.55,115.38L33.84,108.97L32.58,106.8L32.01,106.2L30.8,105.21L27.86,103.51L26.33,102.05L25.68,101.18L24.12,98.15L22.82,97.58L22.54,97.23L21.8,93.42L21.78,91.36L22.39,86.89L23.98,84.87L25.43,83.96L26.54,81.64L27.56,77.1L29.19,68.17L29.93,65.03L30.8,62.8L31.52,61.08L32.51,59.53L34.76,57.37L37.36,55.56L38.18,53.91L38.38,50.41L37.94,39.92L38.6,30.57L38.47,28.28L38.28,27.66L35.96,25.17L33.84,22.03L32.81,19.63L32.33,17.76L32.13,15.97L32.6,14.44L33.85,12.18z"/>
		<path id="C50015" title="Lamoille" class="land" d="M387.95,277.06L366.21,320.47L361.09,318.67L325.13,291.54L302.86,335.29L259.77,311.35L244.63,306.45L231.63,302.38L245.19,277.02L234.67,271.48L242.95,254.46L235.33,252.11L203.78,209.54L198.58,208.4L197.43,201.93L206.84,201.29L211.41,195.46L226.82,166.13L248.3,176.36L253.12,150.28L257.56,150.3L259.31,136.13L263.4,136.09L266.92,125.38L319.21,117.01L332.33,127.88L394.52,159.72L369.49,207.99L413.53,230.47L410.96,234.88z"/>
		<path id="C50017" title="Orange" class="land" d="M413.45,439.82L437.95,451.06L490.04,446.27L539.07,465.26L540.12,464.59L540.34,465.09L540.37,465.78L539.35,467.65L539.29,468.17L539.63,475.76L541.23,477.57L542.63,478.25L542.83,478.77L541.36,482.44L540.85,482.49L540.12,481.93L539.65,481.94L537.91,482.87L535.63,485.03L534.73,489.18L534.67,490.26L535.61,495.12L536.15,496.32L537.18,497.36L538.5,497.63L539.05,497.31L539.26,496.97L539.4,495.3L540.05,494.26L540.53,493.89L541.61,494.03L543.11,494.81L543.79,495.65L543.87,496.79L543.54,499.26L543.15,500.29L542.61,500.99L541.83,501.48L540.4,501.73L537.99,501.31L537.43,501.67L537.01,502.6L537.58,503.54L540.48,505.75L542.82,507.06L543.49,507.95L543.53,508.45L542.93,509.36L541.7,509.65L540.76,509.37L540.05,508.22L539.59,508.03L536.08,508.67L535.92,509.01L536.09,509.73L537.09,511.06L537.2,512.26L535.19,514.62L534.08,517.38L533.76,517.88L533.11,518.27L530.57,518.04L529.72,518.21L529.13,519.93L529.42,520.36L531.62,521.65L531.84,522.55L530.19,522.89L526.92,524.72L525.95,525.42L525.33,526.33L525.09,527.11L525.17,528.13L526.68,530.76L526.87,531.74L526.62,532.35L524.94,533.36L524.41,534.02L524.21,534.87L524.29,536.64L524,537.44L523.05,537.89L520.88,536.29L520.28,536.2L519.5,536.89L519.1,537.61L518.88,538.76L519.06,540.38L520.88,542.49L521.14,543.27L521.05,544L520.59,544.42L519.81,544.29L519.76,543.71L519.04,542.03L517.63,541.02L516.25,541.34L515.16,542.52L515.29,544.28L515.82,547.04L515.75,547.79L513.72,549.02L510.64,552.26L510.74,553.62L512.25,555.72L512.66,557.37L512.37,562.34L512.15,563.88L511.52,565.65L511.51,566.26L511.68,566.7L512.97,567L514.48,565.63L515.28,565.4L518.69,566.37L520.64,567.28L520.99,567.61L520.93,567.83L517.76,568.67L516.99,569.4L516.86,570.27L517.61,571.32L517.71,571.98L515.49,575.79L514.93,576.41L513,577.33L511.3,577.35L510.31,577.77L509.97,578.56L509.86,579.7L510.72,583.95L510.72,584.68L510.24,590.37L509.78,591.62L509.08,592.69L503.63,597.46L499.79,600L497.36,601.91L495.66,604.36L494.55,606.69L494.31,609.07L493.69,609.65L491.21,610.25L489.91,610.1L489.5,610.65L489.06,611.53L488.76,613.69L489.4,615.57L490.22,617.03L491.12,619.31L488.29,620.79L486.51,620.9L485.13,621.35L484.42,622.39L483.21,626.27L483.42,627.62L485.17,632.16L485.42,638.08L484.98,639.86L483.86,641.87L483.08,644.03L482.96,644.95L483.79,647.78L484.66,649.56L484.98,651.88L484.4,653.74L482.12,655.82L481.18,659.08L480.26,660.79L479.69,661.58L476.97,663.67L476.49,664.53L476.41,665.71L476.7,671.58L476.53,671.75L425.4,651.07L377.97,635.8L283.87,597.82L253.06,587.33L254.64,584.32L252.5,583.49L249.92,569.73L267.84,535.61L268.87,533.42L291.5,542.38L310.44,501.36L312.71,501.8L328.01,463.34L337.81,466.92L339.48,461.96L384.58,480.32L393.58,430.73z"/>
		<path id="C50019" title="Orleans" class="land" d="M595.43,4.6L583.5,59.55L604.41,76.37L565.79,125.19L579.09,134.69L551.03,172.77L511.6,145.22L521.51,180.96L499.19,170.24L454.2,257.48L410.96,234.88L413.53,230.47L369.49,207.99L394.52,159.72L332.33,127.88L349.93,99.76L347.57,49.59L348.75,49.5L341.54,4.57L349.99,4.8L369.89,4.25L382.32,4.43L400.71,5.49L421.09,6.01L435.98,7L443.02,6.63L451.14,6.8L493.81,5.71L516.02,6.03L535.7,5.61L542.87,4.24L544.37,5.38L546.86,5.38L561.01,4.79L576.28,4.52L588.72,4.83z"/>
		<path id="C50021" title="Rutland" class="land" d="M185.15,642.08L217.84,625.23L218.2,635.08L232.03,640.67L234.54,635.41L250.22,643.59L253.21,653.93L239.37,684.9L244.22,686.96L238.82,700.61L284.86,718.73L262.8,769.47L257.07,767.31L250.02,818.64L258.05,820.32L257.57,827.74L274.72,832.59L275.95,836.32L270.81,857.5L262.6,878.62L262.11,893.35L236.55,879.5L225.9,884.38L220.31,921.64L178.55,919.68L178.46,926.45L172.61,926.45L174.6,919.47L133.15,918.27L70.84,914.26L71.39,893.05L71.49,888.4L71.55,884.8L71.59,884.42L73.2,831.68L73.72,808.06L73.85,805.96L73.5,805.76L73.47,803.67L73.81,802.29L75.15,801.25L75.72,800.35L75.91,798.8L75.84,797.4L75.66,797.43L73.91,793.75L73.43,793.24L72.53,792.91L72.43,789.19L73.2,788.05L73.11,787.37L71.58,785.77L69.25,781.47L67.13,779.38L65.09,777.73L61.09,776.53L60.62,775.91L60.48,774.75L59.09,773.85L55.75,774.25L55.33,774.01L55.05,773.34L55.4,772.14L56.3,771.07L56.21,770.75L54.44,769.57L55.87,766.79L56.04,766.09L56.27,763.81L56.26,761.47L55.67,760.06L54.02,757.49L53.14,757.08L52.45,749.86L52.27,749.15L51.66,748.43L50.84,747.92L50.28,748.2L49.15,750L48.3,749.74L46.46,748.27L44.02,748.12L42.54,749.04L36.95,748.95L34.84,750.85L30.6,749.49L30.4,749.74L27.91,750.35L27.29,750.26L26.62,749.68L25.46,749.79L25.23,750.72L26.24,752.34L26.22,752.67L24.43,755.02L23.86,756.12L25.27,759.63L25.24,760.25L24.86,761.08L23.19,763.01L20.99,764.54L21,770.95L21.34,773.89L21.02,775.18L20.7,775.85L17.7,778.83L16.23,779.8L15.32,779.81L14.48,779.37L12.42,778.16L8.03,774.67L6.71,772.67L4.28,771.88L3.52,771.34L2.63,769.72L2.52,769.06L2.87,767.86L4.93,763.48L6.23,761.22L6.03,759.36L5.38,756.98L5.43,756.25L7.7,751.87L7.76,751.29L7.51,750.42L3.8,744.5L3.54,743.38L4.36,740.16L4.84,739.25L5.49,738.52L7.34,737.34L8.59,734.91L8.97,731.84L11.47,725.86L11.58,724.22L13,719.52L13.25,717.74L12.56,715.78L12.76,714.8L13.79,713.25L15.24,712.45L16.32,711.27L17.02,710.01L17.77,707.73L20.05,703.54L21.18,702.09L23.19,700.14L25.95,696.08L26.22,694.24L25.91,690.62L26.08,687.05L26.3,685.98L28.92,681.23L89.47,673.98L84.59,636.33L109.09,635.07L108.86,633.65L157.67,631.3L162.65,653.65z"/>
		<path id="C50023" title="Washington" class="land" d="M413.45,439.82L393.58,430.73L384.58,480.32L339.48,461.96L337.81,466.92L328.01,463.34L312.71,501.8L310.44,501.36L291.5,542.38L268.87,533.42L209.1,509.83L201.42,510.78L194.65,461.55L187.73,462.81L209.46,400.98L203.5,398.03L225.07,352.91L236.47,356.33L244.84,339.47L231.44,332.52L244.63,306.45L259.77,311.35L302.86,335.29L325.13,291.54L361.09,318.67L366.21,320.47L387.95,277.06L469.38,321.08L467.47,323.84L470.64,322.9L469.12,336.63L452.42,364.65L433.07,389.08L433.58,402.97z"/>
		<path id="C50025" title="Windham" class="land" d="M387.89,958.83L386.66,961.57L385.56,964.85L385.53,966.86L386.29,970.16L386.63,973.47L386.15,974.37L381.78,978.89L382.1,980.64L384.3,984.32L384.43,985.63L383.85,986.56L380.9,989.65L381.16,990.68L381.07,995.31L381.28,998.61L381.19,999.49L380.8,1000.29L379.36,1001.58L379.12,1002.13L379.22,1003.15L381.12,1007.18L382.54,1008.1L384.12,1008L385.01,1008.4L385.4,1008.83L385.51,1010.73L385.45,1011.12L384.69,1011.29L384.62,1011.79L385.38,1013.16L387.32,1015.39L388.47,1017.35L388.59,1020.3L388.41,1021.06L387.74,1022.49L385.52,1024.48L384.81,1025.81L384.57,1027.28L386.05,1030.44L387.61,1034.78L387.56,1036.41L387.22,1037.36L385.8,1039.83L383.74,1042.84L380.06,1046.98L376.54,1050.19L375.51,1051.6L375.17,1052.7L375.38,1054.52L375.74,1055.41L377.15,1057.14L377.92,1059.01L377.67,1061.5L376.86,1065.41L377.09,1066.98L378.41,1070.23L379.16,1071.34L380.73,1072.16L383.96,1074.88L384.27,1075.72L384.3,1077.15L383.83,1078.12L382.38,1079.83L381.19,1080.14L379.2,1079.75L378.04,1080.4L376.88,1082.05L376.2,1083.82L375.96,1085.94L376.46,1087.76L377.4,1088.84L377.39,1089.45L375.7,1091.78L372.67,1095.16L371.55,1095.32L370.58,1094.35L369.63,1094.14L367.63,1095.3L365.42,1097.48L360.92,1098.44L359.5,1099.31L355.43,1099.84L350.11,1104.17L349.36,1105.65L349.19,1106.83L349.45,1107.51L350.3,1108.61L351.05,1108.81L351.51,1109.23L351.95,1110.38L352.26,1112.08L352.37,1114.29L352.08,1118.04L353.18,1123.34L353.11,1124.88L352.78,1125.52L351.27,1126.38L350.87,1126.99L350.34,1129.31L350.39,1134.15L349.88,1135.14L348.14,1137.35L346.81,1138.66L344.58,1139.84L342.44,1140.63L342.13,1140.98L341.13,1145.99L341.24,1148.29L340.82,1150.45L340.86,1150.82L341.24,1151.09L341.59,1154.08L340.42,1157.77L341.9,1161.09L343.78,1163.55L344.23,1165.88L344.21,1168.5L344.72,1173.05L346.01,1181.17L347.24,1183.08L355.46,1190.53L356.43,1191.63L358.01,1193.96L359.13,1196.16L359.44,1197.75L359.32,1198.95L358.63,1199.68L356.82,1200.61L356.08,1202.06L356.34,1203.49L357.49,1204.61L358.35,1204.64L359.47,1204.3L362.29,1202.59L362.84,1201.86L363.02,1200.33L363.35,1199.83L364.35,1199.64L365.99,1200.07L367.28,1201.69L367.81,1202.95L368.4,1203.71L370.54,1204.98L371.21,1205.96L371.86,1207.82L372.33,1211.48L372.96,1214L374.99,1216.47L377.63,1220.67L378.6,1222.83L378.59,1224L243.04,1218.9L196.2,1217.54L199.64,1118.98L166.12,1117.25L170.42,1017.68L219.99,1020.78L228.04,941.88L239.08,945.58L290.78,963.03L343.26,955.99L387.69,957.31L388.15,957.48z"/>
		<path id="C50027" title="Windsor" class="land" d="M388.15,957.48L387.69,957.31L343.26,955.99L290.78,963.03L239.08,945.58L238.87,922.45L220.31,921.64L225.9,884.38L236.55,879.5L262.11,893.35L262.6,878.62L270.81,857.5L275.95,836.32L274.72,832.59L257.57,827.74L258.05,820.32L250.02,818.64L257.07,767.31L262.8,769.47L284.86,718.73L238.82,700.61L244.22,686.96L239.37,684.9L253.21,653.93L250.22,643.59L234.54,635.41L232.03,640.67L218.2,635.08L217.84,625.23L185.15,642.08L176.91,612.13L187.38,616.26L216.97,601.34L217.89,622.03L221.32,623.32L240.25,582.6L242.7,583.52L249.92,569.73L252.5,583.49L254.64,584.32L253.06,587.33L283.87,597.82L377.97,635.8L425.4,651.07L476.53,671.75L475.63,672.64L474.36,673.49L472.17,674.12L471.54,674.54L470.76,675.66L470.01,677.68L469.4,678.74L465.89,683.84L461.12,686.61L453.7,691.37L451.02,691.38L449.13,695.16L447.67,696.45L445.75,698.73L444.92,700.39L442.89,703.54L441.85,704.78L439.99,706.09L438.77,708.13L437.82,711.84L437.55,718.61L438.2,719.63L438.68,721.26L438.56,723.4L438.21,725.83L437.65,727.41L435.69,731.04L434.9,731.72L434.46,732.94L434.06,736.53L434.52,738.05L434.43,740.04L433.98,740.92L431.17,742.12L429.29,743.26L428.62,743.9L428.41,744.39L428.48,745.35L429.3,746.24L429.35,746.58L428.68,748.46L427.37,749.49L426.58,752.58L426.45,755.1L427.24,757.34L428.46,758.36L428.96,759.19L429.18,761.4L428.85,762.4L428.43,762.72L427.36,763.17L420.58,769.36L415.17,771.52L411.61,773.77L409.17,776.62L407.93,781.91L407.87,782.79L408.49,786.8L408.8,794.26L407.67,797.29L405.43,800.97L404.81,801.5L403.45,801.43L402.78,803.3L402.83,805.06L401.77,808.85L401.84,810.23L402.64,811.7L405.25,813.91L407.1,815.84L408.6,819.49L408.81,820.43L408.78,822.08L408.28,826.55L407.81,828.73L407.21,829.69L404.49,832.56L404.12,833.31L404.07,834.53L404.86,841.88L404.62,842.9L403.54,845.36L402.89,848.61L402.79,852.62L401.23,860.96L401.17,863.22L399.74,873.33L399.18,874.36L396.13,877.37L395.27,879.54L395.04,881.49L395.38,887.13L395.54,887.99L396.04,888.8L399.69,891.26L401.04,891.48L404.24,891.38L405.04,891.88L404.73,892.91L402.99,895.33L401.49,896.83L400.84,897.79L397.72,903.82L397.21,905.26L397.27,905.94L397.85,907.38L400.24,911.24L402.14,913L402.84,914.29L402.97,915.15L400.57,920.23L398.18,931.08L395.24,937.18L392.87,941.38L387.6,944L387.15,944.54L386.26,946.95L386.16,951.53L387.04,954.66L387.99,956.44L388.19,957.25z"/>
	</g>
</svg>