<?xml version="1.0" encoding="utf-8"?>
<!-- (c) ammap.com | SVG map of WI Counties -->
<svg xmlns="http://www.w3.org/2000/svg" xmlns:amcharts="http://amcharts.com/ammap" xmlns:xlink="http://www.w3.org/1999/xlink" version="1.1">
	<defs>
		<style type="text/css">
			.land
			{
				fill: #CCCCCC;
				fill-opacity: 1;
				stroke:white;
				stroke-opacity: 1;
				stroke-width:0.5;
			}
		</style>

		<amcharts:ammap projection="mercator" leftLongitude="-92.888594" topLatitude="47.077816" rightLongitude="-86.805175" bottomLatitude="42.491645"></amcharts:ammap>

		<!-- All areas are listed in the line below. You can use this list in your script. -->
		<!--{id:"C55001"},{id:"C55003"},{id:"C55005"},{id:"C55007"},{id:"C55009"},{id:"C55011"},{id:"C55013"},{id:"C55015"},{id:"C55017"},{id:"C55019"},{id:"C55021"},{id:"C55023"},{id:"C55025"},{id:"C55027"},{id:"C55029"},{id:"C55031"},{id:"C55033"},{id:"C55035"},{id:"C55037"},{id:"C55039"},{id:"C55041"},{id:"C55043"},{id:"C55045"},{id:"C55047"},{id:"C55049"},{id:"C55051"},{id:"C55053"},{id:"C55055"},{id:"C55057"},{id:"C55059"},{id:"C55061"},{id:"C55063"},{id:"C55065"},{id:"C55067"},{id:"C55069"},{id:"C55071"},{id:"C55073"},{id:"C55075"},{id:"C55077"},{id:"C55078"},{id:"C55079"},{id:"C55081"},{id:"C55083"},{id:"C55085"},{id:"C55087"},{id:"C55089"},{id:"C55091"},{id:"C55093"},{id:"C55095"},{id:"C55097"},{id:"C55099"},{id:"C55101"},{id:"C55103"},{id:"C55105"},{id:"C55107"},{id:"C55109"},{id:"C55111"},{id:"C55113"},{id:"C55115"},{id:"C55117"},{id:"C55119"},{id:"C55121"},{id:"C55123"},{id:"C55125"},{id:"C55127"},{id:"C55129"},{id:"C55131"},{id:"C55137"},{id:"C55133"},{id:"C55135"},{id:"C55139"},{id:"C55141"}-->

	</defs>
	<g>
		<path id="C55001" title="Adams" class="land" d="M411.89,525.66L428.39,526.01L428.4,573.66L428.47,594.61L428.5,594.88L428.19,634.36L428.13,634.7L403.94,634.98L402.72,629.5L397.84,621.13L396.5,616.46L391.74,608.08L386.39,600.1L379.72,589.61L378,570.44L375.53,564.57L372.69,557.47L376.08,548.21L379.79,542.52L386.85,538.24L386.92,532.77L389.09,528.08L388.73,525.34L411.69,525.61z"/>
		<path id="C55003" title="Ashland" class="land" d="M323.54,9.69l0,0.02l-0.02,0.23l-0.05,0.1l-0.15,0.26l-0.57,1.03l-0.33,0.59l-0.12,0.21l-0.03,0.06l-0.04,0.07l-1.55,1.07l-0.26,0.18l-0.12,0.09l-0.02,0.01l-0.13,0.09l-0.02,0.01l-2.52,1.16l-0.62,0.29l-0.5,0.23l-0.86,0.4l0,-0.01l-0.18,-1.51l0.02,-0.03l0.99,-1.85l0.03,-0.06l0.02,-0.13l0.01,-0.04l0.08,-0.58l0.18,-1.33l0.01,-0.05l-0.1,-1.54l-0.05,-0.76l-0.09,-1.42l-0.01,-0.1L316.74,5l0.05,-0.33l0.01,-0.08l0.71,-2.19l0.06,-0.2l0,0l0.01,-0.01l0.08,-0.07l0.84,-0.78l0.42,-0.39l0.19,-0.18l0.25,-0.07l0.08,-0.02l0.03,-0.01l0.8,-0.24l0.17,-0.05l0.24,-0.07L321.72,0l2.22,0.06l0.17,0l0.46,0.01l0.03,0.03l0.03,0.03l0.14,0.17l0,0l0.01,0.21l0.08,1.18l0,0.01l0,0.06l0.01,0.08l-0.03,0.21l0,0.04l-0.01,0.07l0,0.01l-0.02,0.16l-0.09,0.73l-0.01,0.1l-0.22,0.75l-0.02,0.08l-0.01,0.04l-0.49,1.7l-0.02,0.07l-0.02,0.07l-0.01,0.02l0,0.02L323.54,9.69zM280.88,38.9l0.08,-0.07l3.63,-2.44l1.51,-1.01l0.36,-0.24l0.12,-0.08l1.18,-0.79l0.3,0.32l1.03,1.11l0.01,0.01l-0.03,0.06l-0.43,0.74l-0.52,0.9l-5.64,3.13l-0.79,1.23l-0.07,0.1l-0.22,0.35l-2.01,3.15l0,0.01l-0.05,0.08L279,46l-1.39,0.96l-0.09,-0.2l-0.56,-1.26l-0.05,-0.12l0.17,-0.49l1.34,-3.85l0.04,-0.13l0.04,-0.03L280.88,38.9zM276.46,24.95l-0.06,-0.09l0.07,-0.07l0.47,-0.48l0.5,-0.51l2.06,-2.09l0.11,-0.12l0.12,0.05l0.22,0.09l2.67,1.05l0.31,0.12l0.38,0.55l2.31,3.37l0.01,0.04l0.67,3.41l0.04,0.21l-0.2,0.02l-2.88,0.24l-0.06,0l-0.33,0.03l-0.28,0.02l-2.52,0.21l-0.01,-0.02l-0.31,-0.53l-0.09,-0.15l-0.53,-0.89l-1.36,-2.28l-0.44,-0.74L276.46,24.95zM301.97,43.78l0.01,0.03l-0.03,0.03l-0.2,0.17l-0.99,0.86l-0.02,0.01l-0.52,0.22l-0.28,0.12l-0.07,0.01l-0.63,0.06l-1.48,0.14l-0.26,0.02l-0.81,0.08l-0.1,0.01l-0.43,0.04l-0.03,0l-0.05,0.02l-1.46,0.65l-4.24,1.88l-2.06,0.91l-0.3,0.13l-0.94,1.08l-0.31,1.57l1.99,1.02l0.05,0.03l0.61,0.02l1.31,0.04l0.06,0.05l0.04,0.04l0.21,0.18l0,0.01l0.07,0.5l0.01,0.09l0,0.02l-0.05,0.08l-0.11,0.18l-0.09,0.15l-0.16,0.27l0,0.01l-0.01,0.02l-0.02,0.03l-0.01,0.02l-0.09,0.15l-0.11,0.18l-0.23,0.06L290.04,55l-0.08,0.02l-0.05,0.01l-0.23,0.06l-2.11,0.53l-1.06,0.27l-0.13,0.03l-0.09,0.02l-0.29,0.07l-0.2,0.05l-0.45,0.11l-0.06,-0.02l-1.26,-0.31l-1.28,-0.32l-0.97,0.7l-1.43,1.84l-0.51,0.66l-0.08,0.1l-2.42,1.9l-0.58,0.46l-0.15,0.12l-0.21,0.07l-0.18,0.07l-0.6,0.22l-0.42,-0.01l-1.73,-0.04h-0.01l-0.06,0l-0.03,0l0.01,-0.06l0.02,-0.1l0.09,-0.5l0.28,-1.47l0.3,-1.6l-0.76,-1.19l-0.04,-0.06l-0.22,-0.35l0,-0.03l-0.01,-0.11l-0.04,-0.31l0,-0.04l-0.02,-0.14l-0.01,-0.05l0.17,-0.21l1.11,-0.52l2.94,-1.37l0.07,-0.03l1.68,-0.38l0.67,-0.15l0.52,-0.12l0.44,-0.1l0.03,-0.01l0.02,-0.03l0.42,-0.57l0.13,-0.18l0.02,-0.26l0.06,-0.69l0.02,-0.21l0.9,-1.04l1.11,-0.92l1.01,-0.52l1.32,-0.68l1.5,-0.78l0.99,-0.51l0.32,-0.24l2.08,-1.57l0.11,-0.12l0.03,-0.03l0.02,-0.03l0.16,-0.17l0,0l0.35,-0.38l0.07,-0.08l0.04,-0.05l0.45,-0.49l0.07,-0.07l0.49,-0.54l0.69,-1.16l0.1,-0.17l0.05,-0.08l0.04,-0.07l0.3,-0.51l1.56,-1.61l0.73,-0.3l1.8,0.33l0.01,0l0.08,0.12l1.04,1.47l0.74,1.05l0.1,0.15l0.01,0.01l2.25,1.58l0.02,0.06L301.97,43.78zM301.52,22.61l5.44,-1.76l0.23,-0.08l0.08,0.02l0.43,0.1l0.21,0.05l0.2,0.15l0.91,0.71l0.02,0.02l0.17,0.13l0.06,0.04l0.09,0.07l0.08,0.06l0.23,0.44l0.07,0.13l0.16,0.3l-0.39,0.75L307.82,27l0,0.01l-1.12,0.6l-0.35,0.19l-0.6,0.69l-0.47,0.92l-0.04,0.9l-0.16,0.19l-0.1,0.12l-0.42,0.23l-0.17,-0.07l-0.38,-0.16l-0.53,-0.38l-1.54,-0.31l-1.35,0.4l-1.74,0.51L294.86,32l-0.14,0.04l-0.14,0.04l-1.49,0.43l-0.91,-0.31l0,0l-0.01,-0.01l-1.38,-2.05l0,0l0,0l0.39,-1.14l0.1,-0.15l0.61,-0.91l0.13,-0.2l0.07,-0.11l0.11,-0.16l0.08,-0.12l1.15,-1.71l0.08,-0.03l4.17,-1.74l0.09,-0.04L301.52,22.61zM255.66,174.41l0.03,-65.32l-0.41,0l0.02,-15.66l0.5,0.16l0.02,0l0.25,0.08l0.14,0.05l0.04,0.01l0.03,0.01l0.2,0.06l0.01,0l0.01,0l0.17,0.01l0.93,0.06l0.49,-0.14l0.06,-0.02l0.48,-0.38l0.03,-0.02l1.27,-1.01l0.75,-0.59l0.14,-0.11l0.01,-0.01l1.54,-1.22l0.79,-0.13l0.37,-0.2l0.72,-0.39l0.25,-0.13l0.07,-0.04l0.02,-0.01l0.2,-0.11l0.16,-0.08l0.16,-0.09l0.03,-0.02l0.29,-0.16l0.84,-0.45l0,0l0.15,-0.08l0.05,-0.02l0.57,-0.31l0.4,-0.21l0.31,-0.17l0.08,-0.04l0.16,-0.09l0.12,-0.07l0,0l4.46,-1.68l0.29,-0.19l2.62,-1.73l0.29,-0.19l0.24,-0.23l1.69,-1.68l0.01,-0.01l0,-0.01l-0.13,-2.93l-0.02,-0.52l1.09,-0.99l0.01,-0.03l1.1,-3.78l0,-0.01l0.3,-0.43l1.61,1.53l2.54,2.42l1.39,1.32l5.24,4.62l0.46,0.41l3,2.65l2.63,2.2l0.12,0.1l0.07,0.06l0.86,0.72l0.03,0.02l0.46,0.38l0.04,0.03l0.48,0.4l0.14,0.12l0.01,0.01l0.58,0.49l0.63,0.44l0.16,0.11l0.1,0.07l2.05,1.43l0.22,0.15l0.11,0.08l0.39,0.27l0.25,0.09l0.86,0.33l-0.34,64.62l16.43,0.08l-0.04,16.2l16.04,-0.15l0.13,32.46l-48.81,-0.04l-32.32,0.09L255.66,174.41zM277.46,8.35l8.93,-1.83l0.2,-0.04l2.4,0.19l3.25,0.26l0.08,0.11l0.71,1l3.74,5.29l0.04,0.05l0.09,-0.08l4.36,-3.99l1.08,-0.99l0,0l0.16,-0.14l0.51,-0.47l2.09,3.74l-0.15,0.5l-0.03,0.09l-0.05,0.16l-0.01,0.05l-0.03,0.1l-0.76,2.47l-0.04,0.14l-0.42,0.08l-0.9,0.18l-6.04,1.21l-3.18,3.85l-0.25,0.22l-1.28,1.1l-0.75,0.64l-2.09,1.79l-0.51,0.44l-5.27,-6.9l-7.29,-3.25L276,14.16l-0.8,-2.87l-0.32,-1.15l0.52,-0.41l1.63,-1.29L277.46,8.35z"/>
		<path id="C55005" title="Barron" class="land" d="M95.26,349.97L95.47,270.42L111.55,270.39L175.49,270.82L175.36,334.77L175.24,350.52L159.17,350.25z"/>
		<path id="C55007" title="Bayfield" class="land" d="M250.67,22l-0.58,-0.46l-1.69,-1.35l-0.25,-0.79l-0.05,-0.16l-0.17,-0.52l0.1,-0.54l0.12,-0.62l0.02,-0.08l0.17,-0.04l0.46,-0.11l0.57,-0.14l2.37,-0.57l0.7,-0.17l1.24,-1.92l0.15,0.01l1,0.08l0.32,0.02l0.5,1.94l0.06,0.24l0,0.02l0.06,0.24l0.07,0.28l-1.03,4.02l-0.06,0.22l-0.07,0.29l-0.23,0.01l-0.05,0l-3.59,0.21L250.67,22zM174.05,61.17l1.09,0.1l0.71,0.06l0.06,0.01l0.18,-0.03l1.43,-0.21l0.92,-0.14l0.86,-0.13l0.06,-0.03l0.36,-0.18l0.03,-0.01l0.06,-0.03l0.93,-0.45l0.04,-0.02l0.79,-0.86l0.08,-0.09l0.07,-0.08l0.01,-0.01l0.09,-0.01l0.34,-0.05l0.11,-0.02l2.1,-0.31l0.25,-0.04l0.01,0l0.38,-0.12l0.57,-0.18l1.72,-0.53l0.03,-0.01l1.61,-0.81l1.1,-0.55l0.26,-0.13l0.36,-0.18l1.55,-1.42l1.76,-0.3l0.15,0.03l0.02,0.01l0.09,0.02l0.19,0.04l0.43,0.09l0.09,-0.02l0.6,-0.14l0.73,-0.17l1.46,-0.34l0.07,-0.02l0.17,-0.13l0.08,-0.06l0.12,-0.09l0.06,-0.04l0.03,-0.03l0.21,-0.17l0.37,-0.29l0.18,-0.28l0.53,-0.84l0.41,-0.64l1.82,-1.95l0.09,-0.05l0.93,-0.52l0,0l0.21,-0.12l0.36,-0.21l0.5,-0.28l0.16,-0.09l0.77,-0.44l0.03,-0.02l1.01,-0.41l0.2,-0.08l0.13,-0.05l0.12,-0.05l0.17,-0.07l0.05,-0.01l1.61,-0.23l1.43,-0.21l1.58,-0.23l0.07,-0.01l0.01,0l0.27,-0.13l0.04,-0.02l0.86,-0.4l0.02,-0.01l0.02,-0.02l0.75,-0.79l0.17,-0.26l1.53,-2.33l0.32,-0.49l0.33,-0.51l0.77,-0.68l1.55,-0.48l0.42,-0.13l0.07,0.02l0.47,0.16l0.35,1.16l0.05,0.17l0.56,0.91l2.84,1.85l1.3,-0.09l0.09,-0.01l1.5,-2.02l1.05,-1.42l0.02,-0.03l0.47,-1.37l0.05,-0.05l0,0l0.46,-0.48l0.02,-0.02l0.05,0.01l0.66,0.13l0.12,0.27l0.06,0.13l-0.04,0.19l-0.07,0.29l-0.07,0.3l-0.02,0.09l-0.21,0.91l0.2,0.37l0,0.01l0.03,0.01l1.46,0.51l0.05,0.02l0.6,-0.07l1.46,-0.17l0.24,-0.03l0.87,-0.56l0.06,-0.04l0.03,-0.02l0.07,-0.05l0.13,-0.08l0.03,-0.27l0.04,-0.38l0.13,-1.19l0.03,-0.28l0.01,-0.13l0.01,-0.13l0.02,-0.15l0.05,-0.49l0.05,-0.47l0.36,-0.53l0.29,-0.04l0.47,-0.07l0.54,-0.07l1.09,0.66l0.42,0.26l0.14,0.09l0.26,-0.08l1.29,-0.37l0.43,-0.12l0.37,-0.33l0.12,-0.11l0,0l0.81,-0.71l0.4,-0.36l0.43,-0.83l0.06,-0.37l0.03,-0.22l0.18,-1.21l0.14,-0.11l0.12,-0.1l0.25,-0.2l0.86,-0.69l0,0l0.32,-0.25l0.24,-0.2l0.07,-0.06l0.14,-0.07l0,0l0.23,-0.11l0.01,0l0.72,-0.35l0.35,-0.17l0.28,-0.14l0.09,-0.04l0.04,0l0.02,0l0.77,0.04l0.12,-0.07l0.15,-0.09l0.22,-0.14l1.06,-1.18l0.16,-0.17l0.16,-0.17l0.19,-0.39l0.38,-0.81l0.84,-1.78l0.69,-0.5l0.46,0.02l0.1,0.08l1.23,0.93l0.01,0.01l0.09,0.03l0.02,0.01l1.71,0.54l2.41,0.76l0.03,0.01l0.06,-0.02l0.96,-0.36l0.03,-0.01l0.67,-1.49l0.01,-0.02l3.68,-3.11l0.1,-0.08l0.3,-0.16l0.02,-0.01l0.01,0l0.04,-0.02l0.03,-0.02l0.04,-0.02l0,0l0.03,-0.01l0,0l0.05,-0.02l0.59,-0.31l1.99,-0.21L264.7,22l2.13,0.82l0.11,0.04l0.03,0.01l0.01,0.01l0.59,0.51l3.65,3.17l2.4,2.08l0.01,0.01l0.06,0.06l0.05,0.05l3.32,4.4l0.1,0.13l0.49,0.64l0.14,0.19l0.02,0.04l0.22,0.45l0.18,0.38l0.04,0.08l0.02,0.05l0,0.07l0,0.1l-0.01,0.35l-0.01,0.44l-0.02,0.02l-0.46,0.56l-0.01,0.01l0,0l-0.85,0.31l-0.04,0.01l-1.12,1.31l-0.01,0.02l-1.4,3.26l-0.01,0.01l-0.92,2.66l-0.52,1.51l-0.22,0.64l-0.26,0.75l-0.03,0.1l-0.06,0.18l-0.13,0.37l-0.15,0.43l-0.05,0.15l-0.27,0.29l-0.04,0.04l-1.03,1.08l-1.65,1.74l-0.49,0.51l-0.08,0.33l-0.13,0.52l-0.09,0.37l-0.13,0.19l-0.12,0.17l-0.02,0.03l-0.2,0.3l-0.44,0.65l0,0l-0.04,0.06l-0.04,0.06l-1.51,0.09l-1,0.06l-0.07,0l-0.04,0l-0.07,0l-0.03,0l-0.02,0.03l-0.43,0.75l-0.46,0.8l0.5,1.16l0.04,0.08l-0.19,0.55l-0.19,0.56l-0.52,0.67l-0.03,0.04l-0.01,0.01l-1.03,0.66L262,60.29l-1.18,0.75l0.21,1.72l0.01,0.05l0.17,0.45l0.06,0.16l0.37,0.97l0.06,0.16l0.23,0.62l0.01,0.04l0.01,0.03l0.04,0.1l0.03,0.07l0.55,1.46l0.13,0.36l0.02,0.06l0.12,0.24l0.11,0.22l0.01,0.02l0.03,0.07l0.03,0.06l0.54,1.06l0.33,0.64l0.06,0.12l0.14,0.28l0.03,0.05l0.83,1.62l0.04,0.08l0.03,0.05l0,0.03l-0.12,0.94l-0.02,0.17l0,0.02l-0.01,0.02l-0.08,0.1l-0.02,0.03l-1.41,1.83l-0.03,0.04l-0.22,0.28l-0.05,0.07l-0.02,0.03l-0.05,0.07l-0.01,0.02l-0.21,0.17l-0.06,0.05l-0.03,0.02l-0.03,0.02l-1.94,1.62l-0.01,0l-1.38,0.57l-1.14,0.47l-0.04,0.02l-0.47,0.2l-0.07,0.03l-0.21,0.09l-0.01,0.02l-0.43,0.75l-0.07,0.12l-0.03,0.15l-0.71,3.82l0,0.02l0,0.16l0,0.19l-0.01,0.74v0l-0.46,1.17l0,0l-0.29,0.51l-0.64,1.11l-0.06,0.11l-0.14,0.25l-0.66,1.16l-0.04,0.07l-0.01,0.01l-1.41,1l-0.01,0.01l-0.08,0.14l-0.04,0.08l-0.11,0.2l-0.02,0.03l0,0.15l0.01,0.53l0.51,0.67l0.04,0.05l0.02,0.02l0.66,0.86l0.02,0.03l0.07,0.02l0.04,0.01l1.79,0.59l-0.02,15.66l0.41,0l-0.03,65.32l-26.12,-0.16l-6.52,-0.34l-48.96,0.04l-0.04,-64.9l-0.29,-2.88L174.05,61.17z"/>
		<path id="C55009" title="Brown" class="land" d="M637.77,447.5L637.75,448.92L637.75,449.16L636.59,449.76L636.42,449.85L636.19,449.97L636.17,450.08L636.11,450.35L636.02,450.77L635.51,453.3L635.19,454.89L635.22,455.87L635.22,456.01L635.23,456.07L635.23,456.1L635.32,456.37L635.48,456.81L635.53,456.93L635.54,456.98L635.56,457.03L635.62,457.2L636.31,459.07L636.61,459.91L636.63,459.95L636.21,460.93L634.84,461.2L634.54,462.3L634.49,462.47L634.33,463.07L634.32,463.09L633.92,463.77L633.48,464.53L632.93,465.47L632.79,465.52L631.96,465.81L631.76,465.88L631.76,465.88L631.37,466.32L631.32,466.38L631.1,466.64L631.09,466.64L631.07,466.78L631.06,466.9L631.05,466.97L631.03,467.05L631.02,467.16L630.96,467.6L630.94,467.73L631.62,468.44L633.76,470.67L634.28,471.21L635.74,472.72L636.45,472.97L636.59,473.02L636.65,473.04L637.63,473.4L637.7,473.42L638.27,473.63L638.7,473.78L639.34,474.01L640.27,474.34L643.78,474.45L644.27,474.15L644.83,473.82L645.7,473.3L646.35,472.4L647.21,471.19L647.27,471.1L647.42,470.83L649.32,467.31L649.33,467.31L649.33,467.31L649.39,467.1L649.56,466.56L649.62,466.37L649.62,466.36L649.59,466.28L649.45,466L649.4,465.88L649.34,465.77L649.32,465.72L649,465.05L649.18,464.73L649.33,464.46L649.95,464.06L650.21,463.88L650.56,463.65L650.56,463.65L650.67,463.53L651.12,463.04L653.65,460.26L653.79,460.11L657.01,458.21L657.63,457.85L657.8,457.75L658.48,457.35L658.69,457.18L659.45,456.57L659.88,456.21L661.32,455.05L661.35,455.02L661.41,455.01L664.03,454.69L665.73,454.49L666.96,453.99L667.33,453.6L667.4,453.53L666.9,511.25L651.1,511.17L651.03,526.97L630.83,526.87L611.38,526.7L611.64,464.05L604.53,464.43L604.86,447.12L606.36,448.45L619.36,447.62z"/>
		<path id="C55011" title="Buffalo" class="land" d="M173.06,565.86L171.2,565.58L170.32,565.57L169.98,565.49L168.75,564.77L168.03,564.12L167.26,562.55L166.76,561.88L166.35,561.53L165.72,561.12L164.62,560.67L164.09,560.36L163.38,559.54L162.76,559.01L162.44,558.94L162.07,559.11L161.9,559.1L161.49,558.86L160.92,558.04L160.3,557.54L159.97,557.04L159.46,555.83L159.22,555.08L158.99,554.73L157.1,552.85L156.55,552.66L155.83,552.76L155.31,552.64L153.72,551.67L153.63,551.44L153.65,550.4L153.46,549.2L153.32,548.68L152.21,547.16L151.89,546.89L150.71,546.43L147.96,546.09L147.31,545.72L145.77,544.51L145,543.78L142.11,542.55L140.63,541.66L139.43,540.76L137.88,538.21L137.45,537.86L135.85,537.03L134.08,535.56L133.29,534.91L132.26,534.44L131.89,534.19L131.78,533.8L131.74,532.56L131.6,531.95L131.23,531.3L129.99,529.53L129.61,528.66L129.57,527.93L130.23,525.89L130.35,524.92L130.24,524.48L130.07,524.14L129.18,522.91L129.08,522.44L129.22,521.07L129.13,520.77L128.83,520.32L127.9,519.51L126.02,518.63L125.77,518.39L125.45,517.66L125.41,517.12L125.52,516.7L125.92,515.98L126.79,514.69L126.89,514.29L126.9,514.11L126.55,512.9L126.23,512.07L125.33,510.09L124.98,509.74L123.28,508.75L122.2,507.33L121.78,506.57L120.91,505.4L120.38,504.91L119.51,504.23L118.9,503.93L118.43,503.77L117.72,503.76L117.29,503.64L116.42,503.15L115.62,502.58L115.27,502.19L114.83,501.88L114.52,501.73L113.12,501.44L110.67,500.08L109.61,499.05L108.67,497.78L108.28,497.54L107.61,497.28L106.23,497.3L105.4,497.15L104.75,496.73L105.15,492.25L107.91,485.99L108.33,481.87L109.92,477.6L109.42,474.94L110.58,471.31L110.48,468.17L111.84,464.14L112.67,463.37L115.23,462.22L161.18,462.26L176.95,462.34L176.87,525.82L176.31,526.87L173.3,529.9L168.52,531.15L166.59,534.15L168.08,536.51L166.03,539.33L172.84,544.26L174.39,547.97L174.44,551.03L176.28,553.04L171.47,563.6z"/>
		<path id="C55013" title="Burnett" class="land" d="M109.17,173.85L109.04,206.34L111.29,206.35L111.55,270.39L95.47,270.42L95.53,254.47L67.97,254.39L46.86,253.9L46.74,269.97L0.14,269.6L0.31,269.26L0.54,267.61L0.73,266.76L1.2,265.62L1.46,263.82L1.64,261.27L2.34,259.83L2.36,259.74L2.13,259.27L2.51,257L2.4,256.42L2.46,255.97L2.92,255.4L3.32,255.1L4.52,254.93L4.84,254.8L4.89,254.7L4.91,254.11L5.11,253.89L5.86,253.81L6.13,253.65L6.8,253.13L7.48,253.07L7.7,252.96L8.09,252.42L9.32,251.42L9.79,251.29L10.19,251.02L10.78,250.4L10.96,249.97L11.13,249.58L11.65,249.26L13.48,247.3L13.9,245.65L14.13,243.88L14.53,242.49L15.11,241.52L15.58,241L16.44,240.4L16.81,239.89L16.97,239.41L16.95,238.54L16.68,237.75L16.44,237.29L16.04,236L15.94,235.56L16.01,235.01L16.46,234.33L16.75,234.05L18.09,233.05L18.56,232.91L19.29,232.01L19.38,231.77L19.79,229.62L19.74,228.83L20.06,227.95L21.74,225.02L22.87,223.55L23.49,222.95L24.07,222.72L24.63,222.66L26.59,221.27L27.54,220.81L27.65,220.61L27.51,219.96L27.6,219.75L28.35,218.97L29.76,217.72L30.21,217.44L32.42,217.42L32.5,217.16L32.29,215.94L32.31,215.74L32.46,215.63L32.79,215.54L33.7,215.96L33.9,215.9L34.56,215.44L35.65,215.56L36.43,214.89L37.19,214.39L38.8,214.21L40.04,213.37L40.78,213.03L41.45,213.02L42.56,212.48L43.77,212.36L43.87,212.25L44.04,211.36L43.94,210.66L44.05,209.31L44.23,209.11L44.59,208.92L45.62,207.48L46.56,206.71L47.01,206.46L47.67,206.29L48,206.34L50.2,207.07L51.71,207.9L52.54,207.84L53.21,208.19L54.08,208.39L54.52,208.23L55.16,207.77L55.58,207.18L55.59,207.03L55.3,206.79L55.2,206.62L55.16,206.13L55.42,205.6L56.2,205.16L56.61,204.66L56.57,204.05L56.66,203.75L56.83,203.25L57.09,202.91L57.79,201.62L57.78,201.13L58.05,200.31L58.92,199.37L59.84,198.8L60.86,198.33L62.17,198.24L62.48,198.36L64.51,199.68L65.94,200.15L67.11,200.68L68.48,200.89L69.03,200.83L69.84,200.4L70.07,200.16L70.02,199.79L70.06,199.24L70.16,198.92L70.54,198.58L70.81,198.21L70.88,198L71.05,196.88L70.9,195.69L70.92,195.3L71.2,194.84L71.55,193.97L71.6,193.59L71.97,192.23L72.29,191.61L72.69,191.14L72.95,190.96L74.06,190.38L75.7,189.8L76.75,189.69L77.35,189.43L77.35,188.69L77.42,182.05L77.4,173.9z"/>
		<path id="C55015" title="Calumet" class="land" d="M583.85,526.31L590.3,526.35L590.72,526.37L591.36,526.38L596.88,526.45L611.38,526.7L630.83,526.87L631.02,589.95L615.33,589.98L615.41,581.66L595.45,581.67L583.83,581.57L583.8,532.62L583.85,529.42z"/>
		<path id="C55017" title="Chippewa" class="land" d="M255.82,382.78L255.91,398.68L255.97,414.65L179.33,414.64L179.14,414.66L161.15,414.9L161,366.3L159.07,366.3L159.17,350.25L175.24,350.52L175.36,334.77L255.58,334.78L255.5,366.2L255.55,366.55L255.89,366.58z"/>
		<path id="C55019" title="Clark" class="land" d="M255.97,414.65L255.91,398.68L255.82,382.78L319.56,382.81L335.03,382.28L334.91,417.05L334.88,417.67L334.87,446.12L334.9,493.55L271.63,493.98L271.64,478.11L255.85,478.06L255.95,462.32z"/>
		<path id="C55021" title="Columbia" class="land" d="M412.47,697.21L412.34,697.05L411.8,696.25L411.61,695.91L412.93,692.07L414.61,690.55L418.02,685.04L420.87,685.28L425.87,683.4L428.04,681.68L428.21,649.85L425.82,648.54L422.63,648.93L418.59,647.82L416.66,648.35L411.13,647.63L410.59,646.37L412.85,642.89L406.87,641.64L404.39,637.74L403.94,634.98L428.13,634.7L474.3,634.62L489.7,634.56L489.7,636.65L505.36,636.42L505.64,683.16L505.1,683.17L505.06,698.66L458.98,699.31L458.97,697.02z"/>
		<path id="C55023" title="Crawford" class="land" d="M289,674L289.33,681.79L289.23,718.79L286.22,718.58L285.14,720.75L282.39,722.66L279.38,727.36L272.11,729.93L268.92,733.66L265.93,735.52L261.08,736.3L256.75,738.17L253.64,738.32L251.95,741.54L244.27,746.97L238.94,749.04L237.74,750.62L228.06,749.5L225.42,751.4L225.34,750.82L223.93,745.86L223.1,742.43L222.65,738.29L222.68,737.91L222.48,737.33L222.57,736.78L222.76,736.35L222.77,735.06L223.03,730.88L222.7,728.22L222.63,727.11L222.67,726.42L222.8,725.89L223.02,725.39L223.66,724.9L224.95,724.34L225.5,723.92L226.81,722.23L227.19,721.52L227.44,720.25L227.79,719.1L228.15,718.5L228.37,718.32L229.64,715.92L229.71,714.92L229.94,714.25L230.33,713.7L231.03,713.25L231.79,712.59L234.46,709.87L235.52,708.74L236.49,707.51L237.2,706.77L237.7,706.08L238.07,705.12L238.3,704.16L238.3,703.91L238.21,703.5L238.06,703.25L237.8,703.09L236.74,703.03L236.51,702.9L236.38,702.7L236.37,702.3L236.52,701.62L236.5,701.05L236.25,700.45L235.44,699.02L234.69,697.4L231.88,693.52L230.52,692.51L229.03,691.25L228.55,690.96L227.96,690.65L225.69,689.74L223.57,688.65L222.26,687.76L221.36,687.46L219.56,687.2L219.29,687.06L218.94,686.58L217.88,684.2L217.85,683.82L218.06,683.45L218.84,682.81L219.01,682.58L219.17,681.88L219.71,680.62L219.94,679.93L220.1,678.94L220.06,678.25L219.88,677.57L219.73,676.6L219.75,675.84L219.64,675.27L219.39,674.57L219.08,674.01L276.1,674L278.83,673.73L286.36,674.13z"/>
		<path id="C55025" title="Dane" class="land" d="M397.12,712.69L401.13,706.96L405.54,706.74L410.89,703.43L413.29,699.76L412.47,697.21L458.97,697.02L458.98,699.31L505.06,698.66L505.09,714.17L504.5,776.35L458.19,776.76L458.2,774.73L397.12,774.57z"/>
		<path id="C55027" title="Dodge" class="land" d="M528.12,714.14L505.09,714.17L505.06,698.66L505.1,683.17L505.64,683.16L505.36,636.42L521.09,636.33L535.85,636.41L535.99,636.35L584.24,636.79L584.32,652.45L584.18,683.35L581.95,683.46L582.03,714.71L566.69,714.47z"/>
		<path id="C55029" title="Door" class="land" d="M723.01,349.64l0.15,-0.06l0.08,0.65l0.07,0.52l0.14,1.11l-0.55,4.8l1.16,2.91l-0.05,-0.03l-0.03,-0.02l-6.37,-3.63l0,-0.1l0.07,-1.48l0.09,-1.97l0.01,-0.3l0.01,-0.19l1.25,-0.53l0.3,-0.13l2.94,-1.25L723.01,349.64zM713.84,414.14l0.02,0.01l2.7,-1l0.03,-0.69l0.09,-2.17l0,-0.1l0,-0.02l0.02,-0.49l0,-0.05l0,-0.07l-0.23,-0.89l-0.09,-0.13l-0.04,-0.05l0,0l-0.01,-0.02l-0.54,-0.78l-0.01,-0.01l-0.02,-0.03l-0.04,-0.05l-0.12,-0.17l-0.04,-0.05l-0.15,-0.21l-0.46,-0.32l-0.03,-0.02l-0.02,-0.02l-0.41,-0.28l-0.19,-0.13l-0.55,-0.38l0.11,-0.94l0.05,-0.4l0.86,-2.46l0.6,-1.56l0.01,-0.03l0.03,-0.09l0.04,-0.05l0.53,-0.61l0.23,-0.26l0.29,-0.55l0.05,-0.1l0.29,-0.57l0.99,-1.93l0.23,-0.69l0.06,-0.18l0,-0.01l0.09,-0.28l0.23,-0.7l0.86,-2.58l0.42,-1.26l1.15,-1.75l0.83,-1.27l1.11,-1.7l0.01,-0.02l1.87,-3.79l0.01,-0.02l0.8,-1.07l1.1,-1.47l0.51,-0.68l0.01,-0.01l0.04,-0.05l0.04,-0.06l0.05,-0.04l0.21,-0.18l0.02,-0.02l0.08,-0.06l2.07,-1.77l0.01,-0.01l1.95,-2.51l0.06,-0.08l0.01,-0.01l0.5,-0.64l0.55,-2.02l0.01,-0.04l-0.01,-2.47l0.41,-2.88l0.44,-0.86l0.47,-0.91l1.26,-1.15l0.07,-0.06l-0.26,-1.64l-0.08,-0.48l0.59,-3.15l0.03,-0.14v0l0,0l0.82,-0.93l0.09,-0.1l0.93,-0.31l0.23,-0.07l0.04,-0.02l0.04,0.06l0.1,0.17l0.86,1.48l0.12,0.02l0.72,0.14l0.99,0.19l0.59,0.11l0.09,0.02l2.61,-1.82l0.01,-0.01l0.18,-0.33l0.32,-0.6l0,-0.01l0.13,-0.24l0.03,-0.05l0.23,-0.43l0.01,-0.01l0.14,-0.26l0.52,-0.32l2.01,-0.99l0.01,0l0.64,-0.13l1.26,-0.26l0.02,0.01l0.4,0.18l0.16,0.07l0.53,0.24l0.11,0.05l0.48,-0.22v0v-0.01l0.01,-0.2l0,-0.02l0,-0.13l0,-0.03l0,-0.05v-0.01l0,-0.03v-0.02l0.01,-0.18v-0.02l0,-0.18l0,-0.02l0,-0.06l0.03,-1.09l0,-0.06l0,-0.05l0.01,-0.46l0,-0.04l-0.01,-0.02l-0.03,-0.07l-0.25,-0.69l0,-0.01l-0.01,-0.02l-0.06,-0.98l-0.01,-0.19l0,-0.06l0,-0.04l-0.01,-0.23l-0.04,-0.69l-0.01,-0.22l0.15,-0.62l0.05,-0.2l0,-0.01l0.5,-2.07l0.12,-0.5l0,-0.01l0.9,-2.56l0.07,-0.2l0.04,-0.1l0.04,-0.02l0.88,-0.36l3.04,-1.23l0.95,-2.7l0.02,-0.03l1.72,-2.27l0.55,0.91l0.06,0.11l0.01,0.01l0.12,0.19l0.04,0.06l0.12,0.02l0.27,0.05l0.63,0.13l0.02,-0.01l0.03,-0.01l0.05,-0.02l0.22,-0.1l0.94,-0.41l0.02,-0.02l1.69,-1.6l0.53,-0.5l0.16,0.01l2.82,0.21l0.08,0.03l0.04,0.01l1.17,0.42l0.04,0.02l0.07,0.02l0.02,0.02l0.41,0.49l0.3,0.35l0.01,0.02l0.96,2.24l-0.32,0.71l-0.06,0.13l-0.15,0.33l-0.02,0.05l-0.01,0.01l-0.36,0.38l-0.81,0.87l-0.1,0.11l-0.01,0.18l-0.06,0.81l0,0.07l0.1,0.61l0.14,0.84l0.05,0.3l0.04,0.03l0.74,0.52l0.45,-0.04l0.03,0l-0.06,0.26l0,0l0,0.01l-0.02,0.1l-0.06,0.27l-0.6,2.82l-0.01,0.04l-0.3,0.68l-0.11,0.26l-0.14,0.31l-0.09,0.21l-0.29,0.66l-0.27,0.09l-1.01,0.35l-0.2,0.07l-0.36,0.13l-0.35,0.12l-0.32,-0.34l-0.02,-0.02l-0.01,-0.08l-0.27,-1.48h-0.01l-3.25,-0.03h0l0,0.01l-0.25,0.46l-0.83,1.51l0,0.02l-0.02,0.19l0,0.02l0,0.04l-0.62,6.66l0,0.07l0.02,0.77l0,0.06l0,0.02l0,0.09l0.02,0.76l0.03,1.01l0,0.07l0.14,0.14l0.39,0.41l0.35,0.36l0.23,0.24l0.34,0.36l0.5,0.52l0.14,0.14l0.02,0.02l0.02,0.02l-0.01,0.02l-0.15,0.23l0,0l-0.14,0.21l-0.02,0.03l-0.12,0.18l-0.02,0.03l-0.02,0.02l-0.06,0.09l-0.03,0.04h0l-0.06,0.04v0l-0.14,0.11l-0.01,0l-0.1,0.08l-0.05,0.04l-0.57,0.43l-0.18,0.14l-0.07,0.05l-0.02,0.02l-0.45,0.34l-1.11,2.74l-0.01,0.02l0.43,0.7l0.04,0.2l0.18,0.92l0.01,0.05l0,0.02l0.04,0.18l0.01,0.19l0.07,2.46l0.01,0.3l0.02,0.65l-0.02,0l-0.32,0.08l-0.86,0.22l0,0l-0.11,0.21l-0.48,0.97l-0.15,0.3l0,0.01l-0.03,0.02l-0.19,0.14l-1.91,1.4v0l-0.09,0.66l-0.06,0.45l-0.14,1.03l-0.07,0.04l-0.51,0.29l-0.59,0.33l-0.1,0.06l-0.02,0l-0.05,-0.01l-0.55,-0.08l-0.14,-0.02l-3.08,-0.47l-0.46,0.99l0,0.39l0,0.09l0,0.2l0,0.12l-0.01,0.82l0,0.16l0,0.2l-0.98,2.81l-0.26,0.75l-0.48,1.37l-0.18,0.51l-0.22,0.07l-1.7,0.56l-1.22,0.77l-0.01,0l0,0.01l-0.51,0.94l-0.07,0.12l-0.2,0.37l-0.02,0.04l0,0l-1.53,2.81l-0.06,0.11l-0.13,0.31l-0.61,1.4l-0.2,0.46l-0.04,0.08l0,0.02l0,0.07l0.1,2.93l0.02,0.67l0,0.09l0.04,0.04l1.05,0.94l0.62,0.55l0.46,1.52l-0.42,0.68l-0.98,0.27l-0.45,0.12l-0.11,0.03l-0.16,0.11l-2.12,1.47l-1.51,1.85l-0.02,0.03l-0.01,0.11l0,0.02l-0.01,0.1l-0.13,1.35l0,0.03l0.01,0.01l0.06,0.09l0.54,0.82l0.43,0.66l0.39,0.6l0.01,0.11l0.18,1.49l0,0.01l0.03,0.29l-0.05,0.03l-0.85,0.54l-1.76,1.13l-2.77,1.78l-2.72,1.75l-0.05,0.03l-0.02,0.04l-0.94,2.1l-0.16,0.37l-0.85,3.38l-1.6,1.02l-1.3,0.83l-0.35,0.59l-0.77,1.31l-0.04,0.07l-0.01,0.01l-0.02,0.03l-0.05,0.09l-0.2,0.38l-0.6,1.11l0.08,1.06l0.08,1.1l0.02,0.25l0,0.03l0,0.05l-0.12,0.3l-0.12,0.31l-2.18,5.52l-0.21,0.9l-0.1,0.43l-0.17,0.76l-0.03,0.15l-0.26,1.15l-0.6,1.41l-0.19,0.45l-0.55,1.3l-0.05,0.09l-0.01,0.02l-0.9,1.55l-0.89,1.53l-0.04,0.06l-0.65,1.56l-0.24,0l-47,-0.26l0.31,-0.34l0.5,-0.57l1.31,-2.05l0.18,-2.65v-0.01l0,-0.01l-0.24,-1.09l-0.05,-0.21l-0.16,-0.73l0.07,-0.62l0.03,-0.21l0.02,-0.19l0.08,-0.1l0.77,-0.98l1.11,-1.42l0.02,-0.03l0.14,-0.23l0.14,-0.23l0.33,-0.54l0.03,-0.05l0.03,-0.05l0.25,-0.4l0.01,-0.02l0.04,-0.07l0.01,-0.02l1.3,-2.13l0.09,-0.12l1.01,-1.35l0.17,-0.23l0.05,-0.06l2.08,-2.77l1.86,-2.48l0.19,-0.25l0.14,-0.32l0.08,-0.17l0,0l0.01,-0.03l0.97,-2.2l0.22,-0.28l0.02,-0.03l0.1,-0.13l0.01,-0.01l0,0l0.04,-0.05l0.08,-0.11l0.06,-0.07l0.01,-0.01l0.03,-0.03l1.39,-1.79l0.73,-0.95l0.02,-0.02l0.57,-0.74l0.09,-0.12l0.11,-0.15l0.02,-0.03l0.01,0l0.03,-0.02l3.67,-2.4l0.04,-0.03l1.06,-0.24l0.3,0.03l1.39,0.16l1.29,0.15l0.04,-0.02l1.99,-0.89l0.49,-0.22l0.03,-0.03l2.04,-2.2l0.07,0.04l0.11,0.06l0.05,0.03l0.17,0.09l0.95,0.52l0.06,0.03l0.01,0.01l0.24,0.13l0.11,0.06l0.33,0.01l2.68,0.12l0.76,-0.75l2.08,-2.06l2,-1.98l0.55,-0.55l0.52,0l0.02,0.01l0.63,0.36l0.93,0.53l0.09,0.05l0.16,0.41l0,0.02l0,0.04l-0.11,1.67l0.09,0.18l1.08,2.14l0.12,0.23l0.16,0.1L713.84,414.14zM782.21,327.49l-0.94,-0.15l-0.94,0.6l-0.58,1.19l0.37,2.83l-0.03,1.62v0.04l-0.39,0.57l-0.1,-0.05l-0.13,-0.06l-0.36,-0.17l-0.07,-0.03l-1.18,-2.82l-1.52,-2.23l-1.52,-1.64l-0.44,-0.13l-0.05,-0.01l-0.75,-0.22l-0.02,-0.01l-0.15,-0.04l-0.45,-0.55l-0.45,-0.55l-0.06,-0.07l-0.02,-0.02l-0.01,-0.02l-0.05,-0.06l-0.01,-0.01l0,-0.28l-0.01,-1.37l0,-0.15l0.23,-0.31l0.14,-0.19l0,0l0.66,-0.18l0.26,-0.56l-0.02,-0.21l0,-0.03l-0.04,-0.34l-0.04,-0.41l-0.05,-0.43l-0.01,-0.04l-0.01,-0.03l-0.14,-0.43l0,0l-0.01,-0.02l-0.8,-2.56l-0.03,-0.1l0.11,-0.42l0.07,-0.27l0.25,-0.91l0.09,-0.33l0.5,-1.83l0.04,-0.13l0.03,-0.11l0.11,-0.42l0.38,-1.4l0.02,-0.03l0.22,-0.31l0.5,-0.72l0.15,-0.01l0.2,-0.02l0.06,0l0.02,0.03l0.47,0.64l0.19,0.7l0.1,0.37l0.03,0.09l0.04,0.02l1.31,0.61l0.48,-0.03l0.55,-0.03l0.91,-0.06l0.61,-0.04l0.67,-0.04l1.24,-0.57l0.36,-0.16l0.41,-0.19l1.63,0.28l0.37,0.06l0.09,0.02l0.02,0.02l0.18,0.2l0.51,0.57l0.37,0.41l0.01,0l2.96,-0.98l0,-0.02l0.08,-0.51l0.05,-0.33l0.03,-0.18l-0.1,-0.76l-0.03,-0.22l-0.01,-0.05l-0.09,-0.73l0.02,-0.03l0.26,-0.42l0.01,-0.01l0.08,0.02l0.82,0.16l0.61,0.12l0.04,0.04l0.16,0.14l0.71,0.62l0.02,0.06l0.51,1.69l0.01,0.05l0,0.06l0.01,0.17l0.01,0.26l0.03,0.54l-0.38,0.23l-0.05,-0.01l-0.82,-0.25l-0.12,-0.04l-0.17,-0.05l-0.12,-0.04l-0.19,0.09l-0.33,0.15l-0.3,0.14l-0.04,0.06l-1.66,2.29l-0.51,0.71l-1.52,3.46l-0.01,0.01l-0.54,0.44l-0.14,0.11l-0.65,0.53l-0.03,0.02l0,0.02l-0.01,0.05l0,0.01l-0.08,0.31l-0.45,1.79l0,0.03l0.19,1.46l0.01,0.12l0.08,0.59l0,0.03l-0.02,0.05l-0.05,0.17l-0.39,1.2l0,0l-0.06,0.03l-0.36,0.2l-0.31,0.17l-0.01,0.01l-0.05,0.03l-0.55,-0.09L782.21,327.49z"/>
		<path id="C55031" title="Douglas" class="land" d="M89.3,79.45L88.88,78.38L89.06,77.96L89.66,77.34L90.57,76.11L91.21,75.69L92.02,75.45L92.51,74.84L92.71,74.29L92.66,73.56L92.47,73.25L91.8,72.61L89.79,72.44L88.92,72.02L88.85,71.23L88.99,70.94L89.28,70.68L89.35,70.62L89.39,70.59L89.4,70.58L89.48,70.53L89.94,70.26L90.47,69.58L90.67,68.78L90.69,68.69L90.7,68.64L91.02,68.39L92.34,68.54L92.94,68.45L93.5,68.14L93.77,67.98L93.85,67.94L95.43,68.69L96.28,68.84L96.59,68.69L96.76,68.22L96.77,68.21L97.24,66.93L96.97,66.38L96.98,65.15L97.68,64.22L100.46,62.5L101.02,62.45L101.47,62.41L101.55,62.41L103.99,62.39L111.21,70.02L112.42,70.65L113,70.95L113.65,70.49L114.6,70.76L117.21,73.08L119.1,74.28L120.6,75.01L123.06,75.51L124.72,75.06L130.36,73.56L131.43,73.45L131.6,73.43L131.76,73.41L131.93,73.4L133.01,73.28L133.28,73.25L134.2,73.16L136.43,73.66L137.6,73.62L139.07,73.57L139.44,73.49L139.45,73.49L139.77,73.42L141.68,73L141.88,72.95L142.92,72.73L142.96,72.72L144.03,72.16L147.07,70.59L148.23,69.98L148.35,69.94L150.06,69.33L157.69,66.6L157.87,66.54L158.93,66.16L159.59,65.92L159.82,65.84L160.07,65.75L160.83,65.48L161.71,65.16L161.79,65.13L162.91,64.55L163.03,64.49L163.03,64.49L163.14,64.43L163.15,64.43L164.41,63.77L168.57,61.61L168.66,61.56L168.73,61.52L168.93,61.42L170.76,60.91L171.07,60.82L171.1,60.83L171.44,60.87L171.75,60.9L173.25,61.08L174.04,61.17L174.05,61.17L173.73,106.17L174.02,109.05L174.06,173.95L109.17,173.85L77.4,173.9L77.39,172.12L77.38,169.64L77.41,161.29L77.41,157.64L77.48,148.05L77.49,147.51L77.51,146.32L77.51,145.8L77.5,144.55L77.51,144.38L77.52,143.5L77.49,143.02L77.51,125.09L77.51,124.4L77.52,122.31L77.55,113.49L77.57,110.32L77.62,108.74L77.66,89.74L77.67,85.91L77.59,78.66L77.59,78.65L77.59,78.13L77.71,77.74L78.22,77.89L78.26,78.74L78.37,79.21L78.7,79.5L79.38,79.53L79.91,79.76L80.12,80.63L80.4,81.03L81,80.97L81.82,79.82L82.23,79.52L84.06,81.31L84.96,81.16L85.89,80.61L86.54,80.67L87.46,81.2L87.98,81.18L88.67,80.8L89.3,80.21L89.39,79.91L89.31,79.48z"/>
		<path id="C55033" title="Dunn" class="land" d="M98.03,446.26L97.88,414.55L97.91,366.19L95.19,366.15L95.26,349.97L159.17,350.25L159.07,366.3L161,366.3L161.15,414.9L161.16,446.39z"/>
		<path id="C55035" title="Eau Claire" class="land" d="M176.95,462.34L161.18,462.26L161.16,446.39L161.15,414.9L179.14,414.66L179.33,414.64L255.97,414.65L255.95,462.32L224.28,462.2z"/>
		<path id="C55037" title="Florence" class="land" d="M581.08,255.06L548.44,254.99L548.62,206.66L547.37,206.61L547.49,200.69L548.03,200.8L548.62,201.36L549.03,202.38L549.21,203.34L549.1,203.34L549.06,203.52L549.55,204.26L550.01,204.6L550.05,204.75L549.96,204.95L549.9,205.23L550.04,205.37L550.15,205.44L550.35,205.42L550.81,205.34L553.45,206.14L553.7,206.11L553.8,205.66L553.9,205.58L555.22,205.46L556.2,205.63L556.49,205.43L556.63,205.08L556.83,203.56L556.84,202.71L557.37,201.28L557.82,200.31L558.15,200.05L558.58,200.04L559.13,200.51L559.21,200.63L559.26,201.17L559.67,202.29L559.77,202.39L560.85,202.03L561.85,201.13L562.04,200.75L562.83,200.4L564.2,200.54L564.75,200.92L566.01,200.76L566.28,200.57L566.81,199.95L566.99,199.61L566.95,199.43L567.14,199.37L567.88,199.44L568.34,199.69L569.46,199.61L570.12,199.75L570.42,199.91L570.55,200.13L570.58,200.83L571.34,203.25L571.52,203.26L571.76,203.52L571.76,203.66L571.6,204.01L571.69,204.24L572.33,204.8L573.08,205.02L574.09,204.87L574.48,204.67L574.74,204.33L574.59,203.97L574.65,203.56L575.15,203.15L575.84,203.21L576.74,203.45L577.3,203.8L577.36,204.05L577.31,204.56L577.82,205.17L578.03,205.25L578.77,205.07L579.2,205.12L579.72,205.55L579.94,205.91L580.97,206.3L581.33,206.71L581.47,207.04L581.38,207.34L581.73,207.67L582.17,207.94L582.44,207.91L582.93,207.23L583.09,207.13L584.01,206.85L584.5,207.02L584.99,207L585.83,206.57L586.42,205.55L586.3,205.16L586.96,204.89L592.89,209.16L593.47,209.69L593.71,210.05L593.77,211L593.45,211.43L593.89,211.72L594.01,211.68L594.72,210.81L595.2,210.62L596.16,210.92L597.27,211.52L597.79,211.97L598.01,212.44L598.39,212.46L599.57,211.72L601.51,211.27L602.69,210.9L603.07,210.29L603.28,210.14L603.89,210.22L603.89,210.14L604.02,210.12L604.39,210.25L604.44,211.04L604.35,211.44L604.46,211.9L604.63,212.27L604.88,212.6L605.25,212.86L606.1,213.16L606.77,213.1L607.32,212.91L607.53,212.95L608.46,213.24L608.96,213.69L609.17,213.74L610.18,213.57L610.14,212.7L610.73,212.1L610.9,212.05L611.46,212.16L611.75,212.26L613.28,213.21L613.6,213.62L613.98,214.35L614.31,214.64L615.11,214.85L615.22,214.72L615.79,214.71L617.4,215.41L617.39,215.62L617.46,215.72L618.1,216.29L619.87,217.12L620.04,217.4L619.87,217.67L619.85,217.82L620,217.99L620.59,218.13L621.03,218.06L621.25,217.95L621.44,217.86L622.83,217.87L623.06,217.92L623.89,218.78L624.04,219.17L624.04,219.41L623.55,219.69L623.18,220.03L622.84,220.72L622.7,221.18L622.64,221.85L622.66,222.54L622.73,222.64L623.2,225.08L623.41,225.5L623.98,225.72L625.53,225.51L625.81,225.63L626.83,226.55L626.94,227.23L626.67,228.56L626.36,228.74L625.83,228.51L625.71,228.54L625.39,229L625.08,229.93L624.89,230.23L623.66,231.29L622.58,232.98L622.25,233.28L621.91,233.33L621.58,233.58L620.74,234.49L620.45,235.13L619.82,235.57L619.06,236.33L618.87,236.59L618.74,237.09L619.29,238.53L619.6,238.9L621.35,239.87L622.2,239.97L622.46,240.14L622.74,240.61L622.72,240.85L622.61,241.08L623.02,242.24L623.49,242.46L624.21,243.3L624.92,243.48L626.07,243.43L626.26,243.56L626.51,244.06L627.07,244.31L628.87,244.22L628.74,256.8z"/>
		<path id="C55039" title="Fond du Lac" class="land" d="M575.58,589.64L583.96,589.72L583.83,581.57L595.45,581.67L615.41,581.66L615.33,589.98L615.51,652.56L584.32,652.45L584.24,636.79L535.99,636.35L535.85,636.41L521.09,636.33L521.14,589.32z"/>
		<path id="C55041" title="Forest" class="land" d="M500.16,270.83L500.07,222.87L500.06,206.67L514.9,206.68L515.03,189.57L525.75,195.81L525.98,196.07L526.1,196.39L526.58,197.16L527.01,197.52L527.35,197.69L527.71,197.67L528.19,197.8L529.61,198.43L530.15,198.86L530.29,199.04L530.26,199.16L530.74,199.3L532.07,198.9L532.75,198.92L532.84,198.69L532.78,198.32L532.21,197.72L532.79,197.03L533.36,197.34L534.32,197.22L535,197.38L535.08,197.49L535.06,197.94L534.42,198.78L534.38,199.04L534.39,199.42L534.63,200.24L534.91,200.45L535.39,200.36L536.24,199.79L536.37,199.49L536.42,199.37L536.51,199.29L536.58,199.24L536.7,199.2L536.82,199.21L537.01,199.23L537.5,199.63L537.68,199.68L537.99,199.56L538.28,199.14L538.52,198.93L539.27,198.51L540.11,198.23L541.32,198.38L542.09,198.75L542.56,199.22L542.54,199.86L542.92,200.85L543.62,200.97L543.97,200.29L544.71,199.94L545.48,199.99L546.4,200.45L547.49,200.69L547.37,206.61L548.62,206.66L548.44,254.99L581.08,255.06L580.72,319.08L548.2,318.77L515.88,318.77L516.27,302.78L500.22,302.85z"/>
		<path id="C55043" title="Grant" class="land" d="M320.08,713.6L320.46,782.45L320.53,836.4L319.15,836.38L314.21,836.32L313.62,836.33L312.02,836.3L306.75,836.31L305.17,836.28L305.11,836.28L304.28,836.29L303.67,836.32L302.42,836.3L296.03,836.22L295.62,836.22L292.6,836.18L293.12,835.32L293.14,834.35L292.63,832.76L292.21,830.53L291.98,829.88L290.88,828.86L290.23,827.45L289.91,825.67L288.46,824.15L287.89,823.69L287.59,823.29L286.79,821.86L286.6,821.48L286.5,820.98L286.47,820.17L285.94,818.2L285.69,817.47L284.89,816.07L284.79,815.37L284.56,814.61L284.08,814.01L283.71,813.67L282.27,812.84L280.85,812.37L279.22,812L277.04,811.37L275.86,810.96L274.65,810.69L273.42,810.53L272.27,810.2L267.63,809.16L266.17,808.91L265.05,808.6L263.14,807.91L260.5,807.25L259.27,806.76L258.83,806.58L257.12,805.4L256.11,804.97L255.79,804.95L254.97,805.19L254.04,805.32L253.45,805.24L252.46,804.94L252.04,804.72L250.39,803.58L249.2,803.23L248.74,802.95L248.37,802.58L247.3,800.85L246.42,799.97L245.83,799.53L244.6,798.84L243.8,799L243.6,798.94L242.35,798.11L241.98,797.66L241.84,797.15L241.81,796.64L241.67,796.3L241.23,795.8L240.71,795.6L240.1,795.57L239.78,795.83L239.34,795.87L239.17,795.86L238.85,795.64L238.71,795.23L238.71,794.5L238.51,794.03L238.28,793.69L238.01,793.48L237.42,793.4L237.28,792.96L237.31,792.31L237.62,792.28L237.84,792.15L238.01,791.8L238,791.47L237.61,791.1L236.79,790.09L236.63,789.05L236.58,787.73L236.41,786.89L236.01,785.53L235.67,783.57L235.52,781.13L235.6,779.83L235.07,779.42L234.11,779.55L233.6,779.27L233.46,778.54L233.94,775.9L233.88,775.66L233.43,774.94L233.13,774.13L232.98,773.33L233.05,771.31L232.75,770.02L232.29,769.51L231.24,768.59L230.8,767.97L230.56,767.76L227.87,766.36L227.17,766.2L227,765.97L226.89,765.61L226.81,765.28L226.81,764.84L226.85,764.38L227.11,763.37L227.12,762.98L227.05,762.32L226.9,761.65L226.34,759.9L226.33,759.59L226.43,758.78L226.89,757.01L226.91,756.71L226.76,755.8L226.57,755.3L226.19,754.53L225.59,753.6L225.46,753.17L225.43,751.46L225.42,751.4L228.06,749.5L237.74,750.62L238.94,749.04L244.27,746.97L251.95,741.54L253.64,738.32L256.75,738.17L261.08,736.3L265.93,735.52L268.92,733.66L272.11,729.93L279.38,727.36L282.39,722.66L285.14,720.75L286.22,718.58L289.23,718.79L296.8,716.37L299.37,713.64L305.03,711.73z"/>
		<path id="C55045" title="Green" class="land" d="M458.19,776.76L458.59,837.59L453.99,837.56L453.98,837.56L451.44,837.54L451.23,837.52L451.06,837.5L450.89,837.51L443.2,837.39L442.11,837.37L442.03,837.37L438.22,837.31L432.76,837.18L428.81,837.03L428.13,836.99L427.67,837.01L426.38,836.95L422.38,836.84L421.58,836.83L419.33,836.77L416.4,836.73L415.96,836.74L409.59,836.69L406.04,836.7L404.65,836.7L402.88,836.68L402.13,836.69L401.84,836.68L397.2,836.66L397.09,782.28L397.12,774.57L458.2,774.73z"/>
		<path id="C55047" title="Green Lake" class="land" d="M484.3,573.53L521.07,573.45L521.14,589.32L521.09,636.33L505.36,636.42L489.7,636.65L489.7,634.56L474.3,634.62L474.42,612.23L484.43,612.64L484.38,604.63L482.17,605.67L480.45,604.26L480.43,592.68L484.36,592.69z"/>
		<path id="C55049" title="Iowa" class="land" d="M397.12,712.69L397.12,774.57L397.09,782.28L320.46,782.45L320.08,713.6L330.13,712.06L337.96,712.54L342.11,714.16L350.81,720.09L365.07,720.57L368.41,723.5L369.72,719.66L375.42,715.03L376.89,714.57L388.56,715.88L392.31,714.37L394.42,714.55z"/>
		<path id="C55051" title="Iron" class="land" d="M304.49,93.61L305.95,94.17L306,94.19L306.02,94.18L307.33,93.29L307.59,93.11L307.63,93.09L307.65,93.08L307.99,93.01L308.46,92.92L308.47,92.92L308.54,92.91L310.18,92.58L311.29,93.35L313.7,95.04L313.75,95.07L314.01,95.25L314.03,95.26L314.06,95.29L314.36,95.49L314.53,95.58L318.75,97.72L319,97.85L319.07,97.89L319.08,97.89L319.21,97.84L319.24,97.83L319.43,97.76L319.62,97.7L321.6,97.02L321.93,97.57L322.07,98.68L322.08,98.68L322.95,99.63L323.24,100.51L323.7,101.12L323.91,101.12L323.96,101.12L324.13,101.43L324.54,102.64L324.58,103.09L324.84,103.34L325.63,103.14L327.29,102.09L327.88,101.84L328.97,101.67L329.48,101.89L329.56,101.83L329.74,101.89L330.02,102.41L330.27,102.5L330.46,102.45L330.55,102.31L330.8,100.61L331.21,99.66L332.18,99.29L332.83,99.44L333.4,100.01L333.33,100.43L333.51,100.79L333.77,100.89L334.33,100.76L335.57,102.07L335.64,102.54L335.44,104.08L335.11,105L334.67,105.41L334.77,106.22L335.18,106.44L335.18,106.44L335.35,106.26L335.98,106.02L336.13,106L336.52,106.2L337.21,106.13L337.71,105.94L337.73,105.74L337.92,105.54L338.85,105.94L339.14,105.93L339.73,105.29L339.8,104.99L339.96,104.87L340.55,105.51L340.64,105.76L340.28,106.58L340.84,107.29L340.84,107.46L340.82,107.69L340.8,107.94L340.87,108.1L341.09,108.14L341.34,108.1L341.52,108.32L341.52,108.53L341.51,108.77L341.8,108.97L342.13,108.96L342.37,108.83L342.56,108.6L343.73,108.48L344.01,108.58L344.36,108.5L345.28,108.15L345.89,107.63L346.05,107.66L346.18,107.98L345.98,108.61L345.97,108.86L346.06,109.16L346.27,109.19L347.1,108.85L347.33,108.85L347.85,109.16L348.07,109.5L348.07,109.83L348.48,111.31L349.48,113.6L349.78,114L350.87,114.68L351.44,115.33L351.49,115.5L351.38,115.71L351.05,115.97L350.88,116.44L351.21,117L351.42,117.21L352.57,117.64L352.71,118.33L352.89,120.69L353.32,120.86L354.31,120.83L354.32,120.93L354.37,121.25L354.77,121.81L355.4,124.06L355.44,124.47L355.35,125.74L355.5,126.58L356.13,128.08L356.73,128.47L356.93,128.85L357.25,130.16L357.9,131.15L358.44,131.68L358.6,131.69L358.83,131.86L358.52,133.04L358.51,133.04L358.62,133.63L358.99,134.12L359.57,134.56L360.04,135.18L360.06,135.36L360.06,135.62L360.13,135.83L360.3,135.91L360.46,135.9L360.46,135.9L360.58,136L360.83,136.77L360.85,137.61L360.75,137.83L360.46,138.02L360.34,138.41L360.4,138.66L360.48,138.83L360.58,139.19L360.49,139.67L360.28,139.87L360.24,139.97L360.26,140.14L360.36,140.21L385.27,147.18L385.31,206.7L370.32,206.71L336.72,206.82L336.59,174.36L320.54,174.51L320.58,158.31L304.15,158.24z"/>
		<path id="C55053" title="Jackson" class="land" d="M226.07,556.05L225.81,525.68L224.26,525.71L224.28,462.2L255.95,462.32L255.85,478.06L271.64,478.11L271.63,493.98L334.9,493.55L334.63,525.46L335.42,525.46L335.35,526.88L335.35,542.38L319.29,541.34L258.06,541.83L252.65,543.83L248.76,547.03L250.06,548.84L249.39,557.66L226.08,557.61z"/>
		<path id="C55055" title="Jefferson" class="land" d="M566.2,730.2L565.88,761.55L565.95,777.12L550.62,777.2L544.28,777.18L535.98,777.15L535.28,777.17L504.5,776.35L505.09,714.17L528.12,714.14L566.69,714.47z"/>
		<path id="C55057" title="Juneau" class="land" d="M397.13,635L335.37,634.99L335.4,618.79L335.35,542.38L335.35,526.88L335.42,525.46L381.79,525.39L382.01,525.37L388.73,525.34L389.09,528.08L386.92,532.77L386.85,538.24L379.79,542.52L376.08,548.21L372.69,557.47L375.53,564.57L378,570.44L379.72,589.61L386.39,600.1L391.74,608.08L396.5,616.46L397.84,621.13L402.72,629.5L403.94,634.98z"/>
		<path id="C55059" title="Kenosha" class="land" d="M660.85,829.27L660.9,832.39L661.24,835.03L662.44,839.06L662.43,839.06L660.43,839.06L656.82,838.99L649.45,838.87L640.2,838.69L637.74,838.6L629.98,838.46L621.45,838.3L610.48,838.34L610.4,838.34L608.22,838.36L603.9,838.37L601.08,838.55L596.79,838.56L596.63,818.12L611.96,818.01L611.94,807.74L661.49,808.07L661.75,808.02L661.58,808.64L661.21,809.98L661.21,809.98L661.02,810.69L660.75,811.68L660.59,812.27L659.97,816.98L659.94,817.24L659.98,818.86L660.45,820.73L660.54,821.07L661.08,822.26L660.99,822.71L660.82,823.45L660.77,823.69L660.78,824.13L660.79,824.83L660.79,824.89L660.83,827.37L660.84,828.47z"/>
		<path id="C55061" title="Kewaunee" class="land" d="M717.38,449.51L716.29,452.14L715.43,454.23L714.37,455.96L714.1,456.36L713.88,456.69L712.23,457.84L709.92,460.47L709.7,460.72L709.67,460.82L708.47,464.15L705.85,470.11L705.83,470.14L705.81,470.2L705.72,470.4L705.09,472.7L703.92,476.93L703.68,477.79L703.66,478.81L703.66,479.05L703.64,479.15L703.28,481.41L702.86,484L702.56,484.8L702.25,485.62L702.19,485.79L702.18,485.82L701.74,487L701.71,487.18L701.71,487.19L701.7,487.24L701.65,487.6L701.6,487.89L701.6,487.92L701.26,490.18L700.73,493.71L700.57,494.14L700.08,495.4L700.05,495.48L699.96,495.86L699.88,496.19L699.54,497.65L699.22,499.06L699.23,499.83L699.27,502.45L699.25,502.51L699.21,502.66L699.07,503.09L698.82,503.93L698.74,504.07L697.19,506.91L697.19,506.92L696.16,510.53L695.97,511.19L666.9,511.25L667.4,453.53L668.22,452.69L668.22,452.69L668.89,451.4L669.13,449.95L669.22,449.41L670.83,447.6L717.83,447.86L718.07,447.86z"/>
		<path id="C55063" title="La Crosse" class="land" d="M208.85,597.98L207.95,596.96L207.21,596.52L206.94,596.27L206.61,595.74L205.35,594.32L205.08,592.82L204.79,591.73L204.1,590.52L203.12,589.63L201.81,588.87L201.27,587.97L200.76,586.64L200.56,586.3L200.05,585.83L199.39,585.47L199.3,585.35L198.55,583.67L198.35,582.17L198.1,581.7L197,580.47L195.61,578.68L194.4,577.75L192.98,576.93L192.8,576.71L192.39,575.68L192.13,575.22L190.62,573.56L190.48,573.26L193.5,573.27L199.15,573.26L202.16,573.26L203.02,571.53L202.83,570.1L200.97,567.46L201.62,564.1L204.65,560.2L209.71,558.55L213.95,560.13L218.36,558.35L219.84,556.17L222.32,555.22L224.86,555.47L226.07,556.05L226.08,557.61L249.39,557.66L255.88,557.58L256.03,557.53L257.18,557.52L257.5,619.86L219.21,619.84L218.92,619.73L215.45,619.86L212.28,619.8L212.52,619.05L212.65,618.39L212.58,616.35L214.08,611.29L214.05,611L211.67,607.85L211.41,606.38L211.02,605.7L210.42,603.97L210.29,603.11L209.94,601.97L209.69,599.66L209.13,598.76z"/>
		<path id="C55065" title="Lafayette" class="land" d="M397.09,782.28L397.2,836.66L385.65,836.62L385.63,836.62L385.62,836.62L381.87,836.65L377.99,836.5L377.92,836.51L376.41,836.45L376.14,836.42L373.83,836.38L373.62,836.36L366.46,836.18L363.94,836.2L363.68,836.25L357.44,836.21L354.65,836.18L352.41,836.22L349.22,836.28L346.99,836.27L343.42,836.32L343.09,836.35L341.26,836.29L340.98,836.28L340.52,836.31L336.49,836.33L328.83,836.4L328.15,836.39L327.78,836.39L323.19,836.43L320.53,836.4L320.46,782.45z"/>
		<path id="C55067" title="Langlade" class="land" d="M508.64,383.19L492.96,383.08L477.11,383.13L477.06,366.71L450.79,366.61L450.94,302.39L461.43,301.88L500.22,302.85L516.27,302.78L515.88,318.77L548.2,318.77L547.91,350.81L553.37,350.84L552.98,366.94L509.61,366.81L509.24,366.87L508.57,366.87z"/>
		<path id="C55069" title="Lincoln" class="land" d="M370.54,318.18L370.4,286.12L450.49,286.07L450.94,302.39L450.79,366.61L370.36,366.41L369.95,330.89z"/>
		<path id="C55071" title="Manitowoc" class="land" d="M695.97,511.19L695.65,512.3L695.74,514.9L695.74,514.93L695.74,514.96L696.17,517.26L696.19,517.34L696.2,517.42L696.2,517.42L696.22,517.45L698.12,521.98L698.13,522L698.15,522.05L698.2,522.17L698.2,522.18L698.21,522.21L698.22,522.23L698.24,522.28L698.25,522.29L698.27,522.34L698.28,522.36L698.35,522.53L698.38,522.6L698.41,522.68L698.54,522.99L698.59,523.1L698.62,523.19L698.71,523.4L698.73,523.44L698.78,523.61L698.79,523.62L699.56,526.05L699.56,526.05L699.57,526.09L700.46,528.91L700.46,528.92L700.47,528.94L700.6,532.34L699.88,535.59L699,537.94L696.36,541.59L695.04,542.81L693.33,544.39L693.29,544.41L692.83,544.62L692.73,544.67L692.38,544.83L688.97,546.4L688.81,546.47L688.66,546.54L688.43,546.65L688.08,546.88L685.8,548.42L682.58,551.43L682.48,551.53L682.46,551.59L682.35,551.99L682.34,552.02L681.83,553.89L681.39,555.53L681.36,555.65L681.58,558.3L681.55,558.53L681.24,561.06L681.24,561.08L679.25,563.69L677.69,566.8L677.29,568.17L676.63,570.48L676.16,572.1L676.11,572.31L676.1,572.32L675.66,576.57L675.65,576.61L675.5,576.97L675.48,577.04L675.17,577.83L675.17,577.84L675.01,578.25L674.91,578.39L674.65,578.77L674.29,579.31L673.43,580.58L673.15,581.34L673.04,581.65L673.04,581.65L673.02,581.77L672.9,582.52L672.87,582.73L672.82,583.01L672.75,583.44L672.64,584.11L672.43,585.41L672.36,585.83L672.04,587.86L672.03,587.89L672.03,587.9L671.8,588.65L671.76,588.8L671.53,589.56L671.53,589.56L671.44,589.86L631.02,589.95L630.83,526.87L651.03,526.97L651.1,511.17L666.9,511.25z"/>
		<path id="C55073" title="Marathon" class="land" d="M334.87,446.12L334.88,417.67L334.91,417.05L335.03,382.28L350.33,382.32L350.3,366.34L370.36,366.41L450.79,366.61L477.06,366.71L477.11,383.13L477.12,446.81L396.24,446.15z"/>
		<path id="C55075" title="Marinette" class="land" d="M581.08,255.06L628.74,256.8L628.87,244.22L629.87,244.17L630.14,243.88L630.64,243.66L631.13,243.15L631.22,242.64L631.29,242.56L632.09,242.53L632.41,242.64L632.91,242.64L633.39,242.48L634.17,242.04L635.54,242.09L636.25,241.73L637,241.48L637.57,241.49L637.78,241.6L638.03,241.92L638.72,243.81L638.95,244.92L638.83,245.27L638.62,245.34L638.33,245.3L637.78,245.67L637.81,245.84L638.23,246.29L639.47,246.77L640.05,246.9L640.76,247.33L641.15,247.93L641.05,248.18L641.22,248.41L641.76,248.57L642.39,248.37L643.74,248.56L644.98,248.43L645.69,248.01L646.01,248.15L646.62,248.64L648.32,248.39L648.47,248.21L648.71,248.19L648.87,248.23L649.13,248.46L649.31,248.72L649.48,249.29L649.69,249.47L650,249.51L650.53,249.18L651.79,249.05L652.11,249.04L652.63,249.21L652.95,249.85L653.63,250.03L654.15,250.74L654.29,251.22L654.18,251.3L654.13,252.33L655.28,254.22L656.4,255.11L657.64,256.09L658.41,256.46L660.89,257.13L661.18,257.33L661.74,257.96L661.84,258.31L661.84,258.57L661.3,259.17L661.32,259.28L661.85,260.01L662.25,260.37L664.1,261.61L664.81,262.38L665,262.88L665.01,263.79L664.97,264.07L664.89,264.19L663.1,264.56L662.64,264.78L662.07,265.46L659.48,266.15L659.39,266.3L659.42,266.7L659.58,267.03L659.54,267.39L659.29,267.92L659.36,269.05L659.66,269.34L660.25,269.65L661.17,270.61L661.92,272.43L662.89,273.42L663,273.7L663.04,274.3L663.54,274.69L664.99,275.09L665.41,276.09L665.59,278.21L665.47,279.93L664.94,280.45L664.37,280.77L664.22,280.98L664.12,281.25L664.15,282.45L664.02,283.74L663.96,284.11L663.69,284.45L663.49,284.65L662.82,284.82L661.71,284.68L660.71,284.25L658.68,283.59L658.37,283.72L658.13,284.74L658.21,285.31L658.29,285.44L658.96,286.02L660.05,286.68L660.71,287.32L661.57,288.27L662.06,289.24L662.06,289.47L661.91,289.96L661.88,290.54L661.95,291.76L662.2,293.69L662.66,295.16L663.38,295.4L663.44,296.33L663.35,296.63L662.97,297.31L662.78,297.91L662.71,298.82L662.63,299.08L661.6,300.2L661.54,300.58L661.74,301.07L661.75,301.3L661.01,302.25L660.81,302.6L660.81,302.96L659.76,303.74L658.93,304.09L658.27,304.65L658.2,304.92L657.81,305.42L656.66,305.88L656.32,306.66L655.3,307.18L654.47,308.45L654.43,308.71L654.67,309.36L654.63,310.48L655.18,311.85L655.75,312.4L655.92,312.67L656.03,313.07L656.08,314.11L655.86,314.47L654.8,315.02L654.72,315.33L654.74,315.49L655.1,316.1L654.76,317L654.08,317.56L653.27,317.95L652.92,318.27L652.68,318.64L652.64,319.07L653.15,319.71L653.19,320.08L652.49,320.64L651.45,321.7L651.06,322.56L651.04,323.2L651.18,323.49L651.41,323.74L651.94,323.83L652.1,323.79L652.93,323.27L653.17,323.01L653.24,322.77L653.22,322.47L653.23,322.21L653.35,322.1L653.57,322.12L653.77,322.19L653.95,322.55L654,322.96L654.05,323.18L654.23,323.51L654.57,323.84L654.87,323.99L655.63,324.16L655.93,324.53L656,325.05L655.8,325.48L655.82,325.66L655.97,325.83L656.2,325.79L657.53,324.97L657.71,324.72L657.9,323.88L658.25,323.65L658.62,323.69L659,323.96L659.26,323.93L659.43,323.76L659.5,323.57L661.19,323.83L662.44,323.4L663.76,323.43L664.07,323.58L664.7,324.11L665.9,323.84L666.23,323.84L666.51,323.84L667.43,324.36L668.48,324.17L668.82,323.74L668.8,323.29L668.89,323.13L670.53,322.54L670.6,322.28L671.17,321.4L673.06,318.99L674.44,318.3L674.64,317.82L674.96,317.51L675.55,317.06L676.31,316.69L676.79,316.71L677.35,316.91L677.75,317.61L678.77,318.07L678.83,318.22L678.85,318.88L678.97,319.09L681.07,320.6L681.17,320.87L681.27,321.72L681.17,322.47L681.57,323.29L681.94,323.36L682.23,323.65L682.33,323.93L682.36,324.94L682.27,326.02L681.28,327.6L680.75,327.91L680.52,328.2L680.46,328.41L680.53,329.35L680.25,329.92L680.05,330.13L679.76,330.27L678.73,331.83L678.24,332.22L677.15,333.65L677.14,333.98L676.78,335.09L676.37,335.57L675.75,336.7L675.59,337.6L675.72,338.44L675.68,338.93L675.12,339.37L674.33,340.61L674.51,340.98L674.33,341.66L674.03,343.39L674.04,344.36L673.93,344.54L673.78,344.62L673.3,344.59L673.14,344.66L672.38,345.6L672.24,345.92L672.28,346.2L672.66,346.49L672.74,346.78L672.59,347.43L672.01,348.24L671.97,348.75L672.11,349.4L672.11,350L671.88,350.26L670.79,350.87L670.38,351.33L670.09,352.06L670.08,352.27L670.94,355.84L670.77,356.63L670.82,356.84L670.95,356.97L671.5,357.08L671.9,357.32L672.32,357.72L672.51,358.14L673.18,358.88L674.05,359.28L674.46,359.83L674.56,360.07L675.07,360.52L675.44,360.71L676.16,360.83L676.51,361.02L677.03,361.4L677.62,362.01L678.67,363.68L678.64,363.86L678.32,364.39L678.36,364.59L679.11,366.21L679.3,366.44L679.8,366.8L680.56,367.82L680.57,368.6L680.73,368.75L681.1,368.74L681.7,368.54L682.27,368.96L683.84,369.04L684.43,368.98L684.69,369.15L684.79,369.38L684.94,369.51L685.73,369.69L686.6,370.11L689.6,371.1L689.82,371L690.21,372.06L690.1,372.83L689.64,373.11L689.23,372.86L688.3,373.38L687.19,374.61L685.19,380.2L685.33,385.89L684.6,392.74L680.47,393.44L675.98,393.22L667.37,394.77L667.7,390.23L651.64,390.25L643.69,389.77L643.88,384.75L620.68,384.17L620.98,368.25L611.82,367.95L612.19,352.11L596.22,351.44L596.64,319.52L580.72,319.08z"/>
		<path id="C55077" title="Marquette" class="land" d="M428.4,573.66L484.3,573.53L484.36,592.69L480.43,592.68L480.45,604.26L482.17,605.67L484.38,604.63L484.43,612.64L474.42,612.23L474.3,634.62L428.13,634.7L428.19,634.36L428.5,594.88L428.47,594.61z"/>
		<path id="C55078" title="Menominee" class="land" d="M552.98,366.94L573.47,367.02L572.77,414.99L540.6,414.82L540.66,398.91L508.67,398.98L508.64,383.19L508.57,366.87L509.24,366.87L509.61,366.81z"/>
		<path id="C55079" title="Milwaukee" class="land" d="M653.33,734.29L653.84,736.09L653.84,736.09L653.36,737.87L653.36,737.88L652.67,738.92L652.56,739.09L651.83,740.2L651.81,740.23L651.81,740.23L650.8,741.17L650.15,741.76L650.13,741.79L650.12,741.79L650.11,741.82L649.97,742.55L649.92,742.8L649.72,743.86L649.65,744.19L649.89,745.66L649.92,745.81L649.95,746.01L649.98,746.2L650.03,746.5L650.32,747.26L650.87,748.66L650.9,748.74L650.94,748.84L651.07,749.18L651.08,749.21L651.08,749.21L652.25,750.65L655.05,753.2L656.62,756.04L656.67,756.6L656.79,757.75L656.83,758.08L656.93,759.08L656.93,759.11L656.94,759.21L656.7,762.83L656.42,766.89L656.28,768.87L656.28,768.94L656.54,769.82L657.96,774.69L658.44,775.9L658.98,777.26L627.35,777.06L627.44,756.55L627.46,755.26L627.48,755.09L627.5,754.12L627.49,753.97L627.53,752.88L627.52,752.68L627.86,730.8L628.21,715.17L637.2,715.09L650.51,715.18L650.97,715.94L651.1,716.15L651.27,716.73L651.45,717.33L651.45,717.34L651.46,717.38L651.94,719L651.25,720.84L650.93,721.7L650.87,721.86L650.86,721.88L650.83,721.97L650.64,722.46L650.48,722.89L650,723.83L649.73,724.37L649.61,724.6L649.44,724.92L649.3,725.62L649.3,725.65L649.3,725.68L649.41,726.93L649.42,726.94L649.42,726.95L650.37,729.06L652.19,731.24L652.35,731.44L652.59,731.72L653.06,733.36L653.08,733.42L653.08,733.42L653.09,733.47L653.13,733.62z"/>
		<path id="C55081" title="Monroe" class="land" d="M257.5,619.86L257.18,557.52L256.03,557.53L255.88,557.58L249.39,557.66L250.06,548.84L248.76,547.03L252.65,543.83L258.06,541.83L319.29,541.34L335.35,542.38L335.4,618.79L319.68,619.7z"/>
		<path id="C55083" title="Oconto" class="land" d="M648,423.97L647.02,426.44L646.41,427.99L646.11,428.74L645.99,429.06L644.08,433.16L642.77,433.71L642.08,434.41L641.05,435.45L640.02,437.25L638.66,439.62L638.61,439.72L638.55,440.16L638.55,440.17L638.53,440.31L638.51,440.46L638.49,440.61L638.27,442.25L638.26,442.32L638.11,443.47L638.1,443.59L637.93,444.82L637.86,445.39L637.85,445.49L637.84,445.52L637.83,445.61L637.8,445.86L637.77,447.5L619.36,447.62L606.36,448.45L604.86,447.12L603.6,431.16L604.14,415.48L572.77,414.99L573.47,367.02L552.98,366.94L553.37,350.84L547.91,350.81L548.2,318.77L580.72,319.08L596.64,319.52L596.22,351.44L612.19,352.11L611.82,367.95L620.98,368.25L620.68,384.17L643.88,384.75L643.69,389.77L651.64,390.25L667.7,390.23L667.37,394.77L667.36,394.77L667.34,394.77L666.91,394.85L666.81,394.87L664.93,395.51L664.91,395.52L663.93,395.86L663.81,395.9L663.62,395.96L663.54,395.99L663.5,396.01L660.86,396.91L660.81,396.93L660.77,396.95L660.69,397L660.53,397.11L660.4,397.19L660.25,397.28L660.21,397.3L660.19,397.32L660.17,397.33L660.14,397.35L659.99,397.45L659.98,397.45L659.96,397.46L659.86,397.6L659.79,397.7L659.76,397.74L659.7,397.82L659.64,397.91L659.61,397.95L657.6,400.77L657.42,401.02L656.84,402.37L656.73,403.44L656.92,404.52L656.94,404.62L656.95,404.65L656.98,404.75L657.24,405.5L657.35,405.8L657.68,406.37L657.72,406.43L657.8,406.58L658.04,406.98L658.11,407.1L658.13,407.15L658.32,407.46L658.89,408.44L658.23,410.32L657.88,410.94L657.69,411.27L657.5,411.59L656.3,412.2L656.21,412.24L656.1,412.43L655.63,413.27L655.44,414.22L655.38,414.56L655.35,414.63L655.21,414.92L655.06,415.23L655.02,415.33L653.92,417.64L653.88,417.73L653.17,417.85L652.32,418L651.34,418.69L650.45,419.33L650.02,419.63L649.75,419.83L649.51,420L649.33,420.13L649.24,420.45L649.2,420.61L649.04,421.2L648.98,421.41L648.92,421.61L648.9,421.71L648.77,422.03L648.62,422.4z"/>
		<path id="C55085" title="Oneida" class="land" d="M370.4,286.12L370.41,253.65L370.27,249.94L370.47,222.53L459.08,222.24L467.11,221.73L467.08,229.29L472.69,229.07L483.44,230.09L483.04,222.11L500.07,222.87L500.16,270.83L500.22,302.85L461.43,301.88L450.94,302.39L450.49,286.07z"/>
		<path id="C55087" title="Outagamie" class="land" d="M590.3,526.35L583.85,526.31L540.14,526.45L540.52,463.36L557.54,463.38L604.53,464.43L611.64,464.05L611.38,526.7L596.88,526.45L591.36,526.38L590.72,526.37z"/>
		<path id="C55089" title="Ozaukee" class="land" d="M647.98,705.21L648.15,707.24L648.17,707.37L649.83,713.76L649.83,713.76L649.83,713.76L649.85,713.86L649.96,714.28L650.06,714.44L650.51,715.18L637.2,715.09L628.21,715.17L628.31,683.97L631.02,683.95L631.25,683.87L631.18,652.66L663.24,652.54L662.81,655.35L662.85,658.34L663.38,661.53L661.48,667.19L658.94,671.89L655.26,677.14L654.03,679.26L653.71,680.05L653.5,680.56L653.06,681.65L652.42,683.6L651.77,686.66L651.03,693.33L651,693.55L651,693.55L651,693.57L651,693.57L651,693.58L650.88,694.59L649.76,697.45L649.45,698.26L649.24,698.78L649.09,699.46L649.08,699.54L649.07,699.57L649.03,699.75L648.93,700.24L648.64,701.58L648.63,701.59L648.63,701.6L648.62,701.64L648.62,701.65L648.62,701.66L648.62,701.66L648.62,701.66L648.53,702.07L648.53,702.07L648.53,702.08L648.3,703.14L648.13,703.92L647.94,704.79z"/>
		<path id="C55091" title="Pepin" class="land" d="M161.18,462.26L115.23,462.22L112.67,463.37L111.84,464.14L110.48,468.17L110.58,471.31L109.42,474.94L109.92,477.6L108.33,481.87L107.91,485.99L105.15,492.25L104.75,496.73L104.28,496.42L102.95,495.95L101.17,495.5L100.63,495.12L99.87,494.3L99.42,494.01L97.46,493.55L94.48,493.09L93.47,492.84L90.2,491.89L87.62,491.04L86.85,490.69L85.37,489.78L84.74,489.05L84.13,488.17L83.75,487.7L83.21,487.22L81.46,486.19L79.6,484.65L78.87,483.91L77.75,482.5L76.95,481.18L76.29,479.8L76.19,479.2L76.25,476.85L76.18,476.46L76.12,476.25L75.54,475.4L75.17,474.62L74.74,472.94L74.46,472.4L98.02,472.65L98.03,446.26L161.16,446.39z"/>
		<path id="C55093" title="Pierce" class="land" d="M97.88,414.55L98.03,446.26L98.02,472.65L74.46,472.4L74.32,472.12L73.98,471.68L72.8,470.59L71.87,470.03L70.38,469.45L68.57,469.13L67.68,469.08L64.98,469.35L63.65,469.24L61.59,468.87L60.86,468.56L60.2,468.1L59.51,467.88L59.23,467.93L58.25,468.42L56.38,468.59L54.41,468.02L53.01,467.43L52.52,467.46L51.77,467.8L51.34,467.83L49.39,467.05L48.9,466.78L48.14,466.17L47.82,466.17L46.98,466.46L45.25,467.61L44.76,467.66L44.28,467.51L44.03,467.3L43.83,466.82L43.87,466.48L44.07,466.02L44.12,465.71L44.05,465.08L42.62,462.57L41.78,461.32L41.49,461L41.04,460.8L40.49,460.73L40.27,460.93L39.91,461.49L39.5,461.67L39.31,461.63L38.97,461.34L38.76,460.56L37.32,459.45L36.58,459.38L35.62,459.51L35.17,459.3L34.72,458.91L34.5,458.32L34.47,457.87L34.58,457.36L34.94,456.32L34.94,455.41L34.68,454.54L33.33,452.71L30.25,451.06L29.57,450.54L29.09,450.09L26.25,446.67L24.95,445.33L24.37,444.55L22.77,443.21L20.32,440.91L19.64,440.27L17.96,439.37L17.44,439.25L17.07,439.06L15.89,438L13.05,436.57L11.16,435.16L11.14,435.04L11.1,434.85L10.95,434.56L10.52,434.21L10.43,434.01L10.51,432.65L10.78,430.92L11.43,429.27L11.99,428.42L12.93,427.37L13.4,426.54L13.69,425.48L13.88,423.41L14.02,422.83L15.03,421.22L15.13,420.92L15.03,420.32L15.08,420L15.46,419.32L15.89,418.74L15.99,418.33L15.99,417.62L15.56,415.19L15.5,413.79L84.85,414.58z"/>
		<path id="C55095" title="Polk" class="land" d="M16.94,349.96L17.46,349.37L17.76,348.29L17.7,347.85L17.47,347.51L17.24,346.95L17.01,346.1L17.01,344.67L16.65,342.59L16.82,341.89L17.31,341.27L17.76,340.36L17.77,339.58L17.64,338.91L16.94,337.94L16.6,337.2L16.44,336.07L16.44,335.69L16.55,335.32L16.85,334.96L17.88,334.59L18.56,334.06L19.66,333.21L20.25,332.51L20.88,331.58L23.2,329.36L23.87,328.4L24.5,327.07L24.63,326.58L24.63,326.03L24.56,325.46L23.97,323.39L24.01,322.9L24.14,322.5L24.95,321.57L27.2,319.87L27.33,319.7L27.26,319.22L27.49,318.5L28.46,316.84L29.17,316.06L29.9,315.56L30.95,315.1L30.93,314.22L31.24,313.46L31.44,312.38L31.4,312.19L31.07,311.79L30.97,311.28L31.11,309.35L31.42,307.81L31.45,307.13L30.65,304.74L30.54,304.59L29.55,304.05L27.46,303.2L27.07,302.93L26.21,301.46L25.58,300.72L25.12,299.5L24.2,297.62L22.95,295.72L22.43,295.09L21.32,294.06L21.02,293.65L20.88,292.84L20.84,291.58L21.28,289.52L21.27,289.18L21.1,288.71L18.56,286.51L17.08,285.68L16.09,284.55L15.35,283.93L14.94,283.69L14.6,283.64L13.33,283.75L12.76,283.93L11.28,284.68L9.9,285L8.44,285.04L7.03,284.64L5.77,284.08L5.43,284.01L2.22,283.81L0.91,282.73L0.57,282.34L0.41,281.72L0.63,279.68L0.22,278.75L0.22,278.04L0.42,276.87L0.73,275.9L0.67,275.25L0.19,274.13L0.01,273.17L0,272.53L0.17,271.6L0.15,270.97L0.02,270.56L0.14,269.6L46.74,269.97L46.86,253.9L67.97,254.39L95.53,254.47L95.47,270.42L95.26,349.97z"/>
		<path id="C55097" title="Portage" class="land" d="M476.97,526.41L429.92,526.1L429.75,526.06L428.39,526.01L411.89,525.66L411.64,477.82L396.31,477.75L396.24,446.15L477.12,446.81z"/>
		<path id="C55099" title="Price" class="land" d="M370.47,222.53L370.27,249.94L370.41,253.65L370.4,286.12L370.54,318.18L361.41,318.04L306.58,319.03L306.53,319.04L287.67,318.93L287.53,289.35L287.67,270.7L287.9,206.78L336.72,206.82L370.32,206.71z"/>
		<path id="C55101" title="Racine" class="land" d="M659.59,778.64L661.97,781.86L662.01,781.9L662.99,783.23L663.28,783.62L663.81,784.07L664.29,784.48L664.33,784.52L665.92,785.88L665.93,785.89L666.84,787.39L666.44,789.37L666.23,789.73L665.44,791.13L665.34,791.3L665.26,791.7L665,793.04L664.97,793.19L664.85,793.81L664.82,793.96L664.86,794.29L664.89,794.49L664.89,794.5L664.93,794.82L665.17,796.66L665.26,797.37L665.28,797.57L665.06,799.09L664.84,800.62L664.79,800.94L664.65,801.48L664.58,801.73L664.44,802.25L664.22,802.26L663.17,804.17L662.19,806.51L662.13,806.67L662.11,806.7L662.11,806.71L662.1,806.73L662.09,806.75L661.79,807.85L661.75,808.02L661.49,808.07L611.94,807.74L611.96,818.01L596.63,818.12L596.57,777.28L604.49,777.41L627.35,777.06L658.98,777.26L659.2,777.8L659.38,778.24L659.47,778.48z"/>
		<path id="C55103" title="Richland" class="land" d="M289.23,718.79L289.33,681.79L289,674L288.59,650.76L335.54,650.58L351.05,650.4L350.99,719.53L350.97,719.72L350.81,720.09L342.11,714.16L337.96,712.54L330.13,712.06L320.08,713.6L305.03,711.73L299.37,713.64L296.8,716.37z"/>
		<path id="C55105" title="Rock" class="land" d="M535.27,778.62L535.36,839.04L534.03,839.05L514.01,838.51L514.01,838.51L513.64,838.5L507.21,838.34L507.17,838.34L504.47,838.33L504.46,838.33L500.67,838.3L496.99,838.31L493.36,838.25L491.03,838.18L490.58,838.17L489.96,838.17L484.78,838.11L484.54,838.12L476.79,838L476.53,837.98L474.1,837.97L473.6,837.99L468.38,837.84L459.18,837.64L458.59,837.59L458.19,776.76L504.5,776.35L535.28,777.17z"/>
		<path id="C55107" title="Rusk" class="land" d="M287.67,270.7L287.53,289.35L287.67,318.93L255.59,318.64L255.58,334.78L175.36,334.77L175.49,270.82z"/>
		<path id="C55109" title="St. Croix" class="land" d="M16.94,349.96L95.26,349.97L95.19,366.15L97.91,366.19L97.88,414.55L84.85,414.58L15.5,413.79L15.5,413.78L15.5,413.76L15.76,412.92L16.2,411.94L16.24,411.56L16.14,411.24L15.43,409.95L14.87,408.66L14.74,408.15L14.78,407.18L14.86,406.82L14.98,406.58L16.51,405.57L16.74,405.39L16.85,405.19L17,404.78L17.9,400L17.88,399.21L17.38,396.61L16.59,394.92L15.74,394.35L15.57,394.03L15.45,393.6L15.34,392.35L15.33,391.55L15.5,390.66L15.27,389.57L15.22,388.24L15.62,386.82L16.35,384.72L16.43,384.37L16.41,384.03L16.08,383.21L15.33,382.29L14.23,381.27L13.05,380.51L12.35,379.83L11.85,379.2L11.21,377.95L11.07,377.3L11.09,376.48L11.19,376.09L11.36,375.74L12.58,373.87L14.86,372.12L15.95,370.91L17.41,369.55L18.41,368.83L18.64,368.6L19.22,367.66L19.34,367.26L19.35,367.09L19.21,366.73L18.9,366.46L18.54,365.88L18.06,363.12L17.1,360.59L16.98,359.92L16.97,358.99L17.08,358.14L17.65,356.92L17.67,356.53L16.05,354.89L15.79,354.4L15.72,353.54L15.78,352.63L16.17,350.83L16.41,350.41z"/>
		<path id="C55111" title="Sauk" class="land" d="M397.13,635L403.94,634.98L404.39,637.74L406.87,641.64L412.85,642.89L410.59,646.37L411.13,647.63L416.66,648.35L418.59,647.82L422.63,648.93L425.82,648.54L428.21,649.85L428.04,681.68L425.87,683.4L420.87,685.28L418.02,685.04L414.61,690.55L412.93,692.07L411.61,695.91L411.8,696.25L412.34,697.05L412.47,697.21L413.29,699.76L410.89,703.43L405.54,706.74L401.13,706.96L397.12,712.69L394.42,714.55L392.31,714.37L388.56,715.88L376.89,714.57L375.42,715.03L369.72,719.66L368.41,723.5L365.07,720.57L350.81,720.09L350.97,719.72L350.99,719.53L351.05,650.4L335.54,650.58L335.37,634.99z"/>
		<path id="C55113" title="Sawyer" class="land" d="M174.06,173.95L223.02,173.91L229.54,174.25L255.66,174.41L255.59,206.87L287.9,206.78L287.67,270.7L175.49,270.82L175.3,206.59L173.99,206.46z"/>
		<path id="C55115" title="Shawano" class="land" d="M492.96,383.08L508.64,383.19L508.67,398.98L540.66,398.91L540.6,414.82L572.77,414.99L604.14,415.48L603.6,431.16L604.86,447.12L604.53,464.43L557.54,463.38L557.66,447.36L478.9,446.83L477.12,446.81L477.11,383.13z"/>
		<path id="C55117" title="Sheboygan" class="land" d="M671.44,589.86L671.13,590.91L671.03,591.23L670.91,591.65L670.81,591.98L670.83,593.18L670.98,593.78L671.78,597L671.78,597.12L671.72,599.15L671.67,600.73L671.92,603.03L672.03,604.13L672.08,604.56L672.08,604.57L672.08,604.57L675.49,612.31L675.49,612.35L675.51,613.35L675.51,613.38L675.13,615.48L675.12,615.51L674.92,616.1L674.84,616.31L674.46,616.69L674.44,616.71L674.44,616.73L674.23,617.98L674.45,620.3L674.49,620.45L675.11,623.17L675.13,623.26L675.17,626.63L675.04,627.04L674.71,628.08L674.71,628.09L672.08,633.29L671.14,635.14L671.05,635.31L670.96,635.49L670.9,635.59L670.84,635.7L670.81,635.74L670.59,636.14L670.49,636.32L669.99,637.21L669.98,637.22L665.08,645.94L664.94,646.19L664.81,646.51L663.92,648.63L663.78,648.96L663.77,649.08L663.4,651.47L663.24,652.54L631.18,652.66L615.51,652.56L615.33,589.98L631.02,589.95z"/>
		<path id="C55119" title="Taylor" class="land" d="M370.54,318.18L369.95,330.89L370.36,366.41L350.3,366.34L350.33,382.32L335.03,382.28L319.56,382.81L255.82,382.78L255.89,366.58L255.55,366.55L255.5,366.2L255.58,334.78L255.59,318.64L287.67,318.93L306.53,319.04L306.58,319.03L361.41,318.04z"/>
		<path id="C55121" title="Trempealeau" class="land" d="M176.95,462.34L224.28,462.2L224.26,525.71L225.81,525.68L226.07,556.05L224.86,555.47L222.32,555.22L219.84,556.17L218.36,558.35L213.95,560.13L209.71,558.55L204.65,560.2L201.62,564.1L200.97,567.46L202.83,570.1L203.02,571.53L202.16,573.26L199.15,573.26L193.5,573.27L190.48,573.26L190.42,573.11L190.28,572.5L189.87,571.53L189.53,571L188.89,570.44L188.48,570.16L186.29,569.29L185.49,568.8L184.85,568.72L183.54,568.98L183.23,568.96L181.39,568.17L180.46,567.39L179.81,567.01L177.57,566.56L176.34,566.56L174.62,566.42L173.06,565.86L171.47,563.6L176.28,553.04L174.44,551.03L174.39,547.97L172.84,544.26L166.03,539.33L168.08,536.51L166.59,534.15L168.52,531.15L173.3,529.9L176.31,526.87L176.87,525.82z"/>
		<path id="C55123" title="Vernon" class="land" d="M289,674L286.36,674.13L278.83,673.73L276.1,674L219.08,674.01L218.87,673.64L216.06,669.98L215.6,669.01L215.46,668.25L215.48,667.79L215.6,667.39L215.96,666.93L216.6,666.4L217.15,665.37L217.71,663.61L217.81,662.96L217.51,661.85L217.42,660.74L217.5,660.14L217.47,658.79L217.54,658.01L217.42,657.66L216.86,657.04L215.89,656.38L215.51,655.95L215.02,654.35L214.18,653.03L214.06,652.08L214.1,651.45L214.17,651.16L214.51,650.4L215.32,649.18L215.53,648.63L215.7,646.71L215.65,645.59L215.54,645.29L215.31,644.93L214.71,644.17L212.91,642.27L212.21,641.71L211.78,641.23L211.33,640.55L210.85,639.59L210.89,637.44L211.58,635.49L211.68,634.85L211.49,633.79L211.33,633.53L210.59,632.82L210.46,632.49L210.26,630.39L210.33,628.6L210.97,625.19L210.89,622.64L211.14,621.9L211.82,620.91L212.15,620.2L212.28,619.8L215.45,619.86L218.92,619.73L219.21,619.84L257.5,619.86L319.68,619.7L335.4,618.79L335.37,634.99L335.54,650.58L288.59,650.76z"/>
		<path id="C55125" title="Vilas" class="land" d="M500.07,222.87L483.04,222.11L483.44,230.09L472.69,229.07L467.08,229.29L467.11,221.73L459.08,222.24L370.47,222.53L370.32,206.71L385.31,206.7L385.27,147.18L386.62,147.56L387.78,147.81L388,147.88L406.71,153.13L419.33,156.56L423.13,157.68L436.75,161.38L441.71,162.84L470.2,170.75L470.25,170.77L477.61,172.78L477.85,172.84L479.48,173.32L479.78,173.39L480.04,173.5L480.93,173.78L484.52,174.73L485.19,174.93L489.96,176.3L494.32,177.42L507.44,185.13L507.45,185.14L512.93,188.34L513.64,188.76L515.03,189.57L514.9,206.68L500.06,206.67z"/>
		<path id="C55127" title="Walworth" class="land" d="M544.28,777.18L550.62,777.2L565.95,777.12L567.29,777.17L596.57,777.28L596.63,818.12L596.79,838.56L582.11,838.59L576.38,838.59L575.18,838.58L570.46,838.54L553.3,838.51L544.35,838.77L544.35,838.77L536.8,839.04L535.36,839.04L535.27,778.62L535.28,777.17L535.98,777.15z"/>
		<path id="C55129" title="Washburn" class="land" d="M109.17,173.85L174.06,173.95L173.99,206.46L175.3,206.59L175.49,270.82L111.55,270.39L111.29,206.35L109.04,206.34z"/>
		<path id="C55131" title="Washington" class="land" d="M628.21,715.17L587.64,714.93L582.03,714.71L581.95,683.46L584.18,683.35L584.32,652.45L615.51,652.56L631.18,652.66L631.25,683.87L631.02,683.95L628.31,683.97z"/>
		<path id="C55137" title="Waushara" class="land" d="M521.01,526.58L521.07,573.45L484.3,573.53L428.4,573.66L428.39,526.01L429.75,526.06L429.92,526.1L476.97,526.41z"/>
		<path id="C55133" title="Waukesha" class="land" d="M566.2,730.2L566.69,714.47L582.03,714.71L587.64,714.93L628.21,715.17L627.86,730.8L627.52,752.68L627.53,752.88L627.49,753.97L627.5,754.12L627.48,755.09L627.46,755.26L627.44,756.55L627.35,777.06L604.49,777.41L596.57,777.28L567.29,777.17L565.95,777.12L565.88,761.55z"/>
		<path id="C55135" title="Waupaca" class="land" d="M540.14,526.45L521.01,526.58L476.97,526.41L477.12,446.81L478.9,446.83L557.66,447.36L557.54,463.38L540.52,463.36z"/>
		<path id="C55139" title="Winnebago" class="land" d="M583.85,529.42L583.8,532.62L583.83,581.57L583.96,589.72L575.58,589.64L521.14,589.32L521.07,573.45L521.01,526.58L540.14,526.45L583.85,526.31z"/>
		<path id="C55141" title="Wood" class="land" d="M334.87,446.12L396.24,446.15L396.31,477.75L411.64,477.82L411.89,525.66L411.69,525.61L388.73,525.34L382.01,525.37L381.79,525.39L335.42,525.46L334.63,525.46L334.9,493.55z"/>
	</g>
</svg>