<?xml version="1.0" encoding="utf-8"?>
<!-- (c) ammap.com | SVG map of WV Counties -->
<svg xmlns="http://www.w3.org/2000/svg" xmlns:amcharts="http://amcharts.com/ammap" xmlns:xlink="http://www.w3.org/1999/xlink" version="1.1">
	<defs>
		<style type="text/css">
			.land
			{
				fill: #CCCCCC;
				fill-opacity: 1;
				stroke:white;
				stroke-opacity: 1;
				stroke-width:0.5;
			}
		</style>

		<amcharts:ammap projection="mercator" leftLongitude="-82.645086" topLatitude="40.639198" rightLongitude="-77.718730 bottomLatitude="37.201275"></amcharts:ammap>

		<!-- All areas are listed in the line below. You can use this list in your script. -->
		<!--{id:"C54001"},{id:"C54003"},{id:"C54005"},{id:"C54007"},{id:"C54009"},{id:"C54011"},{id:"C54013"},{id:"C54015"},{id:"C54017"},{id:"C54019"},{id:"C54021"},{id:"C54023"},{id:"C54025"},{id:"C54027"},{id:"C54029"},{id:"C54031"},{id:"C54033"},{id:"C54035"},{id:"C54037"},{id:"C54039"},{id:"C54041"},{id:"C54043"},{id:"C54045"},{id:"C54047"},{id:"C54049"},{id:"C54051"},{id:"C54053"},{id:"C54055"},{id:"C54057"},{id:"C54059"},{id:"C54061"},{id:"C54063"},{id:"C54065"},{id:"C54067"},{id:"C54069"},{id:"C54071"},{id:"C54073"},{id:"C54075"},{id:"C54077"},{id:"C54079"},{id:"C54081"},{id:"C54083"},{id:"C54085"},{id:"C54087"},{id:"C54089"},{id:"C54091"},{id:"C54093"},{id:"C54095"},{id:"C54097"},{id:"C54099"},{id:"C54101"},{id:"C54103"},{id:"C54105"},{id:"C54107"},{id:"C54109"}-->

	</defs>
	<g>
		<path id="C54001" title="Barbour" class="land" d="M435,356.4L435.45,342.96L445.94,326.47L448.88,327.4L471.67,325.17L482.88,320.33L486.42,313.83L489.18,315.71L492.52,315.53L494.68,313.2L498.53,314.24L502.24,319.53L502.82,325.48L510.12,329.19L507.06,337.61L505.26,353L507.35,355.71L507.53,357.79L502.37,361.36L494.58,388.56L460.57,394.59L464.4,391.26L462.68,390.51L466.41,388.16L465.99,381.2L467.89,379.81L465.24,377.35L465.84,373.86L452.81,373.71L448.57,365.91L445.68,362.22L438.19,359.97z"/>
		<path id="C54003" title="Berkeley" class="land" d="M867.15,268.05L866.79,269.23L865.94,271.12L865.03,273.11L864.41,275.21L864.14,276.09L863.25,278.27L861.38,280.74L855.63,286.78L847.92,294.71L845.34,295.32L843.6,297.22L842.29,298.54L841.78,300.47L841.88,301.72L840.65,301.67L839.56,302.72L838.89,304.62L837.52,307.04L837.77,308.6L835.37,311.05L833.5,313.63L831.43,315.71L829.55,317.92L830.11,320.31L829.78,321.3L816.18,310.22L810.39,305.29L807.28,303.05L802.04,298.28L798.79,295.7L794.59,291.96L810.75,244.92L818.69,247.62L829.46,238.68L831.72,238.92L833.71,242.53L833.95,242.81L834.54,243.17L835.33,243.36L837.29,243.43L838.48,243.61L839.94,243.54L840.43,243.23L841.12,242.29L841.83,241.75L842.57,241.45L843.37,241.47L844.37,242L844.64,242.56L844.58,243.21L844.36,244.11L844.39,245.17L844.78,246.48L845.43,247.01L846.16,246.98L846.72,246.47L847.2,244.76L847.36,241.6L846.84,240.55L845.8,240.08L845.71,239.58L846.2,239.11L847,239.02L847.83,239.37L848.57,240.24L849.07,241.7L849.55,242.35L850.71,242.79L850.79,242.82L855.82,244.1L856.43,243.96L856.81,243.75L857.01,243.47L857.16,242.81L857.14,242.03L856.99,241.59L856.09,240.38L856.08,240.1L856.42,239.81L858.29,240.15L859.38,240.89L861.34,241.65L862.12,241.82L864.04,241.79L864.9,242.05L865.7,242.8L866.01,243.22L866.38,245.56L866.37,246.43L866.2,247.86L865.76,250.22L865.2,251.3L864.15,251.77L861.69,251.71L859.91,251.96L858.65,251.87L857.62,251.97L856.24,252.68L855.91,252.97L855.79,253.23L855.73,253.72L856.18,254.65L858.87,256.43L859.98,257.8L860.14,258.25L860.16,258.63L860.03,260.16L859.84,260.98L859.77,262.07L859.84,262.62L860.28,263.23L860.91,263.39L862.61,263.14L864.19,262.43L864.42,261.86L864.44,259.94L864.71,259.49L865.09,259.25L865.71,259.14L866.84,259.65L867.17,259.94L867.46,260.7L867.5,261.13L867.12,262.8L866.51,263.37L863.62,265.36L863.17,265.94L863.08,266.23L863.16,266.56L863.52,267.04L865.99,267.94z"/>
		<path id="C54005" title="Boone" class="land" d="M203.42,658.82L200.41,659.29L192.21,665.14L186.63,659.39L184.61,656.78L179.83,652.99L178.14,650.34L174.88,650.31L171.77,651.58L168.92,653.4L165.05,653.4L163.4,651.11L161.62,647.14L158.49,645.37L156.62,643.64L156.02,642.08L156.06,640.78L156.96,639.49L159.17,637.13L159.22,634.7L158.72,632.43L156.92,630.73L155.79,628.34L154.01,625.89L150.69,624.75L136.84,621.51L125.63,617.5L121.26,615.96L122.91,609.84L128.16,605.64L133.08,604.64L127.99,603.67L121.23,600.52L122.47,591.01L125.76,586.64L124.42,584.36L129.04,576.7L137.82,580.18L136.44,573.16L139.02,574.14L139.05,571.15L142.79,572.01L145.08,570.16L142.68,569.33L145.98,563.69L150.22,570.4L150.11,563.97L154.61,562.62L154.9,558.89L163.33,566.29L165.4,560.98L170.34,559.43L172.32,561.73L180.09,561.14L178.53,565.16L179.25,569.28L181.76,570.99L187.57,571.73L189.71,576.32L193.48,580.16L195.95,579.19L203.13,585.84L199.85,589.38L199.24,594.1L205.03,597.6L207.76,596.08L213.19,605.26L212.04,609.45L213.78,614.3L211.77,614.11L208.56,615.07L206.19,615.07L203.44,615.02L200.87,617.95L197.84,619.66L195.72,622.89L194.94,625.43L194.04,626.86L193.75,628.75L194.69,629.95L194.6,632.86L195.21,634.45L195.75,636.08L194.67,637.08L195.28,638.99L194.15,641.83L195.01,646.87L198.07,650.63L200.79,651.67L202.5,654.51L202.66,657.91z"/>
		<path id="C54007" title="Braxton" class="land" d="M366.88,404.52L368.21,406.96L368.37,407.78L369.07,408.74L369.47,409.68L369.22,411.56L369.46,412.42L369.86,413.37L370.71,414.71L371.97,414.74L372.93,413.97L373.96,413.41L374.82,413.27L376.04,413.23L376.41,413.97L376.84,414.79L377.66,415.8L378.5,416.08L379.69,415.68L380.71,414.45L382,414.35L382.85,414.82L383.55,415.45L384.95,416.99L388.1,418.88L390.54,421.92L389.42,425.42L388.86,427.68L390.63,429.64L393.25,430.75L394.55,433.92L395.45,435.29L394.58,438.61L393.59,442.47L384.36,463.96L358.78,491.23L346.98,488.88L340.74,491.42L334.6,484.12L317.32,495.71L315.47,488.87L310.75,487.06L311.55,482.7L309.2,479.15L301.29,475.91L300.27,468.65L290.25,458.85L298.65,447.35L349.6,410.34L355.33,407.16L354.87,408.02L356.06,409.66z"/>
		<path id="C54009" title="Brooke" class="land" d="M353.6,106.5L354.86,105.1L355.67,103.38L355.99,101.83L356.35,98.81L356.85,96.31L358.54,92.75L359.89,91.27L361.23,90.38L361.24,90.57L363.87,88.8L364.45,88.01L365,86.34L364.9,83.28L365.24,81.71L366.73,78.91L367.4,78.16L367.94,75.67L367.83,74.85L367.4,73.27L365.98,70.22L365.62,68.62L365.8,66.85L366.35,65.25L366.55,63.47L366.17,62.19L365.33,61.3L364.47,60.6L362.39,59.86L362.23,59.72L361.87,58.55L362.13,57.79L362.58,57.48L372.64,56.36L382.68,56.39L382.68,56.57L382.68,63.84L382.49,69.93L382.48,109.69L382.48,109.7L382.48,112.77L368.75,108.7L356.34,108.33L353.2,106.69z"/>
		<path id="C54011" title="Cabell" class="land" d="M107.53,526.05L105.28,526.09L103.39,526.36L100.76,527.45L98.06,527.99L97.17,530.01L95.48,531.19L93.69,532.5L89.59,533.39L86.54,534.63L84.37,534.33L81.59,537.08L80.58,538.69L79.8,540.88L78.5,540.59L77.21,541.06L78.02,541.65L78.14,544.74L76.66,547.5L72.35,549.82L71.61,552.89L69.76,554.63L69.56,557.42L68.91,558.19L68.36,559.21L66.39,559.42L62.12,556.68L59.96,553.01L61.02,544.14L66.31,542.17L64.51,538.21L59.44,535.89L56.55,537.62L56.91,539.66L54.13,541.86L24.66,517.74L28.46,516.07L33.3,514.56L35.57,514.03L37.85,513.32L43.16,511.2L45.88,512.35L47.32,512.25L51.21,511.38L54.72,510.84L56.57,510.02L57.71,508.93L58.77,506.96L59.52,504.63L59.78,502.79L60.12,501.17L60.89,499.45L61.27,498.17L61.48,496.32L61.32,493.27L61.51,492.01L61.98,490.59L62.43,489.7L62.81,488.51L63.24,483.51L63.13,480.67L63.21,480.05L63.6,479.23L64.35,478.4L66.66,475.86L67.16,475.47L68.86,474.83L70.58,474.69L71.75,474.76L76.04,476.38L76.61,476.32L106.09,503.15z"/>
		<path id="C54013" title="Calhoun" class="land" d="M245.85,402.05L246.88,397.11L266.71,375.37L268.1,373.1L274.6,372.61L277.5,377.48L282.44,380.13L289.89,380.22L289.75,385.45L295.32,391.42L293.95,392.24L295.48,398.02L293.49,400.2L294.56,405.4L295.45,417.9L293.77,423.39L290.04,427.53L285.74,430.02L286.6,433.08L296.05,439.87L298.65,447.35L290.25,458.85L280.88,471.66L279.95,468.65L273.48,466.92L266.79,461.64L265.56,452.98L265.06,446.66L261.58,437.82L258.33,432.76L255.85,430.63L256.09,426.82L256.14,423.56L257.24,421.55L254.21,416.5L252.59,414.74L252.76,410.88L249.93,407.91L249.38,405.4z"/>
		<path id="C54015" title="Clay" class="land" d="M261.02,490.99L272.41,482.21L280.88,471.66L290.25,458.85L300.27,468.65L301.29,475.91L309.2,479.15L311.55,482.7L310.75,487.06L315.47,488.87L317.32,495.71L317.77,496.4L327.38,498.61L328.8,502.23L311.89,516.82L254.3,551.33L250.16,525.9L244.87,503.72z"/>
		<path id="C54017" title="Doddridge" class="land" d="M344.83,360.35L341.07,359.39L329.6,357.19L311.45,319.37L315.96,314.43L326.63,303.09L343.95,290.96L347.53,282.91L354.06,283.52L364.57,278.24L370.96,278L377.9,283.17L378.88,287.54L377.32,289.07L377.98,297.7L380.19,299.18L367.15,316.34L371.97,318.59L370.9,323.07L377.44,328.2L374.04,331.45L381.29,334.07L380.74,337.24L372.39,341.96L369.4,340.25L368.62,343.86L362.59,350.29L357.67,349.86L353.27,354.39L349.74,361.6z"/>
		<path id="C54019" title="Fayette" class="land" d="M317.14,587.87L315.04,593.3L324.58,599.4L328.43,596.64L331.94,597.07L329.69,600.71L326.6,601.54L326.85,604.2L332.4,605.69L334.43,613.73L337.35,614.76L329.98,622.97L341.15,642.06L330.8,641.19L305.83,652.49L299.88,649.31L290.93,650.13L285.64,648.76L286.52,643.59L280.69,645.4L277.83,643.35L282.87,643.04L282.77,639.61L242.84,636.56L241.87,635.58L243,632.88L241.69,626.54L242.57,624.14L237.97,622.27L236.94,619.11L233.45,616.71L227.42,618.43L236.3,573.26L236.7,569.86L238.12,569.58L239.27,570.31L254.27,551.38L256.3,552.04L256.62,553.41L258.66,554.48L260.42,554.66L261.4,555.73L262.08,557.31L262.9,558.46L272.48,558.27L277.52,563.53L280.91,565.4L283.65,565.08L284.72,563.29L287.64,560.43L289.12,559.24L290.69,559.6L291.77,562.12L293.89,562.58L295.68,560.8L299.92,561.39L302.1,564.63L305.88,567.61L306.17,570.23L305.27,572.47L307.43,576.66L312.29,580.29L315.07,581.96L317.62,585.49z"/>
		<path id="C54021" title="Gilmer" class="land" d="M366.88,404.52L356.06,409.66L354.87,408.02L355.33,407.16L349.6,410.34L298.65,447.35L296.05,439.87L286.6,433.08L285.74,430.02L290.04,427.53L293.77,423.39L295.45,417.9L294.56,405.4L293.49,400.2L295.48,398.02L293.95,392.24L295.32,391.42L289.75,385.45L289.89,380.22L290.85,379.53L294.64,380.41L329.99,359.48L329.6,357.19L341.07,359.39L344.83,360.35L346.9,380.49z"/>
		<path id="C54023" title="Grant" class="land" d="M631.65,425.42L592.86,392.23L592.92,391.95L591.46,390.61L595.67,387.13L597.52,382.41L600.52,372.43L596.56,364.77L594.13,356.81L596.24,349.65L599.25,343.76L602.58,338.84L600.91,334.97L595.61,332.82L589.3,335.64L587.08,335.67L584.66,338.1L580.61,338.55L577.22,338.07L573.95,340.08L570.37,340.25L568.15,337.43L568.21,334.88L568.21,334.87L570.16,335.39L571.4,334.56L574.36,333.54L576.67,332.3L579.45,329.73L579.33,328.46L580.18,327.25L581.67,326.87L586.18,321.08L588.13,319.32L590.8,318.91L592.16,318.19L593.95,316.32L593.98,316.08L593.63,315.48L593.86,314.6L596.01,313.12L599.18,312.09L601.42,313.21L603.15,313.4L603.59,313.26L604.76,310.87L605.07,307.77L606.82,306.4L608.09,306.91L613,307.99L631.62,310.21L659.43,327.54L656.27,333.47L655.54,337.36L649.32,347.81L650.64,349.71L649.15,354.9L643.95,362.33L639.68,373.62L641.82,377.4L641.1,382.41L647.38,399.21L640.38,406.95L640.94,412.4z"/>
		<path id="C54025" title="Greenbrier" class="land" d="M436.28,660.64L436.54,660.61L437.03,660.91L437.08,661.93L436.92,662.17L436.85,662.25L436.72,662.09L435.97,661.75L434.95,661.61L434.41,661.74L434.13,662.35L432.45,663.75L431.45,664.01L430.66,665.22L430.82,665.6L430.93,666.55L430.6,666.83L429.74,666.72L429.56,666.78L428.6,670.8L429.04,671.89L430.53,672.73L430.5,673.31L430.34,673.62L429.43,674.82L428.3,675.23L426.94,676.88L426.4,677.71L424.22,680.3L422.96,680.88L422.59,681.35L417.84,682.46L414.67,681.91L413.69,679.78L413.31,677.9L412.18,678.72L411.64,680.29L409.07,681.47L406.96,680.03L405.98,678.33L402.83,677.8L399.66,679.43L395.09,682.56L391.55,681.05L388.86,680.83L385.29,680.72L375.99,678.85L363.35,674.91L358.14,673.31L356.52,672.31L355.64,665.22L340.53,648.57L330.8,641.19L341.15,642.06L329.98,622.97L337.35,614.76L334.43,613.73L332.4,605.69L326.85,604.2L326.6,601.54L329.69,600.71L331.94,597.07L328.43,596.64L324.58,599.4L315.04,593.3L317.14,587.87L340.96,591.77L347.77,593.41L351.5,590.65L397.34,550.51L411.09,559.98L410.51,585.39L428.26,600.81L438.03,602.98L440.3,601.64L446.11,603.12L456.65,598.71L483.11,596.92L481.6,600.56L481.06,601.33L480.58,602.31L480.6,602.6L480.89,603.2L480.61,604.01L480.33,604.57L480.07,604.75L479.76,604.8L479.43,605.13L478.47,607.05L478.44,607.3L478.61,607.63L478.37,608.18L477.66,608.4L476.78,609.62L476.62,610.09L476.71,610.66L476.58,611.18L475.99,612.36L475.43,613.05L474.28,613.5L473.69,613.99L473.56,614.27L473.62,614.59L473.51,614.99L471.53,616.66L469.36,618.7L467.17,621.08L466.7,621.22L465.74,622.26L465.65,622.36L464.42,623.24L463.9,623.42L462.47,624.54L462.31,625.13L461.34,626.06L460.23,627.42L458.5,630.02L457.36,629.84L456.66,630.8L454.85,632.7L454.47,633.31L454.45,633.67L454.74,634L454.69,634.65L454.18,634.88L453.74,634.58L453.64,634.6L452.57,635.46L452.41,635.68L452.3,636.25L452.14,636.52L450.34,638.08L449.59,637.66L449.37,637.33L449.08,637.11L448.2,638.26L446.69,639.78L445.48,641.6L444.93,642.73L444.92,643.2L444.08,644.57L443.17,644.87L442.94,645.34L442.85,646.21L443.6,647.81L443.17,648.13L442.34,648.26L440.86,649.62L439.96,650.59L439.38,651.33L438.84,652.53L438.73,653.2L437.92,653.97L436.97,654.6L436.85,654.67L436.54,654.61L435.02,657.08L434.63,658.04L434.59,658.56L434.86,658.7L435.54,659.63z"/>
		<path id="C54027" title="Hampshire" class="land" d="M744.32,361.98L734.75,352.09L727.37,350.03L723.55,355.08L717.55,353.43L711.34,348.58L703.86,347.82L684.21,339.88L673.86,336.45L659.43,327.54L676.8,306.56L682.67,305.9L689.88,295.35L696.58,279.99L699.61,279.69L700.84,277.1L704.42,275.26L709.15,267.29L711.52,266.07L717.46,258.57L717.71,258.66L722.24,258.1L722.62,257.92L722.65,257.62L723.64,257.54L725.17,257.99L726.55,258.57L726.73,258.75L727.7,258.95L728.21,258.58L728.58,258.48L728.89,258.55L729.03,258.73L729.2,259.33L729.47,259.71L730.11,260.21L731.58,260.52L732.7,261.52L733.56,262.1L733.92,262.2L735.5,261.72L736.29,261.75L736.76,261.91L737.4,261.84L740.76,260.99L741.93,260.96L743.33,261.48L745.21,262.39L745.96,262.33L747.63,262.59L748.36,262.22L748.65,262.19L749.26,262.32L750.43,262.95L750.97,262.98L751.42,262.82L757.26,266.84L773.3,274.61L772.87,275.5L773.65,276.13L773.52,277.52L773.32,278.17L773.25,278.87L773.48,279.35L773.39,280.04L773.17,280.52L772.19,281.39L773.14,282.77L773.36,283.52L773.07,284.26L772.55,285.15L771.58,286.24L771.09,287.02L770.99,287.84L771.34,288.96L772.87,290.57L772.77,291.59L773.99,292.53L771.9,296.51L770.5,298.53L769.74,299.37L770.56,299.72L773.01,300.42L774.49,300.71L774.76,301.55L774.7,301.85L774.34,302.55L774.12,302.27L773.91,302.28L773.24,303.05L773.2,303.21L773.59,303.6L773.44,304.05L771.16,308.59L770.97,308.99L770.69,308.93L770.13,309.1L769.67,310.75L768.88,311.32L768.32,311.92L766.31,314.29L766.07,314.63L766.08,315.09L765.79,315.75L764.97,317.04L764.01,317.43L763.37,318.38L763.45,318.49L763.27,318.78L761.22,321.46L760.28,322.95L760.43,323.28L760.88,323.43L761.14,323.35L762.13,324.09L763.81,326.04L763.83,326.1L763.02,326.71L762.88,327.46L762.77,329.04L760.56,332.2L759.46,333.46L758.75,334.26L758.41,334.63L758.17,334.92L757.99,335.16L757.11,336.3L756.82,336.7L757.18,337.02L758.22,337.12L759.29,337.8L759.4,338.06L758.61,339.2L759.04,340.23L761.62,342.55L762.52,342.97L763.11,343.77L761.51,345.49L761.27,345.86L758.86,347.18L757.18,349.73L756.98,351.17L756.68,351.93L753,356.27L751.78,356.39L751.26,356.77L751.13,357.03L750.6,357.48L750.21,357.63L749.86,357.19L749.66,357.08L748.61,357.65L746.65,359.13L746.5,359.59L744.99,361.34z"/>
		<path id="C54029" title="Hancock" class="land" d="M382.48,28.53L382.49,38.09L382.5,38.96L382.73,41.6L382.68,56.39L372.64,56.36L362.58,57.48L362.86,57.28L365.19,56.34L365.73,55.68L365.8,55.39L365.63,54.5L365.71,51.93L365.58,49.39L365.71,48.1L365.9,47.41L367.04,45.32L367.13,44.59L368.23,42.56L368.62,41.38L368.86,39.5L368.73,38.58L368.06,36.86L367.48,36.47L366.29,35.22L364.68,32.27L364.16,29.86L363.93,27.92L362.97,24.31L362.43,23.81L361.96,23.63L360.47,21.33L358.48,18L357.97,17.38L356.64,16.2L355.88,15.38L355.72,14.33L355.69,13.29L356.06,12.06L356.66,11.15L357.99,9.98L358.21,9.99L358.61,9.69L359.83,8.3L360.83,6.5L361.74,5.36L363.03,4.46L365.04,4.04L367.22,3.24L368.14,3.2L368.99,3.58L369.35,3.85L370.86,5.5L371.54,5.79L372.11,5.8L372.97,5.51L373.71,5.02L374.99,3.57L376.71,2.35L377.66,2.15L378.8,1.58L380.02,0.76L380.5,0.6L381.3,0.65L381.97,0.43L382.5,0L382.49,5.29L382.48,5.29L382.48,11.48L382.48,11.48L382.48,28.53z"/>
		<path id="C54031" title="Hardy" class="land" d="M738.55,368.44L737.85,369.36L737.56,369.73L737.19,369.96L736.02,371.35L735.57,372.16L734.99,372.84L732.84,375.05L733.94,376.37L734.07,376.45L734.39,376.36L735.05,376.79L735.46,377.5L736.7,378.27L736.37,378.66L735.9,378.94L735.09,379.69L734.68,380.35L733.1,382.07L731.3,384.61L731.03,385.11L730.86,385.79L729.82,387.37L729,388.91L728.51,389.3L727.99,389.45L727.54,390.15L727.49,390.59L726.28,389.41L725.78,387.93L725.21,388L724.43,388.41L724.19,387.66L724.21,386.75L724.11,386.44L723.17,386.45L722.47,386.84L722.24,387.14L721.95,387.74L721.95,388.26L720.88,390.08L719.41,389.78L718.37,391.5L717.88,393.09L717.16,394.56L716.62,394.95L715.93,395.9L715.81,396.45L715.07,397.69L713.31,399.65L713.1,399.52L711.91,399.77L711.33,400.36L710.27,401.88L709.02,401.97L707.52,403.48L706.89,404.36L706.7,404.49L706.44,404.42L706.23,404.12L706.03,403.21L706.29,400.81L706.24,400.38L706.23,400.26L706.18,399.98L706.26,399.37L706.72,397.18L706.47,397.58L705.75,398.24L705.47,398.37L705.08,398.35L702.79,399.19L700.71,401.78L699.96,403.73L699.99,404.16L699.49,404.74L699.16,405.35L696.7,406.92L695.54,407.25L694.32,408.42L693.96,408.9L693.59,410.06L693.31,410.63L692.48,411.32L690.33,415.56L689.83,417.07L689.08,418.92L687.99,421.36L686.9,423.52L686,425.18L685.47,425.84L683.13,429.64L680.34,434.97L679.94,436.06L679.34,436.99L656.89,416.96L656.14,417.59L655.77,418.04L656.02,419.06L655.99,419.27L655.39,420.09L654.89,421.61L654.67,422.48L654.71,422.85L654.64,423.03L654.38,423.35L653.66,423.79L652.8,423.88L652.3,424.37L651.49,426.37L651.42,427.63L651.59,427.88L651.67,428.8L650.91,430.3L650.55,430.55L649.85,430.55L647.44,430.3L647.01,430.62L645.93,431.77L645.8,432.39L646.03,432.94L646.38,433.26L646.52,433.54L646.59,434.48L646.54,434.78L646.14,434.85L645.8,435.17L645.6,436.18L645.51,437.36L631.65,425.42L640.94,412.4L640.38,406.95L647.38,399.21L641.1,382.41L641.82,377.4L639.68,373.62L643.95,362.33L649.15,354.9L650.64,349.71L649.32,347.81L655.54,337.36L656.27,333.47L659.43,327.54L673.86,336.45L684.21,339.88L703.86,347.82L711.34,348.58L717.55,353.43L723.55,355.08L727.37,350.03L734.75,352.09L744.32,361.98L743.6,362.85L742.82,363.56L742.91,363.96L742.76,364.54L741.7,366.04L741.01,366.69L740.08,367.09z"/>
		<path id="C54033" title="Harrison" class="land" d="M421.86,358.47L386.03,348.07L379.38,348.38L370.58,343.53L368.62,343.86L369.4,340.25L372.39,341.96L380.74,337.24L381.29,334.07L374.04,331.45L377.44,328.2L370.9,323.07L371.97,318.59L367.15,316.34L380.19,299.18L377.98,297.7L377.32,289.07L378.88,287.54L377.9,283.17L383.11,281.17L383.63,276.33L386.98,273.78L423.03,281.97L423.61,281.65L423.83,282.45L425.13,281.71L440.38,291.51L439.48,296.04L439.45,318.13L445.94,326.47L435.45,342.96L435,356.4L431.12,359.17z"/>
		<path id="C54035" title="Jackson" class="land" d="M161.49,360.42L191.32,376.39L200.18,381.09L200.66,387.6L197.07,389.98L199.14,395.29L205.51,401.35L203.92,404.5L201.06,405.09L200.74,407.34L202.1,422.76L200.73,440.37L197.59,457.8L201.99,471.49L191.91,479.67L182.08,484.87L170.65,468.35L161.41,455.11L156.88,455.86L149.57,448.07L153.57,443.86L133.49,413.92L132.1,411.01L132.45,410.43L134.27,411.33L135.29,411.49L135.94,411.4L138.53,409.81L141.4,407.73L141.93,407.15L143.24,405.15L143.84,403.15L143.71,402.44L143.99,398.85L145.15,396.92L146.33,395.41L147.08,394.9L147.49,394.74L148.45,394.65L149.44,394.84L150.89,395.78L152.65,397.99L153.19,398.52L154.58,399.44L155.37,399.76L156.66,400.19L157.44,400.24L158.07,400.19L158.72,399.92L159.2,399.53L159.46,399.04L159.89,397.75L159.74,396.92L157.45,394.26L156.68,393.58L155.8,392.6L155.46,391.89L155.27,390.52L155.62,388.71L156.36,386.87L156.23,386.57L156.19,385.86L156.4,384.71L156.67,383.89L157.04,383.16L157.9,382.41L158.27,381.84L158.43,380.92L158.43,378.91L157.89,377.82L156.88,376.39L154.42,374L153.2,373.12L151.93,372.06L151.39,371.43L150.39,369.7L149.9,368.69L149.59,367.23L149.45,365.48L149.5,364.14L149.77,363.49L150.08,363.22L150.58,363.06L151.45,363.08L152.33,363.31L153.66,364.03L154.6,364.3L155.33,364.42L156.4,364.35L158.32,363.52L159.06,363.03L160.57,361.69L161.49,360.42z"/>
		<path id="C54037" title="Jefferson" class="land" d="M829.84,321.35L829.78,321.3L829.78,321.3L830.11,320.31L829.55,317.92L831.43,315.71L833.5,313.63L835.37,311.05L837.77,308.6L837.52,307.04L838.89,304.62L839.56,302.72L840.65,301.67L841.88,301.72L841.78,300.47L842.29,298.54L843.6,297.22L845.34,295.32L847.92,294.71L855.63,286.78L861.38,280.74L863.25,278.27L864.14,276.09L864.41,275.21L865.03,273.11L865.94,271.12L866.79,269.23L867.15,268.05L868,268.14L870.33,268.99L871.41,269.18L872.52,269.13L873.22,268.86L873.58,268.53L874.16,267.51L874.54,267.17L875.05,266.94L876.35,266.84L876.96,266.93L877.41,267.24L877.86,267.71L877.96,268.02L877.93,268.34L877.66,268.73L877.29,268.98L876.82,269.23L875.02,269.71L873.8,270.19L872.55,270.94L872.33,271.25L872.13,271.65L872.06,272.36L872.32,273.12L872.52,273.4L873.6,274.19L875.6,275.16L875.73,275.35L875.73,275.56L875.48,275.92L875.25,276.04L874.7,275.99L872.97,275.53L872.42,275.61L872.01,275.85L871.86,276.38L872.07,276.94L872.98,278L874.24,278.98L874.33,279.4L874.25,279.67L873.79,279.99L871.58,280.46L871.22,280.82L871.15,281.31L871.28,281.59L871.94,282.2L873.04,282.83L874.03,283.13L876.26,283.47L878.34,283.33L879.16,283.71L879.89,284.21L880.18,284.53L880.25,285.25L881.19,287.39L882.53,289.54L883.18,291.63L883.27,292.33L883.2,292.77L882.88,293.13L882.39,293.31L880.78,293.6L880.33,293.8L880.12,294.08L880.05,294.65L880.14,294.96L881.79,298.01L881.83,299.22L881.46,300.78L880.66,301.65L879.06,302.61L878.86,302.87L878.74,303.25L878.73,303.9L879,304.46L879.69,305.25L883.43,306.85L884.17,307.39L884.8,308.09L886.31,308.21L886.14,308.54L885.84,308.82L884.32,309.48L883.45,310.23L881.22,314.26L880.68,315.59L880.24,316.96L880.13,317.66L880.18,318.21L880.17,318.35L879.8,318.85L879.71,318.99L879.22,320.24L879.16,320.49L878.71,321.5L878.62,321.66L878.42,322.73L877.76,322.98L877.49,322.91L877.32,323.2L877.08,323.3L877.01,323.46L876.98,324.74L877.03,324.82L877.62,324.82L876.88,327.74L875.68,329.47L875.11,330.02L874.68,330.68L873.76,332.72L872.88,333.91L872.71,334.79L872.06,336.1L872.01,336.35L872.15,337.58L872.11,337.91L870.89,341.01L870.94,341.32L870.82,342.21L870.66,342.62L870.09,343.51L869.7,343.75L869.36,344.33L868.42,346.59L867.88,347.25L867.62,348.32L867.6,348.86L867.74,349.48L867.75,350.12L866.67,351.89z"/>
		<path id="C54039" title="Kanawha" class="land" d="M170.65,468.35L182.08,484.87L191.91,479.67L201.99,471.49L204.62,478.37L211.08,486.71L212.21,485.89L233.05,487.86L241.34,489.35L246.6,492.32L256.26,490.03L261.02,490.99L244.87,503.72L250.16,525.9L254.3,551.33L254.27,551.38L239.27,570.31L238.12,569.58L236.7,569.86L236.3,573.26L227.42,618.43L217.04,618.68L213.78,614.3L212.04,609.45L213.19,605.26L207.76,596.08L205.03,597.6L199.24,594.1L199.85,589.38L203.13,585.84L195.95,579.19L193.48,580.16L189.71,576.32L187.57,571.73L181.76,570.99L179.25,569.28L178.53,565.16L180.09,561.14L172.32,561.73L170.34,559.43L165.4,560.98L163.33,566.29L154.9,558.89L154.61,562.62L150.11,563.97L150.22,570.4L145.98,563.69L146.03,560.65L148.12,559.28L151.69,560.97L149.78,556.64L151.54,551.2L149.69,540.45L146.49,537.91L143.77,540.03L136.56,539.68L131.27,537.21L133.96,520.53L145.72,513.47L156.34,509.33L165.79,504.64L162.38,493.22L160.25,491.79L161.5,485.05L160,478.51z"/>
		<path id="C54041" title="Lewis" class="land" d="M393.59,442.47L394.58,438.61L395.45,435.29L394.55,433.92L393.25,430.75L390.63,429.64L388.86,427.68L389.42,425.42L390.54,421.92L388.1,418.88L384.95,416.99L383.55,415.45L382.85,414.82L382,414.35L380.71,414.45L379.69,415.68L378.5,416.08L377.66,415.8L376.84,414.79L376.41,413.97L376.04,413.23L374.82,413.27L373.96,413.41L372.93,413.97L371.97,414.74L370.71,414.71L369.86,413.37L369.46,412.42L369.22,411.56L369.47,409.68L369.07,408.74L368.37,407.78L368.21,406.96L366.88,404.52L346.9,380.49L344.83,360.35L349.74,361.6L353.27,354.39L357.67,349.86L362.59,350.29L368.62,343.86L370.58,343.53L379.38,348.38L386.03,348.07L421.86,358.47L420.99,368.25L418.66,379.33L415.69,383.22L418.75,391.96L413.2,396.28L414.98,396.99L413.21,401.91L410.69,403.92L409.7,408.56L407.54,408.33L406.25,411.27L402.19,435.78L405.15,445.13L395.87,445.32z"/>
		<path id="C54043" title="Lincoln" class="land" d="M128.16,605.64L121.83,606.13L120.94,607.16L118.03,605.75L107.99,608.05L81.71,617.14L60.88,624.22L63.47,621.78L71.83,611.9L72.86,610.97L73.78,610.35L78.89,606.2L79.07,604.74L79.76,603.11L79.9,599.92L76.83,595.61L73.68,593.46L72.73,589.55L70.38,588.01L68.91,586.96L68.05,585.51L68.03,584.51L69.37,582.09L69.2,580.83L68.17,580.16L66.59,579.38L65.44,579.28L64.71,578.23L64.75,577.29L65.4,576.74L66.45,574.46L66.98,570.88L66.34,565.71L68,560.84L68.36,559.21L68.91,558.19L69.56,557.42L69.76,554.63L71.61,552.89L72.35,549.82L76.66,547.5L78.14,544.74L78.02,541.65L77.21,541.06L78.5,540.59L79.8,540.88L80.58,538.69L81.59,537.08L84.37,534.33L86.54,534.63L89.59,533.39L93.69,532.5L95.48,531.19L97.17,530.01L98.06,527.99L100.76,527.45L103.39,526.36L105.28,526.09L107.53,526.05L108.26,534.54L107.27,545.3L112.62,547.28L116.58,550.66L131.27,537.21L136.56,539.68L143.77,540.03L146.49,537.91L149.69,540.45L151.54,551.2L149.78,556.64L151.69,560.97L148.12,559.28L146.03,560.65L145.98,563.69L142.68,569.33L145.08,570.16L142.79,572.01L139.05,571.15L139.02,574.14L136.44,573.16L137.82,580.18L129.04,576.7L124.42,584.36L125.76,586.64L122.47,591.01L121.23,600.52L127.99,603.67L133.08,604.64z"/>
		<path id="C54045" title="Logan" class="land" d="M151.47,688.43L149.4,689.6L145.15,685.8L142.95,687.55L140.3,684.26L135.26,688.09L132.79,687.84L131.48,683.92L128.56,683.56L125.94,686L119.71,686.71L117.19,692.93L115.83,687.99L111.94,686.7L111.77,683.72L108.59,679.13L101.14,679.13L100.47,672.14L96.83,668.06L94.95,668.7L96.1,664.39L97.95,664.32L96.97,656.57L92.22,654.63L89.76,647.9L95.78,644.57L92.83,639.16L94.33,635.84L86.56,631.32L85.04,625.9L80.58,619.49L81.71,617.14L107.99,608.05L118.03,605.75L120.94,607.16L121.83,606.13L128.16,605.64L122.91,609.84L121.26,615.96L125.63,617.5L136.84,621.51L150.69,624.75L154.01,625.89L155.79,628.34L156.92,630.73L158.72,632.43L159.22,634.7L159.17,637.13L156.96,639.49L156.06,640.78L156.02,642.08L156.62,643.64L158.49,645.37L161.62,647.14L163.4,651.11L165.05,653.4L168.92,653.4L171.77,651.58L174.88,650.31L178.14,650.34L179.83,652.99L184.61,656.78L186.63,659.39L184.45,660.09L180.26,661.65L176.52,662.2L173.8,662.79L171.41,662.89L168.96,664.42L165.27,665.35L162.57,665.3L160.52,666.16L159.56,666.66L161.02,670.39L164.78,674.2L166.37,679.85L163.85,683.08L160.9,683.26L155.7,684.87L152.28,687.48z"/>
		<path id="C54047" title="McDowell" class="land" d="M141.93,713.67L147.24,716.72L146.77,721.62L148.77,723.22L168.66,725.78L172.83,723.04L173.24,720.76L178.19,719.45L182.76,722.12L184.85,719.95L187.62,726.27L191.07,727.58L196.36,726.57L201.12,730.22L206.56,730.59L212.12,728.17L218.25,736.32L224.28,732.74L226.6,733.46L228.56,737.5L233.75,739.72L236.54,739.3L239.95,741.76L230.78,761.33L230.03,761.73L229.9,762.05L229.71,762.52L229.48,762.65L229.5,762.94L229.72,763.19L229.8,763.61L229.13,764.39L228.9,765.28L228.57,765.63L228.05,765.67L227.54,765.81L226.83,765.64L226.69,765.58L226.52,765.3L226.36,765.21L226.11,765.34L225,766.13L224.23,767.43L224.21,768.07L224.45,768.39L224.54,768.81L224.3,769.16L223.58,769.45L223.06,770.1L223.29,770.59L222.32,772.96L222.22,773.24L222.25,773.42L221.89,774.25L220.97,775.86L218.94,776.35L218.06,775.97L215.28,776.45L215.14,776.67L214.22,777.26L213.37,777.38L213.07,777.59L213.2,777.95L213.18,778.26L212.8,778.85L210.22,779.93L209.55,780.83L208.94,780.95L207.37,780.87L206.75,780.54L206.33,780.03L206.26,779.6L206.38,779.46L206.38,779.3L206.18,779.28L205.4,780.5L205.23,781.06L205.1,781.6L204.82,782.33L204.85,783.5L204.66,784.73L204.4,785.01L202.25,786.28L201.04,786.53L200.03,787.07L197.98,787.66L197.84,787.8L197.12,789.24L196.33,790.43L195.88,790.67L195.74,790.7L195.67,790.6L195.48,790.5L195.07,790.83L173.91,792L173.84,791.78L173.34,791.52L173,791.06L172.87,789.84L172.95,789.76L172.38,789.39L170.87,789.28L170.18,788.24L167.16,785.86L167.07,784.61L166.47,783.83L165.84,783.22L165.28,783.22L164.92,783.37L164,783.75L163.06,783.72L162.92,783.6L162.07,782.76L162.02,782.39L162.18,782.02L162.16,781.62L162.62,780.17L162.49,780.01L162.25,779.93L161.81,779.25L161.8,778.53L161.69,778.02L161.42,777.86L160.76,777.68L160.61,777.58L160.47,777.34L160.09,777.09L159.64,776.58L159.61,776.33L159.6,776.15L159.62,775.68L159.16,775.4L158.88,775.29L158.7,775.37L158.5,775.41L158.26,775.43L157.79,775.63L156.55,775.5L156.54,775.49L156.08,775.26L155.71,774.92L155.71,774.33L155.03,773.75L153.92,773.33L153.18,773.95L153.14,773.84L153.24,773.53L153.15,773.24L151.41,773L151.03,773.06L150.7,773.61L150.35,773.65L150.1,773.66L149.62,774.08L148.99,774.36L148.47,774.46L147.49,774.43L145.8,773.93L145.81,773.63L145.99,773.31L145.8,773.11L145.02,772.9L144.38,773.08L144.23,773.07L143.58,773.28L143.01,773.15L142.36,772.59L142.27,771.77L142.37,771L142.2,769.84L142.29,769.73L142.35,769.65L142.2,768.34L141.92,768.31L141.27,768.75L140.84,768.55L140.35,767.93L140.26,767.83L140.18,767.69L140.22,767.54L140.53,767.07L141.21,766.68L141.15,766.29L139.87,765.13L139.37,765.17L138.92,764.57L138.82,764.18L137.9,763.33L137.83,762.67L137.67,762.6L137.44,762.81L136.69,762.92L136.35,762.9L136.21,762.81L135.29,763.04L135.13,763.04L134.95,762.75L134.94,762.61L134.82,762.61L134.72,762.62L134.1,760.75L134.1,760.56L133.47,760.29L133.32,760.13L132.93,760.19L132.86,760.19L132.69,760.11L132.58,759.96L132.05,758.85L131.94,758.82L131.85,758.71L131,758.71L130.36,757.79L130.28,757.34L130.12,757.11L129.39,756.91L129.22,756.54L128.88,756.16L129.2,755.26L128.62,754.82L128.57,754.79L127.91,753.43L128.11,753.1L127.91,752.29L127.55,752.12L127.39,751.63L127.96,749.72L128.83,748.67L128.92,747.72L128.46,746.91L128.6,746.09L129.09,745.74L129.37,745.74L129.59,745.57L129.78,744.72L128.16,743.85L127.36,742.79L126.71,740.73L127.2,740.04L127.65,739.08L127.59,738.62L127.02,738.16L126.6,738.15L126.29,738.28L125.77,738.21L125.12,736.98L123.45,736.45L122.2,736.7L121.53,735.93L121.63,735.67L120.3,734.38L119.61,734.38L118.73,735.03L118.35,734.9L117.4,733.54L116.79,731.53L116.63,729.98L117.29,728.56L117.84,728.13L118.58,727.95L119.55,728L119.76,728.19L120.04,728.19L121.28,727L122.31,726.19L123.71,726.64L124.42,726.58L124.53,726.46L124.52,726.04L124.26,725.78L124.22,725.6L124.27,724.76L124.44,724.42L124.68,724.25L125.15,724.18L125.73,724.29L126.1,724.06L126.05,723.14L126.26,722.77L126.6,722.58L128.2,722.02L128.99,721.98L129.01,721.96L132.32,718.61z"/>
		<path id="C54049" title="Marion" class="land" d="M404.66,234.79L409.72,235.67L413.36,240.76L448.25,241.05L453.17,248.25L458.55,252.16L468.1,261.38L468.82,265.02L473.09,266.36L473.74,269.58L486.88,277.76L473.9,285.85L471.38,289.59L460.17,293.13L456.35,287.6L454.57,289.5L440.38,291.51L425.13,281.71L423.83,282.45L423.61,281.65L423.03,281.97L386.98,273.78L388.28,270.81L390.73,265.32L388.55,260.17L387.04,255.62L387.46,250.1L389.21,246.79L389.6,245.58L393.63,243.97L396.05,240.68L396.71,235.97L399.39,234.01L401.89,234.06L402.49,235.08z"/>
		<path id="C54051" title="Marshall" class="land" d="M382.45,158.96L382.46,159.01L382.46,159.67L382.46,160.31L382.47,164.39L382.45,164.91L382.51,175.66L382.42,195.45L382.43,215.22L325.91,215.35L325.71,215.17L325.35,214.63L323.64,211.39L322.44,210.64L322.09,210.28L320.18,207.79L319.77,206.89L319.35,205.39L319.5,204.74L320,203.48L320.59,202.68L325.58,199.06L327.24,197.22L327.44,196.64L327.94,194.16L327.89,191.07L327.79,190.48L327.21,188.54L327.08,187.17L327.23,186.57L327.56,185.89L328.1,185.23L328.98,184.52L331.95,183.14L333.17,182.01L333.59,181.19L333.7,180.03L333.01,177.57L332.62,176.93L331.51,175.51L330.82,174.18L330.31,172.79L330.19,172.12L330.26,171.14L330.56,170.06L330.85,169.54L331.32,169.16L331.84,169.01L332.7,168.95L335.02,169.54L336.85,170.91L337.64,171.29L338.66,171.47L339.01,171.47L339.26,171.33L339.44,171.11L339.77,170.29L339.86,169.68L339.71,168.74L338.89,166.75L338.32,162.66L338.32,161.8L338.52,161.04L339.39,159.7L340,159.16L341.6,158.07L342.16,157.39L342.71,157L342.96,153.65L342.72,151.59L342.53,150.9L342.36,148.85L342.39,148.31L342.64,146.61L343.12,145.31L343.21,144.79L343.2,143.71L343.39,143.16L343.93,142.38L343.94,142.36L382.47,146.33L382.46,158.73z"/>
		<path id="C54053" title="Mason" class="land" d="M156.88,455.86L123.97,461.25L104.39,472.58L106.09,503.15L76.61,476.32L79.09,476.31L81.14,475.99L82.04,475.56L83.27,474.55L84.11,473.54L84.49,472.46L85.05,469.99L85.05,468.45L84.94,467.6L84.65,466.8L84.2,464.6L83.79,463.2L82.62,460.74L82.53,459.09L82.24,457.73L81.67,455.97L81.79,454.36L82.71,451.65L83.11,450.2L83.18,449.45L82.8,447.82L82.44,446.3L82.13,443.64L81.88,442.88L81.24,442L80.81,439.42L80.23,438.2L79.75,437.59L78.74,436.77L77.03,435.76L76.34,434.52L76.15,433.13L76.14,431.43L76.92,429.48L77.42,428.79L78.35,427.87L80.15,426.49L81.61,425L83.72,424.49L86.16,423.33L86.94,422.82L89.44,419.98L89.94,419.17L90.53,416.66L90.96,413.53L90.82,412.3L90.43,410.75L89.87,409.28L90,407.39L90.25,405.92L91.76,404.19L92.82,403.18L94.25,400.62L95.92,397.97L96.12,397.35L96.06,396.17L96.39,394.98L97.92,392.65L98.22,392.04L98.94,390.6L99.25,389.12L99.54,388.48L99.98,387.97L101.73,386.79L103.62,385.92L105.44,384.72L106.73,383.73L107.16,383.06L107.79,381.56L108.53,378.31L109.04,377.2L109.54,376.56L111.11,375.89L112.85,375.49L114.74,375.61L115.6,376L116.92,377.25L117.57,378.19L118.34,379.67L118.93,381.17L119.11,381.98L119.24,383.42L119.4,383.73L119.72,384L120.07,384.12L120.71,384.18L121.81,384.06L123.06,383.75L123.34,383.53L124.75,383.35L126.48,383.98L127.38,384.64L128.03,385.28L129.23,387.62L130.73,390.13L131.77,392.96L132.82,395.05L133.9,396.8L134.28,398.66L134.01,399.62L133.84,399.87L132.5,401.47L131.86,401.89L130.81,403.03L130.57,403.49L129.21,405.17L128.9,406.54L128.97,406.97L129.15,407.41L131.14,409.1L132.15,410.24L132.45,410.43L132.1,411.01L133.49,413.92L153.57,443.86L149.57,448.07z"/>
		<path id="C54055" title="Mercer" class="land" d="M239.95,741.76L245.1,742.58L240.64,733.86L245.83,731L249.43,724.98L255.98,722.36L256.9,722.83L257.5,722.15L257.58,721.21L258.5,719.81L258.2,718.18L258.5,717.41L259.38,716.81L259.78,715.93L259.73,714.76L259.53,713.68L259.51,712.67L260.01,711.92L259.77,710.07L260.1,708.01L261.84,706.82L263.79,706.75L264.71,705.44L266.72,704.58L268.48,703.85L270.39,702.86L272.33,703.63L273.94,704.13L275.34,704.35L276.81,703.82L277.78,704.43L278.92,704.68L320.24,739.71L320.71,740.19L320.84,740.37L321.21,740.62L320.57,741.73L320.21,742.79L320.21,743.45L320.33,744.09L320.64,744.62L316.95,750.91L323.03,759.26L320.18,760.7L319.52,761.13L317.52,763.31L313.84,766.45L310.47,768.44L309.07,769L308.34,769.18L307.08,769.76L305.32,770.75L301.96,771.59L300.64,771.75L299.52,771.46L299.31,771.3L299.15,770.72L299.71,769.69L299.62,769.31L296.66,769.93L295.84,770.3L294.42,770.71L292,771.14L289.25,772.02L280.83,773.34L278.88,773.73L275.69,774.67L270.32,776.77L267.34,777.62L265.89,778.18L263.89,779.29L259.1,782.66L255.44,784.49L238.35,769.98L230.78,761.33z"/>
		<path id="C54057" title="Mineral" class="land" d="M659.43,327.54L631.62,310.21L613,307.99L608.09,306.91L606.82,306.4L607.35,305.99L609.88,304.79L610.13,304.48L610.12,300.58L610.42,299.98L613.37,299.51L614.57,298.35L616.17,298.47L617.32,297.97L619.3,295.06L620.2,293.15L620.63,292.76L621.03,292.72L621.72,293.06L623.55,292.63L623.97,291.75L624.4,291.61L625.14,291.78L625.73,291.49L626.02,290.59L625.86,289.72L626.78,287.17L627.17,286.91L627.53,286.91L628.18,287.14L628.54,287.9L628.9,288.13L629.28,288.13L629.64,288.13L629.94,287.95L630.14,287.49L630.27,286.62L630.5,286.07L631.22,285.84L632.03,285.69L632.46,285.31L632.61,284.53L632.53,283.75L632.59,283.08L633.5,282.23L633.94,282.32L634.32,282.24L634.59,281.95L634.77,281.63L634.84,281.1L634.88,280.54L635.29,279.88L636.39,279.32L637.06,278.71L638.64,275.42L638.51,274.72L638.14,274.05L637.99,273.63L638.02,273.35L638.17,273.21L638.45,273.04L638.77,272.93L639.38,273.13L640.83,273.37L643.47,272.64L645.63,273.45L645.92,272.97L646.12,271.34L646.38,270.83L646.72,270.6L647.49,270.48L649.17,272.11L649.4,272.91L649.39,273.38L649.72,274.21L650.35,274.75L650.75,274.83L652.12,274.38L652.73,274.39L654,275.77L656.36,277.18L659.63,278.64L661.19,279.88L661.67,280.7L662.03,281.01L663.6,280.59L663.83,280.12L664.21,275.16L665.42,274.58L666.26,273.7L666.81,272.74L666.76,272.46L666.34,272.09L666.14,271.46L666.2,271.14L666.83,270.5L667.76,269.93L668.95,269.74L670.54,270.01L670.84,269.85L672.24,267.49L674.65,263.91L675.39,262.33L676.33,261.48L677.57,261.79L677.98,261.78L678.35,261.47L679.39,259.43L679.4,259.17L682.46,254.67L682.62,254.16L682.59,252.8L684.86,251.08L686.35,251.53L687.05,252.18L687.95,252.64L688.79,252.39L689.37,250.98L689.08,250.14L688.18,248.99L687.06,248.75L687.12,246.08L687.34,245.75L688.4,245.72L689.6,244.01L689.61,243.35L690.12,241.6L691.48,241.89L691.72,242.26L692.19,242.34L692.55,241.87L692.63,240.99L692.53,240.17L691.49,237.08L692.53,234.8L693.43,234.57L694.67,234.94L695.16,234.92L696.26,232.85L697.95,232.2L698.09,232.75L698.04,233.24L697.53,234.34L696.99,234.55L696.72,234.9L695.67,237.8L695.67,238.21L695.85,238.43L697.28,238.96L698.43,239.08L699.6,238.13L701.07,237.37L702.08,237.64L703.28,238.43L703.76,239.87L703.72,240.24L702.77,241.22L701.33,242.15L700.94,241.96L700.92,241.48L700.53,241.16L698.91,241.16L697.54,241.45L695.96,242.54L695.74,242.99L695.73,243.16L696.43,244.1L696.82,244.29L697.11,244.64L697.47,245.44L697.5,245.95L697.65,246.39L698.96,247.63L699.58,247.97L701.44,248.24L702,247.96L702.55,246.81L702.87,246.66L703.68,246.59L703.83,247.27L704.04,249.21L705.05,251.02L705.29,251.86L707.13,252.18L707.4,252.31L708.24,253.52L708.52,253.74L710.76,254.35L711.09,254.65L711.24,254.92L711.33,255.65L711.69,256.09L712.96,256.53L714.18,257.34L715.42,257.39L716.27,258.18L717.46,258.57L711.52,266.07L709.15,267.29L704.42,275.26L700.84,277.1L699.61,279.69L696.58,279.99L689.88,295.35L682.67,305.9L676.8,306.56z"/>
		<path id="C54059" title="Mingo" class="land" d="M141.93,713.67L132.32,718.61L129.01,721.96L129.19,721.77L129.26,721.51L128.05,720.43L127.35,721.5L127.03,721.8L126.45,721.94L126.11,721.81L125.95,721.63L125.82,720.96L126.13,720.29L126.14,719.93L125.53,719.32L125.43,719.05L125.45,718.5L126.09,717.87L126.09,717.72L125.72,717.55L124.37,718.38L123.81,718.28L123.62,717.98L123.67,717.22L123.76,716.98L123.68,716.77L123.32,716.76L121.84,717.3L121.54,716.96L121.72,716.18L122.24,715.42L122.31,715L121.38,714.21L120.26,714.45L119.46,715.15L119.16,715.27L118.26,715.04L117.97,715.11L117.34,716.06L117.08,716.22L116.57,716L116.57,715.05L116.34,714.98L116.04,715.1L114.68,717.11L114.36,717.21L113.5,717.13L113.15,716.96L112.97,716.01L112.61,715.55L112.23,715.56L111.47,716.07L110.82,716.21L109.37,715.06L109.17,714.12L109,713.89L108.31,713.79L107.95,714.16L107.89,714.66L107.95,715.27L108.38,716.64L108.38,717.06L108.02,718.16L107.62,718.35L107.34,718.17L107.29,717.04L107.09,716.76L106.15,716.41L105.67,716.38L104.99,716.58L104.62,716.54L104.42,716.39L104.35,715.9L104.55,715.25L104.42,714.66L102.83,712.29L102.51,712.1L100.79,712.2L99.96,712.06L98.21,712.67L97.5,712.73L97.2,712.68L97.09,712.52L97.24,712.14L97.67,711.59L97.61,711.28L97.45,711.14L95.03,711.25L94.31,711.84L94.06,712.8L93.73,713.11L93.14,713.12L92.3,712.87L92.03,712.74L91.81,712.42L91.77,711.78L91.99,711L91.91,710.65L91.4,710.16L90.25,709.86L90,709.59L89.98,709.28L90.2,708.82L90.49,708.69L92.69,708.45L93.1,708.29L93.63,707.45L93.64,707.14L93.41,706.86L93.1,705.13L92.59,704.03L92.26,703.58L90.54,703.21L89.67,703.78L89.3,704.17L87.81,703.75L87.65,702.85L87.92,701L87.81,700.04L87.48,699.96L86.42,700.3L85.76,700.2L85.59,699.88L85.57,699.17L86.36,697.98L86.47,697.55L85.94,697.18L85.51,697.15L84.93,697.63L84.22,698L83.37,697.18L83.18,696.7L83.37,696.06L84.8,695.09L84.98,694.75L84.92,694.42L84.35,693.66L84.07,692.97L84.1,692.68L84.58,691.59L84.59,691.39L84.47,691.26L84.05,691.04L82.64,691.05L82.19,691.35L81.56,692.08L81.6,692.42L81.88,692.98L82.21,693.4L82.28,693.74L82.49,695.49L82.42,695.88L82.31,696.02L81.39,696.33L79.81,695.81L79.58,695.9L79.41,696.21L79.24,696.28L78.28,696.44L77.6,696.37L77.21,696.18L77.36,695.88L76.39,694.45L76.38,694.25L76.59,694L77.02,693.08L77.02,692.77L76.54,692.41L75.78,692.04L75.53,691.48L75.43,690.37L75.33,690.11L72.94,688.21L72.69,688.14L72.12,688.33L70.62,689.24L69.75,689.28L67.8,688L67.06,687.69L66.01,686.28L65.22,684.96L65,684.9L64.79,685.08L64.47,686.25L64.16,686.68L63.51,686.47L63.04,686.18L62.98,685.77L63.09,685.51L63.04,684.48L62.98,684.41L62.62,684.45L61.61,685.02L61.32,684.98L61.22,684.66L61.33,684.38L62.55,683.06L62.73,682.62L62.7,682.42L62.43,682.26L61.76,681.58L61.51,680.92L61.68,680.34L62.51,679.53L62.64,678.94L62.38,678.55L61.86,678.1L61.01,677.97L60.73,677.75L60.11,676.47L60.03,675.56L59.92,675.24L59.12,674.61L58.82,673.21L58.74,672L58.63,671.84L58.49,671.69L57.2,671.27L56.08,670.21L56.03,670.15L55.99,669.68L56.95,668.5L58.18,667.87L58.25,666.93L58.61,666.14L58.85,665.98L59.7,665.74L60.07,665.44L60.09,665.28L59.94,664.92L59.72,664.75L58.86,664.79L57.11,665.39L56.73,665.35L56.42,665.19L55.95,664.67L55.93,664.46L56.33,664.04L57.77,663.05L57.89,662.74L57.77,662.49L57.38,662.23L56.66,662.29L56.16,662.66L55.56,662.61L55.27,662.41L55.03,662.07L55,661.75L55.13,661.26L54.89,660.11L54.75,659.99L53.24,659.73L52.26,658.39L51.93,658.22L51.02,658.09L50.55,657.86L50.34,657.55L50.23,657.21L49.83,656.68L49.44,656.43L48.56,656.34L48.1,656.14L47.9,654.94L47.71,654.35L46.69,652.88L46.45,652.7L46.24,652.7L45.98,652.92L45.16,654.18L44.58,654.78L44.27,654.83L43.74,654.54L43.64,654.33L43.64,653.95L44.32,651.92L44.09,650.04L42.62,648.77L42.43,648.51L41.85,646.67L41.67,646.54L40.91,646.47L40.35,646.21L40.35,646.05L41.26,644.55L41.35,644.22L45.04,647.2L43.36,642.56L60.88,624.22L81.71,617.14L80.58,619.49L85.04,625.9L86.56,631.32L94.33,635.84L92.83,639.16L95.78,644.57L89.76,647.9L92.22,654.63L96.97,656.57L97.95,664.32L96.1,664.39L94.95,668.7L96.83,668.06L100.47,672.14L101.14,679.13L108.59,679.13L111.77,683.72L111.94,686.7L115.83,687.99L117.19,692.93L119.71,686.71L125.94,686L128.56,683.56L131.48,683.92L132.79,687.84L135.26,688.09L140.3,684.26L142.95,687.55L145.15,685.8L149.4,689.6L151.47,688.43L152.8,694.99L151.34,699.36L146.6,702.82L145.82,709.08z"/>
		<path id="C54061" title="Monongalia" class="land" d="M462.21,215.23L490.96,215.33L502.31,215.38L502.35,215.38L518.39,215.36L518.39,220.93L514.5,230.15L513.8,237.95L493.92,270.92L494.83,281.67L486.88,277.76L473.74,269.58L473.09,266.36L468.82,265.02L468.1,261.38L458.55,252.16L453.17,248.25L448.25,241.05L413.36,240.76L409.72,235.67L404.66,234.79L404.76,224.74L402.57,216.07L400.06,215.27L420.2,215.25L420.34,215.24z"/>
		<path id="C54063" title="Monroe" class="land" d="M356.52,672.31L358.14,673.31L363.35,674.91L375.99,678.85L385.29,680.72L388.86,680.83L391.55,681.05L395.09,682.56L399.66,679.43L402.83,677.8L405.98,678.33L406.96,680.03L409.07,681.47L411.64,680.29L412.18,678.72L413.31,677.9L413.69,679.78L414.67,681.91L417.84,682.46L422.59,681.35L423.28,683.12L423.29,683.17L425.61,689.2L427.24,691.04L427.23,691.05L427.76,691.69L427.8,691.71L428.22,691.82L428.23,691.82L428.5,691.91L428.51,691.92L430.09,692.54L430.1,692.54L432.82,693.6L436.12,695.84L435.69,696.87L435.21,697.58L432.65,700.54L430.94,701.64L429.29,703.13L428.46,703.62L427.24,704.12L425.06,705.4L422.82,706.92L416.77,710.19L419.67,714.27L419.3,714.75L418.08,715.36L417.51,715.44L416.95,715.68L416.45,716.53L420.22,718.53L423.4,716.47L425.07,717.15L421.94,722.85L420.13,723.85L420.22,724.07L419.24,724.5L418.19,724.97L417.02,725.76L416.13,726.13L414.02,726.49L409.87,728.13L410.53,729.23L409.4,730L408.95,730.57L407.81,731.18L407.05,731.41L403.93,733.23L403.4,733.68L399.29,736.03L396.16,738.68L394.66,739.61L393.59,740.01L392.24,741.39L390.3,742.11L386.84,739.37L386.4,737.18L387.18,734.26L383.86,728.86L383.5,729.36L383.19,729.56L381.69,729.93L380.81,729.83L380.09,729.88L379.89,730.04L378.75,730.47L377.85,730.43L376.55,730.69L374.86,731.54L373.98,732.26L370.46,734.5L369.68,735.26L369.47,735.68L367.88,736.87L364.9,738.39L363.94,739.17L363.84,739.77L363.18,739.77L362.1,740.04L361.73,740.24L361.19,740.66L361.16,740.84L361.27,741.09L359.66,742.29L358.28,742.88L357.72,743.32L356.38,744.08L356.23,744.08L352.7,746.24L351.42,746.89L348.99,748.5L347.14,749.38L345.68,749.93L344.24,750.73L343.08,751.22L341.73,751.77L341.16,751.79L339.15,752.95L337.32,753.52L336.13,750.97L336.11,750.86L335.12,749.76L334.92,749.39L334.93,748.91L334.78,748.51L333.67,748.26L332.14,748.23L331.85,748.25L330.83,747.72L330.65,746.98L330.79,746.36L330.35,745.87L329.84,745.59L325.37,741.79L325.15,741.5L324.43,741.43L323.98,741.97L323.6,742.01L322.82,741.41L322.37,741.22L321.68,741.18L321.43,740.93L321.41,740.9L332.21,719.72L341.26,704.92L357.04,676.19z"/>
		<path id="C54065" title="Morgan" class="land" d="M831.72,238.92L829.46,238.68L818.69,247.62L810.75,244.92L794.59,291.96L788.46,286.61L783.93,283.26L773.3,274.61L757.26,266.84L751.42,262.82L752.46,261.88L752.81,260.68L752.79,259.91L752.64,259.06L752.75,258.66L753.11,258.38L754.59,258.2L754.87,257.87L754.84,257.51L754.79,257.19L754.87,256.9L755.29,256.65L755.62,256.65L756.22,257.14L756.87,257.72L757.23,257.59L757.46,257.04L757.52,256.5L757.52,255.85L757.69,255.35L758.3,255.24L758.93,255.89L759.45,255.96L759.98,255.85L760.29,255.71L760.4,255.35L760.17,254.7L759.58,253.64L759,252.98L756.91,251.96L754.74,250.25L753.99,249.45L753.28,248.03L753.33,246.91L753.49,246.41L753.96,246.05L754.57,245.76L755.5,245.52L756.01,245.54L758.69,246.57L759.64,247.17L760.17,247.73L760.42,247.87L762.33,248.46L763.61,248.08L764.24,247.68L764.62,247.15L764.59,246.42L764.23,245.75L763.29,244.97L761.46,243.87L760.06,242.74L759.17,241.71L758.1,240.11L757.84,239.64L757.73,239.23L757.78,238.69L758.33,238.06L759.11,237.77L760.08,237.89L761.46,238.57L764.53,239.74L765.44,240.66L766.73,241.41L767.7,241.58L768.32,241.47L768.6,241.26L768.77,240.87L768.74,240.62L767.53,239.26L766.84,238.3L766.75,238.05L766.75,237.64L766.93,236.91L767.28,236.65L768.6,236.39L769.54,236.75L769.86,237.07L770.53,237.42L771.27,237.53L771.73,237.37L772.07,237.03L772.15,236.75L772.11,236.32L771.77,235.69L771.2,235.2L771.06,234.62L771.29,234.25L771.83,234.04L772.43,234.06L775.67,234.99L776.02,235.09L779.42,236.27L780.3,236.59L784.82,238.72L786.96,238.91L787.74,239.1L788.05,238.99L788.36,238.44L788.36,237.33L788.57,236.39L790.03,234.15L791.36,233.06L792.91,231.36L794.78,230.26L795.25,229.78L795.52,229.26L795.47,228.91L793.82,227.08L793.8,226.52L794.08,226.17L794.84,225.76L798.54,225.79L799.23,225.64L799.57,225.36L800.36,224.38L801.12,222.74L801.36,222.47L802.86,221.34L803.97,221.14L804.92,221.22L806.58,221.68L808.01,222.41L809.93,222.44L811.42,222.93L811.87,223.24L813.45,223.54L815.63,224.26L816.35,224.36L817.44,224.79L818.27,225.29L819.58,226.8L819.81,226.91L820.95,226.92L821.8,227.45L822.33,227.96L823.46,229.27L826.41,232.26L826.76,232.93L827.17,233.45L828.76,234.61L829.27,235.17L830.33,237.09L831.45,238.43z"/>
		<path id="C54067" title="Nicholas" class="land" d="M358.78,491.23L353.83,496.52L360.59,514.67L356.82,517.34L361.55,525.73L363.33,530.63L365.62,527.75L366.23,529.67L397.34,550.51L351.5,590.65L347.77,593.41L340.96,591.77L317.14,587.87L317.62,585.49L315.07,581.96L312.29,580.29L307.43,576.66L305.27,572.47L306.17,570.23L305.88,567.61L302.1,564.63L299.92,561.39L295.68,560.8L293.89,562.58L291.77,562.12L290.69,559.6L289.12,559.24L287.64,560.43L284.72,563.29L283.65,565.08L280.91,565.4L277.52,563.53L272.48,558.27L262.9,558.46L262.08,557.31L261.4,555.73L260.42,554.66L258.66,554.48L256.62,553.41L256.3,552.04L254.27,551.38L254.3,551.33L311.89,516.82L328.8,502.23L327.38,498.61L317.77,496.4L317.32,495.71L334.6,484.12L340.74,491.42L346.98,488.88z"/>
		<path id="C54069" title="Ohio" class="land" d="M344.26,141.4L344.37,139.24L344.37,138.66L343.97,136.41L343.75,136.2L343.25,134.96L343,133.44L342.98,132.45L343.3,131.42L344.4,129.92L347.59,127.49L348.09,126.85L348.29,126.41L348.54,125.5L348.72,124.21L348.67,123.64L348.47,122.71L348.34,122.52L348.03,120.83L348.12,117.77L348.61,116.21L348.85,114.66L349.1,113.9L349.39,113.35L352.42,107.62L352.86,107.01L353.16,106.71L353.2,106.69L356.34,108.33L368.75,108.7L382.48,112.77L382.5,131.89L382.49,132.14L382.47,146.33L343.94,142.36z"/>
		<path id="C54071" title="Pendleton" class="land" d="M631.65,425.42L645.51,437.36L645.46,437.63L644.85,438.44L644.15,438.96L642.76,440.55L642.72,441.22L642.53,441.79L642.04,442.46L641.48,443.49L641.07,444.64L640.44,445.81L640.11,446.84L640.24,447.79L639.13,450.93L639.16,451.43L639.21,451.64L639.48,453.18L639.97,453.73L640.42,454.03L640.64,454.56L640.01,457.47L639.43,458.51L639.13,460L639.09,460.76L636.68,461.51L635.74,460.71L634.18,460.6L633.82,460.69L632.47,461.79L632.23,462.2L631.78,463.85L631.44,464.3L631.42,464.38L631.28,464.68L631.16,465.08L631.06,465.69L630.69,465.87L630.15,466.51L629.41,468.49L629.37,468.53L628.6,469.68L627.86,471.83L627.82,472.29L628.04,472.91L627.18,474.13L627.21,475.67L627.34,475.8L627.27,476.17L626.4,478.28L625.58,479.31L625.07,480.34L624.93,480.91L625.11,481.46L625.05,481.72L624.41,482.08L624.35,482.13L624.03,482.31L623.27,483.6L622.7,485.52L621.81,486.46L621,487.61L620.38,488.91L619.57,490.95L618.77,491.71L617.86,495.62L618.58,496.52L618.41,497.22L618.41,497.29L618.08,498.33L618.03,498.63L618.02,498.64L617.92,498.94L617.09,499.78L616.4,500.2L615.98,500.79L616.06,501.77L615.47,502.41L615.21,502.71L614.14,503.26L613.64,503.5L612.62,504.23L612.27,505.49L612.3,507.15L612.16,507.81L611.31,508.01L610.28,507.43L610.03,507.41L608.83,509.21L608.51,510L608.42,510.19L608.07,510.65L607.7,511.44L606.86,511.65L606.42,511.89L605.03,512.87L604.94,512.96L604.95,513.11L604.99,513.53L605.33,514.07L605.39,514.38L605.49,514.67L605.41,515.46L604.9,516.06L604.42,515.8L604.2,515.5L603.92,515.41L603.54,515.46L603.31,515.71L602.61,516.06L602.24,516.44L601.82,516.8L599.63,517.49L589.18,513.97L570.05,507.11L565.89,497.84L561.98,489.55L560.11,487.51L559.88,487.08L559.84,486.74L559.21,485.66L558.96,485.45L558.19,485.13L555.87,483.53L553.92,483L552.93,482.86L539.02,476.35L544.38,469.2L541.75,466.16L543.04,459.68L548.69,459.9L548.27,454.31L554.88,447.5L555.85,444L559.41,440.76L564.3,432.07L564.47,428.37L560.95,425.23L561.68,421.54L558.82,418.96L563.01,413.94L564.03,411.04L562.34,407.31L568.98,408.6L575.84,405.79L573.86,398.59L576.04,397.96L581.02,400.18L588.36,400.68L589.6,399.76L592.86,392.23z"/>
		<path id="C54073" title="Pleasants" class="land" d="M294.54,301.31L289.34,301.46L287.95,306.44L285.07,307.85L281.42,305.88L274.17,309.85L265.91,310.42L265.34,311.78L256.12,311.26L252.86,320.44L248.96,314.87L237.61,313.44L237.64,309.31L233.31,306.44L230.51,308.36L229.14,303.36L231.72,303.1L233.41,302.5L234.3,301.98L235.56,300.87L237.26,299.62L238.44,298.91L241.1,296.76L242.41,295.87L245.31,294.74L246.34,293.69L247.23,293.2L249.2,293.01L251.13,292.25L252.43,292.19L255.72,293.16L256.11,293.14L256.84,292.81L257.61,292.1L257.86,291.56L258,290.6L257.9,289.46L258.01,289.1L258.48,288.27L259.02,287.43L259.88,286.38L261.63,284.46L262.49,282.8L263.14,282.15L263.57,281.78L265.24,280.84L266.52,280.38L268.5,279.91L271.09,279.77L271.76,279.47L272.1,279.19L272.82,278.47L273.5,277.55L274.09,276.53L286.06,274.95L284.92,272.19L290.56,274.21L293.2,287.59z"/>
		<path id="C54075" title="Pocahontas" class="land" d="M411.09,559.98L412.51,532.7L416.45,534.89L431.7,522.84L454.84,503.28L470.62,506.67L500.49,485.68L501.7,478.17L504.28,472.25L503.47,467.62L506.5,465.71L512.19,450.61L511.42,449.16L516.1,442.32L524.36,448.71L523.17,449.76L522.85,456.17L528.03,454.74L530.37,459.31L533.72,459.54L533.72,455.62L536.92,453.73L542.91,456.24L543.04,459.68L541.75,466.16L544.38,469.2L539.02,476.35L537.76,479.87L537.39,480.59L537.17,480.69L536.77,481.9L536.94,482.15L537.19,483.02L536.59,483.46L536.14,483.37L535.39,485.98L535.32,487.38L535.82,488.55L535.48,489.49L534.72,490.75L534.98,491.02L535.3,491.16L535.84,491.75L536.52,493.04L536.68,493.77L536.43,494.09L536.04,494.16L535.69,494.36L535.48,494.57L535.42,494.81L535.42,494.83L535.17,495.55L534.53,494.94L533.39,494.89L533.18,495.44L533.17,496.29L532.92,497.02L531.96,498.2L531.43,498.06L531.25,498.13L530.85,498.64L530.3,500.25L530.41,500.85L530.68,501.57L531.04,501.67L530.91,502.29L530.66,502.39L530.04,503.01L529.93,503.28L530.05,504.22L530.65,504.41L531.46,505.62L531.86,506.77L531.95,507.19L531.98,508.66L531.85,508.87L531.39,509.62L531.74,510.48L531.41,511.16L531.36,511.87L531.49,512.43L531.68,512.69L531.72,513.01L528.67,516.61L528.22,517.44L528.25,518.02L527.54,519.05L526.74,519.85L525.78,522.6L525.12,523.16L524.48,524.7L524.16,526.29L524.37,526.55L524.88,526.67L525.04,526.87L525.22,527.95L525.25,528.47L525.19,528.61L524.99,528.84L524.58,528.93L524.09,529.31L523.63,530.09L522.55,530.69L521.92,530.72L519.86,529.95L519.49,529.9L518.27,530.14L517.76,530.86L517.91,531.43L517.28,533.5L516.71,534.94L515.6,535.83L514.39,536L512.49,537.69L512.2,538.68L511.94,539.14L511.13,539.87L510.3,540.9L510.04,541.52L510.05,541.9L510.51,542.67L511.14,543.37L511.26,543.81L511.37,544.86L512.25,544.87L512.69,545.28L513.7,547.35L514.11,549.15L513.86,550.2L513.64,550.44L512.57,550.72L512.17,550.82L511.64,551.85L510.73,552.37L509.71,552.09L509.31,552.6L509.04,553.31L509.04,553.63L509.19,554.11L508.78,554.58L508.34,554.87L508.09,554.86L507.32,554.35L506.31,554.54L505.93,555.02L505.74,555.62L505.72,556.08L505.55,556.31L505.12,556.46L504.13,556.38L503.73,556.5L503.51,556.75L502.81,558.27L501.62,558.78L500.42,560.41L497.64,563.36L496.71,564.08L496.32,564.06L496.02,564.19L495.39,564.81L495.31,565.1L495.25,565.32L495.15,565.9L494.16,567.46L492.78,568.38L491.9,568.62L491.28,568.51L490.93,569L490.96,569.43L490.8,569.58L490.06,570.34L490.09,570.44L490.88,570.89L490.86,571.45L490.52,572.1L490.47,572.61L490.65,573.07L490.98,573.07L491.16,573.14L491.2,573.27L490.52,576.17L489.71,577.07L489.33,577.16L489.28,577.21L488.71,578.42L488.7,578.53L488.65,579.6L487.8,580.57L486.18,580.84L485.8,581.46L486.86,586.01L487.03,586.21L487.69,586.44L488.53,586.56L489.14,587.03L488.9,587.56L488.29,588.34L487.77,588.84L487.71,589.19L487.56,589.44L486.99,589.85L486.25,590.57L485.04,592.24L484.25,592.87L484.09,593.12L483.06,595.79L483.11,596.92L456.65,598.71L446.11,603.12L440.3,601.64L438.03,602.98L428.26,600.81L410.51,585.39z"/>
		<path id="C54077" title="Preston" class="land" d="M568.15,337.43L564.48,332.5L532.15,319.73L510.12,329.19L502.82,325.48L502.24,319.53L498.53,314.24L494.68,313.2L494.83,281.67L493.92,270.92L513.8,237.95L514.5,230.15L518.39,220.93L518.39,215.36L545.94,215.25L546.37,215.27L557.13,215.36L570.05,215.29L570.06,233.19L569.99,233.48L569.85,233.64L569.65,259.36L569.02,259.36L569.02,260.99L568.97,261.76L568.66,302.84L568.35,302.84L568.22,313.95L568.07,317.75L568.23,318.17L568.14,321.16L568.33,321.22L568.39,321.23L568.21,334.87L568.21,334.87L568.21,334.88z"/>
		<path id="C54079" title="Putnam" class="land" d="M156.88,455.86L161.41,455.11L170.65,468.35L160,478.51L161.5,485.05L160.25,491.79L162.38,493.22L165.79,504.64L156.34,509.33L145.72,513.47L133.96,520.53L131.27,537.21L116.58,550.66L112.62,547.28L107.27,545.3L108.26,534.54L107.53,526.05L106.09,503.15L104.39,472.58L123.97,461.25z"/>
		<path id="C54081" title="Raleigh" class="land" d="M213.78,614.3L217.04,618.68L227.42,618.43L233.45,616.71L236.94,619.11L237.97,622.27L242.57,624.14L241.69,626.54L243,632.88L241.87,635.58L242.84,636.56L282.77,639.61L282.87,643.04L277.83,643.35L280.69,645.4L286.52,643.59L285.64,648.76L290.93,650.13L299.88,649.31L305.83,652.49L309.2,654.62L310.08,658.32L313.41,660.72L314.96,664.36L310.7,667.72L309.74,669.93L314.17,672.85L315.74,679.14L317.95,682.75L314.91,685.73L314.37,681.86L312.31,679.35L305.48,675.99L300.13,676.12L300.87,679.71L297.93,682.7L292.04,686.37L290.99,688.87L283.57,693.11L284.42,699.52L278.92,704.68L277.78,704.43L276.81,703.82L275.34,704.35L273.94,704.13L272.33,703.63L270.39,702.86L268.48,703.85L266.72,704.58L264.71,705.44L263.79,706.75L261.84,706.82L260.1,708.01L259.77,710.07L260.01,711.92L259.51,712.67L259.53,713.68L259.73,714.76L259.78,715.93L259.38,716.81L258.5,717.41L258.2,718.18L258.5,719.81L257.58,721.21L257.5,722.15L256.9,722.83L255.98,722.36L250.4,717.27L248.9,718.5L240.73,713.71L239,710.57L239.98,706.09L218.97,668.31L217.17,667.46L213.53,660.41L203.42,658.82L202.66,657.91L202.5,654.51L200.79,651.67L198.07,650.63L195.01,646.87L194.15,641.83L195.28,638.99L194.67,637.08L195.75,636.08L195.21,634.45L194.6,632.86L194.69,629.95L193.75,628.75L194.04,626.86L194.94,625.43L195.72,622.89L197.84,619.66L200.87,617.95L203.44,615.02L206.19,615.07L208.56,615.07L211.77,614.11z"/>
		<path id="C54083" title="Randolph" class="land" d="M425.49,452.64L433.27,441.41L453.19,440.93L458.18,419.16L456.26,406.2L460.04,400.61L458.42,399.21L461.16,394.91L460.57,394.59L494.58,388.56L502.37,361.36L507.53,357.79L507.35,355.71L508.05,355.13L511.98,357.51L516.3,364.85L516.01,371.7L514.44,373.8L564.27,388.16L565.21,389.36L566.87,387.63L580.07,388.96L582.28,388.46L591.46,390.61L592.92,391.95L592.86,392.23L589.6,399.76L588.36,400.68L581.02,400.18L576.04,397.96L573.86,398.59L575.84,405.79L568.98,408.6L562.34,407.31L564.03,411.04L563.01,413.94L558.82,418.96L561.68,421.54L560.95,425.23L564.47,428.37L564.3,432.07L559.41,440.76L555.85,444L554.88,447.5L548.27,454.31L548.69,459.9L543.04,459.68L542.91,456.24L536.92,453.73L533.72,455.62L533.72,459.54L530.37,459.31L528.03,454.74L522.85,456.17L523.17,449.76L524.36,448.71L516.1,442.32L511.42,449.16L512.19,450.61L506.5,465.71L503.47,467.62L504.28,472.25L501.7,478.17L500.49,485.68L470.62,506.67L454.84,503.28L431.7,522.84L442.78,491.51z"/>
		<path id="C54085" title="Ritchie" class="land" d="M315.96,314.43L311.45,319.37L329.6,357.19L329.99,359.48L294.64,380.41L290.85,379.53L289.89,380.22L282.44,380.13L277.5,377.48L274.6,372.61L268.1,373.1L266.71,375.37L263.62,372.88L255.51,373L254.88,374.99L250.92,374.34L250.32,369.53L246.78,368.94L249.67,365.8L248.49,357.69L236.71,347.57L242.32,339.58L241.69,335.63L245.99,328.55L247.72,322.37L252.86,320.44L256.12,311.26L265.34,311.78L265.91,310.42L274.17,309.85L281.42,305.88L285.07,307.85L287.95,306.44L289.34,301.46L294.54,301.31L295.58,303.71L298.19,302.16L302.63,303.94L305.15,301.56L306.1,296.02L308.16,292.45L313.14,295L316.87,299.04z"/>
		<path id="C54087" title="Roane" class="land" d="M205.51,401.35L211.85,399.14L215.31,395.88L221.26,400.7L234.06,406.48L245.85,402.05L249.38,405.4L249.93,407.91L252.76,410.88L252.59,414.74L254.21,416.5L257.24,421.55L256.14,423.56L256.09,426.82L255.85,430.63L258.33,432.76L261.58,437.82L265.06,446.66L265.56,452.98L266.79,461.64L273.48,466.92L279.95,468.65L280.88,471.66L272.41,482.21L261.02,490.99L256.26,490.03L246.6,492.32L241.34,489.35L233.05,487.86L212.21,485.89L211.08,486.71L204.62,478.37L201.99,471.49L197.59,457.8L200.73,440.37L202.1,422.76L200.74,407.34L201.06,405.09L203.92,404.5z"/>
		<path id="C54089" title="Summers" class="land" d="M330.8,641.19L340.53,648.57L355.64,665.22L356.52,672.31L357.04,676.19L341.26,704.92L332.21,719.72L321.41,740.9L321.22,740.62L321.21,740.62L320.84,740.37L320.71,740.19L320.24,739.71L278.92,704.68L284.42,699.52L283.57,693.11L290.99,688.87L292.04,686.37L297.93,682.7L300.87,679.71L300.13,676.12L305.48,675.99L312.31,679.35L314.37,681.86L314.91,685.73L317.95,682.75L315.74,679.14L314.17,672.85L309.74,669.93L310.7,667.72L314.96,664.36L313.41,660.72L310.08,658.32L309.2,654.62L305.83,652.49z"/>
		<path id="C54091" title="Taylor" class="land" d="M440.38,291.51L454.57,289.5L456.35,287.6L460.17,293.13L471.38,289.59L473.9,285.85L486.88,277.76L494.83,281.67L494.68,313.2L492.52,315.53L489.18,315.71L486.42,313.83L482.88,320.33L471.67,325.17L448.88,327.4L445.94,326.47L439.45,318.13L439.48,296.04z"/>
		<path id="C54093" title="Tucker" class="land" d="M507.35,355.71L505.26,353L507.06,337.61L510.12,329.19L532.15,319.73L564.48,332.5L568.15,337.43L570.37,340.25L573.95,340.08L577.22,338.07L580.61,338.55L584.66,338.1L587.08,335.67L589.3,335.64L595.61,332.82L600.91,334.97L602.58,338.84L599.25,343.76L596.24,349.65L594.13,356.81L596.56,364.77L600.52,372.43L597.52,382.41L595.67,387.13L591.46,390.61L582.28,388.46L580.07,388.96L566.87,387.63L565.21,389.36L564.27,388.16L514.44,373.8L516.01,371.7L516.3,364.85L511.98,357.51L508.05,355.13z"/>
		<path id="C54095" title="Tyler" class="land" d="M364.57,278.24L354.06,283.52L347.53,282.91L343.95,290.96L326.63,303.09L315.96,314.43L316.87,299.04L313.14,295L308.16,292.45L306.1,296.02L305.15,301.56L302.63,303.94L298.19,302.16L295.58,303.71L294.54,301.31L293.2,287.59L290.56,274.21L284.92,272.19L286.06,274.95L274.09,276.53L275.23,274.55L275.35,274.55L277.8,269.7L279.49,267.42L282.28,264.48L283.24,263.01L285.08,261.44L286.59,259.91L286.96,259.31L287.87,258.29L288.98,257.42L290.52,256.22L291.15,255.44L291.65,254.57L292.34,253.85L294.39,252.13L296.52,250.66L297.08,250.16L298.15,248.77L299.78,247.31L301.27,245.77L306.06,241.87L316.45,248.06L323.58,243.22L324.06,247.23L327.03,248.99L327.76,254.07L330.17,252.32L335.02,255.64L334.69,258.04L342.58,263.74L343.8,268.68L346.25,271.08L355.13,275.03L358.44,273.67z"/>
		<path id="C54097" title="Upshur" class="land" d="M405.15,445.13L402.19,435.78L406.25,411.27L407.54,408.33L409.7,408.56L410.69,403.92L413.21,401.91L414.98,396.99L413.2,396.28L418.75,391.96L415.69,383.22L418.66,379.33L420.99,368.25L421.86,358.47L431.12,359.17L435,356.4L438.19,359.97L445.68,362.22L448.57,365.91L452.81,373.71L465.84,373.86L465.24,377.35L467.89,379.81L465.99,381.2L466.41,388.16L462.68,390.51L464.4,391.26L460.57,394.59L461.16,394.91L458.42,399.21L460.04,400.61L456.26,406.2L458.18,419.16L453.19,440.93L433.27,441.41L425.49,452.64L418.62,455.07L416.4,447.57L412.34,444.44z"/>
		<path id="C54099" title="Wayne" class="land" d="M60.88,624.22L43.36,642.56L45.04,647.2L41.35,644.22L41.4,644.06L40.08,643.35L39.81,643.14L39.67,642.83L39.7,642.52L40.06,642.32L42.27,641.99L42.52,641.84L42.69,641.52L42.19,641.21L41.44,641.16L41.1,641.03L40.86,640.79L40.67,640.41L40.56,639.79L40.58,638.2L40.48,637.81L40.17,637.39L38.81,636.79L38.26,636.42L37.6,634.81L37.09,634.08L35.47,633.15L34.8,632.21L34.52,632.09L33.64,632.07L33.28,631.96L33.11,631.7L32.97,631.16L32.72,630.76L32.47,630.72L31.77,630.99L31.63,631.64L31.7,633.22L31.61,633.63L31.22,634.28L30.99,634.31L30.62,634.07L30.36,633.59L30.39,633.21L30.61,632.79L30.68,632.3L30.6,631.77L30.45,631.42L29.76,630.77L28.28,630.28L28.15,630.02L28.27,629.61L29.46,628.61L29.58,628.27L28.93,628L26.81,627.99L26.38,627.71L25.71,626.59L25.69,626.24L25.97,625.84L26.49,625.78L27.63,626L27.89,625.81L27.99,625.51L28.01,625.34L27.92,625.25L27.17,624.94L26.62,624.53L26.53,624.39L26.53,623.8L26.53,623.8L26.64,623.59L26.89,623.55L28.23,623.85L28.72,623.67L29.47,622.97L30.52,621.66L31.12,620.7L31.14,620.51L30.96,620.34L29.82,620.05L28.88,619.67L28.79,619.2L28.85,618.25L28.95,617.87L29.65,617.51L31.55,617.54L32.34,616.67L32.51,615.89L32.48,615.18L32.26,614.87L31.98,614.69L31.15,614.41L29.16,615.04L28.95,614.93L28.72,614.38L28.62,613.83L28.57,612.39L28.25,611.79L27.88,611.67L26.07,611.6L24.75,611.07L24.28,611.13L23.66,611.48L23.17,611.43L22.92,611.14L22.84,610.85L22.92,610.24L22.88,609.77L22.51,609.47L21.98,608.46L21.4,606.96L21.4,605.4L21.17,605.14L20.58,604.86L19.75,604.08L19.09,602.91L19.01,602.36L19.3,601.7L19.33,601.13L18.62,600.39L18.14,599.55L17.99,599.07L17.97,598.1L17.54,597.51L17.15,597.06L17.12,595.81L16.82,595.3L15.32,594.84L14.22,593.06L12.71,592.73L10.92,590.78L10.66,589.96L10.72,589.1L10.62,587.06L10.25,586.63L9.53,586.4L9.2,586.18L8.41,585.03L8.03,584.7L7.58,584.48L6.86,583.91L5.14,584.05L4.55,583.93L4.39,583.76L4.24,583.36L4.24,581.37L4.07,581.04L3.34,580.72L1.88,580.3L1.49,580.03L1.34,579.76L1.16,578.75L1.14,576.78L1.04,575.73L0,573.74L0.31,572.81L1.02,572.46L3.47,572.6L4.55,572.93L5.62,572.65L6.01,572.36L7.29,568.69L8.17,566.5L8.25,565.64L8.33,561.9L7.99,561.55L7.02,561.05L6.44,560.47L6.18,559.76L5.8,557.99L5.84,557.64L6.77,555.38L7.09,555.08L7.22,555.08L7.29,555.08L8.96,555.5L10.56,555.46L10.93,555.29L11.33,554.79L11.96,553.37L12.61,551.3L12.62,548.82L12.24,548.19L11.87,547.22L11.74,546.49L11.69,544.94L11.14,544.08L11.1,543.78L11.39,542.95L11.95,541.81L12.93,540.32L13.09,539.95L13.11,539.45L12.96,538.76L12.2,536.59L10.68,535.27L10.22,534.24L9.9,533.86L9.39,533.54L8.68,533.27L8.41,532.79L8.38,529.83L8.5,528.24L8.65,527.67L9.14,526.64L9.31,525.9L8.88,524.16L8.88,524.15L8.18,522.78L8.1,522.4L8.19,521.76L8.45,521.31L8.95,519.9L8.58,517.93L8.57,517.26L8.72,516.16L9.19,515.22L10.16,516.66L11.65,517.89L12.16,518.2L13.56,518.77L15.13,519.21L17.08,519.47L18.81,519.36L20.72,519.02L24.66,517.74L24.66,517.74L54.13,541.86L56.91,539.66L56.55,537.62L59.44,535.89L64.51,538.21L66.31,542.17L61.02,544.14L59.96,553.01L62.12,556.68L66.39,559.42L68.36,559.21L68,560.84L66.34,565.71L66.98,570.88L66.45,574.46L65.4,576.74L64.75,577.29L64.71,578.23L65.44,579.28L66.59,579.38L68.17,580.16L69.2,580.83L69.37,582.09L68.03,584.51L68.05,585.51L68.91,586.96L70.38,588.01L72.73,589.55L73.68,593.46L76.83,595.61L79.9,599.92L79.76,603.11L79.07,604.74L78.89,606.2L73.78,610.35L72.86,610.97L71.83,611.9L63.47,621.78z"/>
		<path id="C54101" title="Webster" class="land" d="M393.59,442.47L395.87,445.32L405.15,445.13L412.34,444.44L416.4,447.57L418.62,455.07L425.49,452.64L442.78,491.51L431.7,522.84L416.45,534.89L412.51,532.7L411.09,559.98L397.34,550.51L366.23,529.67L365.62,527.75L363.33,530.63L361.55,525.73L356.82,517.34L360.59,514.67L353.83,496.52L358.78,491.23L384.36,463.96z"/>
		<path id="C54103" title="Wetzel" class="land" d="M400.06,215.27L402.57,216.07L404.76,224.74L404.66,234.79L402.49,235.08L401.89,234.06L399.39,234.01L396.71,235.97L396.05,240.68L393.63,243.97L389.6,245.58L389.21,246.79L387.46,250.1L387.04,255.62L388.55,260.17L390.73,265.32L388.28,270.81L386.98,273.78L383.63,276.33L383.11,281.17L377.9,283.17L370.96,278L364.57,278.24L358.44,273.67L355.13,275.03L346.25,271.08L343.8,268.68L342.58,263.74L334.69,258.04L335.02,255.64L330.17,252.32L327.76,254.07L327.03,248.99L324.06,247.23L323.58,243.22L316.45,248.06L306.06,241.87L307.3,240.54L307.95,240.03L309.29,239.43L310.77,239.13L312.81,239.19L314.57,239.58L315.34,239.58L317.47,238.66L318.26,237.18L319.15,234.41L319.25,233.76L319.2,233.5L319.37,232.57L319.94,231.24L320.13,228.88L319.94,225.21L320,224.12L320.09,223.35L320.47,222.13L320.83,221.69L322.11,220.79L322.58,220.54L323.89,220.33L324.89,219.96L325.84,219.39L326.2,218.88L326.58,217.44L326.58,216.93L326.26,215.67L325.91,215.35L382.43,215.22z"/>
		<path id="C54105" title="Wirt" class="land" d="M191.32,376.39L196.34,371.06L219.49,351.11L222.58,351.1L242.32,339.58L236.71,347.57L248.49,357.69L249.67,365.8L246.78,368.94L250.32,369.53L250.92,374.34L254.88,374.99L255.51,373L263.62,372.88L266.71,375.37L246.88,397.11L245.85,402.05L234.06,406.48L221.26,400.7L215.31,395.88L211.85,399.14L205.51,401.35L199.14,395.29L197.07,389.98L200.66,387.6L200.18,381.09z"/>
		<path id="C54107" title="Wood" class="land" d="M165.14,332.76L165.39,332.58L165.61,332.43L167.9,331.8L169.83,331.43L170.96,330.67L171.36,330.13L171.55,329.78L171.6,329.28L171.39,327.9L170.76,326.33L170.6,325.58L170.53,324.97L170.64,323.05L171.42,321.62L171.88,320.97L172.94,319.83L173.89,319.18L175.36,318.67L177.88,318.35L180.22,318.39L184.15,319.21L185.48,318.82L186.47,318.65L187.38,318.77L188.86,319.27L190.04,320.1L190.58,320.34L193.34,320.59L193.86,319.9L194.24,318.62L194.27,314.52L195.16,308.97L195.25,305.98L195.62,304.12L198.36,300.86L199.78,299.61L201.6,298.83L203.55,297.57L205.4,296.13L207.95,293.62L209.06,292.32L210.8,289.89L211.78,289.05L213.87,287.78L215.6,287.52L217.56,287.96L218.82,288.68L220.27,289.84L221.69,291.18L222.77,292.69L223.47,295.28L223.84,297.07L224.71,300.23L225.09,301.13L225.55,301.8L226.75,303.04L227.63,303.36L228.3,303.45L229.14,303.36L230.51,308.36L233.31,306.44L237.64,309.31L237.61,313.44L248.96,314.87L252.86,320.44L247.72,322.37L245.99,328.55L241.69,335.63L242.32,339.58L222.58,351.1L219.49,351.11L196.34,371.06L191.32,376.39L161.49,360.42L161.81,359.8L162.1,358.81L162.26,357.84L162.41,355.48L161.97,353.16L161.92,352.22L161.98,350.39L162.15,349.67L161.96,348.17L160.23,342.84L159.87,341.5L159.95,340.75L159.96,340.65L160.5,339.79L161.02,339.37L162.52,338.65L163.32,337.67L163.55,337.11L163.99,334.89L164.6,333.5z"/>
		<path id="C54109" title="Wyoming" class="land" d="M141.93,713.67L145.82,709.08L146.6,702.82L151.34,699.36L152.8,694.99L151.47,688.43L152.28,687.48L155.7,684.87L160.9,683.26L163.85,683.08L166.37,679.85L164.78,674.2L161.02,670.39L159.56,666.66L160.52,666.16L162.57,665.3L165.27,665.35L168.96,664.42L171.41,662.89L173.8,662.79L176.52,662.2L180.26,661.65L184.45,660.09L186.63,659.39L192.21,665.14L200.41,659.29L203.42,658.82L213.53,660.41L217.17,667.46L218.97,668.31L239.98,706.09L239,710.57L240.73,713.71L248.9,718.5L250.4,717.27L255.98,722.36L249.43,724.98L245.83,731L240.64,733.86L245.1,742.58L239.95,741.76L236.54,739.3L233.75,739.72L228.56,737.5L226.6,733.46L224.28,732.74L218.25,736.32L212.12,728.17L206.56,730.59L201.12,730.22L196.36,726.57L191.07,727.58L187.62,726.27L184.85,719.95L182.76,722.12L178.19,719.45L173.24,720.76L172.83,723.04L168.66,725.78L148.77,723.22L146.77,721.62L147.24,716.72z"/>
	</g>
</svg>